<?xml version="1.0" encoding="UTF-8" standalone="no"?>
<!-- Created with Inkscape (http://www.inkscape.org/) -->

<svg
   xmlns:dc="http://purl.org/dc/elements/1.1/"
   xmlns:cc="http://creativecommons.org/ns#"
   xmlns:rdf="http://www.w3.org/1999/02/22-rdf-syntax-ns#"
   xmlns:svg="http://www.w3.org/2000/svg"
   xmlns="http://www.w3.org/2000/svg"
   xmlns:xlink="http://www.w3.org/1999/xlink"
   xmlns:sodipodi="http://sodipodi.sourceforge.net/DTD/sodipodi-0.dtd"
   xmlns:inkscape="http://www.inkscape.org/namespaces/inkscape"
   width="32"
   height="32"
   id="svg2"
   version="1.1"
   inkscape:version="0.48.3.1 r9886"
   sodipodi:docname="config-users.svg">
  <defs
     id="defs4">
    <linearGradient
       id="linearGradient3774">
      <stop
         style="stop-color:#66b437;stop-opacity:1;"
         offset="0"
         id="stop3776" />
      <stop
         style="stop-color:#0e7027;stop-opacity:1;"
         offset="1"
         id="stop3778" />
    </linearGradient>
    <linearGradient
       id="linearGradient3765">
      <stop
         style="stop-color:#d8f56a;stop-opacity:1;"
         offset="0"
         id="stop3768" />
      <stop
         style="stop-color:#31a11f;stop-opacity:1;"
         offset="1"
         id="stop3770" />
    </linearGradient>
    <linearGradient
       id="linearGradient3757">
      <stop
         style="stop-color:#ffffff;stop-opacity:1;"
         offset="0"
         id="stop3759" />
      <stop
         id="stop3767"
         offset="0.04882902"
         style="stop-color:#ffffff;stop-opacity:0.15686275;" />
      <stop
         id="stop3765"
         offset="0.94428825"
         style="stop-color:#ffffff;stop-opacity:0.23529412;" />
      <stop
         style="stop-color:#ffffff;stop-opacity:0.39215687;"
         offset="1"
         id="stop3761" />
    </linearGradient>
    <linearGradient
       inkscape:collect="always"
       xlink:href="#linearGradient3757"
       id="linearGradient3763"
       x1="16.75"
       y1="1023.4156"
       x2="16.75"
       y2="1049.4906"
       gradientUnits="userSpaceOnUse" />
    <radialGradient
       inkscape:collect="always"
       xlink:href="#linearGradient3765"
       id="radialGradient3772"
       cx="16.357161"
       cy="1028.5944"
       fx="16.357161"
       fy="1028.5944"
       r="14"
       gradientUnits="userSpaceOnUse"
       gradientTransform="matrix(2.8961662e-6,1.6776237,-1.3445239,2.3211192e-6,1399.3268,1001.1508)" />
    <linearGradient
       inkscape:collect="always"
       xlink:href="#linearGradient3774"
       id="linearGradient3780"
       x1="6.1964288"
       y1="1022.4336"
       x2="6.1964288"
       y2="1050.2094"
       gradientUnits="userSpaceOnUse" />
  </defs>
  <sodipodi:namedview
     id="base"
     pagecolor="#ffffff"
     bordercolor="#666666"
     borderopacity="1.0"
     inkscape:pageopacity="0.0"
     inkscape:pageshadow="2"
     inkscape:zoom="15.839192"
     inkscape:cx="11.065896"
     inkscape:cy="13.669285"
     inkscape:document-units="px"
     inkscape:current-layer="layer1"
     showgrid="false"
     inkscape:window-width="1280"
     inkscape:window-height="749"
     inkscape:window-x="0"
     inkscape:window-y="24"
     inkscape:window-maximized="1" />
  <metadata
     id="metadata7">
    <rdf:RDF>
      <cc:Work
         rdf:about="">
        <dc:format>image/svg+xml</dc:format>
        <dc:type
           rdf:resource="http://purl.org/dc/dcmitype/StillImage" />
        <dc:title />
      </cc:Work>
    </rdf:RDF>
  </metadata>
  <g
     inkscape:label="Livello 1"
     inkscape:groupmode="layer"
     id="layer1"
     transform="translate(0,-1020.3622)">
    <rect
       style="fill:url(#radialGradient3772);fill-opacity:1;stroke:url(#linearGradient3780);stroke-opacity:1"
       id="rect2985"
       width="27"
       height="27"
       x="2.5"
       y="1022.8622"
       rx="1.5"
       ry="1.5" />
    <rect
       ry="0.5"
       rx="0.5"
       y="1023.8621"
       x="3.4999995"
       height="25"
       width="25"
       id="rect3755"
       style="opacity:0.50000000000000000;fill:none;fill-opacity:1;stroke:url(#linearGradient3763);stroke-opacity:1" />
    <path
       style="fill:#ffffff;fill-opacity:1;fill-rule:nonzero;stroke:none;opacity:0.2"
       d="m 8.987523,1032.3622 c -1.309922,0 -2.375003,1.0089 -2.375003,2.2586 -0.01785,0.2114 -0.01949,0.4224 -0.01252,0.6262 -0.1108,0 -0.4,0.087 -0.4,0.1966 l 0,1.1784 c 0,0.1089 0.2892,0.1966 0.4,0.1966 l 0.137501,0 c 0.201081,0.8284 0.638788,1.51 1.212499,1.8907 -0.04973,0.063 -0.09843,0.1246 -0.15,0.1844 l -0.4,0 c -0.2216,0 -0.4,0.1753 -0.4,0.3923 l 0,0.3686 c -0.560808,0.4329 -1.21973,0.7554 -2,0.9576 l 0,2.75 8,0 0,-2.75 c -0.743917,-0.2238 -1.406252,-0.5889 -2,-1.068 l 0,-0.2582 c 0,-0.217 -0.1784,-0.3923 -0.4,-0.3923 l -0.287501,0 c -0.06291,-0.068 -0.126493,-0.1374 -0.187496,-0.2087 0.55325,-0.3842 0.958823,-1.0537 1.149994,-1.8664 l 0.125003,0 c 0.1108,0 0.4,-0.087 0.4,-0.1966 l 0,-1.1784 c 0,-0.109 -0.2892,-0.1966 -0.4,-0.1966 -0.0023,-0.1703 -0.01893,-0.3558 -0.05001,-0.5645 0,-1.6756 -1.299726,-2.2893 -2.362499,-2.3203 z"
       id="path3771"
       inkscape:connector-curvature="0"
       sodipodi:nodetypes="cccssscccssccccccsscccsssccc" />
    <path
       sodipodi:nodetypes="cccssscccssccccccsscccsssccc"
       inkscape:connector-curvature="0"
       id="path3002"
       d="m 8.987523,1031.3622 c -1.309922,0 -2.375003,1.0089 -2.375003,2.2586 -0.01785,0.2114 -0.01949,0.4224 -0.01252,0.6262 -0.1108,0 -0.4,0.087 -0.4,0.1966 l 0,1.1784 c 0,0.1089 0.2892,0.1966 0.4,0.1966 l 0.137501,0 c 0.201081,0.8284 0.638788,1.51 1.212499,1.8907 -0.04973,0.063 -0.09843,0.1246 -0.15,0.1844 l -0.4,0 c -0.2216,0 -0.4,0.1753 -0.4,0.3923 l 0,0.3686 c -0.560808,0.4329 -1.21973,0.7554 -2,0.9576 l 0,2.75 8,0 0,-2.75 c -0.743917,-0.2238 -1.406252,-0.5889 -2,-1.068 l 0,-0.2582 c 0,-0.217 -0.1784,-0.3923 -0.4,-0.3923 l -0.287501,0 c -0.06291,-0.068 -0.126493,-0.1374 -0.187496,-0.2087 0.55325,-0.3842 0.958823,-1.0537 1.149994,-1.8664 l 0.125003,0 c 0.1108,0 0.4,-0.087 0.4,-0.1966 l 0,-1.1784 c 0,-0.109 -0.2892,-0.1966 -0.4,-0.1966 -0.0023,-0.1703 -0.01893,-0.3558 -0.05001,-0.5645 0,-1.6756 -1.299726,-2.2893 -2.362499,-2.3203 z"
       style="fill:#4d9f37;fill-opacity:1;fill-rule:nonzero;stroke:none;opacity:1" />
    <path
       sodipodi:nodetypes="cccssscccssccccccsscccsssccc"
       inkscape:connector-curvature="0"
       id="path3773"
       d="m 22.987523,1032.3622 c -1.309922,0 -2.375003,1.0089 -2.375003,2.2586 -0.01785,0.2114 -0.01949,0.4224 -0.01252,0.6262 -0.1108,0 -0.4,0.087 -0.4,0.1966 l 0,1.1784 c 0,0.1089 0.2892,0.1966 0.4,0.1966 l 0.137501,0 c 0.201081,0.8284 0.638788,1.51 1.212499,1.8907 -0.04973,0.063 -0.09843,0.1246 -0.15,0.1844 l -0.4,0 c -0.2216,0 -0.4,0.1753 -0.4,0.3923 l 0,0.3686 c -0.560808,0.4329 -1.21973,0.7554 -2,0.9576 l 0,2.75 8,0 0,-2.75 c -0.743917,-0.2238 -1.406252,-0.5889 -2,-1.068 l 0,-0.2582 c 0,-0.217 -0.1784,-0.3923 -0.4,-0.3923 l -0.287501,0 c -0.06291,-0.068 -0.126493,-0.1374 -0.187496,-0.2087 0.55325,-0.3842 0.958823,-1.0537 1.149994,-1.8664 l 0.125003,0 c 0.1108,0 0.4,-0.087 0.4,-0.1966 l 0,-1.1784 c 0,-0.109 -0.2892,-0.1966 -0.4,-0.1966 -0.0023,-0.1703 -0.01893,-0.3558 -0.05001,-0.5645 0,-1.6756 -1.299726,-2.2893 -2.362499,-2.3203 z"
       style="fill:#ffffff;fill-opacity:1;fill-rule:nonzero;stroke:none;opacity:0.2" />
    <path
       style="fill:#4d9f37;fill-opacity:1;fill-rule:nonzero;stroke:none;opacity:1"
       d="m 22.987523,1031.3622 c -1.309922,0 -2.375003,1.0089 -2.375003,2.2586 -0.01785,0.2114 -0.01949,0.4224 -0.01252,0.6262 -0.1108,0 -0.4,0.087 -0.4,0.1966 l 0,1.1784 c 0,0.1089 0.2892,0.1966 0.4,0.1966 l 0.137501,0 c 0.201081,0.8284 0.638788,1.51 1.212499,1.8907 -0.04973,0.063 -0.09843,0.1246 -0.15,0.1844 l -0.4,0 c -0.2216,0 -0.4,0.1753 -0.4,0.3923 l 0,0.3686 c -0.560808,0.4329 -1.21973,0.7554 -2,0.9576 l 0,2.75 8,0 0,-2.75 c -0.743917,-0.2238 -1.406252,-0.5889 -2,-1.068 l 0,-0.2582 c 0,-0.217 -0.1784,-0.3923 -0.4,-0.3923 l -0.287501,0 c -0.06291,-0.068 -0.126493,-0.1374 -0.187496,-0.2087 0.55325,-0.3842 0.958823,-1.0537 1.149994,-1.8664 l 0.125003,0 c 0.1108,0 0.4,-0.087 0.4,-0.1966 l 0,-1.1784 c 0,-0.109 -0.2892,-0.1966 -0.4,-0.1966 -0.0023,-0.1703 -0.01893,-0.3558 -0.05001,-0.5645 0,-1.6756 -1.299726,-2.2893 -2.362499,-2.3203 z"
       id="path3004"
       inkscape:connector-curvature="0"
       sodipodi:nodetypes="cccssscccssccccccsscccsssccc" />
    <path
       sodipodi:nodetypes="cccssscccssccccccsscccsssccc"
       inkscape:connector-curvature="0"
       id="path3774"
       d="m 15.981284,1028.3622 c -1.964882,0 -3.562504,1.5593 -3.562504,3.4906 -0.02678,0.3266 -0.02924,0.6528 -0.01878,0.9678 -0.1662,0 -0.6,0.1354 -0.6,0.3038 l 0,1.8212 c 0,0.1683 0.4338,0.3038 0.6,0.3038 l 0.206251,0 c 0.301622,1.2802 0.958182,2.3336 1.818749,2.922 -0.0746,0.098 -0.147642,0.1926 -0.225,0.2849 l -0.6,0 c -0.3324,0 -0.6,0.2709 -0.6,0.6063 l 0,0.5698 c -0.841212,0.6689 -1.829595,1.1672 -3,1.4798 l 0,4.25 12,0 0,-4.25 c -1.115875,-0.3458 -2.109378,-0.9102 -3,-1.6505 l 0,-0.3991 c 0,-0.3354 -0.2676,-0.6063 -0.6,-0.6063 l -0.431252,0 c -0.09436,-0.1053 -0.189739,-0.2124 -0.281244,-0.3225 0.829876,-0.5938 1.438235,-1.6284 1.724992,-2.8844 l 0.187504,0 c 0.1662,0 0.6,-0.1355 0.6,-0.3038 l 0,-1.8212 c 0,-0.1684 -0.4338,-0.3038 -0.6,-0.3038 -0.0035,-0.2631 -0.02839,-0.55 -0.07501,-0.8724 0,-2.5896 -1.94959,-3.5381 -3.543749,-3.586 z"
       style="fill:#ffffff;fill-opacity:1;fill-rule:nonzero;stroke:none;opacity:0.3" />
    <path
       style="fill:#000000;fill-opacity:1;fill-rule:nonzero;stroke:none;opacity:0.15"
       d="M 23 11 C 21.690078 11 20.625 12.0003 20.625 13.25 C 20.60715 13.4614 20.58678 13.6712 20.59375 13.875 C 20.48295 13.875 20.1875 13.98415 20.1875 14.09375 L 20.1875 15.09375 C 20.1875 14.98415 20.48295 14.875 20.59375 14.875 C 20.58678 14.6712 20.60715 14.4614 20.625 14.25 C 20.625 13.0003 21.690078 12 23 12 C 24.062773 12.031 25.34375 12.6369 25.34375 14.3125 C 25.37483 14.5212 25.40395 14.7047 25.40625 14.875 C 25.51705 14.875 25.8125 14.98475 25.8125 15.09375 L 25.8125 14.09375 C 25.8125 13.98475 25.51705 13.875 25.40625 13.875 C 25.40395 13.7047 25.37483 13.5212 25.34375 13.3125 C 25.34375 11.6369 24.062773 11.031 23 11 z M 21.21875 17.5625 C 21.087277 17.626711 21 17.78343 21 17.9375 L 21 18.28125 C 20.439192 18.71415 19.78027 19.0478 19 19.25 L 19 20.25 C 19.78027 20.0478 20.439192 19.71415 21 19.28125 L 21 18.9375 C 21 18.7205 21.18465 18.53125 21.40625 18.53125 L 21.8125 18.53125 C 21.86407 18.47145 21.88777 18.40675 21.9375 18.34375 C 21.650644 18.1534 21.425026 17.884037 21.21875 17.5625 z M 24.8125 17.59375 C 24.622523 17.893342 24.390178 18.128349 24.125 18.3125 C 24.186003 18.3838 24.24959 18.46325 24.3125 18.53125 L 24.59375 18.53125 C 24.81535 18.53125 25 18.7205 25 18.9375 L 25 19.1875 C 25.593748 19.6666 26.256083 20.0262 27 20.25 L 27 19.25 C 26.256083 19.0262 25.593748 18.6666 25 18.1875 L 25 17.9375 C 25 17.79862 24.923203 17.663447 24.8125 17.59375 z "
       transform="translate(0,1020.3622)"
       id="path3787" />
    <path
       style="fill:#000000;fill-opacity:1;fill-rule:nonzero;stroke:none;opacity:0.15"
       d="M 9 11 C 7.690078 11 6.625 12.0003 6.625 13.25 C 6.60715 13.4614 6.58678 13.6712 6.59375 13.875 C 6.48295 13.875 6.1875 13.98415 6.1875 14.09375 L 6.1875 15.09375 C 6.1875 14.98415 6.48295 14.875 6.59375 14.875 C 6.58678 14.6712 6.60715 14.4614 6.625 14.25 C 6.625 13.0003 7.690078 12 9 12 C 10.062773 12.031 11.34375 12.6369 11.34375 14.3125 C 11.37483 14.5212 11.40395 14.7047 11.40625 14.875 C 11.51705 14.875 11.8125 14.98475 11.8125 15.09375 L 11.8125 14.09375 C 11.8125 13.98475 11.51705 13.875 11.40625 13.875 C 11.40395 13.7047 11.37483 13.5212 11.34375 13.3125 C 11.34375 11.6369 10.062773 11.031 9 11 z M 7.21875 17.5625 C 7.0872767 17.626711 7 17.78343 7 17.9375 L 7 18.28125 C 6.439192 18.71415 5.78027 19.0478 5 19.25 L 5 20.25 C 5.78027 20.0478 6.439192 19.71415 7 19.28125 L 7 18.9375 C 7 18.7205 7.18465 18.53125 7.40625 18.53125 L 7.8125 18.53125 C 7.86407 18.47145 7.88777 18.40675 7.9375 18.34375 C 7.6506445 18.1534 7.4250257 17.884037 7.21875 17.5625 z M 10.8125 17.59375 C 10.622523 17.893342 10.390178 18.128349 10.125 18.3125 C 10.186003 18.3838 10.24959 18.46325 10.3125 18.53125 L 10.59375 18.53125 C 10.81535 18.53125 11 18.7205 11 18.9375 L 11 19.1875 C 11.593748 19.6666 12.256083 20.0262 13 20.25 L 13 19.25 C 12.256083 19.0262 11.593748 18.6666 11 18.1875 L 11 17.9375 C 11 17.79862 10.923203 17.663447 10.8125 17.59375 z "
       transform="translate(0,1020.3622)"
       id="path3784" />
    <path
       style="fill:#0f7027;fill-opacity:1;fill-rule:nonzero;stroke:none"
       d="m 15.981284,1027.3622 c -1.964882,0 -3.562504,1.5593 -3.562504,3.4906 -0.02678,0.3266 -0.02924,0.6528 -0.01878,0.9678 -0.1662,0 -0.6,0.1354 -0.6,0.3038 l 0,1.8212 c 0,0.1683 0.4338,0.3038 0.6,0.3038 l 0.206251,0 c 0.301622,1.2802 0.958182,2.3336 1.818749,2.922 -0.0746,0.098 -0.147642,0.1926 -0.225,0.2849 l -0.6,0 c -0.3324,0 -0.6,0.2709 -0.6,0.6063 l 0,0.5698 c -0.841212,0.6689 -1.829595,1.1672 -3,1.4798 l 0,4.25 12,0 0,-4.25 c -1.115875,-0.3458 -2.109378,-0.9102 -3,-1.6505 l 0,-0.3991 c 0,-0.3354 -0.2676,-0.6063 -0.6,-0.6063 l -0.431252,0 c -0.09436,-0.1053 -0.189739,-0.2124 -0.281244,-0.3225 0.829876,-0.5938 1.438235,-1.6284 1.724992,-2.8844 l 0.187504,0 c 0.1662,0 0.6,-0.1355 0.6,-0.3038 l 0,-1.8212 c 0,-0.1684 -0.4338,-0.3038 -0.6,-0.3038 -0.0035,-0.2631 -0.02839,-0.55 -0.07501,-0.8724 0,-2.5896 -1.94959,-3.5381 -3.543749,-3.586 z"
       id="path3290"
       inkscape:connector-curvature="0"
       sodipodi:nodetypes="cccssscccssccccccsscccsssccc" />
    <path
       style="fill:#000000;fill-opacity:1;fill-rule:nonzero;stroke:none;opacity:0.2"
       d="M 15.96875 7 C 14.003868 7 12.40625 8.5687 12.40625 10.5 C 12.37947 10.8266 12.39579 11.15375 12.40625 11.46875 C 12.423199 9.5517589 14.014368 8 15.96875 8 C 17.562909 8.0479 19.53125 9.00415 19.53125 11.59375 C 19.57787 11.91615 19.59025 12.20565 19.59375 12.46875 C 19.75995 12.46875 20.1875 12.5816 20.1875 12.75 L 20.1875 11.75 C 20.1875 11.5816 19.75995 11.46875 19.59375 11.46875 C 19.59025 11.20565 19.57787 10.91615 19.53125 10.59375 C 19.53125 8.00415 17.562909 7.0479 15.96875 7 z M 12.40625 11.46875 C 12.24005 11.46875 11.8125 11.5816 11.8125 11.75 L 11.8125 12.75 C 11.8125 12.5816 12.24005 12.46875 12.40625 12.46875 C 12.39579 12.15375 12.37947 11.8266 12.40625 11.5 C 12.40625 11.489679 12.406159 11.479049 12.40625 11.46875 z M 13.59375 17.09375 C 13.26135 17.09375 13 17.3521 13 17.6875 L 13 18.28125 C 12.158788 18.95015 11.170405 19.4374 10 19.75 L 10 20.75 C 11.170405 20.4374 12.158788 19.95015 13 19.28125 L 13 18.6875 C 13 18.3521 13.26135 18.09375 13.59375 18.09375 L 14.1875 18.09375 C 14.264858 18.00145 14.3629 17.9105 14.4375 17.8125 C 14.165375 17.626438 13.914054 17.365273 13.6875 17.09375 L 13.59375 17.09375 z M 18.375 17.09375 C 18.166125 17.350275 17.940325 17.600346 17.6875 17.78125 C 17.779005 17.89135 17.87439 17.98845 17.96875 18.09375 L 18.40625 18.09375 C 18.73865 18.09375 19 18.3521 19 18.6875 L 19 19.09375 C 19.890622 19.83405 20.884125 20.4042 22 20.75 L 22 19.75 C 20.884125 19.4042 19.890622 18.83405 19 18.09375 L 19 17.6875 C 19 17.3521 18.73865 17.09375 18.40625 17.09375 C 18.402638 17.098224 18.378626 17.089296 18.375 17.09375 z "
       transform="translate(0,1020.3622)"
       id="path3778" />
  </g>
</svg>
