<?xml version="1.0" encoding="UTF-8" standalone="no"?>
<!-- Created with Inkscape (http://www.inkscape.org/) -->

<svg
   xmlns:dc="http://purl.org/dc/elements/1.1/"
   xmlns:cc="http://creativecommons.org/ns#"
   xmlns:rdf="http://www.w3.org/1999/02/22-rdf-syntax-ns#"
   xmlns:svg="http://www.w3.org/2000/svg"
   xmlns="http://www.w3.org/2000/svg"
   xmlns:xlink="http://www.w3.org/1999/xlink"
   xmlns:sodipodi="http://sodipodi.sourceforge.net/DTD/sodipodi-0.dtd"
   xmlns:inkscape="http://www.inkscape.org/namespaces/inkscape"
   width="32"
   height="32"
   id="svg2"
   version="1.1"
   inkscape:version="0.48.3.1 r9886"
   sodipodi:docname="goa-panel.svg">
  <defs
     id="defs4">
    <linearGradient
       id="linearGradient3774">
      <stop
         style="stop-color:#5e99cc;stop-opacity:1;"
         offset="0"
         id="stop3776" />
      <stop
         style="stop-color:#0e4eab;stop-opacity:1;"
         offset="1"
         id="stop3778" />
    </linearGradient>
    <linearGradient
       id="linearGradient3765">
      <stop
         style="stop-color:#b8f5ff;stop-opacity:1;"
         offset="0"
         id="stop3768" />
      <stop
         style="stop-color:#419dd6;stop-opacity:1;"
         offset="1"
         id="stop3770" />
    </linearGradient>
    <linearGradient
       id="linearGradient3757">
      <stop
         style="stop-color:#ffffff;stop-opacity:1;"
         offset="0"
         id="stop3759" />
      <stop
         id="stop3767"
         offset="0.04882902"
         style="stop-color:#ffffff;stop-opacity:0.15686275;" />
      <stop
         id="stop3765"
         offset="0.94428825"
         style="stop-color:#ffffff;stop-opacity:0.23529412;" />
      <stop
         style="stop-color:#ffffff;stop-opacity:0.39215687;"
         offset="1"
         id="stop3761" />
    </linearGradient>
    <linearGradient
       inkscape:collect="always"
       xlink:href="#linearGradient3757"
       id="linearGradient3763"
       x1="16.75"
       y1="1023.4156"
       x2="16.75"
       y2="1049.4906"
       gradientUnits="userSpaceOnUse" />
    <radialGradient
       inkscape:collect="always"
       xlink:href="#linearGradient3765"
       id="radialGradient3772"
       cx="16.357161"
       cy="1028.5944"
       fx="16.357161"
       fy="1028.5944"
       r="14"
       gradientUnits="userSpaceOnUse"
       gradientTransform="matrix(2.8961662e-6,1.6776237,-1.3445239,2.3211192e-6,1399.3268,1001.1508)" />
    <linearGradient
       inkscape:collect="always"
       xlink:href="#linearGradient3774"
       id="linearGradient3780"
       x1="6.1964288"
       y1="1022.4336"
       x2="6.1964288"
       y2="1050.2094"
       gradientUnits="userSpaceOnUse" />
  </defs>
  <sodipodi:namedview
     id="base"
     pagecolor="#ffffff"
     bordercolor="#666666"
     borderopacity="1.0"
     inkscape:pageopacity="0.0"
     inkscape:pageshadow="2"
     inkscape:zoom="11.2"
     inkscape:cx="12.361071"
     inkscape:cy="10.056409"
     inkscape:document-units="px"
     inkscape:current-layer="layer1"
     showgrid="false"
     inkscape:window-width="1280"
     inkscape:window-height="749"
     inkscape:window-x="0"
     inkscape:window-y="24"
     inkscape:window-maximized="1" />
  <metadata
     id="metadata7">
    <rdf:RDF>
      <cc:Work
         rdf:about="">
        <dc:format>image/svg+xml</dc:format>
        <dc:type
           rdf:resource="http://purl.org/dc/dcmitype/StillImage" />
        <dc:title></dc:title>
      </cc:Work>
    </rdf:RDF>
  </metadata>
  <g
     inkscape:label="Livello 1"
     inkscape:groupmode="layer"
     id="layer1"
     transform="translate(0,-1020.3622)">
    <rect
       style="fill:url(#radialGradient3772);fill-opacity:1;stroke:url(#linearGradient3780);stroke-opacity:1"
       id="rect2985"
       width="27"
       height="27"
       x="2.5"
       y="1022.8622"
       rx="1.5"
       ry="1.5" />
    <rect
       ry="0.5"
       rx="0.5"
       y="1023.8621"
       x="3.4999995"
       height="25"
       width="25"
       id="rect3755"
       style="opacity:0.50000000000000000;fill:none;fill-opacity:1;stroke:url(#linearGradient3763);stroke-opacity:1" />
    <path
       inkscape:connector-curvature="0"
       d="m 3.6842073,1023.3589 c -0.3790526,0 -0.6842105,0.3227 -0.6842105,0.7235 l 0,1.9895 0.2565789,-0.3391 0.1924343,0.09 0.3848684,0 0.3207239,-0.3391 0.3848684,-0.1809 0.042763,-0.2487 -0.2351974,-0.2261 -0.213816,-0.068 -0.1282895,-0.3166 0.2779608,-0.1808 0.4276314,0.2487 0.149671,-0.1809 -0.2351971,-0.1357 0.4917751,-0.6782 -0.04276,-0.1583 -1.3898019,0 z m 4.4901309,0 0,0.023 0.08553,0.1357 0.106907,-0.1583 -0.192434,0 z m 4.5115138,0 -0.192434,0.3392 -0.06414,0.1808 0.363487,0.113 0.06414,-0.2487 0.106908,-0.3391 0.08553,-0.045 -0.363487,0 z m 2.651316,0 0,0.1808 0.427631,0.181 -0.213815,0.1808 -0.449014,-0.1808 -0.192434,0.1808 -0.27796,-0.3391 -0.06414,0.113 0.320724,1.0174 0.06414,0.045 0.213816,-0.1131 0.106908,0.068 0,0.1809 -0.192434,-0.068 -0.12829,0.091 0.08553,0.1808 -0.06414,0.4748 -0.40625,0.045 -0.02138,-0.1583 0.235198,-0.1357 0.04276,-0.4295 -0.256579,-0.3617 -0.106908,-0.633 -0.40625,-0.09 -0.04276,0.2262 0.08553,0.113 -0.192434,0.1582 0.08553,0.4296 0.235198,0.113 0.06414,0.3165 -0.256579,-0.1809 -0.641447,-0.113 -0.08553,0.2261 -0.513158,0.1809 -0.08553,-0.1357 -0.684211,0.407 0,0.2487 -0.27796,0.045 0.08553,-0.1808 0,-0.2035 -0.256579,-0.113 -0.171053,0.09 0.12829,0.2939 0.106908,0.1809 0,0.1583 -0.192435,-0.045 -0.04276,-0.023 -0.192434,0.2261 0.106908,0.1809 -0.449013,0 0.149671,0.1808 -0.04276,0.091 -0.235198,0 -0.171052,-0.1131 -0.04276,-0.3617 -0.277961,-0.113 0,-0.1357 0.577303,0.113 0.320723,0.045 0.12829,-0.2261 -0.12829,-0.2261 -0.833881,-0.3391 -0.299342,0.068 -0.1069078,0.09 0.04276,0.2035 0.1282888,0.023 -0.04276,0.3391 0.384869,0.9496 -0.277961,0.4748 -0.02138,0.09 0.149671,0.113 -0.12829,0.09 -0.08553,0 0.02138,0.407 0.106908,0.1808 0,0.1583 0.149671,0.023 0.235198,0.09 0.235197,0.3618 0.02138,0.09 -0.08553,0.1356 0.171053,-0.023 0.171053,0.068 0.256579,0.3392 0.577302,0.068 -0.02138,0.4296 -0.213816,0.1808 0.04276,0.068 -0.192434,0.226 -0.04276,0.2035 0.106908,0.1809 0.384868,0.1582 0.149671,-0.1131 1.026316,0.407 0.04276,-0.113 -0.213816,-0.2034 0,-0.2713 -0.128289,-0.045 0.02138,-0.226 0.213816,-0.2713 -0.384868,-0.294 0.04276,-0.4069 0.40625,-0.2939 0.470394,0.023 0.08553,0.1582 0.491776,0.023 0.342105,-0.2035 -0.171052,-0.2034 0.02138,-0.407 0.94079,-0.4749 0.705592,0.3391 0.235197,-0.226 0.705592,0.7008 0.53454,-0.045 0.192434,0.1809 0.491776,0.068 0.342106,-0.4748 0.427631,0.2035 0.213816,0.023 0.235197,-0.2035 -0.213815,-0.1357 0.171052,-0.2939 0.491776,0.1809 0.106908,0.2261 0.213816,0 0.12829,-0.091 0.363486,-0.023 0.04276,0.1131 0.40625,0.023 0.27796,-0.3165 0.577303,0.068 0.171052,-0.068 0.04276,-0.3392 -0.171053,-0.4069 0.171053,-0.1582 0.555921,0 0.513158,0.6556 0.662828,0.4069 0.192435,0 0.04276,-0.1809 0.235197,-0.1582 0.02138,0.9269 -0.213816,0 0,0.2261 0.128289,0.1583 -0.02138,0.2035 0.08553,0.045 0.04276,-0.1357 0.08553,0.023 0.04276,0.045 0.256579,-0.045 0.235197,-0.7461 0.02138,-0.9043 -0.299342,-0.746 -0.384869,-0.4974 -0.192434,0.045 0,0.1582 -0.449013,-0.2035 0.171052,-0.3843 0.149671,-1.04 0.598685,-0.2035 0.299342,-0.2034 0.320723,0 -0.08553,0.113 0.08553,0.1582 0.277961,-0.3165 0.149671,0 -0.02138,-0.1808 -0.256578,-0.045 0.171052,-0.6782 0.235198,-0.2261 0.08553,0.3392 0.192434,0.068 0.192434,-0.3165 -0.106908,-0.2035 0.04276,-0.1808 0.27796,0 -0.06414,0.1356 0.02138,0.4974 -0.40625,1.0625 0.04276,0.2261 -0.02138,0.3618 0.748356,1.153 0.149671,0.045 0,-0.927 0.149671,-0.1582 -0.149671,-0.3618 0.128289,-0.1582 -0.299342,-0.407 -0.149671,0.023 -0.04276,-0.6782 0.40625,-0.1131 0.02138,-0.2034 0.213815,-0.045 0.106908,0.113 0.149671,-0.633 0.04276,-0.068 -12.251644,0 z m -2.97204,0.6783 0.02138,0.2487 -0.171053,0.045 0,0.1131 0.106908,0.1582 0.256579,0.023 0.12829,0.1356 0.128289,0 0.06414,-0.1582 -0.192434,-0.2261 -0.08553,-0.2939 -0.256579,-0.045 z m -7.9753283,0.4747 -0.085526,0.068 0.042763,0.09 0.2779606,0.1356 0,-0.226 -0.2351974,-0.068 z m 5.3667755,0.4522 -0.384868,0.045 -0.04276,0.1809 -0.08553,-0.045 -0.06414,-0.09 -0.171052,0 -0.02138,0.2035 -0.08553,0.045 -0.06414,-0.1131 -0.384868,0.3392 0.08553,0.09 -0.149671,0.068 -0.320724,0.6783 -0.128289,0.09 0.02138,0.068 0.106908,0.068 -0.02138,0.113 -0.192434,0 -0.06414,-0.068 -0.12829,0.1583 -0.06414,0.045 -0.02138,0.1583 -0.06414,0.045 -0.192434,0.023 -0.08553,0.2939 0.06414,0.4747 0.06414,0.2261 0.08553,0.068 0.171052,0 0.256579,-0.2712 0.08553,-0.1583 0.04276,0.2486 0.149671,-0.3164 0.02138,-0.8591 0.12829,-0.091 0.04276,-0.4747 0.40625,-0.6105 0.192434,-0.068 0.08553,-0.113 0.299342,0.068 0.12829,0.09 0.06414,-0.2713 0.235197,-0.1356 0.149672,0.2487 0.1069078,-0.068 -0.02138,-0.09 -0.06414,-0.045 0.02138,-0.113 0.04276,0 0,-0.068 -0.235198,-0.068 z m -0.02138,0.2487 -0.171052,0.1356 -0.06415,0.2939 -0.192434,-0.113 -0.256579,-0.068 -0.06414,0.068 0.106908,0.09 0.171053,0 0.149671,0.2487 0.02138,0.3844 0.12829,0.045 0.06414,0.1356 -0.06414,0.091 -0.342105,0.407 -0.06414,0.2035 0.08553,0.2938 0.256579,0.2035 0.342105,-0.1808 0.2779618,-0.045 0.256579,-0.4295 -0.192435,-0.4975 -0.171052,-0.4522 0.02138,-0.2938 -0.1069078,-0.023 -0.04276,-0.2261 -0.149672,-0.2713 z m 17.8536188,0.2938 0.04276,0.09 0.128289,0.091 0.04276,-0.045 -0.128289,-0.1357 -0.08553,0 z m -18.6233548,0.068 -0.192435,0.068 -0.384868,0.5878 -0.04276,0.4974 -0.12829,0.068 -0.02138,0.8817 -0.192434,0.3391 0.235197,0.4069 0.06414,0.2939 0.106908,0 0.08553,-0.1583 0.213816,-0.09 0,-0.4521 0.128289,-0.1357 0.106908,-0.1356 0.02138,-0.113 -0.256579,-0.2035 0,-0.2487 0.128289,-0.2487 0.106908,-0.023 0.192434,-0.2713 0,-0.1809 0.256579,-0.2034 -0.02138,-0.3617 -0.106908,-0.2262 -0.192434,0 -0.106908,-0.09 z m 18.9226978,0 0,0.09 0.171052,0.045 0,-0.068 -0.171052,-0.068 z m 0.855263,0.3391 0.06414,0.1357 0.106908,-0.023 0.02138,-0.09 -0.192434,-0.023 z m -24.6957238,0.294 -0.1496711,0.09 -0.1069079,0.1131 0,0.068 0.1496711,0.023 0,0.113 -0.064145,0.068 0.021382,0.045 0.1496711,0 0,0.2035 0.213816,0.023 0.1496711,0.09 0.149671,0 0.2565789,-0.1357 0.192434,-0.2712 0,-0.1809 -0.128289,-0.113 -0.08553,-0.091 -0.06414,0.045 -0.064145,0.09 -0.064145,-0.023 -0.085526,-0.09 -0.1069079,0.023 -0.1282895,0.113 -0.1069079,0.1131 -0.042763,-0.045 0,-0.113 0.042763,-0.045 -0.021382,-0.045 -0.1069081,-0.068 z m 20.7828948,0.3617 0,0.3391 0.40625,0.6783 0.149671,0.5651 0.256579,0.52 0.106908,0.045 0.08553,-0.091 0.04276,-0.113 -0.384868,-0.4295 0.02138,-0.2261 0.08553,-0.023 0.02138,-0.1357 -0.726974,-1.0851 -0.06414,-0.045 z m 2.180921,0.52 -0.06415,0.09 0.02138,0.1357 0.04276,0 0.106908,-0.2035 -0.106908,-0.023 z m 0,0.3165 -0.106908,0.023 0,0.2261 0.06415,0.023 0.04276,-0.068 0,-0.2035 z m -4.789474,0.1583 -0.128289,0.1355 0.171052,0.3844 -0.06414,0.3844 -0.192435,0.09 -0.128289,-0.023 0,0.3618 0.128289,0.045 0.213816,-0.113 0.277961,0.1583 0,0.1356 -0.213816,0 -0.149671,0.3844 -0.149671,0 -0.513158,0.7234 -0.555921,0.2487 -0.363487,0.045 -0.256579,-0.2034 -0.342105,0.2034 -0.384869,-0.113 -0.106908,-0.2713 -0.641447,-0.045 -0.342105,-0.5878 -0.149671,0 -0.12829,-0.2713 -0.128289,-0.023 -0.192434,0.4748 -0.235198,0 -0.27796,0.6103 0.235197,0.2939 -0.470395,0.6783 -0.235197,-0.023 -0.171053,0.2035 0.04276,0.1357 0.192434,0 0.08553,0.226 0.192434,0.045 0.577303,0.7687 0,0.4069 0.27796,0.1809 0.299343,-0.045 0.384868,0.2261 0.470395,0.1356 0.213815,-0.023 0.256579,-0.023 0.53454,-0.3616 0.171053,0.023 0.06414,0.1582 0.149671,0.045 0.192435,0.3164 -0.12829,0.3165 0.08553,0.2035 0.213816,0.091 0.04276,0.2487 0.256579,0.023 0.04276,-0.1131 0.384869,-0.2261 0.235197,0.023 0.277961,0.3165 0.192434,-0.068 0.128289,0 0.04276,0.1582 0.106907,0.023 0.12829,-0.2035 0.534539,-0.2034 0.470395,-0.6105 0.149671,-0.5877 0,-0.3844 -0.213816,-0.045 0.12829,-0.1357 -0.02138,-0.2261 -0.513158,-0.5426 0,-0.2487 0.149671,-0.2035 0.149671,-0.068 0,-0.1583 -0.363486,0 -0.06414,0.2035 -0.171053,-0.045 -0.213815,-0.2262 0.128289,-0.3843 0.192434,-0.2034 0.171053,0.023 -0.02138,0.3164 0.08553,0.091 0.213815,-0.2487 0.08553,0 -0.02138,-0.2034 0.213816,-0.2488 0.149671,0 0.106908,-0.3165 0.106908,-0.045 0,-0.2035 -0.106908,-0.1131 0,-0.2939 0.192434,-0.023 0,-0.7913 -0.149671,0.09 -0.04276,0.2035 -0.235198,0 -0.705592,-0.407 -0.491776,-0.6329 -0.513158,-0.023 z m -12.4868428,0.1582 -0.192434,0.1357 0,0.09 0.106908,0.113 0.3848688,0.068 0,-0.3843 -0.2993428,-0.023 z m -3.549342,0.2487 -0.213815,0.1583 -0.12829,0.4295 0.12829,-0.023 -0.02138,0.2487 0.06414,0.068 0.192434,0 0.02138,0.3165 -0.149671,0.023 -0.02138,0.1808 -0.12829,0.1809 0.192435,0.023 0.06414,0.045 -0.40625,0.2261 0.149671,0.068 0.40625,-0.1809 0.256579,0.023 0.12829,-0.068 0.06414,-0.068 -0.06414,-0.045 0,-0.068 0.106908,-0.045 0,-0.113 -0.06414,-0.1357 -0.149671,-0.068 -0.106908,-0.226 -0.106908,-0.2487 -0.04276,-0.2261 0.04276,-0.09 0,-0.091 -0.213816,0 -0.04276,-0.068 0.106908,-0.1583 -0.06414,-0.068 z m 3.185856,0 -0.06414,0.045 0.04276,0.045 0.08553,0 0.04276,-0.045 -0.04276,-0.045 -0.06414,0 z m -0.363487,0.1356 -0.106908,0.091 0.04276,0.1356 0.106908,-0.09 -0.04276,-0.1357 z m 0.662829,0 0.02138,0.2261 0.3207248,0.2035 0.149671,-0.045 -0.02138,-0.1583 -0.106908,-0.1582 -0.3634868,-0.068 z m -1.817434,0.068 -0.213816,0.2713 0,0.1583 0.08553,0.2713 0.171053,-0.023 -0.02138,-0.2261 0.106908,-0.1356 0,-0.091 -0.08553,-0.2035 -0.04276,-0.023 z m 1.49671,0 -0.128289,0.1809 0,0.09 0.04276,0.023 0.08553,0 0.149671,-0.1357 0.02138,-0.045 -0.08553,-0.09 -0.08553,-0.023 z m 5.9868428,0.045 -0.898027,0.4748 -0.02138,0.3165 0.213816,0.2713 -0.40625,0.226 -0.53454,0 -0.106908,-0.1808 -0.40625,-0.023 -0.40625,0.2713 0,0.3618 0.363487,0.3165 0.213816,-0.1131 0.235197,0 0.02138,0.3844 -0.149671,0 -0.106908,0.2034 0.149671,0.2487 0.213816,0.113 0.02138,0.1357 0.06414,-0.023 0.08553,-0.09 0.106908,0.023 0.06414,0.1356 0.149671,0 0,-0.1582 -0.106908,-0.294 -0.04276,-0.226 0.277961,-0.1131 0.363486,0.045 0.213816,0.2486 0.513158,-0.045 0.277961,0.407 0.342105,0.023 0.08553,-0.1582 0.106908,-0.023 0.02138,-0.1808 0.171052,0 0.106908,0.113 0.08553,-0.2261 0.791118,0.1131 0.128289,-0.1809 -0.213815,-0.2939 0.299342,-0.7009 0.235197,0.023 0.171053,-0.4295 -0.342106,-0.045 -0.192434,-0.1809 -0.513158,0.068 -0.68421,-0.7009 -0.235198,0.2261 -0.726973,-0.3618 z m 11.503289,0.09 -0.106908,0.068 -0.06414,0.1357 0,0.09 0.08553,-0.045 0.08553,-0.1808 0,-0.068 z m -17.2976978,0.045 -0.149671,0.1583 -0.128289,0 0,0.2035 -0.08553,0.1582 0.299343,0 0.06414,-0.023 0.08553,0.113 0.192434,-0.023 0.171053,-0.226 0,-0.1583 -0.342106,-0.2035 -0.106908,0 z m 9.8782898,0.023 -0.149671,0.2035 0.213816,0.1583 -0.299342,0.2939 -0.256579,-0.068 -0.363487,-0.1809 -0.320723,0.4296 0.08553,0.226 0.171052,0 0.342106,0.6105 0.662829,0.045 0.08553,0.2712 0.342105,0.1131 0.363487,-0.2035 0.277961,0.2035 0.342105,-0.045 0.513158,-0.2487 0.534539,-0.7008 0.12829,-0.023 0.171052,-0.3843 0.171053,0 0,-0.068 -0.235197,-0.1131 -0.213816,0.09 -0.171053,-0.023 0.02138,-0.4294 -0.40625,-0.045 -0.277961,0.3165 -0.470395,-0.023 -0.04276,-0.113 -0.27796,0 -0.149671,0.113 -0.256579,0 -0.12829,-0.2487 -0.40625,-0.1582 z m -9.236842,0.1583 -0.149671,0.045 0,0.1583 -0.1924348,0.2713 -0.192434,0 0.08553,0.1357 -0.04276,0.113 0,0.068 0.04276,0.1131 0.149672,-0.091 0.2138158,0 0.149671,0.068 0.342105,0 0.106908,-0.2713 0.06414,-0.1131 0,-0.045 -0.213816,-0.3391 -0.213816,-0.09 -0.149671,-0.023 z m -2.1167768,0.09 -0.06414,0.068 0,0.09 0.149671,0.023 0,-0.113 -0.04276,-0.068 -0.04276,0 z m 18.4736848,0.045 -0.149671,0.2261 0.02138,0.09 0.06414,-0.023 0.171053,-0.226 -0.106908,-0.068 z m -20.9111848,0.068 -0.08553,0.2035 -0.192434,0 0,0.1809 0.04276,0.113 -0.213816,0.1582 0,0.045 0.106908,0.068 0.12829,0 0.427631,-0.1582 0.04276,-0.3392 -0.128289,0.045 -0.149671,-0.1356 0.02138,-0.1809 z m 0.213816,0 -0.171052,0.023 -0.02138,0.1583 0.128289,0.09 0.106908,-0.045 0.06414,-0.091 -0.106908,-0.1356 z m 3.207237,0.045 -0.106908,0.023 -0.235197,0.09 -0.192435,0.1582 0.02138,0.3844 0.08553,0.1583 0.256579,0.1356 0.235198,0.1809 0.149671,0.045 0.149671,-0.045 0.04276,0 0.106908,0.045 0.06414,-0.045 0.08553,-0.1583 0.02138,-0.09 0,-0.1131 -0.04276,-0.068 -0.02138,-0.113 -0.02138,-0.1357 0.04276,-0.09 -0.149671,-0.2488 -0.106908,0.023 -0.40625,-0.023 -0.02138,-0.023 0.04276,-0.09 z m 16.7203948,0.068 -0.08553,0.068 0.04276,0.1582 0.08553,0.068 -0.02138,0.2487 -0.08553,0.045 -0.06414,0.1583 0.213816,0.3165 0.128289,-0.045 0.02138,-0.09 -0.149671,-0.1356 0.08553,-0.1131 0.106908,0 0.06414,0.09 0.02138,-0.1808 0.192434,-0.1809 0.12829,-0.023 -0.106908,-0.1808 -0.04276,-0.068 -0.06414,0.045 -0.06414,0.09 -0.149671,-0.023 -0.149671,-0.1131 -0.106908,-0.1356 z m -17.8536188,0.045 -0.171052,0.023 0,0.1356 -0.192435,0.045 0.06414,0.3392 -0.149671,0.068 -0.02138,0.1809 0.106907,0.1356 -0.02138,0.1357 0.149671,0.09 0,0.1808 0.171053,0.045 0.04276,0.1131 0.08553,0 0.06414,-0.09 0.171052,-0.023 0.213816,-0.091 0.02138,-0.113 -0.235198,-0.2261 -0.02138,-0.045 0.256579,-0.1583 0.149671,-0.023 -0.106908,-0.1573 -0.02138,-0.3844 -0.106908,-0.1131 -0.128289,-0.045 -0.149671,0.068 -0.08553,0 -0.08553,-0.09 z m -0.40625,0.226 -0.235197,0.1131 0.04276,0.045 0,0.1357 -0.04276,-0.023 -0.06414,-0.09 -0.128289,0.226 0.213816,0.045 0.06414,0.091 0.04276,0 0.02138,-0.2035 0.128289,-0.045 -0.04276,-0.2939 z m 3.2072378,0.091 -0.08553,0.2487 -0.40625,0 -0.128289,-0.068 -0.1924338,0 -0.149672,0.09 0.04276,0.1583 -0.149671,0.3165 0,0.1356 0.06414,0.045 0.4276318,0.022 0.12829,-0.09 0.128289,0.045 0.171053,0.2487 -0.12829,0.2486 0.149671,0.068 0.213816,-0.2712 0.12829,0.023 0.106907,0.091 -0.106907,0.1356 0.149671,0.2261 0.128289,0 0.06414,-0.1583 0.149671,-0.023 0.02138,-0.113 -0.27796,-0.045 0,-0.1356 0.27796,0 0.277961,-0.2487 0.128289,-0.1131 0.02138,-0.3843 -0.577303,-0.045 -0.213815,-0.3391 -0.171053,-0.068 -0.192434,0 z m -3.6562508,0.3617 -0.04276,0.09 0.363487,0.2486 0.106908,0.023 0,-0.113 -0.08553,-0.113 -0.04276,0 -0.08553,-0.091 -0.213816,-0.045 z m 1.560855,0.068 -0.149671,0.023 -0.213815,0.1582 0.213815,0.2261 0.149671,0 0.08553,0 0.128289,0.09 0.235198,-0.2035 -0.235198,-0.1809 -0.213816,-0.113 z m -1.625,0.045 -0.106907,0.045 -0.235198,0.2714 -0.08553,0 -0.08553,-0.068 -0.06414,0 -0.04276,0.1583 -0.342106,0.023 0.02138,0.068 0.213816,0.1582 0.27796,0.2261 0,0.2939 -0.149671,0.2486 0.320724,0.1583 0.320724,0.023 0.08553,-0.1131 0.192434,0 0.06414,0.045 0.213816,0 0.08553,-0.1583 -0.12829,-0.1582 0,-0.091 0.02138,-0.113 -0.06414,-0.113 -0.106908,0.045 -0.02138,-0.09 0.256579,-0.2938 0,-0.1809 -0.171053,-0.091 -0.08553,-0.023 -0.384869,-0.2713 z m 17.2763168,0.1131 -0.08553,0.045 -0.08553,0.3165 -0.171053,0 -0.192434,0.2261 0.02138,0.1808 0.106908,0.045 0.02138,0.3391 0.192434,0.023 0.192435,-0.2261 -0.06414,-0.068 0,-0.2261 0.171053,-0.226 -0.08553,-0.1583 0.04276,-0.068 0.04276,-0.1583 -0.106908,-0.045 z m -15.1809218,0.1583 -0.235197,0.2035 0.04276,0.045 0,0.045 0.40625,0 0.299342,-0.1356 0,-0.1357 -0.06414,0.023 -0.08553,-0.045 -0.04276,0 -0.12829,0.045 -0.192434,-0.045 z m 16.9342108,0 -0.128289,0.1583 0,0.1356 0.06414,0.09 0.02138,0.3391 -0.171053,0.2035 -0.08553,-0.045 -0.06414,0.1583 -0.02138,0.1583 0.06414,0.09 -0.04276,0.068 -0.106908,-0.1131 -0.08553,0 -0.08553,0.045 -0.04276,0.023 -0.256579,0.3165 0.04276,0.068 0.128289,0.023 0.235198,-0.2035 0.171052,-0.023 0.149671,0.1809 0.106908,-0.045 0.04276,-0.1809 0.213816,0 0.213816,-0.2713 -0.106908,-0.4522 -0.04276,-0.226 0.106908,-0.09 -0.256579,-0.407 -0.06414,0 z m -17.5328948,0.113 -0.02138,0.1357 -0.235197,0.113 -0.171053,0.023 -0.04276,0.068 0.04276,0.045 0.106908,-0.023 0.106908,0 0.12829,0.1131 0.235197,-0.068 0.171053,-0.09 0.04276,-0.09 0,-0.091 -0.171053,-0.1356 -0.192434,0 z m 1.7746718,0.045 -0.08553,0.09 0.149671,0.2487 0,0.1582 0.06414,0 0.12829,-0.2486 -0.171053,-0.2261 -0.08553,-0.022 z m -0.6414478,0.023 -0.299343,0.1582 -0.40625,0 -0.06414,0.1131 0,0.1583 0.106908,0.045 0.299342,0 0.40625,-0.3616 0,-0.09 -0.04276,-0.023 z m 0.106907,0.045 -0.02138,0.091 -0.299342,0.2713 0.256579,0.3843 0.149671,0.1356 0.2993428,0 0.106907,-0.091 0.12829,-0.023 0.08553,0.068 0.171053,-0.2035 -0.02138,-0.113 -0.171052,-0.045 -0.12829,0 0,-0.1807 -0.149671,-0.2713 -0.4062508,-0.023 z m -2.074013,0.1131 -0.235197,0.2487 0,0.022 0.106908,-0.022 0.08553,0.1129 0.12829,-0.045 0.106908,0.09 0.04276,-0.023 0.128289,-0.2034 -0.04276,-0.045 -0.106908,0 -0.06414,-0.1356 -0.149671,0 z m 1.154606,0.1356 -0.12829,0.091 -0.256579,0.045 0.04276,0.1582 0.171053,0 0.171053,-0.1356 0,-0.1582 z m -0.641448,0.045 -0.128289,0.023 -0.106908,0.1807 -0.08553,0.068 -0.106908,-0.091 -0.12829,0.045 -0.02138,0.09 0,0.091 0.128289,0.1582 0.192434,0 0.449013,0.5426 0.277961,0.091 0.149671,0.1582 0.04276,0.3618 0.08553,-0.045 0.06414,-0.2035 0,-0.1582 0.12829,0 0,-0.091 -0.342106,-0.1808 -0.342105,-0.3618 -0.149671,-0.2034 -0.02138,-0.2035 0.171052,-0.045 -0.04276,-0.1355 -0.106908,-0.09 -0.106908,0 z m 6.1578958,0.045 -0.235198,0.09 0.149671,0.4748 0,0.1808 0.08553,0 0.128289,-0.2487 0.320724,0 0.06414,0.1809 0.705593,0.4974 0.256579,0.068 0.08553,0.1809 0.149671,0 0,-0.2939 -0.149671,-0.091 0.256579,-0.3391 0.106908,0 0.106908,0.1357 0.27796,-0.1131 -0.384868,-0.1582 -0.02138,-0.068 -0.08553,0.023 -0.08553,0.1583 -0.384868,-0.023 -0.27796,-0.4069 -0.491777,0.045 -0.235197,-0.2485 -0.342105,-0.045 z m -4.9605268,0.045 -0.106908,0.09 -0.04276,0 -0.04276,0.1131 0.12829,0.1583 0.02138,0.1356 -0.171052,0.2261 0.02138,0.068 0.08553,0.023 0.08553,-0.09 0.04276,0 0.06414,0.068 0.192434,-0.068 -0.02138,-0.3166 -0.256579,-0.4069 z m -0.513158,0.045 -0.192434,0.1582 -0.192435,0 -0.02138,0.1356 0.08553,0.023 0.04276,-0.068 0.08553,0.068 0.04276,0.2035 0.363487,0.1809 0.04276,-0.045 -0.363487,-0.4069 0.02138,-0.068 0.363487,-0.023 0.04276,-0.1131 -0.235197,0 -0.08553,-0.045 z m 7.7828948,0.113 -0.106908,0.2487 -0.128289,-0.1357 -0.106908,0 -0.02138,0.1357 0.02138,0.09 0.449013,0.1582 -0.384868,0.181 -0.06414,-0.045 -0.08553,0.068 0.02138,0.023 0.04276,0.023 0.277961,0 0.149671,-0.045 0.171052,-0.2261 0.235198,0.023 0.27796,-0.4069 -0.748355,-0.091 z m 7.654605,0.045 -0.171052,0.226 0.08553,0.045 0,0.068 -0.06414,0.045 0.06414,0.1582 0.149671,0.3618 0.149671,0 0.149671,-0.2035 0.02138,-0.1357 -0.06414,-0.2713 -0.320724,-0.2939 z m -15.4802628,0.045 -0.02138,0.045 0.342105,0.3844 0.149671,-0.2035 -0.02138,-0.091 -0.106908,-0.1342 -0.342105,0 z m 1.5180918,0.1808 -0.106908,0.023 -0.06414,0.091 -0.3421058,0 -0.12829,-0.091 0,0.2713 0.08553,0.2035 0.3421058,0 0.149671,-0.113 0.149671,-0.068 -0.04276,-0.1808 0.04276,-0.091 -0.08553,-0.045 z m 1.817435,0.023 -0.149671,0.091 0.171052,0.2487 0.235198,0.09 0.128289,0 0.213816,-0.068 0.06414,-0.09 -0.662829,-0.2713 z m 2.330592,0.045 -0.106908,0.2487 -0.12829,0 -0.213816,0 -0.02138,0.1356 -0.235197,0 0,0.2035 0.235197,0.1582 -0.06414,0.2262 0,0.113 0.106908,0 0.12829,-0.1809 0.27796,-0.068 0.620066,0.2487 0.02138,0.1809 0.342106,0.045 0.384868,-0.4296 -0.04276,-0.1356 -0.256579,-0.068 -0.726974,-0.4974 -0.04276,-0.1809 -0.27796,0 z m -8.9161188,0.023 -0.08553,0.023 -0.06414,0.1583 0.02138,0.1808 0.256579,0.023 0.04276,0.1131 -0.128289,0.6783 0.02138,0.113 0.171053,0.113 0.213816,0 0.427631,-0.09 0.192435,-0.2939 0,-0.2713 0.363486,-0.3391 0.02138,-0.1583 -0.320724,0 -0.342105,-0.1809 -0.662829,0 -0.128289,-0.068 z m 2.351973,0.1808 -0.106908,0.113 0,0.091 0.08553,0.068 0.02138,-0.023 0.02138,-0.1356 -0.02138,-0.1131 z m 8.2532898,0 -0.213815,0.2714 0.128289,0.113 0,0.2939 0.08553,0 0.12829,-0.045 0,-0.09 0.149671,-0.1357 0.106908,0.1131 0,0.1809 0.128289,0 0.02138,-0.1357 0.128289,-0.023 0.08553,0 0.04276,0.091 0.04276,0 0.02138,-0.068 -0.08553,-0.2035 -0.192434,-0.023 -0.04276,-0.1131 -0.04276,0 -0.106908,0.045 -0.299342,-0.023 -0.08553,-0.045 0,-0.068 0.106908,-0.09 -0.02138,-0.045 -0.08553,0 z m -3.314144,0.045 -0.06414,0.09 0.256579,0.3391 0.08553,-0.023 0.149671,0.1584 0.06414,-0.2714 0.149671,0.023 -0.02138,-0.09 -0.235197,-0.2261 -0.06414,0.1356 -0.320723,-0.1356 z m -3.4851978,0.022 -0.06414,0.091 0,0.2487 0.06414,0.1583 0.04276,-0.023 0.08553,-0.1583 -0.04276,-0.068 -0.02138,-0.2035 -0.06414,-0.045 z m 0.299342,0 -0.192434,0.045 0.02138,0.1583 0.04276,0.068 0.192434,-0.113 -0.06414,-0.1583 z m 1.4539478,0 -0.299342,0.2262 -0.277961,0 -0.02138,0.1808 -0.299343,0 -0.128289,0.113 0,0.068 0.08553,0.068 0,0.068 -0.04276,0.09 0.04276,0.068 0.08553,-0.045 0.106908,0.113 -0.02138,0.068 -0.04276,0.045 0.04276,0.068 0.27796,0.068 0.192435,-0.09 0,-0.1131 0.106908,0.023 0.213815,0.1356 0.235198,-0.045 0.106908,-0.1131 0.06414,0.023 0,0.1357 0.106908,0 0.06414,-0.1809 0.705592,-0.068 0.320724,-0.045 -0.08553,-0.113 0,-0.1583 0.06414,-0.068 -0.235197,-0.2035 0.02138,-0.1583 -0.128289,0 -0.213816,-0.09 -0.106908,0.113 -0.427631,0 -0.256579,-0.1582 -0.256579,-0.023 z m -0.684211,0.023 -0.149671,0.068 0,0.2034 0.171053,-0.068 0.06414,-0.045 -0.02138,-0.09 -0.06414,-0.068 z m 2.330592,0.068 -0.213815,0.068 -0.02138,0.1356 0.235197,0.2035 0.171053,0.045 0.08553,-0.09 -0.256579,-0.3618 z m -2.523026,0.023 -0.106908,0.091 -0.3634868,-0.023 -0.213816,0.1356 -0.12829,0.2035 0,0.091 0.235198,0.113 0.128289,0.045 -0.06414,0.068 -0.128289,0.023 -0.02138,0.068 0.04276,0.113 0.149671,0.091 0.06414,0 0,-0.2035 0.106909,-0.1131 -0.277961,-0.3391 0.04276,-0.113 0.06414,0 0.106908,0.068 0.06414,-0.023 0,-0.1131 0.2993418,0 0,-0.1808 z m -4.8108558,0.068 -0.02138,0.4747 -0.106908,0.091 0.02138,0.045 0.06414,0.1131 -0.04276,0.1582 0.06414,0.023 0.171052,-0.023 -0.02138,-0.1357 0.106908,-0.6556 -0.02138,-0.09 -0.213816,0 z m 20.0986848,0.09 -0.149671,0.1582 0,0.1583 0.04276,0.045 0.192434,-0.1808 -0.02138,-0.1583 -0.06414,-0.023 z m -17.6398028,0.023 -0.12829,0.068 0.02138,0.2939 0.106908,0.023 0.08553,-0.091 0,-0.2713 -0.08553,-0.022 z m 8.5526318,0.09 -0.106908,0.113 0,0.091 -0.171053,0.068 -0.299342,0 -0.40625,0.4296 -0.363487,-0.023 0.08553,0.6782 0.213816,0.045 0.02138,0.1357 -0.149671,0.1356 0.277961,0.226 0.534539,-0.2034 0.04276,-0.2487 0.342105,-0.226 0.12829,-0.52 0.106908,-0.1131 -0.106908,-0.1809 0.342105,-0.2035 -0.04276,-0.068 -0.171053,0 0,0.1583 -0.213815,0 0,-0.2035 -0.06414,-0.09 z m -3.314145,0.045 -0.06414,0.023 -0.106907,0.1357 -0.213816,-0.045 -0.06414,0.068 0.02138,0.113 0.06414,0.1356 0.299342,0.3165 -0.04276,0.1357 -0.06414,0 -0.02138,0.1357 0.171053,0.2035 0.149671,0.023 0.299342,0.4295 0.149671,0.023 0.149671,0.09 0,0.2035 0.513158,0.3165 0.192434,0 0.106908,-0.1131 0.149671,0 0.08553,0.2035 0.555921,0.09 0.02138,-0.2261 0.192434,-0.068 0,-0.068 -0.149671,-0.2261 -0.320724,-0.2713 0.171053,-0.1582 -0.02138,-0.068 -0.213815,-0.045 -0.08553,-0.7687 0,-0.1583 -0.598684,-0.2487 -0.256579,0.068 -0.128289,0.1809 -0.12829,0 -0.04276,0.022 -0.277961,-0.022 -0.363486,-0.2713 -0.12829,-0.1583 z m 11.952303,0.023 -0.08553,0.091 0.02138,0.1356 0.08553,0 0.04276,0.2939 0.06414,0.068 0.106908,-0.1131 0.04276,-0.1809 -0.128289,-0.2034 -0.149671,-0.09 z m -18.0460528,0.045 -0.08553,0.045 0.02138,0.068 0.106908,0 0.06414,-0.045 -0.106907,-0.068 z m 10.0279608,0.023 -0.06414,0.09 -0.04276,0 -0.299342,0.2035 0.08553,0.1808 -0.106908,0.1131 -0.128289,0.5426 -0.342106,0.2261 -0.04276,0.2487 -0.555921,0.2034 0.149671,0.2035 -0.02138,0.113 -0.171053,0.091 -0.02138,0.1808 0.213816,0 0.06414,-0.068 0.40625,0 0.363487,0.3391 0.04276,-0.1582 0.256579,0 0,-0.2035 -0.256579,-0.2939 0.04276,-0.1357 0.299342,-0.023 0.363487,-0.8365 -0.213816,-0.1808 -0.06414,-0.2939 0.513157,-0.045 -0.299342,-0.4521 -0.171052,-0.045 z m -8.4671058,0.2712 -0.256579,0.045 0.02138,0.068 0.235198,0.1131 0.02138,0.045 0.06414,0.023 0,-0.2487 -0.08553,-0.045 z m -5.4523023,0.1131 -0.021382,0.068 0.042763,0.045 0.1069079,-0.068 -0.1282894,-0.045 z m 9.6217101,0 -0.299342,0.045 -0.08553,0.4296 -0.342105,0.2939 0.02138,0.1357 0.342106,0.023 0.534539,0.452 0.299342,0 0,-0.113 0.106908,-0.113 0.149671,0.09 0.02138,-0.023 -0.277961,-0.4069 -0.149671,-0.023 -0.192434,-0.2487 0.04276,-0.1808 0.06414,0 0.02138,-0.091 -0.256579,-0.2713 z m -4.7253288,0.045 -0.277961,0.1131 0.08553,0.4069 -0.106908,0.068 0.02138,0.1808 0.192434,0.2035 0,0.2035 0.04276,0.068 0.08553,-0.023 0,-0.2034 0.06414,0 0.149671,-0.2487 -0.192434,-0.09 0,-0.045 0.04276,-0.091 0,-0.2035 -0.04276,-0.022 0,-0.1131 0.04276,-0.068 0,-0.068 -0.106908,-0.068 z m 4.3832238,0 -0.662829,0.068 -0.08553,0.1582 -0.12829,0 -0.02138,0.1357 0.149671,0.068 0,0.3844 0.149671,0 0.128289,-0.113 0.06414,-0.023 0.342105,-0.2713 0.06414,-0.4069 z m -4.9391448,0.045 -0.898027,0.1809 -0.192434,0.1583 0.12829,0.6556 -0.363487,0.023 -0.213816,0.3617 -0.513158,0.1131 0,0.2713 1.689145,1.3565 0.27796,0.023 0.962171,-0.7914 -0.106907,-0.1131 -0.171053,-0.023 -0.106908,-0.2035 0,-0.7913 -0.06414,-0.068 0,-0.2035 -0.192434,-0.2034 -0.02138,-0.2261 0.08553,-0.045 -0.04276,-0.2487 -0.04276,-0.1357 -0.213816,-0.09 z m 10.0707238,0.068 -0.491776,0.045 0.06414,0.2261 0.235198,0.2034 -0.40625,0.8817 -0.277961,0.023 -0.04276,0.09 0.277961,0.2713 -0.02138,0.2713 -0.27796,-0.023 -0.02138,0.1357 0.213816,0 0.02138,0.091 -0.171052,0.09 0.106908,0.2261 0.192434,0.068 0.128289,-0.113 0.06414,-0.1583 0.06414,-0.045 0.08553,0.09 -0.02138,0.2261 -0.06414,0.113 0.02138,0.1809 0.855263,1.8991 0.256579,-0.1357 0.12829,-0.5426 0,-0.6782 0.833881,-0.927 0,-0.226 0.149671,-0.068 0,-0.2712 -0.171052,-0.3618 0.106908,-0.2035 0.213816,0.2261 0.299342,0 0,0.1357 -0.08553,0.09 0.02138,0.068 0.149671,0 0.02138,0.1808 0.06414,0 0.106908,-0.2035 0.06414,-0.5878 0.192434,-0.1583 0,-0.2034 -0.06414,-0.1582 -0.128289,0 -0.491776,0.339 0.04276,0.2261 -0.342106,0 -0.128289,-0.1582 -0.06414,0 0.02138,0.226 -0.726974,-0.068 -0.470395,-0.2035 -0.02138,-0.2712 -0.299342,-0.2035 0,-0.407 -0.213816,-0.2487 z m -6.200658,0.1583 -0.149671,0.068 -0.149671,0.023 0,0.09 0.06414,0.045 0.106908,0.023 0.192434,-0.2035 -0.06414,-0.045 z m -2.6726978,0.023 -0.08553,0.023 0,0.091 0.08553,0.045 0.04276,-0.045 -0.04276,-0.113 z m 1.282896,0 -0.04276,0.068 0.06414,0.023 0.04276,0.068 0.235198,0 0.06414,-0.09 -0.04276,-0.023 -0.06414,0.023 -0.128289,0 -0.04276,-0.068 -0.08553,0 z m -4.212172,0.113 -0.12829,0.2713 -0.27796,0.1356 -0.213816,0.6556 -0.449012,0.2713 -0.6200665,1.0852 0.5986845,-0.023 0.021382,-0.3165 0.171052,0 0,-0.4295 0.534539,0 0,-0.5652 0.513158,-0.1131 0.235197,-0.3616 0.320724,-0.023 -0.106908,-0.5879 -0.598684,0 z m 5.7730268,0 0,0.113 -0.04276,0.1583 0.149671,0.023 0,-0.2487 -0.106908,-0.045 z m -7.2911184,0.2261 -0.064145,0.068 0.064145,0.068 0.085526,-0.045 -0.085526,-0.091 z m 7.2269734,0.09 -0.06414,0.2713 0.106908,0.339 0.106908,-0.4973 0,-0.09 -0.149671,-0.023 z m 0.513158,0.023 -0.149671,0.113 -0.171053,0.023 -0.128289,0.4747 0,0.068 0.192434,0 0.235197,-0.2261 0,-0.068 -0.08553,-0.1131 0.171053,-0.1356 -0.02138,-0.1357 -0.04276,0 z m -3.6348688,0.023 -0.171053,0.2938 -0.04276,0 -0.02138,0.2035 -0.08553,0 0,0.7687 0.08553,0.1809 0.192434,0.023 0.106908,0.1581 0.449013,0.113 0.106908,-0.068 1.0904608,0.5878 0.171052,0.023 -0.02138,-2.0574 -0.2351968,-0.045 -0.128291,-0.1582 -0.299342,0 -0.149671,0.1357 0,0.068 0.08553,0.091 0.02138,0.09 -0.213816,0.113 -0.40625,-0.2034 -0.106908,-0.1809 -0.427631,-0.1357 z m 3.7417768,0.1356 -0.149671,0.1357 0.06414,0.068 0,0.113 -0.256579,0.2487 -0.213816,0 0.04276,0.1582 0.726974,0.927 0,0.2486 0.06414,0.1131 0.192435,0.1131 0.299342,0.4973 0.213815,-0.2035 0.342106,0.2262 0.299342,-0.294 0.534539,-0.1808 0.384869,-0.2261 0.06414,-0.3165 -0.06414,-0.023 -0.577303,-0.045 -0.04276,-0.2487 -0.12829,-0.113 -0.363486,-0.5426 -0.256579,-0.091 -0.02138,-0.09 -0.320724,0.023 -0.534539,-0.4747 -0.299342,-0.023 z m 6.286184,0 -0.256579,0.068 0.02138,0.226 0.427631,0.2035 0.684211,0.068 -0.02138,-0.1808 -0.470395,-0.1356 -0.384868,-0.2487 z m -7.419408,0.045 -0.171052,0.1357 -0.12829,0 -0.27796,-0.09 -0.12829,0 0.02138,1.6729 1.347039,0.023 0.149671,-0.1808 -0.02138,-0.2714 -0.491777,-0.6556 -0.06414,-0.2035 0.02138,-0.1357 0.08553,0.023 0.106908,0.3618 0.08553,0.045 0.04276,-0.045 -0.02138,-0.1583 -0.04276,-0.113 -0.106908,-0.3391 -0.02138,0 -0.171053,0 -0.149671,-0.068 -0.06414,0 z m 9.536184,0.1131 0,0.226 -0.192434,0.1356 -0.06414,0.5879 -0.128289,0.2261 -0.02138,0.2713 -0.08553,0.045 0.363487,0.3618 0.08553,0.1808 0.04276,0.2261 0.04276,0.068 0.12829,0 0.08553,-0.1809 0.04276,-0.068 0.149671,0.294 0.02138,0.3165 0.08553,0.023 0.106908,0.2035 -0.106908,0.1581 0.149671,0.2488 0.04276,-0.1357 0,-0.3165 -0.192435,-0.3165 -0.02138,-0.068 0.06414,-0.068 0,-0.2034 -0.27796,-0.3845 0.04276,-0.2486 0.363487,-0.1583 0.08553,-0.1583 -0.299342,-0.045 -0.04276,-0.2714 -0.213816,-0.09 -0.08553,-0.2261 0.128289,-0.3165 -0.192434,-0.2712 -0.106908,-0.045 z m -7.120065,0.09 -0.08553,0.09 0,0.1808 0.192434,0.068 0,-0.2713 -0.106907,-0.068 z m 6.350328,0.09 -0.320723,0.045 0.06414,0.113 0.277961,0 -0.02138,-0.1583 z m 4.532895,0.045 -0.192434,0.1582 0,0.2939 0.149671,0.1809 0.04276,-0.023 0,-0.6104 z m -20.2055918,0.226 -0.085526,0.068 0.1069079,0.09 0.064145,-0.1357 -0.085526,-0.023 z m 15.3519738,0.045 -0.06414,0.1356 0.171053,0.3617 0,0.2714 0.04276,0.068 0.213816,0.023 0.106907,-0.1356 0.08553,0.068 0.02138,0.1583 0.08553,-0.045 0,-0.2034 -0.06414,-0.023 -0.04276,-0.1809 -0.149671,0 -0.02138,-0.113 0.08553,-0.113 0,-0.068 -0.256578,0 -0.213816,-0.2034 z m -14.7532894,0.023 -0.1069079,0.068 0.042763,0.045 0.064145,-0.1131 z m -0.3421052,0.023 -0.1069079,0.023 0.064145,0.09 0.085526,0 -0.042763,-0.1131 z m 9.7499996,0.2261 -0.08553,0.068 -0.02138,0.2035 0.08553,0.068 0.06414,0 0.02138,-0.2713 -0.06414,-0.068 z m 0.726974,0.023 -0.171053,0.045 -0.192434,0.294 -0.363487,0.023 0.04276,0.2034 0.513158,0.045 0.04276,-0.407 0.08553,-0.045 0.04276,-0.1583 z m -9.3437508,0.023 0,0.2261 -0.534539,0 0,0.4295 -0.171052,0 -0.02138,0.3166 -0.6414475,0.023 0.1069082,0.1583 -0.021382,0.6783 0.1710527,-0.1131 0.1282894,-0.023 0.1710527,0.045 0.1710521,0.2939 0.192434,-0.1356 0.876645,0 -0.213816,-1.5375 0.213816,0 -0.427632,-0.3617 z m 16.2927638,0.09 -0.192434,0.1131 0.06414,0.2712 0.256579,0.045 0.06414,0.2035 -0.08553,0.068 0,0.045 0.620066,0.633 0.02138,0.1809 -0.04276,0.5651 -0.427632,0.3392 0.06414,0.09 0.02138,0.1131 0.149671,0.023 0.213816,-0.2713 0.192434,-0.068 0.08553,-0.2712 -0.04276,-0.475 -0.192434,-0.2939 -0.213816,-0.1583 -0.256579,-0.4748 0.192434,-0.3391 -0.27796,-0.3165 -0.213816,-0.023 z m -6.970395,0.091 -0.08553,0.045 -0.02138,0.3618 0.08553,0.045 -0.06414,0.3618 -0.40625,0.2261 0.213816,0.3843 0.256579,0 0.577302,-0.9043 0,-0.1357 -0.470395,-0.2713 -0.08553,-0.113 z m 6.735197,0.045 -0.106907,0.068 -0.106908,0.3391 0.171052,0.2261 -0.04276,0.2713 0.04276,0 0.299342,-0.1356 0.384869,0.4522 0,0.2938 0.08553,0.068 0.213816,-0.1809 -0.02138,-0.1582 -0.620065,-0.6105 0,-0.09 0.08553,-0.068 -0.04276,-0.1582 -0.256579,-0.045 -0.08553,-0.2713 z m -15.8009868,0.1809 0.213816,1.5374 -0.898026,0 -0.171052,0.113 0.192433,0.2712 -0.02138,0.091 0.299342,-0.023 0.106908,0.2938 0.384868,0 0.106908,-0.3165 0.555921,-0.4295 0.726974,-0.068 0.04276,-0.52 -0.149671,-0.023 -1.154606,-0.9269 -0.235197,0 z m 2.694079,0.1582 -0.962171,0.814 -0.149671,-0.023 -0.04276,0.5426 -0.491777,0.068 0.277961,0.4521 0.128289,-0.023 0.12829,-0.1809 0.213816,-0.045 0.213816,0.1356 0.449013,0.023 0.363486,-0.1582 0.12829,-0.113 0.02138,-0.1583 0.256578,-0.2714 0.06414,-0.5878 -0.171052,-0.3617 -0.427632,-0.113 z m 0.598684,0.045 -0.128289,0.068 0.171052,0.3391 -0.06414,0.6331 -0.256579,0.2487 0,0.1809 -0.12829,0.113 0.171053,0.1356 0.128289,0.023 0,0.4069 -0.08553,0.068 -0.02138,0.068 0.08553,0.045 0.106908,0.2261 0.171052,0.023 0,-0.068 0.277961,0.023 0,-0.1356 0.384868,-0.3844 0.2351978,0 -0.1282888,-0.2713 0,-0.3164 0.1924338,-0.1809 0,-0.6104 -1.1118428,-0.6331 z m 13.8125008,0.023 -0.12829,0.045 -0.106908,0.1131 0.08553,0.1582 0.106908,0 0.128289,-0.113 0.02138,-0.1583 -0.106908,-0.045 z m -10.96875,0.023 -0.192434,0.2035 -1.368421,0 0.02138,0.3618 -0.128289,0 -0.02138,0.6556 -0.1924338,0.1809 0,0.2712 0.1282888,0.2939 0.171053,0.091 -0.02138,0.1808 -0.06414,0.045 0.641447,0.7008 0.363487,0.023 0.04276,0.068 0.513158,0.023 0,-0.113 0.04276,-0.091 0.171053,-0.023 -0.213816,-0.3166 -0.149671,0 -0.04276,-0.226 0.128289,-0.068 0.363487,-0.8138 0,-0.4522 0.235197,-0.2712 -0.427631,-0.7235 z m 9.386513,0 -0.342105,0.1357 -0.02138,0.2261 0.277961,0.3617 0,0.2487 -0.06414,0.068 0.02138,0.023 0.192435,0.3165 0,0.3616 -0.08553,0.1583 -0.02138,0.113 -0.06414,0.1356 0.04276,0.1583 0.171053,0.1583 0.149671,0 0.128289,0.2034 0.149671,0 0.02138,-0.068 -0.277961,-0.2942 -0.171052,-0.2939 0.02138,-0.7008 0.04276,-0.068 0.106907,0 0,0.1582 0.235198,0.1808 0.08553,-0.045 0,-0.1357 -0.106908,-0.045 -0.02138,-0.1357 0.128289,-0.2034 0.06414,0 0.106908,0.045 0.106908,0.023 0,-0.2713 -0.320724,-0.3844 -0.04276,-0.023 -0.277961,0.1357 -0.06414,-0.023 0,-0.2939 -0.171053,-0.2261 z m 3.228618,0.1357 -0.128289,0.09 -0.02138,0.3392 0.213816,0.4295 0.08553,0.068 0.08553,-0.068 0.149671,0.023 0.04276,0.1357 0.106908,0.023 0.06414,-0.091 -0.08553,-0.091 -0.08553,-0.09 -0.171053,-0.023 -0.106908,-0.1583 0.106908,-0.1809 0.02138,-0.1582 -0.08553,-0.2035 -0.192435,-0.045 z m -10.220394,0.4519 -0.513158,0.1809 -0.299342,0.2939 -0.342106,-0.2035 -0.192434,0.1809 0.08553,0.2487 0,0.2261 0.08553,0.113 0.08553,0.068 1.282895,-0.5651 0.02138,-0.1583 -0.213815,-0.3843 z m -1.175987,1.04 -0.08553,-0.045 -0.106908,0.1357 -0.02138,0.2035 0.192434,0 0.02138,-0.294 z m -0.769737,-0.8591 -0.213816,0.2487 0.02138,0.3166 0.384868,0 0.363487,0.339 0.08553,-0.113 -0.491776,-0.3844 -0.106908,-0.3616 -0.04276,-0.045 z m 9.600329,0.2713 -0.04276,0.023 -0.106908,0.1809 0.02138,0.09 0.106908,0.045 -0.02138,0.1807 -0.06414,0.045 0.213816,0.2487 0.40625,-0.3164 0.02138,-0.4975 -0.192434,0.1584 -0.106908,-0.068 -0.149671,-0.023 -0.08553,-0.068 z m -17.4259866,0.045 -0.1069079,0.023 -0.213816,0.1582 -0.042763,0.091 -0.021382,0.09 0.085527,0.045 0.256579,0 0.1710526,-0.045 0,0.09 0,0.113 0.1496713,0.068 0.04276,0.045 0.192433,0 0.02138,-0.091 -0.192434,-0.2486 -0.2138153,-0.2939 -0.1282895,-0.045 z m 20.0773026,0 0.04276,0.1583 0.06414,0.045 0.04276,-0.068 -0.08553,-0.1131 -0.06414,-0.022 z m -21.3815791,0.023 -0.085526,0.068 0.064145,0.068 0.085526,-0.045 -0.064145,-0.09 z m 0.2565789,0.1356 -0.064145,0.045 0.042763,0.091 0.1069079,-0.045 -0.085526,-0.09 z m 21.8092102,0 -0.128289,0.023 0.106908,0.1356 0.04276,0.1357 0.08553,0 -0.02138,-0.2262 -0.08553,-0.068 z m -18.5378288,0.068 -0.192434,0.023 -0.555922,0.4295 -0.08553,0.2939 0.06415,0.091 0.235197,-0.023 0.06414,-0.1583 0.277961,-0.023 0.213815,0.068 0.277961,-0.2261 -0.299342,-0.4747 z m 18.0888158,0.068 -0.02138,0.2712 0.106908,0.113 0.02138,0.1809 0.106908,0.023 0.04276,-0.113 -0.06414,-0.068 -0.02138,-0.3391 -0.171053,-0.068 z m -21.5098683,0.023 -0.085526,0.068 0.085526,0.1129 0.085526,-0.023 -0.085526,-0.1582 z m 8.8305923,0 -0.384869,0.9043 -0.128289,0.023 0.02138,0.1809 0.149671,0 0.235197,0.3617 0.128289,0.045 0.299343,0.2713 0.171052,0 0.684211,-0.2261 0.491776,-0.5652 -0.256579,0 -0.427632,-0.2714 -0.02138,-0.1582 -0.277961,0 0.02138,-0.2713 -0.320724,-0.2938 -0.384868,0 z m -7.5476973,0.091 -0.1069079,0.045 -0.2565789,0.023 0,0.045 0.3634868,0 0.021382,-0.068 -0.021382,-0.045 z m 20.4835523,0 0,0.2486 0.06414,0.09 0.08553,-0.113 -0.02138,-0.226 -0.128289,0 z m -0.684211,0.023 -0.04276,0.09 -0.02138,0.1131 -0.256579,0.3165 0.02138,0.09 0.106908,-0.023 0.320724,-0.3843 -0.12829,-0.2034 z m -16.8700658,0.045 -0.171052,0.045 -0.08553,0.1583 0,0.4296 -0.149671,0.2034 0,0.3166 0.213816,0.023 0.235197,0.2939 0.12829,0.023 0.08553,-0.045 0.149671,-0.023 0.04276,-0.2034 0.213816,-0.1357 0.213816,-0.023 0.384868,-0.7461 -0.02138,-0.1809 -0.171053,-0.1356 -0.363487,0.1583 -0.470394,0 -0.235198,-0.1583 z m 7.1200668,0 -0.12829,0.045 -0.128289,0.023 0.128289,0.1356 0.149671,-0.113 0.04276,-0.023 -0.06414,-0.068 z m -10.4128291,0.09 0.064145,0.1809 0.021382,-0.113 0.449013,0.045 -0.192434,-0.09 -0.3421053,-0.023 z m 4.5756573,0.068 0,0.181 -0.384869,0.7686 -0.235197,0.023 -0.171053,0.1131 -0.04276,0.2034 0.171053,0.1583 -0.02138,0.2487 0.94079,-0.023 0.06414,-0.09 -0.256579,-0.2939 -0.04276,-0.1131 0.171053,-0.3391 -0.106908,-0.2261 -0.106908,-0.045 0,-0.113 0.106908,-0.09 0.02138,-0.3391 -0.106908,-0.023 z m -4.4473678,0.045 -0.042763,0.1357 0.085526,0.1582 0.1924342,-0.2034 0,-0.045 -0.2351973,-0.045 z m 9.8569076,0 -0.213816,0.113 0.04276,0.2035 -0.04276,0.2035 -0.128289,0.113 -0.53454,0.6105 -0.384868,0.113 -0.171053,0.2261 0.02138,0.5426 0.128289,0.091 1.154605,-1.2887 0.213816,-0.6557 0,-0.2035 -0.08553,-0.068 z m 11.118421,0 0.02138,0.1809 -0.171052,0.1356 -0.149671,0.023 -0.171053,0.1809 0.02138,0.068 0.128289,-0.045 0.106908,-0.068 0.08553,0.2261 0.149671,0.113 0.06414,-0.023 0.06414,-0.068 -0.12829,-0.113 0.06414,-0.068 0.08553,0.068 0.06414,-0.09 -0.06414,-0.1131 0,-0.2713 -0.171053,-0.1356 z m -20.6973681,0.023 0,0.113 -0.2138158,0.1809 0.1496711,0.2713 0.213816,-0.2035 0.213815,0 0.171052,0.2487 0.149672,0.1131 0.06414,-0.1357 0.04276,-0.023 0,-0.2486 -0.08553,-0.3166 -0.320724,0.045 -0.3848673,-0.045 z m 2.4588813,0 -0.235198,0.1809 0.106908,0.2034 0,0.5652 0.106908,0 0,-0.3391 0.149671,-0.2261 0,-0.3617 -0.128289,-0.023 z m 6.8634868,0.09 -0.534539,0.2035 -0.06414,0 -0.213816,-0.1582 0,0.1582 0.40625,0.2487 0.299342,0.023 0.106908,-0.09 0.04276,-0.1809 -0.04276,-0.2035 z m -7.4194078,0.1131 -0.256579,0.023 -0.08553,0.5879 0.06414,0.1356 0.149671,0.2487 0.08553,0 0.235198,-0.1356 -0.02138,-0.7913 -0.171052,-0.068 z m 0.27796,0.023 -0.04276,0.045 0,0.7687 0.149671,-0.09 0,-0.5653 -0.106908,-0.1541 z m 3.057566,0 -0.342105,0.3618 -0.02138,0.1582 -0.277961,-0.023 0,0.068 -0.192434,-0.023 -0.171052,0.3391 0.04276,0.09 0.235197,0.2713 0.106908,-0.1131 0.149671,0 0.04276,-0.1356 0.149671,-0.09 0.320725,0.226 0.1710518,-0.2035 0.705592,0.045 -0.641447,-0.7235 0.08553,-0.045 0,-0.1356 -0.149671,-0.068 -0.2138158,0 z m 8.8733558,0.045 -0.08553,0.045 0.02138,0.1356 0,0.1131 -0.06414,0.023 0.02138,0.2486 0.128289,0.068 0.171053,-0.113 -0.04276,-0.2713 0.02138,-0.09 -0.171052,-0.1583 z m -13.1496718,0.023 -0.128289,0.023 0.02138,0.2939 -0.06414,0.023 -0.08553,0.1356 0.192434,0.2261 0.02138,0.3617 0.235197,-0.1808 0.277961,-0.045 0.27796,0.068 -0.149671,-0.2487 -0.04276,-0.1357 0.04276,-0.4295 -0.256579,0.023 -0.106908,-0.1131 -0.235197,0 z m -0.620066,0.113 -0.192433,0.023 -0.1924345,0.1583 0.2993425,0.2939 0.213815,-0.2714 -0.12829,-0.2034 z m 19.1151318,0.1583 -0.171052,0.3165 0.06414,0.1809 -0.106907,0.1583 -0.171053,-0.068 -0.449013,0.3618 0.02138,0.1808 -0.213815,0 0.171052,0.1809 0.598684,-0.2035 0.12829,-0.4974 0.27796,-0.023 0.235198,-0.2035 -0.320724,-0.2486 -0.06414,-0.1357 z m -18.9440788,0.09 -0.213815,0.2713 0.577302,0.407 -0.02138,-0.3165 -0.171052,-0.2035 -0.171053,-0.1583 z m 16.2713818,0.068 0.106908,0.2486 0.02138,0.3165 0.12829,0.2487 0.342105,0.2035 0.12829,0.023 -0.02138,-0.2261 -0.106908,-0.2939 -0.171052,-0.3617 0,0.068 -0.213816,-0.023 -0.12829,-0.2035 -0.08553,0 z m -0.555921,0.113 0,0.1356 0.363487,0.633 0.08553,0 0.748355,1.3113 0.299342,0.045 0.149672,-0.4748 -0.235198,-0.1582 -0.04276,-0.2487 -1.368421,-1.2435 z m 3.036184,0.09 -0.149671,0.2035 0.106908,0.045 0.08553,-0.113 -0.04276,-0.1357 z m -6.521381,0.09 0.02138,0.1357 0.08553,0.045 0.02138,-0.1357 -0.128289,-0.045 z m -5.345395,0.1131 -0.192434,0.023 -0.02138,0.045 0,0.1357 0.149671,0.2938 -0.171052,0.3618 -0.02138,0.1131 0.833882,0.5651 0.256579,-0.4295 -0.12829,-0.113 0,-0.5878 0.171053,-0.1809 -0.277961,0.09 -0.192434,0 -0.320724,-0.2713 -0.08553,-0.045 z m -2.4375008,0.045 -0.128289,0.091 -0.06414,0.7235 -0.213816,0.1582 -0.06414,0.1583 0.02138,0.226 -0.384868,0.3165 -0.08553,-0.045 0.02138,0.045 -0.12829,0.1131 0.555922,0 0.106907,0.1582 0,0.1131 0.04276,0.045 0.256579,0 0.08553,-0.1582 0.106908,0 0.04276,0.045 0.149672,0 0.04276,0.5652 0.2779598,0 0,0.045 0.705592,0.3392 0.02138,0.068 0.149671,0 -0.02138,-0.2487 -0.256578,-0.1356 0.02138,-0.1809 0.106908,-0.2713 0.256579,0 -0.213816,-0.7913 0,-0.3391 0.342105,-0.5878 0.02138,-0.09 -0.06414,-0.023 0,-0.1582 -0.06414,0 -0.06414,-0.091 -1.069079,-0.068 -0.1924338,0.2034 -0.320725,-0.226 z m 14.6036188,0.023 -0.192434,0.023 -0.128289,0.4747 -0.662829,0.2487 -0.192435,-0.2487 -0.106907,0.023 0.171052,0.7234 0.277961,0.045 0.363486,0.1356 0,0.1582 0.149672,-0.045 0.256578,-0.339 0,-0.2939 0.12829,-0.294 0.149671,0.045 -0.171053,-0.4069 -0.04276,-0.2487 z m -6.692434,0.113 -0.02138,0.1809 0.06414,0.045 0.06414,-0.113 -0.106908,-0.1131 z m -6.136513,0.045 -0.02138,0.113 0.06414,0.068 0,0.113 -0.256579,0.3844 0.171053,0.1582 0.08553,-0.068 0.277961,-0.045 0.04276,0 0.02138,-0.113 0.149671,-0.3392 -0.128289,-0.2712 -0.40625,0 z m -3.4424348,0.023 -0.04276,0.113 0.08553,0.045 0.06414,-0.068 -0.02138,-0.09 -0.08553,0 z m 1.325658,0.023 -0.171053,0.2488 -0.427631,0.023 0,0.068 0.256579,0.023 0,0.6782 -0.213816,0 -0.12829,-0.113 -0.106907,0.068 -0.02138,0.023 0.06414,0.023 0.02138,0.1582 -0.149671,0.113 0.02138,0.068 0.171052,-0.1131 0.06414,0 0.02138,0.068 0.106908,0.045 0.320723,-0.2938 0,-0.2035 0.06414,-0.1583 0.213816,-0.1808 0.04276,-0.5426 -0.149671,0 z m 16.4638158,0.1583 -0.106908,0.2487 0.149671,0.2261 0.06414,0 0.06414,-0.1583 0.04276,-0.045 -0.08553,-0.068 -0.08553,-0.045 -0.04276,-0.1583 z m -0.342105,0.045 -0.192434,0.1809 -0.12829,0 -0.192434,-0.1131 -0.149671,0.023 -0.149671,0.2487 -0.106908,0.4748 -0.04276,0.1809 0.106908,0.1582 -0.06414,0.2261 0,0.045 0.171053,0 0.06414,-0.5877 0.06414,0.023 0.08553,0.5199 0.106907,0.045 0.08553,-0.2261 -0.08553,-0.3617 -0.08553,-0.1356 0.256579,-0.1809 -0.06414,-0.09 -0.235197,0.1583 -0.06414,0 -0.106908,-0.1809 0.04276,-0.068 0.192434,-0.1131 0.27796,0.091 0.08553,0 0.235197,-0.2035 -0.106908,-0.113 z m -17.2335528,0.068 0,0.091 0.235197,0 0,-0.091 -0.235197,0 z m 0.27796,0 0,0.1357 -0.299342,0 -0.192434,0.3617 0.427632,0.4973 0.106908,-0.09 0,-0.09 -0.06414,-0.045 0,-0.068 0.149671,-0.113 0.149671,0.1356 0.171053,0 0,-0.5878 -0.256579,-0.023 0,-0.113 -0.192435,0 z m 9.0871718,0 -0.04276,0.068 0.06414,0.045 0.08553,-0.045 -0.106908,-0.068 z m -9.7927638,0.045 0.04276,0.09 0.04276,0.023 0.04276,-0.068 -0.04276,-0.045 -0.08553,0 z m -0.06414,0.1808 -0.04276,0.023 0,0.068 0.04276,0.023 0.04276,-0.068 -0.04276,-0.045 z m 18.9868418,0.1583 -0.213816,0.023 -0.128289,0.1131 0.04276,0.1131 0.235197,0.045 0,0.045 -0.149671,0.1356 0.08553,0.2712 0.06414,0 0.06414,-0.2712 0.12829,0 0.04276,0.2712 0.577302,0.4974 0,0.3844 0.213816,0.2261 0.08553,0 0.02138,-1.3791 -0.342105,-0.2487 -0.320724,0.2261 -0.106908,0.068 -0.192434,-0.1131 0,-0.4069 -0.106908,0 z m -15.501644,0.023 -0.08553,0.1357 0,0.1583 0.235198,0 0,-0.1583 -0.149671,-0.1357 z m 0.555921,0.023 -0.256579,0.068 -0.106908,0.068 0,0.1582 -0.06414,0.2487 -0.06414,0.068 -0.106908,0.023 0.192435,0.633 0.27796,0.1583 0.213816,0 0,0.045 -0.171053,0 0.08553,0.407 -0.06414,0.2939 0.171053,0.2035 0,0.2261 0.02138,0.09 0.213816,-0.2487 -0.02138,-0.3165 -0.106908,-0.09 0,-0.045 -0.06414,-0.2487 0.876644,-0.113 -0.192434,-0.4296 -0.02138,-0.4069 0.06414,-0.2035 -0.876644,-0.5878 z m 0.213815,1.9896 0.149672,0.113 0.04276,0.3617 -0.299342,0.3165 -0.06414,-0.1809 0,-0.226 -0.149671,-0.1809 -0.427632,0.2035 0.384869,0.2034 0.02138,0.5879 -0.256579,0.4069 0,0.4748 0.149671,0.1356 0.320724,-0.2261 0.06414,-0.3165 0,-0.5199 0.534539,-0.4748 0.08553,0 0.342105,-0.3165 -0.06414,-0.6783 -0.855263,0.1131 0.02138,0.2035 z m 14.111842,-1.6957 -0.213815,0.045 -0.06414,0.068 0.06414,0.091 0.128289,-0.045 0.08553,-0.068 0.12829,0.113 0.06414,-0.045 -0.106908,-0.1356 -0.08553,-0.023 z m -14.753289,0.023 -0.213816,0.023 0,0.1131 0.04276,0.1355 0.06414,0 0.06414,-0.045 0.04276,-0.226 z m 16.485197,0.1357 -0.02138,1.3565 0.192434,0 0.235197,-0.3166 0.213816,0.023 0.12829,0.113 0.04276,0.3844 0.40625,0.2487 0.106908,-0.045 0,-0.1582 -0.320724,-0.294 -0.171053,-0.4069 0.12829,-0.068 -0.08553,-0.2035 -0.213815,-0.023 -0.04276,-0.2262 -0.513158,-0.3842 -0.08553,0 z m -12.764802,0.045 -0.08553,0.068 0.06414,0.113 0.106908,0 -0.08553,-0.1808 z m -6.4144748,0.1129 -0.128289,0.1131 0.08553,0.1356 0.106908,-0.1356 -0.02138,-0.1131 -0.04276,0 z m 6.4572378,0.1809 -0.06414,0.068 0.04276,0.09 0.08553,0.023 0.02138,-0.1808 -0.08553,0 z m -5.9226978,0.1131 -0.555921,0.023 0.171053,0.7009 0,0.2261 -0.256579,0.2939 -0.04276,0.4974 1.004935,0 0.320723,0.1356 0.277962,-0.045 -0.149672,-0.2035 0,-0.6105 0.2993428,-0.023 0,-0.226 -0.2565788,0 -0.04276,-0.5653 -0.106907,0 -0.06414,-0.045 -0.06414,0 -0.06414,0.1808 -0.320723,0 -0.08553,-0.09 0.02138,-0.1131 -0.08553,-0.1356 z m 13.3848688,0.09 -0.149671,0.113 0.04276,0.09 0.449013,0.1131 0.235198,0.045 0.106907,0.1131 0.256579,0.023 0.12829,0.113 0.106908,-0.045 0.106908,-0.09 -0.192435,-0.091 -0.149671,-0.1582 -0.449013,-0.1131 -0.491776,-0.113 z m -7.953947,0.023 -0.02138,0.068 0.08553,0.068 0.06414,-0.068 -0.128289,-0.068 z m 14.518092,0.05 -0.192435,0.045 0.02138,0.113 0.171053,-0.023 0,-0.1357 z m -17.832237,0.2035 -0.235197,0.023 -0.106908,0.2714 0,0.113 0.27796,0.1356 0.02138,0.2939 -0.235198,0.023 -0.06414,-0.09 -0.641448,-0.2939 -0.02138,0.2261 -0.2993418,0 0,0.52 0.1496708,0.2261 0.256579,0.023 0.106908,0.068 0.256578,0 0.235198,-0.3617 0.662829,-0.2939 0.06414,-0.2713 -0.08553,-0.407 -0.342105,-0.2034 z m 12.978618,0.1583 0.02138,0.1131 0.106908,0.045 0.06414,-0.068 -0.06414,-0.09 -0.12829,0 z m -0.192434,0.068 -0.128289,0.068 0.06414,0.068 0.171053,-0.068 -0.106908,-0.068 z m 0.577303,0 -0.06414,0.045 -0.02138,0.068 0.235198,0.023 0.171052,-0.113 -0.106908,-0.023 -0.149671,0.045 -0.06414,-0.045 z m 0.705592,0.068 -0.277961,0.2487 0.02138,0.068 0.128289,-0.023 0.12829,-0.1357 0.256579,-0.045 -0.04276,-0.091 -0.213816,-0.023 z m -12.059211,0.1582 0.02138,0.091 0.106908,0.023 0.04276,-0.113 -0.171053,0 z m 11.246711,0 -0.149671,0.023 0.149671,0.113 0.08553,0 -0.08553,-0.1356 z m -10.476974,0.091 -0.106908,0.2939 -0.192434,0.3617 -0.342105,0.023 -0.12829,0.1809 0.02138,0.5426 -0.213816,0.2712 0.02138,0.4296 0.171052,0.2035 0.213816,-0.023 0.213816,-0.1582 -0.04276,-0.2487 0.470394,-0.8817 -0.08553,-0.1131 0.08553,-0.2261 0.106908,0.045 0.04276,-0.09 -0.106908,-0.4296 -0.06414,-0.1809 -0.06414,0 z m -0.470395,0.068 -0.149671,0.023 0.04276,0.09 0.06414,0 0.04276,-0.113 z m 12.914474,0.4069 -0.534539,0.1583 -0.149672,0.4522 -0.235197,0.068 -0.02138,-0.3165 -1.004935,0.633 0.02138,0.226 -0.149671,0.2262 -0.363487,0 -0.8125,0.3617 -0.27796,0.7914 -0.02138,1.4244 -0.213816,0.1582 0,0.1356 0.277961,0.2034 0.68421,-0.1356 0.363487,0 0.128289,-0.2034 0.791119,-0.1582 0.555921,0.1807 -0.04276,0.2262 0.08553,0.2486 0.427632,-0.09 0.02138,0.1356 -0.299342,0.2035 0.106908,0.091 0.192434,-0.091 -0.04276,0.6783 0.384869,0.3165 0.235197,-0.09 0.106908,0.113 0.662829,-0.09 0.598684,-1.0626 0.235197,-0.045 0.449013,-0.8816 0.106908,-0.7687 -0.27796,-0.3618 0.106908,-0.09 -0.213816,-0.7461 -0.256579,-0.1809 0.04276,-0.9947 -0.213816,-0.1808 -0.06414,-0.5427 -0.106908,0 -0.384869,1.3113 -0.192434,0.023 -0.470395,-0.4974 0.256579,-0.746 -0.491776,-0.091 z m -15.330592,0.1358 -0.149671,0.068 -0.235197,0.3392 -0.299342,0 0,0.068 0.491776,0.5652 0.363487,0.113 0.235197,-0.4069 -0.02138,-0.5426 -0.384868,-0.2034 z m -2.7154608,0.2713 0.04276,0.2939 0.320724,0.4973 -0.06414,0.2714 0,0.1356 0.256579,0.6556 0.171053,0.023 0.106907,0.1131 0.256579,0 0.06414,-0.7461 0,-0.4748 0.149671,-0.023 0.06414,-0.5199 0.4062508,0 0.128289,-0.1357 -0.235197,0 -0.3207248,0.045 -0.363487,-0.1357 -0.983552,0 z m 1.9457238,0.113 -0.149671,0.1357 -0.3848688,0.023 -0.06414,0.4973 -0.149671,0.045 0,0.4521 0.106908,0.045 -0.02138,0.3391 0.128289,0.023 0.2565798,-0.2714 0.320723,0.045 0.08553,-0.2261 0.40625,-0.4069 -0.491777,-0.5878 0,-0.09 -0.04276,-0.023 z m 4.746711,0.4749 -0.06414,0.113 0,0.1129 0.171053,-0.1356 -0.106908,-0.09 z m -0.277961,0.1807 -0.128289,0.023 0,0.091 0.06414,0.023 0.12829,-0.045 -0.06414,-0.091 z m -3.870066,0.068 -0.427631,0.4069 -0.08553,0.2487 -0.342106,-0.045 -0.2779608,0.2713 -0.171053,-0.023 0.02138,-0.3618 -0.06414,-0.023 -0.06414,0.7235 -0.320724,0 -0.08553,-0.1131 -0.149672,0 0.12829,0.3843 0.235197,0.2488 -0.171052,0.2034 0.106908,0.2487 0.256579,0.091 0.192434,-0.1809 0.5773028,0.023 0.04276,-0.068 0.235198,-0.045 0.855263,-0.9043 0,-0.2713 -0.08553,0.1356 -0.128289,0 -0.171053,-0.1583 0.08553,-0.226 0.149671,-0.023 -0.02138,-0.4522 -0.320724,-0.091 z m 0.342106,0.5878 -0.12829,0.023 -0.04276,0.1583 0.08553,0.09 0.12829,0 0.106908,-0.1583 -0.149671,-0.113 z m -0.53454,0.4522 0.06414,0 0.128289,0.1356 0,0.1809 -0.149671,0.068 0,0.068 -0.235197,0 -0.08553,-0.1808 0.08553,-0.1357 0.192434,-0.1356 z m 0,0.045 -0.171052,0.1357 -0.04276,0.09 0.04276,0.1131 0.171052,0.023 0,-0.045 0.149671,-0.068 0.02138,-0.1131 -0.106908,-0.1356 -0.06414,0 z m 15.56579,4.0921 -0.08553,0.3844 0.02138,0.2938 0.27796,-0.023 0.320724,-0.52 -0.534539,-0.1355 z m -10.712171,0.1809 0,0.2487 0.320723,0.068 0.06414,-0.2034 -0.106908,0.045 -0.149671,0.023 -0.04276,-0.1809 -0.08553,0 z m 13.449013,1.4245 -0.213816,0.091 0.04276,0.1582 0.171053,0.09 0,-0.3391 z"
       id="kalimantan"
       style="opacity:0.49999999;fill:#ffffff;fill-opacity:1" />
    <path
       sodipodi:nodetypes="cccssscccssccccccsscccsssccc"
       inkscape:connector-curvature="0"
       id="path3789"
       d="m 15.975045,1026.3622 c -2.619843,0 -4.750005,2.0177 -4.750005,4.5175 -0.0357,0.4221 -0.03899,0.8443 -0.02504,1.2524 -0.2216,0 -0.8,0.1751 -0.8,0.393 l 0,2.357 c 0,0.2177 0.5784,0.393 0.8,0.393 l 0.275002,0 c 0.402162,1.6569 1.277575,3.0202 2.424998,3.7813 -0.09946,0.1236 -0.196856,0.2495 -0.3,0.3686 l -0.8,0 c -0.4432,0 -0.8,0.3505 -0.8,0.785 l 0,0.7371 c -1.121616,0.8659 -2.43946,1.5103 -4,1.9151 l 0,5.5 16,0 0,-5.5 c -1.487833,-0.4478 -2.812504,-1.1776 -4,-2.136 l 0,-0.5162 c 0,-0.4345 -0.3568,-0.785 -0.8,-0.785 l -0.575003,0 c -0.125811,-0.1364 -0.252985,-0.2746 -0.374992,-0.4174 1.106502,-0.7683 1.917647,-2.1072 2.29999,-3.7325 l 0.250005,0 c 0.2216,0 0.8,-0.1753 0.8,-0.393 l 0,-2.357 c 0,-0.2179 -0.5784,-0.393 -0.8,-0.393 -0.0047,-0.3408 -0.03786,-0.7121 -0.100015,-1.1292 0,-3.3515 -2.599453,-4.5788 -4.724998,-4.6407 z"
       style="fill:#ffffff;fill-opacity:1;fill-rule:nonzero;stroke:none;opacity:0.3" />
    <path
       style="fill:#2262bf;fill-opacity:1;fill-rule:nonzero;stroke:none"
       d="m 15.975045,1025.3622 c -2.619843,0 -4.750005,2.0177 -4.750005,4.5175 -0.0357,0.4221 -0.03899,0.8443 -0.02504,1.2524 -0.2216,0 -0.8,0.1751 -0.8,0.393 l 0,2.357 c 0,0.2177 0.5784,0.393 0.8,0.393 l 0.275002,0 c 0.402162,1.6569 1.277575,3.0202 2.424998,3.7813 -0.09946,0.1236 -0.196856,0.2495 -0.3,0.3686 l -0.8,0 c -0.4432,0 -0.8,0.3505 -0.8,0.785 l 0,0.7371 c -1.121616,0.8659 -2.43946,1.5103 -4,1.9151 l 0,5.5 16,0 0,-5.5 c -1.487833,-0.4478 -2.812504,-1.1776 -4,-2.136 l 0,-0.5162 c 0,-0.4345 -0.3568,-0.785 -0.8,-0.785 l -0.575003,0 c -0.125811,-0.1364 -0.252985,-0.2746 -0.374992,-0.4174 1.106502,-0.7683 1.917647,-2.1072 2.29999,-3.7325 l 0.250005,0 c 0.2216,0 0.8,-0.1753 0.8,-0.393 l 0,-2.357 c 0,-0.2179 -0.5784,-0.393 -0.8,-0.393 -0.0047,-0.3408 -0.03786,-0.7121 -0.100015,-1.1292 0,-3.3515 -2.599453,-4.5788 -4.724998,-4.6407 z"
       id="path3290"
       inkscape:connector-curvature="0"
       sodipodi:nodetypes="cccssscccssccccccsscccsssccc" />
    <path
       style="fill:#000000;fill-opacity:1;fill-rule:nonzero;stroke:none;opacity:0.3"
       d="M 15.96875 5 C 13.348907 5 11.21875 7.03145 11.21875 9.53125 C 11.18305 9.95335 11.17355 10.37315 11.1875 10.78125 C 10.9659 10.78125 10.40625 10.93835 10.40625 11.15625 L 10.40625 12.15625 C 10.40625 11.93835 10.9659 11.78125 11.1875 11.78125 C 11.17355 11.37315 11.18305 10.95335 11.21875 10.53125 C 11.21875 8.03145 13.348907 6 15.96875 6 C 18.094295 6.0619 20.6875 7.30475 20.6875 10.65625 C 20.749655 11.07335 20.8078 11.44045 20.8125 11.78125 C 21.0341 11.78125 21.59375 11.93835 21.59375 12.15625 L 21.59375 11.15625 C 21.59375 10.93835 21.0341 10.78125 20.8125 10.78125 C 20.8078 10.44045 20.749655 10.07335 20.6875 9.65625 C 20.6875 6.30475 18.094295 5.0619 15.96875 5 z M 12.8125 18.0625 C 12.3693 18.0625 12 18.40925 12 18.84375 L 12 19.59375 C 10.878384 20.45965 9.56054 21.0952 8 21.5 L 8 22.5 C 9.56054 22.0952 10.878384 21.45965 12 20.59375 L 12 19.84375 C 12 19.40925 12.3693 19.0625 12.8125 19.0625 L 13.59375 19.0625 C 13.696894 18.9434 13.80679 18.8111 13.90625 18.6875 C 13.643299 18.513081 13.388209 18.296457 13.15625 18.0625 L 12.8125 18.0625 z M 18.9375 18.0625 C 18.725116 18.282199 18.492047 18.488184 18.25 18.65625 C 18.372007 18.79905 18.499189 18.9261 18.625 19.0625 L 19.1875 19.0625 C 19.6307 19.0625 20 19.40925 20 19.84375 L 20 20.375 C 21.187496 21.3334 22.512167 22.0522 24 22.5 L 24 21.5 C 22.512167 21.0522 21.187496 20.3334 20 19.375 L 20 18.84375 C 20 18.40925 19.6307 18.0625 19.1875 18.0625 L 18.9375 18.0625 z "
       transform="translate(0,1020.3622)"
       id="path3793" />
  </g>
</svg>
