<?xml version="1.0" encoding="UTF-8" standalone="no"?>
<!-- Created with Inkscape (http://www.inkscape.org/) -->

<svg
   xmlns:dc="http://purl.org/dc/elements/1.1/"
   xmlns:cc="http://creativecommons.org/ns#"
   xmlns:rdf="http://www.w3.org/1999/02/22-rdf-syntax-ns#"
   xmlns:svg="http://www.w3.org/2000/svg"
   xmlns="http://www.w3.org/2000/svg"
   xmlns:xlink="http://www.w3.org/1999/xlink"
   xmlns:sodipodi="http://sodipodi.sourceforge.net/DTD/sodipodi-0.dtd"
   xmlns:inkscape="http://www.inkscape.org/namespaces/inkscape"
   width="32"
   height="32"
   id="svg2"
   version="1.1"
   inkscape:version="0.48.4 r9939"
   sodipodi:docname="template32.svg">
  <defs
     id="defs4">
    <linearGradient
       inkscape:collect="always"
       id="linearGradient3785">
      <stop
         style="stop-color:#000000;stop-opacity:1;"
         offset="0"
         id="stop3787" />
      <stop
         style="stop-color:#000000;stop-opacity:0;"
         offset="1"
         id="stop3789" />
    </linearGradient>
    <linearGradient
       id="linearGradient3766">
      <stop
         style="stop-color:#3764a0;stop-opacity:1;"
         offset="0"
         id="stop3768" />
      <stop
         style="stop-color:#143791;stop-opacity:1;"
         offset="1"
         id="stop3770" />
    </linearGradient>
    <linearGradient
       id="linearGradient3758">
      <stop
         style="stop-color:#46aae6;stop-opacity:1;"
         offset="0"
         id="stop3760" />
      <stop
         style="stop-color:#285aa5;stop-opacity:1;"
         offset="1"
         id="stop3762" />
    </linearGradient>
    <linearGradient
       id="linearGradient3757">
      <stop
         style="stop-color:#ffffff;stop-opacity:1;"
         offset="0"
         id="stop3759" />
      <stop
         id="stop3767"
         offset="0.04882902"
         style="stop-color:#ffffff;stop-opacity:0.15686275;" />
      <stop
         id="stop3765"
         offset="0.94428825"
         style="stop-color:#ffffff;stop-opacity:0.23529412;" />
      <stop
         style="stop-color:#ffffff;stop-opacity:0.39215687;"
         offset="1"
         id="stop3761" />
    </linearGradient>
    <linearGradient
       inkscape:collect="always"
       xlink:href="#linearGradient3757"
       id="linearGradient3763"
       x1="16.75"
       y1="1023.4156"
       x2="16.75"
       y2="1049.4906"
       gradientUnits="userSpaceOnUse" />
    <radialGradient
       inkscape:collect="always"
       xlink:href="#linearGradient3758"
       id="radialGradient3764"
       cx="15.999997"
       cy="1027.6497"
       fx="15.999997"
       fy="1027.6497"
       r="14"
       gradientUnits="userSpaceOnUse"
       gradientTransform="matrix(2.3010848e-6,1.7516633,-1.1534678,1.515261e-6,1201.3608,999.62149)" />
    <linearGradient
       inkscape:collect="always"
       xlink:href="#linearGradient3766"
       id="linearGradient3772"
       x1="7.6821079"
       y1="1022.5989"
       x2="7.6821079"
       y2="1049.9998"
       gradientUnits="userSpaceOnUse" />
    <linearGradient
       inkscape:collect="always"
       xlink:href="#linearGradient3785"
       id="linearGradient3791"
       x1="15.84375"
       y1="24.046875"
       x2="15.84375"
       y2="17.326309"
       gradientUnits="userSpaceOnUse" />
    <linearGradient
       inkscape:collect="always"
       xlink:href="#linearGradient3785"
       id="linearGradient3799"
       gradientUnits="userSpaceOnUse"
       x1="15.84375"
       y1="24.046875"
       x2="15.84375"
       y2="17.326309" />
    <linearGradient
       inkscape:collect="always"
       xlink:href="#linearGradient3785"
       id="linearGradient3802"
       gradientUnits="userSpaceOnUse"
       x1="15.84375"
       y1="24.046875"
       x2="15.84375"
       y2="17.326309"
       gradientTransform="translate(0,1019.3623)" />
  </defs>
  <sodipodi:namedview
     id="base"
     pagecolor="#ffffff"
     bordercolor="#666666"
     borderopacity="1.0"
     inkscape:pageopacity="0.0"
     inkscape:pageshadow="2"
     inkscape:zoom="8"
     inkscape:cx="10.558445"
     inkscape:cy="9.4243953"
     inkscape:document-units="px"
     inkscape:current-layer="layer1"
     showgrid="false"
     inkscape:window-width="1280"
     inkscape:window-height="750"
     inkscape:window-x="0"
     inkscape:window-y="24"
     inkscape:window-maximized="1" />
  <metadata
     id="metadata7">
    <rdf:RDF>
      <cc:Work
         rdf:about="">
        <dc:format>image/svg+xml</dc:format>
        <dc:type
           rdf:resource="http://purl.org/dc/dcmitype/StillImage" />
        <dc:title></dc:title>
      </cc:Work>
    </rdf:RDF>
  </metadata>
  <g
     inkscape:label="Livello 1"
     inkscape:groupmode="layer"
     id="layer1"
     transform="translate(0,-1020.3622)">
    <rect
       style="fill:url(#radialGradient3764);fill-opacity:1;stroke:url(#linearGradient3772);stroke-opacity:1"
       id="rect2985"
       width="27"
       height="27"
       x="2.5"
       y="1022.8622"
       rx="1.5"
       ry="1.5" />
    <path
       id="path3818"
       transform="translate(0,1020.3622)"
       d="M 8 9 L 8 23 L 12 23 L 16 19 L 20 23 L 24 23 L 24 9 L 20 9 L 20 17.3125 L 18.84375 16.15625 L 16 13.34375 L 13.15625 16.15625 L 12 17.3125 L 12 9 L 8 9 z "
       style="fill:#000000;fill-opacity:1;stroke:#000000;stroke-opacity:1;opacity:0.01;stroke-width:4.00000010000000028;stroke-miterlimit:4;stroke-dasharray:none" />
    <path
       style="fill:#000000;fill-opacity:1;stroke:#000000;stroke-opacity:1;opacity:0.04999999;stroke-width:3;stroke-miterlimit:4;stroke-dasharray:none"
       d="M 8 9 L 8 23 L 12 23 L 16 19 L 20 23 L 24 23 L 24 9 L 20 9 L 20 17.3125 L 18.84375 16.15625 L 16 13.34375 L 13.15625 16.15625 L 12 17.3125 L 12 9 L 8 9 z "
       transform="translate(0,1020.3622)"
       id="path3816" />
    <path
       id="path3814"
       transform="translate(0,1020.3622)"
       d="M 8 9 L 8 23 L 12 23 L 16 19 L 20 23 L 24 23 L 24 9 L 20 9 L 20 17.3125 L 18.84375 16.15625 L 16 13.34375 L 13.15625 16.15625 L 12 17.3125 L 12 9 L 8 9 z "
       style="fill:#000000;fill-opacity:1;stroke:#000000;stroke-opacity:1;opacity:0.1;stroke-width:2.00000009999999984;stroke-miterlimit:4;stroke-dasharray:none" />
    <path
       style="fill:#000000;fill-opacity:1;stroke:#000000;stroke-opacity:1;opacity:0.15"
       d="M 8 9 L 8 23 L 12 23 L 16 19 L 20 23 L 24 23 L 24 9 L 20 9 L 20 17.3125 L 18.84375 16.15625 L 16 13.34375 L 13.15625 16.15625 L 12 17.3125 L 12 9 L 8 9 z "
       transform="translate(0,1020.3622)"
       id="rect3807" />
    <rect
       ry="0.5"
       rx="0.5"
       y="1023.8621"
       x="3.4999995"
       height="25"
       width="25"
       id="rect3755"
       style="opacity:0.3;fill:none;fill-opacity:1;stroke:url(#linearGradient3763);stroke-opacity:1" />
    <rect
       style="fill:#ffffff;fill-opacity:1;stroke:none"
       id="rect3774"
       width="4"
       height="14"
       x="8"
       y="1029.3621" />
    <rect
       y="1029.3621"
       x="20"
       height="14"
       width="4"
       id="rect3776"
       style="fill:#ffffff;fill-opacity:1;stroke:none" />
    <path
       style="fill:#ffffff;fill-opacity:1;stroke:none"
       d="m 13.15625,1036.5186 -4,4 2.84375,2.8437 4,-4 4,4 2.84375,-2.8437 -4,-4 L 16,1033.7061 z"
       id="rect3778"
       inkscape:connector-curvature="0"
       sodipodi:nodetypes="ccccccccc" />
    <path
       sodipodi:nodetypes="ccccccccc"
       inkscape:connector-curvature="0"
       id="path3783"
       d="M 13.15625,1036.5186 12,1037.6623 l 0,5.7 4,-4 4,4 0,-5.7 -1.15625,-1.1437 L 16,1033.7061 z"
       style="opacity:0.2;fill:url(#linearGradient3802);fill-opacity:1;stroke:none" />
  </g>
</svg>
