<?xml version="1.0" encoding="UTF-8" standalone="no"?>
<!-- Created with Inkscape (http://www.inkscape.org/) -->

<svg
   xmlns:dc="http://purl.org/dc/elements/1.1/"
   xmlns:cc="http://creativecommons.org/ns#"
   xmlns:rdf="http://www.w3.org/1999/02/22-rdf-syntax-ns#"
   xmlns:svg="http://www.w3.org/2000/svg"
   xmlns="http://www.w3.org/2000/svg"
   xmlns:sodipodi="http://sodipodi.sourceforge.net/DTD/sodipodi-0.dtd"
   xmlns:inkscape="http://www.inkscape.org/namespaces/inkscape"
   width="25"
   height="25"
   id="svg3846"
   version="1.1"
   inkscape:version="0.48.1 r9760"
   sodipodi:docname="nautilus-transfer.svg">
  <defs
     id="defs3848" />
  <sodipodi:namedview
     id="base"
     pagecolor="#ffffff"
     bordercolor="#666666"
     borderopacity="1.0"
     inkscape:pageopacity="0.0"
     inkscape:pageshadow="2"
     inkscape:zoom="11.2"
     inkscape:cx="0.55155057"
     inkscape:cy="13.301841"
     inkscape:document-units="px"
     inkscape:current-layer="layer1"
     showgrid="false"
     inkscape:window-width="1230"
     inkscape:window-height="776"
     inkscape:window-x="50"
     inkscape:window-y="24"
     inkscape:window-maximized="1"
     showguides="true"
     inkscape:guide-bbox="true" />
  <metadata
     id="metadata3851">
    <rdf:RDF>
      <cc:Work
         rdf:about="">
        <dc:format>image/svg+xml</dc:format>
        <dc:type
           rdf:resource="http://purl.org/dc/dcmitype/StillImage" />
        <dc:title />
      </cc:Work>
    </rdf:RDF>
  </metadata>
  <g
     inkscape:label="Livello 1"
     inkscape:groupmode="layer"
     id="layer1"
     transform="translate(0,-1027.3622)">
    <path
       style="font-size:medium;font-style:normal;font-variant:normal;font-weight:normal;font-stretch:normal;text-indent:0;text-align:start;text-decoration:none;line-height:normal;letter-spacing:normal;word-spacing:normal;text-transform:none;direction:ltr;block-progression:tb;writing-mode:lr-tb;text-anchor:start;baseline-shift:baseline;opacity:0.50000000000000000;color:#000000;fill:#505050;fill-opacity:1;stroke:none;stroke-width:2;marker:none;visibility:visible;display:inline;overflow:visible;enable-background:accumulate;font-family:Sans;-inkscape-font-specification:Sans"
       d="M 13.5,10 C 12.686297,10 12,10.6863 12,11.5 l 0,4.5 2,0 0,-4 8,0 0,10 -8,0 0,-2 -2,0 0,2.5 c 0,0.8137 0.686297,1.5 1.5,1.5 l 9,0 c 0.813703,0 1.5,-0.6863 1.5,-1.5 l 0,-11 C 24,10.6863 23.313703,10 22.5,10 z"
       transform="translate(0,1027.3622)"
       id="rect4364"
       inkscape:connector-curvature="0"
       sodipodi:nodetypes="ssccccccccsssssss" />
    <path
       style="font-size:medium;font-style:normal;font-variant:normal;font-weight:normal;font-stretch:normal;text-indent:0;text-align:start;text-decoration:none;line-height:normal;letter-spacing:normal;word-spacing:normal;text-transform:none;direction:ltr;block-progression:tb;writing-mode:lr-tb;text-anchor:start;baseline-shift:baseline;color:#000000;fill:#505050;fill-opacity:1;stroke:none;stroke-width:2;marker:none;visibility:visible;display:inline;overflow:visible;enable-background:accumulate;font-family:Sans;-inkscape-font-specification:Sans"
       d="M 2.5,1 C 1.6862972,1 1,1.6863 1,2.5 l 0,11 C 1,14.3137 1.6862972,15 2.5,15 L 6,15 6,13 3,13 3,3 l 8,0 0,10 -1,0 0,2 1.5,0 c 0.813703,0 1.5,-0.6863 1.5,-1.5 l 0,-11 C 13,1.6863 12.313703,1 11.5,1 z"
       transform="translate(0,1027.3622)"
       id="rect3854"
       inkscape:connector-curvature="0"
       sodipodi:nodetypes="ssssccccccccsssss" />
    <path
       style="fill:#505050;fill-opacity:1;stroke:none"
       d="M 7 11 L 7 17 L 7 19 L 9 19 L 15 19 L 15 21 L 20 18 L 15 15 L 15 17 L 9 17 L 9 11 L 7 11 z "
       transform="translate(0,1027.3622)"
       id="rect4366" />
  </g>
</svg>
