<?xml version="1.0" encoding="UTF-8" standalone="no"?>
<!-- Created with Inkscape (http://www.inkscape.org/) -->

<svg
   xmlns:dc="http://purl.org/dc/elements/1.1/"
   xmlns:cc="http://creativecommons.org/ns#"
   xmlns:rdf="http://www.w3.org/1999/02/22-rdf-syntax-ns#"
   xmlns:svg="http://www.w3.org/2000/svg"
   xmlns="http://www.w3.org/2000/svg"
   xmlns:sodipodi="http://sodipodi.sourceforge.net/DTD/sodipodi-0.dtd"
   xmlns:inkscape="http://www.inkscape.org/namespaces/inkscape"
   width="24"
   height="24"
   id="svg2"
   version="1.1"
   inkscape:version="0.48.1 r9760"
   sodipodi:docname="nm-signal-75-secure.svg">
  <defs
     id="defs4" />
  <sodipodi:namedview
     id="base"
     pagecolor="#ffffff"
     bordercolor="#666666"
     borderopacity="1.0"
     inkscape:pageopacity="0.0"
     inkscape:pageshadow="2"
     inkscape:zoom="15.839192"
     inkscape:cx="15.950222"
     inkscape:cy="0.9850072"
     inkscape:document-units="px"
     inkscape:current-layer="layer1"
     showgrid="false"
     inkscape:window-width="1230"
     inkscape:window-height="776"
     inkscape:window-x="50"
     inkscape:window-y="24"
     inkscape:window-maximized="1" />
  <metadata
     id="metadata7">
    <rdf:RDF>
      <cc:Work
         rdf:about="">
        <dc:format>image/svg+xml</dc:format>
        <dc:type
           rdf:resource="http://purl.org/dc/dcmitype/StillImage" />
        <dc:title></dc:title>
      </cc:Work>
    </rdf:RDF>
  </metadata>
  <g
     inkscape:label="Livello 1"
     inkscape:groupmode="layer"
     id="layer1"
     transform="translate(0,-1028.3622)">
    <path
       style="fill:#505050;fill-opacity:1;fill-rule:nonzero;stroke:none;opacity:1"
       d="M 19.5 6 C 19.223 6 19 6.223 19 6.5 L 19 16.28125 C 19.294537 16.11011 19.636188 16 20 16 L 22 16 L 22 6.5 C 22 6.223 21.777 6 21.5 6 L 19.5 6 z "
       transform="translate(0,1028.3622)"
       id="rect2985" />
    <rect
       y="1038.3622"
       x="15"
       height="11"
       width="3"
       id="rect3755"
       style="fill:#505050;fill-opacity:1;fill-rule:nonzero;stroke:none;opacity:1"
       rx="0.5"
       ry="0.5" />
    <rect
       style="fill:#505050;fill-opacity:1;fill-rule:nonzero;stroke:none;opacity:1"
       id="rect3757"
       width="3"
       height="7"
       x="11"
       y="1042.3622"
       rx="0.5"
       ry="0.5" />
    <rect
       y="1046.3622"
       x="7"
       height="3"
       width="3"
       id="rect3759"
       style="fill:#505050;fill-opacity:1;fill-rule:nonzero;stroke:none"
       rx="0.5"
       ry="0.5" />
    <rect
       style="fill:#505050;fill-opacity:1;fill-rule:nonzero;stroke:none"
       id="rect3761"
       width="1"
       height="13"
       x="5"
       y="1036.3622" />
    <rect
       y="-8"
       x="1036.3622"
       height="5"
       width="1"
       id="rect3763"
       style="fill:#505050;fill-opacity:1;fill-rule:nonzero;stroke:none"
       transform="matrix(0,1,-1,0,0,0)" />
    <path
       style="fill:#505050;fill-opacity:1;fill-rule:nonzero;stroke:none"
       d="m 20,1045.3622 c -0.545352,0 -1,0.4546 -1,1 l 0,2 -0.5,0 c -0.277,0 -0.5,0.223 -0.5,0.5 l 0,3 c 0,0.277 0.223,0.5 0.5,0.5 l 5,0 c 0.277,0 0.5,-0.223 0.5,-0.5 l 0,-3 c 0,-0.277 -0.223,-0.5 -0.5,-0.5 l -0.5,0 0,-2 c 0,-0.5454 -0.454649,-1 -1,-1 l -2,0 z m 0,1 2,0 0,2 -2,0 0,-2 z"
       id="rect3929"
       inkscape:connector-curvature="0" />
  </g>
</svg>
