<?xml version="1.0" encoding="UTF-8" standalone="no"?>
<!-- Created with Inkscape (http://www.inkscape.org/) -->

<svg
   xmlns:dc="http://purl.org/dc/elements/1.1/"
   xmlns:cc="http://creativecommons.org/ns#"
   xmlns:rdf="http://www.w3.org/1999/02/22-rdf-syntax-ns#"
   xmlns:svg="http://www.w3.org/2000/svg"
   xmlns="http://www.w3.org/2000/svg"
   xmlns:sodipodi="http://sodipodi.sourceforge.net/DTD/sodipodi-0.dtd"
   xmlns:inkscape="http://www.inkscape.org/namespaces/inkscape"
   width="16"
   height="16"
   id="svg2"
   version="1.1"
   inkscape:version="0.48.4 r9939"
   sodipodi:docname="microphone-senstivity-low-symbolic.svg">
  <defs
     id="defs4" />
  <sodipodi:namedview
     id="base"
     pagecolor="#ffffff"
     bordercolor="#666666"
     borderopacity="1.0"
     inkscape:pageopacity="0.0"
     inkscape:pageshadow="2"
     inkscape:zoom="32"
     inkscape:cx="6.0860139"
     inkscape:cy="3.1749911"
     inkscape:document-units="px"
     inkscape:current-layer="layer1"
     showgrid="false"
     inkscape:window-width="1280"
     inkscape:window-height="750"
     inkscape:window-x="0"
     inkscape:window-y="24"
     inkscape:window-maximized="1"
     showguides="true"
     inkscape:guide-bbox="true" />
  <metadata
     id="metadata7">
    <rdf:RDF>
      <cc:Work
         rdf:about="">
        <dc:format>image/svg+xml</dc:format>
        <dc:type
           rdf:resource="http://purl.org/dc/dcmitype/StillImage" />
        <dc:title></dc:title>
      </cc:Work>
    </rdf:RDF>
  </metadata>
  <g
     inkscape:label="Livello 1"
     inkscape:groupmode="layer"
     id="layer1"
     transform="translate(0,-1036.3622)">
    <path
       style="fill:#bebebe;fill-opacity:1;stroke:none;opacity:0.35"
       d="M 1 8 L 1 9.5 C 1 11.270747 2.2972961 12.729487 4 12.96875 L 4 14 L 2 14 L 2 15 L 4 15 L 5 15 L 7 15 L 7 14 L 5 14 L 5 12.96875 C 6.7027039 12.729487 8 11.270747 8 9.5 L 8 8 L 7 8 L 7 9.5 C 7 10.885 5.885 12 4.5 12 C 3.115 12 2 10.885 2 9.5 L 2 8 L 1 8 z "
       transform="translate(0,1036.3622)"
       id="rect2993" />
    <rect
       style="opacity:0.35;fill:#bebebe;fill-opacity:1;stroke:none"
       id="rect2991"
       width="3"
       height="7"
       x="3.0000005"
       y="1040.3624"
       rx="1.5"
       ry="1.5" />
    <rect
       style="fill:#bebebe;fill-opacity:1;stroke:none;opacity:0.35"
       id="rect2989"
       width="5.0000005"
       height="2"
       x="10.000001"
       y="1049.3621" />
  </g>
</svg>
