<?xml version="1.0" encoding="UTF-8" standalone="no"?>
<!-- Created with Inkscape (http://www.inkscape.org/) -->

<svg
   xmlns:dc="http://purl.org/dc/elements/1.1/"
   xmlns:cc="http://creativecommons.org/ns#"
   xmlns:rdf="http://www.w3.org/1999/02/22-rdf-syntax-ns#"
   xmlns:svg="http://www.w3.org/2000/svg"
   xmlns="http://www.w3.org/2000/svg"
   xmlns:sodipodi="http://sodipodi.sourceforge.net/DTD/sodipodi-0.dtd"
   xmlns:inkscape="http://www.inkscape.org/namespaces/inkscape"
   width="16"
   height="16"
   id="svg2"
   version="1.1"
   inkscape:version="0.48.3.1 r9886"
   sodipodi:docname="network-wireless-acquiring-symbolic.svg">
  <defs
     id="defs4" />
  <sodipodi:namedview
     id="base"
     pagecolor="#ffffff"
     bordercolor="#666666"
     borderopacity="1.0"
     inkscape:pageopacity="0.0"
     inkscape:pageshadow="2"
     inkscape:zoom="22.627417"
     inkscape:cx="2.1557059"
     inkscape:cy="4.2288407"
     inkscape:document-units="px"
     inkscape:current-layer="layer1"
     showgrid="false"
     inkscape:window-width="1280"
     inkscape:window-height="749"
     inkscape:window-x="0"
     inkscape:window-y="24"
     inkscape:window-maximized="1"
     showguides="true"
     inkscape:guide-bbox="true" />
  <metadata
     id="metadata7">
    <rdf:RDF>
      <cc:Work
         rdf:about="">
        <dc:format>image/svg+xml</dc:format>
        <dc:type
           rdf:resource="http://purl.org/dc/dcmitype/StillImage" />
        <dc:title />
      </cc:Work>
    </rdf:RDF>
  </metadata>
  <g
     inkscape:label="Livello 1"
     inkscape:groupmode="layer"
     id="layer1"
     transform="translate(0,-1036.3622)">
    <path
       style="opacity:0.35;fill:#bebebe;fill-opacity:1;stroke:none"
       d="M 4.5 1 C 2.5670026 1 1 2.5670026 1 4.5 C 1 6.2652654 2.3009983 7.728659 4 7.96875 L 4 11 L 3 11 L 3 12 L 6 12 L 6 11 L 5 11 L 5 7.96875 C 6.6990017 7.728659 8 6.2652654 8 4.5 C 8 2.5670026 6.4329974 1 4.5 1 z M 4.5 2 C 5.880712 2 7 3.119288 7 4.5 C 7 5.708123 6.1392079 6.7043844 5 6.9375 L 5 5.90625 C 5.586412 5.7024102 6 5.1558382 6 4.5 C 6 3.6715728 5.3284272 3 4.5 3 C 3.6715728 3 3 3.6715728 3 4.5 C 3 5.1558382 3.413588 5.7024102 4 5.90625 L 4 6.9375 C 2.8607921 6.7043844 2 5.708123 2 4.5 C 2 3.119288 3.119288 2 4.5 2 z "
       transform="translate(0,1036.3622)"
       id="path3767" />
    <rect
       y="1046.3624"
       x="10.000001"
       height="2"
       width="5.0000005"
       id="rect2990"
       style="fill:#bebebe;fill-opacity:1;stroke:none;opacity:0.35" />
    <rect
       style="fill:#bebebe;fill-opacity:1;stroke:none;opacity:0.35"
       id="rect2992"
       width="5.0000005"
       height="2"
       x="10.000001"
       y="1043.3627" />
    <rect
       y="1040.3624"
       x="10.000001"
       height="2"
       width="5.0000005"
       id="rect2994"
       style="fill:#bebebe;fill-opacity:1;stroke:none;opacity:0.35" />
    <rect
       style="fill:#bebebe;fill-opacity:1;stroke:none"
       id="rect2995"
       width="2"
       height="2"
       x="4.0000005"
       y="1049.3619" />
    <rect
       y="1049.3619"
       x="7.0000005"
       height="2"
       width="2"
       id="rect2997"
       style="fill:#bebebe;fill-opacity:1;stroke:none" />
    <rect
       style="fill:#bebebe;fill-opacity:1;stroke:none"
       id="rect2999"
       width="2"
       height="2"
       x="9.9999962"
       y="1049.3619" />
  </g>
</svg>
