<?xml version="1.0" encoding="UTF-8" standalone="no"?>
<!-- Created with Inkscape (http://www.inkscape.org/) -->

<svg
   xmlns:dc="http://purl.org/dc/elements/1.1/"
   xmlns:cc="http://creativecommons.org/ns#"
   xmlns:rdf="http://www.w3.org/1999/02/22-rdf-syntax-ns#"
   xmlns:svg="http://www.w3.org/2000/svg"
   xmlns="http://www.w3.org/2000/svg"
   xmlns:sodipodi="http://sodipodi.sourceforge.net/DTD/sodipodi-0.dtd"
   xmlns:inkscape="http://www.inkscape.org/namespaces/inkscape"
   width="16"
   height="16"
   id="svg2"
   version="1.1"
   inkscape:version="0.48.3.1 r9886"
   sodipodi:docname="network-wireless-signal-none-symbolic.svg">
  <defs
     id="defs4" />
  <sodipodi:namedview
     id="base"
     pagecolor="#ffffff"
     bordercolor="#666666"
     borderopacity="1.0"
     inkscape:pageopacity="0.0"
     inkscape:pageshadow="2"
     inkscape:zoom="32"
     inkscape:cx="2.9151807"
     inkscape:cy="5.1525863"
     inkscape:document-units="px"
     inkscape:current-layer="layer1"
     showgrid="false"
     inkscape:window-width="1280"
     inkscape:window-height="749"
     inkscape:window-x="0"
     inkscape:window-y="24"
     inkscape:window-maximized="1"
     showguides="true"
     inkscape:guide-bbox="true" />
  <metadata
     id="metadata7">
    <rdf:RDF>
      <cc:Work
         rdf:about="">
        <dc:format>image/svg+xml</dc:format>
        <dc:type
           rdf:resource="http://purl.org/dc/dcmitype/StillImage" />
        <dc:title />
      </cc:Work>
    </rdf:RDF>
  </metadata>
  <g
     inkscape:label="Livello 1"
     inkscape:groupmode="layer"
     id="layer1"
     transform="translate(0,-1036.3622)">
    <path
       style="fill:#bebebe;fill-opacity:1;stroke:none"
       d="m 10,1047.3622 1.5,1.5 -1.5,1.5 1,1 1.5,-1.5001 1.5,1.5001 1,-1 -1.5,-1.5 1.5,-1.5 -1,-1 -1.5,1.5001 -1.5,-1.5001 z"
       id="rect4100-1"
       inkscape:connector-curvature="0"
       sodipodi:nodetypes="ccccccccccccc" />
    <path
       style="fill:#bebebe;fill-opacity:1;fill-rule:nonzero;stroke:none;opacity:0.35"
       d="M 4.5 3 C 3.6715728 3 3 3.6715728 3 4.5 C 3 5.1558382 3.413588 5.7024102 4 5.90625 L 4 11 L 3 11 L 3 14 L 2 14 L 2 15 L 4 15 L 5 15 L 7 15 L 7 14 L 6 14 L 6 11 L 5 11 L 5 5.90625 C 5.586412 5.7024102 6 5.1558382 6 4.5 C 6 3.6715728 5.3284272 3 4.5 3 z "
       transform="translate(0,1036.3622)"
       id="rect2991" />
  </g>
</svg>
