<?xml version="1.0" encoding="UTF-8" standalone="no"?>
<!-- Created with Inkscape (http://www.inkscape.org/) -->

<svg
   xmlns:dc="http://purl.org/dc/elements/1.1/"
   xmlns:cc="http://creativecommons.org/ns#"
   xmlns:rdf="http://www.w3.org/1999/02/22-rdf-syntax-ns#"
   xmlns:svg="http://www.w3.org/2000/svg"
   xmlns="http://www.w3.org/2000/svg"
   xmlns:xlink="http://www.w3.org/1999/xlink"
   xmlns:sodipodi="http://sodipodi.sourceforge.net/DTD/sodipodi-0.dtd"
   xmlns:inkscape="http://www.inkscape.org/namespaces/inkscape"
   width="16"
   height="16"
   id="svg2"
   version="1.1"
   inkscape:version="0.48.3.1 r9886"
   sodipodi:docname="user-offline-symbolic.svg">
  <defs
     id="defs4">
    <linearGradient
       id="linearGradient4303">
      <stop
         style="stop-color:#969696;stop-opacity:1;"
         offset="0"
         id="stop4305" />
      <stop
         style="stop-color:#333333;stop-opacity:1;"
         offset="1"
         id="stop4307" />
    </linearGradient>
    <linearGradient
       id="linearGradient4295">
      <stop
         style="stop-color:#646464;stop-opacity:1;"
         offset="0"
         id="stop4297" />
      <stop
         style="stop-color:#c8c8c8;stop-opacity:1;"
         offset="1"
         id="stop4299" />
    </linearGradient>
    <linearGradient
       inkscape:collect="always"
       xlink:href="#linearGradient4295"
       id="linearGradient4301"
       x1="8.2187519"
       y1="1039.3745"
       x2="8.2187519"
       y2="1049.3507"
       gradientUnits="userSpaceOnUse"
       gradientTransform="translate(-0.5,-1036.8622)" />
  </defs>
  <sodipodi:namedview
     id="base"
     pagecolor="#ffffff"
     bordercolor="#666666"
     borderopacity="1.0"
     inkscape:pageopacity="0.0"
     inkscape:pageshadow="2"
     inkscape:zoom="32"
     inkscape:cx="8.2863061"
     inkscape:cy="7.4078635"
     inkscape:document-units="px"
     inkscape:current-layer="layer1"
     showgrid="false"
     inkscape:window-width="1280"
     inkscape:window-height="751"
     inkscape:window-x="0"
     inkscape:window-y="24"
     inkscape:window-maximized="1" />
  <metadata
     id="metadata7">
    <rdf:RDF>
      <cc:Work
         rdf:about="">
        <dc:format>image/svg+xml</dc:format>
        <dc:type
           rdf:resource="http://purl.org/dc/dcmitype/StillImage" />
        <dc:title />
      </cc:Work>
    </rdf:RDF>
  </metadata>
  <g
     inkscape:label="Livello 1"
     inkscape:groupmode="layer"
     id="layer1"
     transform="translate(0,-1036.3622)">
    <path
       style="opacity:0.6;fill:#bebebe;fill-opacity:1;stroke:none"
       d="M 3,2 C 2.446,2 2,2.446 2,3 l 0,7 c 0,0.554 0.446,1 1,1 l 2,0 3,3 3,-3 2,0 c 0.554,0 1,-0.446 1,-1 L 14,3 C 14,2.446 13.554,2 13,2 z m 2.875,1.156375 c 0.1278096,0 0.2458158,0.05805 0.34375,0.15625 L 8,5.093875 9.78125,3.312625 c 0.1958685,-0.1958 0.491631,-0.1958 0.6875,0 l 0.71875,0.71875 c 0.195868,0.1959 0.195868,0.4917 0,0.6875 l -1.78125,1.78125 1.78125,1.78125 c 0.195868,0.1958 0.195868,0.4916 0,0.6875 l -0.71875,0.71875 c -0.195869,0.1958 -0.4916315,0.1958 -0.6875,0 L 8,7.906375 6.21875,9.687625 c -0.1958685,0.1958 -0.4916315,0.1958 -0.6875,0 L 4.8125,8.968875 c -0.1958686,-0.1959 -0.1958686,-0.4917 0,-0.6875 L 6.59375,6.500125 4.8125,4.718875 c -0.1958686,-0.1958 -0.1958686,-0.4916 0,-0.6875 l 0.71875,-0.71875 c 0.097934,-0.098 0.2159404,-0.15625 0.34375,-0.15625 z"
       transform="translate(0,1036.3622)"
       id="rect3017"
       inkscape:connector-curvature="0"
       sodipodi:nodetypes="sssscccssssssccccccccccccccccccccs" />
  </g>
</svg>
