<?xml version="1.0" encoding="UTF-8" standalone="no"?>
<!-- Created with Inkscape (http://www.inkscape.org/) -->

<svg
   xmlns:dc="http://purl.org/dc/elements/1.1/"
   xmlns:cc="http://creativecommons.org/ns#"
   xmlns:rdf="http://www.w3.org/1999/02/22-rdf-syntax-ns#"
   xmlns:svg="http://www.w3.org/2000/svg"
   xmlns="http://www.w3.org/2000/svg"
   xmlns:sodipodi="http://sodipodi.sourceforge.net/DTD/sodipodi-0.dtd"
   xmlns:inkscape="http://www.inkscape.org/namespaces/inkscape"
   width="16"
   height="16"
   id="svg2"
   version="1.1"
   inkscape:version="0.48.4 r9939"
   sodipodi:docname="weather-clear-symbolic.svg">
  <defs
     id="defs4" />
  <sodipodi:namedview
     id="base"
     pagecolor="#ffffff"
     bordercolor="#666666"
     borderopacity="1.0"
     inkscape:pageopacity="0.0"
     inkscape:pageshadow="2"
     inkscape:zoom="15.839192"
     inkscape:cx="2.3794373"
     inkscape:cy="2.2357836"
     inkscape:document-units="px"
     inkscape:current-layer="layer1"
     showgrid="false"
     inkscape:window-width="1280"
     inkscape:window-height="748"
     inkscape:window-x="0"
     inkscape:window-y="26"
     inkscape:window-maximized="1" />
  <metadata
     id="metadata7">
    <rdf:RDF>
      <cc:Work
         rdf:about="">
        <dc:format>image/svg+xml</dc:format>
        <dc:type
           rdf:resource="http://purl.org/dc/dcmitype/StillImage" />
        <dc:title />
      </cc:Work>
    </rdf:RDF>
  </metadata>
  <g
     inkscape:label="Livello 1"
     inkscape:groupmode="layer"
     id="layer1"
     transform="translate(0,-1036.3622)">
    <path
       style="fill:#bebebe;fill-opacity:1;stroke:none"
       d="M 8 5 C 6.3431458 5 5 6.3431458 5 8 C 5 9.6568542 6.3431458 11 8 11 C 9.6568542 11 11 9.6568542 11 8 C 11 6.3431458 9.6568542 5 8 5 z M 8 6 C 9.1045694 6 10 6.8954306 10 8 C 10 9.1045694 9.1045694 10 8 10 C 6.8954306 10 6 9.1045694 6 8 C 6 6.8954306 6.8954306 6 8 6 z "
       transform="translate(0,1036.3622)"
       id="path2995" />
    <rect
       style="opacity:1;fill:#bebebe;fill-opacity:1;stroke:none"
       id="rect2985"
       width="1"
       height="2"
       x="7.5"
       y="1038.3622" />
    <rect
       y="1048.3622"
       x="7.5"
       height="2"
       width="1"
       id="rect3755"
       style="fill:#bebebe;fill-opacity:1;stroke:none" />
    <g
       id="g3761"
       transform="translate(16,0)">
      <rect
         transform="matrix(0,-1,1,0,0,0)"
         style="fill:#bebebe;fill-opacity:1;stroke:none"
         id="rect3757"
         width="1"
         height="2"
         x="-1044.8622"
         y="-14" />
      <rect
         y="-4"
         x="-1044.8622"
         height="2"
         width="1"
         id="rect3759"
         style="fill:#bebebe;fill-opacity:1;stroke:none"
         transform="matrix(0,-1,1,0,0,0)" />
    </g>
    <g
       transform="matrix(0.70710678,-0.70710678,0.70710678,0.70710678,-724.81873,300.22975)"
       id="g3765">
      <rect
         y="-14"
         x="-1044.8622"
         height="2"
         width="1"
         id="rect3767"
         style="fill:#bebebe;fill-opacity:1;stroke:none"
         transform="matrix(0,-1,1,0,0,0)" />
      <rect
         transform="matrix(0,-1,1,0,0,0)"
         style="fill:#bebebe;fill-opacity:1;stroke:none"
         id="rect3769"
         width="1"
         height="2"
         x="-1044.8622"
         y="-4" />
    </g>
    <g
       id="g3771"
       transform="matrix(-0.70710678,-0.70710678,0.70710678,-0.70710678,-736.13245,1777.1809)">
      <rect
         transform="matrix(0,-1,1,0,0,0)"
         style="fill:#bebebe;fill-opacity:1;stroke:none"
         id="rect3773"
         width="1"
         height="2"
         x="-1044.8622"
         y="-14" />
      <rect
         y="-4"
         x="-1044.8622"
         height="2"
         width="1"
         id="rect3775"
         style="fill:#bebebe;fill-opacity:1;stroke:none"
         transform="matrix(0,-1,1,0,0,0)" />
    </g>
  </g>
</svg>
