<?xml version="1.0" encoding="UTF-8" standalone="no"?>
<!-- Created with Inkscape (http://www.inkscape.org/) -->

<svg
   xmlns:dc="http://purl.org/dc/elements/1.1/"
   xmlns:cc="http://creativecommons.org/ns#"
   xmlns:rdf="http://www.w3.org/1999/02/22-rdf-syntax-ns#"
   xmlns:svg="http://www.w3.org/2000/svg"
   xmlns="http://www.w3.org/2000/svg"
   xmlns:sodipodi="http://sodipodi.sourceforge.net/DTD/sodipodi-0.dtd"
   xmlns:inkscape="http://www.inkscape.org/namespaces/inkscape"
   width="16"
   height="16"
   id="svg3865"
   version="1.1"
   inkscape:version="0.48.3.1 r9886"
   sodipodi:docname="Nuovo documento 6">
  <defs
     id="defs3867" />
  <sodipodi:namedview
     id="base"
     pagecolor="#ffffff"
     bordercolor="#666666"
     borderopacity="1.0"
     inkscape:pageopacity="0.0"
     inkscape:pageshadow="2"
     inkscape:zoom="11.2"
     inkscape:cx="4.1305784"
     inkscape:cy="-3.4887977"
     inkscape:document-units="px"
     inkscape:current-layer="layer1"
     showgrid="false"
     inkscape:window-width="1280"
     inkscape:window-height="751"
     inkscape:window-x="0"
     inkscape:window-y="24"
     inkscape:window-maximized="1" />
  <metadata
     id="metadata3870">
    <rdf:RDF>
      <cc:Work
         rdf:about="">
        <dc:format>image/svg+xml</dc:format>
        <dc:type
           rdf:resource="http://purl.org/dc/dcmitype/StillImage" />
        <dc:title></dc:title>
      </cc:Work>
    </rdf:RDF>
  </metadata>
  <g
     inkscape:label="Livello 1"
     inkscape:groupmode="layer"
     id="layer1"
     transform="translate(0,-1036.3622)">
    <path
       style="fill:#bebebe;fill-opacity:1;stroke:none"
       d="M 0 3 L 0 15 L 16 15 L 16 3 L 0 3 z M 8 5 C 10.209139 5 12 6.7908609 12 9 C 12 11.209139 10.209139 13 8 13 C 5.7908609 13 4 11.209139 4 9 C 4 6.7908609 5.7908609 5 8 5 z "
       transform="translate(0,1036.3622)"
       id="rect3873" />
    <rect
       style="fill:#bebebe;fill-opacity:1;stroke:none"
       id="rect3875"
       width="5"
       height="2.000001"
       x="2.0000002"
       y="1037.3619" />
    <path
       transform="matrix(0.69999998,0,0,0.69999998,2.7187501,1039.131)"
       d="m 10.401786,8.9017859 a 2.8571429,2.8571429 0 1 1 -5.714286,0 2.8571429,2.8571429 0 1 1 5.714286,0 z"
       sodipodi:ry="2.8571429"
       sodipodi:rx="2.8571429"
       sodipodi:cy="8.9017859"
       sodipodi:cx="7.5446429"
       id="path4387"
       style="fill:#bebebe;fill-opacity:1;stroke:none"
       sodipodi:type="arc" />
  </g>
</svg>
