<?xml version="1.0" encoding="UTF-8" standalone="no"?>
<!-- Created with Inkscape (http://www.inkscape.org/) -->

<svg
   xmlns:dc="http://purl.org/dc/elements/1.1/"
   xmlns:cc="http://creativecommons.org/ns#"
   xmlns:rdf="http://www.w3.org/1999/02/22-rdf-syntax-ns#"
   xmlns:svg="http://www.w3.org/2000/svg"
   xmlns="http://www.w3.org/2000/svg"
   xmlns:xlink="http://www.w3.org/1999/xlink"
   xmlns:sodipodi="http://sodipodi.sourceforge.net/DTD/sodipodi-0.dtd"
   xmlns:inkscape="http://www.inkscape.org/namespaces/inkscape"
   width="96"
   height="96"
   id="svg2"
   version="1.1"
   inkscape:version="0.48.3.1 r9886"
   sodipodi:docname="drive-harddisk-usb2.svg"
   inkscape:export-filename="/home/andrea/.icons/Matrilineare/devices/96/drive-harddisk.png"
   inkscape:export-xdpi="90"
   inkscape:export-ydpi="90">
  <defs
     id="defs4">
    <linearGradient
       id="linearGradient4142">
      <stop
         style="stop-color:#232323;stop-opacity:1;"
         offset="0"
         id="stop4144" />
      <stop
         style="stop-color:#3c3c3c;stop-opacity:1;"
         offset="1"
         id="stop4146" />
    </linearGradient>
    <linearGradient
       id="linearGradient3999">
      <stop
         style="stop-color:#e0fa3b;stop-opacity:1;"
         offset="0"
         id="stop4001" />
      <stop
         style="stop-color:#428b1b;stop-opacity:1;"
         offset="1"
         id="stop4003" />
    </linearGradient>
    <linearGradient
       id="linearGradient3909">
      <stop
         id="stop3911"
         offset="0"
         style="stop-color:#232323;stop-opacity:1;" />
      <stop
         id="stop3913"
         offset="1"
         style="stop-color:#333333;stop-opacity:1;" />
    </linearGradient>
    <linearGradient
       id="linearGradient3901">
      <stop
         id="stop3903"
         offset="0"
         style="stop-color:#a0a0a0;stop-opacity:1;" />
      <stop
         id="stop3905"
         offset="1"
         style="stop-color:#505050;stop-opacity:1;" />
    </linearGradient>
    <linearGradient
       id="linearGradient3891">
      <stop
         id="stop3893"
         offset="0"
         style="stop-color:#c8c8c8;stop-opacity:1;" />
      <stop
         id="stop3895"
         offset="1"
         style="stop-color:#787878;stop-opacity:1;" />
    </linearGradient>
    <linearGradient
       id="linearGradient3835">
      <stop
         style="stop-color:#505050;stop-opacity:1;"
         offset="0"
         id="stop3837" />
      <stop
         style="stop-color:#141414;stop-opacity:1;"
         offset="1"
         id="stop3839" />
    </linearGradient>
    <linearGradient
       id="linearGradient3953">
      <stop
         style="stop-color:#333333;stop-opacity:1;"
         offset="0"
         id="stop3955" />
      <stop
         style="stop-color:#c8c8c8;stop-opacity:1;"
         offset="1"
         id="stop3957" />
    </linearGradient>
    <linearGradient
       id="linearGradient3799">
      <stop
         style="stop-color:#aaaaaa;stop-opacity:1;"
         offset="0"
         id="stop3801" />
      <stop
         style="stop-color:#f0f0f0;stop-opacity:1;"
         offset="1"
         id="stop3803" />
    </linearGradient>
    <linearGradient
       id="linearGradient3826">
      <stop
         style="stop-color:#505050;stop-opacity:1;"
         offset="0"
         id="stop3828" />
      <stop
         style="stop-color:#969696;stop-opacity:1;"
         offset="1"
         id="stop3830" />
    </linearGradient>
    <linearGradient
       id="linearGradient3808">
      <stop
         style="stop-color:#646464;stop-opacity:1;"
         offset="0"
         id="stop3810" />
      <stop
         id="stop3822"
         offset="0.0625"
         style="stop-color:#e6e6e6;stop-opacity:1;" />
      <stop
         id="stop3820"
         offset="0.39016503"
         style="stop-color:#c8c8c8;stop-opacity:1;" />
      <stop
         id="stop3818"
         offset="0.60355341"
         style="stop-color:#c8c8c8;stop-opacity:1;" />
      <stop
         id="stop3816"
         offset="0.92457974"
         style="stop-color:#e6e6e6;stop-opacity:1;" />
      <stop
         style="stop-color:#646464;stop-opacity:1;"
         offset="1"
         id="stop3812" />
    </linearGradient>
    <linearGradient
       id="linearGradient3800">
      <stop
         style="stop-color:#3c3c3c;stop-opacity:1;"
         offset="0"
         id="stop3802" />
      <stop
         style="stop-color:#787878;stop-opacity:1;"
         offset="1"
         id="stop3804" />
    </linearGradient>
    <linearGradient
       id="linearGradient3817">
      <stop
         style="stop-color:#ffffff;stop-opacity:0.627451;"
         offset="0"
         id="stop3819" />
      <stop
         id="stop3827"
         offset="0.05455951"
         style="stop-color:#ffffff;stop-opacity:0.23529412;" />
      <stop
         id="stop3825"
         offset="0.95526141"
         style="stop-color:#ffffff;stop-opacity:0.15686275;" />
      <stop
         style="stop-color:#ffffff;stop-opacity:0.88235295;"
         offset="1"
         id="stop3821" />
    </linearGradient>
    <radialGradient
       cx="4.9929786"
       cy="43.5"
       r="2.5"
       fx="4.9929786"
       fy="43.5"
       id="radialGradient2873-966-168"
       xlink:href="#linearGradient3688-166-749"
       gradientUnits="userSpaceOnUse"
       gradientTransform="matrix(2.003784,0,0,1.4,27.98813,-17.4)" />
    <linearGradient
       id="linearGradient3688-166-749">
      <stop
         id="stop2883"
         style="stop-color:#181818;stop-opacity:1"
         offset="0" />
      <stop
         id="stop2885"
         style="stop-color:#181818;stop-opacity:0"
         offset="1" />
    </linearGradient>
    <radialGradient
       cx="4.9929786"
       cy="43.5"
       r="2.5"
       fx="4.9929786"
       fy="43.5"
       id="radialGradient2875-742-326"
       xlink:href="#linearGradient3688-464-309"
       gradientUnits="userSpaceOnUse"
       gradientTransform="matrix(2.003784,0,0,1.4,-20.01187,-104.4)" />
    <linearGradient
       id="linearGradient3688-464-309">
      <stop
         id="stop2889"
         style="stop-color:#181818;stop-opacity:1"
         offset="0" />
      <stop
         id="stop2891"
         style="stop-color:#181818;stop-opacity:0"
         offset="1" />
    </linearGradient>
    <linearGradient
       x1="25.058096"
       y1="47.027729"
       x2="25.058096"
       y2="39.999443"
       id="linearGradient2877-634-617"
       xlink:href="#linearGradient3702-501-757"
       gradientUnits="userSpaceOnUse" />
    <linearGradient
       id="linearGradient3702-501-757">
      <stop
         id="stop2895"
         style="stop-color:#181818;stop-opacity:0"
         offset="0" />
      <stop
         id="stop2897"
         style="stop-color:#181818;stop-opacity:1"
         offset="0.5" />
      <stop
         id="stop2899"
         style="stop-color:#181818;stop-opacity:0"
         offset="1" />
    </linearGradient>
    <linearGradient
       inkscape:collect="always"
       xlink:href="#linearGradient3817"
       id="linearGradient3823"
       x1="47.214287"
       y1="965.25507"
       x2="47.214287"
       y2="1027.2001"
       gradientUnits="userSpaceOnUse" />
    <linearGradient
       inkscape:collect="always"
       xlink:href="#linearGradient3800"
       id="linearGradient3806"
       x1="46.583744"
       y1="1043.2562"
       x2="46.583744"
       y2="964.71368"
       gradientUnits="userSpaceOnUse" />
    <linearGradient
       inkscape:collect="always"
       xlink:href="#linearGradient3808"
       id="linearGradient3814"
       x1="8"
       y1="1004.3622"
       x2="88"
       y2="1004.3622"
       gradientUnits="userSpaceOnUse" />
    <radialGradient
       inkscape:collect="always"
       xlink:href="#linearGradient3826"
       id="radialGradient3834"
       cx="49.010151"
       cy="967.7605"
       fx="49.010151"
       fy="967.7605"
       r="40"
       gradientTransform="matrix(3.4503109e-7,1.8511664,-2.1001017,3.9142909e-7,2081.4056,881.62443)"
       gradientUnits="userSpaceOnUse" />
    <linearGradient
       inkscape:collect="always"
       xlink:href="#linearGradient3800"
       id="linearGradient3836"
       gradientUnits="userSpaceOnUse"
       x1="21.835007"
       y1="1034.1185"
       x2="21.835007"
       y2="964.46112" />
    <linearGradient
       inkscape:collect="always"
       xlink:href="#linearGradient3953"
       id="linearGradient3977"
       gradientUnits="userSpaceOnUse"
       gradientTransform="translate(-3.8e-7,-1)"
       x1="24.874722"
       y1="1038.3622"
       x2="49.560608"
       y2="1038.3622" />
    <linearGradient
       inkscape:collect="always"
       xlink:href="#linearGradient3835"
       id="linearGradient3841"
       x1="36.125008"
       y1="1041.3004"
       x2="36.125008"
       y2="1035.4247"
       gradientUnits="userSpaceOnUse" />
    <linearGradient
       inkscape:collect="always"
       xlink:href="#linearGradient3835"
       id="linearGradient3845"
       gradientUnits="userSpaceOnUse"
       x1="36.125008"
       y1="1041.3004"
       x2="36.125008"
       y2="1035.4247"
       gradientTransform="translate(-4,0)" />
    <linearGradient
       inkscape:collect="always"
       xlink:href="#linearGradient3835"
       id="linearGradient3849"
       gradientUnits="userSpaceOnUse"
       gradientTransform="translate(-8,0)"
       x1="36.125008"
       y1="1041.3004"
       x2="36.125008"
       y2="1035.4247" />
    <linearGradient
       inkscape:collect="always"
       xlink:href="#linearGradient3835"
       id="linearGradient3853"
       gradientUnits="userSpaceOnUse"
       gradientTransform="translate(-12,0)"
       x1="36.125008"
       y1="1041.3004"
       x2="36.125008"
       y2="1035.4247" />
    <linearGradient
       inkscape:collect="always"
       xlink:href="#linearGradient3835"
       id="linearGradient3857"
       gradientUnits="userSpaceOnUse"
       gradientTransform="translate(-16,0)"
       x1="36.125008"
       y1="1041.3004"
       x2="36.125008"
       y2="1035.4247" />
    <linearGradient
       inkscape:collect="always"
       xlink:href="#linearGradient3835"
       id="linearGradient3861"
       gradientUnits="userSpaceOnUse"
       gradientTransform="translate(-20,0)"
       x1="36.125008"
       y1="1041.3004"
       x2="36.125008"
       y2="1035.4247" />
    <radialGradient
       inkscape:collect="always"
       xlink:href="#linearGradient3826"
       id="radialGradient3865"
       gradientUnits="userSpaceOnUse"
       gradientTransform="matrix(3.4503109e-7,1.8511664,-2.1001017,3.9142909e-7,2082.4056,881.62443)"
       cx="49.010151"
       cy="967.7605"
       fx="49.010151"
       fy="967.7605"
       r="40" />
    <radialGradient
       inkscape:collect="always"
       xlink:href="#linearGradient3826"
       id="radialGradient3882"
       gradientUnits="userSpaceOnUse"
       gradientTransform="matrix(3.4503109e-7,1.8511664,-2.1001017,3.9142909e-7,2081.4056,-74.73775)"
       cx="49.010151"
       cy="967.7605"
       fx="49.010151"
       fy="967.7605"
       r="40" />
    <linearGradient
       inkscape:collect="always"
       xlink:href="#linearGradient3800"
       id="linearGradient3884"
       gradientUnits="userSpaceOnUse"
       x1="21.835007"
       y1="1034.1185"
       x2="21.835007"
       y2="964.46112"
       gradientTransform="translate(0,-956.36218)" />
    <linearGradient
       inkscape:collect="always"
       xlink:href="#linearGradient3817"
       id="linearGradient3899"
       gradientUnits="userSpaceOnUse"
       x1="47.214287"
       y1="965.25507"
       x2="47.214287"
       y2="1027.2686" />
    <radialGradient
       inkscape:collect="always"
       xlink:href="#linearGradient3901"
       id="radialGradient3907"
       gradientUnits="userSpaceOnUse"
       gradientTransform="matrix(3.4503109e-7,1.8511664,-2.1001017,3.9142909e-7,2081.4056,-74.73775)"
       cx="49.010151"
       cy="967.7605"
       fx="49.010151"
       fy="967.7605"
       r="40" />
    <linearGradient
       inkscape:collect="always"
       xlink:href="#linearGradient3909"
       id="linearGradient3915"
       gradientUnits="userSpaceOnUse"
       x1="21.835007"
       y1="1034.1185"
       x2="21.835007"
       y2="964.46112" />
    <linearGradient
       inkscape:collect="always"
       xlink:href="#linearGradient3826"
       id="linearGradient3919"
       x1="46.25"
       y1="966.36218"
       x2="46.25"
       y2="1026.6251"
       gradientUnits="userSpaceOnUse" />
    <radialGradient
       inkscape:collect="always"
       xlink:href="#linearGradient3999"
       id="radialGradient4005"
       cx="68.25"
       cy="82.5"
       fx="68.25"
       fy="82.5"
       r="2.125"
       gradientUnits="userSpaceOnUse" />
    <linearGradient
       inkscape:collect="always"
       xlink:href="#linearGradient4142"
       id="linearGradient4148"
       x1="47.500008"
       y1="978.36218"
       x2="47.500008"
       y2="1014.6432"
       gradientUnits="userSpaceOnUse" />
  </defs>
  <sodipodi:namedview
     id="base"
     pagecolor="#ffffff"
     bordercolor="#666666"
     borderopacity="1.0"
     inkscape:pageopacity="0.0"
     inkscape:pageshadow="2"
     inkscape:zoom="4"
     inkscape:cx="40.997676"
     inkscape:cy="28.46509"
     inkscape:document-units="px"
     inkscape:current-layer="layer1"
     showgrid="false"
     inkscape:window-width="1280"
     inkscape:window-height="756"
     inkscape:window-x="0"
     inkscape:window-y="24"
     inkscape:window-maximized="1" />
  <metadata
     id="metadata7">
    <rdf:RDF>
      <cc:Work
         rdf:about="">
        <dc:format>image/svg+xml</dc:format>
        <dc:type
           rdf:resource="http://purl.org/dc/dcmitype/StillImage" />
        <dc:title />
      </cc:Work>
    </rdf:RDF>
  </metadata>
  <g
     inkscape:label="Livello 1"
     inkscape:groupmode="layer"
     id="layer1"
     transform="translate(0,-956.36218)">
    <g
       style="display:inline"
       id="g2036"
       transform="matrix(2.1999991,0,0,0.88888944,-4.8000008,1006.5844)">
      <g
         style="opacity:0.4"
         id="g3712"
         transform="matrix(1.052632,0,0,1.285713,-1.263158,-13.42854)">
        <rect
           style="fill:url(#radialGradient2873-966-168);fill-opacity:1;stroke:none"
           id="rect2801"
           y="40"
           x="38"
           height="7"
           width="5" />
        <rect
           style="fill:url(#radialGradient2875-742-326);fill-opacity:1;stroke:none"
           id="rect3696"
           transform="scale(-1,-1)"
           y="-47"
           x="-10"
           height="7"
           width="5" />
        <rect
           style="fill:url(#linearGradient2877-634-617);fill-opacity:1;stroke:none"
           id="rect3700"
           y="40"
           x="10"
           height="7.0000005"
           width="28" />
      </g>
    </g>
    <rect
       style="fill:url(#linearGradient3814);fill-opacity:1;stroke:url(#linearGradient3806);stroke-opacity:1"
       id="rect2985"
       width="79"
       height="79"
       x="8.5"
       y="964.86218"
       rx="3"
       ry="3" />
    <rect
       ry="0.5"
       rx="0.5"
       y="1036.3619"
       x="14.999998"
       height="6"
       width="2"
       id="rect3823"
       style="fill:#ffffff;fill-opacity:1;stroke:none;opacity:0.5" />
    <rect
       style="fill:#ffffff;fill-opacity:1;stroke:none;opacity:0.5"
       id="rect3825"
       width="2"
       height="6"
       x="18.99999"
       y="1036.3619"
       rx="0.5"
       ry="0.5" />
    <rect
       ry="0.5"
       rx="0.5"
       y="1036.3619"
       x="22.999994"
       height="6"
       width="2"
       id="rect3827"
       style="fill:#ffffff;fill-opacity:1;stroke:none;opacity:0.5" />
    <rect
       style="fill:#ffffff;fill-opacity:1;stroke:none;opacity:0.5"
       id="rect3829"
       width="2"
       height="6"
       x="26.999992"
       y="1036.3619"
       rx="0.5"
       ry="0.5" />
    <rect
       ry="0.5"
       rx="0.5"
       y="1036.3619"
       x="30.999998"
       height="6"
       width="2"
       id="rect3831"
       style="fill:#ffffff;fill-opacity:1;stroke:none;opacity:0.5" />
    <rect
       style="fill:#ffffff;fill-opacity:1;stroke:none;opacity:0.5"
       id="rect3833"
       width="2"
       height="6"
       x="35.000008"
       y="1036.3619"
       rx="0.5"
       ry="0.5" />
    <rect
       ry="0.5"
       rx="0.5"
       y="1035.3622"
       x="35.000008"
       height="6"
       width="2"
       id="rect3909"
       style="fill:url(#linearGradient3841);fill-opacity:1;stroke:none" />
    <rect
       ry="3"
       rx="3"
       y="964.86218"
       x="9.5000019"
       height="69"
       width="77"
       id="rect3824"
       style="opacity:0.75;fill:url(#radialGradient3865);fill-opacity:1;stroke:#ffffff;stroke-opacity:1" />
    <rect
       style="fill:url(#linearGradient3919);fill-opacity:1;stroke:url(#linearGradient3915);stroke-opacity:1"
       id="rect3863"
       width="79"
       height="68"
       x="8.5"
       y="964.86218"
       rx="3"
       ry="3" />
    <rect
       ry="2"
       rx="2"
       y="965.86218"
       x="9.5"
       height="61"
       width="77"
       id="rect3815"
       style="opacity:0.29999999999999999;fill:none;stroke:url(#linearGradient3899);stroke-opacity:1" />
    <rect
       style="fill:url(#linearGradient3845);fill-opacity:1;stroke:none"
       id="rect3843"
       width="2"
       height="6"
       x="31.000008"
       y="1035.3622"
       rx="0.5"
       ry="0.5" />
    <rect
       ry="0.5"
       rx="0.5"
       y="1035.3622"
       x="27.000008"
       height="6"
       width="2"
       id="rect3847"
       style="fill:url(#linearGradient3849);fill-opacity:1;stroke:none" />
    <rect
       style="fill:url(#linearGradient3853);fill-opacity:1;stroke:none"
       id="rect3851"
       width="2"
       height="6"
       x="23.000008"
       y="1035.3622"
       rx="0.5"
       ry="0.5" />
    <rect
       ry="0.5"
       rx="0.5"
       y="1035.3622"
       x="19.000008"
       height="6"
       width="2"
       id="rect3855"
       style="fill:url(#linearGradient3857);fill-opacity:1;stroke:none" />
    <rect
       style="fill:url(#linearGradient3861);fill-opacity:1;stroke:none"
       id="rect3859"
       width="2"
       height="6"
       x="15.000008"
       y="1035.3622"
       rx="0.5"
       ry="0.5" />
    <path
       style="fill:url(#radialGradient3907);fill-opacity:1;stroke:none"
       d="m 9,68 0,5.4 c 0,1.662 0.838,2.6 2.5,2.6 l 73,0 C 86.162,76 87,75.062 87,73.4 L 87,68 c 0,1.662 -1.338,3 -3,3 L 12,71 C 10.338,71 9,69.662 9,68 z"
       transform="translate(0,956.36218)"
       id="rect3880"
       inkscape:connector-curvature="0"
       sodipodi:nodetypes="csssscssc" />
    <path
       transform="matrix(0.94117647,0,0,0.94117647,9.7647059,961.71512)"
       d="m 70.375,82.5 a 2.125,2.125 0 1 1 -4.25,0 2.125,2.125 0 1 1 4.25,0 z"
       sodipodi:ry="2.125"
       sodipodi:rx="2.125"
       sodipodi:cy="82.5"
       sodipodi:cx="68.25"
       id="path4007"
       style="opacity:0.5;fill:#ffffff;fill-opacity:1;stroke:none"
       sodipodi:type="arc" />
    <path
       sodipodi:type="arc"
       style="fill:url(#radialGradient4005);fill-opacity:1;stroke:none"
       id="path3992"
       sodipodi:cx="68.25"
       sodipodi:cy="82.5"
       sodipodi:rx="2.125"
       sodipodi:ry="2.125"
       d="m 70.375,82.5 a 2.125,2.125 0 1 1 -4.25,0 2.125,2.125 0 1 1 4.25,0 z"
       transform="matrix(0.94117647,0,0,0.94117647,9.7647059,960.71512)" />
    <path
       style="opacity:0.2;fill:#000000;fill-opacity:1;stroke:none"
       d="m 74,1036.3622 c -1.104569,0 -2,0.8954 -2,2 0,1.1045 0.895431,2 2,2 1.104569,0 2,-0.8955 2,-2 0,-1.1046 -0.895431,-2 -2,-2 z m 0,0.5 c 0.828427,0 1.5,0.6716 1.5,1.5 0,0.8284 -0.671573,1.5 -1.5,1.5 -0.828427,0 -1.5,-0.6716 -1.5,-1.5 0,-0.8284 0.671573,-1.5 1.5,-1.5 z"
       id="path3994"
       inkscape:connector-curvature="0" />
    <path
       inkscape:connector-curvature="0"
       sodipodi:nodetypes="cccsccsssssscccsssccscccsssssssssscccsccccccccccccccccccccssc"
       id="path4150"
       d="m 38.000006,994.33206 c 0,1.0494 0.759171,1.9485 1.836259,2.352 l 0,2.62043 c 0,0.93681 0.569702,1.81891 1.254773,2.45441 0.0073,0.01 0.008,0.019 0.01531,0.026 0,0 0,0.013 0,0.013 1.3e-5,0 0.03057,0.039 0.03062,0.039 1.31e-4,10e-5 0.02638,0.035 0.03063,0.039 0.0044,0.01 0.01269,0 0.01531,0 0.0025,0 -0.0025,0.011 0,0.013 0.01032,0.01 0.03094,0.014 0.04588,0.026 0.005,0.01 0.01006,0.01 0.01531,0.013 0.01644,0.012 5.079149,3.9524 5.141512,4.0008 0.242998,0.2581 0.41916,0.6134 0.428459,0.9331 l 0,2.2881 c -1.53409,0.4273 -2.647272,1.6271 -2.647272,3.0295 0,1.7608 1.741834,3.1828 3.886741,3.1828 2.14555,0 3.886739,-1.422 3.886739,-3.1828 0,-1.4027 -1.112287,-2.6023 -2.647272,-3.0295 l 0,-2.2625 c 0,0.01 -2.81e-4,-0.02 0,-0.026 2.88e-4,-0.01 0.0018,0 0,-0.026 l 0,-3.9497 c 0.0099,-0.3194 0.183017,-0.6485 0.428466,-0.9076 0.031,-0.024 1.276518,-1.0013 2.555454,-1.99419 0.647378,-0.50242 1.303262,-1.00242 1.790347,-1.38052 0.243548,-0.18901 0.438528,-0.34921 0.581484,-0.46011 0.07148,-0.055 0.129593,-0.098 0.168324,-0.1278 0.01938,-0.015 0.03575,-0.018 0.04587,-0.026 0.005,-0.01 0.01037,-0.019 0.01531,-0.026 0.014,-0.012 0.03631,-0.017 0.04594,-0.026 0.0031,0 -0.0031,-0.01 0,-0.013 0.0031,0 0.01063,0.01 0.01531,0 0.0044,-0.01 0.0305,-0.051 0.03062,-0.052 1.9e-5,0 0.03063,-0.026 0.03063,-0.026 0,0 0,-0.013 0,-0.013 0,0 0.01531,-0.013 0.01531,-0.013 0.0025,0 -0.0025,-0.01 0,-0.013 0.0062,-0.013 0.01531,-0.026 0.01531,-0.026 0.67469,-0.63422 1.239474,-1.50172 1.239474,-2.42872 l 0,-2.403 1.72914,0 0,-5.10015 -5.94831,0 0,5.10015 1.740221,0 c 0,0.535 0,1.0907 0,2.4414 -0.0089,0.3196 -0.181648,0.6466 -0.428459,0.9075 l -4.070364,3.17023 0,-14.12458 2.684728,0 -3.977946,-5.9822 -3.978971,5.9822 2.793247,0 0,18.07439 -4.070364,-3.1574 c -0.243837,-0.259 -0.419436,-0.61299 -0.428461,-0.93301 0,-1.10201 1.44e-4,-1.96011 0,-2.63333 1.102413,-0.3957 1.882158,-1.3007 1.882158,-2.3647 0,-1.4271 -1.398004,-2.5949 -3.106329,-2.5949 -1.708321,0 -3.091032,1.1678 -3.091032,2.5949 z"
       style="fill:#ffffff;fill-opacity:1;stroke:none;display:inline;opacity:0.35" />
    <path
       style="fill:url(#linearGradient4148);fill-opacity:1;stroke:none;display:inline"
       d="m 38.000006,993.33211 c 0,1.0494 0.759171,1.9485 1.836259,2.352 l 0,2.62043 c 0,0.93685 0.569702,1.81886 1.254773,2.45436 0.0073,0.01 0.008,0.019 0.01531,0.026 0,0 0,0.013 0,0.013 1.3e-5,0 0.03057,0.039 0.03062,0.039 1.31e-4,10e-5 0.02638,0.035 0.03063,0.039 0.0044,0.01 0.01269,0 0.01531,0 0.0025,0 -0.0025,0.011 0,0.013 0.01032,0.01 0.03094,0.014 0.04588,0.026 0.005,0.01 0.01006,0.01 0.01531,0.013 0.01644,0.012 5.079149,3.9524 5.141512,4.0008 0.242998,0.2581 0.41916,0.6134 0.428459,0.9331 l 0,2.2881 c -1.53409,0.4273 -2.647272,1.6271 -2.647272,3.0295 0,1.7608 1.741834,3.1828 3.886741,3.1828 2.14555,0 3.886739,-1.422 3.886739,-3.1828 0,-1.4027 -1.112287,-2.6023 -2.647272,-3.0295 l 0,-2.2625 c 0,0.01 -2.81e-4,-0.02 0,-0.026 2.88e-4,-0.01 0.0018,0 0,-0.026 l 0,-3.9497 c 0.0099,-0.3194 0.183017,-0.6485 0.428466,-0.9076 0.031,-0.024 1.276518,-1.0013 2.555454,-1.99414 0.647378,-0.50242 1.303262,-1.00242 1.790347,-1.38052 0.243548,-0.18901 0.438528,-0.34921 0.581484,-0.46011 0.07148,-0.055 0.129593,-0.098 0.168324,-0.1278 0.01938,-0.015 0.03575,-0.018 0.04587,-0.026 0.005,-0.01 0.01037,-0.019 0.01531,-0.026 0.014,-0.012 0.03631,-0.017 0.04594,-0.026 0.0031,0 -0.0031,-0.01 0,-0.013 0.0031,0 0.01063,0.01 0.01531,0 0.0044,-0.01 0.0305,-0.051 0.03062,-0.052 1.9e-5,0 0.03063,-0.026 0.03063,-0.026 0,0 0,-0.013 0,-0.013 0,0 0.01531,-0.013 0.01531,-0.013 0.0025,0 -0.0025,-0.01 0,-0.013 0.0062,-0.013 0.01531,-0.026 0.01531,-0.026 0.67469,-0.63422 1.239474,-1.50172 1.239474,-2.42872 l 0,-2.403 1.72914,0 0,-5.10018 -5.94831,0 0,5.10018 1.740221,0 c 0,0.535 0,1.0907 0,2.4414 -0.0089,0.3196 -0.181648,0.6466 -0.428459,0.9075 l -4.070364,3.17023 0,-14.12461 2.684728,0 -3.977946,-5.9822 -3.978971,5.9822 2.793247,0 0,18.07437 -4.070364,-3.15731 c -0.243837,-0.25903 -0.419436,-0.61303 -0.428461,-0.93305 0,-1.10201 1.44e-4,-1.96011 0,-2.63333 1.102413,-0.3957 1.882158,-1.3007 1.882158,-2.3647 0,-1.4271 -1.398004,-2.5949 -3.106329,-2.5949 -1.708321,0 -3.091032,1.1678 -3.091032,2.5949 z"
       id="path1334-2"
       sodipodi:nodetypes="cccsccsssssscccsssccscccsssssssssscccsccccccccccccccccccccssc"
       inkscape:connector-curvature="0" />
  </g>
</svg>
