<?xml version="1.0" encoding="UTF-8" standalone="no"?>
<!-- Created with Inkscape (http://www.inkscape.org/) -->

<svg
   xmlns:dc="http://purl.org/dc/elements/1.1/"
   xmlns:cc="http://creativecommons.org/ns#"
   xmlns:rdf="http://www.w3.org/1999/02/22-rdf-syntax-ns#"
   xmlns:svg="http://www.w3.org/2000/svg"
   xmlns="http://www.w3.org/2000/svg"
   xmlns:xlink="http://www.w3.org/1999/xlink"
   xmlns:sodipodi="http://sodipodi.sourceforge.net/DTD/sodipodi-0.dtd"
   xmlns:inkscape="http://www.inkscape.org/namespaces/inkscape"
   width="96"
   height="96"
   id="svg2"
   version="1.1"
   inkscape:version="0.48.3.1 r9886"
   sodipodi:docname="accessories-calculator.svg">
  <defs
     id="defs4">
    <linearGradient
       id="linearGradient3830">
      <stop
         style="stop-color:#f9d827;stop-opacity:1;"
         offset="0"
         id="stop3832" />
      <stop
         style="stop-color:#ea9115;stop-opacity:1;"
         offset="1"
         id="stop3834" />
    </linearGradient>
    <linearGradient
       id="linearGradient3794">
      <stop
         style="stop-color:#646464;stop-opacity:1;"
         offset="0"
         id="stop3796" />
      <stop
         style="stop-color:#333333;stop-opacity:1;"
         offset="1"
         id="stop3798" />
    </linearGradient>
    <linearGradient
       id="linearGradient3786">
      <stop
         style="stop-color:#646464;stop-opacity:1;"
         offset="0"
         id="stop3788" />
      <stop
         style="stop-color:#a0a0a0;stop-opacity:1;"
         offset="1"
         id="stop3790" />
    </linearGradient>
    <linearGradient
       id="linearGradient3778">
      <stop
         style="stop-color:#f5f5f5;stop-opacity:1;"
         offset="0"
         id="stop3780" />
      <stop
         style="stop-color:#dcdcdc;stop-opacity:1;"
         offset="1"
         id="stop3782" />
    </linearGradient>
    <linearGradient
       id="linearGradient3817">
      <stop
         style="stop-color:#ffffff;stop-opacity:1;"
         offset="0"
         id="stop3819" />
      <stop
         id="stop3827"
         offset="0.05455951"
         style="stop-color:#ffffff;stop-opacity:0.23529412;" />
      <stop
         id="stop3825"
         offset="0.95526141"
         style="stop-color:#ffffff;stop-opacity:0.15686275;" />
      <stop
         style="stop-color:#ffffff;stop-opacity:0.39215687;"
         offset="1"
         id="stop3821" />
    </linearGradient>
    <radialGradient
       cx="4.9929786"
       cy="43.5"
       r="2.5"
       fx="4.9929786"
       fy="43.5"
       id="radialGradient2873-966-168"
       xlink:href="#linearGradient3688-166-749"
       gradientUnits="userSpaceOnUse"
       gradientTransform="matrix(2.003784,0,0,1.4,27.98813,-17.4)" />
    <linearGradient
       id="linearGradient3688-166-749">
      <stop
         id="stop2883"
         style="stop-color:#181818;stop-opacity:1"
         offset="0" />
      <stop
         id="stop2885"
         style="stop-color:#181818;stop-opacity:0"
         offset="1" />
    </linearGradient>
    <radialGradient
       cx="4.9929786"
       cy="43.5"
       r="2.5"
       fx="4.9929786"
       fy="43.5"
       id="radialGradient2875-742-326"
       xlink:href="#linearGradient3688-464-309"
       gradientUnits="userSpaceOnUse"
       gradientTransform="matrix(2.003784,0,0,1.4,-20.01187,-104.4)" />
    <linearGradient
       id="linearGradient3688-464-309">
      <stop
         id="stop2889"
         style="stop-color:#181818;stop-opacity:1"
         offset="0" />
      <stop
         id="stop2891"
         style="stop-color:#181818;stop-opacity:0"
         offset="1" />
    </linearGradient>
    <linearGradient
       x1="25.058096"
       y1="47.027729"
       x2="25.058096"
       y2="39.999443"
       id="linearGradient2877-634-617"
       xlink:href="#linearGradient3702-501-757"
       gradientUnits="userSpaceOnUse" />
    <linearGradient
       id="linearGradient3702-501-757">
      <stop
         id="stop2895"
         style="stop-color:#181818;stop-opacity:0"
         offset="0" />
      <stop
         id="stop2897"
         style="stop-color:#181818;stop-opacity:1"
         offset="0.5" />
      <stop
         id="stop2899"
         style="stop-color:#181818;stop-opacity:0"
         offset="1" />
    </linearGradient>
    <linearGradient
       inkscape:collect="always"
       xlink:href="#linearGradient3817"
       id="linearGradient3823"
       x1="47.214287"
       y1="965.25507"
       x2="47.214287"
       y2="1042.9185"
       gradientUnits="userSpaceOnUse" />
    <radialGradient
       inkscape:collect="always"
       xlink:href="#linearGradient3778"
       id="radialGradient3784"
       cx="47.494923"
       cy="971.02716"
       fx="47.494923"
       fy="971.02716"
       r="40"
       gradientUnits="userSpaceOnUse"
       gradientTransform="matrix(-9.9879347e-7,1.9763054,-1.4545823,-7.3512287e-7,1459.9339,877.1634)" />
    <linearGradient
       inkscape:collect="always"
       xlink:href="#linearGradient3786"
       id="linearGradient3792"
       x1="30.747072"
       y1="1043.2787"
       x2="30.747072"
       y2="964.96307"
       gradientUnits="userSpaceOnUse" />
    <radialGradient
       inkscape:collect="always"
       xlink:href="#linearGradient3794"
       id="radialGradient3800"
       cx="49.515228"
       cy="974.56268"
       fx="49.515228"
       fy="974.56268"
       r="35"
       gradientUnits="userSpaceOnUse"
       gradientTransform="matrix(-5.1408517e-7,2.067416,-1.7648298,-4.3884386e-7,1769.4525,872.19454)" />
    <radialGradient
       inkscape:collect="always"
       xlink:href="#linearGradient3830"
       id="radialGradient3836"
       cx="66.35714"
       cy="1008.6122"
       fx="66.35714"
       fy="1008.6122"
       r="17"
       gradientUnits="userSpaceOnUse"
       gradientTransform="matrix(-3.5774507e-6,1.9223619,-1.3367949,-2.4877303e-6,1414.665,881.05226)" />
  </defs>
  <sodipodi:namedview
     id="base"
     pagecolor="#ffffff"
     bordercolor="#666666"
     borderopacity="1.0"
     inkscape:pageopacity="0.0"
     inkscape:pageshadow="2"
     inkscape:zoom="6.0546018"
     inkscape:cx="24.597916"
     inkscape:cy="44.108919"
     inkscape:document-units="px"
     inkscape:current-layer="layer1"
     showgrid="false"
     inkscape:window-width="1280"
     inkscape:window-height="751"
     inkscape:window-x="0"
     inkscape:window-y="24"
     inkscape:window-maximized="1" />
  <metadata
     id="metadata7">
    <rdf:RDF>
      <cc:Work
         rdf:about="">
        <dc:format>image/svg+xml</dc:format>
        <dc:type
           rdf:resource="http://purl.org/dc/dcmitype/StillImage" />
        <dc:title />
      </cc:Work>
    </rdf:RDF>
  </metadata>
  <g
     inkscape:label="Livello 1"
     inkscape:groupmode="layer"
     id="layer1"
     transform="translate(0,-956.36218)">
    <g
       style="display:inline"
       id="g2036"
       transform="matrix(2.1999991,0,0,0.88888944,-4.8000008,1006.5844)">
      <g
         style="opacity:0.4"
         id="g3712"
         transform="matrix(1.052632,0,0,1.285713,-1.263158,-13.42854)">
        <rect
           style="fill:url(#radialGradient2873-966-168);fill-opacity:1;stroke:none"
           id="rect2801"
           y="40"
           x="38"
           height="7"
           width="5" />
        <rect
           style="fill:url(#radialGradient2875-742-326);fill-opacity:1;stroke:none"
           id="rect3696"
           transform="scale(-1,-1)"
           y="-47"
           x="-10"
           height="7"
           width="5" />
        <rect
           style="fill:url(#linearGradient2877-634-617);fill-opacity:1;stroke:none"
           id="rect3700"
           y="40"
           x="10"
           height="7.0000005"
           width="28" />
      </g>
    </g>
    <rect
       style="fill:url(#radialGradient3784);fill-opacity:1;stroke:url(#linearGradient3792);stroke-opacity:1;opacity:1"
       id="rect2985"
       width="79"
       height="79"
       x="8.5"
       y="964.86218"
       rx="3"
       ry="3" />
    <rect
       ry="2"
       rx="2"
       y="965.86218"
       x="9.5"
       height="77"
       width="77"
       id="rect3815"
       style="fill:none;stroke:url(#linearGradient3823);stroke-opacity:1;opacity:0.50000000000000000" />
    <rect
       ry="1.5"
       rx="1.5"
       y="969.36218"
       x="13"
       height="70"
       width="70"
       id="rect3008"
       style="opacity:1;fill:url(#radialGradient3800);fill-opacity:1;stroke:none" />
    <path
       style="fill:url(#radialGradient3836);fill-opacity:1;stroke:none"
       d="m 83,1004.3622 0,33.5 c 0,0.831 -0.669,1.5 -1.5,1.5 l -33.5,0 0,-35 z"
       id="rect3827"
       inkscape:connector-curvature="0"
       sodipodi:nodetypes="cssccc" />
    <path
       style="fill:#5f5f5f;fill-opacity:1;stroke:none"
       d="m 47,13 0,35 -34,0 0,1 34,0 0,34 1,0 0,-34 0,-1 0,-35 z"
       transform="translate(0,956.36218)"
       id="rect3821"
       inkscape:connector-curvature="0"
       sodipodi:nodetypes="ccccccccccc" />
    <path
       style="opacity:1;fill:#282828;fill-opacity:1;stroke:none"
       d="M 48 13 L 48 47 L 13 47 L 13 48 L 48 48 L 48 83 L 49 83 L 49 48 L 83 48 L 83 47 L 49 47 L 49 13 L 48 13 z "
       transform="translate(0,956.36218)"
       id="rect3817" />
    <path
       id="path3843"
       d="m 28,976.86218 0,7 -7,0 0,6 7,0 0,7 6,0 0,-7 7,0 0,-6 -7,0 0,-7 -6,0 z"
       style="fill:#ffffff;fill-opacity:1;stroke:none;opacity:0.2"
       inkscape:connector-curvature="0" />
    <path
       style="fill:#141414;fill-opacity:1;stroke:none"
       d="M 28 20 L 28 27 L 21 27 L 21 33 L 28 33 L 28 40 L 34 40 L 34 33 L 41 33 L 41 27 L 34 27 L 34 20 L 28 20 z "
       transform="translate(0,956.36218)"
       id="rect3838" />
    <path
       sodipodi:nodetypes="ccccc"
       inkscape:connector-curvature="0"
       style="fill:#ffffff;fill-opacity:1;stroke:none;opacity:0.2"
       d="m 55,983.86218 0,6 20,0 0,-6 z"
       id="path3847" />
    <path
       id="path3845"
       d="m 55,983.36218 0,6 20,0 0,-6 z"
       style="fill:#141414;fill-opacity:1;stroke:none"
       inkscape:connector-curvature="0"
       sodipodi:nodetypes="ccccc" />
    <path
       id="path3854"
       d="m 55,1013.8622 0,6 20,0 0,-6 -20,0 z m 0,10 0,6 20,0 0,-6 -20,0 z"
       style="fill:#ffffff;fill-opacity:1;stroke:none;opacity:0.5"
       inkscape:connector-curvature="0" />
    <path
       style="fill:#141414;fill-opacity:1;stroke:none"
       d="M 55 57 L 55 63 L 75 63 L 75 57 L 55 57 z M 55 67 L 55 73 L 75 73 L 75 67 L 55 67 z "
       transform="translate(0,956.36218)"
       id="path3849" />
    <path
       inkscape:connector-curvature="0"
       style="fill:#ffffff;fill-opacity:1;stroke:none;opacity:0.2"
       d="m 21.807612,1016.9124 4.949747,4.9498 -4.949747,4.9497 4.242641,4.2427 4.949747,-4.9498 4.949747,4.9498 4.242641,-4.2427 -4.949747,-4.9497 4.949747,-4.9498 -4.242641,-4.2426 -4.949747,4.9497 -4.949747,-4.9497 -4.242641,4.2426 z"
       id="path3041" />
    <path
       id="path3039"
       d="m 21.807612,1016.4124 4.949747,4.9498 -4.949747,4.9497 4.242641,4.2427 4.949747,-4.9498 4.949747,4.9498 4.242641,-4.2427 -4.949747,-4.9497 4.949747,-4.9498 -4.242641,-4.2426 -4.949747,4.9497 -4.949747,-4.9497 -4.242641,4.2426 z"
       style="fill:#141414;fill-opacity:1;stroke:none"
       inkscape:connector-curvature="0" />
    <path
       style="opacity:0.05;fill:#000000;fill-opacity:1;stroke:none"
       d="M 14.5 13 C 13.669 13 13 13.669 13 14.5 L 13 81.5 C 13 82.331 13.669 83 14.5 83 L 81.5 83 C 82.331 83 83 82.331 83 81.5 L 83 14.5 C 83 13.669 82.331 13 81.5 13 L 14.5 13 z M 17 16 L 79 16 C 79.554 16 80 16.446 80 17 L 80 79 C 80 79.554 79.554 80 79 80 L 17 80 C 16.446 80 16 79.554 16 79 L 16 17 C 16 16.446 16.446 16 17 16 z "
       transform="translate(0,956.36218)"
       id="rect3812" />
    <path
       style="opacity:0.1;fill:#000000;fill-opacity:1;stroke:none"
       d="M 14.5 13 C 13.669 13 13 13.669 13 14.5 L 13 81.5 C 13 82.331 13.669 83 14.5 83 L 81.5 83 C 82.331 83 83 82.331 83 81.5 L 83 14.5 C 83 13.669 82.331 13 81.5 13 L 14.5 13 z M 16 15 L 80 15 C 80.554 15 81 15.446 81 16 L 81 80 C 81 80.554 80.554 81 80 81 L 16 81 C 15.446 81 15 80.554 15 80 L 15 16 C 15 15.446 15.446 15 16 15 z "
       transform="translate(0,956.36218)"
       id="rect3807" />
    <path
       style="opacity:0.2;fill:#000000;fill-opacity:1;stroke:none"
       d="M 14.5 13 C 13.669 13 13 13.669 13 14.5 L 13 81.5 C 13 82.331 13.669 83 14.5 83 L 81.5 83 C 82.331 83 83 82.331 83 81.5 L 83 14.5 C 83 13.669 82.331 13 81.5 13 L 14.5 13 z M 15 14 L 81 14 C 81.554 14 82 14.446 82 15 L 82 81 C 82 81.554 81.554 82 81 82 L 15 82 C 14.446 82 14 81.554 14 81 L 14 15 C 14 14.446 14.446 14 15 14 z "
       transform="translate(0,956.36218)"
       id="rect3802" />
  </g>
</svg>
