<?xml version="1.0" encoding="UTF-8" standalone="no"?>
<!-- Created with Inkscape (http://www.inkscape.org/) -->

<svg
   xmlns:dc="http://purl.org/dc/elements/1.1/"
   xmlns:cc="http://creativecommons.org/ns#"
   xmlns:rdf="http://www.w3.org/1999/02/22-rdf-syntax-ns#"
   xmlns:svg="http://www.w3.org/2000/svg"
   xmlns="http://www.w3.org/2000/svg"
   xmlns:xlink="http://www.w3.org/1999/xlink"
   xmlns:sodipodi="http://sodipodi.sourceforge.net/DTD/sodipodi-0.dtd"
   xmlns:inkscape="http://www.inkscape.org/namespaces/inkscape"
   width="96"
   height="96"
   id="svg2"
   version="1.1"
   inkscape:version="0.48.3.1 r9886"
   sodipodi:docname="temp-action.svg">
  <defs
     id="defs4">
    <linearGradient
       id="linearGradient3794">
      <stop
         style="stop-color:#333333;stop-opacity:1;"
         offset="0"
         id="stop3796" />
      <stop
         style="stop-color:#969696;stop-opacity:1;"
         offset="1"
         id="stop3798" />
    </linearGradient>
    <linearGradient
       id="linearGradient3776">
      <stop
         style="stop-color:#c8c8c8;stop-opacity:1;"
         offset="0"
         id="stop3778" />
      <stop
         style="stop-color:#646464;stop-opacity:1;"
         offset="1"
         id="stop3780" />
    </linearGradient>
    <linearGradient
       id="linearGradient3817">
      <stop
         style="stop-color:#ffffff;stop-opacity:1;"
         offset="0"
         id="stop3819" />
      <stop
         id="stop3827"
         offset="0.05455951"
         style="stop-color:#ffffff;stop-opacity:0.23529412;" />
      <stop
         id="stop3825"
         offset="0.95526141"
         style="stop-color:#ffffff;stop-opacity:0.15686275;" />
      <stop
         style="stop-color:#ffffff;stop-opacity:0.39215687;"
         offset="1"
         id="stop3821" />
    </linearGradient>
    <radialGradient
       cx="4.9929786"
       cy="43.5"
       r="2.5"
       fx="4.9929786"
       fy="43.5"
       id="radialGradient2873-966-168"
       xlink:href="#linearGradient3688-166-749"
       gradientUnits="userSpaceOnUse"
       gradientTransform="matrix(2.003784,0,0,1.4,27.98813,-17.4)" />
    <linearGradient
       id="linearGradient3688-166-749">
      <stop
         id="stop2883"
         style="stop-color:#181818;stop-opacity:1"
         offset="0" />
      <stop
         id="stop2885"
         style="stop-color:#181818;stop-opacity:0"
         offset="1" />
    </linearGradient>
    <radialGradient
       cx="4.9929786"
       cy="43.5"
       r="2.5"
       fx="4.9929786"
       fy="43.5"
       id="radialGradient2875-742-326"
       xlink:href="#linearGradient3688-464-309"
       gradientUnits="userSpaceOnUse"
       gradientTransform="matrix(2.003784,0,0,1.4,-20.01187,-104.4)" />
    <linearGradient
       id="linearGradient3688-464-309">
      <stop
         id="stop2889"
         style="stop-color:#181818;stop-opacity:1"
         offset="0" />
      <stop
         id="stop2891"
         style="stop-color:#181818;stop-opacity:0"
         offset="1" />
    </linearGradient>
    <linearGradient
       x1="25.058096"
       y1="47.027729"
       x2="25.058096"
       y2="39.999443"
       id="linearGradient2877-634-617"
       xlink:href="#linearGradient3702-501-757"
       gradientUnits="userSpaceOnUse" />
    <linearGradient
       id="linearGradient3702-501-757">
      <stop
         id="stop2895"
         style="stop-color:#181818;stop-opacity:0"
         offset="0" />
      <stop
         id="stop2897"
         style="stop-color:#181818;stop-opacity:1"
         offset="0.5" />
      <stop
         id="stop2899"
         style="stop-color:#181818;stop-opacity:0"
         offset="1" />
    </linearGradient>
    <linearGradient
       inkscape:collect="always"
       xlink:href="#linearGradient3817"
       id="linearGradient3823"
       x1="47.214287"
       y1="965.25507"
       x2="47.214287"
       y2="1042.9185"
       gradientUnits="userSpaceOnUse" />
    <radialGradient
       inkscape:collect="always"
       xlink:href="#linearGradient3776"
       id="radialGradient3784"
       cx="48"
       cy="977.93359"
       fx="48"
       fy="977.93359"
       r="40"
       gradientUnits="userSpaceOnUse"
       gradientTransform="matrix(6.5825195e-7,1.795198,-1.3393155,4.9109181e-7,1357.7616,891.76361)" />
    <linearGradient
       inkscape:collect="always"
       xlink:href="#linearGradient3794"
       id="linearGradient3800"
       x1="19.428572"
       y1="1042.9731"
       x2="19.428572"
       y2="964.00507"
       gradientUnits="userSpaceOnUse" />
  </defs>
  <sodipodi:namedview
     id="base"
     pagecolor="#ffffff"
     bordercolor="#666666"
     borderopacity="1.0"
     inkscape:pageopacity="0.0"
     inkscape:pageshadow="2"
     inkscape:zoom="2.8"
     inkscape:cx="4.3084655"
     inkscape:cy="30.74418"
     inkscape:document-units="px"
     inkscape:current-layer="layer1"
     showgrid="false"
     inkscape:window-width="1280"
     inkscape:window-height="751"
     inkscape:window-x="0"
     inkscape:window-y="24"
     inkscape:window-maximized="1" />
  <metadata
     id="metadata7">
    <rdf:RDF>
      <cc:Work
         rdf:about="">
        <dc:format>image/svg+xml</dc:format>
        <dc:type
           rdf:resource="http://purl.org/dc/dcmitype/StillImage" />
        <dc:title></dc:title>
      </cc:Work>
    </rdf:RDF>
  </metadata>
  <g
     inkscape:label="Livello 1"
     inkscape:groupmode="layer"
     id="layer1"
     transform="translate(0,-956.36218)">
    <g
       style="display:inline"
       id="g2036"
       transform="matrix(2.1999991,0,0,0.88888944,-4.8000008,1006.5844)">
      <g
         style="opacity:0.4"
         id="g3712"
         transform="matrix(1.052632,0,0,1.285713,-1.263158,-13.42854)">
        <rect
           style="fill:url(#radialGradient2873-966-168);fill-opacity:1;stroke:none"
           id="rect2801"
           y="40"
           x="38"
           height="7"
           width="5" />
        <rect
           style="fill:url(#radialGradient2875-742-326);fill-opacity:1;stroke:none"
           id="rect3696"
           transform="scale(-1,-1)"
           y="-47"
           x="-10"
           height="7"
           width="5" />
        <rect
           style="fill:url(#linearGradient2877-634-617);fill-opacity:1;stroke:none"
           id="rect3700"
           y="40"
           x="10"
           height="7.0000005"
           width="28" />
      </g>
    </g>
    <rect
       style="fill:url(#radialGradient3784);fill-opacity:1;stroke:url(#linearGradient3800);stroke-opacity:1"
       id="rect2985"
       width="79"
       height="79"
       x="8.5"
       y="964.86218"
       rx="3"
       ry="3" />
    <rect
       ry="2"
       rx="2"
       y="965.86218"
       x="9.5"
       height="77"
       width="77"
       id="rect3815"
       style="fill:none;stroke:url(#linearGradient3823);stroke-opacity:1;opacity:0.50000000000000000" />
    <path
       inkscape:connector-curvature="0"
       style="fill:#000000;fill-opacity:1;stroke:#000000;stroke-opacity:1;stroke-linejoin:round;opacity:0.05;stroke-width:4.00000010000000028;stroke-miterlimit:4;stroke-dasharray:none"
       d="m 46,980.3622 c -1.662,0 -3,1.338 -3,3 l 0,1.65625 c -1.832889,0.47308 -3.566597,1.18483 -5.15625,2.125 L 36.6875,985.9872 c -1.175211,-1.17521 -3.074789,-1.17521 -4.25,0 l -2.8125,2.8125 c -1.175211,1.17521 -1.175211,3.07479 0,4.25 l 1.15625,1.15625 c -0.940173,1.58965 -1.651924,3.32336 -2.125,5.15625 l -1.65625,0 c -1.662,0 -3,1.338 -3,3 l 0,4 c 0,1.662 1.338,3 3,3 l 1.65625,0 c 0.473076,1.8329 1.184827,3.5666 2.125,5.1563 l -1.15625,1.1562 c -1.175211,1.1752 -1.175211,3.0748 0,4.25 l 2.8125,2.8125 c 1.175211,1.1752 3.074789,1.1752 4.25,0 l 1.15625,-1.1562 c 1.589653,0.9401 3.323361,1.6519 5.15625,2.125 l 0,1.6562 c 0,1.662 1.338,3 3,3 l 4,0 c 1.662,0 3,-1.338 3,-3 l 0,-1.6562 c 1.832889,-0.4731 3.566597,-1.1849 5.15625,-2.125 l 1.15625,1.1562 c 1.175211,1.1752 3.074789,1.1752 4.25,0 l 2.8125,-2.8125 c 1.175211,-1.1752 1.175211,-3.0748 0,-4.25 l -1.15625,-1.1562 c 0.940173,-1.5897 1.651924,-3.3234 2.125,-5.1563 l 1.65625,0 c 1.662,0 3,-1.338 3,-3 l 0,-4 c 0,-1.662 -1.338,-3 -3,-3 l -1.65625,0 c -0.473076,-1.83289 -1.184827,-3.5666 -2.125,-5.15625 L 66.375,993.0497 c 1.175211,-1.17521 1.175211,-3.07479 0,-4.25 l -2.8125,-2.8125 c -1.175211,-1.17521 -3.074789,-1.17521 -4.25,0 l -1.15625,1.15625 C 56.566597,986.20328 54.832889,985.49153 53,985.01845 l 0,-1.65625 c 0,-1.662 -1.338,-3 -3,-3 l -4,0 z m 2,14 c 5.522848,0 10,4.47715 10,10 0,5.5229 -4.477152,10 -10,10 -5.522848,0 -10,-4.4771 -10,-10 0,-5.52285 4.477152,-10 10,-10 z"
       id="path3797" />
    <path
       id="path3795"
       d="m 46,980.3622 c -1.662,0 -3,1.338 -3,3 l 0,1.65625 c -1.832889,0.47308 -3.566597,1.18483 -5.15625,2.125 L 36.6875,985.9872 c -1.175211,-1.17521 -3.074789,-1.17521 -4.25,0 l -2.8125,2.8125 c -1.175211,1.17521 -1.175211,3.07479 0,4.25 l 1.15625,1.15625 c -0.940173,1.58965 -1.651924,3.32336 -2.125,5.15625 l -1.65625,0 c -1.662,0 -3,1.338 -3,3 l 0,4 c 0,1.662 1.338,3 3,3 l 1.65625,0 c 0.473076,1.8329 1.184827,3.5666 2.125,5.1563 l -1.15625,1.1562 c -1.175211,1.1752 -1.175211,3.0748 0,4.25 l 2.8125,2.8125 c 1.175211,1.1752 3.074789,1.1752 4.25,0 l 1.15625,-1.1562 c 1.589653,0.9401 3.323361,1.6519 5.15625,2.125 l 0,1.6562 c 0,1.662 1.338,3 3,3 l 4,0 c 1.662,0 3,-1.338 3,-3 l 0,-1.6562 c 1.832889,-0.4731 3.566597,-1.1849 5.15625,-2.125 l 1.15625,1.1562 c 1.175211,1.1752 3.074789,1.1752 4.25,0 l 2.8125,-2.8125 c 1.175211,-1.1752 1.175211,-3.0748 0,-4.25 l -1.15625,-1.1562 c 0.940173,-1.5897 1.651924,-3.3234 2.125,-5.1563 l 1.65625,0 c 1.662,0 3,-1.338 3,-3 l 0,-4 c 0,-1.662 -1.338,-3 -3,-3 l -1.65625,0 c -0.473076,-1.83289 -1.184827,-3.5666 -2.125,-5.15625 L 66.375,993.0497 c 1.175211,-1.17521 1.175211,-3.07479 0,-4.25 l -2.8125,-2.8125 c -1.175211,-1.17521 -3.074789,-1.17521 -4.25,0 l -1.15625,1.15625 C 56.566597,986.20328 54.832889,985.49153 53,985.01845 l 0,-1.65625 c 0,-1.662 -1.338,-3 -3,-3 l -4,0 z m 2,14 c 5.522848,0 10,4.47715 10,10 0,5.5229 -4.477152,10 -10,10 -5.522848,0 -10,-4.4771 -10,-10 0,-5.52285 4.477152,-10 10,-10 z"
       style="fill:#000000;fill-opacity:1;stroke:#000000;stroke-opacity:1;stroke-linejoin:round;opacity:0.09999989;stroke-width:3.00000009999999984;stroke-miterlimit:4;stroke-dasharray:none"
       inkscape:connector-curvature="0" />
    <path
       inkscape:connector-curvature="0"
       style="fill:#000000;fill-opacity:1;stroke:#000000;stroke-opacity:1;stroke-linejoin:round;opacity:0.14999995;stroke-width:1.99999997999999990;stroke-miterlimit:4;stroke-dasharray:none"
       d="m 46,980.3622 c -1.662,0 -3,1.338 -3,3 l 0,1.65625 c -1.832889,0.47308 -3.566597,1.18483 -5.15625,2.125 L 36.6875,985.9872 c -1.175211,-1.17521 -3.074789,-1.17521 -4.25,0 l -2.8125,2.8125 c -1.175211,1.17521 -1.175211,3.07479 0,4.25 l 1.15625,1.15625 c -0.940173,1.58965 -1.651924,3.32336 -2.125,5.15625 l -1.65625,0 c -1.662,0 -3,1.338 -3,3 l 0,4 c 0,1.662 1.338,3 3,3 l 1.65625,0 c 0.473076,1.8329 1.184827,3.5666 2.125,5.1563 l -1.15625,1.1562 c -1.175211,1.1752 -1.175211,3.0748 0,4.25 l 2.8125,2.8125 c 1.175211,1.1752 3.074789,1.1752 4.25,0 l 1.15625,-1.1562 c 1.589653,0.9401 3.323361,1.6519 5.15625,2.125 l 0,1.6562 c 0,1.662 1.338,3 3,3 l 4,0 c 1.662,0 3,-1.338 3,-3 l 0,-1.6562 c 1.832889,-0.4731 3.566597,-1.1849 5.15625,-2.125 l 1.15625,1.1562 c 1.175211,1.1752 3.074789,1.1752 4.25,0 l 2.8125,-2.8125 c 1.175211,-1.1752 1.175211,-3.0748 0,-4.25 l -1.15625,-1.1562 c 0.940173,-1.5897 1.651924,-3.3234 2.125,-5.1563 l 1.65625,0 c 1.662,0 3,-1.338 3,-3 l 0,-4 c 0,-1.662 -1.338,-3 -3,-3 l -1.65625,0 c -0.473076,-1.83289 -1.184827,-3.5666 -2.125,-5.15625 L 66.375,993.0497 c 1.175211,-1.17521 1.175211,-3.07479 0,-4.25 l -2.8125,-2.8125 c -1.175211,-1.17521 -3.074789,-1.17521 -4.25,0 l -1.15625,1.15625 C 56.566597,986.20328 54.832889,985.49153 53,985.01845 l 0,-1.65625 c 0,-1.662 -1.338,-3 -3,-3 l -4,0 z m 2,14 c 5.522848,0 10,4.47715 10,10 0,5.5229 -4.477152,10 -10,10 -5.522848,0 -10,-4.4771 -10,-10 0,-5.52285 4.477152,-10 10,-10 z"
       id="path3793" />
    <path
       id="path3023"
       d="m 46,980.3622 c -1.662,0 -3,1.338 -3,3 l 0,1.65625 c -1.832889,0.47308 -3.566597,1.18483 -5.15625,2.125 L 36.6875,985.9872 c -1.175211,-1.17521 -3.074789,-1.17521 -4.25,0 l -2.8125,2.8125 c -1.175211,1.17521 -1.175211,3.07479 0,4.25 l 1.15625,1.15625 c -0.940173,1.58965 -1.651924,3.32336 -2.125,5.15625 l -1.65625,0 c -1.662,0 -3,1.338 -3,3 l 0,4 c 0,1.662 1.338,3 3,3 l 1.65625,0 c 0.473076,1.8329 1.184827,3.5666 2.125,5.1563 l -1.15625,1.1562 c -1.175211,1.1752 -1.175211,3.0748 0,4.25 l 2.8125,2.8125 c 1.175211,1.1752 3.074789,1.1752 4.25,0 l 1.15625,-1.1562 c 1.589653,0.9401 3.323361,1.6519 5.15625,2.125 l 0,1.6562 c 0,1.662 1.338,3 3,3 l 4,0 c 1.662,0 3,-1.338 3,-3 l 0,-1.6562 c 1.832889,-0.4731 3.566597,-1.1849 5.15625,-2.125 l 1.15625,1.1562 c 1.175211,1.1752 3.074789,1.1752 4.25,0 l 2.8125,-2.8125 c 1.175211,-1.1752 1.175211,-3.0748 0,-4.25 l -1.15625,-1.1562 c 0.940173,-1.5897 1.651924,-3.3234 2.125,-5.1563 l 1.65625,0 c 1.662,0 3,-1.338 3,-3 l 0,-4 c 0,-1.662 -1.338,-3 -3,-3 l -1.65625,0 c -0.473076,-1.83289 -1.184827,-3.5666 -2.125,-5.15625 L 66.375,993.0497 c 1.175211,-1.17521 1.175211,-3.07479 0,-4.25 l -2.8125,-2.8125 c -1.175211,-1.17521 -3.074789,-1.17521 -4.25,0 l -1.15625,1.15625 C 56.566597,986.20328 54.832889,985.49153 53,985.01845 l 0,-1.65625 c 0,-1.662 -1.338,-3 -3,-3 l -4,0 z m 2,14 c 5.522848,0 10,4.47715 10,10 0,5.5229 -4.477152,10 -10,10 -5.522848,0 -10,-4.4771 -10,-10 0,-5.52285 4.477152,-10 10,-10 z"
       style="fill:#000000;fill-opacity:1;stroke:#000000;stroke-opacity:1;stroke-linejoin:round;opacity:0.2"
       inkscape:connector-curvature="0" />
    <path
       inkscape:connector-curvature="0"
       style="fill:#ffffff;fill-opacity:1;stroke:none"
       d="m 46,980.3622 c -1.662,0 -3,1.338 -3,3 l 0,1.65625 c -1.832889,0.47308 -3.566597,1.18483 -5.15625,2.125 L 36.6875,985.9872 c -1.175211,-1.17521 -3.074789,-1.17521 -4.25,0 l -2.8125,2.8125 c -1.175211,1.17521 -1.175211,3.07479 0,4.25 l 1.15625,1.15625 c -0.940173,1.58965 -1.651924,3.32336 -2.125,5.15625 l -1.65625,0 c -1.662,0 -3,1.338 -3,3 l 0,4 c 0,1.662 1.338,3 3,3 l 1.65625,0 c 0.473076,1.8329 1.184827,3.5666 2.125,5.1563 l -1.15625,1.1562 c -1.175211,1.1752 -1.175211,3.0748 0,4.25 l 2.8125,2.8125 c 1.175211,1.1752 3.074789,1.1752 4.25,0 l 1.15625,-1.1562 c 1.589653,0.9401 3.323361,1.6519 5.15625,2.125 l 0,1.6562 c 0,1.662 1.338,3 3,3 l 4,0 c 1.662,0 3,-1.338 3,-3 l 0,-1.6562 c 1.832889,-0.4731 3.566597,-1.1849 5.15625,-2.125 l 1.15625,1.1562 c 1.175211,1.1752 3.074789,1.1752 4.25,0 l 2.8125,-2.8125 c 1.175211,-1.1752 1.175211,-3.0748 0,-4.25 l -1.15625,-1.1562 c 0.940173,-1.5897 1.651924,-3.3234 2.125,-5.1563 l 1.65625,0 c 1.662,0 3,-1.338 3,-3 l 0,-4 c 0,-1.662 -1.338,-3 -3,-3 l -1.65625,0 c -0.473076,-1.83289 -1.184827,-3.5666 -2.125,-5.15625 L 66.375,993.0497 c 1.175211,-1.17521 1.175211,-3.07479 0,-4.25 l -2.8125,-2.8125 c -1.175211,-1.17521 -3.074789,-1.17521 -4.25,0 l -1.15625,1.15625 C 56.566597,986.20328 54.832889,985.49153 53,985.01845 l 0,-1.65625 c 0,-1.662 -1.338,-3 -3,-3 l -4,0 z m 2,14 c 5.522848,0 10,4.47715 10,10 0,5.5229 -4.477152,10 -10,10 -5.522848,0 -10,-4.4771 -10,-10 0,-5.52285 4.477152,-10 10,-10 z"
       id="path3803" />
  </g>
</svg>
