<?xml version="1.0" encoding="UTF-8" standalone="no"?>
<!-- Created with Inkscape (http://www.inkscape.org/) -->

<svg
   xmlns:dc="http://purl.org/dc/elements/1.1/"
   xmlns:cc="http://creativecommons.org/ns#"
   xmlns:rdf="http://www.w3.org/1999/02/22-rdf-syntax-ns#"
   xmlns:svg="http://www.w3.org/2000/svg"
   xmlns="http://www.w3.org/2000/svg"
   xmlns:xlink="http://www.w3.org/1999/xlink"
   xmlns:sodipodi="http://sodipodi.sourceforge.net/DTD/sodipodi-0.dtd"
   xmlns:inkscape="http://www.inkscape.org/namespaces/inkscape"
   width="96"
   height="96"
   id="svg2"
   version="1.1"
   inkscape:version="0.48.4 r9939"
   sodipodi:docname="emerillon.svg">
  <defs
     id="defs4">
    <linearGradient
       inkscape:collect="always"
       id="linearGradient3928">
      <stop
         style="stop-color:#ffffff;stop-opacity:1;"
         offset="0"
         id="stop3930" />
      <stop
         style="stop-color:#ffffff;stop-opacity:0;"
         offset="1"
         id="stop3932" />
    </linearGradient>
    <linearGradient
       id="linearGradient3834">
      <stop
         style="stop-color:#f0f0f0;stop-opacity:1;"
         offset="0"
         id="stop3836" />
      <stop
         style="stop-color:#646464;stop-opacity:1;"
         offset="1"
         id="stop3838" />
    </linearGradient>
    <linearGradient
       id="linearGradient3825">
      <stop
         style="stop-color:#df4c10;stop-opacity:1;"
         offset="0"
         id="stop3828" />
      <stop
         style="stop-color:#9b1600;stop-opacity:1;"
         offset="1"
         id="stop3830" />
    </linearGradient>
    <linearGradient
       id="linearGradient3784">
      <stop
         style="stop-color:#e5dd9d;stop-opacity:1;"
         offset="0"
         id="stop3786" />
      <stop
         style="stop-color:#e1c183;stop-opacity:1;"
         offset="1"
         id="stop3788" />
    </linearGradient>
    <linearGradient
       id="linearGradient3776">
      <stop
         style="stop-color:#f3f5d1;stop-opacity:1;"
         offset="0"
         id="stop3778" />
      <stop
         style="stop-color:#ede5bb;stop-opacity:1;"
         offset="1"
         id="stop3780" />
    </linearGradient>
    <linearGradient
       id="linearGradient3817">
      <stop
         style="stop-color:#ffffff;stop-opacity:1;"
         offset="0"
         id="stop3819" />
      <stop
         id="stop3827"
         offset="0.05455951"
         style="stop-color:#ffffff;stop-opacity:0.23529412;" />
      <stop
         id="stop3825"
         offset="0.95526141"
         style="stop-color:#ffffff;stop-opacity:0.15686275;" />
      <stop
         style="stop-color:#ffffff;stop-opacity:0.39215687;"
         offset="1"
         id="stop3821" />
    </linearGradient>
    <radialGradient
       cx="4.9929786"
       cy="43.5"
       r="2.5"
       fx="4.9929786"
       fy="43.5"
       id="radialGradient2873-966-168"
       xlink:href="#linearGradient3688-166-749"
       gradientUnits="userSpaceOnUse"
       gradientTransform="matrix(2.003784,0,0,1.4,27.98813,-17.4)" />
    <linearGradient
       id="linearGradient3688-166-749">
      <stop
         id="stop2883"
         style="stop-color:#181818;stop-opacity:1"
         offset="0" />
      <stop
         id="stop2885"
         style="stop-color:#181818;stop-opacity:0"
         offset="1" />
    </linearGradient>
    <radialGradient
       cx="4.9929786"
       cy="43.5"
       r="2.5"
       fx="4.9929786"
       fy="43.5"
       id="radialGradient2875-742-326"
       xlink:href="#linearGradient3688-464-309"
       gradientUnits="userSpaceOnUse"
       gradientTransform="matrix(2.003784,0,0,1.4,-20.01187,-104.4)" />
    <linearGradient
       id="linearGradient3688-464-309">
      <stop
         id="stop2889"
         style="stop-color:#181818;stop-opacity:1"
         offset="0" />
      <stop
         id="stop2891"
         style="stop-color:#181818;stop-opacity:0"
         offset="1" />
    </linearGradient>
    <linearGradient
       x1="25.058096"
       y1="47.027729"
       x2="25.058096"
       y2="39.999443"
       id="linearGradient2877-634-617"
       xlink:href="#linearGradient3702-501-757"
       gradientUnits="userSpaceOnUse" />
    <linearGradient
       id="linearGradient3702-501-757">
      <stop
         id="stop2895"
         style="stop-color:#181818;stop-opacity:0"
         offset="0" />
      <stop
         id="stop2897"
         style="stop-color:#181818;stop-opacity:1"
         offset="0.5" />
      <stop
         id="stop2899"
         style="stop-color:#181818;stop-opacity:0"
         offset="1" />
    </linearGradient>
    <linearGradient
       inkscape:collect="always"
       xlink:href="#linearGradient3817"
       id="linearGradient3823"
       x1="47.214287"
       y1="965.25507"
       x2="47.214287"
       y2="1042.9185"
       gradientUnits="userSpaceOnUse" />
    <radialGradient
       inkscape:collect="always"
       xlink:href="#linearGradient3776"
       id="radialGradient3782"
       cx="48.714287"
       cy="976.14789"
       fx="48.714287"
       fy="976.14789"
       r="40"
       gradientUnits="userSpaceOnUse"
       gradientTransform="matrix(1.5444234e-6,2.0096427,-1.5539819,1.1942451e-6,1565.6303,878.24841)" />
    <linearGradient
       inkscape:collect="always"
       xlink:href="#linearGradient3784"
       id="linearGradient3790"
       x1="21.928572"
       y1="964.7193"
       x2="21.928572"
       y2="1043.4076"
       gradientUnits="userSpaceOnUse" />
    <linearGradient
       inkscape:collect="always"
       xlink:href="#linearGradient3834"
       id="linearGradient3924"
       gradientUnits="userSpaceOnUse"
       gradientTransform="matrix(1,0,0,0.99999514,96.785737,-5.7783749)"
       x1="-58.785713"
       y1="1003.1479"
       x2="-54.785713"
       y2="1003.1479" />
    <radialGradient
       inkscape:collect="always"
       xlink:href="#linearGradient3928"
       id="radialGradient3934"
       cx="27.400389"
       cy="28.446049"
       fx="27.400389"
       fy="28.446049"
       r="4.6719556"
       gradientTransform="matrix(1,0,0,0.67567564,0,9.2257464)"
       gradientUnits="userSpaceOnUse" />
    <radialGradient
       inkscape:collect="always"
       xlink:href="#linearGradient3825"
       id="radialGradient3938"
       gradientUnits="userSpaceOnUse"
       gradientTransform="matrix(7.5966735e-8,1.5860839,-1.2375079,6.1446329e-8,-18.550029,124.17832)"
       cx="-58.128185"
       cy="31.982141"
       fx="-58.128185"
       fy="31.982141"
       r="6.875" />
  </defs>
  <sodipodi:namedview
     id="base"
     pagecolor="#ffffff"
     bordercolor="#666666"
     borderopacity="1.0"
     inkscape:pageopacity="0.0"
     inkscape:pageshadow="2"
     inkscape:zoom="3.959798"
     inkscape:cx="13.028422"
     inkscape:cy="55.603641"
     inkscape:document-units="px"
     inkscape:current-layer="layer1"
     showgrid="false"
     inkscape:window-width="1280"
     inkscape:window-height="750"
     inkscape:window-x="0"
     inkscape:window-y="26"
     inkscape:window-maximized="1" />
  <metadata
     id="metadata7">
    <rdf:RDF>
      <cc:Work
         rdf:about="">
        <dc:format>image/svg+xml</dc:format>
        <dc:type
           rdf:resource="http://purl.org/dc/dcmitype/StillImage" />
        <dc:title></dc:title>
      </cc:Work>
    </rdf:RDF>
  </metadata>
  <g
     inkscape:label="Livello 1"
     inkscape:groupmode="layer"
     id="layer1"
     transform="translate(0,-956.36218)">
    <g
       style="display:inline"
       id="g2036"
       transform="matrix(2.1999991,0,0,0.88888944,-4.8000008,1006.5844)">
      <g
         style="opacity:0.4"
         id="g3712"
         transform="matrix(1.052632,0,0,1.285713,-1.263158,-13.42854)">
        <rect
           style="fill:url(#radialGradient2873-966-168);fill-opacity:1;stroke:none"
           id="rect2801"
           y="40"
           x="38"
           height="7"
           width="5" />
        <rect
           style="fill:url(#radialGradient2875-742-326);fill-opacity:1;stroke:none"
           id="rect3696"
           transform="scale(-1,-1)"
           y="-47"
           x="-10"
           height="7"
           width="5" />
        <rect
           style="fill:url(#linearGradient2877-634-617);fill-opacity:1;stroke:none"
           id="rect3700"
           y="40"
           x="10"
           height="7.0000005"
           width="28" />
      </g>
    </g>
    <rect
       style="fill:url(#radialGradient3782);fill-opacity:1;stroke:url(#linearGradient3790);stroke-opacity:1"
       id="rect2985"
       width="79"
       height="79"
       x="8.5"
       y="964.86218"
       rx="3"
       ry="3" />
    <path
       style="fill:#ffffff;fill-opacity:1;stroke:none;opacity:0.5"
       d="m 11,965.36217 0,2 -2,0 0,2 2,0 0,6 -2,0 0,2 2,0 0,6 -2,0 0,2 2,0 0,6 -2,0 0,2 2,0 0,6 -2,0 0,2.00003 2,0 0,6 -2,0 0,2 2,0 0,6 -2,0 0,2 2,0 0,6 -2,0 0,2 2,0 0,6 -2,0 0,2 2,0 0,6 -2,0 0,2 2,0 0,2 2,0 0,-2 6,0 0,2 2,0 0,-2 6,0 0,2 2,0 0,-2 6,0 0,2 2,0 0,-2 6,0 0,2 2,0 0,-2 6,0 0,2 2,0 0,-2 6,0 0,2 2,0 0,-2 6,0 0,2 2,0 0,-2 6,0 0,2 2,0 0,-2 6,0 0,2 2,0 0,-2 2,0 0,-2 -2,0 0,-6 2,0 0,-2 -2,0 0,-6 2,0 0,-2 -2,0 0,-6 2,0 0,-2 -2,0 0,-6 2,0 0,-2 -2,0 0,-6 2,0 0,-2.00003 -2,0 0,-6 2,0 0,-2 -2,0 0,-6 2,0 0,-2 -2,0 0,-6 2,0 0,-2 -2,0 0,-6 2,0 0,-2 -2,0 0,-2 -2,0 0,2 -6,0 0,-2 -2,0 0,2 -6,0 0,-2 -2,0 0,2 -6,0 0,-2 -2,0 0,2 -6,0 0,-2 -2,0 0,2 -6,0 0,-2 -2,0 0,2 -6,0 0,-2 -2,0 0,2 -6,0 0,-2 -2,0 0,2 -6,0 0,-2 -2,0 0,2 -6,0 0,-2 -2,0 z m 2,4 6,0 0,6 -6,0 0,-6 z m 8,0 6,0 0,6 -6,0 0,-6 z m 8,0 6,0 0,6 -6,0 0,-6 z m 8,0 6,0 0,6 -6,0 0,-6 z m 8,0 6,0 0,6 -6,0 0,-6 z m 8,0 6,0 0,6 -6,0 0,-6 z m 8,0 6,0 0,6 -6,0 0,-6 z m 8,0 6,0 0,6 -6,0 0,-6 z m 8,0 6,0 0,6 -6,0 0,-6 z m -64,8 6,0 0,6 -6,0 0,-6 z m 8,0 6,0 0,6 -6,0 0,-6 z m 8,0 6,0 0,6 -6,0 0,-6 z m 8,0 6,0 0,6 -6,0 0,-6 z m 8,0 6,0 0,6 -6,0 0,-6 z m 8,0 6,0 0,6 -6,0 0,-6 z m 8,0 6,0 0,6 -6,0 0,-6 z m 8,0 6,0 0,6 -6,0 0,-6 z m 8,0 6,0 0,6 -6,0 0,-6 z m -64,8 6,0 0,6 -6,0 0,-6 z m 8,0 6,0 0,6 -6,0 0,-6 z m 8,0 6,0 0,6 -6,0 0,-6 z m 8,0 6,0 0,6 -6,0 0,-6 z m 8,0 6,0 0,6 -6,0 0,-6 z m 8,0 6,0 0,6 -6,0 0,-6 z m 8,0 6,0 0,6 -6,0 0,-6 z m 8,0 6,0 0,6 -6,0 0,-6 z m 8,0 6,0 0,6 -6,0 0,-6 z m -64,8 6,0 0,6 -6,0 0,-6 z m 8,0 6,0 0,6 -6,0 0,-6 z m 8,0 6,0 0,6 -6,0 0,-6 z m 8,0 6,0 0,6 -6,0 0,-6 z m 8,0 6,0 0,6 -6,0 0,-6 z m 8,0 6,0 0,6 -6,0 0,-6 z m 8,0 6,0 0,6 -6,0 0,-6 z m 8,0 6,0 0,6 -6,0 0,-6 z m 8,0 6,0 0,6 -6,0 0,-6 z m -64,8.00003 6,0 0,6 -6,0 0,-6 z m 8,0 6,0 0,6 -6,0 0,-6 z m 8,0 6,0 0,6 -6,0 0,-6 z m 8,0 6,0 0,6 -6,0 0,-6 z m 8,0 6,0 0,6 -6,0 0,-6 z m 8,0 6,0 0,6 -6,0 0,-6 z m 8,0 6,0 0,6 -6,0 0,-6 z m 8,0 6,0 0,6 -6,0 0,-6 z m 8,0 6,0 0,6 -6,0 0,-6 z m -64,8 6,0 0,6 -6,0 0,-6 z m 8,0 6,0 0,6 -6,0 0,-6 z m 8,0 6,0 0,6 -6,0 0,-6 z m 8,0 6,0 0,6 -6,0 0,-6 z m 8,0 6,0 0,6 -6,0 0,-6 z m 8,0 6,0 0,6 -6,0 0,-6 z m 8,0 6,0 0,6 -6,0 0,-6 z m 8,0 6,0 0,6 -6,0 0,-6 z m 8,0 6,0 0,6 -6,0 0,-6 z m -64,8 6,0 0,6 -6,0 0,-6 z m 8,0 6,0 0,6 -6,0 0,-6 z m 8,0 6,0 0,6 -6,0 0,-6 z m 8,0 6,0 0,6 -6,0 0,-6 z m 8,0 6,0 0,6 -6,0 0,-6 z m 8,0 6,0 0,6 -6,0 0,-6 z m 8,0 6,0 0,6 -6,0 0,-6 z m 8,0 6,0 0,6 -6,0 0,-6 z m 8,0 6,0 0,6 -6,0 0,-6 z m -64,8 6,0 0,6 -6,0 0,-6 z m 8,0 6,0 0,6 -6,0 0,-6 z m 8,0 6,0 0,6 -6,0 0,-6 z m 8,0 6,0 0,6 -6,0 0,-6 z m 8,0 6,0 0,6 -6,0 0,-6 z m 8,0 6,0 0,6 -6,0 0,-6 z m 8,0 6,0 0,6 -6,0 0,-6 z m 8,0 6,0 0,6 -6,0 0,-6 z m 8,0 6,0 0,6 -6,0 0,-6 z m -64,8 6,0 0,6 -6,0 0,-6 z m 8,0 6,0 0,6 -6,0 0,-6 z m 8,0 6,0 0,6 -6,0 0,-6 z m 8,0 6,0 0,6 -6,0 0,-6 z m 8,0 6,0 0,6 -6,0 0,-6 z m 8,0 6,0 0,6 -6,0 0,-6 z m 8,0 6,0 0,6 -6,0 0,-6 z m 8,0 6,0 0,6 -6,0 0,-6 z m 8,0 6,0 0,6 -6,0 0,-6 z"
       id="rect3942"
       inkscape:connector-curvature="0" />
    <path
       inkscape:connector-curvature="0"
       style="fill:#337ad0;fill-opacity:1;stroke:#214490;stroke-opacity:0.9948718"
       d="m 80.90625,1021.5184 c -12.739722,0 -23.263003,9.5243 -24.8125,21.8438 l 2.03125,0 c 1.541251,-11.2059 11.151768,-19.8438 22.78125,-19.8438 2.109103,0 4.153384,0.2809 6.09375,0.8125 l 0,-2.0625 c -1.950901,-0.4887 -3.991332,-0.75 -6.09375,-0.75 z"
       id="path3854" />
    <path
       inkscape:connector-curvature="0"
       style="fill:#d09025;fill-opacity:1;stroke:#b15d0a;stroke-opacity:1"
       d="m 52.96875,965.36218 c -0.08135,1.56942 -0.15625,3.14954 -0.15625,4.75 0,10.32942 1.735476,20.03572 4.78125,28.5625 l -20.8125,14.15622 C 29.753823,1005.4273 19.932821,1000.7221 9,1000.3934 l 0,10 c 15.997999,0.6454 28.78125,13.8124 28.78125,29.9688 0,1.0145 -0.05789,2.0113 -0.15625,3 l 10.03125,0 c 0.07337,-0.99 0.125,-1.9913 0.125,-3 0,-7.0824 -1.833491,-13.7298 -5.0625,-19.5 l 18.96875,-12.9063 c 6.171976,11.59 15.094753,19.7658 25.3125,22.3125 l 0,-10.4062 c -13.841941,-5.1091 -24.1875,-25.4359 -24.1875,-49.75002 0,-1.60119 0.03725,-3.18649 0.125,-4.75 l -9.96875,0 z"
       id="path3794" />
    <path
       inkscape:connector-curvature="0"
       style="fill:#a25c09;fill-opacity:1;stroke:#ffffff;opacity:1;stroke-opacity:0.41176471"
       d="m 9,1002.8934 0,5 c 17.38858,0.6365 31.28125,14.9247 31.28125,32.4688 0,1.0137 -0.03418,2.0099 -0.125,3 l 5,0 c 0.07803,-0.9878 0.125,-1.9922 0.125,-3 0,-20.3037 -16.133577,-36.8267 -36.28125,-37.4688 z"
       id="path3816" />
    <rect
       ry="2"
       rx="2"
       y="965.86218"
       x="9.5"
       height="77"
       width="77"
       id="rect3815"
       style="fill:none;stroke:url(#linearGradient3823);stroke-opacity:1;opacity:0.50000000000000000" />
    <rect
       style="fill:url(#linearGradient3924);fill-opacity:1;stroke:#333333;stroke-opacity:1"
       id="rect3821"
       width="4"
       height="17.999863"
       x="38.000011"
       y="988.36237"
       rx="2"
       ry="1.9999851" />
    <path
       sodipodi:type="arc"
       style="fill:url(#radialGradient3938);fill-opacity:1;stroke:#881f10;stroke-opacity:0.9948718"
       id="path3823"
       sodipodi:cx="-58.30357"
       sodipodi:cy="35.910713"
       sodipodi:rx="6.875"
       sodipodi:ry="6.875"
       d="m -51.42857,35.910713 a 6.875,6.875 0 1 1 -13.75,0 6.875,6.875 0 1 1 13.75,0 z"
       transform="matrix(1.0181818,0,0,0.99999252,99.363634,950.57665)" />
    <path
       sodipodi:type="arc"
       style="opacity:0.5;fill:url(#radialGradient3934);fill-opacity:1;stroke:none"
       id="path3926"
       sodipodi:cx="27.400389"
       sodipodi:cy="28.446049"
       sodipodi:rx="4.6719556"
       sodipodi:ry="3.1567266"
       d="m 32.072344,28.446049 a 4.6719556,3.1567266 0 1 1 -9.343911,0 4.6719556,3.1567266 0 1 1 9.343911,0 z"
       transform="matrix(1,0,0,0.99999514,12.599632,954.95435)" />
  </g>
</svg>
