<?xml version="1.0" encoding="UTF-8" standalone="no"?>
<!-- Created with Inkscape (http://www.inkscape.org/) -->

<svg
   xmlns:dc="http://purl.org/dc/elements/1.1/"
   xmlns:cc="http://creativecommons.org/ns#"
   xmlns:rdf="http://www.w3.org/1999/02/22-rdf-syntax-ns#"
   xmlns:svg="http://www.w3.org/2000/svg"
   xmlns="http://www.w3.org/2000/svg"
   xmlns:xlink="http://www.w3.org/1999/xlink"
   xmlns:sodipodi="http://sodipodi.sourceforge.net/DTD/sodipodi-0.dtd"
   xmlns:inkscape="http://www.inkscape.org/namespaces/inkscape"
   width="96"
   height="96"
   id="svg2"
   version="1.1"
   inkscape:version="0.48.3.1 r9886"
   sodipodi:docname="eog.svg">
  <defs
     id="defs4">
    <linearGradient
       id="linearGradient4015">
      <stop
         style="stop-color:#ffe17a;stop-opacity:1;"
         offset="0"
         id="stop4017" />
      <stop
         id="stop4023"
         offset="0.5"
         style="stop-color:#ffffc8;stop-opacity:1;" />
      <stop
         style="stop-color:#ffe196;stop-opacity:1;"
         offset="1"
         id="stop4019" />
    </linearGradient>
    <linearGradient
       id="linearGradient3959">
      <stop
         style="stop-color:#000000;stop-opacity:1;"
         offset="0"
         id="stop3961" />
      <stop
         style="stop-color:#843600;stop-opacity:1"
         offset="1"
         id="stop3963" />
    </linearGradient>
    <linearGradient
       id="linearGradient3945">
      <stop
         style="stop-color:#000000;stop-opacity:1;"
         offset="0"
         id="stop3947" />
      <stop
         id="stop3955"
         offset="0.0999108"
         style="stop-color:#000000;stop-opacity:0;" />
      <stop
         id="stop3953"
         offset="0.88959324"
         style="stop-color:#000000;stop-opacity:0;" />
      <stop
         style="stop-color:#000000;stop-opacity:1;"
         offset="1"
         id="stop3949" />
    </linearGradient>
    <linearGradient
       id="linearGradient3922">
      <stop
         id="stop3924"
         offset="0"
         style="stop-color:#b16000;stop-opacity:1;" />
      <stop
         id="stop3926"
         offset="1"
         style="stop-color:#7d2f00;stop-opacity:1;" />
    </linearGradient>
    <linearGradient
       id="linearGradient3914">
      <stop
         id="stop3916"
         offset="0"
         style="stop-color:#690e00;stop-opacity:1;" />
      <stop
         id="stop3918"
         offset="1"
         style="stop-color:#8f3220;stop-opacity:1;" />
    </linearGradient>
    <linearGradient
       id="linearGradient3784">
      <stop
         style="stop-color:#cd7220;stop-opacity:1;"
         offset="0"
         id="stop3786" />
      <stop
         style="stop-color:#d39936;stop-opacity:1;"
         offset="1"
         id="stop3788" />
    </linearGradient>
    <linearGradient
       id="linearGradient3776">
      <stop
         style="stop-color:#e5d554;stop-opacity:1;"
         offset="0"
         id="stop3778" />
      <stop
         style="stop-color:#e19332;stop-opacity:1;"
         offset="1"
         id="stop3780" />
    </linearGradient>
    <linearGradient
       id="linearGradient3817">
      <stop
         style="stop-color:#ffffff;stop-opacity:1;"
         offset="0"
         id="stop3819" />
      <stop
         id="stop3827"
         offset="0.05455951"
         style="stop-color:#ffffff;stop-opacity:0.23529412;" />
      <stop
         id="stop3825"
         offset="0.95526141"
         style="stop-color:#ffffff;stop-opacity:0.15686275;" />
      <stop
         style="stop-color:#ffffff;stop-opacity:0.39215687;"
         offset="1"
         id="stop3821" />
    </linearGradient>
    <radialGradient
       cx="4.9929786"
       cy="43.5"
       r="2.5"
       fx="4.9929786"
       fy="43.5"
       id="radialGradient2873-966-168"
       xlink:href="#linearGradient3688-166-749"
       gradientUnits="userSpaceOnUse"
       gradientTransform="matrix(2.003784,0,0,1.4,27.98813,-17.4)" />
    <linearGradient
       id="linearGradient3688-166-749">
      <stop
         id="stop2883"
         style="stop-color:#181818;stop-opacity:1"
         offset="0" />
      <stop
         id="stop2885"
         style="stop-color:#181818;stop-opacity:0"
         offset="1" />
    </linearGradient>
    <radialGradient
       cx="4.9929786"
       cy="43.5"
       r="2.5"
       fx="4.9929786"
       fy="43.5"
       id="radialGradient2875-742-326"
       xlink:href="#linearGradient3688-464-309"
       gradientUnits="userSpaceOnUse"
       gradientTransform="matrix(2.003784,0,0,1.4,-20.01187,-104.4)" />
    <linearGradient
       id="linearGradient3688-464-309">
      <stop
         id="stop2889"
         style="stop-color:#181818;stop-opacity:1"
         offset="0" />
      <stop
         id="stop2891"
         style="stop-color:#181818;stop-opacity:0"
         offset="1" />
    </linearGradient>
    <linearGradient
       x1="25.058096"
       y1="47.027729"
       x2="25.058096"
       y2="39.999443"
       id="linearGradient2877-634-617"
       xlink:href="#linearGradient3702-501-757"
       gradientUnits="userSpaceOnUse" />
    <linearGradient
       id="linearGradient3702-501-757">
      <stop
         id="stop2895"
         style="stop-color:#181818;stop-opacity:0"
         offset="0" />
      <stop
         id="stop2897"
         style="stop-color:#181818;stop-opacity:1"
         offset="0.5" />
      <stop
         id="stop2899"
         style="stop-color:#181818;stop-opacity:0"
         offset="1" />
    </linearGradient>
    <linearGradient
       inkscape:collect="always"
       xlink:href="#linearGradient3817"
       id="linearGradient3823"
       x1="47.214287"
       y1="965.25507"
       x2="47.214287"
       y2="1042.9185"
       gradientUnits="userSpaceOnUse" />
    <radialGradient
       inkscape:collect="always"
       xlink:href="#linearGradient3776"
       id="radialGradient3782"
       cx="48"
       cy="975.07648"
       fx="48"
       fy="975.07648"
       r="40"
       gradientUnits="userSpaceOnUse"
       gradientTransform="matrix(9.288957e-7,1.9211425,-1.5446687,7.4686605e-7,1554.1701,882.86091)" />
    <linearGradient
       inkscape:collect="always"
       xlink:href="#linearGradient3784"
       id="linearGradient3790"
       x1="23.535715"
       y1="1044.0873"
       x2="23.535715"
       y2="964.7193"
       gradientUnits="userSpaceOnUse" />
    <linearGradient
       inkscape:collect="always"
       xlink:href="#linearGradient3914"
       id="linearGradient3920"
       gradientUnits="userSpaceOnUse"
       x1="23.535715"
       y1="1044.0873"
       x2="23.535715"
       y2="964.7193" />
    <radialGradient
       inkscape:collect="always"
       xlink:href="#linearGradient3922"
       id="radialGradient3928"
       gradientUnits="userSpaceOnUse"
       gradientTransform="matrix(0,1.9211425,-0.58729562,0,603.94593,882.86165)"
       cx="48.278847"
       cy="992.53284"
       fx="48.278847"
       fy="992.53284"
       r="40" />
    <linearGradient
       inkscape:collect="always"
       xlink:href="#linearGradient3945"
       id="linearGradient3951"
       x1="20.321428"
       y1="976.50507"
       x2="20.321428"
       y2="1032.4242"
       gradientUnits="userSpaceOnUse" />
    <linearGradient
       inkscape:collect="always"
       xlink:href="#linearGradient3922"
       id="linearGradient3965"
       x1="19.504995"
       y1="31.708414"
       x2="19.504995"
       y2="18.28031"
       gradientUnits="userSpaceOnUse" />
    <linearGradient
       inkscape:collect="always"
       xlink:href="#linearGradient3922"
       id="linearGradient3985"
       x1="16.843439"
       y1="13.634712"
       x2="16.843439"
       y2="24.418991"
       gradientUnits="userSpaceOnUse" />
    <linearGradient
       inkscape:collect="always"
       xlink:href="#linearGradient3922"
       id="linearGradient3989"
       gradientUnits="userSpaceOnUse"
       x1="19.504995"
       y1="31.708414"
       x2="19.504995"
       y2="18.28031" />
    <linearGradient
       inkscape:collect="always"
       xlink:href="#linearGradient3922"
       id="linearGradient3991"
       gradientUnits="userSpaceOnUse"
       x1="16.843439"
       y1="13.634712"
       x2="16.843439"
       y2="24.418991" />
    <linearGradient
       inkscape:collect="always"
       xlink:href="#linearGradient4015"
       id="linearGradient4021"
       x1="18"
       y1="1004.3622"
       x2="22"
       y2="1004.3622"
       gradientUnits="userSpaceOnUse" />
    <linearGradient
       inkscape:collect="always"
       xlink:href="#linearGradient3922"
       id="linearGradient4219"
       x1="57.930206"
       y1="964.20862"
       x2="57.930206"
       y2="1042.3413"
       gradientUnits="userSpaceOnUse" />
    <linearGradient
       inkscape:collect="always"
       xlink:href="#linearGradient3922"
       id="linearGradient4227"
       gradientUnits="userSpaceOnUse"
       x1="57.930206"
       y1="964.20862"
       x2="57.930206"
       y2="1042.3413"
       gradientTransform="translate(0,1.0010172)" />
    <linearGradient
       inkscape:collect="always"
       xlink:href="#linearGradient3922"
       id="linearGradient4231"
       gradientUnits="userSpaceOnUse"
       x1="57.930206"
       y1="964.20862"
       x2="57.930206"
       y2="1042.3413"
       gradientTransform="translate(0,-956.36218)" />
    <radialGradient
       inkscape:collect="always"
       xlink:href="#linearGradient3922"
       id="radialGradient3830"
       gradientUnits="userSpaceOnUse"
       gradientTransform="matrix(5.5652901e-8,0.72202814,-0.61079986,4.7079584e-8,663.42479,936.47843)"
       cx="44.713707"
       cy="953.82275"
       fx="44.713707"
       fy="953.82275"
       r="40" />
    <linearGradient
       inkscape:collect="always"
       xlink:href="#linearGradient3914"
       id="linearGradient3832"
       gradientUnits="userSpaceOnUse"
       x1="23.535715"
       y1="1044.0873"
       x2="23.535715"
       y2="964.7193" />
    <radialGradient
       inkscape:collect="always"
       xlink:href="#linearGradient3922"
       id="radialGradient3839"
       gradientUnits="userSpaceOnUse"
       gradientTransform="matrix(0.31552572,0,0,-0.56226036,66.343313,1585.622)"
       cx="34.707596"
       cy="998.3241"
       fx="34.707596"
       fy="998.3241"
       r="40" />
    <linearGradient
       inkscape:collect="always"
       xlink:href="#linearGradient3914"
       id="linearGradient3841"
       gradientUnits="userSpaceOnUse"
       x1="70.002731"
       y1="943.82642"
       x2="70.002731"
       y2="983.91888"
       gradientTransform="matrix(1,0,0,-1,0,2008.7244)" />
    <linearGradient
       inkscape:collect="always"
       xlink:href="#linearGradient3817"
       id="linearGradient3845"
       gradientUnits="userSpaceOnUse"
       x1="66.659721"
       y1="1043.7944"
       x2="66.659721"
       y2="965.06824"
       gradientTransform="matrix(1,0,0,-1,0,2008.7244)" />
  </defs>
  <sodipodi:namedview
     id="base"
     pagecolor="#ffffff"
     bordercolor="#666666"
     borderopacity="1.0"
     inkscape:pageopacity="0.0"
     inkscape:pageshadow="2"
     inkscape:zoom="3.959798"
     inkscape:cx="28.837667"
     inkscape:cy="44.554471"
     inkscape:document-units="px"
     inkscape:current-layer="layer1"
     showgrid="false"
     inkscape:window-width="1280"
     inkscape:window-height="751"
     inkscape:window-x="0"
     inkscape:window-y="24"
     inkscape:window-maximized="1" />
  <metadata
     id="metadata7">
    <rdf:RDF>
      <cc:Work
         rdf:about="">
        <dc:format>image/svg+xml</dc:format>
        <dc:type
           rdf:resource="http://purl.org/dc/dcmitype/StillImage" />
        <dc:title />
      </cc:Work>
    </rdf:RDF>
  </metadata>
  <g
     inkscape:label="Livello 1"
     inkscape:groupmode="layer"
     id="layer1"
     transform="translate(0,-956.36218)">
    <g
       style="display:inline"
       id="g2036"
       transform="matrix(2.1999991,0,0,0.88888944,-4.8000008,1006.5844)">
      <g
         style="opacity:0.4"
         id="g3712"
         transform="matrix(1.052632,0,0,1.285713,-1.263158,-13.42854)">
        <rect
           style="fill:url(#radialGradient2873-966-168);fill-opacity:1;stroke:none"
           id="rect2801"
           y="40"
           x="38"
           height="7"
           width="5" />
        <rect
           style="fill:url(#radialGradient2875-742-326);fill-opacity:1;stroke:none"
           id="rect3696"
           transform="scale(-1,-1)"
           y="-47"
           x="-10"
           height="7"
           width="5" />
        <rect
           style="fill:url(#linearGradient2877-634-617);fill-opacity:1;stroke:none"
           id="rect3700"
           y="40"
           x="10"
           height="7.0000005"
           width="28" />
      </g>
    </g>
    <rect
       style="fill:url(#radialGradient3782);fill-opacity:1;stroke:url(#linearGradient3790);stroke-opacity:1"
       id="rect2985"
       width="79"
       height="79"
       x="8.5"
       y="964.86218"
       rx="3"
       ry="3" />
    <rect
       ry="2"
       rx="2"
       y="965.86218"
       x="9.5"
       height="77"
       width="77"
       id="rect3815"
       style="fill:none;stroke:url(#linearGradient3823);stroke-opacity:1;opacity:0.3" />
    <path
       style="fill:url(#radialGradient3928);fill-opacity:1;stroke:url(#linearGradient3920);stroke-opacity:1"
       d="m 11.5,964.86218 20,0 0,79.00002 -20,0 c -1.662,0 -3,-1.338 -3,-3 l 0,-73.00002 c 0,-1.662 1.338,-3 3,-3 z"
       id="rect3911"
       inkscape:connector-curvature="0"
       sodipodi:nodetypes="sccssss" />
    <path
       style="opacity:0.19999999;fill:none;stroke:url(#linearGradient3823);stroke-opacity:1"
       d="m 11.5,965.86218 19,0 0,77.00002 -19,0 c -1.108,0 -2,-0.892 -2,-2 l 0,-73.00002 c 0,-1.108 0.892,-2 2,-2 z"
       id="rect3930"
       inkscape:connector-curvature="0"
       sodipodi:nodetypes="sccssss" />
    <path
       sodipodi:type="arc"
       style="fill:url(#linearGradient3965);fill-opacity:1;stroke:url(#linearGradient3985);stroke-opacity:1;stroke-width:1.08258926999999994;stroke-miterlimit:4;stroke-dasharray:none"
       id="path3957"
       sodipodi:cx="19.866072"
       sodipodi:cy="22.026785"
       sodipodi:rx="4.3303571"
       sodipodi:ry="4.3303571"
       d="m 24.196429,22.026785 c 0,2.39159 -1.938767,4.330357 -4.330357,4.330357 -2.39159,0 -4.330357,-1.938767 -4.330357,-4.330357 0,-2.39159 1.938767,-4.330357 4.330357,-4.330357 2.39159,0 4.330357,1.938767 4.330357,4.330357 z"
       transform="matrix(0.92371135,0,0,0.92371135,1.6494841,958.01579)" />
    <rect
       style="opacity:0.3;fill:#ffffff;fill-opacity:1;stroke:none"
       id="rect3933"
       width="1"
       height="76"
       x="32"
       y="966.36218" />
    <path
       transform="matrix(0.92371135,0,0,0.92371135,1.6494841,1010.5158)"
       d="m 24.196429,22.026785 c 0,2.39159 -1.938767,4.330357 -4.330357,4.330357 -2.39159,0 -4.330357,-1.938767 -4.330357,-4.330357 0,-2.39159 1.938767,-4.330357 4.330357,-4.330357 2.39159,0 4.330357,1.938767 4.330357,4.330357 z"
       sodipodi:ry="4.3303571"
       sodipodi:rx="4.3303571"
       sodipodi:cy="22.026785"
       sodipodi:cx="19.866072"
       id="path3987"
       style="fill:url(#linearGradient3989);fill-opacity:1;stroke:url(#linearGradient3991);stroke-width:1.08258927;stroke-miterlimit:4;stroke-opacity:1;stroke-dasharray:none"
       sodipodi:type="arc" />
    <rect
       ry="2"
       rx="2"
       y="976.36218"
       x="18"
       height="56"
       width="4"
       id="rect3941"
       style="opacity:0.05000001;fill:#000000;fill-opacity:1;stroke:#000000;stroke-opacity:1;stroke-linejoin:round;stroke-width:3.00000009999999984;stroke-miterlimit:4;stroke-dasharray:none" />
    <rect
       style="opacity:0.1;fill:#000000;fill-opacity:1;stroke:#000000;stroke-opacity:1;stroke-linejoin:round;stroke-width:2;stroke-miterlimit:4;stroke-dasharray:none"
       id="rect3939"
       width="4"
       height="56"
       x="18"
       y="976.36218"
       rx="2"
       ry="2" />
    <rect
       ry="2"
       rx="2"
       y="976.36218"
       x="18"
       height="56"
       width="4"
       id="rect3937"
       style="opacity:0.15;fill:#000000;fill-opacity:1;stroke:#000000;stroke-opacity:1;stroke-linejoin:round" />
    <rect
       style="opacity:1;fill:url(#linearGradient4021);fill-opacity:1;stroke:none"
       id="rect3935"
       width="4"
       height="56"
       x="18"
       y="976.36218"
       rx="2"
       ry="2" />
    <rect
       ry="2"
       rx="2"
       y="976.36218"
       x="18"
       height="56"
       width="4"
       id="rect3943"
       style="opacity:0.15000001;fill:url(#linearGradient3951);fill-opacity:1;stroke:none" />
    <path
       inkscape:connector-curvature="0"
       id="path4221"
       d="m 40,986.36219 0,2 0,6 2,0 0,-6 6,0 0,-2 -6,0 -2,0 z m 10,0 0,2 8,0 0,-2 -8,0 z m 10,0 0,2 8,0 0,-2 -8,0 z m 10,0 0,2 6,0 0,6 2,0 0,-8 -8,0 z m -30,10 0,8.00001 2,0 0,-8.00001 -2,0 z m 36,0 0,8.00001 2,0 0,-8.00001 -2,0 z m -36,10.00001 0,8 2,0 0,-8 -2,0 z m 36,0 0,8 2,0 0,-8 -2,0 z m -36,10 0,6 0,2 8,0 0,-2 -6,0 0,-6 -2,0 z m 36,0 0,6 -6,0 0,2 8,0 0,-2 0,-6 -2,0 z m -26,6 0,2 8,0 0,-2 -8,0 z m 10,0 0,2 8,0 0,-2 -8,0 z"
       style="fill:#ffffff;fill-opacity:1;stroke:none;opacity:0.2" />
    <path
       style="fill:url(#linearGradient4219);fill-opacity:1;stroke:none"
       d="m 40,985.36219 0,2 0,6 2,0 0,-6 6,0 0,-2 -6,0 -2,0 z m 10,0 0,2 8,0 0,-2 -8,0 z m 10,0 0,2 8,0 0,-2 -8,0 z m 10,0 0,2 6,0 0,6 2,0 0,-8 -8,0 z m -30,10 0,8.00001 2,0 0,-8.00001 -2,0 z m 36,0 0,8.00001 2,0 0,-8.00001 -2,0 z m -36,10.00001 0,8 2,0 0,-8 -2,0 z m 36,0 0,8 2,0 0,-8 -2,0 z m -36,10 0,6 0,2 8,0 0,-2 -6,0 0,-6 -2,0 z m 36,0 0,6 -6,0 0,2 8,0 0,-2 0,-6 -2,0 z m -26,6 0,2 8,0 0,-2 -8,0 z m 10,0 0,2 8,0 0,-2 -8,0 z"
       id="rect4180"
       inkscape:connector-curvature="0" />
    <path
       style="fill:#000000;fill-opacity:1;stroke:none;opacity:0.2"
       d="M 40 29 L 40 30 L 42 30 L 48 30 L 48 29 L 42 29 L 40 29 z M 50 29 L 50 30 L 58 30 L 58 29 L 50 29 z M 60 29 L 60 30 L 68 30 L 68 29 L 60 29 z M 70 29 L 70 30 L 78 30 L 78 29 L 70 29 z M 40 39 L 40 40 L 42 40 L 42 39 L 40 39 z M 76 39 L 76 40 L 78 40 L 78 39 L 76 39 z M 40 49 L 40 50 L 42 50 L 42 49 L 40 49 z M 76 49 L 76 50 L 78 50 L 78 49 L 76 49 z M 40 59 L 40 60 L 42 60 L 42 59 L 40 59 z M 76 59 L 76 60 L 78 60 L 78 59 L 76 59 z M 42 65 L 42 66 L 48 66 L 48 65 L 42 65 z M 50 65 L 50 66 L 58 66 L 58 65 L 50 65 z M 60 65 L 60 66 L 68 66 L 68 65 L 60 65 z M 70 65 L 70 66 L 76 66 L 76 65 L 70 65 z "
       transform="translate(0,956.36218)"
       id="path4229" />
    <path
       style="fill:url(#radialGradient3830);fill-opacity:1;stroke:url(#linearGradient3832);stroke-opacity:1"
       d="m 68,964.86218 16.5,0 c 1.662,0 3,1.338 3,3 l 0,16.5 z"
       id="rect3058"
       inkscape:connector-curvature="0"
       sodipodi:nodetypes="csscc" />
    <path
       style="opacity:0.3;fill:none;stroke:url(#linearGradient3823);stroke-opacity:1"
       d="m 70.5,965.86218 14,0 c 1.108,0 2,0.892 2,2 l 0,14 z"
       id="rect3834"
       inkscape:connector-curvature="0"
       sodipodi:nodetypes="csscc" />
    <path
       sodipodi:nodetypes="csscc"
       inkscape:connector-curvature="0"
       id="path3837"
       d="m 68,1043.8622 16.5,0 c 1.662,0 3,-1.338 3,-3 l 0,-16.5 z"
       style="fill:url(#radialGradient3839);fill-opacity:1;stroke:url(#linearGradient3841);stroke-opacity:1" />
    <path
       sodipodi:nodetypes="csscc"
       inkscape:connector-curvature="0"
       id="path3843"
       d="m 70.5,1042.8622 14,0 c 1.108,0 2,-0.892 2,-2 l 0,-14 z"
       style="opacity:0.29999999999999999;fill:none;stroke:url(#linearGradient3845);stroke-opacity:1" />
  </g>
</svg>
