<?xml version="1.0" encoding="UTF-8" standalone="no"?>
<!-- Created with Inkscape (http://www.inkscape.org/) -->

<svg
   xmlns:i="http://ns.adobe.com/AdobeIllustrator/10.0/"
   xmlns:dc="http://purl.org/dc/elements/1.1/"
   xmlns:cc="http://creativecommons.org/ns#"
   xmlns:rdf="http://www.w3.org/1999/02/22-rdf-syntax-ns#"
   xmlns:svg="http://www.w3.org/2000/svg"
   xmlns="http://www.w3.org/2000/svg"
   xmlns:xlink="http://www.w3.org/1999/xlink"
   xmlns:sodipodi="http://sodipodi.sourceforge.net/DTD/sodipodi-0.dtd"
   xmlns:inkscape="http://www.inkscape.org/namespaces/inkscape"
   width="96"
   height="96"
   id="svg2"
   version="1.1"
   inkscape:version="0.48.5 r10040"
   sodipodi:docname="synaptic.svg">
  <defs
     id="defs4">
    <linearGradient
       id="linearGradient3850">
      <stop
         style="stop-color:#c8c8c8;stop-opacity:1;"
         offset="0"
         id="stop3852" />
      <stop
         style="stop-color:#c8c8c8;stop-opacity:0;"
         offset="1"
         id="stop3854" />
    </linearGradient>
    <linearGradient
       id="linearGradient3828">
      <stop
         style="stop-color:#b4b4b4;stop-opacity:1;"
         offset="0"
         id="stop3830" />
      <stop
         id="stop3840"
         offset="0.83296108"
         style="stop-color:#dcdcdc;stop-opacity:1;" />
      <stop
         id="stop3838"
         offset="0.9001683"
         style="stop-color:#f5f5f5;stop-opacity:1;" />
      <stop
         id="stop3836"
         offset="0.95752585"
         style="stop-color:#dcdcdc;stop-opacity:1;" />
      <stop
         style="stop-color:#b4b4b4;stop-opacity:1;"
         offset="1"
         id="stop3832" />
    </linearGradient>
    <linearGradient
       id="linearGradient3806">
      <stop
         style="stop-color:#646464;stop-opacity:1;"
         offset="0"
         id="stop3808" />
      <stop
         style="stop-color:#646464;stop-opacity:0;"
         offset="1"
         id="stop3810" />
    </linearGradient>
    <linearGradient
       id="linearGradient3784">
      <stop
         style="stop-color:#aaaaaa;stop-opacity:1;"
         offset="0"
         id="stop3786" />
      <stop
         style="stop-color:#dcdcdc;stop-opacity:1;"
         offset="1"
         id="stop3788" />
    </linearGradient>
    <linearGradient
       id="linearGradient3776">
      <stop
         style="stop-color:#ffffff;stop-opacity:1;"
         offset="0"
         id="stop3778" />
      <stop
         style="stop-color:#e6e6e6;stop-opacity:1;"
         offset="1"
         id="stop3780" />
    </linearGradient>
    <linearGradient
       id="linearGradient3817">
      <stop
         style="stop-color:#ffffff;stop-opacity:1;"
         offset="0"
         id="stop3819" />
      <stop
         id="stop3827"
         offset="0.05455951"
         style="stop-color:#ffffff;stop-opacity:0.23529412;" />
      <stop
         id="stop3825"
         offset="0.95526141"
         style="stop-color:#ffffff;stop-opacity:0.15686275;" />
      <stop
         style="stop-color:#ffffff;stop-opacity:0.39215687;"
         offset="1"
         id="stop3821" />
    </linearGradient>
    <radialGradient
       cx="4.9929786"
       cy="43.5"
       r="2.5"
       fx="4.9929786"
       fy="43.5"
       id="radialGradient2873-966-168"
       xlink:href="#linearGradient3688-166-749"
       gradientUnits="userSpaceOnUse"
       gradientTransform="matrix(2.003784,0,0,1.4,27.98813,-17.4)" />
    <linearGradient
       id="linearGradient3688-166-749">
      <stop
         id="stop2883"
         style="stop-color:#181818;stop-opacity:1"
         offset="0" />
      <stop
         id="stop2885"
         style="stop-color:#181818;stop-opacity:0"
         offset="1" />
    </linearGradient>
    <radialGradient
       cx="4.9929786"
       cy="43.5"
       r="2.5"
       fx="4.9929786"
       fy="43.5"
       id="radialGradient2875-742-326"
       xlink:href="#linearGradient3688-464-309"
       gradientUnits="userSpaceOnUse"
       gradientTransform="matrix(2.003784,0,0,1.4,-20.01187,-104.4)" />
    <linearGradient
       id="linearGradient3688-464-309">
      <stop
         id="stop2889"
         style="stop-color:#181818;stop-opacity:1"
         offset="0" />
      <stop
         id="stop2891"
         style="stop-color:#181818;stop-opacity:0"
         offset="1" />
    </linearGradient>
    <linearGradient
       x1="25.058096"
       y1="47.027729"
       x2="25.058096"
       y2="39.999443"
       id="linearGradient2877-634-617"
       xlink:href="#linearGradient3702-501-757"
       gradientUnits="userSpaceOnUse" />
    <linearGradient
       id="linearGradient3702-501-757">
      <stop
         id="stop2895"
         style="stop-color:#181818;stop-opacity:0"
         offset="0" />
      <stop
         id="stop2897"
         style="stop-color:#181818;stop-opacity:1"
         offset="0.5" />
      <stop
         id="stop2899"
         style="stop-color:#181818;stop-opacity:0"
         offset="1" />
    </linearGradient>
    <linearGradient
       inkscape:collect="always"
       xlink:href="#linearGradient3817"
       id="linearGradient3823"
       x1="47.214287"
       y1="965.25507"
       x2="47.214287"
       y2="1042.9185"
       gradientUnits="userSpaceOnUse" />
    <radialGradient
       inkscape:collect="always"
       xlink:href="#linearGradient3776"
       id="radialGradient3782"
       cx="48.714287"
       cy="971.86224"
       fx="48.714287"
       fy="971.86224"
       r="40"
       gradientUnits="userSpaceOnUse"
       gradientTransform="matrix(-9.524922e-7,2.1428757,-1.9913917,-8.8515869e-7,1984.0727,867.47438)" />
    <linearGradient
       inkscape:collect="always"
       xlink:href="#linearGradient3784"
       id="linearGradient3790"
       x1="23"
       y1="1044.427"
       x2="23"
       y2="964.7193"
       gradientUnits="userSpaceOnUse" />
    <linearGradient
       inkscape:collect="always"
       xlink:href="#linearGradient3806"
       id="linearGradient3812"
       x1="32.172886"
       y1="15.580146"
       x2="32.172886"
       y2="26.090691"
       gradientUnits="userSpaceOnUse" />
    <linearGradient
       inkscape:collect="always"
       xlink:href="#linearGradient3806"
       id="linearGradient3826"
       x1="31.467369"
       y1="15.423364"
       x2="31.467369"
       y2="26.24292"
       gradientUnits="userSpaceOnUse" />
    <radialGradient
       inkscape:collect="always"
       xlink:href="#linearGradient3828"
       id="radialGradient3834"
       cx="48.089287"
       cy="9.0710039"
       fx="48.089287"
       fy="9.0710039"
       r="19"
       gradientTransform="matrix(0.01011067,1.1153985,-1.0368352,0.00939845,57.008208,930.78095)"
       gradientUnits="userSpaceOnUse" />
    <linearGradient
       inkscape:collect="always"
       xlink:href="#linearGradient3850"
       id="linearGradient3856"
       x1="46.32143"
       y1="973.46918"
       x2="46.32143"
       y2="965.42706"
       gradientUnits="userSpaceOnUse"
       gradientTransform="translate(1.9999981,2.0002904)" />
    <linearGradient
       inkscape:collect="always"
       xlink:href="#linearGradient3784"
       id="linearGradient3866"
       gradientUnits="userSpaceOnUse"
       x1="23"
       y1="975.34387"
       x2="23"
       y2="964.7193"
       gradientTransform="translate(2,2.0002904)" />
    <radialGradient
       inkscape:collect="always"
       xlink:href="#linearGradient3776"
       id="radialGradient3868"
       gradientUnits="userSpaceOnUse"
       gradientTransform="matrix(-9.524922e-7,2.1428757,-1.9913917,-8.8515869e-7,1986.0727,869.47467)"
       cx="48.714287"
       cy="971.86224"
       fx="48.714287"
       fy="971.86224"
       r="40" />
    <linearGradient
       inkscape:collect="always"
       xlink:href="#linearGradient3806"
       id="linearGradient3911"
       gradientUnits="userSpaceOnUse"
       x1="32.172886"
       y1="15.580146"
       x2="32.172886"
       y2="26.090691" />
    <linearGradient
       inkscape:collect="always"
       xlink:href="#linearGradient3806"
       id="linearGradient3913"
       gradientUnits="userSpaceOnUse"
       x1="31.467369"
       y1="15.423364"
       x2="31.467369"
       y2="26.24292" />
    <radialGradient
       inkscape:collect="always"
       xlink:href="#linearGradient3776"
       id="radialGradient3925"
       gradientUnits="userSpaceOnUse"
       gradientTransform="matrix(-9.524922e-7,2.1428757,-1.9913917,-8.8515869e-7,1984.5727,867.97438)"
       cx="48.714287"
       cy="971.86224"
       fx="48.714287"
       fy="971.86224"
       r="40" />
  </defs>
  <sodipodi:namedview
     id="base"
     pagecolor="#ffffff"
     bordercolor="#666666"
     borderopacity="1.0"
     inkscape:pageopacity="0.0"
     inkscape:pageshadow="2"
     inkscape:zoom="4"
     inkscape:cx="13.250465"
     inkscape:cy="22.607402"
     inkscape:document-units="px"
     inkscape:current-layer="layer1"
     showgrid="false"
     inkscape:window-width="1600"
     inkscape:window-height="829"
     inkscape:window-x="0"
     inkscape:window-y="0"
     inkscape:window-maximized="1" />
  <metadata
     id="metadata7">
    <rdf:RDF>
      <cc:Work
         rdf:about="">
        <dc:format>image/svg+xml</dc:format>
        <dc:type
           rdf:resource="http://purl.org/dc/dcmitype/StillImage" />
        <dc:title />
      </cc:Work>
    </rdf:RDF>
  </metadata>
  <g
     inkscape:label="Livello 1"
     inkscape:groupmode="layer"
     id="layer1"
     transform="translate(0,-956.36218)">
    <g
       style="display:inline"
       id="g2036"
       transform="matrix(2.1999991,0,0,0.88888944,-4.8000008,1006.5844)">
      <g
         style="opacity:0.4"
         id="g3712"
         transform="matrix(1.052632,0,0,1.285713,-1.263158,-13.42854)">
        <rect
           style="fill:url(#radialGradient2873-966-168);fill-opacity:1;stroke:none"
           id="rect2801"
           y="40"
           x="38"
           height="7"
           width="5" />
        <rect
           style="fill:url(#radialGradient2875-742-326);fill-opacity:1;stroke:none"
           id="rect3696"
           transform="scale(-1,-1)"
           y="-47"
           x="-10"
           height="7"
           width="5" />
        <rect
           style="fill:url(#linearGradient2877-634-617);fill-opacity:1;stroke:none"
           id="rect3700"
           y="40"
           x="10"
           height="7.0000005"
           width="28" />
      </g>
    </g>
    <rect
       style="fill:url(#radialGradient3782);fill-opacity:1;stroke:url(#linearGradient3790);stroke-opacity:1"
       id="rect2985"
       width="79"
       height="79"
       x="8.5"
       y="964.86218"
       rx="3"
       ry="3" />
    <path
       transform="matrix(0.75932204,0,0,0.75931965,6.7966095,970.48415)"
       d="m 37.142857,20.910715 c 0,2.909357 -2.3585,5.267857 -5.267857,5.267857 -2.909357,0 -5.267857,-2.3585 -5.267857,-5.267857 0,-2.909357 2.3585,-5.267857 5.267857,-5.267857 2.909357,0 5.267857,2.3585 5.267857,5.267857 z"
       sodipodi:ry="5.2678571"
       sodipodi:rx="5.2678571"
       sodipodi:cy="20.910715"
       sodipodi:cx="31.875"
       id="path3818"
       style="opacity:0.3;fill:#ffffff;fill-opacity:1;stroke:none"
       sodipodi:type="arc" />
    <path
       sodipodi:type="arc"
       style="opacity:0.3;fill:#ffffff;fill-opacity:1;stroke:none"
       id="path3814"
       sodipodi:cx="31.875"
       sodipodi:cy="20.910715"
       sodipodi:rx="5.2678571"
       sodipodi:ry="5.2678571"
       d="m 37.142857,20.910715 c 0,2.909357 -2.3585,5.267857 -5.267857,5.267857 -2.909357,0 -5.267857,-2.3585 -5.267857,-5.267857 0,-2.909357 2.3585,-5.267857 5.267857,-5.267857 2.909357,0 5.267857,2.3585 5.267857,5.267857 z"
       transform="matrix(0.75932204,0,0,0.75931965,40.796609,970.48415)" />
    <g
       transform="matrix(0.71891976,0,0,0.71891976,29.8039,988.31626)"
       id="Layer_1"
       i:layer="yes"
       i:dimmedPercent="50"
       i:rgbTrio="#4F008000FFFF">
      <g
         id="g3144">
        <path
           style="fill:#a80030"
           inkscape:connector-curvature="0"
           i:knockout="Off"
           d="m 51.986,57.297 c -1.797,0.025 0.34,0.926 2.686,1.287 0.648,-0.506 1.236,-1.018 1.76,-1.516 -1.461,0.358 -2.948,0.366 -4.446,0.229"
           id="path3146" />
        <path
           style="fill:#a80030"
           inkscape:connector-curvature="0"
           i:knockout="Off"
           d="m 61.631,54.893 c 1.07,-1.477 1.85,-3.094 2.125,-4.766 -0.24,1.192 -0.887,2.221 -1.496,3.307 -3.359,2.115 -0.316,-1.256 -0.002,-2.537 -3.612,4.546 -0.496,2.726 -0.627,3.996"
           id="path3148" />
        <path
           style="fill:#a80030"
           inkscape:connector-curvature="0"
           i:knockout="Off"
           d="m 65.191,45.629 c 0.217,-3.236 -0.637,-2.213 -0.924,-0.978 0.335,0.174 0.6,2.281 0.924,0.978"
           id="path3150" />
        <path
           style="fill:#a80030"
           inkscape:connector-curvature="0"
           i:knockout="Off"
           d="m 45.172,1.399 c 0.959,0.172 2.072,0.304 1.916,0.533 1.049,-0.23 1.287,-0.442 -1.916,-0.533"
           id="path3152" />
        <path
           style="fill:#a80030"
           inkscape:connector-curvature="0"
           i:knockout="Off"
           d="M 47.088,1.932 46.41,2.072 47.041,2.016 47.088,1.932"
           id="path3154" />
        <path
           style="fill:#a80030"
           inkscape:connector-curvature="0"
           i:knockout="Off"
           d="m 76.992,46.856 c 0.107,2.906 -0.85,4.316 -1.713,6.812 l -1.553,0.776 c -1.271,2.468 0.123,1.567 -0.787,3.53 -1.984,1.764 -6.021,5.52 -7.313,5.863 -0.943,-0.021 0.639,-1.113 0.846,-1.541 -2.656,1.824 -2.131,2.738 -6.193,3.846 L 60.16,65.878 C 50.142,70.591 36.226,61.251 36.409,48.507 c -0.107,0.809 -0.304,0.607 -0.526,0.934 -0.517,-6.557 3.028,-13.143 9.007,-15.832 5.848,-2.895 12.704,-1.707 16.893,2.197 -2.301,-3.014 -6.881,-6.209 -12.309,-5.91 -5.317,0.084 -10.291,3.463 -11.951,7.131 -2.724,1.715 -3.04,6.611 -4.227,7.507 -1.597,11.737 3.004,16.808 10.787,22.773 1.225,0.826 0.345,0.951 0.511,1.58 -2.586,-1.211 -4.954,-3.039 -6.901,-5.277 1.033,1.512 2.148,2.982 3.589,4.137 -2.438,-0.826 -5.695,-5.908 -6.646,-6.115 4.203,7.525 17.052,13.197 23.78,10.383 -3.113,0.115 -7.068,0.064 -10.566,-1.229 -1.469,-0.756 -3.467,-2.322 -3.11,-2.615 9.182,3.43 18.667,2.598 26.612,-3.771 2.021,-1.574 4.229,-4.252 4.867,-4.289 -0.961,1.445 0.164,0.695 -0.574,1.971 2.014,-3.248 -0.875,-1.322 2.082,-5.609 l 1.092,1.504 0.747379,-3.181915 -0.01128,-39.136595 C 76.51241,12.099342 72.727999,9.1129714 69.225,7.24 70.063,8.007 71.121,8.97 70.741,9.121 67.335,7.093 67.934,6.935 67.446,6.078 64.671,4.949 64.489,6.169 62.651,6.08 57.421,3.306 56.413,3.601 51.6,1.863 l 0.219,1.023 c -3.465,-1.154 -4.037,0.438 -7.782,0.004 -0.228,-0.178 1.2,-0.644 2.375,-0.815 -3.35,0.442 -3.193,-0.66 -6.471,0.122 0.808,-0.567 1.662,-0.942 2.524,-1.424 -2.732,0.166 -6.522,1.59 -5.352,0.295 -4.456,1.988 -12.37,4.779 -16.811,8.943 l -0.14,-0.933 c -2.035,2.443 -8.874,7.296 -9.419,10.46 l -0.544,0.127 c -1.059,1.793 -1.744,3.825 -2.584,5.67 -1.385,2.36 -2.03,0.908 -1.833,1.278 -2.724,5.523 -4.077,10.164 -5.246,13.97 0.833,1.245 0.02,7.495 0.335,12.497 -0.44936673,8.11488 1.267292,16.152286 4.5001788,23.483794 l 8.0204652,0.0038 C 13.089667,75.876933 12.926338,75.30827 12.964,74.984 c 0.836,1.129 1.416,1.34 1.99,1.533 -3.957,-9.818 -4.179,-0.541 -7.176,-9.994 L 8.412,66.472 C 7.926,65.74 7.631,64.945 7.24,64.165 l 0.276,-2.75 C 4.667,58.121 6.719,47.409 7.13,41.534 7.415,39.145 9.508,36.602 11.1,32.614 l -0.97,-0.167 c 1.854,-3.234 10.586,-12.988 14.63,-12.486 1.959,-2.461 -0.389,-0.009 -0.772,-0.629 4.303,-4.453 5.656,-3.146 8.56,-3.947 3.132,-1.859 -2.688,0.725 -1.203,-0.709 5.414,-1.383 3.837,-3.144 10.9,-3.846 0.745,0.424 -1.729,0.655 -2.35,1.205 4.511,-2.207 14.275,-1.705 20.617,1.225 7.359,3.439 15.627,13.605 15.953,23.17 l 0.371,0.1 c -0.188,3.802 0.582,8.199 -0.752,12.238 l 0.908,-1.912"
           id="path3156"
           sodipodi:nodetypes="ccccccccccccccccccccccccccccccccccccccccccccccccccccccccccccccccccccccc" />
        <path
           style="fill:#a80030"
           inkscape:connector-curvature="0"
           i:knockout="Off"
           d="m 32.372,59.764 -0.252,1.26 c 1.181,1.604 2.118,3.342 3.626,4.596 -1.085,-2.118 -1.891,-2.993 -3.374,-5.856"
           id="path3158" />
        <path
           style="fill:#a80030"
           inkscape:connector-curvature="0"
           i:knockout="Off"
           d="m 35.164,59.654 c -0.625,-0.691 -0.995,-1.523 -1.409,-2.352 0.396,1.457 1.207,2.709 1.962,3.982 l -0.553,-1.63"
           id="path3160" />
        <path
           style="fill:#a80030"
           inkscape:connector-curvature="0"
           i:knockout="Off"
           d="M 45.527,0.537 C 46.742,0.092 48.514,0.293 49.803,0 48.123,0.141 46.451,0.225 44.8,0.438 l 0.727,0.099"
           id="path3164" />
        <path
           style="fill:#a80030"
           inkscape:connector-curvature="0"
           i:knockout="Off"
           d="m 2.872,23.219 c 0.28,2.592 -1.95,3.598 0.494,1.889 1.31,-2.951 -0.512,-0.815 -0.494,-1.889"
           id="path3166" />
        <path
           style="fill:#a80030"
           inkscape:connector-curvature="0"
           i:knockout="Off"
           d="M 0,35.215 C 0.563,33.487 0.665,32.449 0.88,31.449 -0.676,33.438 0.164,33.862 0,35.215"
           id="path3168" />
      </g>
    </g>
    <rect
       ry="2"
       rx="2"
       y="965.86218"
       x="9.5"
       height="77"
       width="77"
       id="rect3815"
       style="fill:none;stroke:url(#linearGradient3823);stroke-opacity:1;opacity:0.50000000000000000" />
    <path
       sodipodi:type="arc"
       style="fill:url(#linearGradient3913);fill-opacity:1;stroke:none"
       id="path3792"
       sodipodi:cx="31.875"
       sodipodi:cy="20.910715"
       sodipodi:rx="5.2678571"
       sodipodi:ry="5.2678571"
       d="m 37.142857,20.910715 c 0,2.909357 -2.3585,5.267857 -5.267857,5.267857 -2.909357,0 -5.267857,-2.3585 -5.267857,-5.267857 0,-2.909357 2.3585,-5.267857 5.267857,-5.267857 2.909357,0 5.267857,2.3585 5.267857,5.267857 z"
       transform="matrix(0.56949153,0,0,0.56948973,12.847457,974.45362)" />
    <path
       transform="matrix(0.56949153,0,0,0.56948973,46.847457,974.45362)"
       d="m 37.142857,20.910715 c 0,2.909357 -2.3585,5.267857 -5.267857,5.267857 -2.909357,0 -5.267857,-2.3585 -5.267857,-5.267857 0,-2.909357 2.3585,-5.267857 5.267857,-5.267857 2.909357,0 5.267857,2.3585 5.267857,5.267857 z"
       sodipodi:ry="5.2678571"
       sodipodi:rx="5.2678571"
       sodipodi:cy="20.910715"
       sodipodi:cx="31.875"
       id="path3794"
       style="fill:url(#linearGradient3911);fill-opacity:1;stroke:none"
       sodipodi:type="arc" />
    <path
       id="path3842"
       d="m 31,983.36205 c -1.104569,0 -2,1.19391 -2,2.66666 0,13.99119 8.50659,25.33349 19,25.33349 10.49341,0 19,-11.3423 19,-25.33349 0,-1.47275 -0.895431,-2.66666 -2,-2.66666 -1.104569,0 -2,1.19391 -2,2.66666 0,11.04566 -6.715729,20.00009 -15,20.00009 -8.284271,0 -15,-8.95443 -15,-20.00009 0,-1.47275 -0.895431,-2.66666 -2,-2.66666 z"
       style="opacity:0.05;fill:#000000;fill-opacity:1;stroke:none"
       inkscape:connector-curvature="0" />
    <path
       style="fill:url(#radialGradient3834);fill-opacity:1;stroke:none"
       d="m 31,984.36207 c -1.104569,0 -2,0.89543 -2,2 0,10.49337 8.50659,19.00013 19,19.00013 10.49341,0 19,-8.50676 19,-19.00013 0,-1.10457 -0.895431,-2 -2,-2 -1.104569,0 -2,0.89543 -2,2 0,8.28423 -6.715729,15.00013 -15,15.00013 -8.284271,0 -15,-6.7159 -15,-15.00013 0,-1.10457 -0.895431,-2 -2,-2 z"
       id="path3796"
       inkscape:connector-curvature="0" />
    <rect
       ry="0.5"
       rx="0.5"
       y="969.3623"
       x="9.9999981"
       height="6"
       width="76"
       id="rect3870"
       style="opacity:0.25;fill:#ffffff;fill-opacity:1;stroke:none" />
    <rect
       ry="1"
       rx="1"
       y="966.862"
       x="10.5"
       height="7"
       width="75"
       id="rect3846"
       style="fill:url(#radialGradient3868);fill-opacity:1;stroke:url(#linearGradient3866);stroke-opacity:1" />
    <rect
       style="opacity:1;fill:url(#linearGradient3856);fill-opacity:1;stroke:none"
       id="rect3848"
       width="74"
       height="6"
       x="11"
       y="967.36188"
       rx="0.5"
       ry="0.5" />
  </g>
</svg>
