<?xml version="1.0" encoding="UTF-8" standalone="no"?>
<!-- Created with Inkscape (http://www.inkscape.org/) -->

<svg
   xmlns:dc="http://purl.org/dc/elements/1.1/"
   xmlns:cc="http://creativecommons.org/ns#"
   xmlns:rdf="http://www.w3.org/1999/02/22-rdf-syntax-ns#"
   xmlns:svg="http://www.w3.org/2000/svg"
   xmlns="http://www.w3.org/2000/svg"
   xmlns:xlink="http://www.w3.org/1999/xlink"
   xmlns:sodipodi="http://sodipodi.sourceforge.net/DTD/sodipodi-0.dtd"
   xmlns:inkscape="http://www.inkscape.org/namespaces/inkscape"
   width="96"
   height="96"
   id="svg2"
   version="1.1"
   inkscape:version="0.48.4 r9939"
   sodipodi:docname="thunderbird1.svg">
  <defs
     id="defs4">
    <linearGradient
       id="linearGradient4244">
      <stop
         id="stop4246"
         offset="0"
         style="stop-color:#ffffff;stop-opacity:1;" />
      <stop
         id="stop4248"
         offset="1"
         style="stop-color:#f0f0f0;stop-opacity:1;" />
    </linearGradient>
    <linearGradient
       id="linearGradient4186">
      <stop
         style="stop-color:#3c9bdd;stop-opacity:1;"
         offset="0"
         id="stop4188" />
      <stop
         style="stop-color:#1a3ed1;stop-opacity:1;"
         offset="1"
         id="stop4190" />
    </linearGradient>
    <linearGradient
       id="linearGradient4178">
      <stop
         style="stop-color:#3acfe9;stop-opacity:1;"
         offset="0"
         id="stop4180" />
      <stop
         style="stop-color:#145cc5;stop-opacity:1;"
         offset="1"
         id="stop4182" />
    </linearGradient>
    <linearGradient
       id="linearGradient4168">
      <stop
         style="stop-color:#d2d2d2;stop-opacity:1;"
         offset="0"
         id="stop4170" />
      <stop
         style="stop-color:#b4b4b4;stop-opacity:1;"
         offset="1"
         id="stop4172" />
    </linearGradient>
    <linearGradient
       id="linearGradient4160">
      <stop
         style="stop-color:#f5f5f5;stop-opacity:1;"
         offset="0"
         id="stop4162" />
      <stop
         style="stop-color:#dcdcdc;stop-opacity:1;"
         offset="1"
         id="stop4164" />
    </linearGradient>
    <linearGradient
       id="linearGradient3817">
      <stop
         style="stop-color:#ffffff;stop-opacity:1;"
         offset="0"
         id="stop3819" />
      <stop
         id="stop3827"
         offset="0.05455951"
         style="stop-color:#ffffff;stop-opacity:0.23529412;" />
      <stop
         id="stop3825"
         offset="0.95526141"
         style="stop-color:#ffffff;stop-opacity:0.15686275;" />
      <stop
         style="stop-color:#ffffff;stop-opacity:0.39215687;"
         offset="1"
         id="stop3821" />
    </linearGradient>
    <radialGradient
       cx="4.9929786"
       cy="43.5"
       r="2.5"
       fx="4.9929786"
       fy="43.5"
       id="radialGradient2873-966-168"
       xlink:href="#linearGradient3688-166-749"
       gradientUnits="userSpaceOnUse"
       gradientTransform="matrix(2.003784,0,0,1.4,27.98813,-17.4)" />
    <linearGradient
       id="linearGradient3688-166-749">
      <stop
         id="stop2883"
         style="stop-color:#181818;stop-opacity:1"
         offset="0" />
      <stop
         id="stop2885"
         style="stop-color:#181818;stop-opacity:0"
         offset="1" />
    </linearGradient>
    <radialGradient
       cx="4.9929786"
       cy="43.5"
       r="2.5"
       fx="4.9929786"
       fy="43.5"
       id="radialGradient2875-742-326"
       xlink:href="#linearGradient3688-464-309"
       gradientUnits="userSpaceOnUse"
       gradientTransform="matrix(2.003784,0,0,1.4,-20.01187,-104.4)" />
    <linearGradient
       id="linearGradient3688-464-309">
      <stop
         id="stop2889"
         style="stop-color:#181818;stop-opacity:1"
         offset="0" />
      <stop
         id="stop2891"
         style="stop-color:#181818;stop-opacity:0"
         offset="1" />
    </linearGradient>
    <linearGradient
       x1="25.058096"
       y1="47.027729"
       x2="25.058096"
       y2="39.999443"
       id="linearGradient2877-634-617"
       xlink:href="#linearGradient3702-501-757"
       gradientUnits="userSpaceOnUse" />
    <linearGradient
       id="linearGradient3702-501-757">
      <stop
         id="stop2895"
         style="stop-color:#181818;stop-opacity:0"
         offset="0" />
      <stop
         id="stop2897"
         style="stop-color:#181818;stop-opacity:1"
         offset="0.5" />
      <stop
         id="stop2899"
         style="stop-color:#181818;stop-opacity:0"
         offset="1" />
    </linearGradient>
    <linearGradient
       inkscape:collect="always"
       xlink:href="#linearGradient3817"
       id="linearGradient3823"
       x1="47.214287"
       y1="965.25507"
       x2="47.214287"
       y2="1042.9185"
       gradientUnits="userSpaceOnUse"
       gradientTransform="translate(0,-956.36218)" />
    <radialGradient
       inkscape:collect="always"
       xlink:href="#linearGradient4160"
       id="radialGradient4166"
       cx="49.262691"
       cy="20.725882"
       fx="49.262691"
       fy="20.725882"
       r="40"
       gradientUnits="userSpaceOnUse"
       gradientTransform="matrix(1.1146904e-8,1.9826183,-1.8023505,1.0133382e-8,86.617993,-76.943231)" />
    <linearGradient
       inkscape:collect="always"
       xlink:href="#linearGradient4168"
       id="linearGradient4174"
       x1="22.89975"
       y1="7.8464365"
       x2="22.89975"
       y2="88.228973"
       gradientUnits="userSpaceOnUse" />
    <radialGradient
       inkscape:collect="always"
       xlink:href="#linearGradient4178"
       id="radialGradient4184"
       cx="49.262695"
       cy="984.91669"
       fx="49.262695"
       fy="984.91669"
       r="28"
       gradientUnits="userSpaceOnUse"
       gradientTransform="matrix(-1.7179762e-6,1.9393054,-1.6773146,-1.4858859e-6,1701.278,889.3828)" />
    <linearGradient
       inkscape:collect="always"
       xlink:href="#linearGradient4186"
       id="linearGradient4192"
       x1="31.616755"
       y1="976.58301"
       x2="31.616755"
       y2="1031.6522"
       gradientUnits="userSpaceOnUse" />
    <linearGradient
       inkscape:collect="always"
       xlink:href="#linearGradient4186"
       id="linearGradient4233"
       gradientUnits="userSpaceOnUse"
       x1="31.616755"
       y1="976.58301"
       x2="31.616755"
       y2="1031.6522" />
    <radialGradient
       inkscape:collect="always"
       xlink:href="#linearGradient4244"
       id="radialGradient4242"
       cx="36.068764"
       cy="14.034444"
       fx="36.068764"
       fy="14.034444"
       r="20.109375"
       gradientTransform="matrix(-3.8759169e-8,1.3192934,-1.6700345,-4.9063498e-8,60.506771,932.22106)"
       gradientUnits="userSpaceOnUse" />
  </defs>
  <sodipodi:namedview
     id="base"
     pagecolor="#ffffff"
     bordercolor="#666666"
     borderopacity="1.0"
     inkscape:pageopacity="0.0"
     inkscape:pageshadow="2"
     inkscape:zoom="0.98994949"
     inkscape:cx="-13.041877"
     inkscape:cy="25.721984"
     inkscape:document-units="px"
     inkscape:current-layer="layer1"
     showgrid="false"
     inkscape:window-width="1280"
     inkscape:window-height="748"
     inkscape:window-x="0"
     inkscape:window-y="26"
     inkscape:window-maximized="1" />
  <metadata
     id="metadata7">
    <rdf:RDF>
      <cc:Work
         rdf:about="">
        <dc:format>image/svg+xml</dc:format>
        <dc:type
           rdf:resource="http://purl.org/dc/dcmitype/StillImage" />
        <dc:title />
      </cc:Work>
    </rdf:RDF>
  </metadata>
  <g
     inkscape:label="Livello 1"
     inkscape:groupmode="layer"
     id="layer1"
     transform="translate(0,-956.36218)">
    <g
       style="display:inline"
       id="g2036"
       transform="matrix(2.1999991,0,0,0.88888944,-4.8000008,1006.5844)">
      <g
         style="opacity:0.4"
         id="g3712"
         transform="matrix(1.052632,0,0,1.285713,-1.263158,-13.42854)">
        <rect
           style="fill:url(#radialGradient2873-966-168);fill-opacity:1;stroke:none"
           id="rect2801"
           y="40"
           x="38"
           height="7"
           width="5" />
        <rect
           style="fill:url(#radialGradient2875-742-326);fill-opacity:1;stroke:none"
           id="rect3696"
           transform="scale(-1,-1)"
           y="-47"
           x="-10"
           height="7"
           width="5" />
        <rect
           style="fill:url(#linearGradient2877-634-617);fill-opacity:1;stroke:none"
           id="rect3700"
           y="40"
           x="10"
           height="7.0000005"
           width="28" />
      </g>
    </g>
    <path
       style="fill:url(#radialGradient4166);fill-opacity:1;stroke:url(#linearGradient4174);stroke-opacity:1;stroke-linejoin:round"
       d="M 11.5 8.5 C 9.838 8.5 8.5 9.838 8.5 11.5 L 8.5 12.78125 C 8.794544 12.610478 9.1350769 12.5 9.5 12.5 C 10.604442 12.5 11.5 13.39556 11.5 14.5 C 11.5 15.60444 10.604442 16.5 9.5 16.5 C 9.1350769 16.5 8.794544 16.389522 8.5 16.21875 L 8.5 18.78125 C 8.794544 18.610478 9.1350769 18.5 9.5 18.5 C 10.604442 18.5 11.5 19.39556 11.5 20.5 C 11.5 21.60444 10.604442 22.5 9.5 22.5 C 9.1350769 22.5 8.794544 22.389522 8.5 22.21875 L 8.5 24.78125 C 8.794544 24.610478 9.1350769 24.5 9.5 24.5 C 10.604442 24.5 11.5 25.39556 11.5 26.5 C 11.5 27.60444 10.604442 28.5 9.5 28.5 C 9.1350769 28.5 8.794544 28.389522 8.5 28.21875 L 8.5 30.78125 C 8.794544 30.610478 9.1350769 30.5 9.5 30.5 C 10.604442 30.5 11.5 31.39556 11.5 32.5 C 11.5 33.60444 10.604442 34.5 9.5 34.5 C 9.1350769 34.5 8.794544 34.389522 8.5 34.21875 L 8.5 36.78125 C 8.794544 36.610478 9.1350769 36.5 9.5 36.5 C 10.604442 36.5 11.5 37.39556 11.5 38.5 C 11.5 39.60444 10.604442 40.5 9.5 40.5 C 9.1350769 40.5 8.794544 40.389522 8.5 40.21875 L 8.5 42.78125 C 8.794544 42.610476 9.1350769 42.5 9.5 42.5 C 10.604442 42.5 11.5 43.39553 11.5 44.5 C 11.5 45.6044 10.604442 46.5 9.5 46.5 C 9.1350769 46.5 8.794544 46.389527 8.5 46.21875 L 8.5 48.78125 C 8.794544 48.610484 9.1350769 48.5 9.5 48.5 C 10.604442 48.5 11.5 49.3955 11.5 50.5 C 11.5 51.6044 10.604442 52.5 9.5 52.5 C 9.1350769 52.5 8.794544 52.389527 8.5 52.21875 L 8.5 54.78125 C 8.794544 54.610484 9.1350769 54.5 9.5 54.5 C 10.604442 54.5 11.5 55.3955 11.5 56.5 C 11.5 57.6044 10.604442 58.5 9.5 58.5 C 9.1350769 58.5 8.794544 58.389527 8.5 58.21875 L 8.5 60.78125 C 8.794544 60.610484 9.1350769 60.5 9.5 60.5 C 10.604442 60.5 11.5 61.3955 11.5 62.5 C 11.5 63.6044 10.604442 64.5 9.5 64.5 C 9.1350769 64.5 8.794544 64.389527 8.5 64.21875 L 8.5 66.78125 C 8.794544 66.610484 9.1350769 66.5 9.5 66.5 C 10.604442 66.5 11.5 67.3955 11.5 68.5 C 11.5 69.6044 10.604442 70.5 9.5 70.5 C 9.1350769 70.5 8.794544 70.389527 8.5 70.21875 L 8.5 72.78125 C 8.794544 72.610484 9.1350769 72.5 9.5 72.5 C 10.604442 72.5 11.5 73.3955 11.5 74.5 C 11.5 75.6044 10.604442 76.5 9.5 76.5 C 9.1350769 76.5 8.794544 76.389527 8.5 76.21875 L 8.5 78.78125 C 8.794544 78.610484 9.1350769 78.5 9.5 78.5 C 10.604442 78.5 11.5 79.3955 11.5 80.5 C 11.5 81.6044 10.604442 82.5 9.5 82.5 C 9.1350769 82.5 8.794544 82.389527 8.5 82.21875 L 8.5 84.5 C 8.5 86.162 9.838 87.5 11.5 87.5 L 12.78125 87.5 C 12.610478 87.205456 12.5 86.864909 12.5 86.5 C 12.5 85.3955 13.395558 84.5 14.5 84.5 C 15.604442 84.5 16.5 85.3955 16.5 86.5 C 16.5 86.864909 16.389522 87.205456 16.21875 87.5 L 18.78125 87.5 C 18.610478 87.205456 18.5 86.864909 18.5 86.5 C 18.5 85.3955 19.395558 84.5 20.5 84.5 C 21.604442 84.5 22.5 85.3955 22.5 86.5 C 22.5 86.864909 22.389522 87.205456 22.21875 87.5 L 24.78125 87.5 C 24.610478 87.205456 24.5 86.864909 24.5 86.5 C 24.5 85.3955 25.395558 84.5 26.5 84.5 C 27.604442 84.5 28.5 85.3955 28.5 86.5 C 28.5 86.864909 28.389522 87.205456 28.21875 87.5 L 30.78125 87.5 C 30.610478 87.205456 30.5 86.864909 30.5 86.5 C 30.5 85.3955 31.395558 84.5 32.5 84.5 C 33.604442 84.5 34.5 85.3955 34.5 86.5 C 34.5 86.864909 34.389522 87.205456 34.21875 87.5 L 36.78125 87.5 C 36.610478 87.205456 36.5 86.864909 36.5 86.5 C 36.5 85.3955 37.395558 84.5 38.5 84.5 C 39.604442 84.5 40.5 85.3955 40.5 86.5 C 40.5 86.864909 40.389522 87.205456 40.21875 87.5 L 42.78125 87.5 C 42.610478 87.205456 42.5 86.864909 42.5 86.5 C 42.5 85.3955 43.395558 84.5 44.5 84.5 C 45.604442 84.5 46.5 85.3955 46.5 86.5 C 46.5 86.864909 46.389522 87.205456 46.21875 87.5 L 48.78125 87.5 C 48.610478 87.205456 48.5 86.864909 48.5 86.5 C 48.5 85.3955 49.395558 84.5 50.5 84.5 C 51.604442 84.5 52.5 85.3955 52.5 86.5 C 52.5 86.864909 52.389522 87.205456 52.21875 87.5 L 54.78125 87.5 C 54.610478 87.205456 54.5 86.864909 54.5 86.5 C 54.5 85.3955 55.395558 84.5 56.5 84.5 C 57.604442 84.5 58.5 85.3955 58.5 86.5 C 58.5 86.864909 58.389522 87.205456 58.21875 87.5 L 60.78125 87.5 C 60.610478 87.205456 60.5 86.864909 60.5 86.5 C 60.5 85.3955 61.395558 84.5 62.5 84.5 C 63.604442 84.5 64.5 85.3955 64.5 86.5 C 64.5 86.864909 64.389522 87.205456 64.21875 87.5 L 66.78125 87.5 C 66.610478 87.205456 66.5 86.864909 66.5 86.5 C 66.5 85.3955 67.395558 84.5 68.5 84.5 C 69.604442 84.5 70.5 85.3955 70.5 86.5 C 70.5 86.864909 70.389522 87.205456 70.21875 87.5 L 72.78125 87.5 C 72.610478 87.205456 72.5 86.864909 72.5 86.5 C 72.5 85.3955 73.395558 84.5 74.5 84.5 C 75.604442 84.5 76.5 85.3955 76.5 86.5 C 76.5 86.864909 76.389522 87.205456 76.21875 87.5 L 78.78125 87.5 C 78.610478 87.205456 78.5 86.864909 78.5 86.5 C 78.5 85.3955 79.395558 84.5 80.5 84.5 C 81.604442 84.5 82.5 85.3955 82.5 86.5 C 82.5 86.864909 82.389522 87.205456 82.21875 87.5 L 84.5 87.5 C 86.162 87.5 87.5 86.162 87.5 84.5 L 87.5 82.21875 C 87.205456 82.389527 86.864923 82.5 86.5 82.5 C 85.395558 82.5 84.5 81.6044 84.5 80.5 C 84.5 79.3955 85.395558 78.5 86.5 78.5 C 86.864923 78.5 87.205456 78.610484 87.5 78.78125 L 87.5 76.21875 C 87.205456 76.389527 86.864923 76.5 86.5 76.5 C 85.395558 76.5 84.5 75.6044 84.5 74.5 C 84.5 73.3955 85.395558 72.5 86.5 72.5 C 86.864923 72.5 87.205456 72.610484 87.5 72.78125 L 87.5 70.21875 C 87.205456 70.389527 86.864923 70.5 86.5 70.5 C 85.395558 70.5 84.5 69.6044 84.5 68.5 C 84.5 67.3955 85.395558 66.5 86.5 66.5 C 86.864923 66.5 87.205456 66.610484 87.5 66.78125 L 87.5 64.21875 C 87.205456 64.389527 86.864923 64.5 86.5 64.5 C 85.395558 64.5 84.5 63.6044 84.5 62.5 C 84.5 61.3955 85.395558 60.5 86.5 60.5 C 86.864923 60.5 87.205456 60.610484 87.5 60.78125 L 87.5 58.21875 C 87.205456 58.389527 86.864923 58.5 86.5 58.5 C 85.395558 58.5 84.5 57.6044 84.5 56.5 C 84.5 55.3955 85.395558 54.5 86.5 54.5 C 86.864923 54.5 87.205456 54.610484 87.5 54.78125 L 87.5 52.21875 C 87.205456 52.389527 86.864923 52.5 86.5 52.5 C 85.395558 52.5 84.5 51.6044 84.5 50.5 C 84.5 49.3955 85.395558 48.5 86.5 48.5 C 86.864923 48.5 87.205456 48.610484 87.5 48.78125 L 87.5 46.21875 C 87.205456 46.389527 86.864923 46.5 86.5 46.5 C 85.395558 46.5 84.5 45.6044 84.5 44.5 C 84.5 43.39553 85.395558 42.5 86.5 42.5 C 86.864923 42.5 87.205456 42.610476 87.5 42.78125 L 87.5 40.21875 C 87.205456 40.389522 86.864923 40.5 86.5 40.5 C 85.395558 40.5 84.5 39.60444 84.5 38.5 C 84.5 37.39556 85.395558 36.5 86.5 36.5 C 86.864923 36.5 87.205456 36.610478 87.5 36.78125 L 87.5 34.21875 C 87.205456 34.389522 86.864923 34.5 86.5 34.5 C 85.395558 34.5 84.5 33.60444 84.5 32.5 C 84.5 31.39556 85.395558 30.5 86.5 30.5 C 86.864923 30.5 87.205456 30.610478 87.5 30.78125 L 87.5 28.21875 C 87.205456 28.389522 86.864923 28.5 86.5 28.5 C 85.395558 28.5 84.5 27.60444 84.5 26.5 C 84.5 25.39556 85.395558 24.5 86.5 24.5 C 86.864923 24.5 87.205456 24.610478 87.5 24.78125 L 87.5 22.21875 C 87.205456 22.389522 86.864923 22.5 86.5 22.5 C 85.395558 22.5 84.5 21.60444 84.5 20.5 C 84.5 19.39556 85.395558 18.5 86.5 18.5 C 86.864923 18.5 87.205456 18.610478 87.5 18.78125 L 87.5 16.21875 C 87.205456 16.389522 86.864923 16.5 86.5 16.5 C 85.395558 16.5 84.5 15.60444 84.5 14.5 C 84.5 13.39556 85.395558 12.5 86.5 12.5 C 86.864923 12.5 87.205456 12.610478 87.5 12.78125 L 87.5 11.5 C 87.5 9.838 86.162 8.5 84.5 8.5 L 82.21875 8.5 C 82.389522 8.7945439 82.5 9.1350775 82.5 9.5 C 82.5 10.60444 81.604442 11.5 80.5 11.5 C 79.395558 11.5 78.5 10.60444 78.5 9.5 C 78.5 9.1350775 78.610478 8.7945439 78.78125 8.5 L 76.21875 8.5 C 76.389522 8.7945439 76.5 9.1350775 76.5 9.5 C 76.5 10.60444 75.604442 11.5 74.5 11.5 C 73.395558 11.5 72.5 10.60444 72.5 9.5 C 72.5 9.1350775 72.610478 8.7945439 72.78125 8.5 L 70.21875 8.5 C 70.389522 8.7945439 70.5 9.1350775 70.5 9.5 C 70.5 10.60444 69.604442 11.5 68.5 11.5 C 67.395558 11.5 66.5 10.60444 66.5 9.5 C 66.5 9.1350775 66.610478 8.7945439 66.78125 8.5 L 64.21875 8.5 C 64.389522 8.7945439 64.5 9.1350775 64.5 9.5 C 64.5 10.60444 63.604442 11.5 62.5 11.5 C 61.395558 11.5 60.5 10.60444 60.5 9.5 C 60.5 9.1350775 60.610478 8.7945439 60.78125 8.5 L 58.21875 8.5 C 58.389522 8.7945439 58.5 9.1350775 58.5 9.5 C 58.5 10.60444 57.604442 11.5 56.5 11.5 C 55.395558 11.5 54.5 10.60444 54.5 9.5 C 54.5 9.1350775 54.610478 8.7945439 54.78125 8.5 L 52.21875 8.5 C 52.389522 8.7945439 52.5 9.1350775 52.5 9.5 C 52.5 10.60444 51.604442 11.5 50.5 11.5 C 49.395558 11.5 48.5 10.60444 48.5 9.5 C 48.5 9.1350775 48.610478 8.7945439 48.78125 8.5 L 46.21875 8.5 C 46.389522 8.7945439 46.5 9.1350775 46.5 9.5 C 46.5 10.60444 45.604442 11.5 44.5 11.5 C 43.395558 11.5 42.5 10.60444 42.5 9.5 C 42.5 9.1350775 42.610478 8.7945439 42.78125 8.5 L 40.21875 8.5 C 40.389522 8.7945439 40.5 9.1350775 40.5 9.5 C 40.5 10.60444 39.604442 11.5 38.5 11.5 C 37.395558 11.5 36.5 10.60444 36.5 9.5 C 36.5 9.1350775 36.610478 8.7945439 36.78125 8.5 L 34.21875 8.5 C 34.389522 8.7945439 34.5 9.1350775 34.5 9.5 C 34.5 10.60444 33.604442 11.5 32.5 11.5 C 31.395558 11.5 30.5 10.60444 30.5 9.5 C 30.5 9.1350775 30.610478 8.7945439 30.78125 8.5 L 28.21875 8.5 C 28.389522 8.7945439 28.5 9.1350775 28.5 9.5 C 28.5 10.60444 27.604442 11.5 26.5 11.5 C 25.395558 11.5 24.5 10.60444 24.5 9.5 C 24.5 9.1350775 24.610478 8.7945439 24.78125 8.5 L 22.21875 8.5 C 22.389522 8.7945439 22.5 9.1350775 22.5 9.5 C 22.5 10.60444 21.604442 11.5 20.5 11.5 C 19.395558 11.5 18.5 10.60444 18.5 9.5 C 18.5 9.1350775 18.610478 8.7945439 18.78125 8.5 L 16.21875 8.5 C 16.389522 8.7945439 16.5 9.1350775 16.5 9.5 C 16.5 10.60444 15.604442 11.5 14.5 11.5 C 13.395558 11.5 12.5 10.60444 12.5 9.5 C 12.5 9.1350775 12.610478 8.7945439 12.78125 8.5 L 11.5 8.5 z "
       transform="translate(0,956.36218)"
       id="rect2985" />
    <path
       style="fill:none;stroke:url(#linearGradient3823);stroke-opacity:1;opacity:0.50000000000000000"
       d="M 11.5 9.5 C 10.392 9.5 9.5 10.392 9.5 11.5 L 9.5 12.71875 C 9.7935471 12.549553 10.136896 12.46875 10.5 12.46875 C 11.60444 12.46875 12.5 13.36431 12.5 14.46875 C 12.5 15.57319 11.60444 16.46875 10.5 16.46875 C 10.136896 16.46875 9.7935471 16.356697 9.5 16.1875 L 9.5 18.71875 C 9.7935471 18.549553 10.136896 18.46875 10.5 18.46875 C 11.60444 18.46875 12.5 19.36431 12.5 20.46875 C 12.5 21.57319 11.60444 22.46875 10.5 22.46875 C 10.136896 22.46875 9.7935471 22.356697 9.5 22.1875 L 9.5 24.71875 C 9.7935471 24.549553 10.136896 24.46875 10.5 24.46875 C 11.60444 24.46875 12.5 25.36431 12.5 26.46875 C 12.5 27.57319 11.60444 28.46875 10.5 28.46875 C 10.136896 28.46875 9.7935471 28.356697 9.5 28.1875 L 9.5 30.71875 C 9.7935471 30.549553 10.136896 30.46875 10.5 30.46875 C 11.60444 30.46875 12.5 31.36431 12.5 32.46875 C 12.5 33.57319 11.60444 34.46875 10.5 34.46875 C 10.136896 34.46875 9.7935471 34.356697 9.5 34.1875 L 9.5 36.71875 C 9.7935471 36.549553 10.136896 36.46875 10.5 36.46875 C 11.60444 36.46875 12.5 37.36431 12.5 38.46875 C 12.5 39.57319 11.60444 40.46875 10.5 40.46875 C 10.136896 40.46875 9.7935471 40.356697 9.5 40.1875 L 9.5 42.71875 C 9.7935471 42.549554 10.136896 42.46875 10.5 42.46875 C 11.60444 42.46875 12.5 43.33308 12.5 44.4375 C 12.5 45.5419 11.60444 46.4375 10.5 46.4375 C 10.136896 46.4375 9.7935471 46.356701 9.5 46.1875 L 9.5 48.71875 C 9.7935471 48.54956 10.136896 48.4375 10.5 48.4375 C 11.60444 48.4375 12.5 49.333 12.5 50.4375 C 12.5 51.5419 11.60444 52.4375 10.5 52.4375 C 10.136896 52.4375 9.7935471 52.356701 9.5 52.1875 L 9.5 54.71875 C 9.7935471 54.54956 10.136896 54.4375 10.5 54.4375 C 11.60444 54.4375 12.5 55.333 12.5 56.4375 C 12.5 57.5419 11.60444 58.4375 10.5 58.4375 C 10.136896 58.4375 9.7935471 58.356701 9.5 58.1875 L 9.5 60.71875 C 9.7935471 60.54956 10.136896 60.4375 10.5 60.4375 C 11.60444 60.4375 12.5 61.333 12.5 62.4375 C 12.5 63.5419 11.60444 64.4375 10.5 64.4375 C 10.136896 64.4375 9.7935471 64.356701 9.5 64.1875 L 9.5 66.71875 C 9.7935471 66.54956 10.136896 66.4375 10.5 66.4375 C 11.60444 66.4375 12.5 67.333 12.5 68.4375 C 12.5 69.5419 11.60444 70.4375 10.5 70.4375 C 10.136896 70.4375 9.7935471 70.356701 9.5 70.1875 L 9.5 72.71875 C 9.7935471 72.54956 10.136896 72.4375 10.5 72.4375 C 11.60444 72.4375 12.5 73.333 12.5 74.4375 C 12.5 75.5419 11.60444 76.4375 10.5 76.4375 C 10.136896 76.4375 9.7935471 76.356701 9.5 76.1875 L 9.5 78.71875 C 9.7935471 78.54956 10.136896 78.4375 10.5 78.4375 C 11.60444 78.4375 12.5 79.333 12.5 80.4375 C 12.5 81.5419 11.60444 82.4375 10.5 82.4375 C 10.136896 82.4375 9.7935471 82.356701 9.5 82.1875 L 9.5 84.5 C 9.5 85.608 10.392 86.5 11.5 86.5 L 12.75 86.5 C 12.591999 86.213823 12.5 85.881243 12.5 85.53125 C 12.5 84.42685 13.39556 83.53125 14.5 83.53125 C 15.60444 83.53125 16.5 84.42685 16.5 85.53125 C 16.5 85.881243 16.408001 86.213823 16.25 86.5 L 18.75 86.5 C 18.591999 86.213823 18.5 85.881243 18.5 85.53125 C 18.5 84.42685 19.39556 83.53125 20.5 83.53125 C 21.60444 83.53125 22.5 84.42685 22.5 85.53125 C 22.5 85.881243 22.408001 86.213823 22.25 86.5 L 24.75 86.5 C 24.591999 86.213823 24.5 85.881243 24.5 85.53125 C 24.5 84.42685 25.39556 83.53125 26.5 83.53125 C 27.60444 83.53125 28.5 84.42685 28.5 85.53125 C 28.5 85.881243 28.408001 86.213823 28.25 86.5 L 30.75 86.5 C 30.591999 86.213823 30.5 85.881243 30.5 85.53125 C 30.5 84.42685 31.39556 83.53125 32.5 83.53125 C 33.60444 83.53125 34.5 84.42685 34.5 85.53125 C 34.5 85.881243 34.408001 86.213823 34.25 86.5 L 36.75 86.5 C 36.591999 86.213823 36.5 85.881243 36.5 85.53125 C 36.5 84.42685 37.39556 83.53125 38.5 83.53125 C 39.60444 83.53125 40.5 84.42685 40.5 85.53125 C 40.5 85.881243 40.408001 86.213823 40.25 86.5 L 42.75 86.5 C 42.591999 86.213823 42.5 85.881243 42.5 85.53125 C 42.5 84.42685 43.39556 83.53125 44.5 83.53125 C 45.60444 83.53125 46.5 84.42685 46.5 85.53125 C 46.5 85.881243 46.408001 86.213823 46.25 86.5 L 48.75 86.5 C 48.591999 86.213823 48.5 85.881243 48.5 85.53125 C 48.5 84.42685 49.39556 83.53125 50.5 83.53125 C 51.60444 83.53125 52.5 84.42685 52.5 85.53125 C 52.5 85.881243 52.408001 86.213823 52.25 86.5 L 54.75 86.5 C 54.591999 86.213823 54.5 85.881243 54.5 85.53125 C 54.5 84.42685 55.39556 83.53125 56.5 83.53125 C 57.60444 83.53125 58.5 84.42685 58.5 85.53125 C 58.5 85.881243 58.408001 86.213823 58.25 86.5 L 60.75 86.5 C 60.591999 86.213823 60.5 85.881243 60.5 85.53125 C 60.5 84.42685 61.39556 83.53125 62.5 83.53125 C 63.60444 83.53125 64.5 84.42685 64.5 85.53125 C 64.5 85.881243 64.408001 86.213823 64.25 86.5 L 66.75 86.5 C 66.591999 86.213823 66.5 85.881243 66.5 85.53125 C 66.5 84.42685 67.39556 83.53125 68.5 83.53125 C 69.60444 83.53125 70.5 84.42685 70.5 85.53125 C 70.5 85.881243 70.408001 86.213823 70.25 86.5 L 72.75 86.5 C 72.591999 86.213823 72.5 85.881243 72.5 85.53125 C 72.5 84.42685 73.39556 83.53125 74.5 83.53125 C 75.60444 83.53125 76.5 84.42685 76.5 85.53125 C 76.5 85.881243 76.408001 86.213823 76.25 86.5 L 78.75 86.5 C 78.591999 86.213823 78.5 85.881243 78.5 85.53125 C 78.5 84.42685 79.39556 83.53125 80.5 83.53125 C 81.60444 83.53125 82.5 84.42685 82.5 85.53125 C 82.5 85.881243 82.408001 86.213823 82.25 86.5 L 84.5 86.5 C 85.608 86.5 86.5 85.608 86.5 84.5 L 86.5 82.1875 C 86.206453 82.356701 85.863104 82.4375 85.5 82.4375 C 84.39556 82.4375 83.5 81.5419 83.5 80.4375 C 83.5 79.333 84.39556 78.4375 85.5 78.4375 C 85.863104 78.4375 86.206453 78.54956 86.5 78.71875 L 86.5 76.1875 C 86.206453 76.356701 85.863104 76.4375 85.5 76.4375 C 84.39556 76.4375 83.5 75.5419 83.5 74.4375 C 83.5 73.333 84.39556 72.4375 85.5 72.4375 C 85.863104 72.4375 86.206453 72.54956 86.5 72.71875 L 86.5 70.1875 C 86.206453 70.356701 85.863104 70.4375 85.5 70.4375 C 84.39556 70.4375 83.5 69.5419 83.5 68.4375 C 83.5 67.333 84.39556 66.4375 85.5 66.4375 C 85.863104 66.4375 86.206453 66.54956 86.5 66.71875 L 86.5 64.1875 C 86.206453 64.356701 85.863104 64.4375 85.5 64.4375 C 84.39556 64.4375 83.5 63.5419 83.5 62.4375 C 83.5 61.333 84.39556 60.4375 85.5 60.4375 C 85.863104 60.4375 86.206453 60.54956 86.5 60.71875 L 86.5 58.1875 C 86.206453 58.356701 85.863104 58.4375 85.5 58.4375 C 84.39556 58.4375 83.5 57.5419 83.5 56.4375 C 83.5 55.333 84.39556 54.4375 85.5 54.4375 C 85.863104 54.4375 86.206453 54.54956 86.5 54.71875 L 86.5 52.1875 C 86.206453 52.356701 85.863104 52.4375 85.5 52.4375 C 84.39556 52.4375 83.5 51.5419 83.5 50.4375 C 83.5 49.333 84.39556 48.4375 85.5 48.4375 C 85.863104 48.4375 86.206453 48.54956 86.5 48.71875 L 86.5 46.1875 C 86.206453 46.356701 85.863104 46.4375 85.5 46.4375 C 84.39556 46.4375 83.5 45.5419 83.5 44.4375 C 83.5 43.33308 84.39556 42.46875 85.5 42.46875 C 85.863104 42.46875 86.206453 42.549554 86.5 42.71875 L 86.5 40.1875 C 86.206453 40.356697 85.863104 40.46875 85.5 40.46875 C 84.39556 40.46875 83.5 39.57319 83.5 38.46875 C 83.5 37.36431 84.39556 36.46875 85.5 36.46875 C 85.863104 36.46875 86.206453 36.549553 86.5 36.71875 L 86.5 34.1875 C 86.206453 34.356697 85.863104 34.46875 85.5 34.46875 C 84.39556 34.46875 83.5 33.57319 83.5 32.46875 C 83.5 31.36431 84.39556 30.46875 85.5 30.46875 C 85.863104 30.46875 86.206453 30.549553 86.5 30.71875 L 86.5 28.1875 C 86.206453 28.356697 85.863104 28.46875 85.5 28.46875 C 84.39556 28.46875 83.5 27.57319 83.5 26.46875 C 83.5 25.36431 84.39556 24.46875 85.5 24.46875 C 85.863104 24.46875 86.206453 24.549553 86.5 24.71875 L 86.5 22.1875 C 86.206453 22.356697 85.863104 22.46875 85.5 22.46875 C 84.39556 22.46875 83.5 21.57319 83.5 20.46875 C 83.5 19.36431 84.39556 18.46875 85.5 18.46875 C 85.863104 18.46875 86.206453 18.549553 86.5 18.71875 L 86.5 16.1875 C 86.206453 16.356697 85.863104 16.46875 85.5 16.46875 C 84.39556 16.46875 83.5 15.57319 83.5 14.46875 C 83.5 13.36431 84.39556 12.46875 85.5 12.46875 C 85.863104 12.46875 86.206453 12.549553 86.5 12.71875 L 86.5 11.5 C 86.5 10.392 85.608 9.5 84.5 9.5 L 82.25 9.5 C 82.408001 9.7861764 82.5 10.118776 82.5 10.46875 C 82.5 11.57319 81.60444 12.46875 80.5 12.46875 C 79.39556 12.46875 78.5 11.57319 78.5 10.46875 C 78.5 10.118776 78.591999 9.7861764 78.75 9.5 L 76.25 9.5 C 76.408001 9.7861764 76.5 10.118776 76.5 10.46875 C 76.5 11.57319 75.60444 12.46875 74.5 12.46875 C 73.39556 12.46875 72.5 11.57319 72.5 10.46875 C 72.5 10.118776 72.591999 9.7861764 72.75 9.5 L 70.25 9.5 C 70.408001 9.7861764 70.5 10.118776 70.5 10.46875 C 70.5 11.57319 69.60444 12.46875 68.5 12.46875 C 67.39556 12.46875 66.5 11.57319 66.5 10.46875 C 66.5 10.118776 66.591999 9.7861764 66.75 9.5 L 64.25 9.5 C 64.408001 9.7861764 64.5 10.118776 64.5 10.46875 C 64.5 11.57319 63.60444 12.46875 62.5 12.46875 C 61.39556 12.46875 60.5 11.57319 60.5 10.46875 C 60.5 10.118776 60.591999 9.7861764 60.75 9.5 L 58.25 9.5 C 58.408001 9.7861764 58.5 10.118776 58.5 10.46875 C 58.5 11.57319 57.60444 12.46875 56.5 12.46875 C 55.39556 12.46875 54.5 11.57319 54.5 10.46875 C 54.5 10.118776 54.591999 9.7861764 54.75 9.5 L 52.25 9.5 C 52.408001 9.7861764 52.5 10.118776 52.5 10.46875 C 52.5 11.57319 51.60444 12.46875 50.5 12.46875 C 49.39556 12.46875 48.5 11.57319 48.5 10.46875 C 48.5 10.118776 48.591999 9.7861764 48.75 9.5 L 46.25 9.5 C 46.408001 9.7861764 46.5 10.118776 46.5 10.46875 C 46.5 11.57319 45.60444 12.46875 44.5 12.46875 C 43.39556 12.46875 42.5 11.57319 42.5 10.46875 C 42.5 10.118776 42.591999 9.7861764 42.75 9.5 L 40.25 9.5 C 40.408001 9.7861764 40.5 10.118776 40.5 10.46875 C 40.5 11.57319 39.60444 12.46875 38.5 12.46875 C 37.39556 12.46875 36.5 11.57319 36.5 10.46875 C 36.5 10.118776 36.591999 9.7861764 36.75 9.5 L 34.25 9.5 C 34.408001 9.7861764 34.5 10.118776 34.5 10.46875 C 34.5 11.57319 33.60444 12.46875 32.5 12.46875 C 31.39556 12.46875 30.5 11.57319 30.5 10.46875 C 30.5 10.118776 30.591999 9.7861764 30.75 9.5 L 28.25 9.5 C 28.408001 9.7861764 28.5 10.118776 28.5 10.46875 C 28.5 11.57319 27.60444 12.46875 26.5 12.46875 C 25.39556 12.46875 24.5 11.57319 24.5 10.46875 C 24.5 10.118776 24.591999 9.7861764 24.75 9.5 L 22.25 9.5 C 22.408001 9.7861764 22.5 10.118776 22.5 10.46875 C 22.5 11.57319 21.60444 12.46875 20.5 12.46875 C 19.39556 12.46875 18.5 11.57319 18.5 10.46875 C 18.5 10.118776 18.591999 9.7861764 18.75 9.5 L 16.25 9.5 C 16.408001 9.7861764 16.5 10.118776 16.5 10.46875 C 16.5 11.57319 15.60444 12.46875 14.5 12.46875 C 13.39556 12.46875 12.5 11.57319 12.5 10.46875 C 12.5 10.118776 12.591999 9.7861764 12.75 9.5 L 11.5 9.5 z "
       transform="translate(0,956.36218)"
       id="rect3815" />
    <rect
       style="fill:url(#radialGradient4184);fill-opacity:1;stroke:url(#linearGradient4192);stroke-opacity:1"
       id="rect4176"
       width="55"
       height="55"
       x="20.5"
       y="976.86218" />
    <text
       sodipodi:linespacing="125%"
       id="text4214"
       y="1034.937"
       x="39.901028"
       style="font-size:48px;font-style:normal;font-variant:normal;font-weight:bold;font-stretch:normal;line-height:125%;letter-spacing:0px;word-spacing:0px;fill:#000000;fill-opacity:1;stroke:#000000;font-family:Droid Sans;-inkscape-font-specification:Droid Sans Bold;stroke-opacity:1;opacity:0.01;stroke-width:5;stroke-miterlimit:4;stroke-dasharray:none"
       xml:space="preserve"><tspan
         y="1034.937"
         x="39.901028"
         id="tspan4216"
         sodipodi:role="line">@</tspan></text>
    <text
       xml:space="preserve"
       style="font-size:48px;font-style:normal;font-variant:normal;font-weight:bold;font-stretch:normal;line-height:125%;letter-spacing:0px;word-spacing:0px;fill:#000000;fill-opacity:1;stroke:#000000;font-family:Droid Sans;-inkscape-font-specification:Droid Sans Bold;stroke-opacity:1;opacity:0.04999983;stroke-width:4;stroke-miterlimit:4;stroke-dasharray:none"
       x="39.901028"
       y="1034.937"
       id="text4210"
       sodipodi:linespacing="125%"><tspan
         sodipodi:role="line"
         id="tspan4212"
         x="39.901028"
         y="1034.937">@</tspan></text>
    <text
       sodipodi:linespacing="125%"
       id="text4206"
       y="1034.937"
       x="39.901028"
       style="font-size:48px;font-style:normal;font-variant:normal;font-weight:bold;font-stretch:normal;line-height:125%;letter-spacing:0px;word-spacing:0px;fill:#000000;fill-opacity:1;stroke:#000000;font-family:Droid Sans;-inkscape-font-specification:Droid Sans Bold;stroke-opacity:1;opacity:0.09999989;stroke-width:3;stroke-miterlimit:4;stroke-dasharray:none"
       xml:space="preserve"><tspan
         y="1034.937"
         x="39.901028"
         id="tspan4208"
         sodipodi:role="line">@</tspan></text>
    <text
       xml:space="preserve"
       style="font-size:48px;font-style:normal;font-variant:normal;font-weight:bold;font-stretch:normal;line-height:125%;letter-spacing:0px;word-spacing:0px;fill:#000000;fill-opacity:1;stroke:#000000;font-family:Droid Sans;-inkscape-font-specification:Droid Sans Bold;stroke-opacity:1;opacity:0.14999995;stroke-width:2.00000009999999984;stroke-miterlimit:4;stroke-dasharray:none"
       x="39.901028"
       y="1034.937"
       id="text4202"
       sodipodi:linespacing="125%"><tspan
         sodipodi:role="line"
         id="tspan4204"
         x="39.901028"
         y="1034.937">@</tspan></text>
    <text
       sodipodi:linespacing="125%"
       id="text4198"
       y="1034.937"
       x="39.901028"
       style="font-size:48px;font-style:normal;font-variant:normal;font-weight:bold;font-stretch:normal;line-height:125%;letter-spacing:0px;word-spacing:0px;fill:#000000;fill-opacity:1;stroke:#000000;font-family:Droid Sans;-inkscape-font-specification:Droid Sans Bold;stroke-opacity:1;opacity:0.2"
       xml:space="preserve"><tspan
         y="1034.937"
         x="39.901028"
         id="tspan4200"
         sodipodi:role="line">@</tspan></text>
    <text
       xml:space="preserve"
       style="font-size:48px;font-style:normal;font-variant:normal;font-weight:bold;font-stretch:normal;line-height:125%;letter-spacing:0px;word-spacing:0px;fill:#f0f0f0;fill-opacity:1;stroke:none;font-family:Droid Sans;-inkscape-font-specification:Droid Sans Bold"
       x="39.901028"
       y="1034.937"
       id="text4194"
       sodipodi:linespacing="125%"><tspan
         sodipodi:role="line"
         id="tspan4196"
         x="39.901028"
         y="1034.937">@</tspan></text>
    <path
       inkscape:connector-curvature="0"
       id="path4256"
       d="m 21,980.36218 0,0.5 0,9.59375 c 1.804426,1.7727 4.270652,2.875 7,2.875 2.841671,0 5.398171,-1.19062 7.21875,-3.09375 0.983379,0.52682 2.118868,0.8125 3.3125,0.8125 0.614287,0 1.213561,-0.0701 1.78125,-0.21875 1.359664,3.24501 4.573887,5.53125 8.3125,5.53125 4.970592,0 9,-4.02943 9,-9 0,-0.0309 3.11e-4,-0.063 0,-0.0937 2.105695,-0.93155 3.59375,-3.04933 3.59375,-5.5 0,-0.48424 -0.07919,-0.95523 -0.1875,-1.40625 l -39.53125,0 -0.5,0 z"
       style="opacity:0.01;fill:#000000;fill-opacity:1;stroke:none" />
    <path
       style="opacity:0.04999995;fill:#000000;fill-opacity:1;stroke:none"
       d="m 21,979.36218 0,0.5 0,9.59375 c 1.804426,1.7727 4.270652,2.875 7,2.875 2.841671,0 5.398171,-1.19062 7.21875,-3.09375 0.983379,0.52682 2.118868,0.8125 3.3125,0.8125 0.614287,0 1.213561,-0.0701 1.78125,-0.21875 1.359664,3.24501 4.573887,5.53125 8.3125,5.53125 4.970592,0 9,-4.02943 9,-9 0,-0.0309 3.11e-4,-0.063 0,-0.0937 2.105695,-0.93155 3.59375,-3.04933 3.59375,-5.5 0,-0.48424 -0.07919,-0.95523 -0.1875,-1.40625 l -39.53125,0 -0.5,0 z"
       id="path4254"
       inkscape:connector-curvature="0" />
    <path
       inkscape:connector-curvature="0"
       id="path4250"
       d="m 21,978.36218 0,0.5 0,9.59375 c 1.804426,1.7727 4.270652,2.875 7,2.875 2.841671,0 5.398171,-1.19062 7.21875,-3.09375 0.983379,0.52682 2.118868,0.8125 3.3125,0.8125 0.614287,0 1.213561,-0.0701 1.78125,-0.21875 1.359664,3.24501 4.573887,5.53125 8.3125,5.53125 4.970592,0 9,-4.02943 9,-9 0,-0.0309 3.11e-4,-0.063 0,-0.0937 2.105695,-0.93155 3.59375,-3.04933 3.59375,-5.5 0,-0.48424 -0.07919,-0.95523 -0.1875,-1.40625 l -39.53125,0 -0.5,0 z"
       style="fill:#000000;fill-opacity:1;stroke:none;opacity:0.1" />
    <path
       style="fill:url(#radialGradient4242);fill-opacity:1.0;stroke:none"
       d="m 21,977.36218 0,0.5 0,9.59375 c 1.804426,1.7727 4.270652,2.875 7,2.875 2.841671,0 5.398171,-1.19062 7.21875,-3.09375 0.983379,0.52682 2.118868,0.8125 3.3125,0.8125 0.614287,0 1.213561,-0.0701 1.78125,-0.21875 1.359664,3.24501 4.573887,5.53125 8.3125,5.53125 4.970592,0 9,-4.02943 9,-9 0,-0.0309 3.11e-4,-0.063 0,-0.0937 2.105695,-0.93155 3.59375,-3.04933 3.59375,-5.5 0,-0.48424 -0.07919,-0.95523 -0.1875,-1.40625 l -39.53125,0 -0.5,0 z"
       id="path4218"
       inkscape:connector-curvature="0" />
  </g>
</svg>
