<?xml version="1.0" encoding="UTF-8" standalone="no"?>
<!-- Created with Inkscape (http://www.inkscape.org/) -->

<svg
   xmlns:dc="http://purl.org/dc/elements/1.1/"
   xmlns:cc="http://creativecommons.org/ns#"
   xmlns:rdf="http://www.w3.org/1999/02/22-rdf-syntax-ns#"
   xmlns:svg="http://www.w3.org/2000/svg"
   xmlns="http://www.w3.org/2000/svg"
   xmlns:xlink="http://www.w3.org/1999/xlink"
   xmlns:sodipodi="http://sodipodi.sourceforge.net/DTD/sodipodi-0.dtd"
   xmlns:inkscape="http://www.inkscape.org/namespaces/inkscape"
   width="96"
   height="96"
   id="svg2"
   version="1.1"
   inkscape:version="0.48.3.1 r9886"
   sodipodi:docname="web-browser2a.svg">
  <defs
     id="defs4">
    <linearGradient
       id="linearGradient3795">
      <stop
         style="stop-color:#0e7896;stop-opacity:1;"
         offset="0"
         id="stop3797" />
      <stop
         style="stop-color:#368caa;stop-opacity:1;"
         offset="1"
         id="stop3799" />
    </linearGradient>
    <linearGradient
       id="linearGradient3783">
      <stop
         style="stop-color:#80ddfa;stop-opacity:1"
         offset="0"
         id="stop3785" />
      <stop
         style="stop-color:#1176b3;stop-opacity:1"
         offset="1"
         id="stop3787" />
    </linearGradient>
    <linearGradient
       id="linearGradient3817">
      <stop
         style="stop-color:#ffffff;stop-opacity:1;"
         offset="0"
         id="stop3819" />
      <stop
         id="stop3827"
         offset="0.05455951"
         style="stop-color:#ffffff;stop-opacity:0.23529412;" />
      <stop
         id="stop3825"
         offset="0.95526141"
         style="stop-color:#ffffff;stop-opacity:0.15686275;" />
      <stop
         style="stop-color:#ffffff;stop-opacity:0.39215687;"
         offset="1"
         id="stop3821" />
    </linearGradient>
    <radialGradient
       cx="4.9929786"
       cy="43.5"
       r="2.5"
       fx="4.9929786"
       fy="43.5"
       id="radialGradient2873-966-168"
       xlink:href="#linearGradient3688-166-749"
       gradientUnits="userSpaceOnUse"
       gradientTransform="matrix(2.003784,0,0,1.4,27.98813,-17.4)" />
    <linearGradient
       id="linearGradient3688-166-749">
      <stop
         id="stop2883"
         style="stop-color:#181818;stop-opacity:1"
         offset="0" />
      <stop
         id="stop2885"
         style="stop-color:#181818;stop-opacity:0"
         offset="1" />
    </linearGradient>
    <radialGradient
       cx="4.9929786"
       cy="43.5"
       r="2.5"
       fx="4.9929786"
       fy="43.5"
       id="radialGradient2875-742-326"
       xlink:href="#linearGradient3688-464-309"
       gradientUnits="userSpaceOnUse"
       gradientTransform="matrix(2.003784,0,0,1.4,-20.01187,-104.4)" />
    <linearGradient
       id="linearGradient3688-464-309">
      <stop
         id="stop2889"
         style="stop-color:#181818;stop-opacity:1"
         offset="0" />
      <stop
         id="stop2891"
         style="stop-color:#181818;stop-opacity:0"
         offset="1" />
    </linearGradient>
    <linearGradient
       x1="25.058096"
       y1="47.027729"
       x2="25.058096"
       y2="39.999443"
       id="linearGradient2877-634-617"
       xlink:href="#linearGradient3702-501-757"
       gradientUnits="userSpaceOnUse" />
    <linearGradient
       id="linearGradient3702-501-757">
      <stop
         id="stop2895"
         style="stop-color:#181818;stop-opacity:0"
         offset="0" />
      <stop
         id="stop2897"
         style="stop-color:#181818;stop-opacity:1"
         offset="0.5" />
      <stop
         id="stop2899"
         style="stop-color:#181818;stop-opacity:0"
         offset="1" />
    </linearGradient>
    <linearGradient
       inkscape:collect="always"
       xlink:href="#linearGradient3817"
       id="linearGradient3823"
       x1="47.214287"
       y1="965.25507"
       x2="47.214287"
       y2="1042.9185"
       gradientUnits="userSpaceOnUse" />
    <radialGradient
       inkscape:collect="always"
       xlink:href="#linearGradient3783"
       id="radialGradient3789"
       cx="41.933727"
       cy="976.68005"
       fx="41.933727"
       fy="976.68005"
       r="40"
       gradientUnits="userSpaceOnUse"
       gradientTransform="matrix(-1.5691736e-6,2.1394598,-1.4314862,-1.0499147e-6,1446.344,885.16145)" />
    <linearGradient
       inkscape:collect="always"
       xlink:href="#linearGradient3795"
       id="linearGradient3801"
       x1="26.928572"
       y1="1042.8107"
       x2="26.928572"
       y2="964.00507"
       gradientUnits="userSpaceOnUse" />
  </defs>
  <sodipodi:namedview
     id="base"
     pagecolor="#ffffff"
     bordercolor="#666666"
     borderopacity="1.0"
     inkscape:pageopacity="0.0"
     inkscape:pageshadow="2"
     inkscape:zoom="2.8"
     inkscape:cx="20.840394"
     inkscape:cy="32.923891"
     inkscape:document-units="px"
     inkscape:current-layer="layer1"
     showgrid="false"
     inkscape:window-width="1280"
     inkscape:window-height="751"
     inkscape:window-x="0"
     inkscape:window-y="24"
     inkscape:window-maximized="1" />
  <metadata
     id="metadata7">
    <rdf:RDF>
      <cc:Work
         rdf:about="">
        <dc:format>image/svg+xml</dc:format>
        <dc:type
           rdf:resource="http://purl.org/dc/dcmitype/StillImage" />
        <dc:title></dc:title>
      </cc:Work>
    </rdf:RDF>
  </metadata>
  <g
     inkscape:label="Livello 1"
     inkscape:groupmode="layer"
     id="layer1"
     transform="translate(0,-956.36218)">
    <g
       style="display:inline"
       id="g2036"
       transform="matrix(2.1999991,0,0,0.88888944,-4.8000008,1006.5844)">
      <g
         style="opacity:0.4"
         id="g3712"
         transform="matrix(1.052632,0,0,1.285713,-1.263158,-13.42854)">
        <rect
           style="fill:url(#radialGradient2873-966-168);fill-opacity:1;stroke:none"
           id="rect2801"
           y="40"
           x="38"
           height="7"
           width="5" />
        <rect
           style="fill:url(#radialGradient2875-742-326);fill-opacity:1;stroke:none"
           id="rect3696"
           transform="scale(-1,-1)"
           y="-47"
           x="-10"
           height="7"
           width="5" />
        <rect
           style="fill:url(#linearGradient2877-634-617);fill-opacity:1;stroke:none"
           id="rect3700"
           y="40"
           x="10"
           height="7.0000005"
           width="28" />
      </g>
    </g>
    <rect
       style="fill:url(#radialGradient3789);fill-opacity:1;stroke:url(#linearGradient3801);stroke-opacity:1"
       id="rect2985"
       width="79"
       height="79"
       x="8.5"
       y="964.86218"
       rx="3"
       ry="3" />
    <path
       inkscape:connector-curvature="0"
       d="m 12,966.36254 c -1.108,0 -2,0.94328 -2,2.11494 l 0,5.8161 0.75,-0.99138 0.5625,0.26436 1.125,0 0.9375,-0.99136 1.125,-0.52874 0.125,-0.72702 -0.6875,-0.66092 -0.625,-0.1982 -0.375,-0.9253 0.8125,-0.52874 1.25,0.72702 0.4375,-0.52874 -0.6875,-0.39666 1.4375,-1.98276 -0.125,-0.46264 -4.0625,0 z m 13.125,0 0,0.0662 0.25,0.39656 0.3125,-0.46266 -0.5625,0 z m 13.1875,0 -0.5625,0.99138 -0.1875,0.52874 1.0625,0.33046 0.1875,-0.72702 0.3125,-0.99136 0.25,-0.1322 -1.0625,0 z m 7.75,0 0,0.52874 1.25,0.52874 -0.625,0.52872 -1.3125,-0.52872 -0.5625,0.52872 -0.8125,-0.99138 -0.1875,0.33048 0.9375,2.97414 0.1875,0.1322 0.625,-0.33044 0.3125,0.1982 0,0.52874 -0.5625,-0.1982 -0.375,0.26438 0.25,0.52874 -0.1875,1.38792 -1.1875,0.1322 -0.0625,-0.46266 0.6875,-0.39654 0.125,-1.25576 -0.75,-1.05746 -0.3125,-1.85058 -1.1875,-0.26436 -0.125,0.6609 0.25,0.33048 -0.5625,0.46262 0.25,1.25576 0.6875,0.33046 0.1875,0.9253 -0.75,-0.52874 -1.875,-0.33046 -0.25,0.66092 -1.5,0.52872 -0.25,-0.39654 -2,1.18966 0,0.727 -0.8125,0.1322 0.25,-0.52874 0,-0.59482 -0.75,-0.33046 -0.5,0.26438 0.375,0.85918 0.3125,0.52874 0,0.46264 -0.5625,-0.1322 -0.125,-0.0662 -0.5625,0.66094 0.3125,0.52872 -1.3125,0 0.4375,0.52874 -0.125,0.26438 -0.6875,0 -0.5,-0.33046 L 32,974.624 l -0.8125,-0.33046 0,-0.39656 1.6875,0.33046 0.9375,0.1322 0.375,-0.66094 -0.375,-0.66092 -2.4375,-0.99136 -0.875,0.1982 -0.3125,0.26436 0.125,0.59484 0.375,0.0662 -0.125,0.99138 1.125,2.77584 -0.8125,1.38796 -0.0625,0.26436 0.4375,0.33046 -0.375,0.26436 -0.25,0 0.0625,1.18966 0.3125,0.52872 0,0.46266 0.4375,0.0662 0.6875,0.26436 0.6875,1.05748 0.0625,0.26436 -0.25,0.39654 0.5,-0.0662 0.5,0.1982 0.75,0.99136 1.6875,0.1982 -0.0625,1.25576 -0.625,0.52874 0.125,0.1982 -0.5625,0.6609 -0.125,0.59482 0.3125,0.52874 1.125,0.46266 0.4375,-0.33046 3,1.18966 0.125,-0.33048 -0.625,-0.5944 0,-0.7931 -0.375,-0.1322 0.0625,-0.6609 0.625,-0.7931 -1.125,-0.8592 0.125,-1.18966 1.1875,-0.8592 1.375,0.0662 0.25,0.46266 1.4375,0.0662 1,-0.59482 -0.5,-0.59484 0.0625,-1.18966 2.75,-1.38814 2.0625,0.9914 0.6875,-0.66094 2.0625,2.04886 1.5625,-0.1322 0.5625,0.52874 1.4375,0.1982 1,-1.38794 1.25,0.59482 0.625,0.0662 0.6875,-0.59482 -0.625,-0.39654 0.5,-0.8592 1.4375,0.52874 0.3125,0.66092 0.625,0 0.375,-0.26436 1.0625,-0.0662 0.125,0.33044 1.1875,0.0662 0.8125,-0.92528 1.6875,0.1982 0.5,-0.1982 0.125,-0.99138 -0.5,-1.18966 0.5,-0.46264 1.625,0 1.5,1.91668 1.9375,1.18964 0.5625,0 0.125,-0.52874 0.6875,-0.46264 0.0625,2.70978 -0.625,0 0,0.66092 0.375,0.46264 -0.0625,0.59482 0.25,0.1322 0.125,-0.39656 0.25,0.0662 0.125,0.1322 0.75,-0.1322 0.6875,-2.18104 0.0625,-2.64368 -0.875,-2.18104 -1.125,-1.45402 -0.5625,0.1322 0,0.46264 -1.3125,-0.59484 0.5,-1.12356 0.4375,-3.04024 1.75,-0.59482 0.875,-0.59482 0.9375,0 -0.25,0.33044 0.25,0.46266 0.8125,-0.9253 0.4375,0 -0.0625,-0.52874 -0.75,-0.1322 0.5,-1.98278 0.6875,-0.6609 0.25,0.99138 0.5625,0.1982 0.5625,-0.92528 -0.3125,-0.59482 0.125,-0.52874 0.8125,0 -0.1875,0.39654 0.0625,1.45404 -1.1875,3.1063 0.125,0.66092 -0.0625,1.05748 2.1875,3.3707 0.4375,0.1322 0,-2.70978 0.4375,-0.46264 -0.4375,-1.05748 0.375,-0.46264 -0.875,-1.18964 -0.4375,0.0662 -0.125,-1.98274 1.1875,-0.33048 0.0625,-0.59482 0.625,-0.1322 0.3125,0.33046 0.4375,-1.85058 0.125,-0.1982 -35.8125,0 z m -8.6875,1.98276 0.0625,0.727 -0.5,0.1322 0,0.33046 0.3125,0.46264 0.75,0.0662 0.375,0.39656 0.375,0 0.1875,-0.46266 -0.5625,-0.66092 -0.25,-0.8592 -0.75,-0.1322 z m -23.3125,1.38794 -0.25,0.1982 0.125,0.26436 0.8125,0.39654 0,-0.6609 -0.6875,-0.1982 z m 15.6875,1.32184 -1.125,0.1322 -0.125,0.52874 -0.25,-0.1322 -0.1875,-0.26438 -0.5,0 -0.0625,0.59482 -0.25,0.1322 -0.1875,-0.33048 -1.125,0.99138 0.25,0.26438 -0.4375,0.1982 -0.9375,1.98276 -0.375,0.26436 0.0625,0.1982 0.3125,0.1982 -0.0625,0.33046 -0.5625,0 -0.1875,-0.1984 -0.375,0.46262 -0.1875,0.1322 -0.0625,0.46266 -0.1875,0.1322 -0.5625,0.0662 -0.25,0.8592 0.1875,1.38794 0.1875,0.6609 0.25,0.1982 0.5,0 0.75,-0.7931 0.25,-0.46264 0.125,0.727 0.4375,-0.92526 0.0625,-2.51152 0.375,-0.26436 0.125,-1.38792 1.1875,-1.7845 0.5625,-0.1982 0.25,-0.33046 0.875,0.1982 0.375,0.26436 0.1875,-0.7931 0.6875,-0.39656 0.4375,0.72702 0.3125,-0.1982 -0.0625,-0.26438 -0.1875,-0.1322 0.0625,-0.33048 0.125,0 0,-0.1982 -0.6875,-0.1982 z m -0.0625,0.72702 -0.5,0.39654 -0.1875,0.85918 -0.5625,-0.33046 -0.75,-0.1982 -0.1875,0.1982 0.3125,0.26438 0.5,0 0.4375,0.72702 0.0625,1.12354 0.375,0.1322 0.1875,0.39656 -0.1875,0.26436 -1,1.18966 -0.1875,0.5948 0.25,0.8592 0.75,0.59484 1,-0.52874 0.8125,-0.1322 0.75,-1.25574 -0.5625,-1.45402 -0.5,-1.32184 0.0625,-0.8592 -0.3125,-0.0662 -0.125,-0.6609 -0.4375,-0.79312 z m 52.1875,0.85918 0.125,0.26436 0.375,0.26438 0.125,-0.1322 -0.375,-0.39654 -0.25,0 z m -54.4375,0.1982 -0.5625,0.1982 -1.125,1.7184 -0.125,1.45402 -0.375,0.1982 -0.0625,2.5776 -0.5625,0.99138 0.6875,1.18964 0.1875,0.85922 0.3125,0 0.25,-0.46266 0.625,-0.26436 0,-1.32184 0.375,-0.39656 0.3125,-0.39654 0.0625,-0.33046 -0.75,-0.59484 0,-0.727 0.375,-0.72702 0.3125,-0.0662 0.5625,-0.7931 0,-0.52874 0.75,-0.59484 -0.0625,-1.05746 -0.3125,-0.66092 -0.5625,0 -0.3125,-0.26436 z m 55.3125,0 0,0.26436 0.5,0.1322 0,-0.1982 -0.5,-0.1982 z m 2.5,0.99136 0.1875,0.39656 0.3125,-0.0662 0.0625,-0.26436 -0.5625,-0.0662 z m -72.1875,0.85932 -0.4375,0.26436 -0.3125,0.33046 0,0.1982 0.4375,0.0662 0,0.33046 -0.1875,0.1982 0.0625,0.1322 0.4375,0 0,0.59482 0.625,0.0662 0.4375,0.26436 0.4375,0 0.75,-0.39654 0.5625,-0.7931 0,-0.52874 -0.375,-0.33048 -0.25,-0.26436 -0.1875,0.1322 -0.1875,0.26436 -0.1875,-0.0662 -0.25,-0.26436 -0.3125,0.0662 -0.375,0.33046 -0.3125,0.33046 -0.125,-0.1322 0,-0.33046 0.125,-0.1322 -0.0625,-0.1322 -0.3125,-0.1982 z m 60.75,1.05746 0,0.9914 1.1875,1.98274 0.4375,1.6523 0.75,1.52012 0.3125,0.1322 0.25,-0.26438 0.125,-0.33044 -1.125,-1.25576 0.0625,-0.66094 0.25,-0.0662 0.0625,-0.39656 -2.125,-3.17246 -0.1875,-0.1322 z m 6.375,1.52012 -0.1875,0.26438 0.0625,0.39654 0.125,0 0.3125,-0.59482 -0.3125,-0.066 z m 0,0.92528 -0.3125,0.0662 0,0.66094 0.1875,0.0662 0.125,-0.1982 0,-0.59482 z m -14,0.46266 -0.375,0.39654 0.5,1.12358 -0.1875,1.12356 -0.5625,0.26436 -0.375,-0.0662 0,1.05746 0.375,0.1322 0.625,-0.33044 0.8125,0.46264 0,0.39654 -0.625,0 -0.4375,1.12358 -0.4375,0 -1.5,2.11494 -1.625,0.727 -1.0625,0.1322 -0.75,-0.59482 -1,0.59482 -1.125,-0.33046 -0.3125,-0.7931 -1.875,-0.1322 -1,-1.71838 -0.4375,0 -0.375,-0.7931 -0.375,-0.0662 -0.5625,1.38794 -0.6875,0 -0.8125,1.78448 0.6875,0.8592 -1.375,1.98276 -0.6875,-0.0662 -0.5,0.59482 0.125,0.39656 0.5625,0 0.25,0.6609 0.5625,0.1322 1.6875,2.24712 0,1.18968 0.8125,0.52872 0.875,-0.1322 1.125,0.66094 1.375,0.39654 0.625,-0.0662 0.75,-0.0662 1.5625,-1.05748 0.5,0.0662 0.1875,0.46266 0.4375,0.1322 0.5625,0.9253 -0.375,0.9253 0.25,0.59482 0.625,0.26436 0.125,0.72688 0.75,0.066 0.125,-0.33032 1.125,-0.66092 0.6875,0.0662 0.8125,0.92524 0.5625,-0.1982 0.375,0 0.125,0.46272 0.3125,0.066 0.375,-0.5949 1.5625,-0.59482 1.375,-1.7845 0.4375,-1.7184 0,-1.12356 -0.625,-0.1322 0.375,-0.39654 -0.0625,-0.66092 -1.5,-1.58622 0,-0.72698 0.4375,-0.59486 0.4375,-0.1982 0,-0.46266 -1.0625,0 -0.1875,0.59482 -0.5,-0.1322 -0.625,-0.66104 0.375,-1.12354 0.5625,-0.59486 0.5,0.0662 -0.0625,0.92528 0.25,0.26438 0.625,-0.72702 0.25,0 -0.0625,-0.59482 0.625,-0.72702 0.4375,0 0.3125,-0.92528 0.3125,-0.1322 0,-0.59482 -0.3125,-0.33046 0,-0.85918 0.5625,-0.0662 0,-2.31324 -0.4375,0.26438 -0.125,0.59484 -0.6875,0 -2.0625,-1.18966 -1.4375,-1.85058 -1.5,-0.0662 z m -36.5,0.46264 -0.5625,0.39654 0,0.26438 0.3125,0.33044 1.125,0.1982 0,-1.12356 -0.875,-0.0662 z m -10.375,0.727 -0.625,0.46264 -0.375,1.25576 0.375,-0.0662 -0.0625,0.72702 0.1875,0.1982 0.5625,0 0.0625,0.9253 -0.4375,0.0662 -0.0625,0.52872 -0.375,0.52874 0.5625,0.0662 0.1875,0.1322 -1.1875,0.6609 0.4375,0.1982 1.1875,-0.52872 0.75,0.0662 0.375,-0.1982 0.1875,-0.1984 -0.1875,-0.1322 0,-0.1982 0.3125,-0.1322 0,-0.33046 -0.1875,-0.39654 -0.4375,-0.1982 -0.3125,-0.66094 -0.3125,-0.727 -0.125,-0.66092 0.125,-0.26436 0,-0.26438 -0.625,0 -0.125,-0.1982 0.3125,-0.46264 -0.1875,-0.1982 z m 9.3125,0 -0.1875,0.1322 0.125,0.1322 0.25,0 0.125,-0.1322 -0.125,-0.1322 -0.1875,0 z m -1.0625,0.39656 -0.3125,0.26436 0.125,0.39654 0.3125,-0.26436 -0.125,-0.39654 z m 1.9375,0 0.0625,0.6609 0.9375,0.59486 0.4375,-0.1322 -0.0625,-0.46266 -0.3125,-0.46262 -1.0625,-0.1982 z m -5.3125,0.1982 -0.625,0.7931 0,0.46266 0.25,0.7931 0.5,-0.0662 -0.0625,-0.66092 0.3125,-0.39656 0,-0.26436 -0.25,-0.59482 -0.125,-0.066 z m 4.375,0 -0.375,0.52874 0,0.26436 0.125,0.0662 0.25,0 0.4375,-0.39656 0.0625,-0.1322 -0.25,-0.26436 -0.25,-0.0662 z m 17.5,0.1322 -2.625,1.38794 -0.0625,0.92528 0.625,0.7931 -1.1875,0.66094 -1.5625,0 -0.3125,-0.52874 -1.1875,-0.0662 -1.1875,0.7931 0,1.05748 1.0625,0.9253 0.625,-0.33046 0.6875,0 0.0625,1.12356 -0.4375,0 -0.3125,0.59482 0.4375,0.72702 0.625,0.33044 0.0625,0.39658 0.1875,-0.0662 0.25,-0.26438 0.3125,0.0662 0.1875,0.39654 0.4375,0 0,-0.46262 -0.3125,-0.85922 -0.125,-0.6609 0.8125,-0.33048 1.0625,0.1322 0.625,0.72702 1.5,-0.1322 0.8125,1.18966 1,0.0662 0.25,-0.46264 0.3125,-0.0662 0.0625,-0.52874 0.5,0 0.3125,0.33046 0.25,-0.66092 2.3125,0.33046 0.375,-0.52874 -0.625,-0.85918 0.875,-2.04886 0.6875,0.0662 0.5,-1.25576 -1,-0.1322 -0.5625,-0.52872 -1.5,0.1982 -2,-2.04886 -0.6875,0.6609 -2.125,-1.05746 z m 33.625,0.26436 -0.3125,0.1982 -0.1875,0.39654 0,0.2644 0.25,-0.1322 0.25,-0.52874 0,-0.1982 z m -50.5625,0.1322 -0.4375,0.46266 -0.375,0 0,0.59482 -0.25,0.46264 0.875,0 0.1875,-0.0662 0.25,0.33048 0.5625,-0.0662 0.5,-0.6609 0,-0.46266 -1,-0.59482 -0.3125,0 z m 28.875,0.0662 -0.4375,0.59482 0.625,0.46266 -0.875,0.85918 -0.75,-0.1982 -1.0625,-0.52872 -0.9375,1.25572 0.25,0.66094 0.5,0 1,1.78448 1.9375,0.1322 0.25,0.7931 1,0.33046 1.0625,-0.59482 0.8125,0.59482 1,-0.1322 1.5,-0.72702 1.5625,-2.04886 0.375,-0.0662 0.5,-1.12354 0.5,0 0,-0.1982 -0.6875,-0.33068 -0.625,0.26438 -0.5,-0.0662 0.0625,-1.25566 -1.1875,-0.1322 -0.8125,0.9253 -1.375,-0.0662 -0.125,-0.33048 -0.8125,0 -0.4375,0.33048 -0.75,0 -0.375,-0.72702 L 58,981.03482 z m -27,0.46266 -0.4375,0.1322 0,0.46264 -0.5625,0.7931 -0.5625,0 0.25,0.39656 -0.125,0.33046 0,0.1982 0.125,0.33046 0.4375,-0.26436 0.625,0 0.4375,0.1982 1,0 0.3125,-0.7931 0.1875,-0.33048 0,-0.1322 -0.625,-0.99128 -0.625,-0.26438 L 31,981.49752 z m -6.1875,0.26436 -0.1875,0.1982 0,0.26438 0.4375,0.0662 0,-0.33046 -0.125,-0.1982 -0.125,0 z m 54,0.1322 -0.4375,0.66094 0.0625,0.26436 0.1875,-0.0662 0.5,-0.66092 -0.3125,-0.1982 z m -61.125,0.1982 -0.25,0.59482 -0.5625,0 0,0.52874 0.125,0.33048 -0.625,0.46262 0,0.1322 0.3125,0.1982 0.375,0 1.25,-0.46264 0.125,-0.99138 -0.375,0.1322 -0.4375,-0.39656 0.0625,-0.52874 z m 0.625,0 -0.5,0.0662 -0.0625,0.46266 0.375,0.26436 0.3125,-0.1322 0.1875,-0.26436 -0.3125,-0.39656 z m 9.375,0.1322 -0.3125,0.0662 -0.6875,0.26438 -0.5625,0.46264 0.0625,1.12356 0.25,0.46264 0.75,0.39654 0.6875,0.52874 0.4375,0.1322 0.4375,-0.1322 0.125,0 0.3125,0.1322 0.1875,-0.1322 0.25,-0.46264 0.0625,-0.26438 0,-0.33044 -0.125,-0.1982 -0.0625,-0.33046 -0.0625,-0.39654 0.125,-0.26438 -0.4375,-0.72722 -0.3125,0.066 -1.1875,-0.066 -0.0625,-0.066 0.125,-0.26436 z m 48.875,0.1982 -0.25,0.1982 0.125,0.46266 0.25,0.1982 -0.0625,0.72698 -0.25,0.1322 -0.1875,0.46266 0.625,0.92528 0.375,-0.1322 0.0625,-0.26438 -0.4375,-0.39656 0.25,-0.33046 0.3125,0 0.1875,0.26438 0.0625,-0.52874 0.5625,-0.52874 0.375,-0.0662 -0.3125,-0.52874 -0.125,-0.1982 -0.1875,0.1322 -0.1875,0.26438 -0.4375,-0.0658 -0.4375,-0.33046 -0.3125,-0.39656 z m -52.1875,0.1322 -0.5,0.0662 0,0.39656 -0.5625,0.1322 0.1875,0.99138 -0.4375,0.1982 -0.0625,0.52874 0.3125,0.39654 -0.0625,0.39656 0.4375,0.26438 0,0.52874 0.5,0.1322 0.125,0.33044 0.25,0 0.1875,-0.26436 0.5,-0.0662 0.625,-0.26436 0.0625,-0.33046 -0.6875,-0.66094 -0.0625,-0.1322 0.75,-0.46264 0.4375,-0.066 -0.3125,-0.46276 -0.0625,-1.12354 -0.3125,-0.33046 -0.375,-0.1322 -0.4375,0.1982 -0.25,0 -0.25,-0.26438 z m -1.1875,0.66092 -0.6875,0.33046 0.125,0.1322 0,0.39656 -0.125,-0.0662 -0.1875,-0.26436 -0.375,0.66094 0.625,0.1322 0.1875,0.26436 0.125,0 0.0625,-0.59482 0.375,-0.1322 -0.125,-0.85922 z m 9.375,0.26436 -0.25,0.72702 -1.1875,0 -0.375,-0.1982 -0.5625,0 -0.4375,0.26436 0.125,0.46266 -0.4375,0.9253 0,0.39654 0.1875,0.1322 1.25,0.0662 0.375,-0.26438 0.375,0.1322 0.5,0.72702 -0.375,0.72702 0.4375,0.1982 0.625,-0.7931 0.375,0.0662 0.3125,0.26436 -0.3125,0.39654 0.4375,0.66094 0.375,0 0.1875,-0.46266 0.4375,-0.0662 0.0625,-0.33046 -0.8125,-0.1322 0,-0.39654 0.8125,0 0.8125,-0.727 0.375,-0.33046 0.0625,-1.12358 -1.6875,-0.1322 -0.625,-0.99138 -0.5,-0.1982 -0.5625,0 z m -10.6875,1.05748 -0.125,0.26436 1.0625,0.72702 0.3125,0.0662 0,-0.33046 -0.25,-0.33046 -0.125,0 -0.25,-0.26436 -0.625,-0.1322 z m 4.5625,0.1982 -0.4375,0.0662 -0.625,0.46264 0.625,0.66094 0.4375,0 0.25,0 0.375,0.26436 0.6875,-0.59484 -0.6875,-0.52874 -0.625,-0.33046 z m -4.75,0.1322 -0.3125,0.1322 -0.6875,0.7931 -0.25,0 -0.25,-0.1982 -0.1875,0 -0.125,0.46264 -1,0.0662 0.0625,0.1982 0.625,0.46266 0.8125,0.6609 0,0.85922 -0.4375,0.72702 0.9375,0.46262 0.9375,0.0662 0.25,-0.33048 0.5625,0 0.1875,0.1322 0.625,0 0.25,-0.46264 -0.375,-0.46264 0,-0.26438 0.0625,-0.33046 -0.1875,-0.33044 -0.3125,0.1322 -0.0625,-0.26438 0.75,-0.85918 0,-0.52874 -0.5,-0.26436 -0.25,-0.0662 -1.125,-0.79312 z m 50.5,0.33044 -0.25,0.1322 -0.25,0.9253 -0.5,0 -0.5625,0.66092 0.0625,0.52874 0.3125,0.1322 0.0625,0.99138 0.5625,0.0662 0.5625,-0.66094 -0.1875,-0.1982 0,-0.66092 0.5,-0.66092 -0.25,-0.46264 0.125,-0.1982 0.125,-0.46264 -0.3125,-0.1322 z m -44.375,0.46266 -0.6875,0.59482 0.125,0.1322 0,0.1322 1.1875,0 0.875,-0.39656 0,-0.39654 -0.1875,0.0662 -0.25,-0.1322 -0.125,0 -0.375,0.1322 -0.5625,-0.1322 z m 49.5,0 -0.375,0.46262 0,0.39656 0.1875,0.26438 0.0625,0.99138 -0.5,0.59482 -0.25,-0.1322 -0.1875,0.46266 -0.0625,0.46264 0.1875,0.26436 -0.125,0.1982 -0.3125,-0.33044 -0.25,0 -0.25,0.1322 -0.125,0.0662 -0.75,0.92528 0.125,0.1982 0.375,0.0662 0.6875,-0.59482 0.5,-0.0662 0.4375,0.52874 0.3125,-0.1322 0.125,-0.52874 0.625,0 0.625,-0.7931 -0.3125,-1.32184 -0.125,-0.66092 0.3125,-0.26438 -0.75,-1.18964 -0.1875,0 z m -51.25,0.33044 -0.0625,0.39654 -0.6875,0.33048 -0.5,0.0662 -0.125,0.1982 0.125,0.1322 0.3125,-0.0662 0.3125,0 0.375,0.33044 0.6875,-0.1982 0.5,-0.26436 0.125,-0.26436 0,-0.26438 -0.5,-0.39654 -0.5625,0 z m 5.1875,0.1322 -0.25,0.26436 0.4375,0.72702 0,0.46266 0.1875,0 0.375,-0.72702 -0.5,-0.66092 -0.25,-0.0662 z m -1.875,0.0662 -0.875,0.46262 -1.1875,0 -0.1875,0.33048 0,0.46264 0.3125,0.1322 0.875,0 1.1875,-1.05748 0,-0.26436 -0.125,-0.0662 z m 0.3125,0.1322 -0.0625,0.26436 -0.875,0.7931 0.75,1.12356 0.4375,0.39656 0.875,0 0.3125,-0.26436 0.375,-0.0662 0.25,0.1982 0.5,-0.59482 -0.0625,-0.33046 -0.5,-0.1322 -0.375,0 0,-0.52874 -0.4375,-0.7931 -1.1875,-0.0662 z m -6.0625,0.33046 -0.6875,0.727 0,0.0662 0.3125,-0.0662 0.25,0.33046 0.375,-0.1322 0.3125,0.26438 0.125,-0.0662 0.375,-0.59486 -0.125,-0.1322 -0.3125,0 -0.1875,-0.39656 -0.4375,0 z m 3.375,0.39656 -0.375,0.26436 -0.75,0.1322 0.125,0.46266 0.5,0 0.5,-0.39656 0,-0.46264 z m -1.875,0.1322 -0.375,0.0662 -0.3125,0.52874 -0.25,0.1982 -0.3125,-0.26438 -0.375,0.1322 -0.0625,0.26438 0,0.26436 0.375,0.46266 0.5625,0 1.3125,1.5862 0.8125,0.26436 0.4375,0.46266 0.125,1.05746 0.25,-0.1322 0.1875,-0.59482 0,-0.46264 0.375,0 0,-0.26438 -1,-0.52872 -1,-1.05748 -0.4375,-0.59482 -0.0625,-0.59484 0.5,-0.1322 -0.125,-0.39656 -0.3125,-0.26438 -0.3125,0 z m 18,0.1322 -0.6875,0.26436 0.4375,1.38792 0,0.52874 0.25,0 0.375,-0.72702 0.9375,0 0.1875,0.52876 2.0625,1.45402 0.75,0.1982 0.25,0.52874 0.4375,0 0,-0.8592 -0.4375,-0.26436 0.75,-0.99138 0.3125,0 0.3125,0.39654 0.8125,-0.33046 -1.125,-0.46266 -0.0625,-0.1982 -0.25,0.0662 -0.25,0.46266 -1.125,-0.0662 -0.8125,-1.18964 -1.4375,0.1322 -0.6875,-0.72702 -1,-0.1322 z m -14.5,0.1322 -0.3125,0.26436 -0.125,0 -0.125,0.33048 0.375,0.46262 0.0625,0.39656 -0.5,0.66094 0.0625,0.1982 0.25,0.0662 0.25,-0.26438 0.125,0 0.1875,0.1982 0.5625,-0.1982 -0.0625,-0.92528 -0.75,-1.18968 z m -1.5,0.1322 -0.5625,0.46264 -0.5625,0 -0.0625,0.39654 0.25,0.0662 0.125,-0.1982 0.25,0.1982 0.125,0.59484 1.0625,0.52874 0.125,-0.1322 -1.0625,-1.18964 0.0625,-0.1982 1.0625,-0.0662 0.125,-0.33048 -0.6875,0 -0.25,-0.1322 z m 22.75,0.33044 -0.3125,0.72702 -0.375,-0.39656 -0.3125,0 -0.0625,0.39656 0.0625,0.26438 1.3125,0.46264 -1.125,0.52874 -0.1875,-0.1322 -0.25,0.1982 0.0625,0.0662 0.125,0.0662 0.8125,0 0.4375,-0.1324 0.5,-0.66092 0.6875,0.0662 0.8125,-1.18966 -2.1875,-0.26436 z m 22.375,0.1322 -0.5,0.66092 0.25,0.1322 0,0.1982 -0.1875,0.1322 0.1875,0.46264 0.4375,1.05748 0.4375,0 0.4375,-0.59482 0.0625,-0.39656 -0.1875,-0.7931 -0.9375,-0.8592 z m -45.25,0.1322 -0.0625,0.1322 1,1.12356 0.4375,-0.595 -0.0625,-0.26436 -0.3125,-0.39656 -1,0 z m 4.4375,0.52874 -0.3125,0.0662 -0.1875,0.2644 -1,0 -0.375,-0.2644 0,0.79312 0.25,0.59484 1,0 0.4375,-0.33046 0.4375,-0.1982 -0.125,-0.52874 0.125,-0.26436 -0.25,-0.1322 z m 5.3125,0.0662 -0.4375,0.2644 0.5,0.72698 0.6875,0.26438 0.375,0 0.625,-0.1982 0.1875,-0.26438 -1.9375,-0.79312 z m 6.8125,0.132 -0.3125,0.72702 -0.375,0 -0.625,0 -0.0625,0.39654 -0.6875,0 0,0.59484 0.6875,0.46264 -0.1875,0.66092 0,0.33046 0.3125,0 0.375,-0.52874 0.8125,-0.1982 1.8125,0.72702 0.0625,0.52874 1,0.1322 1.125,-1.25576 -0.125,-0.39656 -0.75,-0.1982 -2.125,-1.45404 -0.125,-0.52872 -0.8125,0 z m -26.0625,0.0662 -0.25,0.0662 -0.1875,0.46264 0.0625,0.52872 0.75,0.0662 0.125,0.33046 -0.375,1.98276 0.0625,0.33046 0.5,0.33046 0.625,0 1.25,-0.26436 0.5625,-0.8592 0,-0.7931 1.0625,-0.99138 0.0625,-0.46266 -0.9375,0 -1,-0.52872 -1.9375,0 -0.375,-0.1982 z m 6.875,0.52874 -0.3125,0.33036 0,0.26438 0.25,0.1982 0.0625,-0.0662 0.0625,-0.39654 -0.0625,-0.33048 z m 24.125,0 -0.625,0.7931 0.375,0.33048 0,0.85918 0.25,0 0.375,-0.1322 0,-0.26436 0.4375,-0.39654 0.3125,0.33046 0,0.52872 0.375,0 0.0625,-0.39654 0.375,-0.0662 0.25,0 0.125,0.26438 0.125,0 0.0625,-0.1982 -0.25,-0.59484 -0.5625,-0.0662 -0.125,-0.33046 -0.125,0 -0.3125,0.1322 -0.875,-0.0662 -0.25,-0.1322 0,-0.1982 0.3125,-0.26436 -0.0625,-0.1322 -0.25,0 z m -9.6875,0.1322 -0.1875,0.26436 0.75,0.9914 0.25,-0.0662 0.4375,0.46264 0.1875,-0.7931 0.4375,0.0662 -0.0625,-0.26436 -0.6875,-0.66092 -0.1875,0.39654 -0.9375,-0.39654 z m -10.1875,0.0662 -0.1875,0.26436 0,0.72702 0.1875,0.46266 0.125,-0.0662 0.25,-0.46264 -0.125,-0.1982 -0.0625,-0.59482 -0.1875,-0.1322 z m 0.875,0 -0.5625,0.1322 0.0625,0.46262 0.125,0.1982 0.5625,-0.33044 -0.1875,-0.46294 z m 4.25,0 -0.875,0.66092 -0.8125,0 -0.0625,0.52874 -0.875,0 -0.375,0.33046 0,0.1982 0.25,0.1982 0,0.1982 -0.125,0.26436 0.125,0.1982 0.25,-0.1322 0.3125,0.33048 -0.0625,0.1982 -0.125,0.1322 0.125,0.1982 0.8125,0.1982 0.5625,-0.26436 0,-0.33046 0.3125,0.0662 0.625,0.39656 0.6875,-0.1322 0.3125,-0.33046 0.1875,0.0662 0,0.39656 0.3125,0 0.1875,-0.52872 2.0625,-0.1982 0.9375,-0.1322 -0.25,-0.33048 0,-0.46262 0.1875,-0.1982 -0.6875,-0.59484 0.0625,-0.46264 -0.375,0 -0.625,-0.26436 -0.3125,0.33044 -1.25,0 -0.75,-0.46264 -0.75,-0.0662 z m -2,0.0662 -0.4375,0.1982 0,0.59482 0.5,-0.1982 0.1875,-0.1324 -0.0625,-0.26436 -0.1875,-0.1982 z m 6.8125,0.198 -0.625,0.1982 -0.0625,0.39654 0.6875,0.59484 0.5,0.1322 0.25,-0.26436 -0.75,-1.05748 z m -7.375,0.0662 -0.3125,0.26436 -1.0625,-0.0662 -0.625,0.39656 -0.375,0.59484 0,0.26436 0.6875,0.33046 0.375,0.1322 -0.1875,0.1982 -0.375,0.0662 -0.0625,0.1982 0.125,0.33046 0.4375,0.26438 0.1875,0 0,-0.59484 0.3125,-0.33046 -0.8125,-0.99138 0.125,-0.33046 0.1875,0 0.3125,0.1982 0.1875,-0.0662 0,-0.33048 0.875,0 0,-0.52874 z m -14.0625,0.1982 -0.0625,1.38792 -0.3125,0.26438 0.0625,0.1322 0.1875,0.33044 -0.125,0.46266 0.1875,0.0662 0.5,-0.0662 -0.0625,-0.39656 0.3125,-1.91666 -0.0625,-0.26438 -0.625,0 z m 58.75,0.26436 -0.4375,0.46266 0,0.46264 0.125,0.1322 0.5625,-0.52874 -0.0625,-0.46264 -0.1875,-0.066 z m -51.5625,0.0662 -0.375,0.1982 0.0625,0.8592 0.3125,0.0662 0.25,-0.26438 0,-0.7931 -0.25,-0.0662 z m 25,0.26438 -0.3125,0.33046 0,0.26438 -0.5,0.1982 -0.875,0 -1.1875,1.25574 -1.0625,-0.0662 0.25,1.98276 0.625,0.1322 0.0625,0.39654 -0.4375,0.39656 0.8125,0.66092 1.5625,-0.59484 0.125,-0.727 1,-0.66092 0.375,-1.52012 0.3125,-0.33046 -0.3125,-0.52872 1,-0.59484 -0.125,-0.1982 -0.5,0 0,0.46266 -0.625,0 0,-0.59484 -0.1875,-0.26438 z m -9.6875,0.1322 -0.1875,0.0662 -0.3125,0.39656 -0.625,-0.1322 -0.1875,0.1982 0.0625,0.33046 0.1875,0.39656 0.875,0.92528 -0.125,0.39656 -0.1875,0 -0.0625,0.39654 0.5,0.59482 0.4375,0.0662 0.875,1.25572 0.4375,0.0662 0.4375,0.26438 0,0.59482 1.5,0.9253 0.5625,0 0.3125,-0.33048 0.4375,0 0.25,0.59484 1.625,0.26438 0.0625,-0.66094 0.5625,-0.1986 0,-0.1982 -0.4375,-0.66092 -0.9375,-0.7931 0.5,-0.46266 -0.0625,-0.1982 -0.625,-0.1322 -0.25,-2.24714 0,-0.46262 -1.75,-0.72702 -0.75,0.1982 -0.375,0.52874 -0.375,0 -0.125,0.0662 -0.8125,-0.0662 L 40,991.41134 39.625,990.94868 z m 34.9375,0.066 -0.25,0.26436 0.0625,0.39656 0.25,0 0.125,0.8592 0.1875,0.1982 0.3125,-0.33048 0.125,-0.52874 -0.375,-0.59472 -0.4375,-0.26436 z m -52.75,0.1322 -0.25,0.1322 0.0625,0.1982 0.3125,0 0.1875,-0.1322 -0.3125,-0.1982 z m 29.3125,0.0662 -0.1875,0.26436 -0.125,0 -0.875,0.59482 0.25,0.52874 -0.3125,0.33046 -0.375,1.5862 -1,0.66094 -0.125,0.727 -1.625,0.59484 0.4375,0.59482 -0.0625,0.33046 -0.5,0.26438 -0.0625,0.52874 0.625,0 0.1875,-0.1982 1.1875,0 1.0625,0.99136 0.125,-0.46264 0.75,0 0,-0.59482 -0.75,-0.8592 0.125,-0.39654 0.875,-0.0662 1.0625,-2.44542 -0.625,-0.52874 -0.1875,-0.85918 1.5,-0.1322 -0.875,-1.32184 -0.5,-0.1322 z m -24.75,0.7931 -0.75,0.1322 0.0625,0.1982 0.6875,0.33046 0.0625,0.1322 0.1875,0.0662 0,-0.72702 -0.25,-0.1322 z m -15.9375,0.33046 -0.0625,0.1982 0.125,0.1322 0.3125,-0.1982 -0.375,-0.1322 z m 28.125,0 -0.875,0.1322 -0.25,1.25572 -1,0.85922 0.0625,0.39654 1,0.0662 1.5625,1.32184 0.875,0 0,-0.33046 0.3125,-0.33046 0.4375,0.26438 0.0625,-0.0662 -0.8125,-1.18968 -0.4375,-0.0662 -0.5625,-0.727 0.125,-0.52874 0.1875,0 0.0625,-0.26438 -0.75,-0.7931 z m -13.8125,0.1322 -0.8125,0.33044 0.25,1.18966 -0.3125,0.1982 0.0625,0.52872 0.5625,0.59484 0,0.59484 0.125,0.1982 0.25,-0.0662 0,-0.59482 0.1875,0 0.4375,-0.72702 -0.5625,-0.26438 0,-0.1322 0.125,-0.26436 0,-0.59484 -0.125,-0.0662 0,-0.33046 0.125,-0.1982 0,-0.1982 -0.3125,-0.1982 z m 12.8125,0 -1.9375,0.1982 -0.25,0.46264 -0.375,0 -0.0625,0.39656 0.4375,0.1982 0,1.12358 0.4375,0 0.375,-0.33048 0.1875,-0.0662 1,-0.7931 0.1875,-1.18964 z m -14.4375,0.1322 -2.625,0.52872 -0.5625,0.46266 0.375,1.91666 -1.0625,0.0662 -0.625,1.0575 -1.5,0.33044 0,0.7931 4.9375,3.96542 0.8125,0.066 2.8125,-2.31358 -0.3125,-0.3304 -0.5,-0.066 -0.3125,-0.59472 0,-2.31324 -0.1875,-0.1982 0,-0.59482 -0.5625,-0.59522 -0.0625,-0.6609 0.25,-0.1322 -0.125,-0.727 -0.125,-0.39656 -0.625,-0.26438 z m 29.4375,0.1982 -1.4375,0.1322 0.1875,0.66092 0.6875,0.59482 -1.1875,2.5776 -0.8125,0.0662 -0.125,0.26436 0.8125,0.7931 -0.0625,0.7931 -0.8125,-0.0662 -0.0625,0.3964 0.625,0 0.0625,0.2646 -0.5,0.2644 0.3125,0.6608 0.5625,0.198 0.375,-0.3304 0.1875,-0.4626 0.1875,-0.132 0.25,0.2644 -0.0625,0.6608 -0.1875,0.3304 0.0625,0.5288 2.5,5.5516 0.75,-0.3964 0.375,-1.5862 0,-1.9828 2.4375,-2.7098 0,-0.6608 0.4375,-0.198 0,-0.7932 -0.5,-1.05746 0.3125,-0.59484 0.625,0.66092 0.875,0 0,0.39654 -0.25,0.26438 0.0625,0.1982 0.4375,0 0.0625,0.52872 0.1875,0 0.3125,-0.59482 0.1875,-1.7184 0.5625,-0.46264 0,-0.59482 -0.1875,-0.46266 -0.375,0 -1.4375,0.99138 0.125,0.66094 -1,0 -0.375,-0.46266 -0.1875,0 0.0625,0.66094 -2.125,-0.1982 -1.375,-0.59484 -0.0625,-0.79322 -0.875,-0.59482 0,-1.18964 -0.625,-0.72702 z m -18.125,0.46264 -0.4375,0.1982 -0.4375,0.0662 0,0.26436 0.1875,0.1322 0.3125,0.0662 0.5625,-0.59482 -0.1875,-0.1322 z m -7.8125,0.0662 -0.25,0.0662 0,0.26436 0.25,0.1322 0.125,-0.1322 -0.125,-0.33044 z m 3.75,0 -0.125,0.1982 0.1875,0.0662 0.125,0.1982 0.6875,0 0.1875,-0.26436 -0.125,-0.0662 -0.1875,0.0662 -0.375,0 -0.125,-0.1982 -0.25,0 z m -12.3125,0.33036 -0.375,0.7931 -0.8125,0.39656 -0.625,1.91666 -1.3125,0.7931 -1.8125,3.17248 1.75,-0.066 0.0625,-0.9254 0.5,0 0,-1.2557 1.5625,0 0,-1.6523 1.5,-0.33046 0.6875,-1.05748 0.9375,-0.0662 -0.3125,-1.7184 -1.75,0 z m 16.875,0 0,0.33044 -0.125,0.46266 0.4375,0.0662 0,-0.727 -0.3125,-0.1322 z m -21.3125,0.66092 -0.1875,0.1982 0.1875,0.1982 0.25,-0.1322 -0.25,-0.26436 z m 21.125,0.26436 -0.1875,0.79312 0.3125,0.99136 0.3125,-1.45402 0,-0.26436 -0.4375,-0.0662 z m 1.5,0.0662 -0.4375,0.33046 -0.5,0.0662 -0.375,1.38794 0,0.1982 0.5625,0 0.6875,-0.66092 0,-0.1982 -0.25,-0.33046 0.5,-0.39656 -0.0625,-0.39654 -0.125,0 z m -10.625,0.0662 -0.5,0.8592 -0.125,0 -0.0625,0.59484 -0.25,0 0,2.24712 0.25,0.52866 0.5625,0.066 0.3125,0.4624 1.3125,0.3306 0.3125,-0.198 3.1875,1.7182 0.5,0.066 -0.0625,-6.01452 -0.6875,-0.1322 -0.375,-0.46266 -0.875,0 -0.4375,0.39656 0,0.1982 0.25,0.26438 0.0625,0.26436 -0.625,0.33046 -1.1875,-0.59482 -0.3125,-0.52874 -1.25,-0.39656 z m 10.9375,0.39656 -0.4375,0.39656 0.1875,0.1982 0,0.33044 -0.75,0.72702 -0.625,0 0.125,0.46266 2.125,2.70976 0,0.72702 0.1875,0.3304 0.5625,0.3304 0.875,1.4542 0.625,-0.5948 1,0.6608 0.875,-0.859 1.5625,-0.529 1.125,-0.6614 0.1875,-0.92522 -0.1875,-0.066 -1.6875,-0.132 -0.125,-0.7272 -0.375,-0.33028 -1.0625,-1.5862 -0.75,-0.26438 -0.0625,-0.26436 -0.9375,0.0662 -1.5625,-1.38794 -0.875,-0.0662 z m 18.375,0 -0.75,0.1982 0.0625,0.66094 1.25,0.59482 2,0.1982 -0.0625,-0.52874 -1.375,-0.39656 -1.125,-0.727 z m -21.6875,0.132 -0.5,0.39658 -0.375,0 -0.8125,-0.26438 -0.375,0 0.0625,4.89086 3.9375,0.066 0.4375,-0.5288 -0.0625,-0.7932 -1.4375,-1.91656 -0.1875,-0.59482 0.0625,-0.39656 0.25,0.0662 0.3125,1.05746 0.25,0.1322 0.125,-0.1322 -0.0625,-0.46264 -0.125,-0.33046 -0.3125,-0.99138 -0.0625,0 -0.5,0 -0.4375,-0.1984 -0.1875,0 z m 27.875,0.33046 0,0.66094 -0.5625,0.39656 -0.1875,1.71838 -0.375,0.66072 -0.0625,0.7934 -0.25,0.132 1.0625,1.0574 0.25,0.5286 0.125,0.661 0.125,0.198 0.375,0 0.25,-0.5286 0.125,-0.198 0.4375,0.8594 0.0625,0.9252 0.25,0.066 0.3125,0.5948 -0.3125,0.4628 0.4375,0.7268 0.125,-0.3964 0,-0.9254 -0.5625,-0.9252 -0.0625,-0.198 0.1875,-0.198 0,-0.5948 -0.8125,-1.124 0.125,-0.727 1.0625,-0.4626 0.25,-0.4626 -0.875,-0.132 -0.125,-0.7932 -0.625,-0.26438 -0.25,-0.6609 0.375,-0.9253 -0.5625,-0.7931 -0.3125,-0.1322 z m -20.8125,0.26438 -0.25,0.26436 0,0.52876 0.5625,0.1982 0,-0.7931 -0.3125,-0.1982 z m 18.5625,0.26436 -0.9375,0.1322 0.1875,0.33046 0.8125,0 -0.0625,-0.46266 z m 13.25,0.1322 -0.5625,0.46266 0,0.85918 0.4375,0.52874 0.125,-0.0662 0,-1.7845 z m -59.0625,0.66094 -0.25,0.1982 0.3125,0.26436 0.1875,-0.39654 -0.25,-0.066 z m 44.875,0.1322 -0.1875,0.39656 0.5,1.05746 0,0.79308 0.125,0.198 0.625,0.066 0.3125,-0.3964 0.25,0.198 0.0625,0.4626 0.25,-0.132 0,-0.595 -0.1875,-0.066 -0.125,-0.52862 -0.4375,0 -0.0625,-0.33026 0.25,-0.33046 0,-0.1982 -0.75,0 -0.625,-0.59482 z m -43.125,0.0662 -0.3125,0.1982 0.125,0.1322 0.1875,-0.33048 z m -1,0.0662 -0.3125,0.0662 0.1875,0.26436 0.25,0 -0.125,-0.33046 z m 28.5,0.6609 -0.25,0.1982 -0.0625,0.59482 0.25,0.1982 0.1875,0 0.0625,-0.7931 -0.1875,-0.1982 z m 2.125,0.0662 -0.5,0.1322 -0.5625,0.8592 -1.0625,0.0662 0.125,0.5948 1.5,0.132 0.125,-1.18982 0.25,-0.1322 0.125,-0.46264 z m -27.3125,0.0662 0,0.66092 -1.5625,0 0,1.25584 -0.5,0 -0.0625,0.92516 -1.875,0.066 0.3125,0.4626 -0.0625,1.9828 0.5,-0.3304 0.375,-0.066 0.5,0.132 0.5,0.859 0.5625,-0.3964 2.5625,0 -0.625,-4.49436 0.625,0 -1.25,-1.05734 z m 47.625,0.26436 -0.5625,0.33046 0.1875,0.79314 0.75,0.132 0.1875,0.59476 -0.25,0.198 0,0.132 1.8125,1.8506 0.0625,0.5288 -0.125,1.6524 -1.25,0.9912 0.1875,0.2644 0.0625,0.3304 0.4375,0.066 0.625,-0.793 0.5625,-0.198 0.25,-0.7932 -0.125,-1.3884 -0.5625,-0.8592 -0.625,-0.4628 -0.75,-1.3878 0.5625,-0.99116 -0.8125,-0.92546 -0.625,-0.0662 z m -20.375,0.26438 -0.25,0.1322 -0.0625,1.05742 0.25,0.132 -0.1875,1.05736 -1.1875,0.661 0.625,1.1236 0.75,0 1.6875,-2.6436 0,-0.39656 -1.375,-0.79312 -0.25,-0.33046 z m 19.6875,0.1322 -0.3125,0.1982 -0.3125,0.9914 0.5,0.66078 -0.125,0.7932 0.125,0 0.875,-0.3966 1.125,1.322 0,0.859 0.25,0.198 0.625,-0.5286 -0.0625,-0.4626 -1.8125,-1.7846 0,-0.2644 0.25,-0.198 -0.125,-0.46258 -0.75,-0.132 -0.25,-0.79312 z m -46.1875,0.52882 0.625,4.49416 -2.625,0 -0.5,0.3304 0.5625,0.7932 -0.0625,0.2644 0.875,-0.066 0.3125,0.8588 1.125,0 0.3125,-0.9252 1.625,-1.256 2.125,-0.198 0.125,-1.52 -0.4375,-0.066 -3.375,-2.70956 -0.6875,0 z m 7.875,0.4626 -2.8125,2.37936 -0.4375,-0.066 -0.125,1.586 -1.4375,0.198 0.8125,1.322 0.375,-0.066 0.375,-0.5288 0.625,-0.132 0.625,0.3968 1.3125,0.066 1.0625,-0.4628 0.375,-0.3304 0.0625,-0.4626 0.75,-0.793 0.1875,-1.7192 -0.5,-1.05736 -1.25,-0.3304 z m 1.75,0.132 -0.375,0.198 0.5,0.99136 -0.1875,1.8506 -0.75,0.727 0,0.5286 -0.375,0.3306 0.5,0.3966 0.375,0.066 0,1.1896 -0.25,0.198 -0.0625,0.198 0.25,0.132 0.3125,0.661 0.5,0.066 0,-0.198 0.8125,0.066 0,-0.3968 1.125,-1.1234 0.6875,0 -0.375,-0.793 0,-0.9254 0.5625,-0.5288 0,-1.7846 -3.25,-1.85036 z m 40.375,0.066 -0.375,0.132 -0.3125,0.33036 0.25,0.4626 0.3125,0 0.375,-0.3304 0.0625,-0.46256 -0.3125,-0.132 z m -32.0625,0.066 -0.5625,0.59476 -4,0 0.0625,1.0574 -0.375,0 -0.0625,1.9168 -0.5625,0.5286 0,0.7932 0.375,0.8592 0.5,0.2644 -0.0625,0.5286 -0.1875,0.132 1.875,2.049 1.0625,0.066 0.125,0.198 1.5,0.066 0,-0.3306 0.125,-0.2642 0.5,-0.066 -0.625,-0.9252 -0.4375,0 -0.125,-0.6612 0.375,-0.198 1.0625,-2.3792 0,-1.3218 0.6875,-0.793 -1.25,-2.11496 z m 27.4375,0 -1,0.39656 -0.0625,0.6608 0.8125,1.0576 0,0.727 -0.1875,0.198 0.0625,0.066 0.5625,0.9252 0,1.0576 -0.25,0.4626 -0.0625,0.3304 -0.1875,0.3966 0.125,0.4626 0.5,0.4628 0.4375,0 0.375,0.5948 0.4375,0 0.0625,-0.198 -0.8125,-0.8602 -0.5,-0.859 0.0625,-2.049 0.125,-0.198 0.3125,0 0,0.4626 0.6875,0.529 0.25,-0.132 0,-0.3968 -0.3125,-0.132 -0.0625,-0.3966 0.375,-0.5946 0.1875,0 0.3125,0.132 0.3125,0.066 0,-0.7932 -0.9375,-1.1236 -0.125,-0.066 -0.8125,0.3966 -0.1875,-0.066 0,-0.8592 -0.5,-0.66076 z m 9.4375,0.39656 -0.375,0.2642 -0.0625,0.9914 0.625,1.2558 0.25,0.198 0.25,-0.198 0.4375,0.066 0.125,0.3966 0.3125,0.066 0.1875,-0.2644 -0.25,-0.2644 -0.25,-0.2642 -0.5,-0.066 -0.3125,-0.4626 0.3125,-0.529 0.0625,-0.4626 -0.25,-0.5948 -0.5625,-0.132 z m -29.875,1.321 -1.5,0.529 -0.875,0.859 -1,-0.5948 -0.5625,0.5288 0.25,0.727 0,0.6608 0.25,0.3306 0.25,0.198 3.75,-1.6524 0.0625,-0.4626 -0.625,-1.1236 z m -3.4375,3.0404 -0.25,-0.132 -0.3125,0.3966 -0.0625,0.5948 0.5625,0 0.0625,-0.8592 z m -2.25,-2.5114 -0.625,0.7268 0.0625,0.9254 1.125,0 1.0625,0.9914 0.25,-0.3304 -1.4375,-1.1238 -0.3125,-1.0572 -0.125,-0.132 z m 28.0625,0.793 -0.125,0.066 -0.3125,0.5286 0.0625,0.2644 0.3125,0.132 -0.0625,0.529 -0.1875,0.132 0.625,0.7268 1.1875,-0.9252 0.0625,-1.454 -0.5625,0.4626 -0.3125,-0.198 -0.4375,-0.066 -0.25,-0.198 z m -50.9375,0.132 -0.3125,0.066 -0.625,0.4626 -0.125,0.2644 -0.0625,0.2642 0.25,0.132 0.75,0 0.5,-0.132 0,0.2646 0,0.3304 0.4375,0.198 0.125,0.132 0.5625,0 0.0625,-0.2642 -0.5625,-0.7272 -0.625,-0.8592 -0.375,-0.132 z m 58.6875,0 0.125,0.4626 0.1875,0.132 0.125,-0.198 -0.25,-0.3304 -0.1875,-0.066 z m -62.5,0.066 -0.25,0.198 0.1875,0.198 0.25,-0.132 -0.1875,-0.2644 z m 0.75,0.3964 -0.1875,0.132 0.125,0.2644 0.3125,-0.132 -0.25,-0.2644 z m 63.75,0 -0.375,0.066 0.3125,0.3966 0.125,0.3968 0.25,0 -0.0625,-0.6614 -0.25,-0.198 z m -54.1875,0.198 -0.5625,0.066 -1.625,1.256 -0.25,0.859 0.1875,0.2644 0.6875,-0.066 0.1875,-0.4626 0.8125,-0.066 0.625,0.198 0.8125,-0.6608 -0.875,-1.3878 z m 52.875,0.198 -0.0625,0.7934 0.3125,0.3304 0.0625,0.5286 0.3125,0.066 0.125,-0.3304 -0.1875,-0.198 -0.0625,-0.9914 -0.5,-0.198 z m -62.875,0.066 -0.25,0.198 0.25,0.3308 0.25,-0.066 -0.25,-0.4628 z m 25.8125,0 -1.125,2.6438 -0.375,0.066 0.0625,0.5288 0.4375,0 0.6875,1.0574 0.375,0.132 0.875,0.7932 0.5,0 2,-0.661 1.4375,-1.6524 -0.75,0 -1.25,-0.793 -0.0625,-0.4626 -0.8125,0 0.0625,-0.793 -0.9375,-0.8594 -1.125,0 z m -22.0625,0.2638 -0.3125,0.132 -0.75,0.066 0,0.132 1.0625,0 0.0625,-0.198 -0.0625,-0.132 z m 59.875,0 0,0.7272 0.1875,0.2642 0.25,-0.3304 -0.0625,-0.661 -0.375,0 z m -2,0.066 -0.125,0.2646 -0.0625,0.3304 -0.75,0.9252 0.0625,0.2644 0.3125,-0.066 0.9375,-1.1236 -0.375,-0.595 z m -49.3125,0.132 -0.5,0.132 -0.25,0.4626 0,1.2556 -0.4375,0.5948 0,0.9254 0.625,0.066 0.6875,0.8592 0.375,0.066 0.25,-0.132 0.4375,-0.066 0.125,-0.5948 0.625,-0.3966 0.625,-0.066 1.125,-2.181 -0.0625,-0.5288 -0.5,-0.3964 -1.0625,0.4626 -1.375,0 -0.6875,-0.4628 z m 20.8125,0 -0.375,0.132 -0.375,0.066 0.375,0.3964 0.4375,-0.3304 0.125,-0.066 -0.1875,-0.198 z m -30.4375,0.2644 0.1875,0.5286 0.0625,-0.3304 1.3125,0.132 -0.5625,-0.2644 -1,-0.066 z m 13.375,0.198 0,0.5286 -1.125,2.2472 -0.6875,0.066 -0.5,0.3304 -0.125,0.5948 0.5,0.4626 -0.0625,0.7272 2.75,-0.066 0.1875,-0.2646 -0.75,-0.8592 -0.125,-0.3304 0.5,-0.9912 -0.3125,-0.6612 -0.3125,-0.132 0,-0.3304 0.3125,-0.2644 0.0625,-0.9912 -0.3125,-0.066 z m -13,0.132 -0.125,0.3964 0.25,0.4626 0.5625,-0.5948 0,-0.132 -0.6875,-0.132 z m 28.8125,0 -0.625,0.3302 0.125,0.5948 -0.125,0.5948 -0.375,0.3304 -1.5625,1.7846 -1.125,0.3304 -0.5,0.6612 0.0625,1.586 0.375,0.2644 3.375,-3.7672 0.625,-1.9168 0,-0.5948 -0.25,-0.198 z m 32.5,0 0.0625,0.5286 -0.5,0.3966 -0.4375,0.066 -0.5,0.5286 0.0625,0.198 0.375,-0.132 0.3125,-0.198 0.25,0.661 0.4375,0.3306 0.1875,-0.066 0.1875,-0.198 -0.375,-0.3308 0.1875,-0.198 0.25,0.198 0.1875,-0.2642 -0.1875,-0.3304 0,-0.7932 -0.5,-0.3964 z m -60.5,0.066 0,0.3304 -0.625,0.5286 0.4375,0.793 0.625,-0.5946 0.625,0 0.5,0.7268 0.4375,0.3306 0.1875,-0.3966 0.125,-0.066 0,-0.727 -0.25,-0.9252 -0.9375,0.132 -1.125,-0.132 z m 7.1875,0 -0.6875,0.5286 0.3125,0.5948 0,1.6524 0.3125,0 0,-0.9916 0.4375,-0.6608 0,-1.0574 -0.375,-0.066 z m 20.0625,0.2642 -1.5625,0.5948 -0.1875,0 -0.625,-0.4626 0,0.4626 1.1875,0.727 0.875,0.066 0.3125,-0.2644 0.125,-0.5288 -0.125,-0.5948 z m -21.6875,0.3304 -0.75,0.066 -0.25,1.7186 0.1875,0.3964 0.4375,0.727 0.25,0 0.6875,-0.3964 -0.0625,-2.3134 -0.5,-0.198 z m 0.8125,0.066 -0.125,0.132 0,2.2472 0.4375,-0.2642 0,-1.6524 L 21,1005.7502 z m 8.9375,0 -1,1.0574 -0.0625,0.4628 -0.8125,-0.066 0,0.198 -0.5625,-0.066 -0.5,0.9914 0.125,0.2644 0.6875,0.793 0.3125,-0.3304 0.4375,0 0.125,-0.3966 0.437502,-0.2644 0.9375,0.661 0.5,-0.5948 2.0625,0.132 -1.875,-2.1154 0.25,-0.132 0,-0.3964 -0.4375,-0.198 -0.625,0 z m 25.9375,0.132 -0.25,0.132 0.0625,0.3966 0,0.3304 -0.1875,0.066 0.0625,0.7272 0.375,0.198 0.5,-0.3304 -0.125,-0.7932 0.0625,-0.2644 -0.5,-0.4626 z m -38.4375,0.066 -0.375,0.066 0.0625,0.8592 -0.1875,0.066 -0.25,0.3968 0.5625,0.6608 0.0625,1.0574 0.6875,-0.5288 0.8125,-0.132 0.8125,0.198 -0.4375,-0.727 -0.125,-0.3964 0.125,-1.256 -0.75,0.066 -0.3125,-0.3304 -0.6875,0 z m -1.8125,0.3306 -0.5625,0.066 -0.5625,0.4626 0.875,0.8592 0.625,-0.7932 -0.375,-0.5948 z m 55.875,0.4626 -0.5,0.9254 0.1875,0.5286 -0.3125,0.4626 -0.5,-0.198 -1.3125,1.0574 0.0625,0.529 -0.625,0 0.5,0.5286 1.75,-0.5948 0.375,-1.454 0.8125,-0.066 0.6875,-0.5948 -0.9375,-0.727 -0.1875,-0.3968 z m -55.375,0.2644 -0.625,0.7932 1.6875,1.1894 -0.0625,-0.9252 -0.5,-0.5948 -0.5,-0.4626 z m 47.5625,0.198 0.3125,0.727 0.0625,0.9252 0.375,0.727 1,0.595 0.375,0.066 -0.0625,-0.661 -0.3125,-0.8592 -0.5,-1.0574 0,0.198 -0.625,-0.066 -0.375,-0.5948 -0.25,0 z m -1.625,0.3306 0,0.3964 1.0625,1.8506 0.25,0 2.1875,3.8334 0.875,0.132 0.4375,-1.388 -0.6875,-0.4628 -0.125,-0.7268 -4,-3.635 z m 8.875,0.2642 -0.4375,0.5948 0.3125,0.132 0.25,-0.3304 -0.125,-0.3966 z m -19.0625,0.2644 0.0625,0.3966 0.25,0.132 0.0625,-0.3966 -0.375,-0.132 z m -15.625,0.3304 -0.5625,0.066 -0.0625,0.132 0,0.3966 0.4375,0.8594 -0.5,1.0572 -0.0625,0.3306 2.4375,1.6524 0.75,-1.256 -0.375,-0.3304 0,-1.7184 0.5,-0.5288 -0.8125,0.2644 -0.5625,0 -0.9375,-0.793 -0.25,-0.132 z m -7.125,0.132 -0.375,0.2644 -0.1875,2.115 -0.625,0.4626 -0.1875,0.4626 0.0625,0.661 -1.125,0.9252 -0.25,-0.132 0.0625,0.132 -0.375,0.3306 1.625,0 0.3125,0.4626 0,0.3304 0.125,0.132 0.75,0 0.25,-0.4626 0.3125,0 0.125,0.132 0.4375,0 0.125,1.6524 0.8125,0 0,0.132 2.0625,0.9912 0.0625,0.198 0.4375,0 -0.0625,-0.727 -0.75,-0.3964 0.0625,-0.5288 0.3125,-0.793 0.75,0 -0.625,-2.3132 0,-0.9916 1,-1.7182 0.0625,-0.2646 -0.1875,-0.066 0,-0.4626 -0.1875,0 -0.1875,-0.2642 -3.125,-0.198 -0.5625,0.5946 -0.9375,-0.6608 z m 42.6875,0.066 -0.5625,0.066 -0.375,1.3878 -1.9375,0.727 -0.5625,-0.727 -0.3125,0.066 0.5,2.115 0.8125,0.132 1.0625,0.3966 0,0.4626 0.4375,-0.132 0.75,-0.9916 0,-0.859 0.375,-0.8592 0.4375,0.132 -0.5,-1.1898 -0.125,-0.727 z m -19.5625,0.3304 -0.0625,0.5288 0.1875,0.132 0.1875,-0.3304 -0.3125,-0.3304 z m -17.9375,0.132 -0.0625,0.3306 0.1875,0.198 0,0.3306 -0.75,1.1234 0.5,0.4626 0.25,-0.198 0.8125,-0.132 0.125,0 0.0625,-0.3304 0.4375,-0.9912 -0.375,-0.7934 -1.1875,0 z m -10.0625,0.066 -0.125,0.3306 0.25,0.132 0.1875,-0.198 -0.0625,-0.2644 -0.25,0 z m 3.875,0.066 -0.5,0.7272 -1.25,0.066 0,0.198 0.75,0.066 0,1.9828 -0.625,0 -0.375,-0.3306 -0.3125,0.198 -0.0625,0.066 0.1875,0.066 0.0625,0.4626 -0.4375,0.3304 0.0625,0.198 0.5,-0.3304 0.1875,0 0.0625,0.198 0.3125,0.132 0.9375,-0.8592 0,-0.5948 0.1875,-0.4626 0.625,-0.5288 0.125,-1.5862 -0.4375,0 z m 48.125,0.4628 -0.3125,0.727 0.4375,0.661 0.1875,0 0.1875,-0.4626 0.125,-0.132 -0.25,-0.198 -0.25,-0.132 -0.125,-0.4626 z m -1,0.132 -0.5625,0.5288 -0.375,0 -0.5625,-0.3304 -0.4375,0.066 -0.4375,0.727 -0.3125,1.3878 -0.125,0.5288 0.3125,0.4626 -0.1875,0.661 0,0.132 0.5,0 0.1875,-1.7184 0.1875,0.066 0.25,1.52 0.3125,0.132 0.25,-0.6608 -0.25,-1.0574 -0.25,-0.3968 0.75,-0.5286 -0.1875,-0.2644 -0.6875,0.4626 -0.1875,0 -0.3125,-0.5286 0.125,-0.198 0.5625,-0.3306 0.8125,0.2644 0.25,0 0.6875,-0.5948 -0.3125,-0.3304 z m -50.375,0.198 0,0.2644 0.6875,0 0,-0.2644 -0.6875,0 z m 0.8125,0 0,0.3966 -0.875,0 -0.5625,1.0574 1.25,1.4542 0.3125,-0.2644 0,-0.2644 -0.1875,-0.132 0,-0.198 0.4375,-0.3304 0.4375,0.3966 0.5,0 0,-1.7184 -0.75,-0.066 0,-0.3304 -0.5625,0 z m 26.5625,0 -0.125,0.198 0.1875,0.132 0.25,-0.132 -0.3125,-0.198 z m -28.625,0.132 0.125,0.2644 0.125,0.066 0.125,-0.198 -0.125,-0.132 -0.25,0 z m -0.1875,0.5288 -0.125,0.066 0,0.198 0.125,0.066 0.125,-0.198 -0.125,-0.132 z m 55.5,0.4626 -0.625,0.066 -0.375,0.3304 0.125,0.3304 0.6875,0.132 0,0.132 -0.4375,0.3968 0.25,0.793 0.1875,0 0.1875,-0.793 0.375,0 0.125,0.793 1.6875,1.454 0,1.1236 0.625,0.6608 0.25,0 0.0625,-4.0314 -1,-0.7272 -0.9375,0.6612 -0.3125,0.198 -0.5625,-0.3306 0,-1.1896 -0.3125,0 z m -45.3125,0.066 -0.25,0.3966 0,0.4626 0.6875,0 0,-0.4626 -0.4375,-0.3966 z m 1.625,0.066 -0.75,0.198 -0.3125,0.198 0,0.4626 -0.1875,0.7272 -0.1875,0.198 -0.3125,0.066 0.5625,1.8506 0.8125,0.4626 0.625,0 0,0.132 -0.5,0 0.25,1.1896 -0.1875,0.8594 0.5,0.5946 0,0.661 0.0625,0.2644 0.625,-0.727 -0.0625,-0.9254 -0.3125,-0.2644 0,-0.132 -0.1875,-0.727 2.5625,-0.3304 -0.5625,-1.2558 -0.0625,-1.1896 0.1875,-0.5948 -2.5625,-1.7184 z m 0.625,5.816 0.4375,0.3304 0.125,1.0576 -0.875,0.9252 -0.1875,-0.5286 0,-0.6608 -0.4375,-0.5288 -1.25,0.5948 1.125,0.5948 0.0625,1.7184 -0.75,1.1897 0,1.388 0.4375,0.3966 0.9375,-0.6608 0.1875,-0.9256 0,-1.5201 1.5625,-1.388 0.25,0 1,-0.9252 -0.1875,-1.9828 -2.5,0.3304 0.0625,0.5948 z m 41.25,-4.9568 -0.625,0.132 -0.1875,0.198 0.1875,0.2642 0.375,-0.132 0.25,-0.198 0.375,0.3306 0.1875,-0.132 -0.3125,-0.3968 -0.25,-0.066 z m -43.125,0.066 -0.625,0.066 0,0.3304 0.125,0.3964 0.1875,0 0.1875,-0.132 0.125,-0.661 z m 48.1875,0.3966 -0.0625,3.9654 0.5625,0 0.6875,-0.9252 0.625,0.066 0.375,0.3304 0.125,1.1236 1.1875,0.727 0.3125,-0.132 0,-0.4628 -0.9375,-0.8592 -0.5,-1.1896 0.375,-0.198 -0.25,-0.5948 -0.625,-0.066 -0.125,-0.661 -1.5,-1.1234 -0.25,0 z m -37.3125,0.132 -0.25,0.198 0.1875,0.3304 0.3125,0 -0.25,-0.5286 z m -18.75,0.3304 -0.375,0.3304 0.25,0.3966 0.3125,-0.3966 -0.0625,-0.3304 -0.125,0 z m 18.875,0.5288 -0.1875,0.198 0.125,0.2642 0.25,0.066 0.0625,-0.5286 -0.25,0 z m -17.3125,0.3304 -1.625,0.066 0.5,2.0488 0,0.661 -0.75,0.8592 -0.125,1.454 2.9375,0 0.9375,0.3966 0.8125,-0.132 -0.4375,-0.5948 0,-1.7846 0.875,-0.066 0,-0.6608 -0.75,0 -0.125,-1.6524 -0.3125,0 -0.1875,-0.132 -0.1875,0 -0.1875,0.5288 -0.9375,0 -0.25,-0.2646 0.0625,-0.3304 -0.25,-0.3964 z m 39.125,0.2644 -0.4375,0.3304 0.125,0.2644 1.3125,0.3306 0.6875,0.132 0.3125,0.3304 0.75,0.066 0.375,0.3304 0.3125,-0.132 0.3125,-0.2644 -0.5625,-0.2642 -0.4375,-0.463 -1.3125,-0.3304 -1.4375,-0.3304 z m -23.25,0.066 -0.0625,0.198 0.25,0.198 0.1875,-0.198 -0.375,-0.198 z M 86,1014.34 l -0.5625,0.132 0.0625,0.3304 0.5,-0.066 0,-0.3966 z m -52.125,0.5948 -0.6875,0.066 -0.3125,0.7932 0,0.3304 0.8125,0.3964 0.0625,0.8592 -0.6875,0.066 -0.1875,-0.2644 -1.875,-0.859 -0.0625,0.6608 -0.875,0 0,1.5202 0.4375,0.6608 0.75,0.066 0.3125,0.198 0.75,0 0.6875,-1.0574 1.9375,-0.859 0.1875,-0.7932 -0.25,-1.1896 -1,-0.5948 z m 37.9375,0.4626 0.0625,0.3306 0.3125,0.132 0.1875,-0.198 -0.1875,-0.2644 -0.375,0 z m -0.5625,0.198 -0.375,0.198 0.1875,0.198 0.5,-0.198 -0.3125,-0.198 z m 1.6875,0 -0.1875,0.132 -0.0625,0.198 0.6875,0.066 0.5,-0.3304 -0.3125,-0.066 -0.4375,0.132 -0.1875,-0.132 z m 2.0625,0.198 -0.8125,0.727 0.0625,0.198 0.375,-0.066 0.375,-0.3964 0.75,-0.132 -0.125,-0.2644 -0.625,-0.066 z m -35.25,0.4628 0.0625,0.2642 0.3125,0.066 0.125,-0.3304 -0.5,0 z m 32.875,0 -0.4375,0.066 0.4375,0.3304 0.25,0 -0.25,-0.3966 z m -30.625,0.2642 -0.3125,0.859 -0.5625,1.0576 -1,0.066 -0.375,0.5288 0.0625,1.5862 -0.625,0.7933 0.0625,1.2556 0.5,0.595 0.625,-0.066 0.625,-0.4626 -0.125,-0.7272 1.375,-2.5777 -0.25,-0.3304 0.25,-0.661 0.3125,0.132 0.125,-0.2642 -0.3125,-1.256 -0.1875,-0.5286 -0.1875,0 z m -1.375,0.198 -0.4375,0.066 0.125,0.2644 0.1875,0 0.125,-0.3306 z m 37.75,1.1898 -1.5625,0.4626 -0.4375,1.3216 -0.6875,0.198 -0.0625,-0.9252 -2.9375,1.8509 0.0625,0.6608 -0.4375,0.6608 -1.0625,0 -2.375,1.0576 -0.8125,2.3136 -0.0625,4.1636 -0.625,0.4626 0,0.3966 0.8125,0.595 2,-0.3966 1.0625,0 0.375,-0.595 2.3125,-0.4626 1.625,0.5288 -0.125,0.661 0.25,0.727 1.25,-0.2644 0.0625,0.3966 -0.875,0.5948 0.3125,0.2642 0.5625,-0.2642 -0.125,1.9828 1.125,0.9252 0.6875,-0.2644 0.3125,0.3304 1.9375,-0.2642 1.75,-3.1064 0.6875,-0.132 1.3125,-2.5776 0.3125,-2.2472 -0.8125,-1.0574 0.3125,-0.2642 -0.625,-2.1812 -0.75,-0.5286 0.125,-2.9083 -0.625,-0.5288 -0.1875,-1.586 -0.3125,0 -1.125,3.8333 -0.5625,0.066 -1.375,-1.4541 0.75,-2.181 -1.4375,-0.2644 z m -44.8125,0.3966 -0.4375,0.198 -0.6875,0.9914 -0.875,0 0,0.198 1.4375,1.6525 1.0625,0.3304 0.6875,-1.1895 -0.0625,-1.5864 -1.125,-0.5948 z m -7.9375,0.7932 0.125,0.859 0.9375,1.4543 -0.1875,0.793 0,0.3966 0.75,1.9166 0.5,0.066 0.3125,0.3304 0.75,0 0.1875,-2.1808 0,-1.388 0.4375,-0.066 0.1875,-1.5203 1.1875,0 0.375,-0.3966 -0.6875,0 -0.9375,0.132 -1.0625,-0.3964 -2.875,0 z m 5.6875,0.3304 -0.4375,0.3964 -1.125,0.066 -0.1875,1.4543 -0.4375,0.132 0,1.322 0.3125,0.132 -0.0625,0.9912 0.375,0.066 0.75,-0.793 0.9375,0.132 0.25,-0.661 1.1875,-1.1896 -1.4375,-1.7187 0,-0.2642 -0.125,-0.066 z m 13.875,1.3881 -0.1875,0.3304 0,0.3304 0.5,-0.3964 -0.3125,-0.2644 z m -0.8125,0.5286 -0.375,0.066 0,0.2644 0.1875,0.066 0.375,-0.132 -0.1875,-0.2644 z m -11.3125,0.198 -1.25,1.1898 -0.25,0.727 -1,-0.132 -0.8125,0.793 -0.5,-0.066 0.0625,-1.0574 -0.1875,-0.066 -0.1875,2.1148 -0.9375,0 -0.25,-0.3304 -0.4375,0 0.375,1.1236 0.6875,0.727 -0.5,0.5948 0.3125,0.727 0.75,0.2646 0.5625,-0.529 1.6875,0.066 0.125,-0.198 0.6875,-0.132 2.5,-2.6436 0,-0.7932 -0.25,0.3966 -0.375,0 -0.5,-0.4626 0.25,-0.6608 0.4375,-0.066 -0.0625,-1.322 -0.9375,-0.2644 z m 1,1.7186 -0.375,0.066 -0.125,0.4626 0.25,0.2642 0.375,0 0.3125,-0.4626 -0.4375,-0.3304 z m -1.5625,1.3216 0.1875,0 0.375,0.3966 0,0.5288 -0.4375,0.198 0,0.198 -0.6875,0 -0.25,-0.5286 0.25,-0.3968 0.5625,-0.3964 z m 0,0.132 -0.5,0.3966 -0.125,0.2646 0.125,0.3304 0.5,0.066 0,-0.132 0.4375,-0.198 0.0625,-0.3306 -0.3125,-0.3966 -0.1875,0 z m 45.5,11.9628 -0.25,1.1234 0.0625,0.8594 0.8125,-0.066 0.9375,-1.5202 L 78,1036.6781 z m -31.3125,0.5288 0,0.7268 0.9375,0.198 0.1875,-0.5946 -0.3125,0.132 -0.4375,0.066 -0.125,-0.5288 -0.25,0 z m 39.3125,4.1638 -0.625,0.2644 0.125,0.4626 0.5,0.2642 0,-0.9912 z"
       id="kalimantan"
       style="opacity:0.19999999;fill:#000000;fill-opacity:0.99607842999999996" />
    <path
       style="opacity:0.05;fill:none;fill-opacity:1;stroke:#000000;stroke-opacity:1;stroke-linejoin:round;stroke-width:4.00000010000000028;stroke-miterlimit:4;stroke-dasharray:none"
       d="M 48 18 L 41.8125 29 C 33.803268 31.61037 28 39.119544 28 48 C 28 59.045695 36.954305 68 48 68 C 59.045695 68 68 59.045695 68 48 C 68 39.119544 62.196732 31.61037 54.1875 29 L 48 18 z M 48 34 C 55.731987 34 62 40.268013 62 48 C 62 55.731987 55.731987 62 48 62 C 40.268013 62 34 55.731987 34 48 C 34 40.268013 40.268013 34 48 34 z "
       transform="translate(0,956.36218)"
       id="path3801" />
    <path
       id="path3799"
       transform="translate(0,956.36218)"
       d="M 48 18 L 41.8125 29 C 33.803268 31.61037 28 39.119544 28 48 C 28 59.045695 36.954305 68 48 68 C 59.045695 68 68 59.045695 68 48 C 68 39.119544 62.196732 31.61037 54.1875 29 L 48 18 z M 48 34 C 55.731987 34 62 40.268013 62 48 C 62 55.731987 55.731987 62 48 62 C 40.268013 62 34 55.731987 34 48 C 34 40.268013 40.268013 34 48 34 z "
       style="opacity:0.09999995;fill:none;fill-opacity:1;stroke:#000000;stroke-opacity:1;stroke-linejoin:round;stroke-width:3;stroke-miterlimit:4;stroke-dasharray:none" />
    <path
       style="opacity:0.14999995;fill:none;fill-opacity:1;stroke:#000000;stroke-opacity:1;stroke-linejoin:round;stroke-width:2;stroke-miterlimit:4;stroke-dasharray:none"
       d="M 48 18 L 41.8125 29 C 33.803268 31.61037 28 39.119544 28 48 C 28 59.045695 36.954305 68 48 68 C 59.045695 68 68 59.045695 68 48 C 68 39.119544 62.196732 31.61037 54.1875 29 L 48 18 z M 48 34 C 55.731987 34 62 40.268013 62 48 C 62 55.731987 55.731987 62 48 62 C 40.268013 62 34 55.731987 34 48 C 34 40.268013 40.268013 34 48 34 z "
       transform="translate(0,956.36218)"
       id="path3797" />
    <path
       id="path3795"
       transform="translate(0,956.36218)"
       d="M 48 18 L 41.8125 29 C 33.803268 31.61037 28 39.119544 28 48 C 28 59.045695 36.954305 68 48 68 C 59.045695 68 68 59.045695 68 48 C 68 39.119544 62.196732 31.61037 54.1875 29 L 48 18 z M 48 34 C 55.731987 34 62 40.268013 62 48 C 62 55.731987 55.731987 62 48 62 C 40.268013 62 34 55.731987 34 48 C 34 40.268013 40.268013 34 48 34 z "
       style="opacity:0.2;fill:none;fill-opacity:1;stroke:#000000;stroke-opacity:1;stroke-linejoin:round" />
    <path
       style="opacity:1;fill:#ffffff;fill-opacity:1;stroke:none"
       d="M 48 18 L 41.8125 29 C 33.803268 31.61037 28 39.119544 28 48 C 28 59.045695 36.954305 68 48 68 C 59.045695 68 68 59.045695 68 48 C 68 39.119544 62.196732 31.61037 54.1875 29 L 48 18 z M 48 34 C 55.731987 34 62 40.268013 62 48 C 62 55.731987 55.731987 62 48 62 C 40.268013 62 34 55.731987 34 48 C 34 40.268013 40.268013 34 48 34 z "
       transform="translate(0,956.36218)"
       id="path3814" />
    <rect
       ry="2"
       rx="2"
       y="965.86218"
       x="9.5"
       height="77"
       width="77"
       id="rect3815"
       style="fill:none;stroke:url(#linearGradient3823);stroke-opacity:1;opacity:0.3" />
  </g>
</svg>
