<?xml version="1.0" encoding="UTF-8" standalone="no"?>
<!-- Created with Inkscape (http://www.inkscape.org/) -->

<svg
   xmlns:dc="http://purl.org/dc/elements/1.1/"
   xmlns:cc="http://creativecommons.org/ns#"
   xmlns:rdf="http://www.w3.org/1999/02/22-rdf-syntax-ns#"
   xmlns:svg="http://www.w3.org/2000/svg"
   xmlns="http://www.w3.org/2000/svg"
   xmlns:xlink="http://www.w3.org/1999/xlink"
   xmlns:sodipodi="http://sodipodi.sourceforge.net/DTD/sodipodi-0.dtd"
   xmlns:inkscape="http://www.inkscape.org/namespaces/inkscape"
   width="96"
   height="96"
   id="svg2"
   version="1.1"
   inkscape:version="0.48.4 r9939"
   sodipodi:docname="wps-office-etmain.svg">
  <defs
     id="defs4">
    <linearGradient
       inkscape:collect="always"
       id="linearGradient3869">
      <stop
         style="stop-color:#000000;stop-opacity:1;"
         offset="0"
         id="stop3871" />
      <stop
         style="stop-color:#000000;stop-opacity:0;"
         offset="1"
         id="stop3873" />
    </linearGradient>
    <linearGradient
       inkscape:collect="always"
       id="linearGradient3803">
      <stop
         style="stop-color:#000000;stop-opacity:1;"
         offset="0"
         id="stop3805" />
      <stop
         style="stop-color:#000000;stop-opacity:0;"
         offset="1"
         id="stop3807" />
    </linearGradient>
    <linearGradient
       id="linearGradient3784">
      <stop
         style="stop-color:#379326;stop-opacity:1;"
         offset="0"
         id="stop3786" />
      <stop
         style="stop-color:#1a5416;stop-opacity:1;"
         offset="1"
         id="stop3788" />
    </linearGradient>
    <linearGradient
       id="linearGradient3776">
      <stop
         style="stop-color:#70f320;stop-opacity:1;"
         offset="0"
         id="stop3778" />
      <stop
         style="stop-color:#1e7018;stop-opacity:1;"
         offset="1"
         id="stop3780" />
    </linearGradient>
    <linearGradient
       id="linearGradient3817">
      <stop
         style="stop-color:#ffffff;stop-opacity:1;"
         offset="0"
         id="stop3819" />
      <stop
         id="stop3827"
         offset="0.05455951"
         style="stop-color:#ffffff;stop-opacity:0.23529412;" />
      <stop
         id="stop3825"
         offset="0.95526141"
         style="stop-color:#ffffff;stop-opacity:0.15686275;" />
      <stop
         style="stop-color:#ffffff;stop-opacity:0.39215687;"
         offset="1"
         id="stop3821" />
    </linearGradient>
    <radialGradient
       cx="4.9929786"
       cy="43.5"
       r="2.5"
       fx="4.9929786"
       fy="43.5"
       id="radialGradient2873-966-168"
       xlink:href="#linearGradient3688-166-749"
       gradientUnits="userSpaceOnUse"
       gradientTransform="matrix(2.003784,0,0,1.4,27.98813,-17.4)" />
    <linearGradient
       id="linearGradient3688-166-749">
      <stop
         id="stop2883"
         style="stop-color:#181818;stop-opacity:1"
         offset="0" />
      <stop
         id="stop2885"
         style="stop-color:#181818;stop-opacity:0"
         offset="1" />
    </linearGradient>
    <radialGradient
       cx="4.9929786"
       cy="43.5"
       r="2.5"
       fx="4.9929786"
       fy="43.5"
       id="radialGradient2875-742-326"
       xlink:href="#linearGradient3688-464-309"
       gradientUnits="userSpaceOnUse"
       gradientTransform="matrix(2.003784,0,0,1.4,-20.01187,-104.4)" />
    <linearGradient
       id="linearGradient3688-464-309">
      <stop
         id="stop2889"
         style="stop-color:#181818;stop-opacity:1"
         offset="0" />
      <stop
         id="stop2891"
         style="stop-color:#181818;stop-opacity:0"
         offset="1" />
    </linearGradient>
    <linearGradient
       x1="25.058096"
       y1="47.027729"
       x2="25.058096"
       y2="39.999443"
       id="linearGradient2877-634-617"
       xlink:href="#linearGradient3702-501-757"
       gradientUnits="userSpaceOnUse" />
    <linearGradient
       id="linearGradient3702-501-757">
      <stop
         id="stop2895"
         style="stop-color:#181818;stop-opacity:0"
         offset="0" />
      <stop
         id="stop2897"
         style="stop-color:#181818;stop-opacity:1"
         offset="0.5" />
      <stop
         id="stop2899"
         style="stop-color:#181818;stop-opacity:0"
         offset="1" />
    </linearGradient>
    <linearGradient
       inkscape:collect="always"
       xlink:href="#linearGradient3817"
       id="linearGradient3823"
       x1="47.214287"
       y1="965.25507"
       x2="47.214287"
       y2="1042.9185"
       gradientUnits="userSpaceOnUse" />
    <radialGradient
       inkscape:collect="always"
       xlink:href="#linearGradient3776"
       id="radialGradient3782"
       cx="49.010151"
       cy="977.34058"
       fx="49.010151"
       fy="977.34058"
       r="40"
       gradientUnits="userSpaceOnUse"
       gradientTransform="matrix(6.4233216e-7,1.8665784,-1.4108831,4.8551702e-7,1427.9234,885.85882)" />
    <linearGradient
       inkscape:collect="always"
       xlink:href="#linearGradient3784"
       id="linearGradient3790"
       x1="14.785714"
       y1="965.07648"
       x2="14.785714"
       y2="1044.1866"
       gradientUnits="userSpaceOnUse" />
    <linearGradient
       inkscape:collect="always"
       xlink:href="#linearGradient3803"
       id="linearGradient3809"
       x1="46.647213"
       y1="71.321625"
       x2="46.647213"
       y2="42.002197"
       gradientUnits="userSpaceOnUse" />
    <linearGradient
       inkscape:collect="always"
       xlink:href="#linearGradient3803"
       id="linearGradient3845"
       gradientUnits="userSpaceOnUse"
       x1="46.647213"
       y1="71.321625"
       x2="46.647213"
       y2="49.695393" />
    <linearGradient
       inkscape:collect="always"
       xlink:href="#linearGradient3803"
       id="linearGradient3066"
       gradientUnits="userSpaceOnUse"
       x1="46.647213"
       y1="71.321625"
       x2="46.647213"
       y2="49.695393" />
    <linearGradient
       inkscape:collect="always"
       xlink:href="#linearGradient3803"
       id="linearGradient3045"
       gradientUnits="userSpaceOnUse"
       x1="46.647213"
       y1="71.321625"
       x2="46.647213"
       y2="49.695393" />
    <linearGradient
       inkscape:collect="always"
       xlink:href="#linearGradient3803"
       id="linearGradient3057"
       gradientUnits="userSpaceOnUse"
       x1="46.647213"
       y1="71.321625"
       x2="46.647213"
       y2="49.695393" />
    <linearGradient
       inkscape:collect="always"
       xlink:href="#linearGradient3803"
       id="linearGradient3060"
       gradientUnits="userSpaceOnUse"
       x1="46.647213"
       y1="71.321625"
       x2="46.647213"
       y2="49.695393"
       gradientTransform="translate(1,956.36218)" />
    <linearGradient
       inkscape:collect="always"
       xlink:href="#linearGradient3869"
       id="linearGradient3875"
       x1="-1005.2551"
       y1="36.571415"
       x2="-1005.2551"
       y2="58.927818"
       gradientUnits="userSpaceOnUse" />
    <linearGradient
       inkscape:collect="always"
       xlink:href="#linearGradient3869"
       id="linearGradient3041"
       gradientUnits="userSpaceOnUse"
       x1="-1005.2551"
       y1="36.571415"
       x2="-1005.2551"
       y2="58.927818" />
    <linearGradient
       inkscape:collect="always"
       xlink:href="#linearGradient3869"
       id="linearGradient3044"
       gradientUnits="userSpaceOnUse"
       x1="-1005.2551"
       y1="36.571415"
       x2="-1005.2551"
       y2="62.856995" />
  </defs>
  <sodipodi:namedview
     id="base"
     pagecolor="#ffffff"
     bordercolor="#666666"
     borderopacity="1.0"
     inkscape:pageopacity="0.0"
     inkscape:pageshadow="2"
     inkscape:zoom="3.959798"
     inkscape:cx="66.518017"
     inkscape:cy="46.667582"
     inkscape:document-units="px"
     inkscape:current-layer="layer1"
     showgrid="false"
     inkscape:window-width="1280"
     inkscape:window-height="748"
     inkscape:window-x="0"
     inkscape:window-y="26"
     inkscape:window-maximized="1" />
  <metadata
     id="metadata7">
    <rdf:RDF>
      <cc:Work
         rdf:about="">
        <dc:format>image/svg+xml</dc:format>
        <dc:type
           rdf:resource="http://purl.org/dc/dcmitype/StillImage" />
        <dc:title />
      </cc:Work>
    </rdf:RDF>
  </metadata>
  <g
     inkscape:label="Livello 1"
     inkscape:groupmode="layer"
     id="layer1"
     transform="translate(0,-956.36218)">
    <g
       style="display:inline"
       id="g2036"
       transform="matrix(2.1999991,0,0,0.88888944,-4.8000008,1006.5844)">
      <g
         style="opacity:0.4"
         id="g3712"
         transform="matrix(1.052632,0,0,1.285713,-1.263158,-13.42854)">
        <rect
           style="fill:url(#radialGradient2873-966-168);fill-opacity:1;stroke:none"
           id="rect2801"
           y="40"
           x="38"
           height="7"
           width="5" />
        <rect
           style="fill:url(#radialGradient2875-742-326);fill-opacity:1;stroke:none"
           id="rect3696"
           transform="scale(-1,-1)"
           y="-47"
           x="-10"
           height="7"
           width="5" />
        <rect
           style="fill:url(#linearGradient2877-634-617);fill-opacity:1;stroke:none"
           id="rect3700"
           y="40"
           x="10"
           height="7.0000005"
           width="28" />
      </g>
    </g>
    <rect
       style="fill:url(#radialGradient3782);fill-opacity:1;stroke:url(#linearGradient3790);stroke-opacity:1"
       id="rect2985"
       width="79"
       height="79"
       x="8.5"
       y="964.86218"
       rx="3"
       ry="3" />
    <path
       style="fill:#000000;fill-opacity:1;stroke:#000000;stroke-opacity:1;opacity:0.01;stroke-width:5;stroke-miterlimit:4;stroke-dasharray:none"
       d="M 27 25 L 27 35 L 27 53 L 37 53 L 59 53 L 59 61 L 27 61 L 27 71 L 59 71 L 69 71 L 69 61 L 69 43 L 37 43 L 37 35 L 69 35 L 69 25 L 37 25 L 27 25 z "
       transform="translate(0,956.36218)"
       id="path3893" />
    <rect
       ry="2"
       rx="2"
       y="965.86218"
       x="9.5"
       height="77"
       width="77"
       id="rect3815"
       style="fill:none;stroke:url(#linearGradient3823);stroke-opacity:1;opacity:0.3" />
    <path
       id="path3891"
       transform="translate(0,956.36218)"
       d="M 27 25 L 27 35 L 27 53 L 37 53 L 59 53 L 59 61 L 27 61 L 27 71 L 59 71 L 69 71 L 69 61 L 69 43 L 37 43 L 37 35 L 69 35 L 69 25 L 37 25 L 27 25 z "
       style="fill:#000000;fill-opacity:1;stroke:#000000;stroke-opacity:1;opacity:0.04999983;stroke-width:4;stroke-miterlimit:4;stroke-dasharray:none" />
    <path
       style="fill:#000000;fill-opacity:1;stroke:#000000;stroke-opacity:1;opacity:0.09999989;stroke-width:3;stroke-miterlimit:4;stroke-dasharray:none"
       d="M 27 25 L 27 35 L 27 53 L 37 53 L 59 53 L 59 61 L 27 61 L 27 71 L 59 71 L 69 71 L 69 61 L 69 43 L 37 43 L 37 35 L 69 35 L 69 25 L 37 25 L 27 25 z "
       transform="translate(0,956.36218)"
       id="path3889" />
    <path
       id="path3887"
       transform="translate(0,956.36218)"
       d="M 27 25 L 27 35 L 27 53 L 37 53 L 59 53 L 59 61 L 27 61 L 27 71 L 59 71 L 69 71 L 69 61 L 69 43 L 37 43 L 37 35 L 69 35 L 69 25 L 37 25 L 27 25 z "
       style="fill:#000000;fill-opacity:1;stroke:#000000;stroke-opacity:1;opacity:0.14999995;stroke-width:2;stroke-miterlimit:4;stroke-dasharray:none" />
    <path
       style="fill:#000000;fill-opacity:1;stroke:#000000;stroke-opacity:1;opacity:0.2"
       d="M 27 25 L 27 35 L 27 53 L 37 53 L 59 53 L 59 61 L 27 61 L 27 71 L 59 71 L 69 71 L 69 61 L 69 43 L 37 43 L 37 35 L 69 35 L 69 25 L 37 25 L 27 25 z "
       transform="translate(0,956.36218)"
       id="rect3856" />
    <path
       style="fill:#ffffff;fill-opacity:1;stroke:none"
       d="m 27,981.36218 0,10 0,8 0,10.00002 10,0 22,0 0,8 -32,0 0,10 42,0 0,-10 0,-8 0,-10.00002 -10,0 -22,0 0,-8 32,0 0,-10 -42,0 z"
       id="rect3792"
       inkscape:connector-curvature="0" />
    <rect
       style="opacity:0.20000000000000001;fill:url(#linearGradient3044);fill-opacity:1;stroke:none"
       id="rect3867"
       width="10"
       height="21.999996"
       x="-1009.3622"
       y="36.999985"
       transform="matrix(0,-1,1,0,0,0)" />
  </g>
</svg>
