<?xml version="1.0" encoding="UTF-8" standalone="no"?>
<!-- Created with Inkscape (http://www.inkscape.org/) -->

<svg
   xmlns:dc="http://purl.org/dc/elements/1.1/"
   xmlns:cc="http://creativecommons.org/ns#"
   xmlns:rdf="http://www.w3.org/1999/02/22-rdf-syntax-ns#"
   xmlns:svg="http://www.w3.org/2000/svg"
   xmlns="http://www.w3.org/2000/svg"
   xmlns:xlink="http://www.w3.org/1999/xlink"
   xmlns:sodipodi="http://sodipodi.sourceforge.net/DTD/sodipodi-0.dtd"
   xmlns:inkscape="http://www.inkscape.org/namespaces/inkscape"
   width="96"
   height="96"
   id="svg2"
   version="1.1"
   inkscape:version="0.48.3.1 r9886"
   sodipodi:docname="folder.svg">
  <defs
     id="defs4">
    <linearGradient
       id="linearGradient3846">
      <stop
         id="stop3848"
         offset="0"
         style="stop-color:#ffffff;stop-opacity:1;" />
      <stop
         style="stop-color:#ffffff;stop-opacity:0.23529412;"
         offset="0.04096451"
         id="stop3850" />
      <stop
         style="stop-color:#ffffff;stop-opacity:0.15686275;"
         offset="0.96765494"
         id="stop3852" />
      <stop
         id="stop3854"
         offset="1"
         style="stop-color:#ffffff;stop-opacity:0.39215687;" />
    </linearGradient>
    <linearGradient
       id="linearGradient3828">
      <stop
         style="stop-color:#bea55a;stop-opacity:1;"
         offset="0"
         id="stop3830" />
      <stop
         style="stop-color:#832000;stop-opacity:1;"
         offset="1"
         id="stop3832" />
    </linearGradient>
    <linearGradient
       id="linearGradient3814">
      <stop
         style="stop-color:#b06121;stop-opacity:1;"
         offset="0"
         id="stop3816" />
      <stop
         style="stop-color:#973404;stop-opacity:1;"
         offset="1"
         id="stop3818" />
    </linearGradient>
    <linearGradient
       id="linearGradient3806">
      <stop
         style="stop-color:#fff0c8;stop-opacity:1;"
         offset="0"
         id="stop3808" />
      <stop
         style="stop-color:#f0d78c;stop-opacity:1;"
         offset="1"
         id="stop3810" />
    </linearGradient>
    <linearGradient
       id="linearGradient3817">
      <stop
         style="stop-color:#ffffff;stop-opacity:1;"
         offset="0"
         id="stop3819" />
      <stop
         id="stop3827"
         offset="0.05455951"
         style="stop-color:#ffffff;stop-opacity:0.23529412;" />
      <stop
         id="stop3825"
         offset="0.95526141"
         style="stop-color:#ffffff;stop-opacity:0.15686275;" />
      <stop
         style="stop-color:#ffffff;stop-opacity:0.39215687;"
         offset="1"
         id="stop3821" />
    </linearGradient>
    <radialGradient
       cx="4.9929786"
       cy="43.5"
       r="2.5"
       fx="4.9929786"
       fy="43.5"
       id="radialGradient2873-966-168"
       xlink:href="#linearGradient3688-166-749"
       gradientUnits="userSpaceOnUse"
       gradientTransform="matrix(2.003784,0,0,1.4,27.98813,-17.4)" />
    <linearGradient
       id="linearGradient3688-166-749">
      <stop
         id="stop2883"
         style="stop-color:#181818;stop-opacity:1"
         offset="0" />
      <stop
         id="stop2885"
         style="stop-color:#181818;stop-opacity:0"
         offset="1" />
    </linearGradient>
    <radialGradient
       cx="4.9929786"
       cy="43.5"
       r="2.5"
       fx="4.9929786"
       fy="43.5"
       id="radialGradient2875-742-326"
       xlink:href="#linearGradient3688-464-309"
       gradientUnits="userSpaceOnUse"
       gradientTransform="matrix(2.003784,0,0,1.4,-20.01187,-104.4)" />
    <linearGradient
       id="linearGradient3688-464-309">
      <stop
         id="stop2889"
         style="stop-color:#181818;stop-opacity:1"
         offset="0" />
      <stop
         id="stop2891"
         style="stop-color:#181818;stop-opacity:0"
         offset="1" />
    </linearGradient>
    <linearGradient
       x1="25.058096"
       y1="47.027729"
       x2="25.058096"
       y2="39.999443"
       id="linearGradient2877-634-617"
       xlink:href="#linearGradient3702-501-757"
       gradientUnits="userSpaceOnUse" />
    <linearGradient
       id="linearGradient3702-501-757">
      <stop
         id="stop2895"
         style="stop-color:#181818;stop-opacity:0"
         offset="0" />
      <stop
         id="stop2897"
         style="stop-color:#181818;stop-opacity:1"
         offset="0.5" />
      <stop
         id="stop2899"
         style="stop-color:#181818;stop-opacity:0"
         offset="1" />
    </linearGradient>
    <linearGradient
       inkscape:collect="always"
       xlink:href="#linearGradient3817"
       id="linearGradient3823"
       x1="47.214287"
       y1="965.25507"
       x2="47.214287"
       y2="1042.9185"
       gradientUnits="userSpaceOnUse" />
    <radialGradient
       inkscape:collect="always"
       xlink:href="#linearGradient3806"
       id="radialGradient3812"
       cx="48.892857"
       cy="18.269842"
       fx="48.892857"
       fy="18.269842"
       r="40"
       gradientTransform="matrix(1.2128896e-8,1.4949159,-1.3151786,1.067061e-8,72.920961,-51.447852)"
       gradientUnits="userSpaceOnUse" />
    <radialGradient
       inkscape:collect="always"
       xlink:href="#linearGradient3814"
       id="radialGradient3820"
       cx="48.000011"
       cy="967.04077"
       fx="48.000011"
       fy="967.04077"
       r="40"
       gradientUnits="userSpaceOnUse"
       gradientTransform="matrix(-8.994018e-8,0.44651785,-1.2545358,-2.5269578e-7,1261.1873,945.60815)" />
    <linearGradient
       inkscape:collect="always"
       xlink:href="#linearGradient3828"
       id="linearGradient3834"
       x1="21.928572"
       y1="87.071426"
       x2="21.928572"
       y2="15.086099"
       gradientUnits="userSpaceOnUse" />
    <linearGradient
       inkscape:collect="always"
       xlink:href="#linearGradient3846"
       id="linearGradient3844"
       x1="45.112953"
       y1="14.981664"
       x2="45.112953"
       y2="86.962921"
       gradientUnits="userSpaceOnUse" />
    <linearGradient
       inkscape:collect="always"
       xlink:href="#linearGradient3814"
       id="linearGradient3818"
       x1="29.384521"
       y1="964.68323"
       x2="29.384521"
       y2="1033.1281"
       gradientUnits="userSpaceOnUse" />
    <linearGradient
       inkscape:collect="always"
       xlink:href="#linearGradient3814"
       id="linearGradient3835"
       gradientUnits="userSpaceOnUse"
       x1="29.384521"
       y1="964.68323"
       x2="29.384521"
       y2="1033.1281"
       gradientTransform="translate(0,-956.36218)" />
  </defs>
  <sodipodi:namedview
     id="base"
     pagecolor="#ffffff"
     bordercolor="#666666"
     borderopacity="1.0"
     inkscape:pageopacity="0.0"
     inkscape:pageshadow="2"
     inkscape:zoom="1.4"
     inkscape:cx="26.413179"
     inkscape:cy="24.109687"
     inkscape:document-units="px"
     inkscape:current-layer="layer1"
     showgrid="false"
     inkscape:window-width="1280"
     inkscape:window-height="756"
     inkscape:window-x="0"
     inkscape:window-y="24"
     inkscape:window-maximized="1" />
  <metadata
     id="metadata7">
    <rdf:RDF>
      <cc:Work
         rdf:about="">
        <dc:format>image/svg+xml</dc:format>
        <dc:type
           rdf:resource="http://purl.org/dc/dcmitype/StillImage" />
        <dc:title></dc:title>
      </cc:Work>
    </rdf:RDF>
  </metadata>
  <g
     inkscape:label="Livello 1"
     inkscape:groupmode="layer"
     id="layer1"
     transform="translate(0,-956.36218)">
    <g
       style="display:inline"
       id="g2036"
       transform="matrix(2.1999991,0,0,0.88888944,-4.8000008,1006.5844)">
      <g
         style="opacity:0.4"
         id="g3712"
         transform="matrix(1.052632,0,0,1.285713,-1.263158,-13.42854)">
        <rect
           style="fill:url(#radialGradient2873-966-168);fill-opacity:1;stroke:none"
           id="rect2801"
           y="40"
           x="38"
           height="7"
           width="5" />
        <rect
           style="fill:url(#radialGradient2875-742-326);fill-opacity:1;stroke:none"
           id="rect3696"
           transform="scale(-1,-1)"
           y="-47"
           x="-10"
           height="7"
           width="5" />
        <rect
           style="fill:url(#linearGradient2877-634-617);fill-opacity:1;stroke:none"
           id="rect3700"
           y="40"
           x="10"
           height="7.0000005"
           width="28" />
      </g>
    </g>
    <rect
       style="fill:url(#radialGradient3820);fill-opacity:1;stroke:#832000;stroke-opacity:1"
       id="rect2985"
       width="79"
       height="79"
       x="8.5"
       y="964.86218"
       rx="3"
       ry="3" />
    <rect
       ry="2"
       rx="2"
       y="965.86218"
       x="9.5"
       height="77"
       width="77"
       id="rect3815"
       style="fill:none;stroke:url(#linearGradient3823);stroke-opacity:1;opacity:0.3" />
    <path
       sodipodi:nodetypes="ssccssssssccsscsss"
       inkscape:connector-curvature="0"
       id="path3826"
       d="m 11.5,967.86218 c -1.662,0 -3,1.338 -3,3 l 0,12 0,10 0,45.00002 c 0,1.662 1.338,3 3,3 l 73,0 c 1.662,0 3,-1.338 3,-3 l 0,-55.00002 c 0,-1.662 -1.338,-3 -3,-3 l -1,0 -15.46875,0 -17.53125,0 c -1.662,0 -3,-1.338 -3,-3 l 0,-2.90625 0,-3.09375 c 0,-1.662 -1.338,-3 -3,-3 z"
       style="opacity:0.05;fill:#000000;fill-opacity:1;stroke:#000000;stroke-opacity:1" />
    <path
       style="opacity:0.09999995;fill:#000000;fill-opacity:1;stroke:#000000;stroke-opacity:1"
       d="m 11.5,968.86218 c -1.662,0 -3,1.338 -3,3 l 0,12 0,10 0,45.00002 c 0,1.662 1.338,3 3,3 l 73,0 c 1.662,0 3,-1.338 3,-3 l 0,-55.00002 c 0,-1.662 -1.338,-3 -3,-3 l -1,0 -15.46875,0 -17.53125,0 c -1.662,0 -3,-1.338 -3,-3 l 0,-2.90625 0,-3.09375 c 0,-1.662 -1.338,-3 -3,-3 z"
       id="path3824"
       inkscape:connector-curvature="0"
       sodipodi:nodetypes="ssccssssssccsscsss" />
    <path
       sodipodi:nodetypes="ssccssssssccsscsss"
       inkscape:connector-curvature="0"
       id="path3822"
       d="m 11.5,969.86218 c -1.662,0 -3,1.338 -3,3 l 0,12 0,10 0,45.00002 c 0,1.662 1.338,3 3,3 l 73,0 c 1.662,0 3,-1.338 3,-3 l 0,-55.00002 c 0,-1.662 -1.338,-3 -3,-3 l -1,0 -15.46875,0 -17.53125,0 c -1.662,0 -3,-1.338 -3,-3 l 0,-2.90625 0,-3.09375 c 0,-1.662 -1.338,-3 -3,-3 z"
       style="opacity:0.15;fill:#000000;fill-opacity:1;stroke:#000000;stroke-opacity:1" />
    <path
       style="fill:url(#radialGradient3812);fill-opacity:1;stroke:url(#linearGradient3834);stroke-opacity:1"
       d="m 11.5,14.5 c -1.662,0 -3,1.338 -3,3 l 0,12 0,10 0,45 c 0,1.662 1.338,3 3,3 l 73,0 c 1.662,0 3,-1.338 3,-3 l 0,-55 c 0,-1.662 -1.338,-3 -3,-3 l -1,0 -15.46875,0 -17.53125,0 c -1.662,0 -3,-1.338 -3,-3 l 0,-2.90625 0,-3.09375 c 0,-1.662 -1.338,-3 -3,-3 z"
       transform="translate(0,956.36218)"
       id="rect3776"
       inkscape:connector-curvature="0"
       sodipodi:nodetypes="ssccssssssccsscsss" />
    <path
       sodipodi:nodetypes="ssccssssssccsscsss"
       inkscape:connector-curvature="0"
       id="path3836"
       transform="translate(0,956.36218)"
       d="m 12,15.5 c -1.662,0 -2.5,0.838 -2.5,2.5 l 0,12.5 0,9 0,44.5 c 0,1.662 0.838,2.5 2.5,2.5 l 72,0 c 1.662,0 2.5,-0.838 2.5,-2.5 l 0,-54 c 0,-1.662 -0.838,-2.5 -2.5,-2.5 l -1.5,0 -14.46875,0 L 50,27.5 c -1.662,0 -3.5,-1.838 -3.5,-3.5 l 0,-2.40625 L 46.5,18 c 0,-1.662 -0.838,-2.5 -2.5,-2.5 z"
       style="fill:none;stroke:url(#linearGradient3844);stroke-opacity:1;opacity:0.5" />
    <path
       style="fill:#ffffff;fill-opacity:1;stroke:none;opacity:0.3"
       d="M 30 26 C 22.268013 26 16 32.26797 16 40 C 16 47.05097 21.218411 52.87065 28 53.84375 L 28 58 C 26.892 58 26 58.892 26 60 L 26 76 C 26 77.108 26.892 78 28 78 L 32 78 C 33.108 78 34 77.108 34 76 L 34 60 C 34 58.892 33.108 58 32 58 L 32 53.84375 C 38.781589 52.87065 44 47.05097 44 40 C 44 32.26797 37.731987 26 30 26 z M 30 30 C 35.522847 30 40 34.47711 40 40 C 40 45.52297 35.522847 50 30 50 C 24.477153 50 20 45.52297 20 40 C 20 34.47711 24.477153 30 30 30 z M 46 70 C 44.892 70 44 70.892 44 72 L 44 76 C 44 77.108 44.892 78 46 78 L 50 78 C 51.108 78 52 77.108 52 76 L 52 72 C 52 70.892 51.108 70 50 70 L 46 70 z M 58 70 C 56.892 70 56 70.892 56 72 L 56 76 C 56 77.108 56.892 78 58 78 L 62 78 C 63.108 78 64 77.108 64 76 L 64 72 C 64 70.892 63.108 70 62 70 L 58 70 z M 70 70 C 68.892 70 68 70.892 68 72 L 68 76 C 68 77.108 68.892 78 70 78 L 74 78 C 75.108 78 76 77.108 76 76 L 76 72 C 76 70.892 75.108 70 74 70 L 70 70 z "
       transform="translate(0,956.36218)"
       id="path3820" />
    <path
       style="opacity:1;fill:url(#linearGradient3835);fill-opacity:1;stroke:none"
       d="M 30 25 C 22.268013 25 16 31.26797 16 39 C 16 46.05097 21.218411 51.87065 28 52.84375 L 28 57 C 26.892 57 26 57.892 26 59 L 26 75 C 26 76.108 26.892 77 28 77 L 32 77 C 33.108 77 34 76.108 34 75 L 34 59 C 34 57.892 33.108 57 32 57 L 32 52.84375 C 38.781589 51.87065 44 46.05097 44 39 C 44 31.26797 37.731987 25 30 25 z M 30 29 C 35.522847 29 40 33.47711 40 39 C 40 44.52297 35.522847 49 30 49 C 24.477153 49 20 44.52297 20 39 C 20 33.47711 24.477153 29 30 29 z M 46 69 C 44.892 69 44 69.892 44 71 L 44 75 C 44 76.108 44.892 77 46 77 L 50 77 C 51.108 77 52 76.108 52 75 L 52 71 C 52 69.892 51.108 69 50 69 L 46 69 z M 58 69 C 56.892 69 56 69.892 56 71 L 56 75 C 56 76.108 56.892 77 58 77 L 62 77 C 63.108 77 64 76.108 64 75 L 64 71 C 64 69.892 63.108 69 62 69 L 58 69 z M 70 69 C 68.892 69 68 69.892 68 71 L 68 75 C 68 76.108 68.892 77 70 77 L 74 77 C 75.108 77 76 76.108 76 75 L 76 71 C 76 69.892 75.108 69 74 69 L 70 69 z "
       transform="translate(0,956.36218)"
       id="path3031" />
  </g>
</svg>
