<?xml version="1.0" encoding="UTF-8" standalone="no"?>
<!-- Created with Inkscape (http://www.inkscape.org/) -->

<svg
   xmlns:dc="http://purl.org/dc/elements/1.1/"
   xmlns:cc="http://creativecommons.org/ns#"
   xmlns:rdf="http://www.w3.org/1999/02/22-rdf-syntax-ns#"
   xmlns:svg="http://www.w3.org/2000/svg"
   xmlns="http://www.w3.org/2000/svg"
   xmlns:xlink="http://www.w3.org/1999/xlink"
   xmlns:sodipodi="http://sodipodi.sourceforge.net/DTD/sodipodi-0.dtd"
   xmlns:inkscape="http://www.inkscape.org/namespaces/inkscape"
   width="96"
   height="96"
   id="svg2"
   version="1.1"
   inkscape:version="0.48.3.1 r9886"
   sodipodi:docname="folder-open.svg">
  <defs
     id="defs4">
    <linearGradient
       id="linearGradient3803">
      <stop
         style="stop-color:#ffffff;stop-opacity:1;"
         offset="0"
         id="stop3805" />
      <stop
         style="stop-color:#ebebeb;stop-opacity:1;"
         offset="1"
         id="stop3807" />
    </linearGradient>
    <linearGradient
       id="linearGradient3846">
      <stop
         id="stop3848"
         offset="0"
         style="stop-color:#ffffff;stop-opacity:1;" />
      <stop
         style="stop-color:#ffffff;stop-opacity:0.23529412;"
         offset="0.04096451"
         id="stop3850" />
      <stop
         style="stop-color:#ffffff;stop-opacity:0.15686275;"
         offset="0.96765494"
         id="stop3852" />
      <stop
         id="stop3854"
         offset="1"
         style="stop-color:#ffffff;stop-opacity:0.39215687;" />
    </linearGradient>
    <linearGradient
       id="linearGradient3828">
      <stop
         style="stop-color:#bea55a;stop-opacity:1;"
         offset="0"
         id="stop3830" />
      <stop
         style="stop-color:#832000;stop-opacity:1;"
         offset="1"
         id="stop3832" />
    </linearGradient>
    <linearGradient
       id="linearGradient3814">
      <stop
         style="stop-color:#b06121;stop-opacity:1;"
         offset="0"
         id="stop3816" />
      <stop
         style="stop-color:#973404;stop-opacity:1;"
         offset="1"
         id="stop3818" />
    </linearGradient>
    <linearGradient
       id="linearGradient3806">
      <stop
         style="stop-color:#fff0c8;stop-opacity:1;"
         offset="0"
         id="stop3808" />
      <stop
         style="stop-color:#f0d78c;stop-opacity:1;"
         offset="1"
         id="stop3810" />
    </linearGradient>
    <linearGradient
       id="linearGradient3817">
      <stop
         style="stop-color:#ffffff;stop-opacity:1;"
         offset="0"
         id="stop3819" />
      <stop
         id="stop3827"
         offset="0.05455951"
         style="stop-color:#ffffff;stop-opacity:0.23529412;" />
      <stop
         id="stop3825"
         offset="0.95526141"
         style="stop-color:#ffffff;stop-opacity:0.15686275;" />
      <stop
         style="stop-color:#ffffff;stop-opacity:0.39215687;"
         offset="1"
         id="stop3821" />
    </linearGradient>
    <radialGradient
       cx="4.9929786"
       cy="43.5"
       r="2.5"
       fx="4.9929786"
       fy="43.5"
       id="radialGradient2873-966-168"
       xlink:href="#linearGradient3688-166-749"
       gradientUnits="userSpaceOnUse"
       gradientTransform="matrix(2.003784,0,0,1.4,27.98813,-17.4)" />
    <linearGradient
       id="linearGradient3688-166-749">
      <stop
         id="stop2883"
         style="stop-color:#181818;stop-opacity:1"
         offset="0" />
      <stop
         id="stop2885"
         style="stop-color:#181818;stop-opacity:0"
         offset="1" />
    </linearGradient>
    <radialGradient
       cx="4.9929786"
       cy="43.5"
       r="2.5"
       fx="4.9929786"
       fy="43.5"
       id="radialGradient2875-742-326"
       xlink:href="#linearGradient3688-464-309"
       gradientUnits="userSpaceOnUse"
       gradientTransform="matrix(2.003784,0,0,1.4,-20.01187,-104.4)" />
    <linearGradient
       id="linearGradient3688-464-309">
      <stop
         id="stop2889"
         style="stop-color:#181818;stop-opacity:1"
         offset="0" />
      <stop
         id="stop2891"
         style="stop-color:#181818;stop-opacity:0"
         offset="1" />
    </linearGradient>
    <linearGradient
       x1="25.058096"
       y1="47.027729"
       x2="25.058096"
       y2="39.999443"
       id="linearGradient2877-634-617"
       xlink:href="#linearGradient3702-501-757"
       gradientUnits="userSpaceOnUse" />
    <linearGradient
       id="linearGradient3702-501-757">
      <stop
         id="stop2895"
         style="stop-color:#181818;stop-opacity:0"
         offset="0" />
      <stop
         id="stop2897"
         style="stop-color:#181818;stop-opacity:1"
         offset="0.5" />
      <stop
         id="stop2899"
         style="stop-color:#181818;stop-opacity:0"
         offset="1" />
    </linearGradient>
    <linearGradient
       inkscape:collect="always"
       xlink:href="#linearGradient3817"
       id="linearGradient3823"
       x1="47.214287"
       y1="965.25507"
       x2="47.214287"
       y2="1042.9185"
       gradientUnits="userSpaceOnUse" />
    <radialGradient
       inkscape:collect="always"
       xlink:href="#linearGradient3806"
       id="radialGradient3812"
       cx="56.130119"
       cy="18.461861"
       fx="56.130119"
       fy="18.461861"
       r="40"
       gradientTransform="matrix(0,1.1485266,-1.2457306,0,71.638823,-33.985243)"
       gradientUnits="userSpaceOnUse" />
    <radialGradient
       inkscape:collect="always"
       xlink:href="#linearGradient3814"
       id="radialGradient3820"
       cx="48.000011"
       cy="967.04077"
       fx="48.000011"
       fy="967.04077"
       r="40"
       gradientUnits="userSpaceOnUse"
       gradientTransform="matrix(-8.994018e-8,0.44651785,-1.2545358,-2.5269578e-7,1261.1873,945.60815)" />
    <linearGradient
       inkscape:collect="always"
       xlink:href="#linearGradient3828"
       id="linearGradient3834"
       x1="21.928572"
       y1="87.071426"
       x2="21.928572"
       y2="24.177471"
       gradientUnits="userSpaceOnUse" />
    <linearGradient
       inkscape:collect="always"
       xlink:href="#linearGradient3846"
       id="linearGradient3844"
       x1="45.112953"
       y1="26.344843"
       x2="45.112953"
       y2="86.962921"
       gradientUnits="userSpaceOnUse" />
    <radialGradient
       inkscape:collect="always"
       xlink:href="#linearGradient3803"
       id="radialGradient3809"
       cx="48.757614"
       cy="974.05756"
       fx="48.757614"
       fy="974.05756"
       r="34"
       gradientUnits="userSpaceOnUse"
       gradientTransform="matrix(5.7268122e-7,1.7900518,-1.7651045,5.6469997e-7,1768.071,886.77841)" />
  </defs>
  <sodipodi:namedview
     id="base"
     pagecolor="#ffffff"
     bordercolor="#666666"
     borderopacity="1.0"
     inkscape:pageopacity="0.0"
     inkscape:pageshadow="2"
     inkscape:zoom="3.959798"
     inkscape:cx="44.162012"
     inkscape:cy="51.751605"
     inkscape:document-units="px"
     inkscape:current-layer="layer1"
     showgrid="false"
     inkscape:window-width="1280"
     inkscape:window-height="756"
     inkscape:window-x="0"
     inkscape:window-y="24"
     inkscape:window-maximized="1" />
  <metadata
     id="metadata7">
    <rdf:RDF>
      <cc:Work
         rdf:about="">
        <dc:format>image/svg+xml</dc:format>
        <dc:type
           rdf:resource="http://purl.org/dc/dcmitype/StillImage" />
        <dc:title></dc:title>
      </cc:Work>
    </rdf:RDF>
  </metadata>
  <g
     inkscape:label="Livello 1"
     inkscape:groupmode="layer"
     id="layer1"
     transform="translate(0,-956.36218)">
    <g
       style="display:inline"
       id="g2036"
       transform="matrix(2.1999991,0,0,0.88888944,-4.8000008,1006.5844)">
      <g
         style="opacity:0.4"
         id="g3712"
         transform="matrix(1.052632,0,0,1.285713,-1.263158,-13.42854)">
        <rect
           style="fill:url(#radialGradient2873-966-168);fill-opacity:1;stroke:none"
           id="rect2801"
           y="40"
           x="38"
           height="7"
           width="5" />
        <rect
           style="fill:url(#radialGradient2875-742-326);fill-opacity:1;stroke:none"
           id="rect3696"
           transform="scale(-1,-1)"
           y="-47"
           x="-10"
           height="7"
           width="5" />
        <rect
           style="fill:url(#linearGradient2877-634-617);fill-opacity:1;stroke:none"
           id="rect3700"
           y="40"
           x="10"
           height="7.0000005"
           width="28" />
      </g>
    </g>
    <rect
       style="fill:url(#radialGradient3820);fill-opacity:1;stroke:#832000;stroke-opacity:1"
       id="rect2985"
       width="79"
       height="79"
       x="8.5"
       y="964.86218"
       rx="3"
       ry="3" />
    <rect
       style="fill:url(#radialGradient3809);fill-opacity:1;stroke:#969696;stroke-opacity:1"
       id="rect3033"
       width="67"
       height="67"
       x="14.5"
       y="970.86218"
       rx="1"
       ry="1" />
    <path
       style="fill:#969696;fill-opacity:1;stroke:none"
       d="M 20 19 L 20 20 L 45 20 L 45 19 L 20 19 z M 48 19 L 48 20 L 61 20 L 61 19 L 48 19 z M 64 19 L 64 20 L 74 20 L 74 19 L 64 19 z M 20 23 L 20 24 L 27 24 L 27 23 L 20 23 z M 30 23 L 30 24 L 55 24 L 55 23 L 30 23 z M 58 23 L 58 24 L 68 24 L 68 23 L 58 23 z M 44 27 L 44 28 L 57 28 L 57 27 L 44 27 z M 60 27 L 60 28 L 73 28 L 73 27 L 60 27 z M 30 31 L 30 32 L 55 32 L 55 31 L 30 31 z M 58 31 L 58 32 L 65 32 L 65 31 L 58 31 z "
       transform="translate(0,956.36218)"
       id="rect3830" />
    <path
       sodipodi:nodetypes="ssccssssssccsscsss"
       inkscape:connector-curvature="0"
       id="path3801"
       d="m 11.5,976.86214 c -1.6620002,0 -3.0000003,1.338 -3.0000003,3 l 0,12 0,10.00006 0,34 c 0,1.662 1.3380001,3 3.0000003,3 l 73,0 c 1.662,0 3,-1.338 3,-3 l 0,-44.00006 c 0,-1.662 -2.256739,-1.51346 -3,-3 l -1,0 -15.46875,0 -17.53125,0 c -1.662,0 -3,-1.338 -3,-3 l 0,-2.90625 0,-3.09375 c 0,-1.662 -1.338,-3 -3,-3 z"
       style="opacity:0.02000002;fill:#000000;fill-opacity:1;stroke:#000000;stroke-width:0.99999946;stroke-opacity:1" />
    <path
       style="opacity:0.05;fill:#000000;fill-opacity:1;stroke:#000000;stroke-width:0.99999946;stroke-opacity:1"
       d="m 11.5,977.86215 c -1.6620002,0 -3.0000003,1.338 -3.0000003,3 l 0,12 0,10.00005 0,34 c 0,1.662 1.3380001,3 3.0000003,3 l 73,0 c 1.662,0 3,-1.338 3,-3 l 0,-44.00005 c 0,-1.662 -2.256736,-1.51346 -3,-3 l -1,0 -15.46875,0 -17.53125,0 c -1.662,0 -3,-1.338 -3,-3 l 0,-2.90625 0,-3.09375 c 0,-1.662 -1.338,-3 -3,-3 z"
       id="path3799"
       inkscape:connector-curvature="0"
       sodipodi:nodetypes="ssccssssssccsscsss" />
    <rect
       ry="2"
       rx="2"
       y="965.86218"
       x="9.5"
       height="77"
       width="77"
       id="rect3815"
       style="fill:none;stroke:url(#linearGradient3823);stroke-opacity:1;opacity:0.3" />
    <path
       sodipodi:nodetypes="ssccssssssccsscsss"
       inkscape:connector-curvature="0"
       id="path3826"
       d="m 11.5,978.86217 c -1.662,0 -3,1.338 -3,3 l 0,12 0,10.00003 0,34 c 0,1.662 1.338,3 3,3 l 73,0 c 1.662,0 3,-1.338 3,-3 l 0,-44.00003 c 0,-1.662 -1.338005,-3 -3,-3 l -1,0 -15.46875,0 -17.53125,0 c -1.662,0 -3,-1.338 -3,-3 l 0,-2.90625 0,-3.09375 c 0,-1.662 -1.338,-3 -3,-3 z"
       style="opacity:0.10000006;fill:#000000;fill-opacity:1;stroke:#000000;stroke-opacity:1" />
    <path
       style="opacity:0.15;fill:#000000;fill-opacity:1;stroke:#000000;stroke-opacity:1"
       d="m 11.5,979.86217 c -1.662,0 -3,1.338 -3,3 l 0,12 0,10.00003 0,34 c 0,1.662 1.338,3 3,3 l 73,0 c 1.662,0 3,-1.338 3,-3 l 0,-44.00003 c 0,-1.662 -2.25673,-1.51347 -3,-3 l -1,0 -15.46875,0 -17.53125,0 c -1.662,0 -3,-1.338 -3,-3 l 0,-2.90625 0,-3.09375 c 0,-1.662 -1.338,-3 -3,-3 z"
       id="path3824"
       inkscape:connector-curvature="0"
       sodipodi:nodetypes="ssccssssssccsscsss" />
    <path
       sodipodi:nodetypes="ssccssssssccsscsss"
       inkscape:connector-curvature="0"
       id="path3822"
       d="m 11.5,980.86217 c -1.662,0 -3,1.338 -3,3 l 0,12 0,10.00003 0,34 c 0,1.662 1.338,3 3,3 l 73,0 c 1.662,0 3,-1.338 3,-3 l 0,-44.00003 c 0,-1.662 -2.25673,-1.51347 -3,-3 l -1,0 -15.46875,0 -17.53125,0 c -1.662,0 -3,-1.338 -3,-3 l 0,-2.90625 0,-3.09375 c 0,-1.662 -1.338,-3 -3,-3 z"
       style="opacity:0.2;fill:#000000;fill-opacity:1;stroke:#000000;stroke-opacity:1" />
    <path
       style="fill:url(#radialGradient3812);fill-opacity:1;stroke:url(#linearGradient3834);stroke-opacity:1"
       d="m 11.5,25.5 c -1.662,0 -3,1.338 -3,3 l 0,12 0,10 0,34 c 0,1.662 1.338,3 3,3 l 73,0 c 1.662,0 3,-1.338 3,-3 l 0,-44 c 0,-1.662 -1.338,-3 -3,-3 l -1,0 -15.46875,0 -17.53125,0 c -1.662,0 -3,-1.338 -3,-3 l 0,-2.90625 0,-3.09375 c 0,-1.662 -1.338,-3 -3,-3 z"
       transform="translate(0,956.36218)"
       id="rect3776"
       inkscape:connector-curvature="0"
       sodipodi:nodetypes="ssccssssssccsscsss" />
    <path
       sodipodi:nodetypes="ssccssssssccsscsss"
       inkscape:connector-curvature="0"
       id="path3836"
       transform="translate(0,956.36218)"
       d="m 12,26.5 c -1.662,0 -2.5,0.838 -2.5,2.5 l 0,12.5 0,9 0,33.5 c 0,1.662 0.838,2.5 2.5,2.5 l 72,0 c 1.662,0 2.5,-0.838 2.5,-2.5 l 0,-43 c 0,-1.662 -0.838,-2.5 -2.5,-2.5 l -1.5,0 -14.46875,0 L 50,38.5 c -1.662,0 -3.5,-1.838 -3.5,-3.5 l 0,-2.40625 L 46.5,29 c 0,-1.662 -0.838,-2.5 -2.5,-2.5 z"
       style="opacity:0.50000000000000000;fill:none;stroke:url(#linearGradient3844);stroke-opacity:1" />
  </g>
</svg>
