<?xml version="1.0" encoding="UTF-8" standalone="no"?>
<!-- Created with Inkscape (http://www.inkscape.org/) -->

<svg
   xmlns:dc="http://purl.org/dc/elements/1.1/"
   xmlns:cc="http://creativecommons.org/ns#"
   xmlns:rdf="http://www.w3.org/1999/02/22-rdf-syntax-ns#"
   xmlns:svg="http://www.w3.org/2000/svg"
   xmlns="http://www.w3.org/2000/svg"
   xmlns:xlink="http://www.w3.org/1999/xlink"
   xmlns:sodipodi="http://sodipodi.sourceforge.net/DTD/sodipodi-0.dtd"
   xmlns:inkscape="http://www.inkscape.org/namespaces/inkscape"
   width="16"
   height="16"
   id="svg3028"
   version="1.1"
   inkscape:version="0.48.3.1 r9886"
   sodipodi:docname="folder-publicshare-symbolic.svg">
  <defs
     id="defs3030">
    <linearGradient
       inkscape:collect="always"
       xlink:href="#linearGradient4556"
       id="linearGradient3848"
       x1="23.90991"
       y1="1009.645"
       x2="23.90991"
       y2="1046.1143"
       gradientUnits="userSpaceOnUse" />
    <linearGradient
       id="linearGradient4556">
      <stop
         style="stop-color:#505050;stop-opacity:1;"
         offset="0"
         id="stop4558" />
      <stop
         style="stop-color:#141414;stop-opacity:1;"
         offset="1"
         id="stop4560" />
    </linearGradient>
  </defs>
  <sodipodi:namedview
     id="base"
     pagecolor="#ffffff"
     bordercolor="#666666"
     borderopacity="1.0"
     inkscape:pageopacity="0.0"
     inkscape:pageshadow="2"
     inkscape:zoom="15.839192"
     inkscape:cx="13.719097"
     inkscape:cy="4.9618128"
     inkscape:document-units="px"
     inkscape:current-layer="layer1"
     showgrid="false"
     inkscape:window-width="1280"
     inkscape:window-height="751"
     inkscape:window-x="0"
     inkscape:window-y="24"
     inkscape:window-maximized="1" />
  <metadata
     id="metadata3033">
    <rdf:RDF>
      <cc:Work
         rdf:about="">
        <dc:format>image/svg+xml</dc:format>
        <dc:type
           rdf:resource="http://purl.org/dc/dcmitype/StillImage" />
        <dc:title />
      </cc:Work>
    </rdf:RDF>
  </metadata>
  <g
     inkscape:label="Livello 1"
     inkscape:groupmode="layer"
     id="layer1"
     transform="translate(0,-1036.3622)">
    <path
       style="fill:#bebebe;fill-opacity:1;fill-rule:nonzero;stroke:none"
       d="m 7.9726562,1037.3622 c -1.7192724,0 -3.0898437,1.2799 -3.0898437,2.8711 -0.02345,0.2681 -0.036549,0.5329 -0.027344,0.793 -0.145425,0 -0.5195313,0.1075 -0.5195313,0.2461 l 0,1.5039 c 0,0.1384 0.3741063,0.2461 0.5195313,0.2461 l 0.1640624,0 c 0.2639224,1.0545 0.8602821,1.9495 1.6132813,2.4336 -0.065286,0.079 -0.1510639,0.1434 -0.21875,0.2187 l -0.5195313,0 c -0.2908497,0 -0.5195312,0.2152 -0.5195312,0.4922 l 0,0.4922 c -0.7360616,0.5513 -1.600893,0.9452 -2.625,1.2031 l -0.875,0.2734 C 1.4106937,1048.2749 1,1048.5259 1,1049.0106 l 0,2.3516 1.75,0 10.5,0 1.75,0 0,-2.3516 c 0,-0.4847 -0.410694,-0.7357 -0.875,-0.875 l -0.875,-0.2734 c -0.976388,-0.2852 -1.845706,-0.7569 -2.625,-1.3672 l 0,-0.3281 c 0,-0.277 -0.228682,-0.4922 -0.519531,-0.4922 l -0.3828127,0 c -0.082565,-0.087 -0.1660232,-0.1823 -0.2460938,-0.2734 0.7261465,-0.4889 1.2529895,-1.3448 1.5039065,-2.3789 l 0.164062,0 c 0.145425,0 0.519532,-0.1077 0.519532,-0.2461 l 0,-1.5039 c 0,-0.1386 -0.374107,-0.2461 -0.519532,-0.2461 -0.0033,-0.2173 -0.01389,-0.4456 -0.05469,-0.711 0,-2.133 -1.7222947,-2.9138 -3.1171878,-2.9531 z"
       id="path3290"
       inkscape:connector-curvature="0" />
  </g>
</svg>
