<?xml version="1.0" encoding="UTF-8" standalone="no"?>
<!-- Created with Inkscape (http://www.inkscape.org/) -->

<svg
   xmlns:dc="http://purl.org/dc/elements/1.1/"
   xmlns:cc="http://creativecommons.org/ns#"
   xmlns:rdf="http://www.w3.org/1999/02/22-rdf-syntax-ns#"
   xmlns:svg="http://www.w3.org/2000/svg"
   xmlns="http://www.w3.org/2000/svg"
   xmlns:xlink="http://www.w3.org/1999/xlink"
   xmlns:sodipodi="http://sodipodi.sourceforge.net/DTD/sodipodi-0.dtd"
   xmlns:inkscape="http://www.inkscape.org/namespaces/inkscape"
   width="96"
   height="96"
   id="svg2"
   version="1.1"
   inkscape:version="0.48.3.1 r9886"
   sodipodi:docname="network-server.svg"
   inkscape:export-filename="/home/andrea/.icons/Matrilineare/devices/96/drive-harddisk.png"
   inkscape:export-xdpi="90"
   inkscape:export-ydpi="90">
  <defs
     id="defs4">
    <linearGradient
       id="linearGradient3897">
      <stop
         style="stop-color:#143ca0;stop-opacity:1;"
         offset="0"
         id="stop3899" />
      <stop
         style="stop-color:#3c64c8;stop-opacity:1;"
         offset="1"
         id="stop3901" />
    </linearGradient>
    <linearGradient
       id="linearGradient3867">
      <stop
         style="stop-color:#e9d033;stop-opacity:1;"
         offset="0"
         id="stop3869" />
      <stop
         style="stop-color:#e9d033;stop-opacity:0;"
         offset="1"
         id="stop3871" />
    </linearGradient>
    <linearGradient
       id="linearGradient3859">
      <stop
         style="stop-color:#141414;stop-opacity:1;"
         offset="0"
         id="stop3861" />
      <stop
         style="stop-color:#505050;stop-opacity:1;"
         offset="1"
         id="stop3863" />
    </linearGradient>
    <linearGradient
       id="linearGradient3999">
      <stop
         style="stop-color:#e0fa3b;stop-opacity:1;"
         offset="0"
         id="stop4001" />
      <stop
         style="stop-color:#428b1b;stop-opacity:1;"
         offset="1"
         id="stop4003" />
    </linearGradient>
    <linearGradient
       id="linearGradient3909">
      <stop
         id="stop3911"
         offset="0"
         style="stop-color:#1e46aa;stop-opacity:1;" />
      <stop
         id="stop3913"
         offset="1"
         style="stop-color:#0a3296;stop-opacity:1;" />
    </linearGradient>
    <linearGradient
       id="linearGradient3901">
      <stop
         id="stop3903"
         offset="0"
         style="stop-color:#2785e0;stop-opacity:1;" />
      <stop
         id="stop3905"
         offset="1"
         style="stop-color:#2850b4;stop-opacity:1;" />
    </linearGradient>
    <linearGradient
       id="linearGradient3891">
      <stop
         id="stop3893"
         offset="0"
         style="stop-color:#c8c8c8;stop-opacity:1;" />
      <stop
         id="stop3895"
         offset="1"
         style="stop-color:#787878;stop-opacity:1;" />
    </linearGradient>
    <linearGradient
       id="linearGradient3835">
      <stop
         style="stop-color:#505050;stop-opacity:1;"
         offset="0"
         id="stop3837" />
      <stop
         style="stop-color:#141414;stop-opacity:1;"
         offset="1"
         id="stop3839" />
    </linearGradient>
    <linearGradient
       id="linearGradient3953">
      <stop
         style="stop-color:#333333;stop-opacity:1;"
         offset="0"
         id="stop3955" />
      <stop
         style="stop-color:#c8c8c8;stop-opacity:1;"
         offset="1"
         id="stop3957" />
    </linearGradient>
    <linearGradient
       id="linearGradient3799">
      <stop
         style="stop-color:#aaaaaa;stop-opacity:1;"
         offset="0"
         id="stop3801" />
      <stop
         style="stop-color:#f0f0f0;stop-opacity:1;"
         offset="1"
         id="stop3803" />
    </linearGradient>
    <linearGradient
       id="linearGradient3826">
      <stop
         style="stop-color:#285ab4;stop-opacity:1;"
         offset="0"
         id="stop3828" />
      <stop
         style="stop-color:#46b4dc;stop-opacity:1;"
         offset="1"
         id="stop3830" />
    </linearGradient>
    <linearGradient
       id="linearGradient3808">
      <stop
         style="stop-color:#646464;stop-opacity:1;"
         offset="0"
         id="stop3810" />
      <stop
         id="stop3822"
         offset="0.0625"
         style="stop-color:#e6e6e6;stop-opacity:1;" />
      <stop
         id="stop3820"
         offset="0.39016503"
         style="stop-color:#c8c8c8;stop-opacity:1;" />
      <stop
         id="stop3818"
         offset="0.60355341"
         style="stop-color:#c8c8c8;stop-opacity:1;" />
      <stop
         id="stop3816"
         offset="0.92457974"
         style="stop-color:#e6e6e6;stop-opacity:1;" />
      <stop
         style="stop-color:#646464;stop-opacity:1;"
         offset="1"
         id="stop3812" />
    </linearGradient>
    <linearGradient
       id="linearGradient3800">
      <stop
         style="stop-color:#3c3c3c;stop-opacity:1;"
         offset="0"
         id="stop3802" />
      <stop
         style="stop-color:#787878;stop-opacity:1;"
         offset="1"
         id="stop3804" />
    </linearGradient>
    <linearGradient
       id="linearGradient3817">
      <stop
         style="stop-color:#ffffff;stop-opacity:0.627451;"
         offset="0"
         id="stop3819" />
      <stop
         id="stop3827"
         offset="0.05455951"
         style="stop-color:#ffffff;stop-opacity:0.23529412;" />
      <stop
         id="stop3825"
         offset="0.95526141"
         style="stop-color:#ffffff;stop-opacity:0.15686275;" />
      <stop
         style="stop-color:#ffffff;stop-opacity:0.88235295;"
         offset="1"
         id="stop3821" />
    </linearGradient>
    <radialGradient
       cx="4.9929786"
       cy="43.5"
       r="2.5"
       fx="4.9929786"
       fy="43.5"
       id="radialGradient2873-966-168"
       xlink:href="#linearGradient3688-166-749"
       gradientUnits="userSpaceOnUse"
       gradientTransform="matrix(2.003784,0,0,1.4,27.98813,-17.4)" />
    <linearGradient
       id="linearGradient3688-166-749">
      <stop
         id="stop2883"
         style="stop-color:#181818;stop-opacity:1"
         offset="0" />
      <stop
         id="stop2885"
         style="stop-color:#181818;stop-opacity:0"
         offset="1" />
    </linearGradient>
    <radialGradient
       cx="4.9929786"
       cy="43.5"
       r="2.5"
       fx="4.9929786"
       fy="43.5"
       id="radialGradient2875-742-326"
       xlink:href="#linearGradient3688-464-309"
       gradientUnits="userSpaceOnUse"
       gradientTransform="matrix(2.003784,0,0,1.4,-20.01187,-104.4)" />
    <linearGradient
       id="linearGradient3688-464-309">
      <stop
         id="stop2889"
         style="stop-color:#181818;stop-opacity:1"
         offset="0" />
      <stop
         id="stop2891"
         style="stop-color:#181818;stop-opacity:0"
         offset="1" />
    </linearGradient>
    <linearGradient
       x1="25.058096"
       y1="47.027729"
       x2="25.058096"
       y2="39.999443"
       id="linearGradient2877-634-617"
       xlink:href="#linearGradient3702-501-757"
       gradientUnits="userSpaceOnUse" />
    <linearGradient
       id="linearGradient3702-501-757">
      <stop
         id="stop2895"
         style="stop-color:#181818;stop-opacity:0"
         offset="0" />
      <stop
         id="stop2897"
         style="stop-color:#181818;stop-opacity:1"
         offset="0.5" />
      <stop
         id="stop2899"
         style="stop-color:#181818;stop-opacity:0"
         offset="1" />
    </linearGradient>
    <linearGradient
       inkscape:collect="always"
       xlink:href="#linearGradient3817"
       id="linearGradient3823"
       x1="47.214287"
       y1="965.25507"
       x2="47.214287"
       y2="1027.2001"
       gradientUnits="userSpaceOnUse" />
    <linearGradient
       inkscape:collect="always"
       xlink:href="#linearGradient3800"
       id="linearGradient3806"
       x1="46.583744"
       y1="1043.2562"
       x2="46.583744"
       y2="964.71368"
       gradientUnits="userSpaceOnUse" />
    <linearGradient
       inkscape:collect="always"
       xlink:href="#linearGradient3808"
       id="linearGradient3814"
       x1="8"
       y1="1004.3622"
       x2="88"
       y2="1004.3622"
       gradientUnits="userSpaceOnUse" />
    <radialGradient
       inkscape:collect="always"
       xlink:href="#linearGradient3826"
       id="radialGradient3834"
       cx="49.010151"
       cy="967.7605"
       fx="49.010151"
       fy="967.7605"
       r="40"
       gradientTransform="matrix(3.4503109e-7,1.8511664,-2.1001017,3.9142909e-7,2081.4056,881.62443)"
       gradientUnits="userSpaceOnUse" />
    <linearGradient
       inkscape:collect="always"
       xlink:href="#linearGradient3800"
       id="linearGradient3836"
       gradientUnits="userSpaceOnUse"
       x1="21.835007"
       y1="1034.1185"
       x2="21.835007"
       y2="964.46112" />
    <linearGradient
       inkscape:collect="always"
       xlink:href="#linearGradient3953"
       id="linearGradient3977"
       gradientUnits="userSpaceOnUse"
       gradientTransform="translate(-3.8e-7,-1)"
       x1="24.874722"
       y1="1038.3622"
       x2="49.560608"
       y2="1038.3622" />
    <linearGradient
       inkscape:collect="always"
       xlink:href="#linearGradient3835"
       id="linearGradient3841"
       x1="36.125008"
       y1="1041.3004"
       x2="36.125008"
       y2="1035.4247"
       gradientUnits="userSpaceOnUse" />
    <linearGradient
       inkscape:collect="always"
       xlink:href="#linearGradient3835"
       id="linearGradient3845"
       gradientUnits="userSpaceOnUse"
       x1="36.125008"
       y1="1041.3004"
       x2="36.125008"
       y2="1035.4247"
       gradientTransform="translate(-4,0)" />
    <linearGradient
       inkscape:collect="always"
       xlink:href="#linearGradient3835"
       id="linearGradient3849"
       gradientUnits="userSpaceOnUse"
       gradientTransform="translate(-8,0)"
       x1="36.125008"
       y1="1041.3004"
       x2="36.125008"
       y2="1035.4247" />
    <linearGradient
       inkscape:collect="always"
       xlink:href="#linearGradient3835"
       id="linearGradient3853"
       gradientUnits="userSpaceOnUse"
       gradientTransform="translate(-12,0)"
       x1="36.125008"
       y1="1041.3004"
       x2="36.125008"
       y2="1035.4247" />
    <linearGradient
       inkscape:collect="always"
       xlink:href="#linearGradient3835"
       id="linearGradient3857"
       gradientUnits="userSpaceOnUse"
       gradientTransform="translate(-16,0)"
       x1="36.125008"
       y1="1041.3004"
       x2="36.125008"
       y2="1035.4247" />
    <linearGradient
       inkscape:collect="always"
       xlink:href="#linearGradient3835"
       id="linearGradient3861"
       gradientUnits="userSpaceOnUse"
       gradientTransform="translate(-20,0)"
       x1="36.125008"
       y1="1041.3004"
       x2="36.125008"
       y2="1035.4247" />
    <radialGradient
       inkscape:collect="always"
       xlink:href="#linearGradient3826"
       id="radialGradient3865"
       gradientUnits="userSpaceOnUse"
       gradientTransform="matrix(3.4503109e-7,1.8511664,-2.1001017,3.9142909e-7,2082.4056,881.62443)"
       cx="49.010151"
       cy="967.7605"
       fx="49.010151"
       fy="967.7605"
       r="40" />
    <radialGradient
       inkscape:collect="always"
       xlink:href="#linearGradient3826"
       id="radialGradient3882"
       gradientUnits="userSpaceOnUse"
       gradientTransform="matrix(3.4503109e-7,1.8511664,-2.1001017,3.9142909e-7,2081.4056,-74.73775)"
       cx="49.010151"
       cy="967.7605"
       fx="49.010151"
       fy="967.7605"
       r="40" />
    <linearGradient
       inkscape:collect="always"
       xlink:href="#linearGradient3800"
       id="linearGradient3884"
       gradientUnits="userSpaceOnUse"
       x1="21.835007"
       y1="1034.1185"
       x2="21.835007"
       y2="964.46112"
       gradientTransform="translate(0,-956.36218)" />
    <linearGradient
       inkscape:collect="always"
       xlink:href="#linearGradient3817"
       id="linearGradient3899"
       gradientUnits="userSpaceOnUse"
       x1="47.214287"
       y1="965.25507"
       x2="47.214287"
       y2="1027.2686" />
    <radialGradient
       inkscape:collect="always"
       xlink:href="#linearGradient3901"
       id="radialGradient3907"
       gradientUnits="userSpaceOnUse"
       gradientTransform="matrix(3.4503109e-7,1.8511664,-2.1001017,3.9142909e-7,2081.4056,-74.73775)"
       cx="49.010151"
       cy="967.7605"
       fx="49.010151"
       fy="967.7605"
       r="40" />
    <linearGradient
       inkscape:collect="always"
       xlink:href="#linearGradient3909"
       id="linearGradient3915"
       gradientUnits="userSpaceOnUse"
       x1="21.835007"
       y1="1034.1185"
       x2="21.835007"
       y2="964.46112" />
    <linearGradient
       inkscape:collect="always"
       xlink:href="#linearGradient3826"
       id="linearGradient3919"
       x1="46.25"
       y1="966.36218"
       x2="46.25"
       y2="1026.6251"
       gradientUnits="userSpaceOnUse" />
    <linearGradient
       inkscape:collect="always"
       xlink:href="#linearGradient3859"
       id="linearGradient3865"
       x1="51.5"
       y1="80.03125"
       x2="51.5"
       y2="85.001572"
       gradientUnits="userSpaceOnUse"
       gradientTransform="translate(24,956.36218)" />
    <linearGradient
       inkscape:collect="always"
       xlink:href="#linearGradient3867"
       id="linearGradient3873"
       x1="51.53125"
       y1="1040.3467"
       x2="51.53125"
       y2="1038.3466"
       gradientUnits="userSpaceOnUse"
       gradientTransform="translate(24,0)" />
    <linearGradient
       inkscape:collect="always"
       xlink:href="#linearGradient3859"
       id="linearGradient3096"
       gradientUnits="userSpaceOnUse"
       gradientTransform="translate(17,956.36218)"
       x1="51.5"
       y1="80.03125"
       x2="51.5"
       y2="85.001572" />
    <linearGradient
       inkscape:collect="always"
       xlink:href="#linearGradient3867"
       id="linearGradient3098"
       gradientUnits="userSpaceOnUse"
       gradientTransform="translate(17,0)"
       x1="51.53125"
       y1="1040.3467"
       x2="51.53125"
       y2="1038.3466" />
    <linearGradient
       inkscape:collect="always"
       xlink:href="#linearGradient3859"
       id="linearGradient3106"
       gradientUnits="userSpaceOnUse"
       gradientTransform="translate(10,956.36218)"
       x1="51.5"
       y1="80.03125"
       x2="51.5"
       y2="85.001572" />
    <linearGradient
       inkscape:collect="always"
       xlink:href="#linearGradient3867"
       id="linearGradient3108"
       gradientUnits="userSpaceOnUse"
       gradientTransform="translate(10,0)"
       x1="51.53125"
       y1="1040.3467"
       x2="51.53125"
       y2="1038.3466" />
    <linearGradient
       y2="38.877823"
       x2="24.115286"
       y1="4.7285786"
       x1="24.115286"
       gradientTransform="matrix(1.04,0,0,1.0178571,-0.9599995,1004.8601)"
       gradientUnits="userSpaceOnUse"
       id="linearGradient3204"
       xlink:href="#linearGradient4556"
       inkscape:collect="always" />
    <linearGradient
       id="linearGradient4556">
      <stop
         style="stop-color:#b06121;stop-opacity:1;"
         offset="0"
         id="stop4558" />
      <stop
         style="stop-color:#973404;stop-opacity:1;"
         offset="1"
         id="stop4560" />
    </linearGradient>
    <linearGradient
       inkscape:collect="always"
       xlink:href="#linearGradient3897"
       id="linearGradient3903"
       x1="48.5"
       y1="979.36218"
       x2="48.5"
       y2="1015.8699"
       gradientUnits="userSpaceOnUse" />
    <linearGradient
       inkscape:collect="always"
       xlink:href="#linearGradient3897"
       id="linearGradient3920"
       gradientUnits="userSpaceOnUse"
       x1="48.5"
       y1="979.36218"
       x2="48.5"
       y2="1015.8699"
       gradientTransform="translate(0,-956.36218)" />
  </defs>
  <sodipodi:namedview
     id="base"
     pagecolor="#ffffff"
     bordercolor="#666666"
     borderopacity="1.0"
     inkscape:pageopacity="0.0"
     inkscape:pageshadow="2"
     inkscape:zoom="4"
     inkscape:cx="70.73913"
     inkscape:cy="8.305084"
     inkscape:document-units="px"
     inkscape:current-layer="layer1"
     showgrid="false"
     inkscape:window-width="1280"
     inkscape:window-height="756"
     inkscape:window-x="0"
     inkscape:window-y="24"
     inkscape:window-maximized="1" />
  <metadata
     id="metadata7">
    <rdf:RDF>
      <cc:Work
         rdf:about="">
        <dc:format>image/svg+xml</dc:format>
        <dc:type
           rdf:resource="http://purl.org/dc/dcmitype/StillImage" />
        <dc:title />
      </cc:Work>
    </rdf:RDF>
  </metadata>
  <g
     inkscape:label="Livello 1"
     inkscape:groupmode="layer"
     id="layer1"
     transform="translate(0,-956.36218)">
    <g
       style="display:inline"
       id="g2036"
       transform="matrix(2.1999991,0,0,0.88888944,-4.8000008,1006.5844)">
      <g
         style="opacity:0.4"
         id="g3712"
         transform="matrix(1.052632,0,0,1.285713,-1.263158,-13.42854)">
        <rect
           style="fill:url(#radialGradient2873-966-168);fill-opacity:1;stroke:none"
           id="rect2801"
           y="40"
           x="38"
           height="7"
           width="5" />
        <rect
           style="fill:url(#radialGradient2875-742-326);fill-opacity:1;stroke:none"
           id="rect3696"
           transform="scale(-1,-1)"
           y="-47"
           x="-10"
           height="7"
           width="5" />
        <rect
           style="fill:url(#linearGradient2877-634-617);fill-opacity:1;stroke:none"
           id="rect3700"
           y="40"
           x="10"
           height="7.0000005"
           width="28" />
      </g>
    </g>
    <rect
       style="fill:url(#linearGradient3814);fill-opacity:1;stroke:url(#linearGradient3806);stroke-opacity:1"
       id="rect2985"
       width="79"
       height="79"
       x="8.5"
       y="964.86218"
       rx="3"
       ry="3" />
    <rect
       ry="0.5"
       rx="0.5"
       y="1036.3619"
       x="14.999998"
       height="6"
       width="2"
       id="rect3823"
       style="fill:#ffffff;fill-opacity:1;stroke:none;opacity:0.5" />
    <rect
       style="fill:#ffffff;fill-opacity:1;stroke:none;opacity:0.5"
       id="rect3825"
       width="2"
       height="6"
       x="18.99999"
       y="1036.3619"
       rx="0.5"
       ry="0.5" />
    <rect
       ry="0.5"
       rx="0.5"
       y="1036.3619"
       x="22.999994"
       height="6"
       width="2"
       id="rect3827"
       style="fill:#ffffff;fill-opacity:1;stroke:none;opacity:0.5" />
    <rect
       style="fill:#ffffff;fill-opacity:1;stroke:none;opacity:0.5"
       id="rect3829"
       width="2"
       height="6"
       x="26.999992"
       y="1036.3619"
       rx="0.5"
       ry="0.5" />
    <rect
       ry="0.5"
       rx="0.5"
       y="1036.3619"
       x="30.999998"
       height="6"
       width="2"
       id="rect3831"
       style="fill:#ffffff;fill-opacity:1;stroke:none;opacity:0.5" />
    <rect
       style="fill:#ffffff;fill-opacity:1;stroke:none;opacity:0.5"
       id="rect3833"
       width="2"
       height="6"
       x="35.000008"
       y="1036.3619"
       rx="0.5"
       ry="0.5" />
    <rect
       ry="0.5"
       rx="0.5"
       y="1035.3622"
       x="35.000008"
       height="6"
       width="2"
       id="rect3909"
       style="fill:url(#linearGradient3841);fill-opacity:1;stroke:none" />
    <rect
       ry="3"
       rx="3"
       y="964.86218"
       x="9.5000019"
       height="69"
       width="77"
       id="rect3824"
       style="opacity:0.75;fill:url(#radialGradient3865);fill-opacity:1;stroke:#ffffff;stroke-opacity:1" />
    <rect
       style="fill:url(#linearGradient3919);fill-opacity:1;stroke:url(#linearGradient3915);stroke-opacity:1"
       id="rect3863"
       width="79"
       height="68"
       x="8.5"
       y="964.86218"
       rx="3"
       ry="3" />
    <rect
       ry="2"
       rx="2"
       y="965.86218"
       x="9.5"
       height="61"
       width="77"
       id="rect3815"
       style="opacity:0.29999999999999999;fill:none;stroke:url(#linearGradient3899);stroke-opacity:1" />
    <rect
       style="fill:url(#linearGradient3845);fill-opacity:1;stroke:none"
       id="rect3843"
       width="2"
       height="6"
       x="31.000008"
       y="1035.3622"
       rx="0.5"
       ry="0.5" />
    <rect
       ry="0.5"
       rx="0.5"
       y="1035.3622"
       x="27.000008"
       height="6"
       width="2"
       id="rect3847"
       style="fill:url(#linearGradient3849);fill-opacity:1;stroke:none" />
    <rect
       style="fill:url(#linearGradient3853);fill-opacity:1;stroke:none"
       id="rect3851"
       width="2"
       height="6"
       x="23.000008"
       y="1035.3622"
       rx="0.5"
       ry="0.5" />
    <rect
       ry="0.5"
       rx="0.5"
       y="1035.3622"
       x="19.000008"
       height="6"
       width="2"
       id="rect3855"
       style="fill:url(#linearGradient3857);fill-opacity:1;stroke:none" />
    <rect
       style="fill:url(#linearGradient3861);fill-opacity:1;stroke:none"
       id="rect3859"
       width="2"
       height="6"
       x="15.000008"
       y="1035.3622"
       rx="0.5"
       ry="0.5" />
    <path
       style="fill:url(#radialGradient3907);fill-opacity:1;stroke:none"
       d="m 9,68 0,5.4 c 0,1.662 0.838,2.6 2.5,2.6 l 73,0 C 86.162,76 87,75.062 87,73.4 L 87,68 c 0,1.662 -1.338,3 -3,3 L 12,71 C 10.338,71 9,69.662 9,68 z"
       transform="translate(0,956.36218)"
       id="rect3880"
       inkscape:connector-curvature="0"
       sodipodi:nodetypes="csssscssc" />
    <path
       id="path3875"
       d="m 74,1037.3622 0,1 -1,0 0,4 5,0 0,-4 -1,0 0,-1 -3,0 z"
       style="opacity:0.5;fill:#ffffff;fill-opacity:1;stroke:none"
       inkscape:connector-curvature="0" />
    <path
       style="fill:url(#linearGradient3865);fill-opacity:1;stroke:none"
       d="m 74,1036.3622 0,1 -1,0 0,4 5,0 0,-4 -1,0 0,-1 -3,0 z"
       id="rect3854"
       inkscape:connector-curvature="0" />
    <rect
       style="fill:url(#linearGradient3873);fill-opacity:1;stroke:none"
       id="rect3848"
       width="3"
       height="2"
       x="73.999985"
       y="1038.3622" />
    <path
       inkscape:connector-curvature="0"
       style="opacity:0.5;fill:#ffffff;fill-opacity:1;stroke:none"
       d="m 67,1037.3622 0,1 -1,0 0,4 5,0 0,-4 -1,0 0,-1 -3,0 z"
       id="path3090" />
    <path
       inkscape:connector-curvature="0"
       id="path3092"
       d="m 67,1036.3622 0,1 -1,0 0,4 5,0 0,-4 -1,0 0,-1 -3,0 z"
       style="fill:url(#linearGradient3096);fill-opacity:1;stroke:none" />
    <rect
       y="1038.3622"
       x="67.000092"
       height="2"
       width="3"
       id="rect3094"
       style="fill:url(#linearGradient3098);fill-opacity:1;stroke:none" />
    <path
       id="path3100"
       d="m 60,1037.3622 0,1 -1,0 0,4 5,0 0,-4 -1,0 0,-1 -3,0 z"
       style="opacity:0.5;fill:#ffffff;fill-opacity:1;stroke:none"
       inkscape:connector-curvature="0" />
    <path
       style="fill:url(#linearGradient3106);fill-opacity:1;stroke:none"
       d="m 60,1036.3622 0,1 -1,0 0,4 5,0 0,-4 -1,0 0,-1 -3,0 z"
       id="path3102"
       inkscape:connector-curvature="0" />
    <rect
       style="fill:url(#linearGradient3108);fill-opacity:1;stroke:none"
       id="rect3104"
       width="3"
       height="2"
       x="60.000198"
       y="1038.3622" />
    <path
       style="fill:#ffffff;fill-opacity:1;fill-rule:nonzero;stroke:none;opacity:0.3"
       d="m 48,981.36215 c -9.41363,0 -18.817642,3.5242 -26,10.55364 l 6.185262,6.0536 c 10.944546,-10.71164 28.68493,-10.71164 39.629476,0 L 74,991.91579 C 66.817642,984.88635 57.41363,981.36215 48,981.36215 z m 0,13.71424 c -5.827486,0 -11.646408,2.1842 -16.092632,6.53581 l 6.185264,6.0536 c 5.472272,-5.3558 14.342464,-5.3558 19.814736,0 l 6.185264,-6.0536 C 59.646408,997.26059 53.827486,995.07639 48,995.07639 z m 0,13.71441 c -2.241342,0 -4.475178,0.8442 -6.185262,2.5178 L 48,1017.3622 l 6.185262,-6.0536 C 52.475178,1009.635 50.241342,1008.7908 48,1008.7908 z"
       id="path4015"
       inkscape:connector-curvature="0" />
    <path
       inkscape:connector-curvature="0"
       id="path3895"
       d="m 48,980.36215 c -9.41363,0 -18.817642,3.5242 -26,10.55364 l 6.185262,6.0536 c 10.944546,-10.71164 28.68493,-10.71164 39.629476,0 L 74,990.91579 C 66.817642,983.88635 57.41363,980.36215 48,980.36215 z m 0,13.71424 c -5.827486,0 -11.646408,2.1842 -16.092632,6.53581 l 6.185264,6.0536 c 5.472272,-5.3558 14.342464,-5.3558 19.814736,0 l 6.185264,-6.0536 C 59.646408,996.26059 53.827486,994.07639 48,994.07639 z m 0,13.71441 c -2.241342,0 -4.475178,0.8442 -6.185262,2.5178 L 48,1016.3622 l 6.185262,-6.0536 C 52.475178,1008.635 50.241342,1007.7908 48,1007.7908 z"
       style="fill:url(#linearGradient3903);fill-opacity:1;fill-rule:nonzero;stroke:none" />
    <path
       inkscape:connector-curvature="0"
       id="path3905"
       d="m 48,981.36215 c -9.41363,0 -18.817642,3.5242 -26,10.55364 l 6.185262,6.0536 c 10.944546,-10.71164 28.68493,-10.71164 39.629476,0 L 74,991.91579 C 66.817642,984.88635 57.41363,981.36215 48,981.36215 z m 0,13.71424 c -5.827486,0 -11.646408,2.1842 -16.092632,6.53581 l 6.185264,6.0536 c 5.472272,-5.3558 14.342464,-5.3558 19.814736,0 l 6.185264,-6.0536 C 59.646408,997.26059 53.827486,995.07639 48,995.07639 z m 0,13.71441 c -2.241342,0 -4.475178,0.8442 -6.185262,2.5178 L 48,1017.3622 l 6.185262,-6.0536 C 52.475178,1009.635 50.241342,1008.7908 48,1008.7908 z"
       style="fill:#ffffff;fill-opacity:1;fill-rule:nonzero;stroke:none;opacity:0.3" />
    <path
       style="fill:url(#linearGradient3903);fill-opacity:1;fill-rule:nonzero;stroke:none"
       d="m 48,980.36215 c -9.41363,0 -18.817642,3.5242 -26,10.55364 l 6.185262,6.0536 c 10.944546,-10.71164 28.68493,-10.71164 39.629476,0 L 74,990.91579 C 66.817642,983.88635 57.41363,980.36215 48,980.36215 z m 0,13.71424 c -5.827486,0 -11.646408,2.1842 -16.092632,6.53581 l 6.185264,6.0536 c 5.472272,-5.3558 14.342464,-5.3558 19.814736,0 l 6.185264,-6.0536 C 59.646408,996.26059 53.827486,994.07639 48,994.07639 z m 0,13.71441 c -2.241342,0 -4.475178,0.8442 -6.185262,2.5178 L 48,1016.3622 l 6.185262,-6.0536 C 52.475178,1008.635 50.241342,1007.7908 48,1007.7908 z"
       id="path3907"
       inkscape:connector-curvature="0" />
    <path
       style="fill:#000000;fill-opacity:1;fill-rule:nonzero;stroke:none;opacity:0.15"
       d="M 48 24 C 38.58637 24 29.182358 27.53306 22 34.5625 L 22.53125 35.0625 C 29.643272 28.369559 38.814749 25 48 25 C 57.185251 25 66.356728 28.369559 73.46875 35.0625 L 74 34.5625 C 66.817642 27.53306 57.41363 24 48 24 z M 48 37.71875 C 42.172514 37.71875 36.352474 39.89839 31.90625 44.25 L 32.4375 44.75 C 36.809908 40.736026 42.40358 38.71875 48 38.71875 C 53.59642 38.71875 59.190092 40.736026 63.5625 44.75 L 64.09375 44.25 C 59.647526 39.89839 53.827486 37.71875 48 37.71875 z M 48 51.4375 C 45.758658 51.4375 43.522584 52.2639 41.8125 53.9375 L 42.34375 54.46875 C 43.972395 53.112122 45.982932 52.4375 48 52.4375 C 50.017068 52.4375 52.027605 53.112122 53.65625 54.46875 L 54.1875 53.9375 C 52.477416 52.2639 50.241342 51.4375 48 51.4375 z "
       transform="translate(0,956.36218)"
       id="path3918" />
  </g>
</svg>
