<?xml version="1.0" encoding="UTF-8" standalone="no"?>
<!-- Created with Inkscape (http://www.inkscape.org/) -->

<svg
   xmlns:dc="http://purl.org/dc/elements/1.1/"
   xmlns:cc="http://creativecommons.org/ns#"
   xmlns:rdf="http://www.w3.org/1999/02/22-rdf-syntax-ns#"
   xmlns:svg="http://www.w3.org/2000/svg"
   xmlns="http://www.w3.org/2000/svg"
   xmlns:xlink="http://www.w3.org/1999/xlink"
   xmlns:sodipodi="http://sodipodi.sourceforge.net/DTD/sodipodi-0.dtd"
   xmlns:inkscape="http://www.inkscape.org/namespaces/inkscape"
   width="16"
   height="16"
   id="svg2"
   version="1.1"
   inkscape:version="0.48.3.1 r9886"
   sodipodi:docname="user-desktop-symbolic.svg">
  <defs
     id="defs4">
    <linearGradient
       id="linearGradient3771">
      <stop
         style="stop-color:#ffffff;stop-opacity:1;"
         offset="0"
         id="stop3773" />
      <stop
         id="stop3781"
         offset="0.06926757"
         style="stop-color:#ffffff;stop-opacity:0.23529412;" />
      <stop
         id="stop3779"
         offset="0.91711247"
         style="stop-color:#ffffff;stop-opacity:0.15686275;" />
      <stop
         style="stop-color:#ffffff;stop-opacity:0.39215687;"
         offset="1"
         id="stop3775" />
    </linearGradient>
    <linearGradient
       id="linearGradient3751">
      <stop
         style="stop-color:#8cb6f0;stop-opacity:1;"
         offset="0"
         id="stop3753" />
      <stop
         style="stop-color:#1e5a82;stop-opacity:1;"
         offset="1"
         id="stop3755" />
    </linearGradient>
    <linearGradient
       inkscape:collect="always"
       xlink:href="#linearGradient3771"
       id="linearGradient3770"
       x1="8.2062988"
       y1="1037.3827"
       x2="8.2062988"
       y2="1052.274"
       gradientUnits="userSpaceOnUse" />
  </defs>
  <sodipodi:namedview
     id="base"
     pagecolor="#ffffff"
     bordercolor="#666666"
     borderopacity="1.0"
     inkscape:pageopacity="0.0"
     inkscape:pageshadow="2"
     inkscape:zoom="14.03165"
     inkscape:cx="5.6049552"
     inkscape:cy="8.7236538"
     inkscape:document-units="px"
     inkscape:current-layer="layer1"
     showgrid="false"
     inkscape:window-width="1280"
     inkscape:window-height="751"
     inkscape:window-x="0"
     inkscape:window-y="24"
     inkscape:window-maximized="1" />
  <metadata
     id="metadata7">
    <rdf:RDF>
      <cc:Work
         rdf:about="">
        <dc:format>image/svg+xml</dc:format>
        <dc:type
           rdf:resource="http://purl.org/dc/dcmitype/StillImage" />
        <dc:title />
      </cc:Work>
    </rdf:RDF>
  </metadata>
  <g
     inkscape:label="Livello 1"
     inkscape:groupmode="layer"
     id="layer1"
     transform="translate(0,-1036.3622)">
    <path
       style="font-size:medium;font-style:normal;font-variant:normal;font-weight:normal;font-stretch:normal;text-indent:0;text-align:start;text-decoration:none;line-height:normal;letter-spacing:normal;word-spacing:normal;text-transform:none;direction:ltr;block-progression:tb;writing-mode:lr-tb;text-anchor:start;baseline-shift:baseline;color:#000000;fill:#bebebe;fill-opacity:1;stroke:none;stroke-width:1;marker:none;visibility:visible;display:inline;overflow:visible;enable-background:accumulate;font-family:Sans;-inkscape-font-specification:Sans"
       d="m 1.5,1036.3622 c -0.82235138,0 -1.5,0.6776 -1.5,1.5 l 0,13 c 0,0.8224 0.67764862,1.5 1.5,1.5 l 13,0 c 0.822351,0 1.5,-0.6776 1.5,-1.5 l 0,-13 c 0,-0.8224 -0.677649,-1.5 -1.5,-1.5 l -13,0 z m 0,1 13,0 c 0.285649,0 0.5,0.2144 0.5,0.5 l 0,13 c 0,0.2856 -0.214351,0.5 -0.5,0.5 l -13,0 c -0.2856486,0 -0.5,-0.2144 -0.5,-0.5 l 0,-13 c 0,-0.2856 0.2143514,-0.5 0.5,-0.5 z"
       id="rect2985"
       inkscape:connector-curvature="0" />
    <path
       style="opacity:1;fill:#bebebe;fill-opacity:1;fill-rule:nonzero;stroke:none"
       d="m 1.5,1036.3622 13,0 c 0.831,0 1.5,0.669 1.5,1.5 l 0,1.5 -16,0 0,-1.5 c 0,-0.831 0.669,-1.5 1.5,-1.5 z"
       id="rect3772"
       inkscape:connector-curvature="0"
       sodipodi:nodetypes="sssccss" />
    <path
       style="opacity:1;fill:#bebebe;fill-opacity:1;fill-rule:nonzero;stroke:none"
       d="m 3.9999999,1048.3624 8.0000001,0 c 0.554,0 1,0.446 1,1 l 0,2.9998 -10,0 0,-2.9998 c 0,-0.554 0.446,-1 1,-1 z"
       id="rect3778"
       inkscape:connector-curvature="0"
       sodipodi:nodetypes="sssccss" />
  </g>
</svg>
