<?xml version="1.0" encoding="UTF-8" standalone="no"?>
<!-- Created with Inkscape (http://www.inkscape.org/) -->

<svg
   xmlns:dc="http://purl.org/dc/elements/1.1/"
   xmlns:cc="http://creativecommons.org/ns#"
   xmlns:rdf="http://www.w3.org/1999/02/22-rdf-syntax-ns#"
   xmlns:svg="http://www.w3.org/2000/svg"
   xmlns="http://www.w3.org/2000/svg"
   xmlns:xlink="http://www.w3.org/1999/xlink"
   xmlns:sodipodi="http://sodipodi.sourceforge.net/DTD/sodipodi-0.dtd"
   xmlns:inkscape="http://www.inkscape.org/namespaces/inkscape"
   width="48"
   height="48"
   id="svg3147"
   version="1.1"
   inkscape:version="0.48.3.1 r9886"
   sodipodi:docname="config-users.svg">
  <defs
     id="defs3149">
    <linearGradient
       id="linearGradient3791">
      <stop
         style="stop-color:#66b437;stop-opacity:1;"
         offset="0"
         id="stop3793" />
      <stop
         style="stop-color:#0e7027;stop-opacity:1;"
         offset="1"
         id="stop3795" />
    </linearGradient>
    <linearGradient
       id="linearGradient3783">
      <stop
         style="stop-color:#d8f56a;stop-opacity:1;"
         offset="0"
         id="stop3785" />
      <stop
         style="stop-color:#31a11f;stop-opacity:1;"
         offset="1"
         id="stop3787" />
    </linearGradient>
    <linearGradient
       id="linearGradient4536">
      <stop
         style="stop-color:#ffffff;stop-opacity:1;"
         offset="0"
         id="stop4538" />
      <stop
         id="stop4546"
         offset="0.04410084"
         style="stop-color:#ffffff;stop-opacity:0.15686275;" />
      <stop
         id="stop4544"
         offset="0.96063954"
         style="stop-color:#ffffff;stop-opacity:0.23529412;" />
      <stop
         style="stop-color:#ffffff;stop-opacity:0.39215687;"
         offset="1"
         id="stop4540" />
    </linearGradient>
    <radialGradient
       inkscape:collect="always"
       xlink:href="#linearGradient3688-166-749"
       id="radialGradient3132"
       gradientUnits="userSpaceOnUse"
       gradientTransform="matrix(2.003784,0,0,1.4,27.98813,-17.4)"
       cx="4.9929786"
       cy="43.5"
       fx="4.9929786"
       fy="43.5"
       r="2.5" />
    <linearGradient
       id="linearGradient3688-166-749">
      <stop
         id="stop2883"
         style="stop-color:#181818;stop-opacity:1"
         offset="0" />
      <stop
         id="stop2885"
         style="stop-color:#181818;stop-opacity:0"
         offset="1" />
    </linearGradient>
    <radialGradient
       inkscape:collect="always"
       xlink:href="#linearGradient3688-464-309"
       id="radialGradient3134"
       gradientUnits="userSpaceOnUse"
       gradientTransform="matrix(2.003784,0,0,1.4,-20.01187,-104.4)"
       cx="4.9929786"
       cy="43.5"
       fx="4.9929786"
       fy="43.5"
       r="2.5" />
    <linearGradient
       id="linearGradient3688-464-309">
      <stop
         id="stop2889"
         style="stop-color:#181818;stop-opacity:1"
         offset="0" />
      <stop
         id="stop2891"
         style="stop-color:#181818;stop-opacity:0"
         offset="1" />
    </linearGradient>
    <linearGradient
       inkscape:collect="always"
       xlink:href="#linearGradient3702-501-757"
       id="linearGradient3136"
       gradientUnits="userSpaceOnUse"
       x1="25.058096"
       y1="47.027729"
       x2="25.058096"
       y2="39.999443" />
    <linearGradient
       id="linearGradient3702-501-757">
      <stop
         id="stop2895"
         style="stop-color:#181818;stop-opacity:0"
         offset="0" />
      <stop
         id="stop2897"
         style="stop-color:#181818;stop-opacity:1"
         offset="0.5" />
      <stop
         id="stop2899"
         style="stop-color:#181818;stop-opacity:0"
         offset="1" />
    </linearGradient>
    <linearGradient
       inkscape:collect="always"
       xlink:href="#linearGradient4536"
       id="linearGradient4542"
       x1="23.522522"
       y1="1010.4793"
       x2="23.522522"
       y2="1048.1082"
       gradientUnits="userSpaceOnUse" />
    <radialGradient
       inkscape:collect="always"
       xlink:href="#linearGradient3783"
       id="radialGradient3789"
       cx="23.855856"
       cy="1016.3892"
       fx="23.855856"
       fy="1016.3892"
       r="20"
       gradientUnits="userSpaceOnUse"
       gradientTransform="matrix(4.0319247e-7,1.7984121,-1.4757461,3.3085282e-7,1523.7883,973.48622)" />
    <linearGradient
       inkscape:collect="always"
       xlink:href="#linearGradient3791"
       id="linearGradient3797"
       x1="10.774775"
       y1="1009.4703"
       x2="10.774775"
       y2="1048.8232"
       gradientUnits="userSpaceOnUse" />
  </defs>
  <sodipodi:namedview
     id="base"
     pagecolor="#ffffff"
     bordercolor="#666666"
     borderopacity="1.0"
     inkscape:pageopacity="0.0"
     inkscape:pageshadow="2"
     inkscape:zoom="6.9375"
     inkscape:cx="26.226479"
     inkscape:cy="9.3344762"
     inkscape:document-units="px"
     inkscape:current-layer="layer1"
     showgrid="false"
     inkscape:window-width="1280"
     inkscape:window-height="751"
     inkscape:window-x="0"
     inkscape:window-y="24"
     inkscape:window-maximized="1" />
  <metadata
     id="metadata3152">
    <rdf:RDF>
      <cc:Work
         rdf:about="">
        <dc:format>image/svg+xml</dc:format>
        <dc:type
           rdf:resource="http://purl.org/dc/dcmitype/StillImage" />
        <dc:title></dc:title>
      </cc:Work>
    </rdf:RDF>
  </metadata>
  <g
     inkscape:label="Livello 1"
     inkscape:groupmode="layer"
     id="layer1"
     transform="translate(0,-1004.3622)">
    <g
       style="display:inline"
       id="g2036"
       transform="matrix(1.1,0,0,0.4444449,-2.4000022,1029.4733)">
      <g
         style="opacity:0.4"
         id="g3712"
         transform="matrix(1.052632,0,0,1.285713,-1.263158,-13.42854)">
        <rect
           style="fill:url(#radialGradient3132);fill-opacity:1;stroke:none"
           id="rect2801"
           y="40"
           x="38"
           height="7"
           width="5" />
        <rect
           style="fill:url(#radialGradient3134);fill-opacity:1;stroke:none"
           id="rect3696"
           transform="scale(-1,-1)"
           y="-47"
           x="-10"
           height="7"
           width="5" />
        <rect
           style="fill:url(#linearGradient3136);fill-opacity:1;stroke:none"
           id="rect3700"
           y="40"
           x="10"
           height="7.0000005"
           width="28" />
      </g>
    </g>
    <rect
       style="fill:url(#radialGradient3789);fill-opacity:1;stroke:url(#linearGradient3797);stroke-opacity:1"
       id="rect3163"
       width="39"
       height="39"
       x="4.5"
       y="1009.8622"
       rx="2"
       ry="2" />
    <rect
       style="fill:none;fill-opacity:1;stroke:url(#linearGradient4542);stroke-opacity:1;opacity:0.5"
       id="rect4534"
       width="37"
       height="37"
       x="5.5"
       y="1010.8622"
       rx="1"
       ry="1" />
    <path
       sodipodi:nodetypes="cccssscccssccccccsscccsssccc"
       inkscape:connector-curvature="0"
       id="path3799"
       d="m 23.975045,1019.3622 c -2.619843,0 -4.750005,2.0177 -4.750005,4.5175 -0.0357,0.4221 -0.03899,0.8443 -0.02504,1.2524 -0.2216,0 -0.8,0.1751 -0.8,0.393 l 0,2.357 c 0,0.2177 0.5784,0.393 0.8,0.393 l 0.275002,0 c 0.402162,1.6569 1.277575,3.0202 2.424998,3.7813 -0.09946,0.1236 -0.196856,0.2495 -0.3,0.3686 l -0.8,0 c -0.4432,0 -0.8,0.3505 -0.8,0.785 l 0,0.7371 c -1.121616,0.8659 -2.43946,1.5103 -4,1.9151 l 0,5.5 16,0 0,-5.5 c -1.487833,-0.4478 -2.812504,-1.1776 -4,-2.136 l 0,-0.5162 c 0,-0.4345 -0.3568,-0.785 -0.8,-0.785 l -0.575003,0 c -0.125811,-0.1364 -0.252985,-0.2746 -0.374992,-0.4174 1.106502,-0.7683 1.917647,-2.1072 2.29999,-3.7325 l 0.250005,0 c 0.2216,0 0.8,-0.1753 0.8,-0.393 l 0,-2.357 c 0,-0.2179 -0.5784,-0.393 -0.8,-0.393 -0.0047,-0.3408 -0.03786,-0.7121 -0.100015,-1.1292 0,-3.3515 -2.599453,-4.5788 -4.724998,-4.6407 z"
       style="fill:#ffffff;fill-opacity:1;fill-rule:nonzero;stroke:none;opacity:0.4" />
    <path
       sodipodi:nodetypes="cccssscccssccccccsscccsssccc"
       inkscape:connector-curvature="0"
       id="path3811"
       d="m 34.981285,1023.3622 c -1.964883,0 -3.562504,1.5593 -3.562504,3.4906 -0.02678,0.3266 -0.02924,0.6528 -0.01878,0.9678 -0.1662,0 -0.6,0.1354 -0.6,0.3038 l 0,1.8212 c 0,0.1683 0.4338,0.3038 0.6,0.3038 l 0.206251,0 c 0.301622,1.2802 0.958183,2.3336 1.818749,2.922 -0.0746,0.098 -0.147641,0.1926 -0.225,0.2849 l -0.6,0 c -0.3324,0 -0.6,0.2709 -0.6,0.6063 l 0,0.5698 c -0.841212,0.6689 -1.829595,1.1672 -3,1.4798 l 0,4.25 11.999999,0 0,-4.25 c -1.115875,-0.3458 -2.109377,-0.9102 -3,-1.6505 l 0,-0.3991 c 0,-0.3354 -0.2676,-0.6063 -0.6,-0.6063 l -0.431252,0 c -0.09436,-0.1053 -0.189739,-0.2124 -0.281243,-0.3225 0.829875,-0.5938 1.438235,-1.6284 1.724991,-2.8844 l 0.187504,0 c 0.1662,0 0.6,-0.1355 0.6,-0.3038 l 0,-1.8212 c 0,-0.1684 -0.4338,-0.3038 -0.6,-0.3038 -0.0035,-0.2631 -0.02839,-0.55 -0.07501,-0.8724 0,-2.5896 -1.949591,-3.5381 -3.543749,-3.586 z"
       style="fill:#ffffff;fill-opacity:1;fill-rule:nonzero;stroke:none;opacity:0.2" />
    <path
       style="fill:#4d9f37;fill-opacity:1;fill-rule:nonzero;stroke:none"
       d="m 34.981285,1022.3622 c -1.964883,0 -3.562504,1.5593 -3.562504,3.4906 -0.02678,0.3266 -0.02924,0.6528 -0.01878,0.9678 -0.1662,0 -0.6,0.1354 -0.6,0.3038 l 0,1.8212 c 0,0.1683 0.4338,0.3038 0.6,0.3038 l 0.206251,0 c 0.301622,1.2802 0.958183,2.3336 1.818749,2.922 -0.0746,0.098 -0.147641,0.1926 -0.225,0.2849 l -0.6,0 c -0.3324,0 -0.6,0.2709 -0.6,0.6063 l 0,0.5698 c -0.841212,0.6689 -1.829595,1.1672 -3,1.4798 l 0,4.25 11.999999,0 0,-4.25 c -1.115875,-0.3458 -2.109377,-0.9102 -3,-1.6505 l 0,-0.3991 c 0,-0.3354 -0.2676,-0.6063 -0.6,-0.6063 l -0.431252,0 c -0.09436,-0.1053 -0.189739,-0.2124 -0.281243,-0.3225 0.829875,-0.5938 1.438235,-1.6284 1.724991,-2.8844 l 0.187504,0 c 0.1662,0 0.6,-0.1355 0.6,-0.3038 l 0,-1.8212 c 0,-0.1684 -0.4338,-0.3038 -0.6,-0.3038 -0.0035,-0.2631 -0.02839,-0.55 -0.07501,-0.8724 0,-2.5896 -1.949591,-3.5381 -3.543749,-3.586 z"
       id="path3790"
       inkscape:connector-curvature="0"
       sodipodi:nodetypes="cccssscccssccccccsscccsssccc" />
    <path
       style="fill:#ffffff;fill-opacity:1;fill-rule:nonzero;stroke:none;opacity:0.2"
       d="m 12.981285,1023.3622 c -1.964883,0 -3.562504,1.5593 -3.562504,3.4906 -0.02678,0.3266 -0.02924,0.6528 -0.018781,0.9678 -0.1662,0 -0.6,0.1354 -0.6,0.3038 l 0,1.8212 c 0,0.1683 0.4338,0.3038 0.6,0.3038 l 0.206251,0 c 0.301622,1.2802 0.958183,2.3336 1.818749,2.922 -0.0746,0.098 -0.147641,0.1926 -0.225,0.2849 l -0.6,0 c -0.3324,0 -0.6,0.2709 -0.6,0.6063 l 0,0.5698 c -0.841212,0.6689 -1.829595,1.1672 -3,1.4798 l 0,4.25 11.999999,0 0,-4.25 C 17.884125,1035.7664 16.890623,1035.202 16,1034.4617 l 0,-0.3991 c 0,-0.3354 -0.2676,-0.6063 -0.6,-0.6063 l -0.431252,0 c -0.09436,-0.1053 -0.189739,-0.2124 -0.281243,-0.3225 0.829875,-0.5938 1.438235,-1.6284 1.724991,-2.8844 l 0.187504,0 c 0.1662,0 0.6,-0.1355 0.6,-0.3038 l 0,-1.8212 c 0,-0.1684 -0.4338,-0.3038 -0.6,-0.3038 -0.0035,-0.2631 -0.02839,-0.55 -0.07501,-0.8724 0,-2.5896 -1.949591,-3.5381 -3.543749,-3.586 z"
       id="path3813"
       inkscape:connector-curvature="0"
       sodipodi:nodetypes="cccssscccssccccccsscccsssccc" />
    <path
       sodipodi:nodetypes="cccssscccssccccccsscccsssccc"
       inkscape:connector-curvature="0"
       id="path3788"
       d="m 12.981285,1022.3622 c -1.964883,0 -3.562504,1.5593 -3.562504,3.4906 -0.02678,0.3266 -0.02924,0.6528 -0.018781,0.9678 -0.1662,0 -0.6,0.1354 -0.6,0.3038 l 0,1.8212 c 0,0.1683 0.4338,0.3038 0.6,0.3038 l 0.206251,0 c 0.301622,1.2802 0.958183,2.3336 1.818749,2.922 -0.0746,0.098 -0.147641,0.1926 -0.225,0.2849 l -0.6,0 c -0.3324,0 -0.6,0.2709 -0.6,0.6063 l 0,0.5698 c -0.841212,0.6689 -1.829595,1.1672 -3,1.4798 l 0,4.25 11.999999,0 0,-4.25 C 17.884125,1034.7664 16.890623,1034.202 16,1033.4617 l 0,-0.3991 c 0,-0.3354 -0.2676,-0.6063 -0.6,-0.6063 l -0.431252,0 c -0.09436,-0.1053 -0.189739,-0.2124 -0.281243,-0.3225 0.829875,-0.5938 1.438235,-1.6284 1.724991,-2.8844 l 0.187504,0 c 0.1662,0 0.6,-0.1355 0.6,-0.3038 l 0,-1.8212 c 0,-0.1684 -0.4338,-0.3038 -0.6,-0.3038 -0.0035,-0.2631 -0.02839,-0.55 -0.07501,-0.8724 0,-2.5896 -1.949591,-3.5381 -3.543749,-3.586 z"
       style="fill:#4d9f37;fill-opacity:1;fill-rule:nonzero;stroke:none" />
    <path
       style="fill:#000000;fill-opacity:1;fill-rule:nonzero;stroke:none;opacity:0.2"
       d="M 34.96875 18 C 33.003867 18 31.40625 19.5687 31.40625 21.5 C 31.37947 21.8266 31.39579 22.15375 31.40625 22.46875 C 31.423199 20.551759 33.014367 19 34.96875 19 C 36.562908 19.0479 38.53125 20.00415 38.53125 22.59375 C 38.57787 22.91615 38.59025 23.20565 38.59375 23.46875 C 38.75995 23.46875 39.1875 23.5816 39.1875 23.75 L 39.1875 22.75 C 39.1875 22.5816 38.75995 22.46875 38.59375 22.46875 C 38.59025 22.20565 38.57787 21.91615 38.53125 21.59375 C 38.53125 19.00415 36.562908 18.0479 34.96875 18 z M 31.40625 22.46875 C 31.24005 22.46875 30.8125 22.5816 30.8125 22.75 L 30.8125 23.75 C 30.8125 23.5816 31.24005 23.46875 31.40625 23.46875 C 31.39579 23.15375 31.37947 22.8266 31.40625 22.5 C 31.40625 22.489679 31.406159 22.479049 31.40625 22.46875 z M 32.59375 28.09375 C 32.26135 28.09375 32 28.3521 32 28.6875 L 32 29.28125 C 31.158788 29.95015 30.170405 30.4374 29 30.75 L 29 31.75 C 30.170405 31.4374 31.158788 30.95015 32 30.28125 L 32 29.6875 C 32 29.3521 32.26135 29.09375 32.59375 29.09375 L 33.1875 29.09375 C 33.264859 29.00145 33.3629 28.9105 33.4375 28.8125 C 33.165375 28.626438 32.914054 28.365273 32.6875 28.09375 L 32.59375 28.09375 z M 37.375 28.09375 C 37.166125 28.350275 36.940325 28.600346 36.6875 28.78125 C 36.779004 28.89135 36.87439 28.98845 36.96875 29.09375 L 37.40625 29.09375 C 37.73865 29.09375 38 29.3521 38 29.6875 L 38 30.09375 C 38.890623 30.83405 39.884125 31.4042 41 31.75 L 41 30.75 C 39.884125 30.4042 38.890623 29.83405 38 29.09375 L 38 28.6875 C 38 28.3521 37.73865 28.09375 37.40625 28.09375 C 37.402638 28.098224 37.378626 28.089296 37.375 28.09375 z "
       transform="translate(0,1004.3622)"
       id="path3819" />
    <path
       style="fill:#000000;fill-opacity:1;fill-rule:nonzero;stroke:none;opacity:0.2"
       d="M 12.96875 18 C 11.003867 18 9.40625 19.5687 9.40625 21.5 C 9.37947 21.8266 9.395791 22.15375 9.40625 22.46875 C 9.4231988 20.551759 11.014367 19 12.96875 19 C 14.562908 19.0479 16.53125 20.00415 16.53125 22.59375 C 16.57787 22.91615 16.59025 23.20565 16.59375 23.46875 C 16.75995 23.46875 17.1875 23.5816 17.1875 23.75 L 17.1875 22.75 C 17.1875 22.5816 16.75995 22.46875 16.59375 22.46875 C 16.59025 22.20565 16.57787 21.91615 16.53125 21.59375 C 16.53125 19.00415 14.562908 18.0479 12.96875 18 z M 9.40625 22.46875 C 9.24005 22.46875 8.8125 22.5816 8.8125 22.75 L 8.8125 23.75 C 8.8125 23.5816 9.24005 23.46875 9.40625 23.46875 C 9.395791 23.15375 9.37947 22.8266 9.40625 22.5 C 9.40625 22.489679 9.4061589 22.479049 9.40625 22.46875 z M 10.59375 28.09375 C 10.26135 28.09375 10 28.3521 10 28.6875 L 10 29.28125 C 9.158788 29.95015 8.170405 30.4374 7 30.75 L 7 31.75 C 8.170405 31.4374 9.158788 30.95015 10 30.28125 L 10 29.6875 C 10 29.3521 10.26135 29.09375 10.59375 29.09375 L 11.1875 29.09375 C 11.264859 29.00145 11.3629 28.9105 11.4375 28.8125 C 11.165375 28.626438 10.914054 28.365273 10.6875 28.09375 L 10.59375 28.09375 z M 15.375 28.09375 C 15.166125 28.350275 14.940325 28.600346 14.6875 28.78125 C 14.779004 28.89135 14.87439 28.98845 14.96875 29.09375 L 15.40625 29.09375 C 15.73865 29.09375 16 29.3521 16 29.6875 L 16 30.09375 C 16.890623 30.83405 17.884126 31.4042 19 31.75 L 19 30.75 C 17.884126 30.4042 16.890623 29.83405 16 29.09375 L 16 28.6875 C 16 28.3521 15.73865 28.09375 15.40625 28.09375 C 15.402638 28.098224 15.378626 28.089296 15.375 28.09375 z "
       transform="translate(0,1004.3622)"
       id="path3822" />
    <path
       style="fill:#0f7027;fill-opacity:1;fill-rule:nonzero;stroke:none"
       d="m 23.975045,1018.3622 c -2.619843,0 -4.750005,2.0177 -4.750005,4.5175 -0.0357,0.4221 -0.03899,0.8443 -0.02504,1.2524 -0.2216,0 -0.8,0.1751 -0.8,0.393 l 0,2.357 c 0,0.2177 0.5784,0.393 0.8,0.393 l 0.275002,0 c 0.402162,1.6569 1.277575,3.0202 2.424998,3.7813 -0.09946,0.1236 -0.196856,0.2495 -0.3,0.3686 l -0.8,0 c -0.4432,0 -0.8,0.3505 -0.8,0.785 l 0,0.7371 c -1.121616,0.8659 -2.43946,1.5103 -4,1.9151 l 0,5.5 16,0 0,-5.5 c -1.487833,-0.4478 -2.812504,-1.1776 -4,-2.136 l 0,-0.5162 c 0,-0.4345 -0.3568,-0.785 -0.8,-0.785 l -0.575003,0 c -0.125811,-0.1364 -0.252985,-0.2746 -0.374992,-0.4174 1.106502,-0.7683 1.917647,-2.1072 2.29999,-3.7325 l 0.250005,0 c 0.2216,0 0.8,-0.1753 0.8,-0.393 l 0,-2.357 c 0,-0.2179 -0.5784,-0.393 -0.8,-0.393 -0.0047,-0.3408 -0.03786,-0.7121 -0.100015,-1.1292 0,-3.3515 -2.599453,-4.5788 -4.724998,-4.6407 z"
       id="path3290"
       inkscape:connector-curvature="0"
       sodipodi:nodetypes="cccssscccssccccccsscccsssccc" />
    <path
       style="fill:#000000;fill-opacity:1;fill-rule:nonzero;stroke:none;opacity:0.3"
       d="M 23.96875 14 C 21.348907 14 19.21875 16.03145 19.21875 18.53125 C 19.18305 18.95335 19.17355 19.37315 19.1875 19.78125 C 18.9659 19.78125 18.40625 19.93835 18.40625 20.15625 L 18.40625 21.15625 C 18.40625 20.93835 18.9659 20.78125 19.1875 20.78125 C 19.17355 20.37315 19.18305 19.95335 19.21875 19.53125 C 19.21875 17.03145 21.348907 15 23.96875 15 C 26.094295 15.0619 28.6875 16.30475 28.6875 19.65625 C 28.749655 20.07335 28.8078 20.44045 28.8125 20.78125 C 29.0341 20.78125 29.59375 20.93835 29.59375 21.15625 L 29.59375 20.15625 C 29.59375 19.93835 29.0341 19.78125 28.8125 19.78125 C 28.8078 19.44045 28.749655 19.07335 28.6875 18.65625 C 28.6875 15.30475 26.094295 14.0619 23.96875 14 z M 20.8125 27.0625 C 20.3693 27.0625 20 27.40925 20 27.84375 L 20 28.59375 C 18.878384 29.45965 17.56054 30.0952 16 30.5 L 16 31.5 C 17.56054 31.0952 18.878384 30.45965 20 29.59375 L 20 28.84375 C 20 28.40925 20.3693 28.0625 20.8125 28.0625 L 21.59375 28.0625 C 21.696894 27.9434 21.80679 27.8111 21.90625 27.6875 C 21.643299 27.513081 21.388209 27.296457 21.15625 27.0625 L 20.8125 27.0625 z M 26.9375 27.0625 C 26.725116 27.282199 26.492047 27.488184 26.25 27.65625 C 26.372007 27.79905 26.499189 27.9261 26.625 28.0625 L 27.1875 28.0625 C 27.6307 28.0625 28 28.40925 28 28.84375 L 28 29.375 C 29.187496 30.3334 30.512167 31.0522 32 31.5 L 32 30.5 C 30.512167 30.0522 29.187496 29.3334 28 28.375 L 28 27.84375 C 28 27.40925 27.6307 27.0625 27.1875 27.0625 L 26.9375 27.0625 z "
       transform="translate(0,1004.3622)"
       id="path3803" />
  </g>
</svg>
