<?xml version="1.0" encoding="UTF-8" standalone="no"?>
<!-- Created with Inkscape (http://www.inkscape.org/) -->

<svg
   xmlns:dc="http://purl.org/dc/elements/1.1/"
   xmlns:cc="http://creativecommons.org/ns#"
   xmlns:rdf="http://www.w3.org/1999/02/22-rdf-syntax-ns#"
   xmlns:svg="http://www.w3.org/2000/svg"
   xmlns="http://www.w3.org/2000/svg"
   xmlns:xlink="http://www.w3.org/1999/xlink"
   xmlns:sodipodi="http://sodipodi.sourceforge.net/DTD/sodipodi-0.dtd"
   xmlns:inkscape="http://www.inkscape.org/namespaces/inkscape"
   width="48"
   height="48"
   id="svg3147"
   version="1.1"
   inkscape:version="0.48.3.1 r9886"
   sodipodi:docname="eog.svg">
  <defs
     id="defs3149">
    <linearGradient
       id="linearGradient4215">
      <stop
         style="stop-color:#000000;stop-opacity:1;"
         offset="0"
         id="stop4217" />
      <stop
         id="stop4225"
         offset="0.12591358"
         style="stop-color:#000000;stop-opacity:0;" />
      <stop
         id="stop4223"
         offset="0.86496007"
         style="stop-color:#000000;stop-opacity:0;" />
      <stop
         style="stop-color:#000000;stop-opacity:1;"
         offset="1"
         id="stop4219" />
    </linearGradient>
    <linearGradient
       id="linearGradient4193">
      <stop
         style="stop-color:#ffe17a;stop-opacity:1;"
         offset="0"
         id="stop4195" />
      <stop
         id="stop4201"
         offset="0.5"
         style="stop-color:#ffffc8;stop-opacity:1;" />
      <stop
         style="stop-color:#ffe17a;stop-opacity:1;"
         offset="1"
         id="stop4197" />
    </linearGradient>
    <linearGradient
       id="linearGradient3805">
      <stop
         id="stop3807"
         offset="0"
         style="stop-color:#b16000;stop-opacity:1;" />
      <stop
         id="stop3809"
         offset="1"
         style="stop-color:#7d2f00;stop-opacity:1;" />
    </linearGradient>
    <linearGradient
       id="linearGradient3797">
      <stop
         id="stop3799"
         offset="0"
         style="stop-color:#690e00;stop-opacity:1;" />
      <stop
         id="stop3801"
         offset="1"
         style="stop-color:#8f3220;stop-opacity:1;" />
    </linearGradient>
    <linearGradient
       id="linearGradient3786">
      <stop
         style="stop-color:#cd7220;stop-opacity:1;"
         offset="0"
         id="stop3788" />
      <stop
         style="stop-color:#d39936;stop-opacity:1;"
         offset="1"
         id="stop3790" />
    </linearGradient>
    <linearGradient
       id="linearGradient3776">
      <stop
         style="stop-color:#e5d554;stop-opacity:1;"
         offset="0"
         id="stop3778" />
      <stop
         style="stop-color:#e19332;stop-opacity:1;"
         offset="1"
         id="stop3780" />
    </linearGradient>
    <linearGradient
       id="linearGradient4536">
      <stop
         style="stop-color:#ffffff;stop-opacity:1;"
         offset="0"
         id="stop4538" />
      <stop
         id="stop4546"
         offset="0.04410084"
         style="stop-color:#ffffff;stop-opacity:0.15686275;" />
      <stop
         id="stop4544"
         offset="0.96063954"
         style="stop-color:#ffffff;stop-opacity:0.23529412;" />
      <stop
         style="stop-color:#ffffff;stop-opacity:0.39215687;"
         offset="1"
         id="stop4540" />
    </linearGradient>
    <radialGradient
       inkscape:collect="always"
       xlink:href="#linearGradient3688-166-749"
       id="radialGradient3132"
       gradientUnits="userSpaceOnUse"
       gradientTransform="matrix(2.003784,0,0,1.4,27.98813,-17.4)"
       cx="4.9929786"
       cy="43.5"
       fx="4.9929786"
       fy="43.5"
       r="2.5" />
    <linearGradient
       id="linearGradient3688-166-749">
      <stop
         id="stop2883"
         style="stop-color:#181818;stop-opacity:1"
         offset="0" />
      <stop
         id="stop2885"
         style="stop-color:#181818;stop-opacity:0"
         offset="1" />
    </linearGradient>
    <radialGradient
       inkscape:collect="always"
       xlink:href="#linearGradient3688-464-309"
       id="radialGradient3134"
       gradientUnits="userSpaceOnUse"
       gradientTransform="matrix(2.003784,0,0,1.4,-20.01187,-104.4)"
       cx="4.9929786"
       cy="43.5"
       fx="4.9929786"
       fy="43.5"
       r="2.5" />
    <linearGradient
       id="linearGradient3688-464-309">
      <stop
         id="stop2889"
         style="stop-color:#181818;stop-opacity:1"
         offset="0" />
      <stop
         id="stop2891"
         style="stop-color:#181818;stop-opacity:0"
         offset="1" />
    </linearGradient>
    <linearGradient
       inkscape:collect="always"
       xlink:href="#linearGradient3702-501-757"
       id="linearGradient3136"
       gradientUnits="userSpaceOnUse"
       x1="25.058096"
       y1="47.027729"
       x2="25.058096"
       y2="39.999443" />
    <linearGradient
       id="linearGradient3702-501-757">
      <stop
         id="stop2895"
         style="stop-color:#181818;stop-opacity:0"
         offset="0" />
      <stop
         id="stop2897"
         style="stop-color:#181818;stop-opacity:1"
         offset="0.5" />
      <stop
         id="stop2899"
         style="stop-color:#181818;stop-opacity:0"
         offset="1" />
    </linearGradient>
    <linearGradient
       inkscape:collect="always"
       xlink:href="#linearGradient4536"
       id="linearGradient4542"
       x1="23.522522"
       y1="1010.4793"
       x2="23.522522"
       y2="1048.1082"
       gradientUnits="userSpaceOnUse" />
    <radialGradient
       inkscape:collect="always"
       xlink:href="#linearGradient3776"
       id="radialGradient3784"
       cx="24.288286"
       cy="1014.8036"
       fx="24.288286"
       fy="1014.8036"
       r="20"
       gradientUnits="userSpaceOnUse"
       gradientTransform="matrix(2.5857074e-6,2.0929656,-1.4180913,1.7519491e-6,1463.3723,963.96726)" />
    <linearGradient
       inkscape:collect="always"
       xlink:href="#linearGradient3786"
       id="linearGradient3792"
       x1="16.18018"
       y1="1048.5575"
       x2="16.18018"
       y2="1009.7586"
       gradientUnits="userSpaceOnUse" />
    <linearGradient
       inkscape:collect="always"
       xlink:href="#linearGradient3797"
       id="linearGradient3803"
       gradientUnits="userSpaceOnUse"
       x1="16.18018"
       y1="1048.5575"
       x2="16.18018"
       y2="1009.7586" />
    <radialGradient
       inkscape:collect="always"
       xlink:href="#linearGradient3805"
       id="radialGradient3811"
       gradientUnits="userSpaceOnUse"
       gradientTransform="matrix(0,2.0929656,-0.62679187,0,652.63732,963.96905)"
       cx="24.28828"
       cy="1024.5616"
       fx="24.28828"
       fy="1024.5616"
       r="20" />
    <linearGradient
       inkscape:collect="always"
       xlink:href="#linearGradient4193"
       id="linearGradient4199"
       x1="9"
       y1="1029.3622"
       x2="11"
       y2="1029.3622"
       gradientUnits="userSpaceOnUse" />
    <linearGradient
       inkscape:collect="always"
       xlink:href="#linearGradient4215"
       id="linearGradient4221"
       x1="10.121179"
       y1="1015.5004"
       x2="10.121179"
       y2="1043.4282"
       gradientUnits="userSpaceOnUse" />
    <linearGradient
       inkscape:collect="always"
       xlink:href="#linearGradient3805"
       id="linearGradient4288"
       gradientUnits="userSpaceOnUse"
       x1="28.955368"
       y1="1009.4442"
       x2="28.955368"
       y2="1048.8469"
       gradientTransform="translate(0,-0.5)" />
    <linearGradient
       inkscape:collect="always"
       xlink:href="#linearGradient3805"
       id="linearGradient4297"
       gradientUnits="userSpaceOnUse"
       x1="28.955368"
       y1="1009.4442"
       x2="28.955368"
       y2="1048.8469" />
    <linearGradient
       inkscape:collect="always"
       xlink:href="#linearGradient3805"
       id="linearGradient4301"
       gradientUnits="userSpaceOnUse"
       gradientTransform="translate(0,-1004.8622)"
       x1="28.955368"
       y1="1009.4442"
       x2="28.955368"
       y2="1048.8469" />
    <radialGradient
       inkscape:collect="always"
       xlink:href="#linearGradient3805"
       id="radialGradient3821"
       gradientUnits="userSpaceOnUse"
       gradientTransform="matrix(8.846729e-7,0.43649273,-0.50717295,1.0279259e-6,548.58976,1001.3903)"
       cx="22.591532"
       cy="1004.2421"
       fx="22.591532"
       fy="1004.2421"
       r="20" />
    <linearGradient
       inkscape:collect="always"
       xlink:href="#linearGradient3797"
       id="linearGradient3823"
       gradientUnits="userSpaceOnUse"
       x1="16.18018"
       y1="1048.5575"
       x2="16.18018"
       y2="1009.7586" />
    <radialGradient
       inkscape:collect="always"
       xlink:href="#linearGradient3805"
       id="radialGradient3830"
       gradientUnits="userSpaceOnUse"
       gradientTransform="matrix(0.24746963,-1.8355424e-8,-2.1298839e-8,-0.28715305,31.455142,1331.3888)"
       cx="32.49612"
       cy="1003.7855"
       fx="32.49612"
       fy="1003.7855"
       r="20" />
    <linearGradient
       inkscape:collect="always"
       xlink:href="#linearGradient3797"
       id="linearGradient3832"
       gradientUnits="userSpaceOnUse"
       x1="32.238079"
       y1="991.11853"
       x2="32.238079"
       y2="1034.2085"
       gradientTransform="matrix(1,0,0,-1,0,2058.7244)" />
    <linearGradient
       inkscape:collect="always"
       xlink:href="#linearGradient4536"
       id="linearGradient3836"
       gradientUnits="userSpaceOnUse"
       x1="34.330723"
       y1="1048.4624"
       x2="34.330723"
       y2="1010.587"
       gradientTransform="matrix(1,0,0,-1,0,2058.7244)" />
  </defs>
  <sodipodi:namedview
     id="base"
     pagecolor="#ffffff"
     bordercolor="#666666"
     borderopacity="1.0"
     inkscape:pageopacity="0.0"
     inkscape:pageshadow="2"
     inkscape:zoom="6.4765625"
     inkscape:cx="26.46756"
     inkscape:cy="15.191923"
     inkscape:document-units="px"
     inkscape:current-layer="layer1"
     showgrid="false"
     inkscape:window-width="1280"
     inkscape:window-height="751"
     inkscape:window-x="0"
     inkscape:window-y="24"
     inkscape:window-maximized="1" />
  <metadata
     id="metadata3152">
    <rdf:RDF>
      <cc:Work
         rdf:about="">
        <dc:format>image/svg+xml</dc:format>
        <dc:type
           rdf:resource="http://purl.org/dc/dcmitype/StillImage" />
        <dc:title />
      </cc:Work>
    </rdf:RDF>
  </metadata>
  <g
     inkscape:label="Livello 1"
     inkscape:groupmode="layer"
     id="layer1"
     transform="translate(0,-1004.3622)">
    <g
       style="display:inline"
       id="g2036"
       transform="matrix(1.1,0,0,0.4444449,-2.4000022,1029.4733)">
      <g
         style="opacity:0.4"
         id="g3712"
         transform="matrix(1.052632,0,0,1.285713,-1.263158,-13.42854)">
        <rect
           style="fill:url(#radialGradient3132);fill-opacity:1;stroke:none"
           id="rect2801"
           y="40"
           x="38"
           height="7"
           width="5" />
        <rect
           style="fill:url(#radialGradient3134);fill-opacity:1;stroke:none"
           id="rect3696"
           transform="scale(-1,-1)"
           y="-47"
           x="-10"
           height="7"
           width="5" />
        <rect
           style="fill:url(#linearGradient3136);fill-opacity:1;stroke:none"
           id="rect3700"
           y="40"
           x="10"
           height="7.0000005"
           width="28" />
      </g>
    </g>
    <rect
       style="fill:url(#radialGradient3784);fill-opacity:1;stroke:url(#linearGradient3792);stroke-opacity:1"
       id="rect3163"
       width="39"
       height="39"
       x="4.5"
       y="1009.8622"
       rx="2"
       ry="2" />
    <rect
       style="fill:none;fill-opacity:1;stroke:url(#linearGradient4542);stroke-opacity:1;opacity:0.3"
       id="rect4534"
       width="37"
       height="37"
       x="5.5"
       y="1010.8622"
       rx="1"
       ry="1" />
    <path
       style="fill:url(#radialGradient3811);fill-opacity:1;stroke:url(#linearGradient3803);stroke-opacity:1"
       d="m 6.5,1009.8622 9,0 0,39 -9,0 c -1.108,0 -2,-0.892 -2,-2 l 0,-35 c 0,-1.108 0.892,-2 2,-2 z"
       id="rect3794"
       inkscape:connector-curvature="0"
       sodipodi:nodetypes="sccssss" />
    <path
       style="opacity:0.2;fill:none;stroke:url(#linearGradient4542);stroke-opacity:1"
       d="m 6.5,1010.8622 8,0 0,37 -8,0 c -0.554,0 -1,-0.446 -1,-1 l 0,-35 c 0,-0.554 0.446,-1 1,-1 z"
       id="rect3813"
       inkscape:connector-curvature="0"
       sodipodi:nodetypes="sccssss" />
    <rect
       style="opacity:0.2;fill:#ffffff;fill-opacity:1;stroke:none"
       id="rect3816"
       width="1"
       height="36"
       x="16"
       y="1011.3622" />
    <path
       transform="matrix(1.3228454,0,0,1.3228454,-3.1123557,1026.36)"
       d="m 12.180073,12.096812 c 0,1.252493 -1.015345,2.267838 -2.2678377,2.267838 -1.2524924,0 -2.267838,-1.015345 -2.267838,-2.267838 0,-1.252492 1.0153456,-2.2678378 2.267838,-2.2678378 1.2524927,0 2.2678377,1.0153458 2.2678377,2.2678378 z"
       sodipodi:ry="2.267838"
       sodipodi:rx="2.267838"
       sodipodi:cy="12.096812"
       sodipodi:cx="9.9122353"
       id="path4211"
       style="opacity:0.2;fill:#000000;fill-opacity:1;stroke:none"
       sodipodi:type="arc" />
    <path
       sodipodi:type="arc"
       style="opacity:0.2;fill:#000000;fill-opacity:1;stroke:none"
       id="path4209"
       sodipodi:cx="9.9122353"
       sodipodi:cy="12.096812"
       sodipodi:rx="2.267838"
       sodipodi:ry="2.267838"
       d="m 12.180073,12.096812 c 0,1.252493 -1.015345,2.267838 -2.2678377,2.267838 -1.2524924,0 -2.267838,-1.015345 -2.267838,-2.267838 0,-1.252492 1.0153456,-2.2678378 2.267838,-2.2678378 1.2524927,0 2.2678377,1.0153458 2.2678377,2.2678378 z"
       transform="matrix(1.3228454,0,0,1.3228454,-3.1123557,1000.36)" />
    <rect
       style="opacity:0.05;fill:#000000;fill-opacity:1;stroke:#000000;stroke-opacity:1;stroke-linejoin:round;stroke-width:1.99999997999999990;stroke-miterlimit:4;stroke-dasharray:none"
       id="rect4205"
       width="2"
       height="28"
       x="9"
       y="1015.3622"
       rx="1"
       ry="1" />
    <rect
       ry="1"
       rx="1"
       y="1015.3622"
       x="9"
       height="28"
       width="2"
       id="rect4203"
       style="opacity:0.1;fill:#000000;fill-opacity:1;stroke:#000000;stroke-opacity:1;stroke-linejoin:round" />
    <rect
       style="opacity:1;fill:url(#linearGradient4199);fill-opacity:1;stroke:none"
       id="rect4191"
       width="2"
       height="28"
       x="9"
       y="1015.3622"
       rx="1"
       ry="1" />
    <rect
       ry="1"
       rx="1"
       y="1015.3622"
       x="9"
       height="28"
       width="2"
       id="rect4213"
       style="opacity:0.15;fill:url(#linearGradient4221);fill-opacity:1;stroke:none" />
    <path
       style="fill:#ffffff;fill-opacity:1;stroke:none;opacity:0.2"
       d="m 20,1019.8622 0,1 0,3 1,0 0,-3 3,0 0,-1 -3,0 -1,0 z m 5,0 0,1 4,0 0,-1 -4,0 z m 5,0 0,1 4,0 0,-1 -4,0 z m 5,0 0,1 3,0 0,3 1,0 0,-4 -4,0 z m -15,5 0,4 1,0 0,-4 -1,0 z m 18,0 0,4 1,0 0,-4 -1,0 z m -18,5 0,4 1,0 0,-4 -1,0 z m 18,0 0,4 1,0 0,-4 -1,0 z m -18,5 0,3 0,1 4,0 0,-1 -3,0 0,-3 -1,0 z m 18,0 0,3 -3,0 0,1 4,0 0,-1 0,-3 -1,0 z m -13,3 0,1 4,0 0,-1 -4,0 z m 5,0 0,1 4,0 0,-1 -4,0 z"
       id="rect4227"
       inkscape:connector-curvature="0" />
    <path
       inkscape:connector-curvature="0"
       id="path4286"
       d="m 20,1019.3622 0,1 0,3 1,0 0,-3 3,0 0,-1 -3,0 -1,0 z m 5,0 0,1 4,0 0,-1 -4,0 z m 5,0 0,1 4,0 0,-1 -4,0 z m 5,0 0,1 3,0 0,3 1,0 0,-4 -4,0 z m -15,5 0,4 1,0 0,-4 -1,0 z m 18,0 0,4 1,0 0,-4 -1,0 z m -18,5 0,4 1,0 0,-4 -1,0 z m 18,0 0,4 1,0 0,-4 -1,0 z m -18,5 0,3 0,1 4,0 0,-1 -3,0 0,-3 -1,0 z m 18,0 0,3 -3,0 0,1 4,0 0,-1 0,-3 -1,0 z m -13,3 0,1 4,0 0,-1 -4,0 z m 5,0 0,1 4,0 0,-1 -4,0 z"
       style="fill:url(#linearGradient4288);fill-opacity:1;stroke:none" />
    <path
       style="fill:#000000;fill-opacity:1;stroke:none;opacity:0.2"
       d="M 20 15 L 20 15.5 L 21 15.5 L 24 15.5 L 24 15 L 21 15 L 20 15 z M 25 15 L 25 15.5 L 29 15.5 L 29 15 L 25 15 z M 30 15 L 30 15.5 L 34 15.5 L 34 15 L 30 15 z M 35 15 L 35 15.5 L 39 15.5 L 39 15 L 35 15 z M 20 20 L 20 20.5 L 21 20.5 L 21 20 L 20 20 z M 38 20 L 38 20.5 L 39 20.5 L 39 20 L 38 20 z M 20 25 L 20 25.5 L 21 25.5 L 21 25 L 20 25 z M 38 25 L 38 25.5 L 39 25.5 L 39 25 L 38 25 z M 20 30 L 20 30.5 L 21 30.5 L 21 30 L 20 30 z M 38 30 L 38 30.5 L 39 30.5 L 39 30 L 38 30 z M 21 33 L 21 33.5 L 24 33.5 L 24 33 L 21 33 z M 25 33 L 25 33.5 L 29 33.5 L 29 33 L 25 33 z M 30 33 L 30 33.5 L 34 33.5 L 34 33 L 30 33 z M 35 33 L 35 33.5 L 38 33.5 L 38 33 L 35 33 z "
       transform="translate(0,1004.3622)"
       id="path4299" />
    <path
       style="fill:url(#radialGradient3821);fill-opacity:1;stroke:url(#linearGradient3823);stroke-opacity:1"
       d="m 34,1009.8622 7.5,0 c 1.108,0 2,0.892 2,2 l 0,7.5 z"
       id="rect3050"
       inkscape:connector-curvature="0"
       sodipodi:nodetypes="csscc" />
    <path
       style="opacity:0.3;fill:none;stroke:url(#linearGradient4542);stroke-opacity:1"
       d="m 36.5,1010.8622 5,0 c 0.554,0 1,0.446 1,1 l 0,5 z"
       id="rect3825"
       inkscape:connector-curvature="0"
       sodipodi:nodetypes="csscc" />
    <path
       sodipodi:nodetypes="csscc"
       inkscape:connector-curvature="0"
       id="path3828"
       d="m 34,1048.8622 7.5,0 c 1.108,0 2,-0.892 2,-2 l 0,-7.5 z"
       style="fill:url(#radialGradient3830);fill-opacity:1;stroke:url(#linearGradient3832);stroke-opacity:1" />
    <path
       sodipodi:nodetypes="csscc"
       inkscape:connector-curvature="0"
       id="path3834"
       d="m 36.5,1047.8622 5,0 c 0.554,0 1,-0.446 1,-1 l 0,-5 z"
       style="opacity:0.29999999999999999;fill:none;stroke:url(#linearGradient3836);stroke-opacity:1" />
  </g>
</svg>
