<?xml version="1.0" encoding="UTF-8" standalone="no"?>
<!-- Created with Inkscape (http://www.inkscape.org/) -->

<svg
   xmlns:dc="http://purl.org/dc/elements/1.1/"
   xmlns:cc="http://creativecommons.org/ns#"
   xmlns:rdf="http://www.w3.org/1999/02/22-rdf-syntax-ns#"
   xmlns:svg="http://www.w3.org/2000/svg"
   xmlns="http://www.w3.org/2000/svg"
   xmlns:xlink="http://www.w3.org/1999/xlink"
   xmlns:sodipodi="http://sodipodi.sourceforge.net/DTD/sodipodi-0.dtd"
   xmlns:inkscape="http://www.inkscape.org/namespaces/inkscape"
   width="48"
   height="48"
   id="svg3147"
   version="1.1"
   inkscape:version="0.48.3.1 r9886"
   sodipodi:docname="goa-panel.svg">
  <defs
     id="defs3149">
    <linearGradient
       id="linearGradient3791">
      <stop
         style="stop-color:#5e99cc;stop-opacity:1;"
         offset="0"
         id="stop3793" />
      <stop
         style="stop-color:#0e4eab;stop-opacity:1;"
         offset="1"
         id="stop3795" />
    </linearGradient>
    <linearGradient
       id="linearGradient3783">
      <stop
         style="stop-color:#b8f5f3;stop-opacity:1;"
         offset="0"
         id="stop3785" />
      <stop
         style="stop-color:#419dd6;stop-opacity:1;"
         offset="1"
         id="stop3787" />
    </linearGradient>
    <linearGradient
       id="linearGradient4536">
      <stop
         style="stop-color:#ffffff;stop-opacity:1;"
         offset="0"
         id="stop4538" />
      <stop
         id="stop4546"
         offset="0.04410084"
         style="stop-color:#ffffff;stop-opacity:0.15686275;" />
      <stop
         id="stop4544"
         offset="0.96063954"
         style="stop-color:#ffffff;stop-opacity:0.23529412;" />
      <stop
         style="stop-color:#ffffff;stop-opacity:0.39215687;"
         offset="1"
         id="stop4540" />
    </linearGradient>
    <radialGradient
       inkscape:collect="always"
       xlink:href="#linearGradient3688-166-749"
       id="radialGradient3132"
       gradientUnits="userSpaceOnUse"
       gradientTransform="matrix(2.003784,0,0,1.4,27.98813,-17.4)"
       cx="4.9929786"
       cy="43.5"
       fx="4.9929786"
       fy="43.5"
       r="2.5" />
    <linearGradient
       id="linearGradient3688-166-749">
      <stop
         id="stop2883"
         style="stop-color:#181818;stop-opacity:1"
         offset="0" />
      <stop
         id="stop2885"
         style="stop-color:#181818;stop-opacity:0"
         offset="1" />
    </linearGradient>
    <radialGradient
       inkscape:collect="always"
       xlink:href="#linearGradient3688-464-309"
       id="radialGradient3134"
       gradientUnits="userSpaceOnUse"
       gradientTransform="matrix(2.003784,0,0,1.4,-20.01187,-104.4)"
       cx="4.9929786"
       cy="43.5"
       fx="4.9929786"
       fy="43.5"
       r="2.5" />
    <linearGradient
       id="linearGradient3688-464-309">
      <stop
         id="stop2889"
         style="stop-color:#181818;stop-opacity:1"
         offset="0" />
      <stop
         id="stop2891"
         style="stop-color:#181818;stop-opacity:0"
         offset="1" />
    </linearGradient>
    <linearGradient
       inkscape:collect="always"
       xlink:href="#linearGradient3702-501-757"
       id="linearGradient3136"
       gradientUnits="userSpaceOnUse"
       x1="25.058096"
       y1="47.027729"
       x2="25.058096"
       y2="39.999443" />
    <linearGradient
       id="linearGradient3702-501-757">
      <stop
         id="stop2895"
         style="stop-color:#181818;stop-opacity:0"
         offset="0" />
      <stop
         id="stop2897"
         style="stop-color:#181818;stop-opacity:1"
         offset="0.5" />
      <stop
         id="stop2899"
         style="stop-color:#181818;stop-opacity:0"
         offset="1" />
    </linearGradient>
    <linearGradient
       inkscape:collect="always"
       xlink:href="#linearGradient4536"
       id="linearGradient4542"
       x1="23.522522"
       y1="1010.4793"
       x2="23.522522"
       y2="1048.1082"
       gradientUnits="userSpaceOnUse" />
    <radialGradient
       inkscape:collect="always"
       xlink:href="#linearGradient3783"
       id="radialGradient3789"
       cx="23.855856"
       cy="1016.3892"
       fx="23.855856"
       fy="1016.3892"
       r="20"
       gradientUnits="userSpaceOnUse"
       gradientTransform="matrix(4.0319247e-7,1.7984121,-1.4757461,3.3085282e-7,1523.7883,973.48622)" />
    <linearGradient
       inkscape:collect="always"
       xlink:href="#linearGradient3791"
       id="linearGradient3797"
       x1="10.774775"
       y1="1009.4703"
       x2="10.774775"
       y2="1048.8232"
       gradientUnits="userSpaceOnUse" />
  </defs>
  <sodipodi:namedview
     id="base"
     pagecolor="#ffffff"
     bordercolor="#666666"
     borderopacity="1.0"
     inkscape:pageopacity="0.0"
     inkscape:pageshadow="2"
     inkscape:zoom="6.9375"
     inkscape:cx="14.739789"
     inkscape:cy="16.656491"
     inkscape:document-units="px"
     inkscape:current-layer="layer1"
     showgrid="false"
     inkscape:window-width="1280"
     inkscape:window-height="749"
     inkscape:window-x="0"
     inkscape:window-y="24"
     inkscape:window-maximized="1" />
  <metadata
     id="metadata3152">
    <rdf:RDF>
      <cc:Work
         rdf:about="">
        <dc:format>image/svg+xml</dc:format>
        <dc:type
           rdf:resource="http://purl.org/dc/dcmitype/StillImage" />
        <dc:title />
      </cc:Work>
    </rdf:RDF>
  </metadata>
  <g
     inkscape:label="Livello 1"
     inkscape:groupmode="layer"
     id="layer1"
     transform="translate(0,-1004.3622)">
    <g
       style="display:inline"
       id="g2036"
       transform="matrix(1.1,0,0,0.4444449,-2.4000022,1029.4733)">
      <g
         style="opacity:0.4"
         id="g3712"
         transform="matrix(1.052632,0,0,1.285713,-1.263158,-13.42854)">
        <rect
           style="fill:url(#radialGradient3132);fill-opacity:1;stroke:none"
           id="rect2801"
           y="40"
           x="38"
           height="7"
           width="5" />
        <rect
           style="fill:url(#radialGradient3134);fill-opacity:1;stroke:none"
           id="rect3696"
           transform="scale(-1,-1)"
           y="-47"
           x="-10"
           height="7"
           width="5" />
        <rect
           style="fill:url(#linearGradient3136);fill-opacity:1;stroke:none"
           id="rect3700"
           y="40"
           x="10"
           height="7.0000005"
           width="28" />
      </g>
    </g>
    <rect
       style="fill:url(#radialGradient3789);fill-opacity:1;stroke:url(#linearGradient3797);stroke-opacity:1"
       id="rect3163"
       width="39"
       height="39"
       x="4.5"
       y="1009.8622"
       rx="2"
       ry="2" />
    <rect
       style="fill:none;fill-opacity:1;stroke:url(#linearGradient4542);stroke-opacity:1;opacity:0.5"
       id="rect4534"
       width="37"
       height="37"
       x="5.5"
       y="1010.8622"
       rx="1"
       ry="1" />
    <path
       inkscape:connector-curvature="0"
       d="m 6.0000001,1010.3625 c -0.554,0 -1,0.4716 -1,1.0574 l 0,2.9078 0.375,-0.4956 0.28125,0.1321 0.5625,0 0.46875,-0.4956 0.5625,-0.2644 0.0625,-0.3634 -0.34375,-0.3305 -0.3125,-0.099 -0.1875,-0.4626 0.40625,-0.2643 0.625,0.3635 0.21875,-0.2644 -0.34375,-0.1983 0.7187498,-0.9913 -0.0625,-0.2313 -2.0312498,0 z m 6.5624999,0 0,0.033 0.125,0.1983 0.15625,-0.2313 -0.28125,0 z m 6.59375,0 -0.28125,0.4957 -0.09375,0.2643 0.53125,0.1652 0.09375,-0.3635 0.15625,-0.4956 0.125,-0.066 -0.53125,0 z m 3.875,0 0,0.2643 0.625,0.2644 -0.3125,0.2643 -0.65625,-0.2643 -0.28125,0.2643 -0.40625,-0.4956 -0.09375,0.1652 0.46875,1.487 0.09375,0.066 0.3125,-0.1653 0.15625,0.099 0,0.2644 -0.28125,-0.099 -0.1875,0.1322 0.125,0.2643 -0.09375,0.6939 -0.59375,0.066 -0.03125,-0.2313 0.34375,-0.1983 0.0625,-0.6278 -0.375,-0.5287 -0.15625,-0.9252 -0.59375,-0.1322 -0.0625,0.3305 0.125,0.1652 -0.28125,0.2313 0.125,0.6278 0.34375,0.1652 0.09375,0.4626 -0.375,-0.2643 -0.9375,-0.1652 -0.125,0.3304 -0.75,0.2644 -0.125,-0.1983 -1,0.5948 0,0.3635 -0.40625,0.066 0.125,-0.2643 0,-0.2974 -0.375,-0.1652 -0.25,0.1322 0.1875,0.4295 0.15625,0.2644 0,0.2313 -0.28125,-0.066 -0.0625,-0.033 -0.28125,0.3304 0.15625,0.2644 -0.65625,0 0.21875,0.2643 -0.0625,0.1322 -0.34375,0 -0.25,-0.1652 -0.0625,-0.5287 -0.40625,-0.1652 0,-0.1983 0.84375,0.1652 0.46875,0.066 0.1875,-0.3304 -0.1875,-0.3305 -1.21875,-0.4956 -0.4375,0.099 -0.15625,0.1321 0.0625,0.2974 0.1875,0.033 -0.0625,0.4957 0.5625,1.3878 -0.40625,0.6939 -0.03125,0.1322 0.21875,0.1652 -0.1875,0.1322 -0.125,0 0.03125,0.5948 0.15625,0.2643 0,0.2313 0.21875,0.033 0.34375,0.1322 0.34375,0.5287 0.03125,0.1322 -0.125,0.1982 0.25,-0.033 0.25,0.099 0.375,0.4957 0.84375,0.099 -0.03125,0.6279 -0.3125,0.2643 0.0625,0.099 -0.28125,0.3304 -0.0625,0.2974 0.15625,0.2644 0.5625,0.2313 0.21875,-0.1653 1.5,0.5948 0.0625,-0.1652 -0.3125,-0.2972 0,-0.3965 -0.1875,-0.066 0.03125,-0.3304 0.3125,-0.3965 -0.5625,-0.4296 0.0625,-0.5948 0.59375,-0.4295 0.6875,0.033 0.125,0.2313 0.71875,0.033 0.5,-0.2974 -0.25,-0.2974 0.03125,-0.5948 1.375,-0.694 1.03125,0.4956 0.34375,-0.3304 1.03125,1.0243 0.78125,-0.066 0.28125,0.2644 0.71875,0.099 0.5,-0.6939 0.625,0.2974 0.3125,0.033 0.34375,-0.2974 -0.3125,-0.1983 0.25,-0.4296 0.71875,0.2644 0.15625,0.3304 0.3125,0 0.1875,-0.1322 0.53125,-0.033 0.0625,0.1653 0.59375,0.033 0.40625,-0.4626 0.84375,0.099 0.25,-0.099 0.0625,-0.4957 -0.25,-0.5948 0.25,-0.2313 0.8125,0 0.75,0.9583 0.96875,0.5948 0.28125,0 0.0625,-0.2644 0.34375,-0.2313 0.03125,1.3548 -0.3125,0 0,0.3304 0.1875,0.2313 -0.03125,0.2974 0.125,0.066 0.0625,-0.1983 0.125,0.033 0.0625,0.066 0.375,-0.066 0.34375,-1.0904 0.03125,-1.3217 -0.4375,-1.0905 -0.5625,-0.7269 -0.28125,0.066 0,0.2313 -0.65625,-0.2974 0.25,-0.5618 0.21875,-1.52 0.875,-0.2973 0.4375,-0.2974 0.46875,0 -0.125,0.1652 0.125,0.2313 0.40625,-0.4626 0.21875,0 -0.03125,-0.2644 -0.375,-0.066 0.25,-0.9913 0.34375,-0.3304 0.125,0.4957 0.28125,0.099 0.28125,-0.4626 -0.15625,-0.2974 0.0625,-0.2643 0.40625,0 -0.09375,0.1982 0.03125,0.727 -0.59375,1.553 0.0625,0.3305 -0.03125,0.5287 1.09375,1.6852 0.21875,0.066 0,-1.3548 0.21875,-0.2313 -0.21875,-0.5287 0.1875,-0.2313 -0.4375,-0.5948 -0.21875,0.033 -0.0625,-0.9913 0.59375,-0.1652 0.03125,-0.2974 0.3125,-0.066 0.15625,0.1652 0.21875,-0.9252 0.0625,-0.099 -17.90625,0 z m -4.34375,0.9913 0.03125,0.3635 -0.25,0.066 0,0.1652 0.15625,0.2313 0.375,0.033 0.1875,0.1982 0.1875,0 0.09375,-0.2313 -0.28125,-0.3304 -0.125,-0.4296 -0.375,-0.066 z m -11.6562499,0.6939 -0.125,0.099 0.0625,0.1322 0.40625,0.1982 0,-0.3304 -0.34375,-0.099 z m 7.8437499,0.6609 -0.5625,0.066 -0.0625,0.2643 -0.125,-0.066 -0.09375,-0.1321 -0.25,0 -0.03125,0.2974 -0.125,0.066 -0.09375,-0.1652 -0.5625,0.4957 0.125,0.1321 -0.21875,0.099 -0.46875,0.9913 -0.1875,0.1322 0.03125,0.099 0.15625,0.099 -0.03125,0.1652 -0.28125,0 -0.09375,-0.099 -0.1875,0.2313 -0.09375,0.066 -0.03125,0.2313 -0.09375,0.066 -0.28125,0.033 -0.125,0.4296 0.09375,0.6939 0.09375,0.3304 0.125,0.099 0.25,0 0.375,-0.3965 0.125,-0.2313 0.0625,0.3634 0.21875,-0.4626 0.03125,-1.2556 0.1875,-0.1322 0.0625,-0.6939 0.59375,-0.8922 0.28125,-0.099 0.125,-0.1652 0.4375,0.099 0.1875,0.1322 0.09375,-0.3966 0.34375,-0.1982 0.21875,0.3635 0.15625,-0.099 -0.03125,-0.1322 -0.09375,-0.066 0.03125,-0.1652 0.0625,0 0,-0.099 -0.34375,-0.099 z m -0.03125,0.3635 -0.25,0.1982 -0.09375,0.4296 -0.28125,-0.1652 -0.375,-0.099 -0.09375,0.099 0.15625,0.1321 0.25,0 0.21875,0.3635 0.03125,0.5618 0.1875,0.066 0.09375,0.1982 -0.09375,0.1322 -0.5,0.5948 -0.09375,0.2974 0.125,0.4295 0.375,0.2974 0.5,-0.2643 0.40625,-0.066 0.375,-0.6278 -0.28125,-0.727 -0.25,-0.6609 0.03125,-0.4295 -0.15625,-0.033 -0.0625,-0.3305 -0.21875,-0.3965 z m 26.09375,0.4295 0.0625,0.1322 0.1875,0.1322 0.0625,-0.066 -0.1875,-0.1983 -0.125,0 z m -27.21875,0.099 -0.28125,0.099 -0.5625,0.8591 -0.0625,0.727 -0.1875,0.099 -0.03125,1.2886 -0.28125,0.4957 0.34375,0.5948 0.09375,0.4295 0.15625,0 0.125,-0.2313 0.3125,-0.1321 0,-0.6609 0.1875,-0.1983 0.15625,-0.1982 0.03125,-0.1652 -0.375,-0.2974 0,-0.3635 0.1875,-0.3635 0.15625,-0.033 0.28125,-0.3965 0,-0.2644 0.375,-0.2973 -0.03125,-0.5287 -0.15625,-0.3305 -0.28125,0 -0.15625,-0.1322 z m 27.65625,0 0,0.1322 0.25,0.066 0,-0.099 -0.25,-0.099 z m 1.25,0.4957 0.09375,0.1982 0.15625,-0.033 0.03125,-0.1321 -0.28125,-0.033 z m -36.0937499,0.4296 -0.21875,0.1322 -0.15625,0.1652 0,0.099 0.21875,0.033 0,0.1652 -0.09375,0.099 0.03125,0.066 0.21875,0 0,0.2974 0.3125,0.033 0.21875,0.1322 0.21875,0 0.375,-0.1983 0.2812498,-0.3965 0,-0.2643 -0.1874998,-0.1652 -0.125,-0.1322 -0.09375,0.066 -0.09375,0.1321 -0.09375,-0.033 -0.125,-0.1321 -0.15625,0.033 -0.1875,0.1652 -0.15625,0.1652 -0.0625,-0.066 0,-0.1652 0.0625,-0.066 -0.03125,-0.066 -0.15625,-0.099 z m 30.3749999,0.5287 0,0.4956 0.59375,0.9913 0.21875,0.8261 0.375,0.76 0.15625,0.066 0.125,-0.1322 0.0625,-0.1652 -0.5625,-0.6278 0.03125,-0.3304 0.125,-0.033 0.03125,-0.1983 -1.0625,-1.5861 -0.09375,-0.066 z m 3.1875,0.76 -0.09375,0.1321 0.03125,0.1983 0.0625,0 0.15625,-0.2974 -0.15625,-0.033 z m 0,0.4626 -0.15625,0.033 0,0.3304 0.09375,0.033 0.0625,-0.099 0,-0.2974 z m -7,0.2313 -0.1875,0.1982 0.25,0.5618 -0.09375,0.5617 -0.28125,0.1322 -0.1875,-0.033 0,0.5287 0.1875,0.066 0.3125,-0.1652 0.40625,0.2313 0,0.1982 -0.3125,0 -0.21875,0.5618 -0.21875,0 -0.75,1.0574 -0.8125,0.3634 -0.53125,0.066 -0.375,-0.2974 -0.5,0.2974 -0.5625,-0.1652 -0.15625,-0.3965 -0.9375,-0.066 -0.5,-0.8591 -0.21875,0 -0.1875,-0.3965 -0.1875,-0.033 -0.28125,0.6939 -0.34375,0 -0.40625,0.8921 0.34375,0.4296 -0.6875,0.9913 -0.34375,-0.033 -0.25,0.2974 0.0625,0.1983 0.28125,0 0.125,0.3304 0.28125,0.066 0.84375,1.1235 0,0.5947 0.40625,0.2644 0.4375,-0.066 0.5625,0.3304 0.6875,0.1983 0.3125,-0.033 0.375,-0.033 0.78125,-0.5287 0.25,0.033 0.09375,0.2313 0.21875,0.066 0.28125,0.4626 -0.1875,0.4626 0.125,0.2974 0.3125,0.1322 0.0625,0.3635 0.375,0.033 0.0625,-0.1653 0.5625,-0.3304 0.34375,0.033 0.40625,0.4626 0.28125,-0.099 0.1875,0 0.0625,0.2313 0.15625,0.033 0.1875,-0.2974 0.78125,-0.2973 0.6875,-0.8922 0.21875,-0.8591 0,-0.5618 -0.3125,-0.066 0.1875,-0.1982 -0.03125,-0.3305 -0.75,-0.793 0,-0.3635 0.21875,-0.2974 0.21875,-0.099 0,-0.2313 -0.53125,0 -0.09375,0.2974 -0.25,-0.066 -0.3125,-0.3305 0.1875,-0.5617 0.28125,-0.2974 0.25,0.033 -0.03125,0.4626 0.125,0.1322 0.3125,-0.3635 0.125,0 -0.03125,-0.2974 0.3125,-0.3635 0.21875,0 0.15625,-0.4626 0.15625,-0.066 0,-0.2974 -0.15625,-0.1653 0,-0.4295 0.28125,-0.033 0,-1.1565 -0.21875,0.1321 -0.0625,0.2974 -0.34375,0 -1.03125,-0.5948 -0.71875,-0.9252 -0.75,-0.033 z m -18.25,0.2313 -0.28125,0.1983 0,0.1321 0.15625,0.1652 0.5625,0.099 0,-0.5617 -0.4375,-0.033 z m -5.1875001,0.3635 -0.3125,0.2313 -0.1875,0.6278 0.1875,-0.033 -0.03125,0.3635 0.09375,0.099 0.28125,0 0.03125,0.4626 -0.21875,0.033 -0.03125,0.2643 -0.1875,0.2644 0.28125,0.033 0.09375,0.066 -0.59375,0.3304 0.21875,0.099 0.59375,-0.2644 0.3750001,0.033 0.1875,-0.099 0.09375,-0.099 -0.09375,-0.066 0,-0.099 0.15625,-0.066 0,-0.1652 -0.09375,-0.1983 -0.21875,-0.099 -0.15625,-0.3304 -0.1562501,-0.3635 -0.0625,-0.3304 0.0625,-0.1322 0,-0.1322 -0.3125,0 -0.0625,-0.099 0.15625,-0.2313 -0.09375,-0.099 z m 4.6562501,0 -0.09375,0.066 0.0625,0.066 0.125,0 0.0625,-0.066 -0.0625,-0.066 -0.09375,0 z m -0.53125,0.1982 -0.15625,0.1322 0.0625,0.1983 0.15625,-0.1322 -0.0625,-0.1983 z m 0.96875,0 0.03125,0.3305 0.46875,0.2974 0.21875,-0.066 -0.03125,-0.2313 -0.15625,-0.2313 -0.53125,-0.099 z m -2.65625,0.099 -0.3125,0.3965 0,0.2313 0.125,0.3965 0.25,-0.033 -0.03125,-0.3304 0.15625,-0.1983 0,-0.1322 -0.125,-0.2974 -0.0625,-0.033 z m 2.1875,0 -0.1875,0.2643 0,0.1322 0.0625,0.033 0.125,0 0.21875,-0.1983 0.03125,-0.066 -0.125,-0.1321 -0.125,-0.033 z m 8.75,0.066 -1.3125,0.6939 -0.03125,0.4626 0.3125,0.3965 -0.59375,0.3304 -0.78125,0 -0.15625,-0.2643 -0.59375,-0.033 -0.59375,0.3965 0,0.5287 0.53125,0.4626 0.3125,-0.1652 0.34375,0 0.03125,0.5617 -0.21875,0 -0.15625,0.2974 0.21875,0.3635 0.3125,0.1652 0.03125,0.1983 0.09375,-0.033 0.125,-0.1322 0.15625,0.033 0.09375,0.1983 0.21875,0 0,-0.2313 -0.15625,-0.4296 -0.0625,-0.3304 0.40625,-0.1653 0.53125,0.066 0.3125,0.3635 0.75,-0.066 0.40625,0.5948 0.5,0.033 0.125,-0.2313 0.15625,-0.033 0.03125,-0.2643 0.25,0 0.15625,0.1652 0.125,-0.3305 1.15625,0.1653 0.1875,-0.2644 -0.3125,-0.4296 0.4375,-1.0243 0.34375,0.033 0.25,-0.6278 -0.5,-0.066 -0.28125,-0.2644 -0.75,0.099 -1,-1.0243 -0.34375,0.3304 -1.0625,-0.5287 z m 16.8125,0.1321 -0.15625,0.099 -0.09375,0.1983 0,0.1321 0.125,-0.066 0.125,-0.2643 0,-0.099 z m -25.28125,0.066 -0.21875,0.2313 -0.1875,0 0,0.2974 -0.125,0.2313 0.4375,0 0.09375,-0.033 0.125,0.1652 0.28125,-0.033 0.25,-0.3304 0,-0.2313 -0.5,-0.2974 -0.15625,0 z m 14.4375,0.033 -0.21875,0.2974 0.3125,0.2313 -0.4375,0.4296 -0.375,-0.099 -0.53125,-0.2644 -0.46875,0.6279 0.125,0.3304 0.25,0 0.5,0.8922 0.96875,0.066 0.125,0.3965 0.5,0.1652 0.53125,-0.2974 0.40625,0.2974 0.5,-0.066 0.75,-0.3635 0.78125,-1.0243 0.1875,-0.033 0.25,-0.5617 0.25,0 0,-0.099 -0.34375,-0.1653 -0.3125,0.1321 -0.25,-0.033 0.03125,-0.6277 -0.59375,-0.066 -0.40625,0.4626 -0.6875,-0.033 -0.0625,-0.1652 -0.40625,0 -0.21875,0.1652 -0.375,0 -0.1875,-0.3635 L 29,1017.6981 z m -13.5,0.2313 -0.21875,0.066 0,0.2313 -0.28125,0.3965 -0.28125,0 0.125,0.1983 -0.0625,0.1652 0,0.099 0.0625,0.1652 0.21875,-0.1322 0.3125,0 0.21875,0.099 0.5,0 0.15625,-0.3965 0.09375,-0.1652 0,-0.066 -0.3125,-0.4956 -0.3125,-0.1322 -0.21875,-0.033 z m -3.09375,0.1322 -0.09375,0.099 0,0.1321 0.21875,0.033 0,-0.1652 -0.0625,-0.099 -0.0625,0 z m 27,0.066 -0.21875,0.3304 0.03125,0.1322 0.09375,-0.033 0.25,-0.3304 -0.15625,-0.099 z m -30.5625001,0.099 -0.125,0.2974 -0.28125,0 0,0.2643 0.0625,0.1652 -0.3125,0.2313 0,0.066 0.15625,0.099 0.1875,0 0.625,-0.2313 0.0625,-0.4957 -0.1875,0.066 -0.21875,-0.1982 0.03125,-0.2644 z m 0.3125,0 -0.25,0.033 -0.03125,0.2313 0.1875,0.1321 0.15625,-0.066 0.09375,-0.1322 -0.15625,-0.1983 z m 4.6875001,0.066 -0.15625,0.033 -0.34375,0.1321 -0.28125,0.2313 0.03125,0.5618 0.125,0.2313 0.375,0.1982 0.34375,0.2644 0.21875,0.066 0.21875,-0.066 0.0625,0 0.15625,0.066 0.09375,-0.066 0.125,-0.2313 0.03125,-0.1322 0,-0.1652 -0.0625,-0.099 -0.03125,-0.1652 -0.03125,-0.1983 0.0625,-0.1321 -0.21875,-0.3636 -0.15625,0.033 -0.59375,-0.033 -0.03125,-0.033 0.0625,-0.1321 z m 24.4375,0.099 -0.125,0.099 0.0625,0.2313 0.125,0.099 -0.03125,0.3635 -0.125,0.066 -0.09375,0.2313 0.3125,0.4626 0.1875,-0.066 0.03125,-0.1322 -0.21875,-0.1982 0.125,-0.1653 0.15625,0 0.09375,0.1322 0.03125,-0.2643 0.28125,-0.2644 0.1875,-0.033 -0.15625,-0.2643 -0.0625,-0.099 -0.09375,0.066 -0.09375,0.1321 -0.21875,-0.033 -0.21875,-0.1653 -0.15625,-0.1982 z m -26.09375,0.066 -0.25,0.033 0,0.1982 -0.28125,0.066 0.09375,0.4957 -0.21875,0.099 -0.03125,0.2643 0.15625,0.1983 -0.03125,0.1982 0.21875,0.1322 0,0.2643 0.25,0.066 0.0625,0.1653 0.125,0 0.09375,-0.1322 0.25,-0.033 0.3125,-0.1322 0.03125,-0.1652 -0.34375,-0.3304 -0.03125,-0.066 0.375,-0.2313 0.21875,-0.033 -0.15625,-0.23 -0.03125,-0.5618 -0.15625,-0.1652 -0.1875,-0.066 -0.21875,0.099 -0.125,0 -0.125,-0.1322 z m -0.59375,0.3304 -0.34375,0.1652 0.0625,0.066 0,0.1983 -0.0625,-0.033 -0.09375,-0.1322 -0.1875,0.3304 0.3125,0.066 0.09375,0.1322 0.0625,0 0.03125,-0.2974 0.1875,-0.066 -0.0625,-0.4295 z m 4.6875,0.1322 -0.125,0.3635 -0.59375,0 -0.1875,-0.099 -0.28125,0 -0.21875,0.1322 0.0625,0.2313 -0.21875,0.4626 0,0.1982 0.09375,0.066 0.625,0.033 0.1875,-0.1322 0.1875,0.066 0.25,0.3635 -0.1875,0.3635 0.21875,0.099 0.3125,-0.3966 0.1875,0.033 0.15625,0.1322 -0.15625,0.1983 0.21875,0.3304 0.1875,0 0.09375,-0.2313 0.21875,-0.033 0.03125,-0.1652 -0.40625,-0.066 0,-0.1983 0.40625,0 0.40625,-0.3634 0.1875,-0.1653 0.03125,-0.5617 -0.84375,-0.066 -0.3125,-0.4956 -0.25,-0.099 -0.28125,0 z m -5.34375,0.5287 -0.0625,0.1322 0.53125,0.3634 0.15625,0.033 0,-0.1652 -0.125,-0.1652 -0.0625,0 -0.125,-0.1322 -0.3125,-0.066 z m 2.28125,0.099 -0.21875,0.033 -0.3125,0.2313 0.3125,0.3304 0.21875,0 0.125,0 0.1875,0.1322 0.34375,-0.2974 -0.34375,-0.2644 -0.3125,-0.1652 z m -2.375,0.066 -0.15625,0.066 -0.34375,0.3966 -0.125,0 -0.125,-0.099 -0.09375,0 -0.0625,0.2313 -0.5,0.033 0.03125,0.099 0.3125,0.2313 0.40625,0.3304 0,0.4296 -0.21875,0.3634 0.46875,0.2314 0.46875,0.033 0.125,-0.1653 0.28125,0 0.09375,0.066 0.3125,0 0.125,-0.2313 -0.1875,-0.2313 0,-0.1322 0.03125,-0.1652 -0.09375,-0.1652 -0.15625,0.066 -0.03125,-0.1322 0.375,-0.4295 0,-0.2644 -0.25,-0.1322 -0.125,-0.033 -0.5625,-0.3965 z m 25.25,0.1653 -0.125,0.066 -0.125,0.4626 -0.25,0 -0.28125,0.3304 0.03125,0.2643 0.15625,0.066 0.03125,0.4957 0.28125,0.033 0.28125,-0.3304 -0.09375,-0.099 0,-0.3305 0.25,-0.3304 -0.125,-0.2313 0.0625,-0.099 0.0625,-0.2313 -0.15625,-0.066 z m -22.1875,0.2313 -0.34375,0.2974 0.0625,0.066 0,0.066 0.59375,0 0.4375,-0.1982 0,-0.1983 -0.09375,0.033 -0.125,-0.066 -0.0625,0 -0.1875,0.066 -0.28125,-0.066 z m 24.75,0 -0.1875,0.2313 0,0.1982 0.09375,0.1322 0.03125,0.4957 -0.25,0.2974 -0.125,-0.066 -0.09375,0.2313 -0.03125,0.2313 0.09375,0.1321 -0.0625,0.099 -0.15625,-0.1652 -0.125,0 -0.125,0.066 -0.0625,0.033 -0.375,0.4626 0.0625,0.099 0.1875,0.033 0.34375,-0.2974 0.25,-0.033 0.21875,0.2643 0.15625,-0.066 0.0625,-0.2644 0.3125,0 0.3125,-0.3965 -0.15625,-0.6609 -0.0625,-0.3304 0.15625,-0.1322 -0.375,-0.5948 -0.09375,0 z m -25.625,0.1652 -0.03125,0.1983 -0.34375,0.1652 -0.25,0.033 -0.0625,0.099 0.0625,0.066 0.15625,-0.033 0.15625,0 0.1875,0.1652 0.34375,-0.099 0.25,-0.1321 0.0625,-0.1322 0,-0.1322 -0.25,-0.1983 -0.28125,0 z m 2.59375,0.066 -0.125,0.1322 0.21875,0.3635 0,0.2313 0.09375,0 0.1875,-0.3635 -0.25,-0.3304 -0.125,-0.033 z m -0.9375,0.033 -0.4375,0.2313 -0.59375,0 -0.09375,0.1653 0,0.2313 0.15625,0.066 0.4375,0 0.59375,-0.5286 0,-0.1322 -0.0625,-0.033 z m 0.15625,0.066 -0.03125,0.1322 -0.4375,0.3965 0.375,0.5618 0.21875,0.1982 0.4375,0 0.15625,-0.1322 0.1875,-0.033 0.125,0.099 0.25,-0.2974 -0.03125,-0.1652 -0.25,-0.066 -0.1875,0 0,-0.2643 -0.21875,-0.3965 -0.59375,-0.033 z m -3.03125,0.1652 -0.34375,0.3635 0,0.033 0.15625,-0.033 0.125,0.1652 0.1875,-0.066 0.15625,0.1322 0.0625,-0.033 0.1875,-0.2974 -0.0625,-0.066 -0.15625,0 -0.09375,-0.1982 -0.21875,0 z m 1.6875,0.1983 -0.1875,0.1322 -0.375,0.066 0.0625,0.2313 0.25,0 0.25,-0.1983 0,-0.2313 z m -0.9375,0.066 -0.1875,0.033 -0.15625,0.2643 -0.125,0.099 -0.15625,-0.1322 -0.1875,0.066 -0.03125,0.1322 0,0.1322 0.1875,0.2313 0.28125,0 0.65625,0.793 0.40625,0.1322 0.21875,0.2313 0.0625,0.5287 0.125,-0.066 0.09375,-0.2974 0,-0.2313 0.1875,0 0,-0.1322 -0.5,-0.2643 -0.5,-0.5287 -0.21875,-0.2974 -0.03125,-0.2974 0.25,-0.066 -0.0625,-0.1982 -0.15625,-0.1322 -0.15625,0 z m 9,0.066 -0.34375,0.1322 0.21875,0.6939 0,0.2643 0.125,0 0.1875,-0.3635 0.46875,0 0.09375,0.2644 1.03125,0.7269 0.375,0.099 0.125,0.2644 0.21875,0 0,-0.4296 -0.21875,-0.1322 0.375,-0.4956 0.15625,0 0.15625,0.1982 0.40625,-0.1652 -0.5625,-0.2313 -0.03125,-0.099 -0.125,0.033 -0.125,0.2313 -0.5625,-0.033 -0.40625,-0.5947 -0.71875,0.066 -0.34375,-0.3634 -0.5,-0.066 z m -7.25,0.066 -0.15625,0.1321 -0.0625,0 -0.0625,0.1653 0.1875,0.2313 0.03125,0.1982 -0.25,0.3305 0.03125,0.099 0.125,0.033 0.125,-0.1321 0.0625,0 0.09375,0.099 0.28125,-0.099 -0.03125,-0.4626 -0.375,-0.5948 z m -0.75,0.066 -0.28125,0.2313 -0.28125,0 -0.03125,0.1982 0.125,0.033 0.0625,-0.099 0.125,0.099 0.0625,0.2974 0.53125,0.2644 0.0625,-0.066 -0.53125,-0.5948 0.03125,-0.099 0.53125,-0.033 0.0625,-0.1652 -0.34375,0 -0.125,-0.066 z m 11.375,0.1652 -0.15625,0.3635 -0.1875,-0.1983 -0.15625,0 -0.03125,0.1983 0.03125,0.1321 0.65625,0.2313 -0.5625,0.2644 -0.09375,-0.066 -0.125,0.099 0.03125,0.033 0.0625,0.033 0.40625,0 0.21875,-0.066 0.25,-0.3305 0.34375,0.033 0.40625,-0.5947 -1.09375,-0.1322 z m 11.1875,0.066 -0.25,0.3304 0.125,0.066 0,0.099 -0.09375,0.066 0.09375,0.2313 0.21875,0.5287 0.21875,0 0.21875,-0.2974 0.03125,-0.1983 -0.09375,-0.3965 -0.46875,-0.4296 z m -22.625,0.066 -0.03125,0.066 0.5,0.5618 0.21875,-0.2974 -0.03125,-0.1322 L 14,1021.267 l -0.5,0 z m 2.21875,0.2643 -0.15625,0.033 -0.09375,0.1322 -0.5,0 -0.1875,-0.1322 0,0.3965 0.125,0.2974 0.5,0 0.21875,-0.1652 0.21875,-0.099 -0.0625,-0.2643 0.0625,-0.1322 -0.125,-0.066 z m 2.65625,0.033 -0.21875,0.1322 0.25,0.3635 0.34375,0.1321 0.1875,0 0.3125,-0.099 0.09375,-0.1321 -0.96875,-0.3965 z m 3.40625,0.066 -0.15625,0.3635 -0.1875,0 -0.3125,0 -0.03125,0.1982 -0.34375,0 0,0.2974 0.34375,0.2313 -0.09375,0.3305 0,0.1652 0.15625,0 0.1875,-0.2644 0.40625,-0.099 0.90625,0.3635 0.03125,0.2644 0.5,0.066 0.5625,-0.6279 -0.0625,-0.1982 -0.375,-0.099 -1.0625,-0.727 -0.0625,-0.2643 -0.40625,0 z m -13.0312501,0.033 -0.125,0.033 -0.09375,0.2313 0.03125,0.2643 0.375,0.033 0.0625,0.1653 -0.1875,0.9913 0.03125,0.1652 0.25,0.1652 0.3125,0 0.6250001,-0.1322 0.28125,-0.4295 0,-0.3966 0.53125,-0.4956 0.03125,-0.2313 -0.46875,0 -0.5000001,-0.2644 -0.96875,0 -0.1875,-0.099 z m 3.4375001,0.2643 -0.15625,0.1652 0,0.1322 0.125,0.099 0.03125,-0.033 0.03125,-0.1983 -0.03125,-0.1652 z m 12.0625,0 -0.3125,0.3966 0.1875,0.1652 0,0.4295 0.125,0 0.1875,-0.066 0,-0.1321 0.21875,-0.1983 0.15625,0.1652 0,0.2644 0.1875,0 0.03125,-0.1983 0.1875,-0.033 0.125,0 0.0625,0.1322 0.0625,0 0.03125,-0.099 -0.125,-0.2974 -0.28125,-0.033 -0.0625,-0.1652 -0.0625,0 -0.15625,0.066 -0.4375,-0.033 -0.125,-0.066 0,-0.099 0.15625,-0.1322 -0.03125,-0.066 -0.125,0 z m -4.84375,0.066 -0.09375,0.1322 0.375,0.4956 0.125,-0.033 0.21875,0.2314 0.09375,-0.3966 0.21875,0.033 -0.03125,-0.1321 -0.34375,-0.3305 -0.09375,0.1983 -0.46875,-0.1983 z m -5.09375,0.033 -0.09375,0.1322 0,0.3635 0.09375,0.2313 0.0625,-0.033 0.125,-0.2313 -0.0625,-0.099 -0.03125,-0.2974 -0.09375,-0.066 z m 0.4375,0 -0.28125,0.066 0.03125,0.2313 0.0625,0.099 0.28125,-0.1652 -0.09375,-0.2313 z m 2.125,0 -0.4375,0.3305 -0.40625,0 -0.03125,0.2643 -0.4375,0 -0.1875,0.1652 0,0.099 0.125,0.099 0,0.099 -0.0625,0.1321 0.0625,0.099 0.125,-0.066 0.15625,0.1652 -0.03125,0.099 -0.0625,0.066 0.0625,0.099 0.40625,0.099 0.28125,-0.1322 0,-0.1652 0.15625,0.033 0.3125,0.1982 0.34375,-0.066 0.15625,-0.1653 0.09375,0.033 0,0.1983 0.15625,0 0.09375,-0.2644 1.03125,-0.099 0.46875,-0.066 -0.125,-0.1652 0,-0.2313 0.09375,-0.099 -0.34375,-0.2974 0.03125,-0.2313 -0.1875,0 -0.3125,-0.1322 -0.15625,0.1652 -0.625,0 -0.375,-0.2313 -0.375,-0.033 z m -1,0.033 -0.21875,0.099 0,0.2974 0.25,-0.099 0.09375,-0.066 -0.03125,-0.1322 -0.09375,-0.099 z m 3.40625,0.099 -0.3125,0.099 -0.03125,0.1982 0.34375,0.2974 0.25,0.066 0.125,-0.1322 -0.375,-0.5287 z m -3.6875,0.033 -0.15625,0.1322 -0.53125,-0.033 -0.3125,0.1982 -0.1875,0.2974 0,0.1322 0.34375,0.1652 0.1875,0.066 -0.09375,0.099 -0.1875,0.033 -0.03125,0.099 0.0625,0.1652 0.21875,0.1322 0.09375,0 0,-0.2974 0.15625,-0.1653 -0.40625,-0.4956 0.0625,-0.1652 0.09375,0 0.15625,0.099 0.09375,-0.033 0,-0.1653 0.4375,0 0,-0.2643 z m -7.0312501,0.099 -0.03125,0.6939 -0.15625,0.1322 0.03125,0.066 0.09375,0.1653 -0.0625,0.2313 0.09375,0.033 0.25,-0.033 -0.03125,-0.1983 0.15625,-0.9583 -0.03125,-0.1321 -0.3125,0 z m 29.3750001,0.1321 -0.21875,0.2313 0,0.2314 0.0625,0.066 0.28125,-0.2643 -0.03125,-0.2313 -0.09375,-0.033 z m -25.78125,0.033 -0.1875,0.099 0.03125,0.4296 0.15625,0.033 0.125,-0.1322 0,-0.3965 -0.125,-0.033 z m 12.5,0.1322 -0.15625,0.1652 0,0.1322 -0.25,0.099 -0.4375,0 -0.59375,0.6278 -0.53125,-0.033 0.125,0.9913 0.3125,0.066 0.03125,0.1983 -0.21875,0.1982 0.40625,0.3305 0.78125,-0.2974 0.0625,-0.3635 0.5,-0.3304 0.1875,-0.76 0.15625,-0.1653 -0.15625,-0.2643 0.5,-0.2974 -0.0625,-0.099 -0.25,0 0,0.2313 -0.3125,0 0,-0.2974 -0.09375,-0.1321 z m -4.84375,0.066 -0.09375,0.033 -0.15625,0.1983 -0.3125,-0.066 -0.09375,0.099 0.03125,0.1652 0.09375,0.1982 0.4375,0.4626 -0.0625,0.1983 -0.09375,0 -0.03125,0.1983 0.25,0.2974 0.21875,0.033 0.4375,0.6278 0.21875,0.033 0.21875,0.1322 0,0.2974 0.75,0.4626 0.28125,0 0.15625,-0.1653 0.21875,0 0.125,0.2974 0.8125,0.1322 0.03125,-0.3304 0.28125,-0.099 0,-0.099 -0.21875,-0.3304 -0.46875,-0.3966 0.25,-0.2313 -0.03125,-0.099 -0.3125,-0.066 -0.125,-1.1235 0,-0.2313 -0.875,-0.3635 -0.375,0.099 -0.1875,0.2643 -0.1875,0 -0.0625,0.033 -0.40625,-0.033 -0.53125,-0.3965 -0.1875,-0.2313 z m 17.46875,0.033 -0.125,0.1322 0.03125,0.1982 0.125,0 0.0625,0.4296 0.09375,0.099 0.15625,-0.1652 0.0625,-0.2644 -0.1875,-0.2973 -0.21875,-0.1322 z m -26.375,0.066 -0.125,0.066 0.03125,0.099 0.15625,0 0.09375,-0.066 -0.15625,-0.099 z m 14.65625,0.033 -0.09375,0.1322 -0.0625,0 -0.4375,0.2974 0.125,0.2643 -0.15625,0.1652 -0.1875,0.7931 -0.5,0.3304 -0.0625,0.3635 -0.8125,0.2974 0.21875,0.2974 -0.03125,0.1652 -0.25,0.1322 -0.03125,0.2643 0.3125,0 0.09375,-0.099 0.59375,0 0.53125,0.4957 0.0625,-0.2313 0.375,0 0,-0.2974 -0.375,-0.4296 0.0625,-0.1983 0.4375,-0.033 0.53125,-1.2226 -0.3125,-0.2643 -0.09375,-0.4296 0.75,-0.066 -0.4375,-0.6608 -0.25,-0.066 z m -12.375,0.3965 -0.375,0.066 0.03125,0.099 0.34375,0.1652 0.03125,0.066 0.09375,0.033 0,-0.3635 -0.125,-0.066 z m -7.9687499,0.1652 -0.03125,0.099 0.0625,0.066 0.15625,-0.099 -0.1875,-0.066 z m 14.0624999,0 -0.4375,0.066 -0.125,0.6278 -0.5,0.4296 0.03125,0.1983 0.5,0.033 0.78125,0.6608 0.4375,0 0,-0.1652 0.15625,-0.1652 0.21875,0.1322 0.03125,-0.033 -0.40625,-0.5948 -0.21875,-0.033 -0.28125,-0.3635 0.0625,-0.2643 0.09375,0 0.03125,-0.1322 -0.375,-0.3965 z m -6.90625,0.066 -0.40625,0.1652 0.125,0.5948 -0.15625,0.099 0.03125,0.2643 0.28125,0.2974 0,0.2974 0.0625,0.099 0.125,-0.033 0,-0.2974 0.09375,0 0.21875,-0.3635 -0.28125,-0.1321 0,-0.066 0.0625,-0.1322 0,-0.2974 -0.0625,-0.033 0,-0.1652 0.0625,-0.099 0,-0.099 -0.15625,-0.099 z m 6.40625,0 -0.96875,0.099 -0.125,0.2313 -0.1875,0 -0.03125,0.1983 0.21875,0.099 0,0.5618 0.21875,0 0.1875,-0.1652 0.09375,-0.033 0.5,-0.3966 0.09375,-0.5947 z m -7.21875,0.066 -1.3125,0.2644 -0.2812501,0.2313 0.1875001,0.9582 -0.5312501,0.033 -0.3125,0.5287 -0.75,0.1652 0,0.3966 2.4687501,1.9826 0.40625,0.033 1.40625,-1.1567 -0.15625,-0.1652 -0.25,-0.033 -0.15625,-0.2974 0,-1.1565 -0.09375,-0.099 0,-0.2974 -0.28125,-0.2974 -0.03125,-0.3304 0.125,-0.066 -0.0625,-0.3635 -0.0625,-0.1983 -0.3125,-0.1321 z m 14.71875,0.099 -0.71875,0.066 0.09375,0.3304 0.34375,0.2974 -0.59375,1.2887 -0.40625,0.033 -0.0625,0.1322 0.40625,0.3965 -0.03125,0.3965 -0.40625,-0.033 -0.03125,0.1983 0.3125,0 0.03125,0.1322 -0.25,0.1321 0.15625,0.3305 0.28125,0.099 0.1875,-0.1652 0.09375,-0.2313 0.09375,-0.066 0.125,0.1322 -0.03125,0.3304 -0.09375,0.1652 0.03125,0.2644 1.25,2.7756 0.375,-0.1982 0.1875,-0.7931 0,-0.9913 1.21875,-1.3548 0,-0.3304 0.21875,-0.099 0,-0.3965 -0.25,-0.5287 0.15625,-0.2974 0.3125,0.3304 0.4375,0 0,0.1983 -0.125,0.1322 0.03125,0.099 0.21875,0 0.03125,0.2643 0.09375,0 0.15625,-0.2974 0.09375,-0.8591 0.28125,-0.2313 0,-0.2974 -0.09375,-0.2313 -0.1875,0 -0.71875,0.4956 0.0625,0.3305 -0.5,0 -0.1875,-0.2313 -0.09375,0 0.03125,0.3304 -1.0625,-0.099 -0.6875,-0.2974 -0.03125,-0.3965 -0.4375,-0.2974 0,-0.5948 -0.3125,-0.3635 z m -9.0625,0.2313 -0.21875,0.099 -0.21875,0.033 0,0.1321 0.09375,0.066 0.15625,0.033 0.28125,-0.2974 -0.09375,-0.066 z m -3.90625,0.033 -0.125,0.033 0,0.1322 0.125,0.066 0.0625,-0.066 -0.0625,-0.1652 z m 1.875,0 -0.0625,0.099 0.09375,0.033 0.0625,0.099 0.34375,0 0.09375,-0.1322 -0.0625,-0.033 -0.09375,0.033 -0.1875,0 -0.0625,-0.099 -0.125,0 z m -6.1562501,0.1652 -0.1875,0.3965 -0.40625,0.1982 -0.3125,0.9583 -0.6562498,0.3965 -0.90625,1.5861 0.875,-0.033 0.03125,-0.4626 0.25,0 0,-0.6278 0.7812498,0 0,-0.8261 0.75,-0.1652 0.34375,-0.5287 0.4687501,-0.033 -0.1562501,-0.8592 -0.875,0 z m 8.4375001,0 0,0.1652 -0.0625,0.2313 0.21875,0.033 0,-0.3635 -0.15625,-0.066 z m -10.6562499,0.3304 -0.09375,0.099 0.09375,0.099 0.125,-0.066 -0.125,-0.1322 z m 10.5624999,0.1322 -0.09375,0.3965 0.15625,0.4956 0.15625,-0.7269 0,-0.1322 -0.21875,-0.033 z m 0.75,0.033 -0.21875,0.1652 -0.25,0.033 -0.1875,0.6939 0,0.099 0.28125,0 0.34375,-0.3305 0,-0.099 -0.125,-0.1653 0.25,-0.1982 -0.03125,-0.1983 -0.0625,0 z m -5.3125,0.033 -0.25,0.4295 -0.0625,0 -0.03125,0.2974 -0.125,0 0,1.1235 0.125,0.2644 0.28125,0.033 0.15625,0.2311 0.65625,0.1652 0.15625,-0.099 1.59375,0.8592 0.25,0.033 -0.03125,-3.0071 -0.34375,-0.066 -0.1875,-0.2313 -0.4375,0 -0.21875,0.1983 0,0.099 0.125,0.1322 0.03125,0.1322 -0.3125,0.1652 -0.59375,-0.2974 -0.15625,-0.2643 -0.625,-0.1983 z m 5.46875,0.1982 -0.21875,0.1983 0.09375,0.099 0,0.1652 -0.375,0.3635 -0.3125,0 0.0625,0.2313 1.0625,1.3548 0,0.3634 0.09375,0.1652 0.28125,0.1653 0.4375,0.7269 0.3125,-0.2974 0.5,0.3305 0.4375,-0.4296 0.78125,-0.2643 0.5625,-0.3305 0.09375,-0.4626 -0.09375,-0.033 -0.84375,-0.066 -0.0625,-0.3635 -0.1875,-0.1652 -0.53125,-0.793 -0.375,-0.1322 -0.03125,-0.1322 -0.46875,0.033 -0.78125,-0.6939 -0.4375,-0.033 z m 9.1875,0 -0.375,0.099 0.03125,0.3304 0.625,0.2974 1,0.099 -0.03125,-0.2643 -0.6875,-0.1983 -0.5625,-0.3635 z m -10.84375,0.066 -0.25,0.1983 -0.1875,0 -0.40625,-0.1322 -0.1875,0 0.03125,2.4452 1.96875,0.033 0.21875,-0.2643 -0.03125,-0.3966 -0.71875,-0.9582 -0.09375,-0.2974 0.03125,-0.1983 0.125,0.033 0.15625,0.5287 0.125,0.066 0.0625,-0.066 -0.03125,-0.2313 -0.0625,-0.1652 -0.15625,-0.4956 -0.03125,0 -0.25,0 -0.21875,-0.099 -0.09375,0 z m 13.9375,0.1652 0,0.3305 -0.28125,0.1982 -0.09375,0.8592 -0.1875,0.3304 -0.03125,0.3965 -0.125,0.066 0.53125,0.5287 0.125,0.2643 0.0625,0.3305 0.0625,0.099 0.1875,0 0.125,-0.2644 0.0625,-0.099 0.21875,0.4296 0.03125,0.4626 0.125,0.033 0.15625,0.2974 -0.15625,0.2313 0.21875,0.3635 0.0625,-0.1983 0,-0.4626 -0.28125,-0.4626 -0.03125,-0.099 0.09375,-0.099 0,-0.2974 -0.40625,-0.5619 0.0625,-0.3634 0.53125,-0.2313 0.125,-0.2313 -0.4375,-0.066 -0.0625,-0.3966 -0.3125,-0.1321 -0.125,-0.3305 0.1875,-0.4626 -0.28125,-0.3965 -0.15625,-0.066 z m -10.40625,0.1322 -0.125,0.1322 0,0.2643 0.28125,0.099 0,-0.3965 -0.15625,-0.099 z m 9.28125,0.1322 -0.46875,0.066 0.09375,0.1652 0.40625,0 -0.03125,-0.2313 z m 6.625,0.066 -0.28125,0.2313 0,0.4295 0.21875,0.2644 0.0625,-0.033 0,-0.8922 z m -29.5312499,0.3304 -0.125,0.099 0.15625,0.1322 0.09375,-0.1983 -0.125,-0.033 z m 22.4374999,0.066 -0.09375,0.1982 0.25,0.5287 0,0.3966 0.0625,0.099 0.3125,0.033 0.15625,-0.1982 0.125,0.099 0.03125,0.2313 0.125,-0.066 0,-0.2974 -0.09375,-0.033 -0.0625,-0.2644 -0.21875,0 -0.03125,-0.1651 0.125,-0.1652 0,-0.099 -0.375,0 -0.3125,-0.2974 z m -21.5624999,0.033 -0.15625,0.099 0.0625,0.066 0.09375,-0.1653 z m -0.5,0.033 -0.15625,0.033 0.09375,0.1322 0.125,0 -0.0625,-0.1653 z m 14.2499999,0.3304 -0.125,0.099 -0.03125,0.2974 0.125,0.099 0.09375,0 0.03125,-0.3965 -0.09375,-0.099 z m 1.0625,0.033 -0.25,0.066 -0.28125,0.4296 -0.53125,0.033 0.0625,0.2974 0.75,0.066 0.0625,-0.5948 0.125,-0.066 0.0625,-0.2313 z m -13.6562501,0.033 0,0.3305 -0.78125,0 0,0.6278 -0.2499998,0 -0.03125,0.4626 -0.9375,0.033 0.15625,0.2313 -0.03125,0.9913 0.25,-0.1652 0.1875,-0.033 0.25,0.066 0.25,0.4295 0.2812498,-0.1982 1.28125,0 -0.3125,-2.247 0.3125,0 -0.625,-0.5287 z m 23.8125001,0.1322 -0.28125,0.1652 0.09375,0.3965 0.375,0.066 0.09375,0.2974 -0.125,0.099 0,0.066 0.90625,0.9252 0.03125,0.2644 -0.0625,0.826 -0.625,0.4957 0.09375,0.1322 0.03125,0.1652 0.21875,0.033 0.3125,-0.3965 0.28125,-0.099 0.125,-0.3965 -0.0625,-0.6942 -0.28125,-0.4296 -0.3125,-0.2313 -0.375,-0.6939 0.28125,-0.4957 -0.40625,-0.4626 -0.3125,-0.033 z m -10.1875,0.1322 -0.125,0.066 -0.03125,0.5287 0.125,0.066 -0.09375,0.5287 -0.59375,0.3305 0.3125,0.5617 0.375,0 0.84375,-1.3217 0,-0.1983 -0.6875,-0.3965 -0.125,-0.1652 z m 9.84375,0.066 -0.15625,0.099 -0.15625,0.4957 0.25,0.3304 -0.0625,0.3965 0.0625,0 0.4375,-0.1982 0.5625,0.6609 0,0.4295 0.125,0.099 0.3125,-0.2643 -0.03125,-0.2313 -0.90625,-0.8922 0,-0.1322 0.125,-0.099 -0.0625,-0.2313 -0.375,-0.066 -0.125,-0.3965 z m -23.0937501,0.2643 0.3125,2.247 -1.3125,0 -0.2499998,0.1652 0.2812498,0.3965 -0.03125,0.1322 0.4375,-0.033 0.15625,0.4294 0.5625,0 0.15625,-0.4626 0.8125001,-0.6279 1.0625,-0.099 0.0625,-0.76 -0.21875,-0.033 -1.6875001,-1.3548 -0.34375,0 z m 3.9375001,0.2313 -1.40625,1.1896 -0.21875,-0.033 -0.0625,0.793 -0.71875,0.099 0.40625,0.6609 0.1875,-0.033 0.1875,-0.2644 0.3125,-0.066 0.3125,0.1983 0.65625,0.033 0.53125,-0.2313 0.1875,-0.1652 0.03125,-0.2313 0.375,-0.3966 0.09375,-0.8591 -0.25,-0.5287 -0.625,-0.1652 z m 0.875,0.066 -0.1875,0.099 0.25,0.4956 -0.09375,0.9253 -0.375,0.3634 0,0.2644 -0.1875,0.1652 0.25,0.1983 0.1875,0.033 0,0.5947 -0.125,0.099 -0.03125,0.099 0.125,0.066 0.15625,0.3304 0.25,0.033 0,-0.099 0.40625,0.033 0,-0.1982 0.5625,-0.5618 0.34375,0 -0.1875,-0.3965 0,-0.4626 0.28125,-0.2643 0,-0.8922 -1.625,-0.9252 z m 20.1875,0.033 -0.1875,0.066 -0.15625,0.1652 0.125,0.2313 0.15625,0 0.1875,-0.1652 0.03125,-0.2313 -0.15625,-0.066 z m -16.03125,0.033 -0.28125,0.2974 -2,0 0.03125,0.5287 -0.1875,0 -0.03125,0.9583 -0.28125,0.2643 0,0.3965 0.1875,0.4296 0.25,0.1322 -0.03125,0.2643 -0.09375,0.066 0.9375,1.0243 0.53125,0.033 0.0625,0.099 0.75,0.033 0,-0.1652 0.0625,-0.1322 0.25,-0.033 -0.3125,-0.4626 -0.21875,0 -0.0625,-0.3304 0.1875,-0.099 0.53125,-1.1896 0,-0.6608 0.34375,-0.3965 -0.625,-1.0574 z m 13.71875,0 -0.5,0.1983 -0.03125,0.3304 0.40625,0.5287 0,0.3635 -0.09375,0.099 0.03125,0.033 0.28125,0.4626 0,0.5287 -0.125,0.2313 -0.03125,0.1652 -0.09375,0.1982 0.0625,0.2313 0.25,0.2313 0.21875,0 0.1875,0.2974 0.21875,0 0.03125,-0.099 -0.40625,-0.43 -0.25,-0.4295 0.03125,-1.0244 0.0625,-0.099 0.15625,0 0,0.2313 0.34375,0.2644 0.125,-0.066 0,-0.1983 -0.15625,-0.066 -0.03125,-0.1982 0.1875,-0.2974 0.09375,0 0.15625,0.066 0.15625,0.033 0,-0.3965 -0.46875,-0.5618 -0.0625,-0.033 -0.40625,0.1983 -0.09375,-0.033 0,-0.4296 -0.25,-0.3304 z m 4.71875,0.1983 -0.1875,0.1321 -0.03125,0.4957 0.3125,0.6278 0.125,0.099 0.125,-0.099 0.21875,0.033 0.0625,0.1983 0.15625,0.033 0.09375,-0.1322 -0.125,-0.1322 -0.125,-0.1321 -0.25,-0.033 -0.15625,-0.2313 0.15625,-0.2644 0.03125,-0.2313 -0.125,-0.2974 -0.28125,-0.066 z m -14.9375,0.6605 -0.75,0.2644 -0.4375,0.4295 -0.5,-0.2974 -0.28125,0.2644 0.125,0.3635 0,0.3304 0.125,0.1652 0.125,0.099 1.875,-0.8261 0.03125,-0.2313 -0.3125,-0.5617 z m -1.71875,1.52 -0.125,-0.066 -0.15625,0.1983 -0.03125,0.2974 0.28125,0 0.03125,-0.4296 z m -1.125,-1.2556 -0.3125,0.3634 0.03125,0.4627 0.5625,0 0.53125,0.4956 0.125,-0.1652 -0.71875,-0.5618 -0.15625,-0.5286 -0.0625,-0.066 z m 14.03125,0.3965 -0.0625,0.033 -0.15625,0.2643 0.03125,0.1322 0.15625,0.066 -0.03125,0.2643 -0.09375,0.066 0.3125,0.3635 0.59375,-0.4626 0.03125,-0.727 -0.28125,0.2314 -0.15625,-0.099 -0.21875,-0.033 -0.125,-0.099 z m -25.4687499,0.066 -0.15625,0.033 -0.3125,0.2313 -0.0625,0.1322 -0.03125,0.1321 0.125,0.066 0.375,0 0.25,-0.066 0,0.1322 0,0.1652 0.21875,0.099 0.0625,0.066 0.2812498,0 0.03125,-0.1322 -0.2812498,-0.3635 -0.3125,-0.4295 -0.1875,-0.066 z m 29.3437499,0 0.0625,0.2313 0.09375,0.066 0.0625,-0.099 -0.125,-0.1652 -0.09375,-0.033 z m -31.2499999,0.033 -0.125,0.099 0.09375,0.099 0.125,-0.066 -0.09375,-0.1321 z m 0.375,0.1982 -0.09375,0.066 0.0625,0.1322 0.15625,-0.066 -0.125,-0.1322 z m 31.8749999,0 -0.1875,0.033 0.15625,0.1983 0.0625,0.1983 0.125,0 -0.03125,-0.3306 -0.125,-0.099 z m -27.09375,0.099 -0.28125,0.033 -0.8125001,0.6278 -0.125,0.4296 0.09375,0.1322 0.34375,-0.033 0.09375,-0.2313 0.4062501,-0.033 0.3125,0.099 0.40625,-0.3305 -0.4375,-0.6938 z m 26.4375,0.099 -0.03125,0.3965 0.15625,0.1652 0.03125,0.2644 0.15625,0.033 0.0625,-0.1652 -0.09375,-0.099 -0.03125,-0.4957 -0.25,-0.099 z m -31.4374999,0.033 -0.125,0.099 0.125,0.1652 0.125,-0.033 -0.125,-0.2313 z m 12.9062499,0 -0.5625,1.3217 -0.1875,0.033 0.03125,0.2644 0.21875,0 0.34375,0.5287 0.1875,0.066 0.4375,0.3965 0.25,0 1,-0.3304 0.71875,-0.8261 -0.375,0 -0.625,-0.3966 -0.03125,-0.2313 -0.40625,0 0.03125,-0.3965 -0.46875,-0.4295 -0.5625,0 z m -11.0312499,0.1322 -0.15625,0.066 -0.375,0.033 0,0.066 0.53125,0 0.03125,-0.099 -0.03125,-0.066 z m 29.9374999,0 0,0.3634 0.09375,0.1322 0.125,-0.1652 -0.03125,-0.3304 -0.1875,0 z m -1,0.033 -0.0625,0.1321 -0.03125,0.1653 -0.375,0.4626 0.03125,0.1321 0.15625,-0.033 0.46875,-0.5617 -0.1875,-0.2974 z m -24.65625,0.066 -0.25,0.066 -0.125,0.2314 0,0.6278 -0.21875,0.2974 0,0.4626 0.3125,0.033 0.34375,0.4295 0.1875,0.033 0.125,-0.066 0.21875,-0.033 0.0625,-0.2974 0.3125,-0.1983 0.3125,-0.033 0.5625,-1.0904 -0.03125,-0.2644 -0.25,-0.1982 -0.53125,0.2313 -0.6875,0 -0.34375,-0.2314 z m 10.40625,0 -0.1875,0.066 -0.1875,0.033 0.1875,0.1983 0.21875,-0.1652 0.0625,-0.033 -0.09375,-0.099 z m -15.2187499,0.1321 0.09375,0.2644 0.03125,-0.1652 0.65625,0.066 -0.28125,-0.1322 -0.5,-0.033 z m 6.6874999,0.099 0,0.2644 -0.5625,1.1234 -0.34375,0.033 -0.25,0.1653 -0.0625,0.2973 0.25,0.2314 -0.03125,0.3634 1.375,-0.033 0.09375,-0.1321 -0.375,-0.4296 -0.0625,-0.1652 0.25,-0.4957 -0.15625,-0.3304 -0.15625,-0.066 0,-0.1652 0.15625,-0.1322 0.03125,-0.4956 -0.15625,-0.033 z m -6.4999999,0.066 -0.0625,0.1983 0.125,0.2313 0.28125,-0.2974 0,-0.066 -0.34375,-0.066 z m 14.4062499,0 -0.3125,0.1652 0.0625,0.2974 -0.0625,0.2974 -0.1875,0.1652 -0.78125,0.8922 -0.5625,0.1652 -0.25,0.3304 0.03125,0.7931 0.1875,0.1322 1.6875,-1.8835 0.3125,-0.9583 0,-0.2974 -0.125,-0.099 z m 16.25,0 0.03125,0.2644 -0.25,0.1982 -0.21875,0.033 -0.25,0.2644 0.03125,0.099 0.1875,-0.066 0.15625,-0.099 0.125,0.3304 0.21875,0.1652 0.09375,-0.033 0.09375,-0.099 -0.1875,-0.1652 0.09375,-0.099 0.125,0.099 0.09375,-0.1321 -0.09375,-0.1653 0,-0.3965 -0.25,-0.1982 z m -30.2499999,0.033 0,0.1652 -0.3125,0.2644 0.21875,0.3965 0.3125,-0.2974 0.3124998,0 0.25,0.3635 0.21875,0.1652 0.09375,-0.1983 0.0625,-0.033 0,-0.3634 -0.125,-0.4627 -0.46875,0.066 -0.5624998,-0.066 z m 3.5937499,0 -0.34375,0.2644 0.15625,0.2973 0,0.8261 0.15625,0 0,-0.4956 0.21875,-0.3305 0,-0.5287 -0.1875,-0.033 z m 10.03125,0.1322 -0.78125,0.2974 -0.09375,0 -0.3125,-0.2313 0,0.2313 0.59375,0.3634 0.4375,0.033 0.15625,-0.1321 0.0625,-0.2644 -0.0625,-0.2974 z m -10.84375,0.1652 -0.3750001,0.033 -0.125,0.8591 0.09375,0.1983 0.21875,0.3635 0.1250001,0 0.34375,-0.1983 -0.03125,-1.1565 -0.25,-0.099 z m 0.40625,0.033 -0.0625,0.066 0,1.1235 0.21875,-0.1322 0,-0.8261 -0.15625,-0.2253 z m 4.46875,0 -0.5,0.5287 -0.03125,0.2313 -0.40625,-0.033 0,0.099 -0.28125,-0.033 -0.25,0.4956 0.0625,0.1322 0.34375,0.3965 0.15625,-0.1652 0.21875,0 0.0625,-0.1983 0.21875,-0.1321 0.46875,0.3304 0.25,-0.2974 1.03125,0.066 -0.9375,-1.0574 0.125,-0.066 0,-0.1982 -0.21875,-0.099 -0.3125,0 z m 12.96875,0.066 -0.125,0.066 0.03125,0.1982 0,0.1653 -0.09375,0.033 0.03125,0.3634 0.1875,0.099 0.25,-0.1652 -0.0625,-0.3965 0.03125,-0.1322 -0.25,-0.2313 z m -19.2187501,0.033 -0.1875,0.033 0.03125,0.4296 -0.09375,0.033 -0.125,0.1982 0.28125,0.3304 0.03125,0.5287 0.34375,-0.2643 0.40625,-0.066 0.40625,0.099 -0.21875,-0.3635 -0.0625,-0.1983 0.0625,-0.6278 -0.375,0.033 -0.15625,-0.1652 -0.34375,0 z m -0.90625,0.1652 -0.2812498,0.033 -0.28125,0.2313 0.4375,0.4296 0.3124998,-0.3966 -0.1875,-0.2973 z m 27.9375001,0.2313 -0.25,0.4626 0.09375,0.2644 -0.15625,0.2313 -0.25,-0.099 -0.65625,0.5287 0.03125,0.2643 -0.3125,0 0.25,0.2644 0.875,-0.2974 0.1875,-0.727 0.40625,-0.033 0.34375,-0.2974 -0.46875,-0.3634 -0.09375,-0.1983 z m -27.6875001,0.1322 -0.3124998,0.3965 0.8437498,0.5948 -0.03125,-0.4626 -0.25,-0.2974 -0.25,-0.2313 z m 23.7812501,0.099 0.15625,0.3634 0.03125,0.4626 0.1875,0.3635 0.5,0.2974 0.1875,0.033 -0.03125,-0.3304 -0.15625,-0.4296 -0.25,-0.5287 0,0.099 -0.3125,-0.033 -0.1875,-0.2974 -0.125,0 z m -0.8125,0.1652 0,0.1982 0.53125,0.9252 0.125,0 1.09375,1.9166 0.4375,0.066 0.21875,-0.694 -0.34375,-0.2313 -0.0625,-0.3634 -2,-1.8174 z m 4.4375,0.1321 -0.21875,0.2974 0.15625,0.066 0.125,-0.1652 -0.0625,-0.1983 z m -9.53125,0.1322 0.03125,0.1983 0.125,0.066 0.03125,-0.1983 -0.1875,-0.066 z m -7.8125,0.1652 -0.28125,0.033 -0.03125,0.066 0,0.1983 0.21875,0.4295 -0.25,0.5287 -0.03125,0.1653 1.21875,0.826 0.375,-0.6278 -0.1875,-0.1652 0,-0.8591 0.25,-0.2644 -0.40625,0.1322 -0.28125,0 -0.46875,-0.3965 -0.125,-0.066 z m -3.5625,0.066 -0.1875,0.1322 -0.09375,1.0574 -0.3125,0.2313 -0.09375,0.2313 0.03125,0.3304 -0.5625,0.4626 -0.125,-0.066 0.03125,0.066 -0.1875,0.1653 0.8125,0 0.15625,0.2313 0,0.1652 0.0625,0.066 0.375,0 0.125,-0.2313 0.15625,0 0.0625,0.066 0.21875,0 0.0625,0.826 0.40625,0 0,0.066 1.03125,0.4957 0.03125,0.099 0.21875,0 -0.03125,-0.3635 -0.375,-0.1983 0.03125,-0.2643 0.15625,-0.3965 0.375,0 -0.3125,-1.1566 0,-0.4956 0.5,-0.8591 0.03125,-0.1322 -0.09375,-0.033 0,-0.2313 -0.09375,0 -0.09375,-0.1322 -1.5625,-0.099 -0.28125,0.2974 -0.46875,-0.3304 z m 21.34375,0.033 -0.28125,0.033 -0.1875,0.6938 -0.96875,0.3635 -0.28125,-0.3635 -0.15625,0.033 0.25,1.0574 0.40625,0.066 0.53125,0.1982 0,0.2313 0.21875,-0.066 0.375,-0.4956 0,-0.4296 0.1875,-0.4296 0.21875,0.066 -0.25,-0.5947 -0.0625,-0.3635 z m -9.78125,0.1652 -0.03125,0.2644 0.09375,0.066 0.09375,-0.1652 -0.15625,-0.1653 z m -8.96875,0.066 -0.03125,0.1652 0.09375,0.099 0,0.1652 -0.375,0.5618 0.25,0.2313 0.125,-0.099 0.40625,-0.066 0.0625,0 0.03125,-0.1652 0.21875,-0.4957 -0.1875,-0.3965 -0.59375,0 z m -5.03125,0.033 -0.0625,0.1652 0.125,0.066 0.09375,-0.099 -0.03125,-0.1322 -0.125,0 z m 1.9375,0.033 -0.25,0.3635 -0.625,0.033 0,0.099 0.375,0.033 0,0.9913 -0.3125,0 -0.1875,-0.1652 -0.15625,0.099 -0.03125,0.033 0.09375,0.033 0.03125,0.2313 -0.21875,0.1652 0.03125,0.099 0.25,-0.1653 0.09375,0 0.03125,0.099 0.15625,0.066 0.46875,-0.4296 0,-0.2973 0.09375,-0.2314 0.3125,-0.2643 0.0625,-0.793 -0.21875,0 z m 24.0625,0.2313 -0.15625,0.3635 0.21875,0.3304 0.09375,0 0.09375,-0.2313 0.0625,-0.066 -0.125,-0.099 -0.125,-0.066 L 38.125,1032 z m -0.5,0.066 -0.28125,0.2644 -0.1875,0 -0.28125,-0.1652 -0.21875,0.033 -0.21875,0.3635 -0.15625,0.6939 -0.0625,0.2644 0.15625,0.2313 -0.09375,0.3304 0,0.066 0.25,0 0.09375,-0.8591 0.09375,0.033 0.125,0.76 0.15625,0.066 0.125,-0.3305 -0.125,-0.5287 -0.125,-0.1982 0.375,-0.2644 -0.09375,-0.1321 -0.34375,0.2313 -0.09375,0 -0.15625,-0.2644 0.0625,-0.099 0.28125,-0.1652 0.40625,0.1322 0.125,0 0.34375,-0.2974 -0.15625,-0.1652 z m -25.1875,0.099 0,0.1322 0.34375,0 0,-0.1322 -0.34375,0 z m 0.40625,0 0,0.1983 -0.4375,0 -0.28125,0.5287 0.625,0.7269 0.15625,-0.1322 0,-0.1321 -0.09375,-0.066 0,-0.099 0.21875,-0.1652 0.21875,0.1982 0.25,0 0,-0.8591 -0.375,-0.033 0,-0.1652 -0.28125,0 z m 13.28125,0 -0.0625,0.099 0.09375,0.066 0.125,-0.066 -0.15625,-0.099 z m -14.3125,0.066 0.0625,0.1322 0.0625,0.033 0.0625,-0.099 -0.0625,-0.066 -0.125,0 z m -0.09375,0.2643 -0.0625,0.033 0,0.099 0.0625,0.033 0.0625,-0.099 -0.0625,-0.066 z m 27.75,0.2313 -0.3125,0.033 -0.1875,0.1653 0.0625,0.1652 0.34375,0.066 0,0.066 -0.21875,0.1982 0.125,0.3965 0.09375,0 0.09375,-0.3965 0.1875,0 0.0625,0.3965 0.84375,0.727 0,0.5617 0.3125,0.3305 0.125,0 0.03125,-2.0157 -0.5,-0.3635 -0.46875,0.3305 -0.15625,0.099 -0.28125,-0.1653 0,-0.5947 -0.15625,0 z m -22.65625,0.033 -0.125,0.1983 0,0.2313 0.34375,0 0,-0.2313 -0.21875,-0.1983 z m 0.8125,0.033 -0.375,0.099 -0.15625,0.099 0,0.2313 -0.09375,0.3635 -0.09375,0.099 -0.15625,0.033 0.28125,0.9252 0.40625,0.2313 0.3125,0 0,0.066 -0.25,0 0.125,0.5948 -0.09375,0.4295 0.25,0.2974 0,0.3305 0.03125,0.1321 0.3125,-0.3634 -0.03125,-0.4627 -0.15625,-0.1321 0,-0.066 -0.09375,-0.3635 1.28125,-0.1652 -0.28125,-0.6278 -0.03125,-0.5948 0.09375,-0.2974 -1.28125,-0.8591 z m 0.3125,2.9079 0.21875,0.1652 0.0625,0.5287 -0.4375,0.4626 -0.09375,-0.2644 0,-0.3304 -0.21875,-0.2643 -0.625,0.2974 0.5625,0.2973 0.03125,0.8592 -0.375,0.5948 0,0.6939 0.21875,0.1982 0.46875,-0.3304 0.09375,-0.4626 0,-0.76 0.78125,-0.6939 0.125,0 0.5,-0.4626 -0.09375,-0.9913 -1.25,0.1652 0.03125,0.2974 z m 20.625,-2.4783 -0.3125,0.066 -0.09375,0.099 0.09375,0.1322 0.1875,-0.066 0.125,-0.099 0.1875,0.1652 0.09375,-0.066 -0.15625,-0.1982 -0.125,-0.033 z m -21.5625,0.033 -0.3125,0.033 0,0.1653 0.0625,0.1982 0.09375,0 0.09375,-0.066 L 17,1033.255 z m 24.09375,0.1983 -0.03125,1.9826 0.28125,0 0.34375,-0.4626 0.3125,0.033 0.1875,0.1652 0.0625,0.5618 0.59375,0.3634 0.15625,-0.066 0,-0.2313 -0.46875,-0.4296 -0.25,-0.5948 0.1875,-0.099 -0.125,-0.2974 -0.3125,-0.033 -0.0625,-0.3305 -0.75,-0.5617 -0.125,0 z m -18.65625,0.066 -0.125,0.099 0.09375,0.1652 0.15625,0 -0.125,-0.2644 z m -9.375,0.1652 -0.1875,0.1652 0.125,0.1983 0.15625,-0.1983 -0.03125,-0.1652 -0.0625,0 z m 9.4375,0.2644 -0.09375,0.099 0.0625,0.1322 0.125,0.033 0.03125,-0.2643 -0.125,0 z m -8.65625,0.1652 -0.8125,0.033 0.25,1.0243 0,0.3305 -0.375,0.4295 -0.0625,0.727 1.46875,0 0.46875,0.1982 0.40625,-0.066 -0.21875,-0.2974 0,-0.8922 0.4375,-0.033 0,-0.3304 -0.375,0 -0.0625,-0.8261 -0.15625,0 -0.09375,-0.066 -0.09375,0 -0.09375,0.2643 -0.46875,0 -0.125,-0.1322 0.03125,-0.1652 -0.125,-0.1982 z m 19.5625,0.1322 -0.21875,0.1652 0.0625,0.1321 0.65625,0.1653 0.34375,0.066 0.15625,0.1653 0.375,0.033 0.1875,0.1652 0.15625,-0.066 0.15625,-0.1322 -0.28125,-0.1322 -0.21875,-0.2313 -0.65625,-0.1652 -0.71875,-0.1652 z m -11.625,0.033 -0.03125,0.099 0.125,0.099 0.09375,-0.099 -0.1875,-0.099 z m 21.21875,0.073 -0.28125,0.066 0.03125,0.1652 0.25,-0.033 0,-0.1982 z m -26.0625,0.2974 -0.34375,0.033 -0.15625,0.3966 0,0.1652 0.40625,0.1982 0.03125,0.4296 -0.34375,0.033 -0.09375,-0.1321 -0.9375,-0.4296 -0.03125,0.3304 -0.4375,0 0,0.76 0.21875,0.3305 0.375,0.033 0.15625,0.099 0.375,0 0.34375,-0.5286 0.96875,-0.4296 0.09375,-0.3965 -0.125,-0.5948 -0.5,-0.2974 z m 18.96875,0.2313 0.03125,0.1653 0.15625,0.066 0.09375,-0.099 -0.09375,-0.1322 -0.1875,0 z m -0.28125,0.099 -0.1875,0.099 0.09375,0.099 0.25,-0.099 -0.15625,-0.099 z m 0.84375,0 -0.09375,0.066 -0.03125,0.099 0.34375,0.033 0.25,-0.1652 -0.15625,-0.033 -0.21875,0.066 -0.09375,-0.066 z m 1.03125,0.099 -0.40625,0.3635 0.03125,0.099 0.1875,-0.033 0.1875,-0.1983 0.375,-0.066 -0.0625,-0.1322 -0.3125,-0.033 z m -17.625,0.2313 0.03125,0.1322 0.15625,0.033 0.0625,-0.1652 -0.25,0 z m 16.4375,0 -0.21875,0.033 0.21875,0.1652 0.125,0 -0.125,-0.1982 z M 21,1035.4426 l -0.15625,0.4295 -0.28125,0.5287 -0.5,0.033 -0.1875,0.2644 0.03125,0.793 -0.3125,0.3965 0.03125,0.6279 0.25,0.2974 0.3125,-0.033 0.3125,-0.2313 -0.0625,-0.3635 0.6875,-1.2887 -0.125,-0.1652 0.125,-0.3305 0.15625,0.066 0.0625,-0.1321 -0.15625,-0.6279 -0.09375,-0.2643 -0.09375,0 z m -0.6875,0.099 -0.21875,0.033 0.0625,0.1321 0.09375,0 0.0625,-0.1652 z m 18.875,0.5947 -0.78125,0.2313 -0.21875,0.6609 -0.34375,0.099 -0.03125,-0.4626 -1.46875,0.9252 0.03125,0.3304 -0.21875,0.3305 -0.53125,0 -1.1875,0.5287 -0.40625,1.1566 -0.03125,2.0818 -0.3125,0.2313 0,0.1982 0.40625,0.2974 1,-0.1982 0.53125,0 0.1875,-0.2974 1.15625,-0.2313 0.8125,0.2643 -0.0625,0.3305 0.125,0.3634 0.625,-0.1321 0.03125,0.1982 -0.4375,0.2974 0.15625,0.1322 0.28125,-0.1322 -0.0625,0.9913 0.5625,0.4626 0.34375,-0.1321 0.15625,0.1652 0.96875,-0.1322 0.875,-1.553 0.34375,-0.066 0.65625,-1.2887 0.15625,-1.1235 -0.40625,-0.5287 0.15625,-0.1322 -0.3125,-1.0904 -0.375,-0.2644 0.0625,-1.4539 -0.3125,-0.2643 -0.09375,-0.7931 -0.15625,0 -0.5625,1.9166 -0.28125,0.033 -0.6875,-0.727 0.375,-1.0904 -0.71875,-0.1322 z m -22.40625,0.1984 -0.21875,0.099 -0.34375,0.4957 -0.4375,0 0,0.099 0.71875,0.8261 0.53125,0.1652 0.34375,-0.5948 -0.03125,-0.793 -0.5625,-0.2974 z m -3.96875,0.3965 0.0625,0.4296 0.46875,0.7269 -0.09375,0.3966 0,0.1982 0.375,0.9583 0.25,0.033 0.15625,0.1652 0.375,0 0.09375,-1.0904 0,-0.6939 0.21875,-0.033 0.09375,-0.76 0.59375,0 0.1875,-0.1983 -0.34375,0 -0.46875,0.066 -0.53125,-0.1983 -1.4375,0 z m 2.84375,0.1652 -0.21875,0.1983 -0.5625,0.033 -0.09375,0.727 -0.21875,0.066 0,0.6608 0.15625,0.066 -0.03125,0.4957 0.1875,0.033 0.375,-0.3966 0.46875,0.066 0.125,-0.3304 0.59375,-0.5948 -0.71875,-0.8591 0,-0.1322 -0.0625,-0.033 z m 6.9375,0.694 -0.09375,0.1652 0,0.1652 0.25,-0.1983 -0.15625,-0.1321 z m -0.40625,0.2643 -0.1875,0.033 0,0.1322 0.09375,0.033 0.1875,-0.066 -0.09375,-0.1322 z m -5.65625,0.099 -0.625,0.5948 -0.125,0.3635 -0.5,-0.066 -0.40625,0.3965 -0.25,-0.033 0.03125,-0.5287 -0.09375,-0.033 -0.09375,1.0574 -0.46875,0 -0.125,-0.1652 -0.21875,0 0.1875,0.5617 0.34375,0.3635 -0.25,0.2974 0.15625,0.3635 0.375,0.1322 0.28125,-0.2644 0.84375,0.033 0.0625,-0.099 0.34375,-0.066 1.25,-1.3217 0,-0.3965 -0.125,0.1982 -0.1875,0 -0.25,-0.2313 0.125,-0.3304 0.21875,-0.033 -0.03125,-0.6609 -0.46875,-0.1322 z m 0.5,0.8592 -0.1875,0.033 -0.0625,0.2313 0.125,0.1321 0.1875,0 0.15625,-0.2313 -0.21875,-0.1652 z m -0.78125,0.6608 0.09375,0 0.1875,0.1983 0,0.2643 -0.21875,0.099 0,0.099 -0.34375,0 -0.125,-0.2643 0.125,-0.1983 0.28125,-0.1983 z m 0,0.066 -0.25,0.1983 -0.0625,0.1322 0.0625,0.1652 0.25,0.033 0,-0.066 0.21875,-0.099 0.03125,-0.1652 -0.15625,-0.1983 -0.09375,0 z m 22.75,5.9809 -0.125,0.5617 0.03125,0.4296 0.40625,-0.033 0.46875,-0.76 L 39,1045.5208 z m -15.65625,0.2643 0,0.3635 0.46875,0.099 0.09375,-0.2973 -0.15625,0.066 -0.21875,0.033 -0.0625,-0.2644 -0.125,0 z M 43,1047.867 l -0.3125,0.1322 0.0625,0.2313 0.25,0.1321 0,-0.4956 z"
       id="kalimantan"
       style="opacity:0.4;fill:#ffffff;fill-opacity:1" />
    <path
       sodipodi:nodetypes="cccssscccssccccccsscccsssccc"
       inkscape:connector-curvature="0"
       id="path3799"
       d="m 23.975045,1019.3622 c -2.619843,0 -4.750005,2.0177 -4.750005,4.5175 -0.0357,0.4221 -0.03899,0.8443 -0.02504,1.2524 -0.2216,0 -0.8,0.1751 -0.8,0.393 l 0,2.357 c 0,0.2177 0.5784,0.393 0.8,0.393 l 0.275002,0 c 0.402162,1.6569 1.277575,3.0202 2.424998,3.7813 -0.09946,0.1236 -0.196856,0.2495 -0.3,0.3686 l -0.8,0 c -0.4432,0 -0.8,0.3505 -0.8,0.785 l 0,0.7371 c -1.121616,0.8659 -2.43946,1.5103 -4,1.9151 l 0,5.5 16,0 0,-5.5 c -1.487833,-0.4478 -2.812504,-1.1776 -4,-2.136 l 0,-0.5162 c 0,-0.4345 -0.3568,-0.785 -0.8,-0.785 l -0.575003,0 c -0.125811,-0.1364 -0.252985,-0.2746 -0.374992,-0.4174 1.106502,-0.7683 1.917647,-2.1072 2.29999,-3.7325 l 0.250005,0 c 0.2216,0 0.8,-0.1753 0.8,-0.393 l 0,-2.357 c 0,-0.2179 -0.5784,-0.393 -0.8,-0.393 -0.0047,-0.3408 -0.03786,-0.7121 -0.100015,-1.1292 0,-3.3515 -2.599453,-4.5788 -4.724998,-4.6407 z"
       style="fill:#ffffff;fill-opacity:1;fill-rule:nonzero;stroke:none;opacity:0.3" />
    <path
       style="fill:#2262bf;fill-opacity:1;fill-rule:nonzero;stroke:none"
       d="m 23.975045,1018.3622 c -2.619843,0 -4.750005,2.0177 -4.750005,4.5175 -0.0357,0.4221 -0.03899,0.8443 -0.02504,1.2524 -0.2216,0 -0.8,0.1751 -0.8,0.393 l 0,2.357 c 0,0.2177 0.5784,0.393 0.8,0.393 l 0.275002,0 c 0.402162,1.6569 1.277575,3.0202 2.424998,3.7813 -0.09946,0.1236 -0.196856,0.2495 -0.3,0.3686 l -0.8,0 c -0.4432,0 -0.8,0.3505 -0.8,0.785 l 0,0.7371 c -1.121616,0.8659 -2.43946,1.5103 -4,1.9151 l 0,5.5 16,0 0,-5.5 c -1.487833,-0.4478 -2.812504,-1.1776 -4,-2.136 l 0,-0.5162 c 0,-0.4345 -0.3568,-0.785 -0.8,-0.785 l -0.575003,0 c -0.125811,-0.1364 -0.252985,-0.2746 -0.374992,-0.4174 1.106502,-0.7683 1.917647,-2.1072 2.29999,-3.7325 l 0.250005,0 c 0.2216,0 0.8,-0.1753 0.8,-0.393 l 0,-2.357 c 0,-0.2179 -0.5784,-0.393 -0.8,-0.393 -0.0047,-0.3408 -0.03786,-0.7121 -0.100015,-1.1292 0,-3.3515 -2.599453,-4.5788 -4.724998,-4.6407 z"
       id="path3290"
       inkscape:connector-curvature="0"
       sodipodi:nodetypes="cccssscccssccccccsscccsssccc" />
    <path
       style="fill:#000000;fill-opacity:1;fill-rule:nonzero;stroke:none;opacity:0.3"
       d="M 23.96875 14 C 21.348907 14 19.21875 16.03145 19.21875 18.53125 C 19.18305 18.95335 19.17355 19.37315 19.1875 19.78125 C 18.9659 19.78125 18.40625 19.93835 18.40625 20.15625 L 18.40625 21.15625 C 18.40625 20.93835 18.9659 20.78125 19.1875 20.78125 C 19.17355 20.37315 19.18305 19.95335 19.21875 19.53125 C 19.21875 17.03145 21.348907 15 23.96875 15 C 26.094295 15.0619 28.6875 16.30475 28.6875 19.65625 C 28.749655 20.07335 28.8078 20.44045 28.8125 20.78125 C 29.0341 20.78125 29.59375 20.93835 29.59375 21.15625 L 29.59375 20.15625 C 29.59375 19.93835 29.0341 19.78125 28.8125 19.78125 C 28.8078 19.44045 28.749655 19.07335 28.6875 18.65625 C 28.6875 15.30475 26.094295 14.0619 23.96875 14 z M 20.8125 27.0625 C 20.3693 27.0625 20 27.40925 20 27.84375 L 20 28.59375 C 18.878384 29.45965 17.56054 30.0952 16 30.5 L 16 31.5 C 17.56054 31.0952 18.878384 30.45965 20 29.59375 L 20 28.84375 C 20 28.40925 20.3693 28.0625 20.8125 28.0625 L 21.59375 28.0625 C 21.696894 27.9434 21.80679 27.8111 21.90625 27.6875 C 21.643299 27.513081 21.388209 27.296457 21.15625 27.0625 L 20.8125 27.0625 z M 26.9375 27.0625 C 26.725116 27.282199 26.492047 27.488184 26.25 27.65625 C 26.372007 27.79905 26.499189 27.9261 26.625 28.0625 L 27.1875 28.0625 C 27.6307 28.0625 28 28.40925 28 28.84375 L 28 29.375 C 29.187496 30.3334 30.512167 31.0522 32 31.5 L 32 30.5 C 30.512167 30.0522 29.187496 29.3334 28 28.375 L 28 27.84375 C 28 27.40925 27.6307 27.0625 27.1875 27.0625 L 26.9375 27.0625 z "
       transform="translate(0,1004.3622)"
       id="path3803" />
  </g>
</svg>
