<?xml version="1.0" encoding="UTF-8" standalone="no"?>
<!-- Created with Inkscape (http://www.inkscape.org/) -->

<svg
   xmlns:dc="http://purl.org/dc/elements/1.1/"
   xmlns:cc="http://creativecommons.org/ns#"
   xmlns:rdf="http://www.w3.org/1999/02/22-rdf-syntax-ns#"
   xmlns:svg="http://www.w3.org/2000/svg"
   xmlns="http://www.w3.org/2000/svg"
   xmlns:xlink="http://www.w3.org/1999/xlink"
   xmlns:sodipodi="http://sodipodi.sourceforge.net/DTD/sodipodi-0.dtd"
   xmlns:inkscape="http://www.inkscape.org/namespaces/inkscape"
   width="48"
   height="48"
   id="svg3147"
   version="1.1"
   inkscape:version="0.48.3.1 r9886"
   sodipodi:docname="template48.svg">
  <defs
     id="defs3149">
    <linearGradient
       id="linearGradient3791">
      <stop
         style="stop-color:#14127a;stop-opacity:1;"
         offset="0"
         id="stop3793" />
      <stop
         style="stop-color:#144191;stop-opacity:1;"
         offset="1"
         id="stop3795" />
    </linearGradient>
    <linearGradient
       id="linearGradient3783">
      <stop
         style="stop-color:#2f8ded;stop-opacity:1;"
         offset="0"
         id="stop3785" />
      <stop
         style="stop-color:#0c43ad;stop-opacity:1;"
         offset="1"
         id="stop3787" />
    </linearGradient>
    <linearGradient
       id="linearGradient4536">
      <stop
         style="stop-color:#ffffff;stop-opacity:1;"
         offset="0"
         id="stop4538" />
      <stop
         id="stop4546"
         offset="0.04410084"
         style="stop-color:#ffffff;stop-opacity:0.15686275;" />
      <stop
         id="stop4544"
         offset="0.96063954"
         style="stop-color:#ffffff;stop-opacity:0.23529412;" />
      <stop
         style="stop-color:#ffffff;stop-opacity:0.39215687;"
         offset="1"
         id="stop4540" />
    </linearGradient>
    <radialGradient
       inkscape:collect="always"
       xlink:href="#linearGradient3688-166-749"
       id="radialGradient3132"
       gradientUnits="userSpaceOnUse"
       gradientTransform="matrix(2.003784,0,0,1.4,27.98813,-17.4)"
       cx="4.9929786"
       cy="43.5"
       fx="4.9929786"
       fy="43.5"
       r="2.5" />
    <linearGradient
       id="linearGradient3688-166-749">
      <stop
         id="stop2883"
         style="stop-color:#181818;stop-opacity:1"
         offset="0" />
      <stop
         id="stop2885"
         style="stop-color:#181818;stop-opacity:0"
         offset="1" />
    </linearGradient>
    <radialGradient
       inkscape:collect="always"
       xlink:href="#linearGradient3688-464-309"
       id="radialGradient3134"
       gradientUnits="userSpaceOnUse"
       gradientTransform="matrix(2.003784,0,0,1.4,-20.01187,-104.4)"
       cx="4.9929786"
       cy="43.5"
       fx="4.9929786"
       fy="43.5"
       r="2.5" />
    <linearGradient
       id="linearGradient3688-464-309">
      <stop
         id="stop2889"
         style="stop-color:#181818;stop-opacity:1"
         offset="0" />
      <stop
         id="stop2891"
         style="stop-color:#181818;stop-opacity:0"
         offset="1" />
    </linearGradient>
    <linearGradient
       inkscape:collect="always"
       xlink:href="#linearGradient3702-501-757"
       id="linearGradient3136"
       gradientUnits="userSpaceOnUse"
       x1="25.058096"
       y1="47.027729"
       x2="25.058096"
       y2="39.999443" />
    <linearGradient
       id="linearGradient3702-501-757">
      <stop
         id="stop2895"
         style="stop-color:#181818;stop-opacity:0"
         offset="0" />
      <stop
         id="stop2897"
         style="stop-color:#181818;stop-opacity:1"
         offset="0.5" />
      <stop
         id="stop2899"
         style="stop-color:#181818;stop-opacity:0"
         offset="1" />
    </linearGradient>
    <linearGradient
       inkscape:collect="always"
       xlink:href="#linearGradient4536"
       id="linearGradient4542"
       x1="23.522522"
       y1="1010.4793"
       x2="23.522522"
       y2="1048.1082"
       gradientUnits="userSpaceOnUse" />
    <radialGradient
       inkscape:collect="always"
       xlink:href="#linearGradient3783"
       id="radialGradient3789"
       cx="24.576578"
       cy="1016.9658"
       fx="24.576578"
       fy="1016.9658"
       r="20"
       gradientUnits="userSpaceOnUse"
       gradientTransform="matrix(-8.4609372e-7,1.7742259,-1.389264,-6.625129e-7,1437.4106,973.36209)" />
    <linearGradient
       inkscape:collect="always"
       xlink:href="#linearGradient3791"
       id="linearGradient3797"
       x1="13.72973"
       y1="1048.8232"
       x2="13.72973"
       y2="1009.6144"
       gradientUnits="userSpaceOnUse" />
  </defs>
  <sodipodi:namedview
     id="base"
     pagecolor="#ffffff"
     bordercolor="#666666"
     borderopacity="1.0"
     inkscape:pageopacity="0.0"
     inkscape:pageshadow="2"
     inkscape:zoom="6.9375"
     inkscape:cx="23.136579"
     inkscape:cy="19.274638"
     inkscape:document-units="px"
     inkscape:current-layer="layer1"
     showgrid="false"
     inkscape:window-width="1280"
     inkscape:window-height="749"
     inkscape:window-x="0"
     inkscape:window-y="24"
     inkscape:window-maximized="1" />
  <metadata
     id="metadata3152">
    <rdf:RDF>
      <cc:Work
         rdf:about="">
        <dc:format>image/svg+xml</dc:format>
        <dc:type
           rdf:resource="http://purl.org/dc/dcmitype/StillImage" />
        <dc:title></dc:title>
      </cc:Work>
    </rdf:RDF>
  </metadata>
  <g
     inkscape:label="Livello 1"
     inkscape:groupmode="layer"
     id="layer1"
     transform="translate(0,-1004.3622)">
    <g
       style="display:inline"
       id="g2036"
       transform="matrix(1.1,0,0,0.4444449,-2.4000022,1029.4733)">
      <g
         style="opacity:0.4"
         id="g3712"
         transform="matrix(1.052632,0,0,1.285713,-1.263158,-13.42854)">
        <rect
           style="fill:url(#radialGradient3132);fill-opacity:1;stroke:none"
           id="rect2801"
           y="40"
           x="38"
           height="7"
           width="5" />
        <rect
           style="fill:url(#radialGradient3134);fill-opacity:1;stroke:none"
           id="rect3696"
           transform="scale(-1,-1)"
           y="-47"
           x="-10"
           height="7"
           width="5" />
        <rect
           style="fill:url(#linearGradient3136);fill-opacity:1;stroke:none"
           id="rect3700"
           y="40"
           x="10"
           height="7.0000005"
           width="28" />
      </g>
    </g>
    <rect
       style="fill:url(#radialGradient3789);fill-opacity:1;stroke:url(#linearGradient3797);stroke-opacity:1"
       id="rect3163"
       width="39"
       height="39"
       x="4.5"
       y="1009.8622"
       rx="2"
       ry="2" />
    <rect
       style="fill:none;fill-opacity:1;stroke:url(#linearGradient4542);stroke-opacity:1;opacity:0.3"
       id="rect4534"
       width="37"
       height="37"
       x="5.5"
       y="1010.8622"
       rx="1"
       ry="1" />
    <path
       sodipodi:nodetypes="csscscscscsssssssssssccccccscscccsssssssc"
       id="path3803"
       d="m 25.217759,1014.3623 c -0.362159,-2e-4 -1.211958,0.019 -2.225151,0.1995 -2.394761,0.4248 -5.705503,1.9747 -6.642313,5.2032 -1.448841,4.993 2.281963,6.9762 2.281963,6.9762 0,0 1.306783,0.7528 1.846402,0.9005 1.621759,0.4438 3.347195,0.2367 3.347195,0.2367 0,0 -0.687979,2.2331 0.691217,3.8107 0.329283,0.3766 0.08995,0.3898 0.08995,0.3898 0,0 -6.027888,-0.1525 -8.881667,2.8175 -2.853777,2.9699 -1.306684,5.7044 -1.306684,5.7044 0,0 1.49531,3.5743 7.948997,3.755 6.482365,0.1815 10.49153,-3.5826 10.841693,-6.4238 0.176007,-1.4282 -0.02303,-2.7661 -0.752764,-3.9361 -0.709751,-1.1379 -1.92934,-2.1177 -3.119945,-3.0726 -0.739791,-0.5935 -1.254368,-0.8982 -1.586012,-1.2394 -0.313311,-0.3223 -0.366167,-0.7375 -0.355078,-1.049 0.01549,-0.4349 0.249263,-0.9684 1.027358,-1.852 1.4195,-1.6118 1.779382,-1.4112 2.637039,-2.6178 0.257122,-0.3617 0.446257,-0.8895 0.710155,-1.6755 0.158988,-0.4737 0.132552,-0.9638 0.132563,-1.4203 2.4e-5,-0.987 -0.241733,-1.9272 -0.643873,-2.72 -0.747328,-1.4732 -2.030147,-2.4295 -2.054715,-2.5018 l 2.248824,0 2.547087,-1.4621 -8.59287,-0.023 c 0,0 -0.06866,0 -0.189374,0 z m -1.846402,1.3692 c 1.310696,0.01 3.279842,0.6745 4.459769,4.1449 2.024791,5.9552 -2.215681,6.8648 -2.215681,6.8648 0,0 -4.85905,0.7336 -5.752252,-4.5627 -0.909881,-5.395 1.306058,-5.6869 2.173073,-6.2196 0,0 0.548673,-0.2327 1.335091,-0.2274 z m 2.684384,17.545 c 0,0 3.868695,2.3248 4.232521,4.0288 0.407627,1.9092 0.435062,3.2998 -2.518681,4.8226 -0.871962,0.4495 -2.402383,0.5019 -3.366133,0.5059 -2.368796,0.01 -4.157943,-0.884 -5.042098,-1.3321 -0.459491,-0.2329 -3.011537,-3.0425 -1.122045,-5.5559 0.475285,-0.6322 1.001948,-0.9126 1.491325,-1.2346 1.041467,-0.6856 2.063772,-1.005 3.991069,-1.1697 0.64103,-0.055 1.49524,-0.01 2.334042,-0.065 z"
       style="fill:#000000;fill-opacity:1;stroke:#000000;display:inline;stroke-opacity:1;stroke-linejoin:round;opacity:0.05;stroke-width:3;stroke-miterlimit:4;stroke-dasharray:none"
       inkscape:connector-curvature="0" />
    <path
       inkscape:connector-curvature="0"
       style="fill:#000000;fill-opacity:1;stroke:#000000;display:inline;stroke-opacity:1;stroke-linejoin:round;opacity:0.09999995;stroke-width:2.00000009999999984;stroke-miterlimit:4;stroke-dasharray:none"
       d="m 25.217759,1014.3623 c -0.362159,-2e-4 -1.211958,0.019 -2.225151,0.1995 -2.394761,0.4248 -5.705503,1.9747 -6.642313,5.2032 -1.448841,4.993 2.281963,6.9762 2.281963,6.9762 0,0 1.306783,0.7528 1.846402,0.9005 1.621759,0.4438 3.347195,0.2367 3.347195,0.2367 0,0 -0.687979,2.2331 0.691217,3.8107 0.329283,0.3766 0.08995,0.3898 0.08995,0.3898 0,0 -6.027888,-0.1525 -8.881667,2.8175 -2.853777,2.9699 -1.306684,5.7044 -1.306684,5.7044 0,0 1.49531,3.5743 7.948997,3.755 6.482365,0.1815 10.49153,-3.5826 10.841693,-6.4238 0.176007,-1.4282 -0.02303,-2.7661 -0.752764,-3.9361 -0.709751,-1.1379 -1.92934,-2.1177 -3.119945,-3.0726 -0.739791,-0.5935 -1.254368,-0.8982 -1.586012,-1.2394 -0.313311,-0.3223 -0.366167,-0.7375 -0.355078,-1.049 0.01549,-0.4349 0.249263,-0.9684 1.027358,-1.852 1.4195,-1.6118 1.779382,-1.4112 2.637039,-2.6178 0.257122,-0.3617 0.446257,-0.8895 0.710155,-1.6755 0.158988,-0.4737 0.132552,-0.9638 0.132563,-1.4203 2.4e-5,-0.987 -0.241733,-1.9272 -0.643873,-2.72 -0.747328,-1.4732 -2.030147,-2.4295 -2.054715,-2.5018 l 2.248824,0 2.547087,-1.4621 -8.59287,-0.023 c 0,0 -0.06866,0 -0.189374,0 z m -1.846402,1.3692 c 1.310696,0.01 3.279842,0.6745 4.459769,4.1449 2.024791,5.9552 -2.215681,6.8648 -2.215681,6.8648 0,0 -4.85905,0.7336 -5.752252,-4.5627 -0.909881,-5.395 1.306058,-5.6869 2.173073,-6.2196 0,0 0.548673,-0.2327 1.335091,-0.2274 z m 2.684384,17.545 c 0,0 3.868695,2.3248 4.232521,4.0288 0.407627,1.9092 0.435062,3.2998 -2.518681,4.8226 -0.871962,0.4495 -2.402383,0.5019 -3.366133,0.5059 -2.368796,0.01 -4.157943,-0.884 -5.042098,-1.3321 -0.459491,-0.2329 -3.011537,-3.0425 -1.122045,-5.5559 0.475285,-0.6322 1.001948,-0.9126 1.491325,-1.2346 1.041467,-0.6856 2.063772,-1.005 3.991069,-1.1697 0.64103,-0.055 1.49524,-0.01 2.334042,-0.065 z"
       id="path3801"
       sodipodi:nodetypes="csscscscscsssssssssssccccccscscccsssssssc" />
    <path
       sodipodi:nodetypes="csscscscscsssssssssssccccccscscccsssssssc"
       id="path3799"
       d="m 25.217759,1014.3623 c -0.362159,-2e-4 -1.211958,0.019 -2.225151,0.1995 -2.394761,0.4248 -5.705503,1.9747 -6.642313,5.2032 -1.448841,4.993 2.281963,6.9762 2.281963,6.9762 0,0 1.306783,0.7528 1.846402,0.9005 1.621759,0.4438 3.347195,0.2367 3.347195,0.2367 0,0 -0.687979,2.2331 0.691217,3.8107 0.329283,0.3766 0.08995,0.3898 0.08995,0.3898 0,0 -6.027888,-0.1525 -8.881667,2.8175 -2.853777,2.9699 -1.306684,5.7044 -1.306684,5.7044 0,0 1.49531,3.5743 7.948997,3.755 6.482365,0.1815 10.49153,-3.5826 10.841693,-6.4238 0.176007,-1.4282 -0.02303,-2.7661 -0.752764,-3.9361 -0.709751,-1.1379 -1.92934,-2.1177 -3.119945,-3.0726 -0.739791,-0.5935 -1.254368,-0.8982 -1.586012,-1.2394 -0.313311,-0.3223 -0.366167,-0.7375 -0.355078,-1.049 0.01549,-0.4349 0.249263,-0.9684 1.027358,-1.852 1.4195,-1.6118 1.779382,-1.4112 2.637039,-2.6178 0.257122,-0.3617 0.446257,-0.8895 0.710155,-1.6755 0.158988,-0.4737 0.132552,-0.9638 0.132563,-1.4203 2.4e-5,-0.987 -0.241733,-1.9272 -0.643873,-2.72 -0.747328,-1.4732 -2.030147,-2.4295 -2.054715,-2.5018 l 2.248824,0 2.547087,-1.4621 -8.59287,-0.023 c 0,0 -0.06866,0 -0.189374,0 z m -1.846402,1.3692 c 1.310696,0.01 3.279842,0.6745 4.459769,4.1449 2.024791,5.9552 -2.215681,6.8648 -2.215681,6.8648 0,0 -4.85905,0.7336 -5.752252,-4.5627 -0.909881,-5.395 1.306058,-5.6869 2.173073,-6.2196 0,0 0.548673,-0.2327 1.335091,-0.2274 z m 2.684384,17.545 c 0,0 3.868695,2.3248 4.232521,4.0288 0.407627,1.9092 0.435062,3.2998 -2.518681,4.8226 -0.871962,0.4495 -2.402383,0.5019 -3.366133,0.5059 -2.368796,0.01 -4.157943,-0.884 -5.042098,-1.3321 -0.459491,-0.2329 -3.011537,-3.0425 -1.122045,-5.5559 0.475285,-0.6322 1.001948,-0.9126 1.491325,-1.2346 1.041467,-0.6856 2.063772,-1.005 3.991069,-1.1697 0.64103,-0.055 1.49524,-0.01 2.334042,-0.065 z"
       style="fill:#000000;fill-opacity:1;stroke:#000000;display:inline;stroke-opacity:1;stroke-linejoin:round;opacity:0.15"
       inkscape:connector-curvature="0" />
    <path
       inkscape:connector-curvature="0"
       style="fill:#ffffff;fill-opacity:1;stroke:none;display:inline"
       d="m 25.217759,1014.3623 c -0.362159,-2e-4 -1.211958,0.019 -2.225151,0.1995 -2.394761,0.4248 -5.705503,1.9747 -6.642313,5.2032 -1.448841,4.993 2.281963,6.9762 2.281963,6.9762 0,0 1.306783,0.7528 1.846402,0.9005 1.621759,0.4438 3.347195,0.2367 3.347195,0.2367 0,0 -0.687979,2.2331 0.691217,3.8107 0.329283,0.3766 0.08995,0.3898 0.08995,0.3898 0,0 -6.027888,-0.1525 -8.881667,2.8175 -2.853777,2.9699 -1.306684,5.7044 -1.306684,5.7044 0,0 1.49531,3.5743 7.948997,3.755 6.482365,0.1815 10.49153,-3.5826 10.841693,-6.4238 0.176007,-1.4282 -0.02303,-2.7661 -0.752764,-3.9361 -0.709751,-1.1379 -1.92934,-2.1177 -3.119945,-3.0726 -0.739791,-0.5935 -1.254368,-0.8982 -1.586012,-1.2394 -0.313311,-0.3223 -0.366167,-0.7375 -0.355078,-1.049 0.01549,-0.4349 0.249263,-0.9684 1.027358,-1.852 1.4195,-1.6118 1.779382,-1.4112 2.637039,-2.6178 0.257122,-0.3617 0.446257,-0.8895 0.710155,-1.6755 0.158988,-0.4737 0.132552,-0.9638 0.132563,-1.4203 2.4e-5,-0.987 -0.241733,-1.9272 -0.643873,-2.72 -0.747328,-1.4732 -2.030147,-2.4295 -2.054715,-2.5018 l 2.248824,0 2.547087,-1.4621 -8.59287,-0.023 c 0,0 -0.06866,0 -0.189374,0 z m -1.846402,1.3692 c 1.310696,0.01 3.279842,0.6745 4.459769,4.1449 2.024791,5.9552 -2.215681,6.8648 -2.215681,6.8648 0,0 -4.85905,0.7336 -5.752252,-4.5627 -0.909881,-5.395 1.306058,-5.6869 2.173073,-6.2196 0,0 0.548673,-0.2327 1.335091,-0.2274 z m 2.684384,17.545 c 0,0 3.868695,2.3248 4.232521,4.0288 0.407627,1.9092 0.435062,3.2998 -2.518681,4.8226 -0.871962,0.4495 -2.402383,0.5019 -3.366133,0.5059 -2.368796,0.01 -4.157943,-0.884 -5.042098,-1.3321 -0.459491,-0.2329 -3.011537,-3.0425 -1.122045,-5.5559 0.475285,-0.6322 1.001948,-0.9126 1.491325,-1.2346 1.041467,-0.6856 2.063772,-1.005 3.991069,-1.1697 0.64103,-0.055 1.49524,-0.01 2.334042,-0.065 z"
       id="path8122"
       sodipodi:nodetypes="csscscscscsssssssssssccccccscscccsssssssc" />
  </g>
</svg>
