<?xml version="1.0" encoding="UTF-8" standalone="no"?>
<!-- Created with Inkscape (http://www.inkscape.org/) -->

<svg
   xmlns:dc="http://purl.org/dc/elements/1.1/"
   xmlns:cc="http://creativecommons.org/ns#"
   xmlns:rdf="http://www.w3.org/1999/02/22-rdf-syntax-ns#"
   xmlns:svg="http://www.w3.org/2000/svg"
   xmlns="http://www.w3.org/2000/svg"
   xmlns:xlink="http://www.w3.org/1999/xlink"
   xmlns:sodipodi="http://sodipodi.sourceforge.net/DTD/sodipodi-0.dtd"
   xmlns:inkscape="http://www.inkscape.org/namespaces/inkscape"
   width="48"
   height="48"
   id="svg3147"
   version="1.1"
   inkscape:version="0.48.4 r9939"
   sodipodi:docname="inkscape2.svg">
  <defs
     id="defs3149">
    <linearGradient
       id="linearGradient3784">
      <stop
         style="stop-color:#2971c3;stop-opacity:1;"
         offset="0"
         id="stop3786" />
      <stop
         style="stop-color:#1044b3;stop-opacity:1;"
         offset="1"
         id="stop3788" />
    </linearGradient>
    <linearGradient
       id="linearGradient3776">
      <stop
         style="stop-color:#27a9e6;stop-opacity:1;"
         offset="0"
         id="stop3778" />
      <stop
         style="stop-color:#1258da;stop-opacity:1;"
         offset="1"
         id="stop3780" />
    </linearGradient>
    <linearGradient
       id="linearGradient4536">
      <stop
         style="stop-color:#ffffff;stop-opacity:1;"
         offset="0"
         id="stop4538" />
      <stop
         id="stop4546"
         offset="0.04410084"
         style="stop-color:#ffffff;stop-opacity:0.15686275;" />
      <stop
         id="stop4544"
         offset="0.96063954"
         style="stop-color:#ffffff;stop-opacity:0.23529412;" />
      <stop
         style="stop-color:#ffffff;stop-opacity:0.39215687;"
         offset="1"
         id="stop4540" />
    </linearGradient>
    <radialGradient
       inkscape:collect="always"
       xlink:href="#linearGradient3688-166-749"
       id="radialGradient3132"
       gradientUnits="userSpaceOnUse"
       gradientTransform="matrix(2.003784,0,0,1.4,27.98813,-17.4)"
       cx="4.9929786"
       cy="43.5"
       fx="4.9929786"
       fy="43.5"
       r="2.5" />
    <linearGradient
       id="linearGradient3688-166-749">
      <stop
         id="stop2883"
         style="stop-color:#181818;stop-opacity:1"
         offset="0" />
      <stop
         id="stop2885"
         style="stop-color:#181818;stop-opacity:0"
         offset="1" />
    </linearGradient>
    <radialGradient
       inkscape:collect="always"
       xlink:href="#linearGradient3688-464-309"
       id="radialGradient3134"
       gradientUnits="userSpaceOnUse"
       gradientTransform="matrix(2.003784,0,0,1.4,-20.01187,-104.4)"
       cx="4.9929786"
       cy="43.5"
       fx="4.9929786"
       fy="43.5"
       r="2.5" />
    <linearGradient
       id="linearGradient3688-464-309">
      <stop
         id="stop2889"
         style="stop-color:#181818;stop-opacity:1"
         offset="0" />
      <stop
         id="stop2891"
         style="stop-color:#181818;stop-opacity:0"
         offset="1" />
    </linearGradient>
    <linearGradient
       inkscape:collect="always"
       xlink:href="#linearGradient3702-501-757"
       id="linearGradient3136"
       gradientUnits="userSpaceOnUse"
       x1="25.058096"
       y1="47.027729"
       x2="25.058096"
       y2="39.999443" />
    <linearGradient
       id="linearGradient3702-501-757">
      <stop
         id="stop2895"
         style="stop-color:#181818;stop-opacity:0"
         offset="0" />
      <stop
         id="stop2897"
         style="stop-color:#181818;stop-opacity:1"
         offset="0.5" />
      <stop
         id="stop2899"
         style="stop-color:#181818;stop-opacity:0"
         offset="1" />
    </linearGradient>
    <linearGradient
       inkscape:collect="always"
       xlink:href="#linearGradient4536"
       id="linearGradient4542"
       x1="23.522522"
       y1="1010.4793"
       x2="23.522522"
       y2="1048.1082"
       gradientUnits="userSpaceOnUse" />
    <radialGradient
       inkscape:collect="always"
       xlink:href="#linearGradient3776"
       id="radialGradient3782"
       cx="24.72072"
       cy="1017.2541"
       fx="24.72072"
       fy="1017.2541"
       r="20"
       gradientUnits="userSpaceOnUse"
       gradientTransform="matrix(5.4340638e-7,1.8348474,-1.2740574,3.7732343e-7,1320.7608,971.89496)" />
    <linearGradient
       inkscape:collect="always"
       xlink:href="#linearGradient3784"
       id="linearGradient3790"
       x1="10.198198"
       y1="1009.7586"
       x2="10.198198"
       y2="1049.0215"
       gradientUnits="userSpaceOnUse" />
  </defs>
  <sodipodi:namedview
     id="base"
     pagecolor="#ffffff"
     bordercolor="#666666"
     borderopacity="1.0"
     inkscape:pageopacity="0.0"
     inkscape:pageshadow="2"
     inkscape:zoom="6.9375"
     inkscape:cx="11.98307"
     inkscape:cy="21.426324"
     inkscape:document-units="px"
     inkscape:current-layer="layer1"
     showgrid="false"
     inkscape:window-width="1280"
     inkscape:window-height="748"
     inkscape:window-x="0"
     inkscape:window-y="26"
     inkscape:window-maximized="1" />
  <metadata
     id="metadata3152">
    <rdf:RDF>
      <cc:Work
         rdf:about="">
        <dc:format>image/svg+xml</dc:format>
        <dc:type
           rdf:resource="http://purl.org/dc/dcmitype/StillImage" />
        <dc:title></dc:title>
      </cc:Work>
    </rdf:RDF>
  </metadata>
  <g
     inkscape:label="Livello 1"
     inkscape:groupmode="layer"
     id="layer1"
     transform="translate(0,-1004.3622)">
    <g
       style="display:inline"
       id="g2036"
       transform="matrix(1.1,0,0,0.4444449,-2.4000022,1029.4733)">
      <g
         style="opacity:0.4"
         id="g3712"
         transform="matrix(1.052632,0,0,1.285713,-1.263158,-13.42854)">
        <rect
           style="fill:url(#radialGradient3132);fill-opacity:1;stroke:none"
           id="rect2801"
           y="40"
           x="38"
           height="7"
           width="5" />
        <rect
           style="fill:url(#radialGradient3134);fill-opacity:1;stroke:none"
           id="rect3696"
           transform="scale(-1,-1)"
           y="-47"
           x="-10"
           height="7"
           width="5" />
        <rect
           style="fill:url(#linearGradient3136);fill-opacity:1;stroke:none"
           id="rect3700"
           y="40"
           x="10"
           height="7.0000005"
           width="28" />
      </g>
    </g>
    <rect
       style="fill:url(#radialGradient3782);fill-opacity:1;stroke:url(#linearGradient3790);stroke-opacity:1"
       id="rect3163"
       width="39"
       height="39"
       x="4.5"
       y="1009.8622"
       rx="2"
       ry="2" />
    <path
       inkscape:connector-curvature="0"
       id="path3815"
       d="m 5,1047.6122 38,0 0,-0.5 -38,0 0,0.5 z m 0,-4 38,0 0,-0.5 -38,0 0,0.5 z m 0,-4 38,0 0,-0.5 -38,0 0,0.5 z m 0,-4 38,0 0,-0.5 -38,0 0,0.5 z m 0,-4 38,0 0,-0.5 -38,0 0,0.5 z m 0,-4 38,0 0,-0.5 -38,0 0,0.5 z m 0,-4 38,0 0,-0.5 -38,0 0,0.5 z m 0,-4 38,0 0,-0.5 -38,0 0,0.5 z m 0,-4 38,0 0,-0.5 -38,0 0,0.5 z m 0,-4 38,0 0,-0.5 -38,0 0,0.5 z"
       style="opacity:0.14999994;fill:#ffffff;fill-opacity:1;stroke:none" />
    <path
       style="opacity:0.14999995;fill:#ffffff;fill-opacity:1;stroke:none"
       d="m 5.75,1010.3622 0,38 0.5,0 0,-38 -0.5,0 z m 4,0 0,38 0.5,0 0,-38 -0.5,0 z m 4,0 0,38 0.5,0 0,-38 -0.5,0 z m 4,0 0,38 0.5,0 0,-38 -0.5,0 z m 4,0 0,38 0.5,0 0,-38 -0.5,0 z m 4,0 0,38 0.5,0 0,-38 -0.5,0 z m 4,0 0,38 0.5,0 0,-38 -0.5,0 z m 4,0 0,38 0.5,0 0,-38 -0.5,0 z m 4,0 0,38 0.5,0 0,-38 -0.5,0 z m 4,0 0,38 0.5,0 0,-38 -0.5,0 z"
       id="rect3792"
       inkscape:connector-curvature="0" />
    <rect
       style="fill:none;fill-opacity:1;stroke:url(#linearGradient4542);stroke-opacity:1;opacity:0.3"
       id="rect4534"
       width="37"
       height="37"
       x="5.5"
       y="1010.8622"
       rx="1"
       ry="1" />
    <rect
       style="opacity:0.75;fill:none;stroke:#ffffff;stroke-opacity:1"
       id="rect3794"
       width="29"
       height="29"
       x="9.5"
       y="1014.8622"
       rx="2.5"
       ry="2.5" />
    <path
       sodipodi:type="arc"
       style="opacity:0.5;fill:none;stroke:#ffffff;stroke-width:1.26387358;stroke-miterlimit:4;stroke-opacity:1;stroke-dasharray:none"
       id="path3817"
       sodipodi:cx="-12.332961"
       sodipodi:cy="20.887869"
       sodipodi:rx="3.1596844"
       sodipodi:ry="3.1596844"
       d="m -9.1732767,20.887869 a 3.1596844,3.1596844 0 1 1 -6.3193693,0 3.1596844,3.1596844 0 1 1 6.3193693,0 z"
       transform="matrix(0.79121835,0,0,0.79121835,21.758065,1000.8353)" />
    <path
       transform="matrix(0.79121835,0,0,0.79121835,21.758065,1024.8353)"
       d="m -9.1732767,20.887869 a 3.1596844,3.1596844 0 1 1 -6.3193693,0 3.1596844,3.1596844 0 1 1 6.3193693,0 z"
       sodipodi:ry="3.1596844"
       sodipodi:rx="3.1596844"
       sodipodi:cy="20.887869"
       sodipodi:cx="-12.332961"
       id="path3819"
       style="opacity:0.5;fill:none;stroke:#ffffff;stroke-width:1.26387358;stroke-miterlimit:4;stroke-opacity:1;stroke-dasharray:none"
       sodipodi:type="arc" />
    <path
       sodipodi:type="arc"
       style="opacity:0.5;fill:none;stroke:#ffffff;stroke-width:1.26387358;stroke-miterlimit:4;stroke-opacity:1;stroke-dasharray:none"
       id="path3821"
       sodipodi:cx="-12.332961"
       sodipodi:cy="20.887869"
       sodipodi:rx="3.1596844"
       sodipodi:ry="3.1596844"
       d="m -9.1732767,20.887869 a 3.1596844,3.1596844 0 1 1 -6.3193693,0 3.1596844,3.1596844 0 1 1 6.3193693,0 z"
       transform="matrix(0.79121835,0,0,0.79121835,45.758065,1024.8353)" />
    <path
       transform="matrix(0.79121835,0,0,0.79121835,45.758065,1000.8353)"
       d="m -9.1732767,20.887869 a 3.1596844,3.1596844 0 1 1 -6.3193693,0 3.1596844,3.1596844 0 1 1 6.3193693,0 z"
       sodipodi:ry="3.1596844"
       sodipodi:rx="3.1596844"
       sodipodi:cy="20.887869"
       sodipodi:cx="-12.332961"
       id="path3823"
       style="opacity:0.5;fill:none;stroke:#ffffff;stroke-width:1.26387358;stroke-miterlimit:4;stroke-opacity:1;stroke-dasharray:none"
       sodipodi:type="arc" />
    <path
       style="opacity:1;fill:none;fill-opacity:1;stroke:#ffffff;stroke-opacity:1"
       d="M 21.5 13.5 L 21.5 16.875 C 20.988228 17.032147 20.496832 17.253865 20.03125 17.5 L 17.625 15.09375 L 14.09375 18.625 L 16.5 21.03125 C 16.253865 21.496832 16.032147 21.988228 15.875 22.5 L 12.5 22.5 L 12.5 27.5 L 15.875 27.5 C 16.032147 28.011772 16.253865 28.503168 16.5 28.96875 L 14.09375 31.375 L 17.625 34.90625 L 20.03125 32.5 C 20.496832 32.746135 20.988228 32.967853 21.5 33.125 L 21.5 36.5 L 26.5 36.5 L 26.5 33.125 C 27.011772 32.967853 27.503168 32.746135 27.96875 32.5 L 30.375 34.90625 L 33.90625 31.375 L 31.5 28.96875 C 31.746135 28.503168 31.967853 28.011772 32.125 27.5 L 35.5 27.5 L 35.5 22.5 L 32.125 22.5 C 31.967853 21.988228 31.746135 21.496832 31.5 21.03125 L 33.90625 18.625 L 30.375 15.09375 L 27.96875 17.5 C 27.503168 17.253865 27.011772 17.032147 26.5 16.875 L 26.5 13.5 L 21.5 13.5 z M 24 21.5 C 25.932997 21.5 27.5 23.067003 27.5 25 C 27.5 26.932997 25.932997 28.5 24 28.5 C 22.067003 28.5 20.5 26.932997 20.5 25 C 20.5 24.758375 20.515877 24.509092 20.5625 24.28125 C 20.888862 22.686359 22.308628 21.5 24 21.5 z "
       transform="translate(0,1004.3622)"
       id="path4392" />
  </g>
</svg>
