<?xml version="1.0" encoding="UTF-8" standalone="no"?>
<!-- Created with Inkscape (http://www.inkscape.org/) -->

<svg
   xmlns:dc="http://purl.org/dc/elements/1.1/"
   xmlns:cc="http://creativecommons.org/ns#"
   xmlns:rdf="http://www.w3.org/1999/02/22-rdf-syntax-ns#"
   xmlns:svg="http://www.w3.org/2000/svg"
   xmlns="http://www.w3.org/2000/svg"
   xmlns:xlink="http://www.w3.org/1999/xlink"
   xmlns:sodipodi="http://sodipodi.sourceforge.net/DTD/sodipodi-0.dtd"
   xmlns:inkscape="http://www.inkscape.org/namespaces/inkscape"
   width="48px"
   height="48px"
   id="svg3321"
   version="1.1"
   inkscape:version="0.48.3.1 r9886"
   sodipodi:docname="midor2.svg">
  <defs
     id="defs3323">
    <linearGradient
       id="linearGradient3925">
      <stop
         style="stop-color:#ff1e28;stop-opacity:1;"
         offset="0"
         id="stop3927" />
      <stop
         style="stop-color:#d20000;stop-opacity:1;"
         offset="1"
         id="stop3929" />
    </linearGradient>
    <linearGradient
       inkscape:collect="always"
       id="linearGradient3856">
      <stop
         style="stop-color:#ffffff;stop-opacity:1;"
         offset="0"
         id="stop3858" />
      <stop
         style="stop-color:#ffffff;stop-opacity:0;"
         offset="1"
         id="stop3860" />
    </linearGradient>
    <linearGradient
       id="linearGradient3814">
      <stop
         style="stop-color:#cccccc;stop-opacity:1;"
         offset="0"
         id="stop3816" />
      <stop
         style="stop-color:#ffffff;stop-opacity:1;"
         offset="1"
         id="stop3818" />
    </linearGradient>
    <linearGradient
       inkscape:collect="always"
       xlink:href="#linearGradient25689"
       id="linearGradient25695"
       x1="30"
       y1="33"
       x2="30"
       y2="15"
       gradientUnits="userSpaceOnUse" />
    <linearGradient
       id="linearGradient25689">
      <stop
         style="stop-color:#cccccc;stop-opacity:1"
         offset="0"
         id="stop25691" />
      <stop
         style="stop-color:#ffffff;stop-opacity:1;"
         offset="1"
         id="stop25693" />
    </linearGradient>
    <linearGradient
       inkscape:collect="always"
       xlink:href="#linearGradient25689"
       id="linearGradient3255"
       x1="30"
       y1="33"
       x2="30"
       y2="15"
       gradientUnits="userSpaceOnUse" />
    <linearGradient
       id="linearGradient3257">
      <stop
         style="stop-color:#cccccc;stop-opacity:1"
         offset="0"
         id="stop3259" />
      <stop
         style="stop-color:#ffffff;stop-opacity:1;"
         offset="1"
         id="stop3261" />
    </linearGradient>
    <linearGradient
       inkscape:collect="always"
       xlink:href="#linearGradient3924"
       id="linearGradient3114"
       gradientUnits="userSpaceOnUse"
       gradientTransform="translate(2.8e-6,1.00001)"
       x1="23.99999"
       y1="4.999989"
       x2="23.99999"
       y2="43" />
    <linearGradient
       id="linearGradient3924">
      <stop
         id="stop3926"
         style="stop-color:#ffffff;stop-opacity:1;"
         offset="0" />
      <stop
         offset="0.06316455"
         style="stop-color:#ffffff;stop-opacity:0.23529412;"
         id="stop3928" />
      <stop
         id="stop3930"
         style="stop-color:#ffffff;stop-opacity:0.15686275;"
         offset="0.95056331" />
      <stop
         id="stop3932"
         style="stop-color:#ffffff;stop-opacity:0.39215687;"
         offset="1" />
    </linearGradient>
    <radialGradient
       inkscape:collect="always"
       xlink:href="#linearGradient3242-187-536"
       id="radialGradient3117"
       gradientUnits="userSpaceOnUse"
       gradientTransform="matrix(-4.114377e-8,2.3813378,-1.5749771,-2.7211803e-8,37.37246,-0.80505437)"
       cx="4.6106334"
       cy="8.3782625"
       fx="4.6106334"
       fy="8.3782625"
       r="19.99999" />
    <linearGradient
       id="linearGradient3242-187-536">
      <stop
         id="stop2778"
         style="stop-color:#66e87a;stop-opacity:1;"
         offset="0" />
      <stop
         id="stop2780"
         style="stop-color:#12604d;stop-opacity:1;"
         offset="1" />
    </linearGradient>
    <linearGradient
       inkscape:collect="always"
       xlink:href="#linearGradient2490-182-124"
       id="linearGradient3119"
       gradientUnits="userSpaceOnUse"
       gradientTransform="translate(-2e-7,1)"
       x1="8.9739799"
       y1="43.360168"
       x2="8.9739799"
       y2="4.0757785" />
    <linearGradient
       id="linearGradient2490-182-124">
      <stop
         id="stop2788"
         style="stop-color:#0e5934;stop-opacity:1;"
         offset="0" />
      <stop
         id="stop2790"
         style="stop-color:#167e38;stop-opacity:1;"
         offset="1" />
    </linearGradient>
    <radialGradient
       cx="4.9929786"
       cy="43.5"
       r="2.5"
       fx="4.9929786"
       fy="43.5"
       id="radialGradient2873-966-168"
       xlink:href="#linearGradient3688-166-749"
       gradientUnits="userSpaceOnUse"
       gradientTransform="matrix(2.003784,0,0,1.4,27.98813,-17.4)" />
    <linearGradient
       id="linearGradient3688-166-749">
      <stop
         id="stop2883"
         style="stop-color:#181818;stop-opacity:1"
         offset="0" />
      <stop
         id="stop2885"
         style="stop-color:#181818;stop-opacity:0"
         offset="1" />
    </linearGradient>
    <radialGradient
       cx="4.9929786"
       cy="43.5"
       r="2.5"
       fx="4.9929786"
       fy="43.5"
       id="radialGradient2875-742-326"
       xlink:href="#linearGradient3688-464-309"
       gradientUnits="userSpaceOnUse"
       gradientTransform="matrix(2.003784,0,0,1.4,-20.01187,-104.4)" />
    <linearGradient
       id="linearGradient3688-464-309">
      <stop
         id="stop2889"
         style="stop-color:#181818;stop-opacity:1"
         offset="0" />
      <stop
         id="stop2891"
         style="stop-color:#181818;stop-opacity:0"
         offset="1" />
    </linearGradient>
    <linearGradient
       x1="25.058096"
       y1="47.027729"
       x2="25.058096"
       y2="39.999443"
       id="linearGradient2877-634-617"
       xlink:href="#linearGradient3702-501-757"
       gradientUnits="userSpaceOnUse" />
    <linearGradient
       id="linearGradient3702-501-757">
      <stop
         id="stop2895"
         style="stop-color:#181818;stop-opacity:0"
         offset="0" />
      <stop
         id="stop2897"
         style="stop-color:#181818;stop-opacity:1"
         offset="0.5" />
      <stop
         id="stop2899"
         style="stop-color:#181818;stop-opacity:0"
         offset="1" />
    </linearGradient>
    <linearGradient
       inkscape:collect="always"
       xlink:href="#linearGradient25689"
       id="linearGradient9507"
       gradientUnits="userSpaceOnUse"
       x1="30"
       y1="33"
       x2="30"
       y2="15" />
    <linearGradient
       inkscape:collect="always"
       xlink:href="#linearGradient25689"
       id="linearGradient9514"
       gradientUnits="userSpaceOnUse"
       x1="30"
       y1="33"
       x2="30"
       y2="15" />
    <linearGradient
       inkscape:collect="always"
       xlink:href="#linearGradient25689"
       id="linearGradient9746"
       x1="25"
       y1="44"
       x2="25"
       y2="6"
       gradientUnits="userSpaceOnUse" />
    <linearGradient
       inkscape:collect="always"
       xlink:href="#linearGradient3257"
       id="linearGradient3839"
       x1="23.733126"
       y1="9.5014582"
       x2="23.733126"
       y2="41.421989"
       gradientUnits="userSpaceOnUse" />
    <linearGradient
       inkscape:collect="always"
       xlink:href="#linearGradient25689-3"
       id="linearGradient9746-3"
       x1="25"
       y1="44"
       x2="25"
       y2="6"
       gradientUnits="userSpaceOnUse" />
    <linearGradient
       id="linearGradient25689-3">
      <stop
         style="stop-color:#c8c8c8;stop-opacity:1;"
         offset="0"
         id="stop25691-4" />
      <stop
         style="stop-color:#ffffff;stop-opacity:1;"
         offset="1"
         id="stop25693-6" />
    </linearGradient>
    <linearGradient
       inkscape:collect="always"
       xlink:href="#linearGradient3856"
       id="linearGradient3862"
       x1="14.3125"
       y1="15.4375"
       x2="29.9375"
       y2="30.375"
       gradientUnits="userSpaceOnUse" />
  </defs>
  <sodipodi:namedview
     id="base"
     pagecolor="#ffffff"
     bordercolor="#666666"
     borderopacity="1.0"
     inkscape:pageopacity="0.0"
     inkscape:pageshadow="2"
     inkscape:zoom="5.656854"
     inkscape:cx="21.24719"
     inkscape:cy="16.269579"
     inkscape:current-layer="layer1"
     showgrid="false"
     inkscape:grid-bbox="true"
     inkscape:document-units="px"
     inkscape:window-width="1280"
     inkscape:window-height="751"
     inkscape:window-x="0"
     inkscape:window-y="24"
     inkscape:window-maximized="1"
     showguides="false">
    <inkscape:grid
       type="xygrid"
       id="grid9493" />
  </sodipodi:namedview>
  <metadata
     id="metadata3326">
    <rdf:RDF>
      <cc:Work
         rdf:about="">
        <dc:format>image/svg+xml</dc:format>
        <dc:type
           rdf:resource="http://purl.org/dc/dcmitype/StillImage" />
        <dc:title />
      </cc:Work>
    </rdf:RDF>
  </metadata>
  <g
     id="layer1"
     inkscape:label="Layer 1"
     inkscape:groupmode="layer">
    <g
       style="display:inline"
       id="g2036"
       transform="matrix(1.1,0,0,0.4444449,-2.4000022,25.111102)"
       mask="none"
       clip-path="none">
      <g
         style="opacity:0.4"
         id="g3712"
         transform="matrix(1.052632,0,0,1.285713,-1.263158,-13.42854)">
        <rect
           style="fill:url(#radialGradient2873-966-168);fill-opacity:1;stroke:none"
           id="rect2801"
           y="40"
           x="38"
           height="7"
           width="5" />
        <rect
           style="fill:url(#radialGradient2875-742-326);fill-opacity:1;stroke:none"
           id="rect3696"
           transform="scale(-1,-1)"
           y="-47"
           x="-10"
           height="7"
           width="5" />
        <rect
           style="fill:url(#linearGradient2877-634-617);fill-opacity:1;stroke:none"
           id="rect3700"
           y="40"
           x="10"
           height="7.0000005"
           width="28" />
      </g>
    </g>
    <rect
       style="color:#000000;fill:url(#radialGradient3117);fill-opacity:1;fill-rule:nonzero;stroke:url(#linearGradient3119);stroke-width:1;stroke-linecap:round;stroke-linejoin:round;stroke-miterlimit:4;stroke-opacity:1;stroke-dasharray:none;stroke-dashoffset:0;marker:none;visibility:visible;display:inline;overflow:visible;enable-background:accumulate"
       id="rect5505-21"
       y="5.5"
       x="4.499999"
       ry="2"
       rx="2"
       height="39"
       width="39"
       mask="none"
       clip-path="none" />
    <path
       inkscape:connector-curvature="0"
       d="m 5.999999,5.999886 c -0.554,0 -1,0.4715965 -1,1.0573913 l 0,2.907825 0.375,-0.4956511 0.28125,0.1321729 0.5625,0 0.46875,-0.495651 0.5625,-0.2643479 0.0625,-0.3634783 -0.34375,-0.3304347 -0.3125,-0.099078 -0.1875,-0.4626087 0.40625,-0.2643479 0.625,0.3634783 0.21875,-0.2643478 -0.34375,-0.1983138 0.71875,-0.9913043 -0.0625,-0.2313044 -2.03125,0 z m 6.5625,0 0,0.033096 0.125,0.1982609 0.15625,-0.2313043 -0.28125,0 z m 6.59375,0 -0.28125,0.4956522 -0.09375,0.2643478 0.53125,0.1652174 0.09375,-0.3634783 0.15625,-0.4956521 0.125,-0.066087 -0.53125,0 z m 3.875,0 0,0.2643478 0.625,0.2643479 -0.3125,0.2643478 -0.65625,-0.2643478 -0.28125,0.2643478 -0.40625,-0.4956522 -0.09375,0.1652174 0.46875,1.4869566 0.09375,0.066087 0.3125,-0.1652174 0.15625,0.099078 0,0.2643478 -0.28125,-0.099077 -0.1875,0.1321739 0.125,0.2643478 -0.09375,0.693913 -0.59375,0.066087 -0.03125,-0.2313042 0.34375,-0.1982609 0.0625,-0.6278261 -0.375,-0.5286957 -0.15625,-0.9252174 -0.59375,-0.1321739 -0.0625,0.3304348 0.125,0.1652174 -0.28125,0.2313044 0.125,0.6278261 0.34375,0.1652174 0.09375,0.4626087 -0.375,-0.2643479 -0.9375,-0.1652174 -0.125,0.3304348 -0.75,0.2643479 -0.125,-0.1982609 -1,0.5947825 0,0.3634772 -0.40625,0.066087 0.125,-0.2643468 0,-0.2973912 -0.375,-0.1652174 -0.25,0.1321739 0.1875,0.4295651 0.15625,0.2643468 0,0.2313044 -0.28125,-0.066087 -0.0625,-0.033096 -0.28125,0.330435 0.15625,0.264348 -0.65625,0 0.21875,0.264347 -0.0625,0.132174 -0.34375,0 -0.25,-0.165217 -0.0625,-0.528696 -0.40625,-0.1652171 0,-0.1982609 0.84375,0.1652174 0.46875,0.066087 0.1875,-0.3304348 -0.1875,-0.3304338 -1.21875,-0.4956521 -0.4375,0.099078 -0.15625,0.1321739 0.0625,0.2973912 0.1875,0.033096 -0.0625,0.4956511 0.5625,1.3878261 -0.40625,0.693913 -0.03125,0.132174 0.21875,0.165217 -0.1875,0.132174 -0.125,0 0.03125,0.594783 0.15625,0.264347 0,0.231305 0.21875,0.0331 0.34375,0.132174 0.34375,0.528696 0.03125,0.132174 -0.125,0.19826 0.25,-0.0331 0.25,0.09908 0.375,0.495652 0.84375,0.09908 -0.03125,0.627827 -0.3125,0.264347 0.0625,0.09908 -0.28125,0.330435 -0.0625,0.297391 0.15625,0.264348 0.5625,0.231304 0.21875,-0.165217 1.5,0.594783 0.0625,-0.165218 -0.3125,-0.29718 0,-0.396521 -0.1875,-0.06609 0.03125,-0.330435 0.3125,-0.396522 -0.5625,-0.429565 0.0625,-0.594783 0.59375,-0.429565 0.6875,0.0331 0.125,0.231305 0.71875,0.0331 0.5,-0.297391 -0.25,-0.297392 0.03125,-0.594782 1.375,-0.694019 1.03125,0.495652 0.34375,-0.330435 1.03125,1.024348 0.78125,-0.06609 0.28125,0.264348 0.71875,0.09908 0.5,-0.693913 0.625,0.297391 0.3125,0.0331 0.34375,-0.297391 -0.3125,-0.198261 0.25,-0.429565 0.71875,0.264348 0.15625,0.330434 0.3125,0 0.1875,-0.132173 0.53125,-0.0331 0.0625,0.165218 0.59375,0.0331 0.40625,-0.462609 0.84375,0.09908 0.25,-0.09908 0.0625,-0.495652 -0.25,-0.594783 0.25,-0.231304 0.8125,0 0.75,0.958261 0.96875,0.594783 0.28125,0 0.0625,-0.264348 0.34375,-0.231305 0.03125,1.354783 -0.3125,0 0,0.330435 0.1875,0.231304 -0.03125,0.297391 0.125,0.06609 0.0625,-0.19826 0.125,0.0331 0.0625,0.06609 0.375,-0.06609 0.34375,-1.090435 0.03125,-1.321739 -0.4375,-1.090435 -0.5625,-0.726956 -0.28125,0.06609 0,0.231304 -0.65625,-0.297392 0.25,-0.561739 0.21875,-1.5199985 0.875,-0.2973913 0.4375,-0.2973913 0.46875,0 -0.125,0.1652174 0.125,0.2313043 0.40625,-0.4626087 0.21875,0 -0.03125,-0.2643478 -0.375,-0.066087 0.25,-0.9913043 0.34375,-0.3304348 0.125,0.4956522 0.28125,0.099077 0.28125,-0.4626087 -0.15625,-0.2973913 0.0625,-0.2643478 0.40625,0 -0.09375,0.1982609 0.03125,0.7269565 -0.59375,1.5530435 0.0625,0.3304348 -0.03125,0.5286945 1.09375,1.6852174 0.21875,0.06609 0,-1.3547826 0.21875,-0.2313044 -0.21875,-0.5286946 0.1875,-0.2313042 -0.4375,-0.5947827 -0.21875,0.033096 -0.0625,-0.9913044 0.59375,-0.1652174 0.03125,-0.2973913 0.3125,-0.066087 0.15625,0.1652174 0.21875,-0.9252174 0.0625,-0.099078 -17.90625,0 z m -4.34375,0.9913044 0.03125,0.3634783 -0.25,0.066087 0,0.1652174 0.15625,0.2313044 0.375,0.033096 0.1875,0.1982609 0.1875,0 0.09375,-0.2313044 -0.28125,-0.3304348 -0.125,-0.4295652 -0.375,-0.066087 z m -11.65625,0.693913 -0.125,0.099078 0.0625,0.1321739 0.40625,0.1982609 0,-0.3304348 -0.34375,-0.099078 z m 7.84375,0.6608696 -0.5625,0.066087 -0.0625,0.2643478 -0.125,-0.066087 -0.09375,-0.132174 -0.25,0 -0.03125,0.2973914 -0.125,0.066087 -0.09375,-0.1652174 -0.5625,0.4956521 0.125,0.1321739 -0.21875,0.099078 -0.46875,0.9913032 -0.1875,0.132174 0.03125,0.09908 0.15625,0.09908 -0.03125,0.165217 -0.28125,0 -0.09375,-0.09908 -0.1875,0.231304 -0.09375,0.06609 -0.03125,0.231304 -0.09375,0.06609 -0.28125,0.0331 -0.125,0.429565 0.09375,0.693913 0.09375,0.330435 0.125,0.09908 0.25,0 0.375,-0.396522 0.125,-0.231304 0.0625,0.363478 0.21875,-0.462608 0.03125,-1.255652 0.1875,-0.132174 0.0625,-0.693913 0.59375,-0.8921727 0.28125,-0.099078 0.125,-0.1652169 0.4375,0.099078 0.1875,0.1321746 0.09375,-0.3965224 0.34375,-0.1982609 0.21875,0.3634783 0.15625,-0.099078 -0.03125,-0.1321739 -0.09375,-0.066087 0.03125,-0.1652173 0.0625,0 0,-0.099078 -0.34375,-0.099078 z m -0.03125,0.3634783 -0.25,0.1982609 -0.09375,0.4295651 -0.28125,-0.1652174 -0.375,-0.099078 -0.09375,0.099078 0.15625,0.1321739 0.25,0 0.21875,0.3634772 0.03125,0.561739 0.1875,0.06609 0.09375,0.198261 -0.09375,0.132174 -0.5,0.594783 -0.09375,0.297391 0.125,0.429565 0.375,0.297391 0.5,-0.264347 0.40625,-0.06609 0.375,-0.627826 -0.28125,-0.726957 -0.25,-0.6608695 0.03125,-0.4295642 -0.15625,-0.033096 -0.0625,-0.3304347 -0.21875,-0.3965218 z m 26.09375,0.4295651 0.0625,0.1321739 0.1875,0.132174 0.0625,-0.066087 -0.1875,-0.1982609 -0.125,0 z m -27.21875,0.099078 -0.28125,0.099078 -0.5625,0.8591296 -0.0625,0.726956 -0.1875,0.09908 -0.03125,1.288696 -0.28125,0.495652 0.34375,0.594783 0.09375,0.429565 0.15625,0 0.125,-0.231305 0.3125,-0.132173 0,-0.66087 0.1875,-0.198261 0.15625,-0.198261 0.03125,-0.165217 -0.375,-0.297392 0,-0.363478 0.1875,-0.363478 0.15625,-0.0331 0.28125,-0.396522 0,-0.264348 0.375,-0.297391 -0.03125,-0.5286959 -0.15625,-0.3304337 -0.28125,0 -0.15625,-0.1321739 z m 27.65625,0 0,0.1321739 0.25,0.066087 0,-0.099078 -0.25,-0.099078 z m 1.25,0.4956511 0.09375,0.1982609 0.15625,-0.033096 0.03125,-0.132174 -0.28125,-0.033096 z m -36.09375,0.4296185 -0.21875,0.132173 -0.15625,0.165218 0,0.09908 0.21875,0.0331 0,0.165217 -0.09375,0.09908 0.03125,0.06609 0.21875,0 0,0.297391 0.3125,0.0331 0.21875,0.132174 0.21875,0 0.375,-0.198261 0.28125,-0.396521 0,-0.264348 -0.1875,-0.165217 -0.125,-0.132174 -0.09375,0.06609 -0.09375,0.132174 -0.09375,-0.0331 -0.125,-0.132174 -0.15625,0.0331 -0.1875,0.165218 -0.15625,0.165217 -0.0625,-0.06609 0,-0.165217 0.0625,-0.06609 -0.03125,-0.06609 -0.15625,-0.09908 z m 30.375,0.528695 0,0.495652 0.59375,0.991304 0.21875,0.826087 0.375,0.76 0.15625,0.06609 0.125,-0.132173 0.0625,-0.165218 -0.5625,-0.627826 0.03125,-0.330435 0.125,-0.0331 0.03125,-0.198261 -1.0625,-1.586087 -0.09375,-0.06609 z m 3.1875,0.76 -0.09375,0.132174 0.03125,0.198261 0.0625,0 0.15625,-0.297392 -0.15625,-0.03304 z m 0,0.462609 -0.15625,0.0331 0,0.330435 0.09375,0.0331 0.0625,-0.09908 0,-0.297392 z m -7,0.231304 -0.1875,0.198261 0.25,0.561739 -0.09375,0.561739 -0.28125,0.132174 -0.1875,-0.0331 0,0.528695 0.1875,0.06609 0.3125,-0.165217 0.40625,0.231304 0,0.198261 -0.3125,0 -0.21875,0.561739 -0.21875,0 -0.75,1.057392 -0.8125,0.363478 -0.53125,0.06609 -0.375,-0.297391 -0.5,0.297391 -0.5625,-0.165217 -0.15625,-0.396522 -0.9375,-0.06609 -0.5,-0.859131 -0.21875,0 -0.1875,-0.396521 -0.1875,-0.0331 -0.28125,0.693913 -0.34375,0 -0.40625,0.892174 0.34375,0.429565 -0.6875,0.991305 -0.34375,-0.0331 -0.25,0.297392 0.0625,0.198261 0.28125,0 0.125,0.330434 0.28125,0.06609 0.84375,1.123479 0,0.594782 0.40625,0.264348 0.4375,-0.06609 0.5625,0.330435 0.6875,0.198261 0.3125,-0.0331 0.375,-0.0331 0.78125,-0.528695 0.25,0.0331 0.09375,0.231304 0.21875,0.06609 0.28125,0.462609 -0.1875,0.462609 0.125,0.297391 0.3125,0.132174 0.0625,0.363478 0.375,0.0331 0.0625,-0.165217 0.5625,-0.330435 0.34375,0.0331 0.40625,0.462608 0.28125,-0.09908 0.1875,0 0.0625,0.231304 0.15625,0.0331 0.1875,-0.297391 0.78125,-0.297391 0.6875,-0.892174 0.21875,-0.859131 0,-0.561739 -0.3125,-0.06609 0.1875,-0.198261 -0.03125,-0.330434 -0.75,-0.793044 0,-0.363478 0.21875,-0.297391 0.21875,-0.09908 0,-0.231304 -0.53125,0 -0.09375,0.297391 -0.25,-0.06609 -0.3125,-0.330488 0.1875,-0.561739 0.28125,-0.297391 0.25,0.0331 -0.03125,0.462609 0.125,0.132174 0.3125,-0.363478 0.125,0 -0.03125,-0.297392 0.3125,-0.363478 0.21875,0 0.15625,-0.462609 0.15625,-0.06609 0,-0.297391 -0.15625,-0.165217 0,-0.429566 0.28125,-0.0331 0,-1.156522 -0.21875,0.132174 -0.0625,0.297392 -0.34375,0 -1.03125,-0.594783 -0.71875,-0.925218 -0.75,-0.0331 z m -18.25,0.231304 -0.28125,0.198261 0,0.132174 0.15625,0.165218 0.5625,0.09908 0,-0.561739 -0.4375,-0.0331 z m -5.1875,0.363479 -0.3125,0.231304 -0.1875,0.627826 0.1875,-0.0331 -0.03125,0.363478 0.09375,0.09908 0.28125,0 0.03125,0.462608 -0.21875,0.0331 -0.03125,0.264347 -0.1875,0.264348 0.28125,0.0331 0.09375,0.06609 -0.59375,0.330434 0.21875,0.09908 0.59375,-0.264348 0.375,0.0331 0.1875,-0.09908 0.09375,-0.09918 -0.09375,-0.06609 0,-0.09908 0.15625,-0.06609 0,-0.165217 -0.09375,-0.198261 -0.21875,-0.09908 -0.15625,-0.330435 -0.15625,-0.363478 -0.0625,-0.330435 0.0625,-0.132174 0,-0.132173 -0.3125,0 -0.0625,-0.09908 0.15625,-0.231304 -0.09375,-0.09908 z m 4.65625,0 -0.09375,0.06609 0.0625,0.06609 0.125,0 0.0625,-0.06609 -0.0625,-0.06609 -0.09375,0 z m -0.53125,0.19826 -0.15625,0.132174 0.0625,0.198261 0.15625,-0.132174 -0.0625,-0.198261 z m 0.96875,0 0.03125,0.330435 0.46875,0.297392 0.21875,-0.06609 -0.03125,-0.231305 -0.15625,-0.231304 -0.53125,-0.09913 z m -2.65625,0.09913 -0.3125,0.396522 0,0.231304 0.125,0.396522 0.25,-0.0331 -0.03125,-0.330434 0.15625,-0.198261 0,-0.132174 -0.125,-0.297391 -0.0625,-0.03299 z m 2.1875,0 -0.1875,0.264348 0,0.132174 0.0625,0.0331 0.125,0 0.21875,-0.198261 0.03125,-0.06609 -0.125,-0.132174 -0.125,-0.0331 z m 8.75,0.06609 -1.3125,0.693913 -0.03125,0.462609 0.3125,0.396521 -0.59375,0.330435 -0.78125,0 -0.15625,-0.264348 -0.59375,-0.0331 -0.59375,0.396522 0,0.528695 0.53125,0.462609 0.3125,-0.165217 0.34375,0 0.03125,0.561739 -0.21875,0 -0.15625,0.297391 0.21875,0.363478 0.3125,0.165218 0.03125,0.198261 0.09375,-0.0331 0.125,-0.132174 0.15625,0.0331 0.09375,0.198261 0.21875,0 0,-0.231305 -0.15625,-0.429565 -0.0625,-0.330435 0.40625,-0.165217 0.53125,0.06609 0.3125,0.363478 0.75,-0.06609 0.40625,0.594783 0.5,0.0331 0.125,-0.231304 0.15625,-0.0331 0.03125,-0.264347 0.25,0 0.15625,0.165217 0.125,-0.330435 1.15625,0.165218 0.1875,-0.264348 -0.3125,-0.429565 0.4375,-1.024348 0.34375,0.0331 0.25,-0.627826 -0.5,-0.06609 -0.28125,-0.264348 -0.75,0.09908 -1,-1.024348 -0.34375,0.330435 -1.0625,-0.528696 z m 16.8125,0.132174 -0.15625,0.09908 -0.09375,0.198261 0,0.132174 0.125,-0.06609 0.125,-0.264348 0,-0.09908 z m -25.28125,0.06609 -0.21875,0.231304 -0.1875,0 0,0.297391 -0.125,0.231305 0.4375,0 0.09375,-0.0331 0.125,0.165218 0.28125,-0.0331 0.25,-0.330434 0,-0.231305 -0.5,-0.297391 -0.15625,0 z m 14.4375,0.0331 -0.21875,0.297391 0.3125,0.231305 -0.4375,0.429565 -0.375,-0.09908 -0.53125,-0.264347 -0.46875,0.627826 0.125,0.330435 0.25,0 0.5,0.892173 0.96875,0.06609 0.125,0.396522 0.5,0.165218 0.53125,-0.297392 0.40625,0.297392 0.5,-0.06609 0.75,-0.363479 0.78125,-1.024348 0.1875,-0.0331 0.25,-0.561739 0.25,0 0,-0.09908 -0.34375,-0.165323 -0.3125,0.132174 -0.25,-0.0331 0.03125,-0.627773 -0.59375,-0.06609 -0.40625,0.462608 -0.6875,-0.0331 -0.0625,-0.165217 -0.40625,0 -0.21875,0.165217 -0.375,0 -0.1875,-0.363478 -0.59375,-0.231305 z m -13.5,0.231304 -0.21875,0.06609 0,0.231305 -0.28125,0.396522 -0.28125,0 0.125,0.19826 -0.0625,0.165218 0,0.09908 0.0625,0.165218 0.21875,-0.132174 0.3125,0 0.21875,0.09908 0.5,0 0.15625,-0.396521 0.09375,-0.165218 0,-0.06609 -0.3125,-0.495599 -0.3125,-0.132174 -0.21875,-0.0331 z m -3.09375,0.132174 -0.09375,0.09908 0,0.132174 0.21875,0.0331 0,-0.165217 -0.0625,-0.09908 -0.0625,0 z m 27,0.06609 -0.21875,0.330435 0.03125,0.132174 0.09375,-0.0331 0.25,-0.330435 -0.15625,-0.09908 z m -30.5625,0.09908 -0.125,0.297391 -0.28125,0 0,0.264348 0.0625,0.165217 -0.3125,0.231305 0,0.06609 0.15625,0.09908 0.1875,0 0.625,-0.231304 0.0625,-0.495652 -0.1875,0.06609 -0.21875,-0.198261 0.03125,-0.264348 z m 0.3125,0 -0.25,0.0331 -0.03125,0.231305 0.1875,0.132174 0.15625,-0.06609 0.09375,-0.132174 -0.15625,-0.198261 z m 4.6875,0.06609 -0.15625,0.0331 -0.34375,0.132174 -0.28125,0.231304 0.03125,0.56174 0.125,0.231304 0.375,0.198261 0.34375,0.264348 0.21875,0.06609 0.21875,-0.06609 0.0625,0 0.15625,0.06609 0.09375,-0.06609 0.125,-0.231305 0.03125,-0.132174 0,-0.165217 -0.0625,-0.09908 -0.03125,-0.165217 -0.03125,-0.198261 0.0625,-0.132174 -0.21875,-0.363584 -0.15625,0.03304 -0.59375,-0.03304 -0.03125,-0.03304 0.0625,-0.132174 z m 24.4375,0.09908 -0.125,0.09908 0.0625,0.231304 0.125,0.09908 -0.03125,0.363478 -0.125,0.06609 -0.09375,0.231305 0.3125,0.462608 0.1875,-0.06609 0.03125,-0.132174 -0.21875,-0.198261 0.125,-0.165217 0.15625,0 0.09375,0.132174 0.03125,-0.264348 0.28125,-0.264348 0.1875,-0.0331 -0.15625,-0.264348 -0.0625,-0.09908 -0.09375,0.06609 -0.09375,0.132173 -0.21875,-0.03288 -0.21875,-0.165218 -0.15625,-0.198261 z m -26.09375,0.06614 -0.25,0.0331 0,0.19826 -0.28125,0.06609 0.09375,0.495653 -0.21875,0.09908 -0.03125,0.264348 0.15625,0.198261 -0.03125,0.198261 0.21875,0.132174 0,0.264348 0.25,0.06609 0.0625,0.165218 0.125,0 0.09375,-0.132174 0.25,-0.0331 0.3125,-0.132174 0.03125,-0.165218 -0.34375,-0.330434 -0.03125,-0.06609 0.375,-0.231305 0.21875,-0.03299 -0.15625,-0.231305 -0.03125,-0.561739 -0.15625,-0.165217 -0.1875,-0.06609 -0.21875,0.09908 -0.125,0 -0.125,-0.132174 z m -0.59375,0.330435 -0.34375,0.165217 0.0625,0.06609 0,0.198261 -0.0625,-0.0331 -0.09375,-0.132174 -0.1875,0.330435 0.3125,0.06609 0.09375,0.132174 0.0625,0 0.03125,-0.297392 0.1875,-0.06609 -0.0625,-0.429565 z m 4.6875,0.132174 -0.125,0.363478 -0.59375,0 -0.1875,-0.09908 -0.28125,0 -0.21875,0.132174 0.0625,0.231304 -0.21875,0.462609 0,0.198261 0.09375,0.06609 0.625,0.0331 0.1875,-0.132174 0.1875,0.06609 0.25,0.363478 -0.1875,0.363478 0.21875,0.09908 0.3125,-0.396522 0.1875,0.0331 0.15625,0.132174 -0.15625,0.19826 0.21875,0.330435 0.1875,0 0.09375,-0.231304 0.21875,-0.0331 0.03125,-0.165217 -0.40625,-0.06609 0,-0.198261 0.40625,0 0.40625,-0.363478 0.1875,-0.165217 0.03125,-0.56174 -0.84375,-0.06609 -0.3125,-0.495652 -0.25,-0.09908 -0.28125,0 z m -5.34375,0.528696 -0.0625,0.132174 0.53125,0.363478 0.15625,0.0331 0,-0.165217 -0.125,-0.165218 -0.0625,0 -0.125,-0.132174 -0.3125,-0.06609 z m 2.28125,0.09908 -0.21875,0.0331 -0.3125,0.231304 0.3125,0.330435 0.21875,0 0.125,0 0.1875,0.132174 0.34375,-0.297392 -0.34375,-0.264348 -0.3125,-0.165217 z m -2.375,0.06609 -0.15625,0.06609 -0.34375,0.396522 -0.125,0 -0.125,-0.09908 -0.09375,0 -0.0625,0.231305 -0.5,0.0331 0.03125,0.09908 0.3125,0.231304 0.4062499,0.330435 0,0.429565 -0.2187499,0.363478 0.4687499,0.231305 0.46875,0.0331 0.125,-0.165217 0.28125,0 0.09375,0.06609 0.3125,0 0.125,-0.231304 -0.1875,-0.231304 0,-0.132174 0.03125,-0.165218 -0.09375,-0.165217 -0.15625,0.06609 -0.03125,-0.132174 0.375,-0.429565 0,-0.264348 -0.25,-0.132174 -0.125,-0.0331 -0.5625,-0.396522 z m 25.25,0.165218 -0.125,0.06609 -0.125,0.462608 -0.25,0 -0.28125,0.330435 0.03125,0.264348 0.15625,0.06609 0.03125,0.495652 0.28125,0.0331 0.28125,-0.330434 -0.09375,-0.09908 0,-0.330435 0.25,-0.330435 -0.125,-0.231304 0.0625,-0.09908 0.0625,-0.231304 -0.15625,-0.06609 z m -22.1875,0.231304 -0.34375,0.297391 0.0625,0.06609 0,0.06609 0.59375,0 0.4375,-0.198261 0,-0.198261 -0.09375,0.0331 -0.125,-0.06609 -0.0625,0 -0.1875,0.06609 -0.28125,-0.06609 z m 24.75,0 -0.1875,0.231304 0,0.198261 0.09375,0.132174 0.03125,0.495652 -0.25,0.297392 -0.125,-0.06609 -0.09375,0.231304 -0.03125,0.231304 0.09375,0.132174 -0.0625,0.09908 -0.15625,-0.165218 -0.125,0 -0.125,0.06609 -0.0625,0.0331 -0.375,0.462608 0.0625,0.09908 0.1875,0.0331 0.34375,-0.297391 0.25,-0.0331 0.21875,0.264348 0.15625,-0.06609 0.0625,-0.264348 0.3125,0 0.3125,-0.396522 -0.15625,-0.66087 -0.0625,-0.330434 0.15625,-0.132174 -0.375,-0.594783 -0.09375,0 z m -25.625,0.16527 -0.03125,0.198261 -0.34375,0.165217 -0.25,0.0331 -0.0625,0.09908 0.0625,0.06609 0.15625,-0.0331 0.15625,0 0.1875,0.165217 0.34375,-0.09908 0.25,-0.132174 0.0625,-0.132174 0,-0.132174 -0.25,-0.198261 -0.28125,0 z m 2.59375,0.06609 -0.125,0.132174 0.21875,0.363478 0,0.231305 0.09375,0 0.1875,-0.363479 -0.25,-0.330434 -0.125,-0.0331 z m -0.9375,0.0331 -0.4375,0.231305 -0.59375,0 -0.09375,0.165217 0,0.231305 0.15625,0.06609 0.4375,0 0.59375,-0.528696 0,-0.132174 -0.0625,-0.0331 z m 0.15625,0.06609 -0.03125,0.132174 -0.4375,0.396522 0.375,0.561739 0.21875,0.198261 0.4375,0 0.15625,-0.132174 0.1875,-0.0331 0.125,0.09908 0.25,-0.297391 -0.03125,-0.165217 -0.25,-0.06609 -0.1875,0 0,-0.264348 -0.21875,-0.396522 -0.59375,-0.0331 z m -3.03125,0.165218 -0.34375,0.363478 0,0.0331 0.15625,-0.0331 0.125,0.165218 0.1875,-0.06609 0.15625,0.132173 0.0625,-0.0331 0.1875,-0.297391 -0.0625,-0.06609 -0.15625,0 -0.09375,-0.198261 -0.21875,0 z m 1.6875,0.198261 -0.1875,0.132174 -0.375,0.06609 0.0625,0.231304 0.25,0 0.25,-0.198261 0,-0.231304 z m -0.9375,0.06609 -0.1875,0.0331 -0.15625,0.264348 -0.125,0.09908 -0.15625,-0.132173 -0.1875,0.06609 -0.03125,0.132174 0,0.132174 0.1875,0.231305 0.28125,0 0.65625,0.793043 0.40625,0.132174 0.21875,0.231304 0.0625,0.528696 0.125,-0.06609 0.09375,-0.297391 0,-0.231305 0.1875,0 0,-0.132173 -0.5,-0.264348 -0.5,-0.528696 -0.21875,-0.297391 -0.03125,-0.297392 0.25,-0.06609 -0.0625,-0.19826 -0.15625,-0.132174 -0.15625,0 z m 9,0.06609 -0.34375,0.132174 0.21875,0.693913 0,0.264347 0.125,0 0.1875,-0.363478 0.46875,0 0.09375,0.264348 1.03125,0.726957 0.375,0.09908 0.125,0.264348 0.21875,0 0,-0.429565 -0.21875,-0.132174 0.375,-0.495652 0.15625,0 0.15625,0.19826 0.40625,-0.165217 -0.5625,-0.231304 -0.03125,-0.09908 -0.125,0.0331 -0.125,0.231304 -0.5625,-0.0331 -0.40625,-0.594783 -0.71875,0.06609 -0.34375,-0.363478 -0.5,-0.06609 z m -7.25,0.06609 -0.15625,0.132174 -0.0625,0 -0.0625,0.165217 0.1875,0.231304 0.03125,0.198261 -0.25,0.330435 0.03125,0.09908 0.125,0.0331 0.125,-0.132174 0.0625,0 0.09375,0.09908 0.28125,-0.09908 -0.03125,-0.462609 -0.375,-0.594782 z m -0.75,0.06609 -0.28125,0.231304 -0.28125,0 -0.03125,0.198261 0.125,0.0331 0.0625,-0.09908 0.125,0.09908 0.0625,0.297391 0.53125,0.264348 0.0625,-0.06609 -0.53125,-0.594782 0.03125,-0.09908 0.53125,-0.0331 0.0625,-0.165218 -0.34375,0 -0.125,-0.06609 z m 11.375,0.165217 -0.15625,0.363478 -0.1875,-0.198261 -0.15625,0 -0.03125,0.198261 0.03125,0.132174 0.65625,0.231304 -0.5625,0.264348 -0.09375,-0.06609 -0.125,0.09908 0.03125,0.0331 0.0625,0.0331 0.40625,0 0.21875,-0.06619 0.25,-0.330435 0.34375,0.0331 0.40625,-0.594782 -1.09375,-0.132174 z m 11.1875,0.06609 -0.25,0.330435 0.125,0.06609 0,0.09908 -0.09375,0.06609 0.09375,0.231305 0.21875,0.528695 0.21875,0 0.21875,-0.297391 0.03125,-0.198261 -0.09375,-0.396522 -0.46875,-0.429565 z m -22.625,0.06609 -0.03125,0.06609 0.5,0.561739 0.21875,-0.297391 -0.03125,-0.132174 -0.15625,-0.198261 -0.5,0 z m 2.21875,0.264348 -0.15625,0.0331 -0.09375,0.132174 -0.5,0 -0.1875,-0.132174 0,0.396522 0.125,0.297391 0.5,0 0.21875,-0.165217 0.21875,-0.09908 -0.0625,-0.264348 0.0625,-0.132174 -0.125,-0.06609 z m 2.65625,0.0331 -0.21875,0.132174 0.25,0.363478 0.34375,0.132174 0.1875,0 0.3125,-0.09908 0.09375,-0.132174 -0.96875,-0.396522 z m 3.40625,0.06598 -0.15625,0.363479 -0.1875,0 -0.3125,0 -0.03125,0.19826 -0.34375,0 0,0.297392 0.34375,0.231304 -0.09375,0.330435 0,0.165217 0.15625,0 0.1875,-0.264348 0.40625,-0.09908 0.90625,0.363478 0.03125,0.264348 0.5,0.06609 0.5625,-0.627826 -0.0625,-0.198261 -0.375,-0.09908 -1.0625,-0.726956 -0.0625,-0.264348 -0.40625,0 z m -13.03125,0.0331 -0.125,0.0331 -0.09375,0.231304 0.03125,0.264348 0.375,0.0331 0.0625,0.165217 -0.1875,0.991304 0.03125,0.165218 0.25,0.165217 0.3125,0 0.625,-0.132174 0.28125,-0.429565 0,-0.396522 0.53125,-0.495652 0.03125,-0.231304 -0.46875,0 -0.5,-0.264348 -0.96875,0 -0.1875,-0.09908 z m 3.4375,0.264347 -0.15625,0.165165 0,0.132174 0.125,0.09908 0.03125,-0.0331 0.03125,-0.198261 -0.03125,-0.165217 z m 12.0625,0 -0.3125,0.396522 0.1875,0.165218 0,0.429565 0.125,0 0.1875,-0.06609 0,-0.132174 0.21875,-0.198261 0.15625,0.165217 0,0.264348 0.1875,0 0.03125,-0.198261 0.1875,-0.0331 0.125,0 0.0625,0.132174 0.0625,0 0.03125,-0.09908 -0.125,-0.297391 -0.28125,-0.0331 -0.0625,-0.165218 -0.0625,0 -0.15625,0.06609 -0.4375,-0.0331 -0.125,-0.06609 0,-0.09908 0.15625,-0.132173 -0.03125,-0.06609 -0.125,0 z m -4.84375,0.06609 -0.09375,0.132174 0.375,0.495653 0.125,-0.0331 0.21875,0.231305 0.09375,-0.396522 0.21875,0.0331 -0.03125,-0.132174 -0.34375,-0.330435 -0.09375,0.198261 -0.46875,-0.198261 z m -5.09375,0.0331 -0.09375,0.132174 0,0.363478 0.09375,0.231304 0.0625,-0.0331 0.125,-0.231304 -0.0625,-0.09908 -0.03125,-0.297391 -0.09375,-0.06609 z m 0.4375,0 -0.28125,0.06609 0.03125,0.231304 0.0625,0.09908 0.28125,-0.165218 -0.09375,-0.231304 z m 2.125,0 -0.4375,0.330435 -0.40625,0 -0.03125,0.264347 -0.4375,0 -0.1875,0.165218 0,0.09908 0.125,0.09908 0,0.09908 -0.0625,0.132174 0.0625,0.09908 0.125,-0.06609 0.15625,0.165217 -0.03125,0.09908 -0.0625,0.06609 0.0625,0.09908 0.40625,0.09908 0.28125,-0.132174 0,-0.165217 0.15625,0.0331 0.3125,0.198261 0.34375,-0.06609 0.15625,-0.165217 0.09375,0.0331 0,0.198261 0.15625,0 0.09375,-0.264348 1.03125,-0.09908 0.46875,-0.06609 -0.125,-0.165217 0,-0.231304 0.09375,-0.09908 -0.34375,-0.297391 0.03125,-0.231304 -0.1875,0 -0.3125,-0.132174 -0.15625,0.165217 -0.625,0 -0.375,-0.231304 -0.375,-0.0331 z m -1,0.0331 -0.21875,0.09908 0,0.297391 0.25,-0.09908 0.09375,-0.06609 -0.03125,-0.132173 -0.09375,-0.09908 z m 3.40625,0.09897 -0.3125,0.09908 -0.03125,0.19826 0.34375,0.297392 0.25,0.06609 0.125,-0.132174 -0.375,-0.528696 z m -3.6875,0.0331 -0.15625,0.132174 -0.53125,-0.0331 -0.3125,0.198261 -0.1875,0.297391 0,0.132174 0.34375,0.165217 0.1875,0.06609 -0.09375,0.09908 -0.1875,0.0331 -0.03125,0.09908 0.0625,0.165217 0.21875,0.132174 0.09375,0 0,-0.297391 0.15625,-0.165218 -0.40625,-0.495652 0.0625,-0.165217 0.09375,0 0.15625,0.09908 0.09375,-0.0331 0,-0.165217 0.4375,0 0,-0.264348 z m -7.03125,0.09908 -0.03125,0.693913 -0.15625,0.132174 0.03125,0.06609 0.09375,0.165217 -0.0625,0.231305 0.09375,0.0331 0.25,-0.0331 -0.03125,-0.198261 0.15625,-0.958261 -0.03125,-0.132174 -0.3125,0 z m 29.375,0.132174 -0.21875,0.231304 0,0.231304 0.0625,0.06609 0.28125,-0.264347 -0.03125,-0.231305 -0.09375,-0.03304 z m -25.78125,0.0331 -0.1875,0.09908 0.03125,0.429565 0.15625,0.0331 0.125,-0.132174 0,-0.396521 -0.125,-0.0331 z m 12.5,0.132174 -0.15625,0.165217 0,0.132174 -0.25,0.09908 -0.4375,0 -0.59375,0.627826 -0.53125,-0.0331 0.125,0.991304 0.3125,0.06609 0.03125,0.198261 -0.21875,0.198261 0.40625,0.330435 0.78125,-0.297392 0.0625,-0.363478 0.5,-0.330435 0.1875,-0.76 0.15625,-0.165217 -0.15625,-0.264348 0.5,-0.297391 -0.0625,-0.09908 -0.25,0 0,0.231304 -0.3125,0 0,-0.297391 -0.09375,-0.132174 z m -4.84375,0.06609 -0.09375,0.0331 -0.15625,0.198261 -0.3125,-0.06609 -0.09375,0.09908 0.03125,0.165217 0.09375,0.198261 0.4375,0.462609 -0.0625,0.198261 -0.09375,0 -0.03125,0.198261 0.25,0.297391 0.21875,0.0331 0.4375,0.627826 0.21875,0.0331 0.21875,0.132174 0,0.297391 0.75,0.462609 0.28125,0 0.15625,-0.165218 0.21875,0 0.125,0.297392 0.8125,0.132173 0.03125,-0.330434 0.28125,-0.09929 0,-0.09908 -0.21875,-0.330435 -0.46875,-0.396521 0.25,-0.231305 -0.03125,-0.09908 -0.3125,-0.06609 -0.125,-1.123479 0,-0.231304 -0.875,-0.363478 -0.375,0.09908 -0.1875,0.264348 -0.1875,0 -0.0625,0.0331 -0.40625,-0.0331 -0.53125,-0.396522 -0.1875,-0.231304 z m 17.46875,0.03299 -0.125,0.132174 0.03125,0.19826 0.125,0 0.0625,0.429566 0.09375,0.09908 0.15625,-0.165217 0.0625,-0.264348 -0.1875,-0.297338 -0.21875,-0.132174 z m -26.375,0.06609 -0.125,0.06609 0.03125,0.09908 0.15625,0 0.09375,-0.06609 -0.15625,-0.09908 z m 14.65625,0.0331 -0.09375,0.132174 -0.0625,0 -0.4375,0.297391 0.125,0.264348 -0.15625,0.165217 -0.1875,0.793044 -0.5,0.330435 -0.0625,0.363478 -0.8125,0.297391 0.21875,0.297392 -0.03125,0.165217 -0.25,0.132174 -0.03125,0.264348 0.3125,0 0.09375,-0.09908 0.59375,0 0.53125,0.495652 0.0625,-0.231304 0.375,0 0,-0.297391 -0.375,-0.429566 0.0625,-0.19826 0.4375,-0.0331 0.53125,-1.222609 -0.3125,-0.264347 -0.09375,-0.429566 0.75,-0.06609 -0.4375,-0.660869 -0.25,-0.06609 z m -12.375,0.396522 -0.375,0.06609 0.03125,0.09908 0.34375,0.165218 0.03125,0.06609 0.09375,0.0331 0,-0.363478 -0.125,-0.06609 z m -7.96875,0.165217 -0.03125,0.09908 0.0625,0.06609 0.15625,-0.09908 -0.1875,-0.06609 z m 14.0625,0 -0.4375,0.06609 -0.125,0.627826 -0.5,0.429565 0.03125,0.198261 0.5,0.0331 0.78125,0.660869 0.4375,0 0,-0.165217 0.15625,-0.165218 0.21875,0.132174 0.03125,-0.0331 -0.40625,-0.594783 -0.21875,-0.0331 -0.28125,-0.363478 0.0625,-0.264348 0.09375,0 0.03125,-0.132174 -0.375,-0.396522 z m -6.90625,0.06609 -0.40625,0.165217 0.125,0.594783 -0.15625,0.09908 0.03125,0.264347 0.28125,0.297392 0,0.297391 0.0625,0.09908 0.125,-0.0331 0,-0.297391 0.09375,0 0.21875,-0.363478 -0.28125,-0.132174 0,-0.06609 0.0625,-0.132174 0,-0.297391 -0.0625,-0.0331 0,-0.165217 0.0625,-0.09908 0,-0.09908 -0.15625,-0.09908 z m 6.40625,0 -0.96875,0.09908 -0.125,0.231304 -0.1875,0 -0.03125,0.198261 0.21875,0.09908 0,0.56174 0.21875,0 0.1875,-0.165218 0.09375,-0.0331 0.5,-0.396522 0.09375,-0.594783 z m -7.21875,0.06609 -1.3125,0.264348 -0.28125,0.231304 0.1875,0.958261 -0.53125,0.0331 -0.3125,0.528696 -0.75,0.165217 0,0.396522 2.46875,1.982609 0.40625,0.0331 1.40625,-1.15668 -0.15625,-0.165217 -0.25,-0.0331 -0.15625,-0.297391 0,-1.156522 -0.09375,-0.09908 0,-0.297392 -0.28125,-0.297391 -0.03125,-0.330435 0.125,-0.06609 -0.0625,-0.363478 -0.0625,-0.198261 -0.3125,-0.132174 z m 14.71875,0.09908 -0.71875,0.06609 0.09375,0.330434 0.34375,0.297392 -0.59375,1.288695 -0.40625,0.0331 -0.0625,0.132174 0.40625,0.396521 -0.03125,0.396522 -0.40625,-0.0331 -0.03125,0.198261 0.3125,0 0.03125,0.132174 -0.25,0.132173 0.15625,0.330435 0.28125,0.09908 0.1875,-0.165218 0.09375,-0.231304 0.09375,-0.06603 0.125,0.132174 -0.03125,0.330435 -0.09375,0.165217 0.03125,0.264348 1.25,2.775652 0.375,-0.198261 0.1875,-0.793043 0,-0.991305 1.21875,-1.354782 0,-0.330435 0.21875,-0.09908 0,-0.396521 -0.25,-0.528696 0.15625,-0.297391 0.3125,0.330434 0.4375,0 0,0.198261 -0.125,0.132174 0.03125,0.09908 0.21875,0 0.03125,0.264348 0.09375,0 0.15625,-0.297392 0.09375,-0.85913 0.28125,-0.231304 0,-0.297392 -0.09375,-0.231304 -0.1875,0 -0.71875,0.495652 0.0625,0.330435 -0.5,0 -0.1875,-0.231305 -0.09375,0 0.03125,0.330435 -1.0625,-0.09908 -0.6875,-0.297392 -0.03125,-0.396574 -0.4375,-0.297392 0,-0.594782 -0.3125,-0.363478 z m -9.0625,0.231304 -0.21875,0.09908 -0.21875,0.0331 0,0.132174 0.09375,0.06609 0.15625,0.0331 0.28125,-0.297391 -0.09375,-0.06609 z m -3.90625,0.0331 -0.125,0.0331 0,0.132174 0.125,0.06609 0.0625,-0.06609 -0.0625,-0.165218 z m 1.875,0 -0.0625,0.09908 0.09375,0.0331 0.0625,0.09908 0.34375,0 0.09375,-0.132174 -0.0625,-0.0331 -0.09375,0.0331 -0.1875,0 -0.0625,-0.09908 -0.125,0 z m -6.15625,0.165165 -0.1875,0.396522 -0.40625,0.19826 -0.3125,0.958261 -0.65625,0.396522 -0.90625,1.586087 0.875,-0.0331 0.03125,-0.462609 0.25,0 0,-0.627826 0.78125,0 0,-0.826087 0.75,-0.165217 0.34375,-0.528696 0.46875,-0.0331 -0.15625,-0.85913 -0.875,0 z m 8.4375,0 0,0.165217 -0.0625,0.231305 0.21875,0.0331 0,-0.363478 -0.15625,-0.06609 z m -10.65625,0.330435 -0.09375,0.09908 0.09375,0.09908 0.125,-0.06609 -0.125,-0.132174 z m 10.5625,0.132173 -0.09375,0.396522 0.15625,0.495652 0.15625,-0.726956 0,-0.132174 -0.21875,-0.0331 z m 0.75,0.0331 -0.21875,0.165217 -0.25,0.0331 -0.1875,0.693913 0,0.09908 0.28125,0 0.34375,-0.330435 0,-0.09908 -0.125,-0.165218 0.25,-0.19826 -0.03125,-0.198261 -0.0625,0 z m -5.3125,0.0331 -0.25,0.429565 -0.0625,0 -0.03125,0.297392 -0.125,0 0,1.123478 0.125,0.264348 0.28125,0.0331 0.15625,0.231146 0.65625,0.165217 0.15625,-0.09908 1.59375,0.85913 0.25,0.0331 -0.03125,-3.007063 -0.34375,-0.06609 -0.1875,-0.231304 -0.4375,0 -0.21875,0.198261 0,0.09908 0.125,0.132174 0.03125,0.132174 -0.3125,0.165218 -0.59375,-0.297392 -0.15625,-0.264348 -0.625,-0.19826 z m 5.46875,0.198261 -0.21875,0.198261 0.09375,0.09908 0,0.165217 -0.375,0.363478 -0.3125,0 0.0625,0.231305 1.0625,1.354782 0,0.363478 0.09375,0.165218 0.28125,0.165217 0.4375,0.726957 0.3125,-0.297392 0.5,0.330435 0.4375,-0.429565 0.78125,-0.264348 0.5625,-0.330435 0.09375,-0.462608 -0.09375,-0.0331 -0.84375,-0.06609 -0.0625,-0.363478 -0.1875,-0.165217 -0.53125,-0.793044 -0.375,-0.132174 -0.03125,-0.132174 -0.46875,0.0331 -0.78125,-0.693913 -0.4375,-0.0331 z m 9.1875,0 -0.375,0.09908 0.03125,0.330434 0.625,0.297392 1,0.09908 -0.03125,-0.264348 -0.6875,-0.19826 -0.5625,-0.363479 z m -10.84375,0.06598 -0.25,0.198261 -0.1875,0 -0.40625,-0.132174 -0.1875,0 0.03125,2.445218 1.96875,0.0331 0.21875,-0.264348 -0.03125,-0.396522 -0.71875,-0.95826 -0.09375,-0.297392 0.03125,-0.198261 0.125,0.0331 0.15625,0.528695 0.125,0.06609 0.0625,-0.06609 -0.03125,-0.231304 -0.0625,-0.165217 -0.15625,-0.495653 -0.03125,0 -0.25,0 -0.21875,-0.09924 -0.09375,0 z m 13.9375,0.165218 0,0.330434 -0.28125,0.198261 -0.09375,0.859131 -0.1875,0.330435 -0.03125,0.396521 -0.125,0.06609 0.53125,0.528696 0.125,0.264348 0.0625,0.330435 0.0625,0.09908 0.1875,0 0.125,-0.264348 0.0625,-0.09908 0.21875,0.429565 0.03125,0.462609 0.125,0.0331 0.15625,0.297391 -0.15625,0.231305 0.21875,0.363478 0.0625,-0.198261 0,-0.462609 -0.28125,-0.462608 -0.03125,-0.09908 0.09375,-0.09908 0,-0.297392 -0.40625,-0.561898 0.0625,-0.363478 0.53125,-0.231304 0.125,-0.231304 -0.4375,-0.06609 -0.0625,-0.396522 -0.3125,-0.132174 -0.125,-0.330435 0.1875,-0.462609 -0.28125,-0.396521 -0.15625,-0.06609 z m -10.40625,0.132174 -0.125,0.132174 0,0.264347 0.28125,0.09908 0,-0.396522 -0.15625,-0.09908 z m 9.28125,0.132174 -0.46875,0.06609 0.09375,0.165218 0.40625,0 -0.03125,-0.231304 z m 6.625,0.06609 -0.28125,0.231305 0,0.429565 0.21875,0.264348 0.0625,-0.0331 0,-0.892174 z m -29.53125,0.330435 -0.125,0.09913 0.15625,0.132174 0.09375,-0.198261 -0.125,-0.03304 z m 22.4375,0.06609 -0.09375,0.198261 0.25,0.528696 0,0.396522 0.0625,0.09908 0.3125,0.0331 0.15625,-0.19826 0.125,0.09908 0.03125,0.231304 0.125,-0.06609 0,-0.297392 -0.09375,-0.0331 -0.0625,-0.264348 -0.21875,0 -0.03125,-0.165112 0.125,-0.165217 0,-0.09908 -0.375,0 -0.3125,-0.297391 z m -21.5625,0.0331 -0.15625,0.09908 0.0625,0.06609 0.09375,-0.165217 z m -0.5,0.0331 -0.15625,0.0331 0.09375,0.132174 0.125,0 -0.0625,-0.165217 z m 14.25,0.330435 -0.125,0.09908 -0.03125,0.297392 0.125,0.09908 0.09375,0 0.03125,-0.396522 -0.09375,-0.09908 z m 1.0625,0.0331 -0.25,0.06609 -0.28125,0.429565 -0.53125,0.0331 0.0625,0.297391 0.75,0.06609 0.0625,-0.594783 0.125,-0.06609 0.0625,-0.231304 z m -13.65625,0.0331 0,0.330435 -0.78125,0 0,0.627826 -0.25,0 -0.03125,0.462609 -0.9375,0.0331 0.15625,0.231305 -0.03125,0.991304 0.25,-0.165217 0.1875,-0.0331 0.25,0.06609 0.25,0.429566 0.28125,-0.198261 1.28125,0 -0.3125,-2.246957 0.3125,0 -0.625,-0.528696 z m 23.8125,0.132174 -0.28125,0.165218 0.09375,0.396521 0.375,0.06609 0.09375,0.297392 -0.125,0.09908 0,0.06609 0.90625,0.925218 0.03125,0.264348 -0.0625,0.826087 -0.625,0.495652 0.09375,0.132174 0.03125,0.165217 0.21875,0.0331 0.3125,-0.396521 0.28125,-0.09908 0.125,-0.396522 -0.0625,-0.694177 -0.28125,-0.429565 -0.3125,-0.231305 -0.375,-0.693913 0.28125,-0.495652 -0.40625,-0.462609 -0.3125,-0.0331 z m -10.1875,0.132174 -0.125,0.06609 -0.03125,0.528696 0.125,0.06609 -0.09375,0.528695 -0.59375,0.330435 0.3125,0.561739 0.375,0 0.84375,-1.321739 0,-0.198261 -0.6875,-0.396521 -0.125,-0.165218 z m 9.84375,0.06609 -0.15625,0.09908 -0.15625,0.495652 0.25,0.330435 -0.0625,0.396522 0.0625,0 0.4375,-0.198261 0.5625,0.660869 0,0.429565 0.125,0.09908 0.3125,-0.264348 -0.03125,-0.231304 -0.90625,-0.892174 0,-0.132174 0.125,-0.09908 -0.0625,-0.231304 -0.375,-0.06609 -0.125,-0.396522 z m -23.09375,0.264348 0.3125,2.246957 -1.3125,0 -0.25,0.165217 0.28125,0.396522 -0.03125,0.132174 0.4375,-0.0331 0.15625,0.429407 0.5625,0 0.15625,-0.462609 0.8125,-0.627826 1.0625,-0.09908 0.0625,-0.76 -0.21875,-0.0331 -1.6875,-1.354782 -0.34375,0 z m 3.9375,0.231304 -1.40625,1.189566 -0.21875,-0.0331 -0.0625,0.793044 -0.71875,0.09908 0.40625,0.66087 0.1875,-0.0331 0.1875,-0.264348 0.3125,-0.06609 0.3125,0.198261 0.65625,0.0331 0.53125,-0.231304 0.1875,-0.165218 0.03125,-0.231304 0.375,-0.396522 0.09375,-0.85913 -0.25,-0.528696 -0.625,-0.165217 z m 0.875,0.06609 -0.1875,0.09908 0.25,0.495652 -0.09375,0.925218 -0.375,0.363478 0,0.264348 -0.1875,0.165217 0.25,0.198261 0.1875,0.0331 0,0.594783 -0.125,0.09908 -0.03125,0.09908 0.125,0.06609 0.15625,0.330435 0.25,0.0331 0,-0.09908 0.40625,0.0331 0,-0.198261 0.5625,-0.561739 0.34375,0 -0.1875,-0.396522 0,-0.462609 0.28125,-0.264347 0,-0.892174 -1.625,-0.925218 z m 20.1875,0.0331 -0.1875,0.06609 -0.15625,0.165217 0.125,0.231304 0.15625,0 0.1875,-0.165217 0.03125,-0.231304 -0.15625,-0.06609 z m -16.03125,0.0331 -0.28125,0.297391 -2,0 0.03125,0.528696 -0.1875,0 -0.03125,0.958261 -0.28125,0.264348 0,0.396522 0.1875,0.429565 0.25,0.132174 -0.03125,0.264347 -0.09375,0.06609 0.9375,1.024348 0.53125,0.0331 0.0625,0.09908 0.75,0.0331 0,-0.165218 0.0625,-0.132174 0.25,-0.0331 -0.3125,-0.462609 -0.21875,0 -0.0625,-0.330435 0.1875,-0.09908 0.53125,-1.189565 0,-0.66087 0.34375,-0.396522 -0.625,-1.057391 z m 13.71875,0 -0.5,0.198261 -0.03125,0.330435 0.40625,0.528695 0,0.363479 -0.09375,0.09908 0.03125,0.0331 0.28125,0.462608 0,0.528696 -0.125,0.231304 -0.03125,0.165218 -0.09375,0.198261 0.0625,0.231304 0.25,0.231304 0.21875,0 0.1875,0.297392 0.21875,0 0.03125,-0.09908 -0.40625,-0.429935 -0.25,-0.429566 0.03125,-1.024347 0.0625,-0.09908 0.15625,0 0,0.231304 0.34375,0.264348 0.125,-0.06609 0,-0.198261 -0.15625,-0.06609 -0.03125,-0.19826 0.1875,-0.297392 0.09375,0 0.15625,0.06609 0.15625,0.0331 0,-0.396522 -0.46875,-0.561739 -0.0625,-0.0331 -0.40625,0.198261 -0.09375,-0.0331 0,-0.429565 -0.25,-0.330435 z m 4.71875,0.198261 -0.1875,0.132174 -0.03125,0.495652 0.3125,0.627826 0.125,0.09908 0.125,-0.09908 0.21875,0.0331 0.0625,0.198261 0.15625,0.0331 0.09375,-0.132174 -0.125,-0.132174 -0.125,-0.132174 -0.25,-0.0331 -0.15625,-0.231305 0.15625,-0.264348 0.03125,-0.231304 -0.125,-0.297391 -0.28125,-0.06609 z m -14.9375,0.660552 -0.75,0.264348 -0.4375,0.429565 -0.5,-0.297391 -0.28125,0.264348 0.125,0.363478 0,0.330435 0.125,0.165217 0.125,0.09908 1.875,-0.826087 0.03125,-0.231304 -0.3125,-0.561687 z m -1.71875,1.52 -0.125,-0.06609 -0.15625,0.198261 -0.03125,0.297392 0.28125,0 0.03125,-0.429566 z m -1.125,-1.255652 -0.3125,0.363478 0.03125,0.462609 0.5625,0 0.53125,0.495652 0.125,-0.165217 -0.71875,-0.561739 -0.15625,-0.528696 -0.0625,-0.06609 z m 14.03125,0.396522 -0.0625,0.0331 -0.15625,0.264348 0.03125,0.132174 0.15625,0.06609 -0.03125,0.264348 -0.09375,0.06609 0.3125,0.363478 0.59375,-0.462609 0.03125,-0.726956 -0.28125,0.231304 -0.15625,-0.09908 -0.21875,-0.0331 -0.125,-0.09908 z m -25.46875,0.06609 -0.15625,0.0331 -0.3125,0.231305 -0.0625,0.132173 -0.03125,0.132174 0.125,0.06609 0.375,0 0.25,-0.06609 0,0.132174 0,0.165218 0.21875,0.09908 0.0625,0.06609 0.28125,0 0.03125,-0.132174 -0.28125,-0.363478 -0.3125,-0.429565 -0.1875,-0.06609 z m 29.34375,0 0.0625,0.231304 0.09375,0.06609 0.0625,-0.09908 -0.125,-0.165218 -0.09375,-0.0331 z m -31.25,0.0331 -0.125,0.09908 0.09375,0.09908 0.125,-0.06609 -0.09375,-0.132174 z m 0.375,0.198261 -0.09375,0.06609 0.0625,0.132174 0.15625,-0.06609 -0.125,-0.132174 z m 31.875,0 -0.1875,0.0331 0.15625,0.198261 0.0625,0.198261 0.125,0 -0.03125,-0.33054 -0.125,-0.09908 z m -27.09375,0.09908 -0.28125,0.0331 -0.8125,0.627826 -0.125,0.429565 0.09375,0.132174 0.34375,-0.0331 0.09375,-0.231304 0.40625,-0.0331 0.3125,0.09908 0.40625,-0.330435 -0.4375,-0.693807 z m 26.4375,0.09908 -0.03125,0.396522 0.15625,0.165217 0.03125,0.264348 0.15625,0.0331 0.0625,-0.165218 -0.09375,-0.09908 -0.03125,-0.495653 -0.25,-0.09908 z m -31.4375,0.0331 -0.125,0.09908 0.125,0.165218 0.125,-0.0331 -0.125,-0.231304 z m 12.90625,0 -0.5625,1.321739 -0.1875,0.0331 0.03125,0.264348 0.21875,0 0.34375,0.528696 0.1875,0.06609 0.4375,0.396521 0.25,0 1,-0.330435 0.71875,-0.826086 -0.375,0 -0.625,-0.396522 -0.03125,-0.231305 -0.40625,0 0.03125,-0.396521 -0.46875,-0.429566 -0.5625,0 z m -11.03125,0.132173 -0.15625,0.06609 -0.375,0.0331 0,0.06609 0.53125,0 0.03125,-0.09908 -0.03125,-0.06609 z m 29.9375,0 0,0.363479 0.09375,0.132174 0.125,-0.165218 -0.03125,-0.330435 -0.1875,0 z m -1,0.0331 -0.0625,0.132174 -0.03125,0.165217 -0.375,0.462609 0.03125,0.132174 0.15625,-0.0331 0.46875,-0.561739 -0.1875,-0.297391 z m -24.65625,0.06609 -0.25,0.06609 -0.125,0.231304 0,0.627826 -0.21875,0.297392 0,0.462608 0.3125,0.0331 0.34375,0.429565 0.1875,0.0331 0.125,-0.06609 0.21875,-0.0331 0.0625,-0.297391 0.3125,-0.198261 0.3125,-0.0331 0.5625,-1.090435 -0.03125,-0.264347 -0.25,-0.198261 -0.53125,0.231304 -0.6875,0 -0.34375,-0.231357 z m 10.40625,0 -0.1875,0.06609 -0.1875,0.0331 0.1875,0.198261 0.21875,-0.165217 0.0625,-0.0331 -0.09375,-0.09908 z m -15.21875,0.132174 0.09375,0.264348 0.03125,-0.165218 0.65625,0.06609 -0.28125,-0.132174 -0.5,-0.0331 z m 6.6875,0.09908 0,0.264348 -0.5625,1.123478 -0.34375,0.0331 -0.25,0.165217 -0.0625,0.297391 0.25,0.231305 -0.03125,0.363478 1.375,-0.0331 0.09375,-0.132174 -0.375,-0.429565 -0.0625,-0.165218 0.25,-0.495652 -0.15625,-0.330435 -0.15625,-0.06609 0,-0.165217 0.15625,-0.132174 0.03125,-0.495652 -0.15625,-0.0331 z m -6.5,0.06609 -0.0625,0.198261 0.125,0.231304 0.28125,-0.297391 0,-0.06609 -0.34375,-0.06609 z m 14.40625,0 -0.3125,0.165218 0.0625,0.297391 -0.0625,0.297391 -0.1875,0.165218 -0.78125,0.892174 -0.5625,0.165217 -0.25,0.330435 0.03125,0.793043 0.1875,0.132174 1.6875,-1.883478 0.3125,-0.958261 0,-0.297391 -0.125,-0.09908 z m 16.25,0 0.03125,0.264348 -0.25,0.198261 -0.21875,0.0331 -0.25,0.264348 0.03125,0.09908 0.1875,-0.06609 0.15625,-0.09908 0.125,0.330435 0.21875,0.165217 0.09375,-0.0331 0.09375,-0.09908 -0.1875,-0.165217 0.09375,-0.09908 0.125,0.09908 0.09375,-0.132174 -0.09375,-0.165217 0,-0.396522 -0.25,-0.198261 z m -30.25,0.0331 0,0.165217 -0.3125,0.264348 0.21875,0.396522 0.3125,-0.297392 0.3125,0 0.25,0.363479 0.21875,0.165217 0.09375,-0.198261 0.0625,-0.0331 0,-0.363479 -0.125,-0.462608 -0.46875,0.06609 -0.5625,-0.06609 z m 3.59375,0 -0.34375,0.264347 0.15625,0.297392 0,0.826087 0.15625,0 0,-0.495652 0.21875,-0.330435 0,-0.528696 -0.1875,-0.0331 z m 10.03125,0.132173 -0.78125,0.297392 -0.09375,0 -0.3125,-0.231305 0,0.231305 0.59375,0.363478 0.4375,0.0331 0.15625,-0.132174 0.0625,-0.264347 -0.0625,-0.297392 z m -10.84375,0.165218 -0.375,0.0331 -0.125,0.859131 0.09375,0.198261 0.21875,0.363478 0.125,0 0.34375,-0.198261 -0.03125,-1.156522 -0.25,-0.09908 z m 0.40625,0.0331 -0.0625,0.06609 0,1.123478 0.21875,-0.132173 0,-0.826087 -0.15625,-0.231305 z m 4.46875,0 -0.5,0.528696 -0.03125,0.231304 -0.40625,-0.0331 0,0.09908 -0.28125,-0.0331 -0.25,0.495652 0.0625,0.132174 0.34375,0.396522 0.15625,-0.165217 0.21875,0 0.0625,-0.198261 0.218751,-0.132174 0.46875,0.330435 0.25,-0.297392 1.03125,0.06609 -0.9375,-1.057563 0.125,-0.06609 0,-0.198261 -0.21875,-0.09908 -0.3125,0 z m 12.96875,0.06609 -0.125,0.06609 0.03125,0.198261 0,0.165217 -0.09375,0.0331 0.03125,0.363478 0.1875,0.09908 0.25,-0.165218 -0.0625,-0.396522 0.03125,-0.132173 -0.25,-0.231305 z m -19.21875,0.0331 -0.1875,0.0331 0.03125,0.429565 -0.09375,0.0331 -0.125,0.198261 0.28125,0.330435 0.03125,0.528696 0.34375,-0.264348 0.40625,-0.06609 0.40625,0.09908 -0.21875,-0.363479 -0.0625,-0.198261 0.0625,-0.627826 -0.375,0.0331 -0.15625,-0.165218 -0.34375,0 z m -0.90625,0.165217 -0.28125,0.0331 -0.28125,0.231305 0.4375,0.429565 0.3125,-0.396522 -0.1875,-0.297391 z m 27.9375,0.231304 -0.25,0.462609 0.09375,0.264348 -0.15625,0.231304 -0.25,-0.09908 -0.65625,0.528695 0.03125,0.264348 -0.3125,0 0.25,0.264348 0.875,-0.297391 0.1875,-0.726957 0.40625,-0.0331 0.34375,-0.297392 -0.46875,-0.363478 -0.09375,-0.198261 z m -27.6875,0.132174 -0.3125,0.396522 0.84375,0.594783 -0.03125,-0.462609 -0.25,-0.297391 -0.25,-0.231305 z m 23.78125,0.09897 0.15625,0.363478 0.03125,0.462609 0.1875,0.363478 0.5,0.297392 0.1875,0.0331 -0.03125,-0.330435 -0.15625,-0.429565 -0.25,-0.528696 0,0.09908 -0.3125,-0.0331 -0.1875,-0.297391 -0.125,0 z m -0.8125,0.165217 0,0.198261 0.53125,0.925218 0.125,0 1.09375,1.916522 0.4375,0.06609 0.21875,-0.693913 -0.34375,-0.231304 -0.0625,-0.363478 -2,-1.817392 z m 4.4375,0.132174 -0.21875,0.297392 0.15625,0.06609 0.125,-0.165218 -0.0625,-0.198261 z m -9.53125,0.132174 0.03125,0.198261 0.125,0.06609 0.03125,-0.198261 -0.1875,-0.06609 z m -7.8125,0.165218 -0.28125,0.0331 -0.03125,0.06609 0,0.198261 0.21875,0.429565 -0.25,0.528696 -0.03125,0.165217 1.21875,0.826087 0.375,-0.627826 -0.1875,-0.165217 0,-0.859131 0.25,-0.264348 -0.40625,0.132174 -0.28125,0 -0.46875,-0.396522 -0.125,-0.06609 z m -3.5625,0.06609 -0.1875,0.132174 -0.09375,1.057391 -0.3125,0.231304 -0.09375,0.231305 0.03125,0.330434 -0.5625,0.462609 -0.125,-0.06609 0.03125,0.06609 -0.1875,0.165217 0.8125,0 0.15625,0.231305 0,0.165217 0.0625,0.06609 0.375,0 0.125,-0.231304 0.15625,0 0.0625,0.06609 0.21875,0 0.0625,0.826087 0.40625,0 0,0.06609 1.03125,0.495652 0.03125,0.09908 0.21875,0 -0.03125,-0.363478 -0.375,-0.198261 0.03125,-0.264347 0.15625,-0.396522 0.375,0 -0.3125,-1.156522 0,-0.495652 0.5,-0.859131 0.03125,-0.132174 -0.09375,-0.0331 0,-0.231304 -0.09375,0 -0.09375,-0.132174 -1.5625,-0.09908 -0.28125,0.297392 -0.46875,-0.330435 z m 21.34375,0.0331 -0.28125,0.0331 -0.1875,0.693808 -0.96875,0.363478 -0.28125,-0.363478 -0.15625,0.03304 0.25,1.057391 0.40625,0.06609 0.53125,0.198261 0,0.231305 0.21875,-0.06609 0.375,-0.495653 0,-0.429565 0.1875,-0.429565 0.21875,0.06609 -0.25,-0.594783 -0.0625,-0.363478 z m -9.78125,0.165217 -0.03125,0.264348 0.09375,0.06609 0.09375,-0.165217 -0.15625,-0.165218 z m -8.96875,0.06609 -0.03125,0.165218 0.09375,0.09908 0,0.165218 -0.375,0.561739 0.25,0.231304 0.125,-0.09908 0.40625,-0.06609 0.0625,0 0.03125,-0.165218 0.21875,-0.495652 -0.1875,-0.396522 -0.59375,0 z m -5.03125,0.0331 -0.0625,0.165217 0.125,0.06609 0.09375,-0.09908 -0.03125,-0.132173 -0.125,0 z m 1.9375,0.0331 -0.25,0.363478 -0.625,0.0331 0,0.09908 0.375,0.0331 0,0.991304 -0.3125,0 -0.1875,-0.165217 -0.15625,0.09908 -0.03125,0.0331 0.09375,0.0331 0.03125,0.231304 -0.21875,0.165218 0.03125,0.09908 0.25,-0.165217 0.09375,0 0.03125,0.09908 0.15625,0.06609 0.46875,-0.429565 0,-0.297391 0.09375,-0.231305 0.3125,-0.264347 0.0625,-0.793044 -0.21875,0 z m 24.0625,0.231304 -0.15625,0.363479 0.21875,0.330434 0.09375,0 0.09375,-0.231304 0.0625,-0.06609 -0.125,-0.09908 -0.125,-0.06609 -0.0625,-0.231305 z m -0.5,0.06609 -0.28125,0.264348 -0.1875,0 -0.28125,-0.165217 -0.21875,0.03289 -0.21875,0.363478 -0.15625,0.693913 -0.0625,0.264348 0.15625,0.231304 -0.09375,0.330435 0,0.06609 0.25,0 0.09375,-0.859131 0.09375,0.0331 0.125,0.76 0.15625,0.06609 0.125,-0.330435 -0.125,-0.528696 -0.125,-0.198261 0.375,-0.264347 -0.09375,-0.132174 -0.34375,0.231304 -0.09375,0 -0.15625,-0.264348 0.0625,-0.09908 0.28125,-0.165218 0.40625,0.132174 0.125,0 0.34375,-0.297391 -0.15625,-0.165218 z m -25.1875,0.09908 0,0.132174 0.34375,0 0,-0.132174 -0.34375,0 z m 0.40625,0 0,0.198261 -0.4375,0 -0.28125,0.528695 0.625,0.726957 0.15625,-0.132174 0,-0.132174 -0.09375,-0.06609 0,-0.09908 0.21875,-0.165218 0.21875,0.198261 0.25,0 0,-0.85913 -0.375,-0.0331 0,-0.165217 -0.28125,0 z m 13.28125,0 -0.0625,0.09908 0.09375,0.06609 0.125,-0.06609 -0.15625,-0.09908 z m -14.3125,0.06609 0.0625,0.132174 0.0625,0.0331 0.0625,-0.09908 -0.0625,-0.06609 -0.125,0 z m -0.09375,0.264348 -0.0625,0.0331 0,0.09908 0.0625,0.0331 0.0625,-0.09908 -0.0625,-0.06609 z m 27.75,0.231304 -0.3125,0.0331 -0.1875,0.165218 0.0625,0.165217 0.34375,0.06609 0,0.06609 -0.21875,0.198261 0.125,0.396522 0.09375,0 0.09375,-0.396522 0.1875,0 0.0625,0.396522 0.84375,0.726956 0,0.561739 0.3125,0.330435 0.125,0 0.03125,-2.015652 -0.5,-0.363478 -0.46875,0.330434 -0.15625,0.09908 -0.28125,-0.165217 0,-0.594783 -0.15625,0 z m -22.65625,0.0331 -0.125,0.198261 0,0.231305 0.34375,0 0,-0.231305 -0.21875,-0.198261 z m 0.8125,0.0331 -0.375,0.09908 -0.15625,0.09908 0,0.231304 -0.09375,0.363479 -0.09375,0.09908 -0.15625,0.0331 0.28125,0.925218 0.40625,0.231304 0.3125,0 0,0.06609 -0.25,0 0.125,0.594783 -0.09375,0.429565 0.25,0.297391 0,0.330435 0.03125,0.132174 0.3125,-0.363478 -0.03125,-0.462609 -0.15625,-0.132174 0,-0.06609 -0.09375,-0.363478 1.28125,-0.165217 -0.28125,-0.627827 -0.03125,-0.594782 0.09375,-0.297392 -1.28125,-0.85913 z m 0.3125,2.907826 0.21875,0.165217 0.0625,0.528696 -0.4375,0.462609 -0.09375,-0.264348 0,-0.330435 -0.21875,-0.264348 -0.625,0.297392 0.5625,0.297391 0.03125,0.85913 -0.375,0.594783 0,0.693913 0.21875,0.198261 0.46875,-0.330435 0.09375,-0.462609 0,-0.76 0.78125,-0.693913 0.125,0 0.5,-0.462608 -0.09375,-0.991305 -1.25,0.165218 0.03125,0.297391 z m 20.625,-2.478261 -0.3125,0.06609 -0.09375,0.09908 0.09375,0.132174 0.1875,-0.06609 0.125,-0.09908 0.1875,0.165217 0.09375,-0.06609 -0.15625,-0.198261 -0.125,-0.0331 z m -21.5625,0.03283 -0.3125,0.0331 0,0.165218 0.0625,0.198261 0.09375,0 0.09375,-0.06609 0.0625,-0.330435 z m 24.09375,0.198261 -0.03125,1.982609 0.28125,0 0.34375,-0.462609 0.3125,0.0331 0.1875,0.165218 0.0625,0.561739 0.59375,0.363478 0.15625,-0.06609 0,-0.231304 -0.46875,-0.429618 -0.25,-0.594783 0.1875,-0.09908 -0.125,-0.297391 -0.3125,-0.0331 -0.0625,-0.330435 -0.75,-0.561739 -0.125,0 z m -18.65625,0.06609 -0.125,0.09908 0.09375,0.165218 0.15625,0 -0.125,-0.264348 z m -9.375,0.165217 -0.1875,0.165218 0.125,0.19826 0.15625,-0.19826 -0.03125,-0.165218 -0.0625,0 z m 9.4375,0.264348 -0.09375,0.09908 0.0625,0.132174 0.125,0.0331 0.03125,-0.264348 -0.125,0 z m -8.65625,0.165217 -0.8125,0.0331 0.25,1.024348 0,0.330434 -0.375,0.429566 -0.0625,0.726956 1.46875,0 0.46875,0.198261 0.40625,-0.06609 -0.21875,-0.297391 0,-0.892174 0.4375,-0.0331 0,-0.330435 -0.375,0 -0.0625,-0.826087 -0.15625,0 -0.09375,-0.06609 -0.09375,0 -0.09375,0.264348 -0.46875,0 -0.125,-0.132174 0.03125,-0.165218 -0.125,-0.198261 z m 19.5625,0.132174 -0.21875,0.165218 0.0625,0.132174 0.65625,0.165217 0.34375,0.06609 0.15625,0.165217 0.375,0.0331 0.1875,0.165217 0.15625,-0.06609 0.15625,-0.132174 -0.28125,-0.132174 -0.21875,-0.231357 -0.65625,-0.165217 -0.71875,-0.165218 z m -11.625,0.0331 -0.03125,0.09908 0.125,0.09908 0.09375,-0.09908 -0.1875,-0.09908 z m 21.21875,0.06609 -0.28125,0.06609 0.03125,0.165217 0.25,-0.0331 0,-0.198261 z m -26.0625,0.297391 -0.34375,0.0331 -0.15625,0.396522 0,0.165217 0.40625,0.198261 0.03125,0.429566 -0.34375,0.03294 -0.09375,-0.132174 -0.9375,-0.429565 -0.03125,0.330435 -0.4375,0 0,0.76 0.21875,0.330435 0.375,0.0331 0.15625,0.09908 0.375,0 0.34375,-0.528696 0.96875,-0.429565 0.09375,-0.396522 -0.125,-0.594783 -0.5,-0.297391 z m 18.96875,0.231304 0.03125,0.165218 0.15625,0.06609 0.09375,-0.09908 -0.09375,-0.132174 -0.1875,0 z m -0.28125,0.09908 -0.1875,0.09908 0.09375,0.09908 0.25,-0.09908 -0.15625,-0.09908 z m 0.84375,0 -0.09375,0.06609 -0.03125,0.09908 0.34375,0.0331 0.25,-0.165218 -0.15625,-0.0331 -0.21875,0.06609 -0.09375,-0.06609 z m 1.03125,0.09908 -0.40625,0.363479 0.03125,0.09908 0.1875,-0.0331 0.1875,-0.198261 0.375,-0.06609 -0.0625,-0.132174 -0.3125,-0.0331 z m -17.625,0.231305 0.03125,0.132174 0.15625,0.0331 0.0625,-0.165217 -0.25,0 z m 16.4375,0 -0.21875,0.0331 0.21875,0.165218 0.125,0 -0.125,-0.198261 z m -15.3125,0.132174 -0.15625,0.429565 -0.28125,0.528696 -0.5,0.0331 -0.1875,0.264348 0.03125,0.793043 -0.3125,0.396522 0.03125,0.627826 0.25,0.297391 0.3125,-0.0331 0.3125,-0.231304 -0.0625,-0.363478 0.6875,-1.288696 -0.125,-0.165218 0.125,-0.330434 0.15625,0.06609 0.0625,-0.132174 -0.15625,-0.627826 -0.09375,-0.264348 -0.09375,0 z m -0.6875,0.09908 -0.21875,0.0331 0.0625,0.132174 0.09375,0 0.0625,-0.165218 z m 18.875,0.594783 -0.78125,0.231304 -0.21875,0.66087 -0.34375,0.09908 -0.03125,-0.462608 -1.46875,0.925217 0.03125,0.330435 -0.21875,0.330435 -0.53125,0 -1.1875,0.528695 -0.40625,1.156681 -0.03125,2.081739 -0.3125,0.231304 0,0.198261 0.40625,0.297392 1,-0.198261 0.53125,0 0.1875,-0.297392 1.15625,-0.231304 0.8125,0.264348 -0.0625,0.330435 0.125,0.363478 0.625,-0.132174 0.03125,0.198261 -0.4375,0.297391 0.15625,0.132174 0.28125,-0.132174 -0.0625,0.991305 0.5625,0.462608 0.34375,-0.132174 0.15625,0.165218 0.96875,-0.132174 0.875,-1.553044 0.34375,-0.06609 0.65625,-1.288695 0.15625,-1.123479 -0.40625,-0.528695 0.15625,-0.132174 -0.3125,-1.090435 -0.375,-0.264348 0.0625,-1.453913 -0.3125,-0.264348 -0.09375,-0.793043 -0.15625,0 -0.5625,1.916521 -0.28125,0.0331 -0.6875,-0.726957 0.375,-1.090435 -0.71875,-0.132173 z m -22.40625,0.198367 -0.21875,0.09913 -0.34375,0.495652 -0.4375,0 0,0.09908 0.71875,0.826087 0.53125,0.16527 0.34375,-0.594783 -0.03125,-0.793043 -0.5625,-0.297391 z m -3.96875,0.396521 0.0625,0.429566 0.46875,0.726956 -0.09375,0.396522 0,0.198261 0.375,0.958261 0.25,0.0331 0.15625,0.165217 0.375,0 0.09375,-1.090434 0,-0.693914 0.21875,-0.0331 0.09375,-0.76 0.59375,0 0.1875,-0.198261 -0.34375,0 -0.46875,0.06609 -0.53125,-0.198261 -1.4375,0 z m 2.84375,0.165218 -0.21875,0.198261 -0.5625,0.0331 -0.09375,0.726956 -0.21875,0.06609 0,0.66087 0.15625,0.06609 -0.03125,0.495652 0.1875,0.0331 0.375,-0.396522 0.46875,0.06609 0.125,-0.330435 0.59375,-0.594783 -0.71875,-0.85913 0,-0.132174 -0.0625,-0.0331 z m 6.9375,0.693913 -0.09375,0.165217 0,0.165218 0.25,-0.198261 -0.15625,-0.132174 z m -0.40625,0.264348 -0.1875,0.0331 0,0.132174 0.09375,0.0331 0.1875,-0.06609 -0.09375,-0.132174 z m -5.65625,0.09913 -0.625,0.594783 -0.125,0.363478 -0.5,-0.06609 -0.40625,0.396522 -0.25,-0.0331 0.03125,-0.528695 -0.09375,-0.0331 -0.09375,1.057392 -0.46875,0 -0.125,-0.165218 -0.21875,0 0.1875,0.561739 0.34375,0.363479 -0.25,0.297391 0.15625,0.363478 0.375,0.132174 0.28125,-0.264348 0.84375,0.0331 0.0625,-0.09908 0.34375,-0.06609 1.25,-1.321739 0,-0.396522 -0.125,0.198261 -0.1875,0 -0.25,-0.231304 0.125,-0.330435 0.21875,-0.03304 -0.03125,-0.66087 -0.46875,-0.132174 z m 0.5,0.85913 -0.1875,0.0331 -0.0625,0.231304 0.125,0.132174 0.1875,0 0.15625,-0.231304 -0.21875,-0.165271 z m -0.78125,0.66087 0.09375,0 0.1875,0.198261 0,0.264348 -0.21875,0.09908 0,0.09908 -0.34375,0 -0.125,-0.264348 0.125,-0.198261 0.28125,-0.198261 z m 0,0.06609 -0.25,0.198261 -0.0625,0.132174 0.0625,0.165217 0.25,0.0331 0,-0.06609 0.21875,-0.09908 0.03125,-0.165217 -0.15625,-0.198261 -0.09375,0 z m 22.75,5.98087 -0.125,0.561739 0.03125,0.429565 0.40625,-0.0331 0.46875,-0.76 -0.78125,-0.198261 z m -15.65625,0.264348 0,0.363478 0.46875,0.09908 0.09375,-0.297338 -0.15625,0.06609 -0.21875,0.0331 -0.0625,-0.264348 -0.125,0 z m 19.65625,2.081739 -0.3125,0.132174 0.0625,0.231304 0.25,0.132174 0,-0.495652 z"
       id="kalimantan"
       style="opacity:0.2;fill:#000000;fill-opacity:1" />
    <rect
       style="opacity:0.29999999;fill:none;stroke:url(#linearGradient3114);stroke-width:1;stroke-linecap:round;stroke-linejoin:round;stroke-miterlimit:4;stroke-opacity:1;stroke-dasharray:none;stroke-dashoffset:0"
       id="rect6741-2"
       y="6.5"
       x="5.499999"
       ry="1"
       rx="1"
       height="37"
       width="37"
       mask="none"
       clip-path="none" />
    <path
       sodipodi:nodetypes="ccsssccsssss"
       inkscape:connector-curvature="0"
       id="path3830"
       d="m 23.999999,13 -6.90625,12 c -0.684275,1.178958 -1.09375,2.538709 -1.09375,4 0,4.418278 3.581722,8 8,8 4.418278,0 8,-3.581722 8,-8 0,-1.461291 -0.409475,-2.821042 -1.09375,-4 z m 0,14 c 1.104569,0 2,0.895431 2,2 0,1.104569 -0.895431,2 -2,2 -1.104569,0 -2,-0.895431 -2,-2 0,-1.104569 0.895431,-2 2,-2 z"
       style="fill:#000000;fill-opacity:1;stroke:#000000;stroke-opacity:1;opacity:0.09999995000000000;stroke-width:3;stroke-miterlimit:4;stroke-dasharray:none" />
    <path
       style="fill:#000000;fill-opacity:1;stroke:#000000;stroke-opacity:1;opacity:0.09999995;stroke-width:2.00000009999999984;stroke-miterlimit:4;stroke-dasharray:none"
       d="m 23.999999,13 -6.90625,12 c -0.684275,1.178958 -1.09375,2.538709 -1.09375,4 0,4.418278 3.581722,8 8,8 4.418278,0 8,-3.581722 8,-8 0,-1.461291 -0.409475,-2.821042 -1.09375,-4 z m 0,14 c 1.104569,0 2,0.895431 2,2 0,1.104569 -0.895431,2 -2,2 -1.104569,0 -2,-0.895431 -2,-2 0,-1.104569 0.895431,-2 2,-2 z"
       id="path3828"
       inkscape:connector-curvature="0"
       sodipodi:nodetypes="ccsssccsssss" />
    <path
       sodipodi:nodetypes="ccsssccsssss"
       inkscape:connector-curvature="0"
       id="path3826"
       d="m 23.999999,13 -6.90625,12 c -0.684275,1.178958 -1.09375,2.538709 -1.09375,4 0,4.418278 3.581722,8 8,8 4.418278,0 8,-3.581722 8,-8 0,-1.461291 -0.409475,-2.821042 -1.09375,-4 z m 0,14 c 1.104569,0 2,0.895431 2,2 0,1.104569 -0.895431,2 -2,2 -1.104569,0 -2,-0.895431 -2,-2 0,-1.104569 0.895431,-2 2,-2 z"
       style="fill:#000000;fill-opacity:1;stroke:#000000;stroke-opacity:1;opacity:0.15" />
    <path
       style="fill:#ffffff;fill-opacity:1;stroke:none"
       d="m 23.999999,13 -6.90625,12 c -0.684275,1.178958 -1.09375,2.538709 -1.09375,4 0,4.418278 3.581722,8 8,8 4.418278,0 8,-3.581722 8,-8 0,-1.461291 -0.409475,-2.821042 -1.09375,-4 z m 0,14 c 1.104569,0 2,0.895431 2,2 0,1.104569 -0.895431,2 -2,2 -1.104569,0 -2,-0.895431 -2,-2 0,-1.104569 0.895431,-2 2,-2 z"
       id="path3817"
       inkscape:connector-curvature="0"
       sodipodi:nodetypes="ccsssccsssss" />
  </g>
</svg>
