<?xml version="1.0" encoding="UTF-8" standalone="no"?>
<!-- Created with Inkscape (http://www.inkscape.org/) -->

<svg
   xmlns:dc="http://purl.org/dc/elements/1.1/"
   xmlns:cc="http://creativecommons.org/ns#"
   xmlns:rdf="http://www.w3.org/1999/02/22-rdf-syntax-ns#"
   xmlns:svg="http://www.w3.org/2000/svg"
   xmlns="http://www.w3.org/2000/svg"
   xmlns:xlink="http://www.w3.org/1999/xlink"
   xmlns:sodipodi="http://sodipodi.sourceforge.net/DTD/sodipodi-0.dtd"
   xmlns:inkscape="http://www.inkscape.org/namespaces/inkscape"
   width="48px"
   height="48px"
   id="svg3321"
   version="1.1"
   inkscape:version="0.48.3.1 r9886"
   sodipodi:docname="opera.svg">
  <defs
     id="defs3323">
    <linearGradient
       id="linearGradient3838">
      <stop
         style="stop-color:#ffffff;stop-opacity:1;"
         offset="0"
         id="stop3840" />
      <stop
         style="stop-color:#cccccc;stop-opacity:1;"
         offset="1"
         id="stop3842" />
    </linearGradient>
    <linearGradient
       id="linearGradient3814">
      <stop
         style="stop-color:#cccccc;stop-opacity:1;"
         offset="0"
         id="stop3816" />
      <stop
         style="stop-color:#ffffff;stop-opacity:1;"
         offset="1"
         id="stop3818" />
    </linearGradient>
    <linearGradient
       inkscape:collect="always"
       xlink:href="#linearGradient25689"
       id="linearGradient25695"
       x1="30"
       y1="33"
       x2="30"
       y2="15"
       gradientUnits="userSpaceOnUse" />
    <linearGradient
       id="linearGradient25689">
      <stop
         style="stop-color:#cccccc;stop-opacity:1"
         offset="0"
         id="stop25691" />
      <stop
         style="stop-color:#ffffff;stop-opacity:1;"
         offset="1"
         id="stop25693" />
    </linearGradient>
    <linearGradient
       inkscape:collect="always"
       xlink:href="#linearGradient25689"
       id="linearGradient3255"
       x1="30"
       y1="33"
       x2="30"
       y2="15"
       gradientUnits="userSpaceOnUse" />
    <linearGradient
       id="linearGradient3257">
      <stop
         style="stop-color:#cccccc;stop-opacity:1"
         offset="0"
         id="stop3259" />
      <stop
         style="stop-color:#ffffff;stop-opacity:1;"
         offset="1"
         id="stop3261" />
    </linearGradient>
    <linearGradient
       inkscape:collect="always"
       xlink:href="#linearGradient3924"
       id="linearGradient3114"
       gradientUnits="userSpaceOnUse"
       gradientTransform="translate(2.8e-6,0.96748162)"
       x1="23.99999"
       y1="4.999989"
       x2="23.99999"
       y2="43" />
    <linearGradient
       id="linearGradient3924">
      <stop
         id="stop3926"
         style="stop-color:#ffffff;stop-opacity:1;"
         offset="0" />
      <stop
         offset="0.03060043"
         style="stop-color:#ffffff;stop-opacity:0.23529412;"
         id="stop3928" />
      <stop
         id="stop3930"
         style="stop-color:#ffffff;stop-opacity:0.15686275;"
         offset="0.9691714" />
      <stop
         id="stop3932"
         style="stop-color:#ffffff;stop-opacity:0.39215687;"
         offset="1" />
    </linearGradient>
    <radialGradient
       inkscape:collect="always"
       xlink:href="#linearGradient3242-187-536"
       id="radialGradient3117"
       gradientUnits="userSpaceOnUse"
       gradientTransform="matrix(1.9428467e-8,2.33699,-2.4722567,-4.3056275e-8,44.890102,-11.467327)"
       cx="7.4956832"
       cy="8.4497671"
       fx="7.4956832"
       fy="8.4497671"
       r="19.99999" />
    <linearGradient
       id="linearGradient3242-187-536">
      <stop
         id="stop2778"
         style="stop-color:#e62929;stop-opacity:1;"
         offset="0" />
      <stop
         id="stop2780"
         style="stop-color:#c81e1e;stop-opacity:1;"
         offset="0.26238" />
      <stop
         id="stop2782"
         style="stop-color:#960a0a;stop-opacity:1;"
         offset="0.66093999" />
      <stop
         id="stop2784"
         style="stop-color:#780000;stop-opacity:1;"
         offset="1" />
    </linearGradient>
    <linearGradient
       inkscape:collect="always"
       xlink:href="#linearGradient2490-182-124"
       id="linearGradient3119"
       gradientUnits="userSpaceOnUse"
       gradientTransform="translate(-2e-7,0.96747162)"
       x1="24"
       y1="44"
       x2="24"
       y2="3.8990016" />
    <linearGradient
       id="linearGradient2490-182-124">
      <stop
         id="stop2788"
         style="stop-color:#740000;stop-opacity:1;"
         offset="0" />
      <stop
         id="stop2790"
         style="stop-color:#a20400;stop-opacity:1;"
         offset="1" />
    </linearGradient>
    <radialGradient
       cx="4.9929786"
       cy="43.5"
       r="2.5"
       fx="4.9929786"
       fy="43.5"
       id="radialGradient2873-966-168"
       xlink:href="#linearGradient3688-166-749"
       gradientUnits="userSpaceOnUse"
       gradientTransform="matrix(2.003784,0,0,1.4,27.98813,-17.4)" />
    <linearGradient
       id="linearGradient3688-166-749">
      <stop
         id="stop2883"
         style="stop-color:#181818;stop-opacity:1"
         offset="0" />
      <stop
         id="stop2885"
         style="stop-color:#181818;stop-opacity:0"
         offset="1" />
    </linearGradient>
    <radialGradient
       cx="4.9929786"
       cy="43.5"
       r="2.5"
       fx="4.9929786"
       fy="43.5"
       id="radialGradient2875-742-326"
       xlink:href="#linearGradient3688-464-309"
       gradientUnits="userSpaceOnUse"
       gradientTransform="matrix(2.003784,0,0,1.4,-20.01187,-104.4)" />
    <linearGradient
       id="linearGradient3688-464-309">
      <stop
         id="stop2889"
         style="stop-color:#181818;stop-opacity:1"
         offset="0" />
      <stop
         id="stop2891"
         style="stop-color:#181818;stop-opacity:0"
         offset="1" />
    </linearGradient>
    <linearGradient
       x1="25.058096"
       y1="47.027729"
       x2="25.058096"
       y2="39.999443"
       id="linearGradient2877-634-617"
       xlink:href="#linearGradient3702-501-757"
       gradientUnits="userSpaceOnUse" />
    <linearGradient
       id="linearGradient3702-501-757">
      <stop
         id="stop2895"
         style="stop-color:#181818;stop-opacity:0"
         offset="0" />
      <stop
         id="stop2897"
         style="stop-color:#181818;stop-opacity:1"
         offset="0.5" />
      <stop
         id="stop2899"
         style="stop-color:#181818;stop-opacity:0"
         offset="1" />
    </linearGradient>
    <linearGradient
       inkscape:collect="always"
       xlink:href="#linearGradient25689"
       id="linearGradient9507"
       gradientUnits="userSpaceOnUse"
       x1="30"
       y1="33"
       x2="30"
       y2="15" />
    <linearGradient
       inkscape:collect="always"
       xlink:href="#linearGradient25689"
       id="linearGradient9514"
       gradientUnits="userSpaceOnUse"
       x1="30"
       y1="33"
       x2="30"
       y2="15" />
    <linearGradient
       inkscape:collect="always"
       xlink:href="#linearGradient25689"
       id="linearGradient9746"
       x1="25"
       y1="44"
       x2="25"
       y2="6"
       gradientUnits="userSpaceOnUse" />
    <linearGradient
       inkscape:collect="always"
       xlink:href="#linearGradient3257"
       id="linearGradient3839"
       x1="23.733126"
       y1="9.5014582"
       x2="23.733126"
       y2="41.421989"
       gradientUnits="userSpaceOnUse" />
    <linearGradient
       inkscape:collect="always"
       xlink:href="#linearGradient25689-3"
       id="linearGradient9746-3"
       x1="25"
       y1="44"
       x2="25"
       y2="6"
       gradientUnits="userSpaceOnUse" />
    <linearGradient
       id="linearGradient25689-3">
      <stop
         style="stop-color:#c8c8c8;stop-opacity:1;"
         offset="0"
         id="stop25691-4" />
      <stop
         style="stop-color:#ffffff;stop-opacity:1;"
         offset="1"
         id="stop25693-6" />
    </linearGradient>
    <linearGradient
       inkscape:collect="always"
       xlink:href="#linearGradient3545"
       id="linearGradient3887"
       gradientUnits="userSpaceOnUse"
       gradientTransform="matrix(0.79256963,0,0,0.79256963,-39.817419,54.652567)"
       x1="68.46875"
       y1="32.1875"
       x2="68.46875"
       y2="106.10139" />
    <linearGradient
       id="linearGradient3545">
      <stop
         id="stop3547"
         style="stop-color:#fafafa;stop-opacity:1"
         offset="0" />
      <stop
         id="stop3671"
         style="stop-color:#dcdcdc;stop-opacity:1"
         offset="0.5" />
      <stop
         id="stop3674"
         style="stop-color:#c8c8c8;stop-opacity:1"
         offset="0.5" />
      <stop
         id="stop3549"
         style="stop-color:#ebebeb;stop-opacity:1"
         offset="1" />
    </linearGradient>
    <linearGradient
       inkscape:collect="always"
       xlink:href="#linearGradient3838"
       id="linearGradient3844"
       x1="23.844038"
       y1="10.560169"
       x2="23.844038"
       y2="45.309254"
       gradientUnits="userSpaceOnUse" />
  </defs>
  <sodipodi:namedview
     id="base"
     pagecolor="#ffffff"
     bordercolor="#666666"
     borderopacity="1.0"
     inkscape:pageopacity="0.0"
     inkscape:pageshadow="2"
     inkscape:zoom="1.9999999"
     inkscape:cx="5.6073092"
     inkscape:cy="8.1601466"
     inkscape:current-layer="layer1"
     showgrid="false"
     inkscape:grid-bbox="true"
     inkscape:document-units="px"
     inkscape:window-width="1280"
     inkscape:window-height="756"
     inkscape:window-x="0"
     inkscape:window-y="24"
     inkscape:window-maximized="1"
     showguides="false">
    <inkscape:grid
       type="xygrid"
       id="grid9493" />
  </sodipodi:namedview>
  <metadata
     id="metadata3326">
    <rdf:RDF>
      <cc:Work
         rdf:about="">
        <dc:format>image/svg+xml</dc:format>
        <dc:type
           rdf:resource="http://purl.org/dc/dcmitype/StillImage" />
        <dc:title />
      </cc:Work>
    </rdf:RDF>
  </metadata>
  <g
     id="layer1"
     inkscape:label="Layer 1"
     inkscape:groupmode="layer">
    <g
       style="display:inline"
       id="g2036"
       transform="matrix(1.1,0,0,0.4444449,-2.4000022,25.111102)"
       mask="none"
       clip-path="none">
      <g
         style="opacity:0.4"
         id="g3712"
         transform="matrix(1.052632,0,0,1.285713,-1.263158,-13.42854)">
        <rect
           style="fill:url(#radialGradient2873-966-168);fill-opacity:1;stroke:none"
           id="rect2801"
           y="40"
           x="38"
           height="7"
           width="5" />
        <rect
           style="fill:url(#radialGradient2875-742-326);fill-opacity:1;stroke:none"
           id="rect3696"
           transform="scale(-1,-1)"
           y="-47"
           x="-10"
           height="7"
           width="5" />
        <rect
           style="fill:url(#linearGradient2877-634-617);fill-opacity:1;stroke:none"
           id="rect3700"
           y="40"
           x="10"
           height="7.0000005"
           width="28" />
      </g>
    </g>
    <rect
       style="color:#000000;fill:url(#radialGradient3117);fill-opacity:1;fill-rule:nonzero;stroke:url(#linearGradient3119);stroke-width:1;stroke-linecap:round;stroke-linejoin:round;stroke-miterlimit:4;stroke-opacity:1;stroke-dasharray:none;stroke-dashoffset:0;marker:none;visibility:visible;display:inline;overflow:visible;enable-background:accumulate"
       id="rect5505-21"
       y="5.4674716"
       x="4.499999"
       ry="2"
       rx="2"
       height="39"
       width="39"
       mask="none"
       clip-path="none" />
    <rect
       style="opacity:0.50000000000000000;fill:none;stroke:url(#linearGradient3114);stroke-width:1;stroke-linecap:round;stroke-linejoin:round;stroke-miterlimit:4;stroke-opacity:1;stroke-dasharray:none;stroke-dashoffset:0"
       id="rect6741-2"
       y="6.4674716"
       x="5.499999"
       ry="1"
       rx="1"
       height="37"
       width="37"
       mask="none"
       clip-path="none" />
    <path
       inkscape:connector-curvature="0"
       style="fill:#000000;fill-opacity:1;stroke:none;opacity:0.1"
       d="m 39.959633,7.5156892 c -2.304745,-0.077867 -5.506275,2.0116043 -8.004949,2.1749293 -1.482415,0.09693 -3.025795,0.4835735 -4.440482,0.03021 C 26.691874,9.4573132 26.261792,8.2586757 25.399687,8.21046 24.655953,8.168856 24.053064,8.8389062 23.466417,9.2979246 21.797146,10.603981 20.886981,12.801633 19.086349,13.91965 c -0.801757,0.497825 -1.776699,0.78775 -2.718661,0.845806 -1.364753,0.08411 -2.804758,-1.356284 -4.017579,-0.724977 -1.34039,0.697686 -2.440432,2.695885 -1.903063,4.108201 0.22643,0.595245 1.165024,1.00222 1.752027,0.755183 1.051942,-0.442702 0.06719,-3.181303 1.208294,-3.201979 0.716795,-0.01299 0.942797,1.28338 0.845805,1.993685 -0.08556,0.626734 -0.654768,1.124811 -1.178086,1.48016 -0.834054,0.566372 -1.987107,0.447983 -2.899906,0.876014 -0.647249,0.303503 -1.8380862,0.465411 -1.7822346,1.178087 0.024013,0.305893 0.6495159,0.134722 0.8155985,0.392696 0.1237291,0.192153 0.1529426,0.494708 0,0.664562 -0.3245838,0.360555 -1.0829121,-0.16616 -1.4499526,0.151036 -0.4265387,0.368451 -0.7334542,1.212542 -0.3926957,1.661405 0.3531921,0.46533 1.2158192,0.262062 1.7520266,0.03021 0.4703993,-0.203388 0.5983472,-0.8671 1.0270498,-1.147879 0.403027,-0.263989 0.887213,-0.549117 1.359332,-0.453111 0.564156,0.114727 0.815425,1.460486 1.298916,1.147879 0.468731,-0.303108 -0.984802,-1.355762 -0.483318,-1.600989 0.737266,-0.360525 0.617247,1.746187 1.389538,2.023893 0.223196,0.08026 0.581352,-0.0031 0.69477,-0.211451 0.101742,-0.186938 -0.26454,-0.408285 -0.181245,-0.604147 0.133333,-0.313512 0.668822,-0.208743 0.906221,-0.453111 0.273081,-0.281144 0.121989,-0.905387 0.483318,-1.057258 0.596048,-0.250504 1.437449,0.130562 1.842648,0.634355 0.128331,0.159528 0.182577,0.439873 0.06041,0.604147 -0.545658,0.73359 -2.306099,-0.377361 -2.688455,0.45311 -0.123879,0.268998 0.197213,0.636352 0.453111,0.785392 0.449982,0.26208 1.197929,-0.333259 1.570782,0.03021 0.181898,0.177472 0.137105,0.524503 0.03021,0.755185 -0.114277,0.246531 -0.400527,0.419085 -0.664562,0.483318 -0.77684,0.188973 -1.569074,-0.532875 -2.356174,-0.392696 -0.173664,0.03092 -0.277929,0.220837 -0.45311,0.241659 -0.526502,0.06258 -1.193821,-0.02771 -1.510369,-0.453111 -0.128832,-0.173169 0.156935,-0.486122 0,-0.634355 -0.813432,-0.768565 -2.335441,-0.284541 -3.3530151,0.181245 -0.4980473,0.227972 -0.8326956,0.730128 -1.1478804,1.178087 -0.5130068,0.729102 -0.9319437,1.559754 -1.1780864,2.416589 -0.1372184,0.478425 -0.3177778,1.01115 -0.1510365,1.48016 0.2767203,0.778249 0.9650782,1.501157 1.7520266,1.752027 0.6503322,0.207305 1.3438926,-0.391391 2.0238927,-0.332281 0.6041361,0.05252 1.4083711,0.06794 1.6916121,0.604147 0.1165,0.220573 -0.176218,0.475538 -0.181245,0.724977 -0.0032,0.274062 0.07404,0.533142 0.181245,0.78539 0.23007,0.541317 0.966635,0.891982 0.966635,1.480161 8.09e-4,0.496637 -0.740443,0.777788 -0.815599,1.268709 -0.10341,0.675875 0.308104,1.351835 0.543732,1.993686 0.256454,0.698447 0.367573,1.514081 0.936429,1.993684 0.181347,0.152902 0.459291,0.23991 0.694769,0.211453 0.823997,-0.09961 1.518584,-0.730499 2.17493,-1.238502 0.347985,-0.269316 0.773142,-0.51703 0.90622,-0.936428 0.128176,-0.403921 -0.333428,-0.873208 -0.181244,-1.26871 0.194437,-0.505246 1.047686,-0.532843 1.26871,-1.027049 0.352786,-0.78894 -0.371118,-1.770644 -0.12083,-2.597833 0.37356,-1.234807 2.990012,-2.024014 2.295759,-3.111358 -0.278743,-0.43653 -1.065323,0.507964 -1.540575,0.302074 -1.302838,-0.564445 -2.397991,-2.214345 -2.235345,-3.624882 0.01856,-0.16054 0.170898,-0.340982 0.332281,-0.332281 1.334526,0.07192 1.180114,2.953619 2.507211,3.111357 0.970924,0.115398 2.107521,-0.829212 2.325967,-1.782235 0.07613,-0.332079 -0.163299,-0.727107 -0.453111,-0.90622 -0.269998,-0.166877 -0.658798,0.153877 -0.936428,0 -0.20955,-0.116132 -0.542454,-0.417175 -0.392696,-0.604147 0.597514,-0.745913 1.770854,0.669249 2.688455,0.936428 0.700823,0.20405 1.621101,0.0051 2.144722,0.513526 0.715837,0.695172 0.08479,2.130633 0.755184,2.869698 0.245586,0.270772 0.720509,0.591869 1.027051,0.392696 0.501433,-0.325784 -0.125516,-1.23736 0.120828,-1.782234 0.25888,-0.572664 0.714476,-1.198057 1.329124,-1.329124 0.452002,-0.09639 0.894323,0.259976 1.298917,0.483318 1.000439,0.552203 1.610043,2.148356 2.748869,2.0541 0.384831,-0.03186 0.726001,-0.464239 0.785391,-0.845806 0.08471,-0.544258 -0.95353,-0.979005 -0.724977,-1.48016 0.305429,-0.669731 1.593456,-0.08618 2.144723,-0.573941 0.533276,-0.471829 0.862607,-1.25298 0.815598,-1.963478 -0.05762,-0.87372 -1.501641,-1.443928 -1.298916,-2.295759 0.06358,-0.267213 0.392492,-0.490664 0.664562,-0.45311 0.69577,0.09597 0.692305,1.516235 1.389539,1.60099 0.216828,0.02636 0.457779,-0.181478 0.513524,-0.392696 0.09997,-0.378993 -0.398813,-0.674518 -0.483317,-1.057257 -0.06298,-0.285157 -0.155924,-0.629093 0,-0.876013 0.157642,-0.249711 0.619105,-0.148651 0.785391,-0.392696 0.716694,-1.051817 1.064425,-2.810195 0.271867,-3.806127 -0.304116,-0.382207 -1.18405,0.198298 -1.449954,-0.211451 -0.372195,-0.573568 0.05201,-1.51862 0.543732,-1.993686 0.403129,-0.389412 1.184352,-0.05425 1.631198,-0.392696 0.462061,-0.349961 0.280082,-1.384117 0.845806,-1.510367 0.33712,-0.07523 0.722987,0.281336 0.845806,0.604147 0.254179,0.668021 -0.591041,1.4132 -0.45311,2.114514 0.133887,0.680764 0.491869,1.793987 1.178087,1.691613 0.540143,-0.08058 0.516173,-0.995438 0.483317,-1.540575 -0.02749,-0.459427 -0.447583,-0.826153 -0.57394,-1.268709 -0.08091,-0.283182 -0.278926,-0.627521 -0.120829,-0.876013 0.157288,-0.247329 0.61988,-0.08507 0.845806,-0.271867 0.656699,-0.543075 1.320954,-1.390626 1.208294,-2.235345 -0.05105,-0.382766 -0.709014,-0.46727 -0.785388,-0.845803 C 40.817415,10.029648 42.42067,9.1562296 41.892904,8.4823349 41.378241,7.8252133 40.727881,7.541652 39.959633,7.5156999 z M 39.717974,34.672102 c -0.569512,0.03261 -0.07992,1.375612 -0.604148,1.60099 -0.303305,0.130379 -0.756362,-0.09854 -0.90622,-0.392696 -0.124386,-0.244227 0.377753,-0.594355 0.181245,-0.785392 -0.3865,-0.375671 -1.073865,0.153339 -1.540576,0.422904 -0.0933,0.05388 -0.133953,0.214448 -0.241659,0.211451 -0.170732,-0.0045 -0.163215,-0.337974 -0.332281,-0.362488 -0.456853,-0.06628 -0.789769,0.475362 -1.178086,0.724976 -0.630975,0.405573 -1.493585,0.591379 -1.872856,1.238502 -0.547579,0.934244 -1.037991,2.497059 -0.271867,3.262394 0.432645,0.432232 1.201988,-0.114188 1.812442,-0.151036 1.014592,-0.06128 2.28694,-0.791277 3.050942,-0.12083 0.412125,0.361668 -0.230509,1.2374 0.151037,1.631197 0.498604,0.514626 1.511474,0.607181 2.144722,0.271866 1.134126,-0.600531 1.757053,-2.160321 1.752027,-3.443638 -0.0046,-1.544622 -0.602617,-4.196483 -2.144722,-4.1082 z"
       id="path9714" />
    <path
       style="fill:#000000;fill-opacity:1;fill-rule:nonzero;stroke:#000000;display:inline;stroke-opacity:1;opacity:0.02;stroke-width:4;stroke-miterlimit:4;stroke-dasharray:none"
       id="path3825"
       inkscape:connector-curvature="0"
       d="m 23.999999,10.319033 c -6.621637,0 -12,6.554735 -12,14.636716 0,8.08198 5.378364,14.66016 12,14.66016 6.621637,0 12,-6.57818 12,-14.66016 0,-8.081981 -5.378362,-14.636716 -12,-14.636716 z m 0,1.875 c 5.485602,0 6.011718,5.711955 6.011718,12.761716 3e-6,7.04976 -0.729183,12.77344 -6.011718,12.77344 -5.37573,0 -6.011719,-5.72368 -6.011719,-12.77344 1e-6,-7.049761 0.619028,-12.761716 6.011719,-12.761716 z" />
    <path
       d="m 23.999999,10.319033 c -6.621637,0 -12,6.554735 -12,14.636716 0,8.08198 5.378364,14.66016 12,14.66016 6.621637,0 12,-6.57818 12,-14.66016 0,-8.081981 -5.378362,-14.636716 -12,-14.636716 z m 0,1.875 c 5.485602,0 6.011718,5.711955 6.011718,12.761716 3e-6,7.04976 -0.729183,12.77344 -6.011718,12.77344 -5.37573,0 -6.011719,-5.72368 -6.011719,-12.77344 1e-6,-7.049761 0.619028,-12.761716 6.011719,-12.761716 z"
       inkscape:connector-curvature="0"
       id="path3823"
       style="fill:#000000;fill-opacity:1;fill-rule:nonzero;stroke:#000000;display:inline;stroke-opacity:1;opacity:0.05;stroke-width:3;stroke-miterlimit:4;stroke-dasharray:none" />
    <path
       style="fill:#000000;fill-opacity:1;fill-rule:nonzero;stroke:#000000;display:inline;stroke-opacity:1;opacity:0.09999995;stroke-width:2;stroke-miterlimit:4;stroke-dasharray:none"
       id="path3821"
       inkscape:connector-curvature="0"
       d="m 23.999999,10.319033 c -6.621637,0 -12,6.554735 -12,14.636716 0,8.08198 5.378364,14.66016 12,14.66016 6.621637,0 12,-6.57818 12,-14.66016 0,-8.081981 -5.378362,-14.636716 -12,-14.636716 z m 0,1.875 c 5.485602,0 6.011718,5.711955 6.011718,12.761716 3e-6,7.04976 -0.729183,12.77344 -6.011718,12.77344 -5.37573,0 -6.011719,-5.72368 -6.011719,-12.77344 1e-6,-7.049761 0.619028,-12.761716 6.011719,-12.761716 z" />
    <path
       d="m 23.999999,10.319033 c -6.621637,0 -12,6.554735 -12,14.636716 0,8.08198 5.378364,14.66016 12,14.66016 6.621637,0 12,-6.57818 12,-14.66016 0,-8.081981 -5.378362,-14.636716 -12,-14.636716 z m 0,1.875 c 5.485602,0 6.011718,5.711955 6.011718,12.761716 3e-6,7.04976 -0.729183,12.77344 -6.011718,12.77344 -5.37573,0 -6.011719,-5.72368 -6.011719,-12.77344 1e-6,-7.049761 0.619028,-12.761716 6.011719,-12.761716 z"
       inkscape:connector-curvature="0"
       id="path3051"
       style="fill:#000000;fill-opacity:1;fill-rule:nonzero;stroke:#000000;display:inline;stroke-opacity:1;opacity:0.15" />
    <path
       style="fill:url(#linearGradient3844);fill-opacity:1;fill-rule:nonzero;stroke:none;display:inline"
       id="path3539"
       inkscape:connector-curvature="0"
       d="m 23.999999,10.319033 c -6.621637,0 -12,6.554735 -12,14.636716 0,8.08198 5.378364,14.66016 12,14.66016 6.621637,0 12,-6.57818 12,-14.66016 0,-8.081981 -5.378362,-14.636716 -12,-14.636716 z m 0,1.875 c 5.485602,0 6.011718,5.711955 6.011718,12.761716 3e-6,7.04976 -0.729183,12.77344 -6.011718,12.77344 -5.37573,0 -6.011719,-5.72368 -6.011719,-12.77344 1e-6,-7.049761 0.619028,-12.761716 6.011719,-12.761716 z" />
  </g>
</svg>
