<?xml version="1.0" encoding="UTF-8" standalone="no"?>
<!-- Created with Inkscape (http://www.inkscape.org/) -->

<svg
   xmlns:dc="http://purl.org/dc/elements/1.1/"
   xmlns:cc="http://creativecommons.org/ns#"
   xmlns:rdf="http://www.w3.org/1999/02/22-rdf-syntax-ns#"
   xmlns:svg="http://www.w3.org/2000/svg"
   xmlns="http://www.w3.org/2000/svg"
   xmlns:xlink="http://www.w3.org/1999/xlink"
   xmlns:sodipodi="http://sodipodi.sourceforge.net/DTD/sodipodi-0.dtd"
   xmlns:inkscape="http://www.inkscape.org/namespaces/inkscape"
   width="48px"
   height="48px"
   id="svg3321"
   version="1.1"
   inkscape:version="0.48.3.1 r9886"
   sodipodi:docname="preferences-system-network.svg">
  <defs
     id="defs3323">
    <linearGradient
       id="linearGradient3856">
      <stop
         style="stop-color:#ffffff;stop-opacity:1;"
         offset="0"
         id="stop3858" />
      <stop
         style="stop-color:#787878;stop-opacity:1;"
         offset="1"
         id="stop3860" />
    </linearGradient>
    <linearGradient
       id="linearGradient3844">
      <stop
         style="stop-color:#e8bf00;stop-opacity:1;"
         offset="0"
         id="stop3846" />
      <stop
         style="stop-color:#ffff75;stop-opacity:0;"
         offset="1"
         id="stop3848" />
    </linearGradient>
    <linearGradient
       id="linearGradient3824">
      <stop
         style="stop-color:#141414;stop-opacity:1;"
         offset="0"
         id="stop3826" />
      <stop
         style="stop-color:#333333;stop-opacity:1;"
         offset="1"
         id="stop3828" />
    </linearGradient>
    <linearGradient
       id="linearGradient3816">
      <stop
         style="stop-color:#f5f5f5;stop-opacity:1;"
         offset="0"
         id="stop3818" />
      <stop
         style="stop-color:#ffffff;stop-opacity:1;"
         offset="1"
         id="stop3820" />
    </linearGradient>
    <linearGradient
       inkscape:collect="always"
       xlink:href="#linearGradient25689"
       id="linearGradient25695"
       x1="30"
       y1="33"
       x2="30"
       y2="15"
       gradientUnits="userSpaceOnUse" />
    <linearGradient
       id="linearGradient25689">
      <stop
         style="stop-color:#cccccc;stop-opacity:1"
         offset="0"
         id="stop25691" />
      <stop
         style="stop-color:#ffffff;stop-opacity:1;"
         offset="1"
         id="stop25693" />
    </linearGradient>
    <linearGradient
       inkscape:collect="always"
       xlink:href="#linearGradient25689"
       id="linearGradient3255"
       x1="30"
       y1="33"
       x2="30"
       y2="15"
       gradientUnits="userSpaceOnUse" />
    <linearGradient
       id="linearGradient3257">
      <stop
         style="stop-color:#cccccc;stop-opacity:1"
         offset="0"
         id="stop3259" />
      <stop
         style="stop-color:#ffffff;stop-opacity:1;"
         offset="1"
         id="stop3261" />
    </linearGradient>
    <linearGradient
       inkscape:collect="always"
       xlink:href="#linearGradient3924"
       id="linearGradient3114"
       gradientUnits="userSpaceOnUse"
       gradientTransform="translate(2.8e-6,1.00001)"
       x1="23.99999"
       y1="4.999989"
       x2="23.99999"
       y2="43" />
    <linearGradient
       id="linearGradient3924">
      <stop
         id="stop3926"
         style="stop-color:#ffffff;stop-opacity:1;"
         offset="0" />
      <stop
         offset="0.03292644"
         style="stop-color:#ffffff;stop-opacity:0.23529412;"
         id="stop3928" />
      <stop
         id="stop3930"
         style="stop-color:#ffffff;stop-opacity:0.15686275;"
         offset="0.96451938" />
      <stop
         id="stop3932"
         style="stop-color:#ffffff;stop-opacity:0.39215687;"
         offset="1" />
    </linearGradient>
    <radialGradient
       inkscape:collect="always"
       xlink:href="#linearGradient3242-187-536"
       id="radialGradient3117"
       gradientUnits="userSpaceOnUse"
       gradientTransform="matrix(1.9428467e-8,2.33699,-2.4722567,-4.3056275e-8,44.890102,-11.434799)"
       cx="7.4956832"
       cy="8.4497671"
       fx="7.4956832"
       fy="8.4497671"
       r="19.99999" />
    <linearGradient
       id="linearGradient3242-187-536">
      <stop
         id="stop2778"
         style="stop-color:#f0f0f0;stop-opacity:1;"
         offset="0" />
      <stop
         id="stop2780"
         style="stop-color:#d2d2d2;stop-opacity:1;"
         offset="0.26238" />
      <stop
         id="stop2782"
         style="stop-color:#bebebe;stop-opacity:1;"
         offset="0.66093999" />
      <stop
         id="stop2784"
         style="stop-color:#969696;stop-opacity:1;"
         offset="1" />
    </linearGradient>
    <linearGradient
       inkscape:collect="always"
       xlink:href="#linearGradient2490-182-124"
       id="linearGradient3119"
       gradientUnits="userSpaceOnUse"
       gradientTransform="translate(-2e-7,1)"
       x1="24"
       y1="44"
       x2="24"
       y2="3.8990016" />
    <linearGradient
       id="linearGradient2490-182-124">
      <stop
         id="stop2788"
         style="stop-color:#646464;stop-opacity:1;"
         offset="0" />
      <stop
         id="stop2790"
         style="stop-color:#8c8c8c;stop-opacity:1;"
         offset="1" />
    </linearGradient>
    <radialGradient
       cx="4.9929786"
       cy="43.5"
       r="2.5"
       fx="4.9929786"
       fy="43.5"
       id="radialGradient2873-966-168"
       xlink:href="#linearGradient3688-166-749"
       gradientUnits="userSpaceOnUse"
       gradientTransform="matrix(2.003784,0,0,1.4,27.98813,-17.4)" />
    <linearGradient
       id="linearGradient3688-166-749">
      <stop
         id="stop2883"
         style="stop-color:#181818;stop-opacity:1"
         offset="0" />
      <stop
         id="stop2885"
         style="stop-color:#181818;stop-opacity:0"
         offset="1" />
    </linearGradient>
    <radialGradient
       cx="4.9929786"
       cy="43.5"
       r="2.5"
       fx="4.9929786"
       fy="43.5"
       id="radialGradient2875-742-326"
       xlink:href="#linearGradient3688-464-309"
       gradientUnits="userSpaceOnUse"
       gradientTransform="matrix(2.003784,0,0,1.4,-20.01187,-104.4)" />
    <linearGradient
       id="linearGradient3688-464-309">
      <stop
         id="stop2889"
         style="stop-color:#181818;stop-opacity:1"
         offset="0" />
      <stop
         id="stop2891"
         style="stop-color:#181818;stop-opacity:0"
         offset="1" />
    </linearGradient>
    <linearGradient
       x1="25.058096"
       y1="47.027729"
       x2="25.058096"
       y2="39.999443"
       id="linearGradient2877-634-617"
       xlink:href="#linearGradient3702-501-757"
       gradientUnits="userSpaceOnUse" />
    <linearGradient
       id="linearGradient3702-501-757">
      <stop
         id="stop2895"
         style="stop-color:#181818;stop-opacity:0"
         offset="0" />
      <stop
         id="stop2897"
         style="stop-color:#181818;stop-opacity:1"
         offset="0.5" />
      <stop
         id="stop2899"
         style="stop-color:#181818;stop-opacity:0"
         offset="1" />
    </linearGradient>
    <linearGradient
       inkscape:collect="always"
       xlink:href="#linearGradient25689"
       id="linearGradient9507"
       gradientUnits="userSpaceOnUse"
       x1="30"
       y1="33"
       x2="30"
       y2="15" />
    <linearGradient
       inkscape:collect="always"
       xlink:href="#linearGradient25689"
       id="linearGradient9514"
       gradientUnits="userSpaceOnUse"
       x1="30"
       y1="33"
       x2="30"
       y2="15" />
    <linearGradient
       inkscape:collect="always"
       xlink:href="#linearGradient3844"
       id="linearGradient3907"
       gradientUnits="userSpaceOnUse"
       gradientTransform="matrix(1.4000001,0,0,1,8.4761319,0.74568826)"
       x1="16.255224"
       y1="33.444618"
       x2="16.255224"
       y2="27.896856" />
    <linearGradient
       inkscape:collect="always"
       xlink:href="#linearGradient3844"
       id="linearGradient3910"
       gradientUnits="userSpaceOnUse"
       gradientTransform="matrix(1.4000001,0,0,1,6.4761334,0.74568826)"
       x1="16.255224"
       y1="33.444618"
       x2="16.255224"
       y2="27.896856" />
    <linearGradient
       inkscape:collect="always"
       xlink:href="#linearGradient3844"
       id="linearGradient3913"
       gradientUnits="userSpaceOnUse"
       gradientTransform="matrix(1.4000001,0,0,1,4.4761334,0.74568826)"
       x1="16.255224"
       y1="33.444618"
       x2="16.255224"
       y2="27.896856" />
    <linearGradient
       inkscape:collect="always"
       xlink:href="#linearGradient3844"
       id="linearGradient3916"
       gradientUnits="userSpaceOnUse"
       gradientTransform="matrix(1.4000001,0,0,1,2.4761334,0.74568826)"
       x1="16.255224"
       y1="33.444618"
       x2="16.255224"
       y2="27.896856" />
    <linearGradient
       inkscape:collect="always"
       xlink:href="#linearGradient3844"
       id="linearGradient3919"
       gradientUnits="userSpaceOnUse"
       gradientTransform="matrix(1.4000001,0,0,1,0.47613307,0.74568826)"
       x1="16.255224"
       y1="33.444618"
       x2="16.255224"
       y2="27.896856" />
    <linearGradient
       inkscape:collect="always"
       xlink:href="#linearGradient3844"
       id="linearGradient3922"
       gradientUnits="userSpaceOnUse"
       gradientTransform="matrix(1.4000001,0,0,1,-1.5238666,0.74568826)"
       x1="16.255224"
       y1="33.444618"
       x2="16.255224"
       y2="27.896856" />
    <linearGradient
       inkscape:collect="always"
       xlink:href="#linearGradient3844"
       id="linearGradient3925"
       gradientUnits="userSpaceOnUse"
       gradientTransform="matrix(1.4000001,0,0,1,-3.5238664,0.74568826)"
       x1="16.255224"
       y1="33.444618"
       x2="16.255224"
       y2="27.896856" />
    <linearGradient
       inkscape:collect="always"
       xlink:href="#linearGradient3844"
       id="linearGradient3928"
       gradientUnits="userSpaceOnUse"
       x1="16.255224"
       y1="33.444618"
       x2="16.255224"
       y2="27.896856"
       gradientTransform="matrix(1.4000001,0,0,1,-5.5238652,0.74568826)" />
    <linearGradient
       inkscape:collect="always"
       xlink:href="#linearGradient3844"
       id="linearGradient3118"
       gradientUnits="userSpaceOnUse"
       gradientTransform="matrix(2.0000002,0,0,1,-1.3198097,-0.50431126)"
       x1="16.255224"
       y1="33.444618"
       x2="16.255224"
       y2="27.896856" />
    <linearGradient
       inkscape:collect="always"
       xlink:href="#linearGradient3844"
       id="linearGradient3121"
       gradientUnits="userSpaceOnUse"
       gradientTransform="matrix(2.0000002,0,0,1,-3.3198076,-0.50431126)"
       x1="16.255224"
       y1="33.444618"
       x2="16.255224"
       y2="27.896856" />
    <linearGradient
       inkscape:collect="always"
       xlink:href="#linearGradient3844"
       id="linearGradient3124"
       gradientUnits="userSpaceOnUse"
       gradientTransform="matrix(2.0000002,0,0,1,-5.3198076,-0.50431126)"
       x1="16.255224"
       y1="33.444618"
       x2="16.255224"
       y2="27.896856" />
    <linearGradient
       inkscape:collect="always"
       xlink:href="#linearGradient3844"
       id="linearGradient3127"
       gradientUnits="userSpaceOnUse"
       gradientTransform="matrix(2.0000002,0,0,1,-7.3198076,-0.50431126)"
       x1="16.255224"
       y1="33.444618"
       x2="16.255224"
       y2="27.896856" />
    <linearGradient
       inkscape:collect="always"
       xlink:href="#linearGradient3844"
       id="linearGradient3130"
       gradientUnits="userSpaceOnUse"
       gradientTransform="matrix(2.0000002,0,0,1,-9.3198107,-0.50431126)"
       x1="16.255224"
       y1="33.444618"
       x2="16.255224"
       y2="27.896856" />
    <linearGradient
       inkscape:collect="always"
       xlink:href="#linearGradient3844"
       id="linearGradient3133"
       gradientUnits="userSpaceOnUse"
       gradientTransform="matrix(2.0000002,0,0,1,-11.319811,-0.50431126)"
       x1="16.255224"
       y1="33.444618"
       x2="16.255224"
       y2="27.896856" />
    <linearGradient
       inkscape:collect="always"
       xlink:href="#linearGradient3844"
       id="linearGradient3136"
       gradientUnits="userSpaceOnUse"
       gradientTransform="matrix(1.9999999,0,0,1,-13.319808,-0.50431126)"
       x1="16.255224"
       y1="33.444618"
       x2="16.255224"
       y2="27.896856" />
    <linearGradient
       inkscape:collect="always"
       xlink:href="#linearGradient3844"
       id="linearGradient3139"
       gradientUnits="userSpaceOnUse"
       gradientTransform="matrix(3.9999999,0,0,1,-46.639606,-0.50431126)"
       x1="16.255224"
       y1="33.444618"
       x2="16.255224"
       y2="27.896856" />
    <linearGradient
       inkscape:collect="always"
       xlink:href="#linearGradient3824"
       id="linearGradient4063"
       gradientUnits="userSpaceOnUse"
       gradientTransform="translate(35.890112,-0.34783365)"
       x1="24.958315"
       y1="14.742049"
       x2="24.958315"
       y2="33.148987" />
    <linearGradient
       inkscape:collect="always"
       xlink:href="#linearGradient3816"
       id="linearGradient4065"
       gradientUnits="userSpaceOnUse"
       gradientTransform="translate(35.890112,-0.34783365)"
       x1="17.180141"
       y1="14.034943"
       x2="17.180141"
       y2="36.7328" />
    <linearGradient
       inkscape:collect="always"
       xlink:href="#linearGradient3824"
       id="linearGradient4078"
       x1="23.636932"
       y1="13.716621"
       x2="23.636932"
       y2="35.113655"
       gradientUnits="userSpaceOnUse"
       gradientTransform="translate(28.372661,-0.97227187)" />
    <linearGradient
       inkscape:collect="always"
       xlink:href="#linearGradient3816"
       id="linearGradient4086"
       x1="16.419418"
       y1="13.716621"
       x2="16.419418"
       y2="35.409813"
       gradientUnits="userSpaceOnUse"
       gradientTransform="translate(28.372661,-0.97227187)" />
    <linearGradient
       inkscape:collect="always"
       xlink:href="#linearGradient3844"
       id="linearGradient4090"
       gradientUnits="userSpaceOnUse"
       gradientTransform="matrix(3.9999999,0,0,1,-43.639605,-0.50431126)"
       x1="16.255224"
       y1="33.444618"
       x2="16.255224"
       y2="27.896856" />
    <linearGradient
       inkscape:collect="always"
       xlink:href="#linearGradient3844"
       id="linearGradient4094"
       gradientUnits="userSpaceOnUse"
       gradientTransform="matrix(3.9999999,0,0,1,-40.639607,-0.50431126)"
       x1="16.255224"
       y1="33.444618"
       x2="16.255224"
       y2="27.896856" />
    <linearGradient
       inkscape:collect="always"
       xlink:href="#linearGradient3844"
       id="linearGradient4098"
       gradientUnits="userSpaceOnUse"
       gradientTransform="matrix(3.9999999,0,0,1,-37.63961,-0.50431126)"
       x1="16.255224"
       y1="33.444618"
       x2="16.255224"
       y2="27.896856" />
    <linearGradient
       inkscape:collect="always"
       xlink:href="#linearGradient3844"
       id="linearGradient4102"
       gradientUnits="userSpaceOnUse"
       gradientTransform="matrix(3.9999999,0,0,1,-34.63961,-0.50431126)"
       x1="16.255224"
       y1="33.444618"
       x2="16.255224"
       y2="27.896856" />
    <linearGradient
       inkscape:collect="always"
       xlink:href="#linearGradient3844"
       id="linearGradient4111"
       gradientUnits="userSpaceOnUse"
       gradientTransform="matrix(3.9999999,0,0,1,-46.639606,-0.50431126)"
       x1="16.255224"
       y1="33.444618"
       x2="16.255224"
       y2="27.896856" />
    <linearGradient
       inkscape:collect="always"
       xlink:href="#linearGradient3844"
       id="linearGradient4113"
       gradientUnits="userSpaceOnUse"
       gradientTransform="matrix(3.9999999,0,0,1,-43.639605,-0.50431126)"
       x1="16.255224"
       y1="33.444618"
       x2="16.255224"
       y2="27.896856" />
    <linearGradient
       inkscape:collect="always"
       xlink:href="#linearGradient3844"
       id="linearGradient4115"
       gradientUnits="userSpaceOnUse"
       gradientTransform="matrix(3.9999999,0,0,1,-40.639607,-0.50431126)"
       x1="16.255224"
       y1="33.444618"
       x2="16.255224"
       y2="27.896856" />
    <linearGradient
       inkscape:collect="always"
       xlink:href="#linearGradient3844"
       id="linearGradient4117"
       gradientUnits="userSpaceOnUse"
       gradientTransform="matrix(3.9999999,0,0,1,-37.63961,-0.50431126)"
       x1="16.255224"
       y1="33.444618"
       x2="16.255224"
       y2="27.896856" />
    <linearGradient
       inkscape:collect="always"
       xlink:href="#linearGradient3844"
       id="linearGradient4119"
       gradientUnits="userSpaceOnUse"
       gradientTransform="matrix(3.9999999,0,0,1,-34.63961,-0.50431126)"
       x1="16.255224"
       y1="33.444618"
       x2="16.255224"
       y2="27.896856" />
    <linearGradient
       inkscape:collect="always"
       xlink:href="#linearGradient3844"
       id="linearGradient4122"
       gradientUnits="userSpaceOnUse"
       gradientTransform="matrix(3.9999999,0,0,1,-34.63961,-0.50431126)"
       x1="16.255224"
       y1="33.444618"
       x2="16.255224"
       y2="27.896856" />
    <linearGradient
       inkscape:collect="always"
       xlink:href="#linearGradient3844"
       id="linearGradient4125"
       gradientUnits="userSpaceOnUse"
       gradientTransform="matrix(3.9999999,0,0,1,-37.63961,-0.50431126)"
       x1="16.255224"
       y1="33.444618"
       x2="16.255224"
       y2="27.896856" />
    <linearGradient
       inkscape:collect="always"
       xlink:href="#linearGradient3844"
       id="linearGradient4128"
       gradientUnits="userSpaceOnUse"
       gradientTransform="matrix(3.9999999,0,0,1,-40.639607,-0.50431126)"
       x1="16.255224"
       y1="33.444618"
       x2="16.255224"
       y2="27.896856" />
    <linearGradient
       inkscape:collect="always"
       xlink:href="#linearGradient3844"
       id="linearGradient4131"
       gradientUnits="userSpaceOnUse"
       gradientTransform="matrix(3.9999999,0,0,1,-43.639605,-0.50431126)"
       x1="16.255224"
       y1="33.444618"
       x2="16.255224"
       y2="27.896856" />
    <linearGradient
       inkscape:collect="always"
       xlink:href="#linearGradient3844"
       id="linearGradient4134"
       gradientUnits="userSpaceOnUse"
       gradientTransform="matrix(3.9999999,0,0,1,-46.639606,-0.50431126)"
       x1="16.255224"
       y1="33.444618"
       x2="16.255224"
       y2="27.896856" />
    <linearGradient
       inkscape:collect="always"
       xlink:href="#linearGradient3824"
       id="linearGradient4149"
       x1="23.606602"
       y1="14.158563"
       x2="23.606602"
       y2="34.901875"
       gradientUnits="userSpaceOnUse"
       gradientTransform="translate(0,0.5)" />
    <linearGradient
       inkscape:collect="always"
       xlink:href="#linearGradient3856"
       id="linearGradient3862"
       x1="16.908115"
       y1="35.872181"
       x2="16.908115"
       y2="13.863068"
       gradientUnits="userSpaceOnUse" />
  </defs>
  <sodipodi:namedview
     id="base"
     pagecolor="#ffffff"
     bordercolor="#666666"
     borderopacity="1.0"
     inkscape:pageopacity="0.0"
     inkscape:pageshadow="2"
     inkscape:zoom="11.313708"
     inkscape:cx="22.523577"
     inkscape:cy="20.203781"
     inkscape:current-layer="layer1"
     showgrid="false"
     inkscape:grid-bbox="true"
     inkscape:document-units="px"
     inkscape:window-width="1280"
     inkscape:window-height="749"
     inkscape:window-x="0"
     inkscape:window-y="24"
     inkscape:window-maximized="1"
     showguides="false">
    <inkscape:grid
       type="xygrid"
       id="grid9493" />
  </sodipodi:namedview>
  <metadata
     id="metadata3326">
    <rdf:RDF>
      <cc:Work
         rdf:about="">
        <dc:format>image/svg+xml</dc:format>
        <dc:type
           rdf:resource="http://purl.org/dc/dcmitype/StillImage" />
        <dc:title />
      </cc:Work>
    </rdf:RDF>
  </metadata>
  <g
     id="layer1"
     inkscape:label="Layer 1"
     inkscape:groupmode="layer">
    <g
       style="display:inline"
       id="g2036"
       transform="matrix(1.1,0,0,0.4444449,-2.4000022,25.111102)"
       mask="none"
       clip-path="none">
      <g
         style="opacity:0.4"
         id="g3712"
         transform="matrix(1.052632,0,0,1.285713,-1.263158,-13.42854)">
        <rect
           style="fill:url(#radialGradient2873-966-168);fill-opacity:1;stroke:none"
           id="rect2801"
           y="40"
           x="38"
           height="7"
           width="5" />
        <rect
           style="fill:url(#radialGradient2875-742-326);fill-opacity:1;stroke:none"
           id="rect3696"
           transform="scale(-1,-1)"
           y="-47"
           x="-10"
           height="7"
           width="5" />
        <rect
           style="fill:url(#linearGradient2877-634-617);fill-opacity:1;stroke:none"
           id="rect3700"
           y="40"
           x="10"
           height="7.0000005"
           width="28" />
      </g>
    </g>
    <rect
       style="color:#000000;fill:url(#radialGradient3117);fill-opacity:1;fill-rule:nonzero;stroke:url(#linearGradient3119);stroke-width:1;stroke-linecap:round;stroke-linejoin:round;stroke-miterlimit:4;stroke-opacity:1;stroke-dasharray:none;stroke-dashoffset:0;marker:none;visibility:visible;display:inline;overflow:visible;enable-background:accumulate"
       id="rect5505-21"
       y="5.5"
       x="4.499999"
       ry="2"
       rx="2"
       height="39"
       width="39"
       mask="none"
       clip-path="none" />
    <path
       inkscape:connector-curvature="0"
       d="m 5.999999,7.03125 c -0.554,0 -1,0.446 -1,1 l 0,2.75 0.375,-0.46875 0.28125,0.125 0.5625,0 0.46875,-0.46875 0.5625,-0.25 0.0625,-0.34375 -0.34375,-0.3125 -0.3125,-0.0937 -0.1875,-0.4375 0.40625,-0.25 0.625,0.34375 0.21875,-0.25 -0.34375,-0.18755 0.71875,-0.9375 -0.0625,-0.21875 -2.03125,0 z m 6.5625,0 0,0.0313 0.125,0.1875 0.15625,-0.21875 -0.28125,0 z m 6.59375,0 -0.28125,0.46875 -0.09375,0.25 0.53125,0.15625 0.09375,-0.34375 0.15625,-0.46875 0.125,-0.0625 -0.53125,0 z m 3.875,0 0,0.25 0.625,0.25 -0.3125,0.25 -0.65625,-0.25 -0.28125,0.25 -0.40625,-0.46875 -0.09375,0.15625 0.46875,1.40625 0.09375,0.0625 0.3125,-0.15625 0.15625,0.0937 0,0.25 -0.28125,-0.0937 -0.1875,0.125 0.125,0.25 -0.09375,0.65625 -0.59375,0.0625 -0.03125,-0.21875 0.34375,-0.1875 0.0625,-0.59375 -0.375,-0.5 -0.15625,-0.875 -0.59375,-0.125 -0.0625,0.3125 0.125,0.15625 -0.28125,0.21875 0.125,0.59375 0.34375,0.15625 0.09375,0.4375 -0.375,-0.25 -0.9375,-0.15625 -0.125,0.3125 -0.75,0.25 -0.125,-0.1875 -1,0.5625 0,0.34375 -0.40625,0.0625 0.125,-0.25 0,-0.28125 -0.375,-0.15625 -0.25,0.125 0.1875,0.40625 0.15625,0.25 0,0.21875 -0.28125,-0.0625 -0.0625,-0.0313 -0.28125,0.3125 0.15625,0.25 -0.65625,0 0.21875,0.25 -0.0625,0.125 -0.34375,0 -0.25,-0.15625 -0.0625,-0.5 -0.40625,-0.15625 0,-0.1875 0.84375,0.15625 0.46875,0.0625 0.1875,-0.3125 -0.1875,-0.3125 -1.21875,-0.46875 -0.4375,0.0937 -0.15625,0.125 0.0625,0.28125 0.1875,0.0313 -0.0625,0.46875 0.5625,1.3125 -0.40625,0.65625 -0.03125,0.125 0.21875,0.15625 -0.1875,0.125 -0.125,0 0.03125,0.5625 0.15625,0.25 0,0.21875 0.21875,0.0313 0.34375,0.125 0.34375,0.5 0.03125,0.125 -0.125,0.1875 0.25,-0.0313 0.25,0.0937 0.375,0.46875 0.84375,0.0937 -0.03125,0.59375 -0.3125,0.25 0.0625,0.0937 -0.28125,0.3125 -0.0625,0.28125 0.15625,0.25 0.5625,0.21875 0.21875,-0.15625 1.5,0.5625 0.0625,-0.15625 -0.3125,-0.28105 0,-0.375 -0.1875,-0.0625 0.03125,-0.3125 0.3125,-0.375 -0.5625,-0.40625 0.0625,-0.5625 0.59375,-0.40625 0.6875,0.0313 0.125,0.21875 0.71875,0.0313 0.5,-0.28125 -0.25,-0.28125 0.03125,-0.5625 1.375,-0.65635 1.03125,0.46875 0.34375,-0.3125 1.03125,0.96875 0.78125,-0.0625 0.28125,0.25 0.71875,0.0937 0.5,-0.65625 0.625,0.28125 0.3125,0.0313 0.34375,-0.28125 -0.3125,-0.1875 0.25,-0.40625 0.71875,0.25 0.15625,0.3125 0.3125,0 0.1875,-0.125 0.53125,-0.0313 0.0625,0.15625 0.59375,0.0313 0.40625,-0.4375 0.84375,0.0937 0.25,-0.0937 0.0625,-0.46875 -0.25,-0.5625 0.25,-0.21875 0.8125,0 0.75,0.90625 0.96875,0.5625 0.28125,0 0.0625,-0.25 0.34375,-0.21875 0.03125,1.28125 -0.3125,0 0,0.3125 0.1875,0.21875 -0.03125,0.28125 0.125,0.0625 0.0625,-0.1875 0.125,0.0313 0.0625,0.0625 0.375,-0.0625 0.34375,-1.03125 0.03125,-1.25 -0.4375,-1.03125 -0.5625,-0.6875 -0.28125,0.0625 0,0.21875 -0.65625,-0.28125 0.25,-0.53125 0.21875,-1.4375 0.875,-0.28125 0.4375,-0.28125 0.46875,0 -0.125,0.15625 0.125,0.21875 0.40625,-0.4375 0.21875,0 -0.03125,-0.25 -0.375,-0.0625 0.25,-0.9375 0.34375,-0.3125 0.125,0.46875 0.28125,0.0937 0.28125,-0.4375 -0.15625,-0.28125 0.0625,-0.25 0.40625,0 -0.09375,0.1875 0.03125,0.6875 -0.59375,1.46875 0.0625,0.3125 -0.03125,0.5 1.09375,1.59375 0.21875,0.0625 0,-1.28125 0.21875,-0.21875 -0.21875,-0.5 0.1875,-0.21875 -0.4375,-0.5625 -0.21875,0.0313 -0.0625,-0.9375 0.59375,-0.15625 0.03125,-0.28125 0.3125,-0.0625 0.15625,0.15625 0.21875,-0.875 0.0625,-0.0937 -17.90625,0 z m -4.34375,0.9375 0.03125,0.34375 -0.25,0.0625 0,0.15625 0.15625,0.21875 0.375,0.0313 0.1875,0.1875 0.1875,0 0.09375,-0.21875 -0.28125,-0.3125 -0.125,-0.40625 -0.375,-0.0625 z M 7.031249,8.625 l -0.125,0.0937 0.0625,0.125 0.40625,0.1875 0,-0.3125 -0.34375,-0.0937 z m 7.84375,0.625 -0.5625,0.0625 -0.0625,0.25 -0.125,-0.0625 -0.09375,-0.125 -0.25,0 -0.03125,0.28125 -0.125,0.0625 -0.09375,-0.15625 -0.5625,0.46875 0.125,0.125 -0.21875,0.0937 -0.46875,0.9375 -0.1875,0.125 0.03125,0.0937 0.15625,0.0937 -0.03125,0.15625 -0.28125,0 -0.09375,-0.0937 -0.1875,0.21875 -0.09375,0.0625 -0.03125,0.21875 -0.09375,0.0625 -0.28125,0.0313 -0.125,0.40625 0.09375,0.65625 0.09375,0.3125 0.125,0.0937 0.25,0 0.375,-0.375 0.125,-0.21875 0.0625,0.34375 0.21875,-0.4375 0.03125,-1.1875 0.1875,-0.125 0.0625,-0.65625 0.59375,-0.84375 0.28125,-0.0937 0.125,-0.15625 0.4375,0.0937 0.1875,0.125 0.09375,-0.375 0.34375,-0.1875 0.21875,0.34375 0.15625,-0.0937 -0.03125,-0.125 -0.09375,-0.0625 0.03125,-0.15625 0.0625,0 0,-0.0937 -0.34375,-0.0937 z m -0.03125,0.34375 -0.25,0.1875 -0.09375,0.40625 -0.28125,-0.15625 -0.375,-0.0937 -0.09375,0.0937 0.15625,0.125 0.25,0 0.21875,0.34375 0.03125,0.53125 0.1875,0.0625 0.09375,0.1875 -0.09375,0.125 -0.5,0.5625 -0.09375,0.28125 0.125,0.40625 0.375,0.28125 0.5,-0.25 0.40625,-0.0625 0.375,-0.59375 -0.28125,-0.6875 -0.25,-0.625 0.03125,-0.40625 -0.15625,-0.0313 -0.0625,-0.3125 -0.21875,-0.375 z M 40.937499,10 l 0.0625,0.125 0.1875,0.125 0.0625,-0.0625 -0.1875,-0.1875 -0.125,0 z m -27.21875,0.0937 -0.28125,0.0937 -0.5625,0.8125 -0.0625,0.6875 -0.1875,0.0937 -0.03125,1.21875 -0.28125,0.46875 0.34375,0.5625 0.09375,0.40625 0.15625,0 0.125,-0.21875 0.3125,-0.125 0,-0.625 0.1875,-0.1875 0.15625,-0.1875 0.03125,-0.15625 -0.375,-0.28125 0,-0.34375 0.1875,-0.34375 0.15625,-0.0313 0.28125,-0.375 0,-0.25 0.375,-0.28125 -0.03125,-0.5 -0.15625,-0.3125 -0.28125,0 -0.15625,-0.125 z m 27.65625,0 0,0.125 0.25,0.0625 0,-0.0937 -0.25,-0.0937 z m 1.25,0.46875 0.09375,0.1875 0.15625,-0.0313 0.03125,-0.125 -0.28125,-0.0313 z m -36.09375,0.4063 -0.21875,0.125 -0.15625,0.15625 0,0.0937 0.21875,0.0313 0,0.15625 -0.09375,0.0937 0.03125,0.0625 0.21875,0 0,0.28125 0.3125,0.0313 0.21875,0.125 0.21875,0 0.375,-0.1875 0.28125,-0.375 0,-0.25 -0.1875,-0.15625 -0.125,-0.125 -0.09375,0.0625 -0.09375,0.125 -0.09375,-0.0313 -0.125,-0.125 -0.15625,0.0313 -0.1875,0.15625 -0.15625,0.15625 -0.0625,-0.0625 0,-0.15625 0.0625,-0.0625 -0.03125,-0.0625 -0.15625,-0.0937 z m 30.375,0.5 0,0.46875 0.59375,0.9375 0.21875,0.78125 0.375,0.71875 0.15625,0.0625 0.125,-0.125 0.0625,-0.15625 -0.5625,-0.59375 0.03125,-0.3125 0.125,-0.0313 0.03125,-0.1875 -1.0625,-1.5 -0.09375,-0.0625 z m 3.1875,0.71875 -0.09375,0.125 0.03125,0.1875 0.0625,0 0.15625,-0.28125 -0.15625,-0.03125 z m 0,0.4375 -0.15625,0.0313 0,0.3125 0.09375,0.0313 0.0625,-0.0937 0,-0.28125 z m -7,0.21875 -0.1875,0.1875 0.25,0.53125 -0.09375,0.53125 -0.28125,0.125 -0.1875,-0.0313 0,0.5 0.1875,0.0625 0.3125,-0.15625 0.40625,0.21875 0,0.1875 -0.3125,0 -0.21875,0.53125 -0.21875,0 -0.75,1 -0.8125,0.34375 -0.53125,0.0625 -0.375,-0.28125 -0.5,0.28125 -0.5625,-0.15625 -0.15625,-0.375 -0.9375,-0.0625 -0.5,-0.8125 -0.21875,0 -0.1875,-0.375 -0.1875,-0.0313 -0.28125,0.65625 -0.34375,0 -0.40625,0.84375 0.34375,0.40625 -0.6875,0.9375 -0.34375,-0.0313 -0.25,0.28125 0.0625,0.1875 0.28125,0 0.125,0.3125 0.28125,0.0625 0.84375,1.0625 0,0.5625 0.40625,0.25 0.4375,-0.0625 0.5625,0.3125 0.6875,0.1875 0.3125,-0.0313 0.375,-0.0313 0.78125,-0.5 0.25,0.0313 0.09375,0.21875 0.21875,0.0625 0.28125,0.4375 -0.1875,0.4375 0.125,0.28125 0.3125,0.125 0.0625,0.34375 0.375,0.0313 0.0625,-0.15625 0.5625,-0.3125 0.34375,0.0313 0.40625,0.4375 0.28125,-0.0937 0.1875,0 0.0625,0.21875 0.15625,0.0313 0.1875,-0.28125 0.78125,-0.28125 0.6875,-0.84375 0.21875,-0.8125 0,-0.53125 -0.3125,-0.0625 0.1875,-0.1875 -0.03125,-0.3125 -0.75,-0.75 0,-0.34375 0.21875,-0.28125 0.21875,-0.0937 0,-0.21875 -0.53125,0 -0.09375,0.28125 -0.25,-0.0625 -0.3125,-0.31255 0.1875,-0.53125 0.28125,-0.28125 0.25,0.0313 -0.03125,0.4375 0.125,0.125 0.3125,-0.34375 0.125,0 -0.03125,-0.28125 0.3125,-0.34375 0.21875,0 0.15625,-0.4375 0.15625,-0.0625 0,-0.28125 -0.15625,-0.15625 0,-0.40625 0.28125,-0.0313 0,-1.09375 -0.21875,0.125 -0.0625,0.28125 -0.34375,0 -1.03125,-0.5625 -0.71875,-0.875 -0.75,-0.0313 z m -18.25,0.21875 -0.28125,0.1875 0,0.125 0.15625,0.15625 0.5625,0.0937 0,-0.53125 -0.4375,-0.0313 z m -5.1875,0.34375 -0.3125,0.21875 -0.1875,0.59375 0.1875,-0.0313 -0.03125,0.34375 0.09375,0.0937 0.28125,0 0.03125,0.4375 -0.21875,0.0313 -0.03125,0.25 -0.1875,0.25 0.28125,0.0313 0.09375,0.0625 -0.59375,0.3125 0.21875,0.0937 0.59375,-0.25 0.375,0.0313 0.1875,-0.0937 0.09375,-0.0938 -0.09375,-0.0625 0,-0.0937 0.15625,-0.0625 0,-0.15625 -0.09375,-0.1875 -0.21875,-0.0937 -0.15625,-0.3125 -0.15625,-0.34375 -0.0625,-0.3125 0.0625,-0.125 0,-0.125 -0.3125,0 -0.0625,-0.0937 0.15625,-0.21875 -0.09375,-0.0937 z m 4.65625,0 -0.09375,0.0625 0.0625,0.0625 0.125,0 0.0625,-0.0625 -0.0625,-0.0625 -0.09375,0 z m -0.53125,0.1875 -0.15625,0.125 0.0625,0.1875 0.15625,-0.125 -0.0625,-0.1875 z m 0.96875,0 0.03125,0.3125 0.46875,0.28125 0.21875,-0.0625 -0.03125,-0.21875 -0.15625,-0.21875 -0.53125,-0.09375 z m -2.65625,0.09375 -0.3125,0.375 0,0.21875 0.125,0.375 0.25,-0.0313 -0.03125,-0.3125 0.15625,-0.1875 0,-0.125 -0.125,-0.28125 -0.0625,-0.0312 z m 2.1875,0 -0.1875,0.25 0,0.125 0.0625,0.0313 0.125,0 0.21875,-0.1875 0.03125,-0.0625 -0.125,-0.125 -0.125,-0.0313 z m 8.75,0.0625 -1.3125,0.65625 -0.03125,0.4375 0.3125,0.375 -0.59375,0.3125 -0.78125,0 -0.15625,-0.25 -0.59375,-0.0313 -0.59375,0.375 0,0.5 0.53125,0.4375 0.3125,-0.15625 0.34375,0 0.03125,0.53125 -0.21875,0 -0.15625,0.28125 0.21875,0.34375 0.3125,0.15625 0.03125,0.1875 0.09375,-0.0313 0.125,-0.125 0.15625,0.0313 0.09375,0.1875 0.21875,0 0,-0.21875 -0.15625,-0.40625 -0.0625,-0.3125 0.40625,-0.15625 0.53125,0.0625 0.3125,0.34375 0.75,-0.0625 0.40625,0.5625 0.5,0.0313 0.125,-0.21875 0.15625,-0.0313 0.03125,-0.25 0.25,0 0.15625,0.15625 0.125,-0.3125 1.15625,0.15625 0.1875,-0.25 -0.3125,-0.40625 0.4375,-0.96875 0.34375,0.0313 0.25,-0.59375 -0.5,-0.0625 -0.28125,-0.25 -0.75,0.0937 -1,-0.96875 -0.34375,0.3125 -1.0625,-0.5 z m 16.8125,0.125 -0.15625,0.0937 -0.09375,0.1875 0,0.125 0.125,-0.0625 0.125,-0.25 0,-0.0937 z m -25.28125,0.0625 -0.21875,0.21875 -0.1875,0 0,0.28125 -0.125,0.21875 0.4375,0 0.09375,-0.0313 0.125,0.15625 0.28125,-0.0313 0.25,-0.3125 0,-0.21875 -0.5,-0.28125 -0.15625,0 z m 14.4375,0.0313 -0.21875,0.28125 0.3125,0.21875 -0.4375,0.40625 -0.375,-0.0937 -0.53125,-0.25 -0.46875,0.59375 0.125,0.3125 0.25,0 0.5,0.84375 0.96875,0.0625 0.125,0.375 0.5,0.15625 0.53125,-0.28125 0.40625,0.28125 0.5,-0.0625 0.75,-0.34375 0.78125,-0.96875 0.1875,-0.0313 0.25,-0.53125 0.25,0 0,-0.0937 -0.34375,-0.15635 -0.3125,0.125 -0.25,-0.0313 0.03125,-0.5937 -0.59375,-0.0625 -0.40625,0.4375 -0.6875,-0.0313 -0.0625,-0.15625 -0.40625,0 -0.21875,0.15625 -0.375,0 -0.1875,-0.34375 -0.59375,-0.21875 z m -13.5,0.21875 -0.21875,0.0625 0,0.21875 -0.28125,0.375 -0.28125,0 0.125,0.1875 -0.0625,0.15625 0,0.0937 0.0625,0.15625 0.21875,-0.125 0.3125,0 0.21875,0.0937 0.5,0 0.15625,-0.375 0.09375,-0.15625 0,-0.0625 -0.3125,-0.4687 -0.3125,-0.125 -0.21875,-0.0313 z m -3.09375,0.125 -0.09375,0.0937 0,0.125 0.21875,0.0313 0,-0.15625 -0.0625,-0.0937 -0.0625,0 z m 27,0.0625 -0.21875,0.3125 0.03125,0.125 0.09375,-0.0313 0.25,-0.3125 -0.15625,-0.0937 z m -30.5625,0.0937 -0.125,0.28125 -0.28125,0 0,0.25 0.0625,0.15625 -0.3125,0.21875 0,0.0625 0.15625,0.0937 0.1875,0 0.625,-0.21875 0.0625,-0.46875 -0.1875,0.0625 -0.21875,-0.1875 0.03125,-0.25 z m 0.3125,0 -0.25,0.0313 -0.03125,0.21875 0.1875,0.125 0.15625,-0.0625 0.09375,-0.125 -0.15625,-0.1875 z m 4.6875,0.0625 -0.15625,0.0313 -0.34375,0.125 -0.28125,0.21875 0.03125,0.53125 0.125,0.21875 0.375,0.1875 0.34375,0.25 0.21875,0.0625 0.21875,-0.0625 0.0625,0 0.15625,0.0625 0.09375,-0.0625 0.125,-0.21875 0.03125,-0.125 0,-0.15625 -0.0625,-0.0937 -0.03125,-0.15625 -0.03125,-0.1875 0.0625,-0.125 -0.21875,-0.34385 -0.15625,0.03125 -0.59375,-0.03125 -0.03125,-0.03125 0.0625,-0.125 z m 24.4375,0.0937 -0.125,0.0937 0.0625,0.21875 0.125,0.0937 -0.03125,0.34375 -0.125,0.0625 -0.09375,0.21875 0.3125,0.4375 0.1875,-0.0625 0.03125,-0.125 -0.21875,-0.1875 0.125,-0.15625 0.15625,0 0.09375,0.125 0.03125,-0.25 0.28125,-0.25 0.1875,-0.0313 -0.15625,-0.25 -0.0625,-0.0937 -0.09375,0.0625 -0.09375,0.125 -0.21875,-0.0311 -0.21875,-0.15625 -0.15625,-0.1875 z m -26.09375,0.06255 -0.25,0.0313 0,0.1875 -0.28125,0.0625 0.09375,0.46875 -0.21875,0.0937 -0.03125,0.25 0.15625,0.1875 -0.03125,0.1875 0.21875,0.125 0,0.25 0.25,0.0625 0.0625,0.15625 0.125,0 0.09375,-0.125 0.25,-0.0313 0.3125,-0.125 0.03125,-0.15625 -0.34375,-0.3125 -0.03125,-0.0625 0.375,-0.21875 0.21875,-0.0312 -0.15625,-0.21875 -0.03125,-0.53125 -0.15625,-0.15625 -0.1875,-0.0625 -0.21875,0.0937 -0.125,0 -0.125,-0.125 z M 11.593749,15 l -0.34375,0.15625 0.0625,0.0625 0,0.1875 -0.0625,-0.0313 -0.09375,-0.125 -0.1875,0.3125 0.3125,0.0625 0.09375,0.125 0.0625,0 0.03125,-0.28125 0.1875,-0.0625 -0.0625,-0.40625 z m 4.6875,0.125 -0.125,0.34375 -0.59375,0 -0.1875,-0.0937 -0.28125,0 -0.21875,0.125 0.0625,0.21875 -0.21875,0.4375 0,0.1875 0.09375,0.0625 0.625,0.0313 0.1875,-0.125 0.1875,0.0625 0.25,0.34375 -0.1875,0.34375 0.21875,0.0937 0.3125,-0.375 0.1875,0.0313 0.15625,0.125 -0.15625,0.1875 0.21875,0.3125 0.1875,0 0.09375,-0.21875 0.21875,-0.0313 0.03125,-0.15625 -0.40625,-0.0625 0,-0.1875 0.40625,0 0.40625,-0.34375 0.1875,-0.15625 0.03125,-0.53125 -0.84375,-0.0625 -0.3125,-0.46875 -0.25,-0.0937 -0.28125,0 z m -5.34375,0.5 -0.0625,0.125 0.53125,0.34375 0.15625,0.0313 0,-0.15625 -0.125,-0.15625 -0.0625,0 -0.125,-0.125 -0.3125,-0.0625 z m 2.28125,0.0937 -0.21875,0.0313 -0.3125,0.21875 0.3125,0.3125 0.21875,0 0.125,0 0.1875,0.125 0.34375,-0.28125 -0.34375,-0.25 -0.3125,-0.15625 z m -2.375,0.0625 -0.15625,0.0625 -0.34375,0.375 -0.125,0 -0.125,-0.0937 -0.09375,0 -0.0625,0.21875 -0.5,0.0313 0.03125,0.0937 0.3125,0.21875 0.40625,0.3125 0,0.40625 -0.21875,0.34375 0.46875,0.21875 0.46875,0.0313 0.125,-0.15625 0.28125,0 0.09375,0.0625 0.3125,0 0.125,-0.21875 -0.1875,-0.21875 0,-0.125 0.03125,-0.15625 -0.09375,-0.15625 -0.15625,0.0625 -0.03125,-0.125 0.375,-0.40625 0,-0.25 -0.25,-0.125 -0.125,-0.0313 -0.5625,-0.375 z m 25.25,0.15625 -0.125,0.0625 -0.125,0.4375 -0.25,0 -0.28125,0.3125 0.03125,0.25 0.15625,0.0625 0.03125,0.46875 0.28125,0.0313 0.28125,-0.3125 -0.09375,-0.0937 0,-0.3125 0.25,-0.3125 -0.125,-0.21875 0.0625,-0.0937 0.0625,-0.21875 -0.15625,-0.0625 z m -22.1875,0.21875 -0.34375,0.28125 0.0625,0.0625 0,0.0625 0.59375,0 0.4375,-0.1875 0,-0.1875 -0.09375,0.0313 -0.125,-0.0625 -0.0625,0 -0.1875,0.0625 -0.28125,-0.0625 z m 24.75,0 -0.1875,0.21875 0,0.1875 0.09375,0.125 0.03125,0.46875 -0.25,0.28125 -0.125,-0.0625 -0.09375,0.21875 -0.03125,0.21875 0.09375,0.125 -0.0625,0.0937 -0.15625,-0.15625 -0.125,0 -0.125,0.0625 -0.0625,0.0313 -0.375,0.4375 0.0625,0.0937 0.1875,0.0313 0.34375,-0.28125 0.25,-0.0313 0.21875,0.25 0.15625,-0.0625 0.0625,-0.25 0.3125,0 0.3125,-0.375 -0.15625,-0.625 -0.0625,-0.3125 0.15625,-0.125 -0.375,-0.5625 -0.09375,0 z m -25.625,0.1563 -0.03125,0.1875 -0.34375,0.15625 -0.25,0.0313 -0.0625,0.0937 0.0625,0.0625 0.15625,-0.0313 0.15625,0 0.1875,0.15625 0.34375,-0.0937 0.25,-0.125 0.0625,-0.125 0,-0.125 -0.25,-0.1875 -0.28125,0 z m 2.59375,0.0625 -0.125,0.125 0.21875,0.34375 0,0.21875 0.09375,0 0.1875,-0.34375 -0.25,-0.3125 -0.125,-0.0313 z m -0.9375,0.0313 -0.4375,0.21875 -0.59375,0 -0.09375,0.15625 0,0.21875 0.15625,0.0625 0.4375,0 0.59375,-0.5 0,-0.125 -0.0625,-0.0313 z m 0.15625,0.0625 -0.03125,0.125 -0.4375,0.375 0.375,0.53125 0.21875,0.1875 0.4375,0 0.15625,-0.125 0.1875,-0.0313 0.125,0.0937 0.25,-0.28125 -0.03125,-0.15625 -0.25,-0.0625 -0.1875,0 0,-0.25 -0.21875,-0.375 -0.59375,-0.0313 z m -3.03125,0.15625 -0.34375,0.34375 0,0.0313 0.15625,-0.0313 0.125,0.15625 0.1875,-0.0625 0.15625,0.125 0.0625,-0.0313 0.1875,-0.28125 -0.0625,-0.0625 -0.15625,0 -0.09375,-0.1875 -0.21875,0 z m 1.6875,0.1875 -0.1875,0.125 -0.375,0.0625 0.0625,0.21875 0.25,0 0.25,-0.1875 0,-0.21875 z m -0.9375,0.0625 -0.1875,0.0313 -0.15625,0.25 -0.125,0.0937 -0.15625,-0.125 -0.1875,0.0625 -0.03125,0.125 0,0.125 0.1875,0.21875 0.28125,0 0.65625,0.75 0.40625,0.125 0.21875,0.21875 0.0625,0.5 0.125,-0.0625 0.09375,-0.28125 0,-0.21875 0.1875,0 0,-0.125 -0.5,-0.25 -0.5,-0.5 -0.21875,-0.28125 -0.03125,-0.28125 0.25,-0.0625 -0.0625,-0.1875 -0.15625,-0.125 -0.15625,0 z m 9,0.0625 -0.34375,0.125 0.21875,0.65625 0,0.25 0.125,0 0.1875,-0.34375 0.46875,0 0.09375,0.25 1.03125,0.6875 0.375,0.0937 0.125,0.25 0.21875,0 0,-0.40625 -0.21875,-0.125 0.375,-0.46875 0.15625,0 0.15625,0.1875 0.40625,-0.15625 -0.5625,-0.21875 -0.03125,-0.0937 -0.125,0.0313 -0.125,0.21875 -0.5625,-0.0313 -0.40625,-0.5625 -0.71875,0.0625 -0.34375,-0.34375 -0.5,-0.0625 z m -7.25,0.0625 -0.15625,0.125 -0.0625,0 -0.0625,0.15625 0.1875,0.21875 0.03125,0.1875 -0.25,0.3125 0.03125,0.0937 0.125,0.0313 0.125,-0.125 0.0625,0 0.09375,0.0937 0.28125,-0.0937 -0.03125,-0.4375 -0.375,-0.5625 z m -0.75,0.0625 -0.28125,0.21875 -0.28125,0 -0.03125,0.1875 0.125,0.0313 0.0625,-0.0937 0.125,0.0937 0.0625,0.28125 0.53125,0.25 0.0625,-0.0625 -0.53125,-0.5625 0.03125,-0.0937 0.53125,-0.0313 0.0625,-0.15625 -0.34375,0 -0.125,-0.0625 z m 11.375,0.15625 -0.15625,0.34375 -0.1875,-0.1875 -0.15625,0 -0.03125,0.1875 0.03125,0.125 0.65625,0.21875 -0.5625,0.25 -0.09375,-0.0625 -0.125,0.0937 0.03125,0.0313 0.0625,0.0313 0.40625,0 0.21875,-0.0626 0.25,-0.3125 0.34375,0.0313 0.40625,-0.5625 -1.09375,-0.125 z m 11.1875,0.0625 -0.25,0.3125 0.125,0.0625 0,0.0937 -0.09375,0.0625 0.09375,0.21875 0.21875,0.5 0.21875,0 0.21875,-0.28125 0.03125,-0.1875 -0.09375,-0.375 -0.46875,-0.40625 z m -22.625,0.0625 -0.03125,0.0625 0.5,0.53125 0.21875,-0.28125 -0.03125,-0.125 -0.15625,-0.1875 -0.5,0 z m 2.21875,0.25 -0.15625,0.0313 -0.09375,0.125 -0.5,0 -0.1875,-0.125 0,0.375 0.125,0.28125 0.5,0 0.21875,-0.15625 0.21875,-0.0937 -0.0625,-0.25 0.0625,-0.125 -0.125,-0.0625 z m 2.65625,0.0313 -0.21875,0.125 0.25,0.34375 0.34375,0.125 0.1875,0 0.3125,-0.0937 0.09375,-0.125 -0.96875,-0.375 z m 3.40625,0.0624 -0.15625,0.34375 -0.1875,0 -0.3125,0 -0.03125,0.1875 -0.34375,0 0,0.28125 0.34375,0.21875 -0.09375,0.3125 0,0.15625 0.15625,0 0.1875,-0.25 0.40625,-0.0937 0.90625,0.34375 0.03125,0.25 0.5,0.0625 0.5625,-0.59375 -0.0625,-0.1875 -0.375,-0.0937 -1.0625,-0.6875 -0.0625,-0.25 -0.40625,0 z m -13.03125,0.0313 -0.125,0.0313 -0.09375,0.21875 0.03125,0.25 0.375,0.0313 0.0625,0.15625 -0.1875,0.9375 0.03125,0.15625 0.25,0.15625 0.3125,0 0.625,-0.125 0.28125,-0.40625 0,-0.375 0.53125,-0.46875 0.03125,-0.21875 -0.46875,0 -0.5,-0.25 -0.96875,0 -0.1875,-0.0937 z m 3.4375,0.25 -0.15625,0.1562 0,0.125 0.125,0.0937 0.03125,-0.0313 0.03125,-0.1875 -0.03125,-0.15625 z m 12.0625,0 -0.3125,0.375 0.1875,0.15625 0,0.40625 0.125,0 0.1875,-0.0625 0,-0.125 0.21875,-0.1875 0.15625,0.15625 0,0.25 0.1875,0 0.03125,-0.1875 0.1875,-0.0313 0.125,0 0.0625,0.125 0.0625,0 0.03125,-0.0937 -0.125,-0.28125 -0.28125,-0.0313 -0.0625,-0.15625 -0.0625,0 -0.15625,0.0625 -0.4375,-0.0313 -0.125,-0.0625 0,-0.0937 0.15625,-0.125 -0.03125,-0.0625 -0.125,0 z m -4.84375,0.0625 -0.09375,0.125 0.375,0.46875 0.125,-0.0313 0.21875,0.21875 0.09375,-0.375 0.21875,0.0313 -0.03125,-0.125 -0.34375,-0.3125 -0.09375,0.1875 -0.46875,-0.1875 z m -5.09375,0.0313 -0.09375,0.125 0,0.34375 0.09375,0.21875 0.0625,-0.0313 0.125,-0.21875 -0.0625,-0.0937 -0.03125,-0.28125 -0.09375,-0.0625 z m 0.4375,0 -0.28125,0.0625 0.03125,0.21875 0.0625,0.0937 0.28125,-0.15625 -0.09375,-0.21875 z m 2.125,0 -0.4375,0.3125 -0.40625,0 -0.03125,0.25 -0.4375,0 -0.1875,0.15625 0,0.0937 0.125,0.0937 0,0.0937 -0.0625,0.125 0.0625,0.0937 0.125,-0.0625 0.15625,0.15625 -0.03125,0.0937 -0.0625,0.0625 0.0625,0.0937 0.40625,0.0937 0.28125,-0.125 0,-0.15625 0.15625,0.0313 0.3125,0.1875 0.34375,-0.0625 0.15625,-0.15625 0.09375,0.0313 0,0.1875 0.15625,0 0.09375,-0.25 1.03125,-0.0937 0.46875,-0.0625 -0.125,-0.15625 0,-0.21875 0.09375,-0.0937 -0.34375,-0.28125 0.03125,-0.21875 -0.1875,0 -0.3125,-0.125 -0.15625,0.15625 -0.625,0 -0.375,-0.21875 -0.375,-0.0313 z m -1,0.0313 -0.21875,0.0937 0,0.28125 0.25,-0.0937 0.09375,-0.0625 -0.03125,-0.125 -0.09375,-0.0937 z m 3.40625,0.0936 -0.3125,0.0937 -0.03125,0.1875 0.34375,0.28125 0.25,0.0625 0.125,-0.125 -0.375,-0.5 z m -3.6875,0.0313 -0.15625,0.125 -0.53125,-0.0313 -0.3125,0.1875 -0.1875,0.28125 0,0.125 0.34375,0.15625 0.1875,0.0625 -0.09375,0.0937 -0.1875,0.0313 -0.03125,0.0937 0.0625,0.15625 0.21875,0.125 0.09375,0 0,-0.28125 0.15625,-0.15625 -0.40625,-0.46875 0.0625,-0.15625 0.09375,0 0.15625,0.0937 0.09375,-0.0313 0,-0.15625 0.4375,0 0,-0.25 z m -7.03125,0.0937 -0.03125,0.65625 -0.15625,0.125 0.03125,0.0625 0.09375,0.15625 -0.0625,0.21875 0.09375,0.0313 0.25,-0.0313 -0.03125,-0.1875 0.15625,-0.90625 -0.03125,-0.125 -0.3125,0 z m 29.375,0.125 -0.21875,0.21875 0,0.21875 0.0625,0.0625 0.28125,-0.25 -0.03125,-0.21875 -0.09375,-0.03125 z m -25.78125,0.0313 -0.1875,0.0937 0.03125,0.40625 0.15625,0.0313 0.125,-0.125 0,-0.375 -0.125,-0.0313 z m 12.5,0.125 -0.15625,0.15625 0,0.125 -0.25,0.0937 -0.4375,0 -0.59375,0.59375 -0.53125,-0.0313 0.125,0.9375 0.3125,0.0625 0.03125,0.1875 -0.21875,0.1875 0.40625,0.3125 0.78125,-0.28125 0.0625,-0.34375 0.5,-0.3125 0.1875,-0.71875 0.15625,-0.15625 -0.15625,-0.25 0.5,-0.28125 -0.0625,-0.0937 -0.25,0 0,0.21875 -0.3125,0 0,-0.28125 -0.09375,-0.125 z m -4.84375,0.0625 -0.09375,0.0313 -0.15625,0.1875 -0.3125,-0.0625 -0.09375,0.0937 0.03125,0.15625 0.09375,0.1875 0.4375,0.4375 -0.0625,0.1875 -0.09375,0 -0.03125,0.1875 0.25,0.28125 0.21875,0.0313 0.4375,0.59375 0.21875,0.0313 0.21875,0.125 0,0.28125 0.75,0.4375 0.28125,0 0.15625,-0.15625 0.21875,0 0.125,0.28125 0.8125,0.125 0.03125,-0.3125 0.28125,-0.0939 0,-0.0937 -0.21875,-0.3125 -0.46875,-0.375 0.25,-0.21875 -0.03125,-0.0937 -0.3125,-0.0625 -0.125,-1.0625 0,-0.21875 -0.875,-0.34375 -0.375,0.0937 -0.1875,0.25 -0.1875,0 -0.0625,0.0313 -0.40625,-0.0313 -0.53125,-0.375 -0.1875,-0.21875 z m 17.46875,0.0312 -0.125,0.125 0.03125,0.1875 0.125,0 0.0625,0.40625 0.09375,0.0937 0.15625,-0.15625 0.0625,-0.25 -0.1875,-0.2812 -0.21875,-0.125 z m -26.375,0.0625 -0.125,0.0625 0.03125,0.0937 0.15625,0 0.09375,-0.0625 -0.15625,-0.0937 z m 14.65625,0.0313 -0.09375,0.125 -0.0625,0 -0.4375,0.28125 0.125,0.25 -0.15625,0.15625 -0.1875,0.75 -0.5,0.3125 -0.0625,0.34375 -0.8125,0.28125 0.21875,0.28125 -0.03125,0.15625 -0.25,0.125 -0.03125,0.25 0.3125,0 0.09375,-0.0937 0.59375,0 0.53125,0.46875 0.0625,-0.21875 0.375,0 0,-0.28125 -0.375,-0.40625 0.0625,-0.1875 0.4375,-0.0313 0.53125,-1.15625 -0.3125,-0.25 -0.09375,-0.40625 0.75,-0.0625 -0.4375,-0.625 -0.25,-0.0625 z m -12.375,0.375 -0.375,0.0625 0.03125,0.0937 0.34375,0.15625 0.03125,0.0625 0.09375,0.0313 0,-0.34375 -0.125,-0.0625 z m -7.96875,0.15625 -0.03125,0.0937 0.0625,0.0625 0.15625,-0.0937 -0.1875,-0.0625 z m 14.0625,0 -0.4375,0.0625 -0.125,0.59375 -0.5,0.40625 0.03125,0.1875 0.5,0.0313 0.78125,0.625 0.4375,0 0,-0.15625 0.15625,-0.15625 0.21875,0.125 0.03125,-0.0313 -0.40625,-0.5625 -0.21875,-0.0313 -0.28125,-0.34375 0.0625,-0.25 0.09375,0 0.03125,-0.125 -0.375,-0.375 z m -6.90625,0.0625 -0.40625,0.15625 0.125,0.5625 -0.15625,0.0937 0.03125,0.25 0.28125,0.28125 0,0.28125 0.0625,0.0937 0.125,-0.0313 0,-0.28125 0.09375,0 0.21875,-0.34375 -0.28125,-0.125 0,-0.0625 0.0625,-0.125 0,-0.28125 -0.0625,-0.0313 0,-0.15625 0.0625,-0.0937 0,-0.0937 -0.15625,-0.0937 z m 6.40625,0 -0.96875,0.0937 -0.125,0.21875 -0.1875,0 -0.03125,0.1875 0.21875,0.0937 0,0.53125 0.21875,0 0.1875,-0.15625 0.09375,-0.0313 0.5,-0.375 0.09375,-0.5625 z m -7.21875,0.0625 -1.3125,0.25 -0.28125,0.21875 0.1875,0.90625 -0.53125,0.0313 -0.3125,0.5 -0.75,0.15625 0,0.375 2.46875,1.875 0.40625,0.0313 1.40625,-1.0939 -0.15625,-0.15625 -0.25,-0.0313 -0.15625,-0.28125 0,-1.09375 -0.09375,-0.0937 0,-0.28125 -0.28125,-0.28125 -0.03125,-0.3125 0.125,-0.0625 -0.0625,-0.34375 -0.0625,-0.1875 -0.3125,-0.125 z m 14.71875,0.0937 -0.71875,0.0625 0.09375,0.3125 0.34375,0.28125 -0.59375,1.21875 -0.40625,0.0313 -0.0625,0.125 0.40625,0.375 -0.03125,0.375 -0.40625,-0.0313 -0.03125,0.1875 0.3125,0 0.03125,0.125 -0.25,0.125 0.15625,0.3125 0.28125,0.0937 0.1875,-0.15625 0.09375,-0.21875 0.09375,-0.06245 0.125,0.125 -0.03125,0.3125 -0.09375,0.15625 0.03125,0.25 1.25,2.625 0.375,-0.1875 0.1875,-0.75 0,-0.9375 1.21875,-1.28125 0,-0.3125 0.21875,-0.0937 0,-0.375 -0.25,-0.5 0.15625,-0.28125 0.3125,0.3125 0.4375,0 0,0.1875 -0.125,0.125 0.03125,0.0937 0.21875,0 0.03125,0.25 0.09375,0 0.15625,-0.28125 0.09375,-0.8125 0.28125,-0.21875 0,-0.28125 -0.09375,-0.21875 -0.1875,0 -0.71875,0.46875 0.0625,0.3125 -0.5,0 -0.1875,-0.21875 -0.09375,0 0.03125,0.3125 -1.0625,-0.0937 -0.6875,-0.28125 -0.03125,-0.37505 -0.4375,-0.28125 0,-0.5625 -0.3125,-0.34375 z m -9.0625,0.21875 -0.21875,0.0937 -0.21875,0.0313 0,0.125 0.09375,0.0625 0.15625,0.0313 0.28125,-0.28125 -0.09375,-0.0625 z m -3.90625,0.0313 -0.125,0.0313 0,0.125 0.125,0.0625 0.0625,-0.0625 -0.0625,-0.15625 z m 1.875,0 -0.0625,0.0937 0.09375,0.0313 0.0625,0.0937 0.34375,0 0.09375,-0.125 -0.0625,-0.0313 -0.09375,0.0313 -0.1875,0 -0.0625,-0.0937 -0.125,0 z m -6.15625,0.1562 -0.1875,0.375 -0.40625,0.1875 -0.3125,0.90625 -0.65625,0.375 -0.90625,1.5 0.875,-0.0313 0.03125,-0.4375 0.25,0 0,-0.59375 0.78125,0 0,-0.78125 0.75,-0.15625 0.34375,-0.5 0.46875,-0.0313 -0.15625,-0.8125 -0.875,0 z m 8.4375,0 0,0.15625 -0.0625,0.21875 0.21875,0.0313 0,-0.34375 -0.15625,-0.0625 z m -10.65625,0.3125 -0.09375,0.0937 0.09375,0.0937 0.125,-0.0625 -0.125,-0.125 z m 10.5625,0.125 -0.09375,0.375 0.15625,0.46875 0.15625,-0.6875 0,-0.125 -0.21875,-0.0313 z m 0.75,0.0313 -0.21875,0.15625 -0.25,0.0313 -0.1875,0.65625 0,0.0937 0.28125,0 0.34375,-0.3125 0,-0.0937 -0.125,-0.15625 0.25,-0.1875 -0.03125,-0.1875 -0.0625,0 z m -5.3125,0.0313 -0.25,0.40625 -0.0625,0 -0.03125,0.28125 -0.125,0 0,1.0625 0.125,0.25 0.28125,0.0313 0.15625,0.2186 0.65625,0.15625 0.15625,-0.0937 1.59375,0.8125 0.25,0.0313 -0.03125,-2.84385 -0.34375,-0.0625 -0.1875,-0.21875 -0.4375,0 -0.21875,0.1875 0,0.0937 0.125,0.125 0.03125,0.125 -0.3125,0.15625 -0.59375,-0.28125 -0.15625,-0.25 -0.625,-0.1875 z m 5.46875,0.1875 -0.21875,0.1875 0.09375,0.0937 0,0.15625 -0.375,0.34375 -0.3125,0 0.0625,0.21875 1.0625,1.28125 0,0.34375 0.09375,0.15625 0.28125,0.15625 0.4375,0.6875 0.3125,-0.28125 0.5,0.3125 0.4375,-0.40625 0.78125,-0.25 0.5625,-0.3125 0.09375,-0.4375 -0.09375,-0.0313 -0.84375,-0.0625 -0.0625,-0.34375 -0.1875,-0.15625 -0.53125,-0.75 -0.375,-0.125 -0.03125,-0.125 -0.46875,0.0313 -0.78125,-0.65625 -0.4375,-0.0313 z m 9.1875,0 -0.375,0.0937 0.03125,0.3125 0.625,0.28125 1,0.0937 -0.03125,-0.25 -0.6875,-0.1875 -0.5625,-0.34375 z m -10.84375,0.0624 -0.25,0.1875 -0.1875,0 -0.40625,-0.125 -0.1875,0 0.03125,2.3125 1.96875,0.0313 0.21875,-0.25 -0.03125,-0.375 -0.71875,-0.90625 -0.09375,-0.28125 0.03125,-0.1875 0.125,0.0313 0.15625,0.5 0.125,0.0625 0.0625,-0.0625 -0.03125,-0.21875 -0.0625,-0.15625 -0.15625,-0.46875 -0.03125,0 -0.25,0 -0.21875,-0.09385 -0.09375,0 z m 13.9375,0.15625 0,0.3125 -0.28125,0.1875 -0.09375,0.8125 -0.1875,0.3125 -0.03125,0.375 -0.125,0.0625 0.53125,0.5 0.125,0.25 0.0625,0.3125 0.0625,0.0937 0.1875,0 0.125,-0.25 0.0625,-0.0937 0.21875,0.40625 0.03125,0.4375 0.125,0.0313 0.15625,0.28125 -0.15625,0.21875 0.21875,0.34375 0.0625,-0.1875 0,-0.4375 -0.28125,-0.4375 -0.03125,-0.0937 0.09375,-0.0937 0,-0.28125 -0.40625,-0.5314 0.0625,-0.34375 0.53125,-0.21875 0.125,-0.21875 -0.4375,-0.0625 -0.0625,-0.375 -0.3125,-0.125 -0.125,-0.3125 0.1875,-0.4375 -0.28125,-0.375 -0.15625,-0.0625 z m -10.40625,0.125 -0.125,0.125 0,0.25 0.28125,0.0937 0,-0.375 -0.15625,-0.0937 z m 9.28125,0.125 -0.46875,0.0625 0.09375,0.15625 0.40625,0 -0.03125,-0.21875 z m 6.625,0.0625 -0.28125,0.21875 0,0.40625 0.21875,0.25 0.0625,-0.0313 0,-0.84375 z m -29.53125,0.3125 -0.125,0.09375 0.15625,0.125 0.09375,-0.1875 -0.125,-0.03125 z m 22.4375,0.0625 -0.09375,0.1875 0.25,0.5 0,0.375 0.0625,0.0937 0.3125,0.0313 0.15625,-0.1875 0.125,0.0937 0.03125,0.21875 0.125,-0.0625 0,-0.28125 -0.09375,-0.0313 -0.0625,-0.25 -0.21875,0 -0.03125,-0.15615 0.125,-0.15625 0,-0.0937 -0.375,0 -0.3125,-0.28125 z m -21.5625,0.0313 -0.15625,0.0937 0.0625,0.0625 0.09375,-0.15625 z m -0.5,0.0313 -0.15625,0.0313 0.09375,0.125 0.125,0 -0.0625,-0.15625 z m 14.25,0.3125 -0.125,0.0937 -0.03125,0.28125 0.125,0.0937 0.09375,0 0.03125,-0.375 -0.09375,-0.0937 z m 1.0625,0.0313 -0.25,0.0625 -0.28125,0.40625 -0.53125,0.0313 0.0625,0.28125 0.75,0.0625 0.0625,-0.5625 0.125,-0.0625 0.0625,-0.21875 z m -13.65625,0.0313 0,0.3125 -0.78125,0 0,0.59375 -0.25,0 -0.03125,0.4375 -0.9375,0.0313 0.15625,0.21875 -0.03125,0.9375 0.25,-0.15625 0.1875,-0.0313 0.25,0.0625 0.25,0.40625 0.28125,-0.1875 1.28125,0 -0.3125,-2.125 0.3125,0 -0.625,-0.5 z m 23.8125,0.125 -0.28125,0.15625 0.09375,0.375 0.375,0.0625 0.09375,0.28125 -0.125,0.0937 0,0.0625 0.90625,0.875 0.03125,0.25 -0.0625,0.78125 -0.625,0.46875 0.09375,0.125 0.03125,0.15625 0.21875,0.0313 0.3125,-0.375 0.28125,-0.0937 0.125,-0.375 -0.0625,-0.6565 -0.28125,-0.40625 -0.3125,-0.21875 -0.375,-0.65625 0.28125,-0.46875 -0.40625,-0.4375 -0.3125,-0.0313 z m -10.1875,0.125 -0.125,0.0625 -0.03125,0.5 0.125,0.0625 -0.09375,0.5 -0.59375,0.3125 0.3125,0.53125 0.375,0 0.84375,-1.25 0,-0.1875 -0.6875,-0.375 -0.125,-0.15625 z m 9.84375,0.0625 -0.15625,0.0937 -0.15625,0.46875 0.25,0.3125 -0.0625,0.375 0.0625,0 0.4375,-0.1875 0.5625,0.625 0,0.40625 0.125,0.0937 0.3125,-0.25 -0.03125,-0.21875 -0.90625,-0.84375 0,-0.125 0.125,-0.0937 -0.0625,-0.21875 -0.375,-0.0625 -0.125,-0.375 z m -23.09375,0.25 0.3125,2.125 -1.3125,0 -0.25,0.15625 0.28125,0.375 -0.03125,0.125 0.4375,-0.0313 0.15625,0.4061 0.5625,0 0.15625,-0.4375 0.8125,-0.59375 1.0625,-0.0937 0.0625,-0.71875 -0.21875,-0.0313 -1.6875,-1.28125 -0.34375,0 z m 3.9375,0.21875 -1.40625,1.125 -0.21875,-0.0313 -0.0625,0.75 -0.71875,0.0937 0.40625,0.625 0.1875,-0.0313 0.1875,-0.25 0.3125,-0.0625 0.3125,0.1875 0.65625,0.0313 0.53125,-0.21875 0.1875,-0.15625 0.03125,-0.21875 0.375,-0.375 0.09375,-0.8125 -0.25,-0.5 -0.625,-0.15625 z m 0.875,0.0625 -0.1875,0.0937 0.25,0.46875 -0.09375,0.875 -0.375,0.34375 0,0.25 -0.1875,0.15625 0.25,0.1875 0.1875,0.0313 0,0.5625 -0.125,0.0937 -0.03125,0.0937 0.125,0.0625 0.15625,0.3125 0.25,0.0313 0,-0.0937 0.40625,0.0313 0,-0.1875 0.5625,-0.53125 0.34375,0 -0.1875,-0.375 0,-0.4375 0.28125,-0.25 0,-0.84375 -1.625,-0.875 z m 20.1875,0.0313 -0.1875,0.0625 -0.15625,0.15625 0.125,0.21875 0.15625,0 0.1875,-0.15625 0.03125,-0.21875 -0.15625,-0.0625 z m -16.03125,0.0313 -0.28125,0.28125 -2,0 0.03125,0.5 -0.1875,0 -0.03125,0.90625 -0.28125,0.25 0,0.375 0.1875,0.40625 0.25,0.125 -0.03125,0.25 -0.09375,0.0625 0.9375,0.96875 0.53125,0.0313 0.0625,0.0937 0.75,0.0313 0,-0.15625 0.0625,-0.125 0.25,-0.0313 -0.3125,-0.4375 -0.21875,0 -0.0625,-0.3125 0.1875,-0.0937 0.53125,-1.125 0,-0.625 0.34375,-0.375 -0.625,-1 z m 13.71875,0 -0.5,0.1875 -0.03125,0.3125 0.40625,0.5 0,0.34375 -0.09375,0.0937 0.03125,0.0313 0.28125,0.4375 0,0.5 -0.125,0.21875 -0.03125,0.15625 -0.09375,0.1875 0.0625,0.21875 0.25,0.21875 0.21875,0 0.1875,0.28125 0.21875,0 0.03125,-0.0937 -0.40625,-0.4066 -0.25,-0.40625 0.03125,-0.96875 0.0625,-0.0937 0.15625,0 0,0.21875 0.34375,0.25 0.125,-0.0625 0,-0.1875 -0.15625,-0.0625 -0.03125,-0.1875 0.1875,-0.28125 0.09375,0 0.15625,0.0625 0.15625,0.0313 0,-0.375 -0.46875,-0.53125 -0.0625,-0.0313 -0.40625,0.1875 -0.09375,-0.0313 0,-0.40625 -0.25,-0.3125 z m 4.71875,0.1875 -0.1875,0.125 -0.03125,0.46875 0.3125,0.59375 0.125,0.0937 0.125,-0.0937 0.21875,0.0313 0.0625,0.1875 0.15625,0.0313 0.09375,-0.125 -0.125,-0.125 -0.125,-0.125 -0.25,-0.0313 -0.15625,-0.21875 0.15625,-0.25 0.03125,-0.21875 -0.125,-0.28125 -0.28125,-0.0625 z m -14.9375,0.6247 -0.75,0.25 -0.4375,0.40625 -0.5,-0.28125 -0.28125,0.25 0.125,0.34375 0,0.3125 0.125,0.15625 0.125,0.0937 1.875,-0.78125 0.03125,-0.21875 -0.3125,-0.5312 z m -1.71875,1.4375 -0.125,-0.0625 -0.15625,0.1875 -0.03125,0.28125 0.28125,0 0.03125,-0.40625 z m -1.125,-1.1875 -0.3125,0.34375 0.03125,0.4375 0.5625,0 0.53125,0.46875 0.125,-0.15625 -0.71875,-0.53125 -0.15625,-0.5 -0.0625,-0.0625 z m 14.03125,0.375 -0.0625,0.0313 -0.15625,0.25 0.03125,0.125 0.15625,0.0625 -0.03125,0.25 -0.09375,0.0625 0.3125,0.34375 0.59375,-0.4375 0.03125,-0.6875 -0.28125,0.21875 -0.15625,-0.0937 -0.21875,-0.0313 -0.125,-0.0937 z m -25.46875,0.0625 -0.15625,0.0313 -0.3125,0.21875 -0.0625,0.125 -0.03125,0.125 0.125,0.0625 0.375,0 0.25,-0.0625 0,0.125 0,0.15625 0.21875,0.0937 0.0625,0.0625 0.28125,0 0.03125,-0.125 -0.28125,-0.34375 -0.3125,-0.40625 -0.1875,-0.0625 z m 29.34375,0 0.0625,0.21875 0.09375,0.0625 0.0625,-0.0937 -0.125,-0.15625 -0.09375,-0.0313 z m -31.25,0.0313 -0.125,0.0937 0.09375,0.0937 0.125,-0.0625 -0.09375,-0.125 z m 0.375,0.1875 -0.09375,0.0625 0.0625,0.125 0.15625,-0.0625 -0.125,-0.125 z m 31.875,0 -0.1875,0.0313 0.15625,0.1875 0.0625,0.1875 0.125,0 -0.03125,-0.3126 -0.125,-0.0937 z m -27.09375,0.0937 -0.28125,0.0313 -0.8125,0.59375 -0.125,0.40625 0.09375,0.125 0.34375,-0.0313 0.09375,-0.21875 0.40625,-0.0313 0.3125,0.0937 0.40625,-0.3125 -0.4375,-0.65615 z m 26.4375,0.0937 -0.03125,0.375 0.15625,0.15625 0.03125,0.25 0.15625,0.0313 0.0625,-0.15625 -0.09375,-0.0937 -0.03125,-0.46875 -0.25,-0.0937 z m -31.4375,0.0313 -0.125,0.0937 0.125,0.15625 0.125,-0.0313 -0.125,-0.21875 z m 12.90625,0 -0.5625,1.25 -0.1875,0.0313 0.03125,0.25 0.21875,0 0.34375,0.5 0.1875,0.0625 0.4375,0.375 0.25,0 1,-0.3125 0.71875,-0.78125 -0.375,0 -0.625,-0.375 -0.03125,-0.21875 -0.40625,0 0.03125,-0.375 -0.46875,-0.40625 -0.5625,0 z M 7.249999,24.9375 7.093749,25 l -0.375,0.0313 0,0.0625 0.53125,0 0.03125,-0.0937 -0.03125,-0.0625 z m 29.9375,0 0,0.34375 0.09375,0.125 0.125,-0.15625 -0.03125,-0.3125 -0.1875,0 z m -1,0.0313 -0.0625,0.125 -0.03125,0.15625 -0.375,0.4375 0.03125,0.125 0.15625,-0.0313 0.46875,-0.53125 -0.1875,-0.28125 z m -24.65625,0.0625 -0.25,0.0625 -0.125,0.21875 0,0.59375 -0.21875,0.28125 0,0.4375 0.3125,0.0313 0.34375,0.40625 0.1875,0.0313 0.125,-0.0625 0.21875,-0.0313 0.0625,-0.28125 0.3125,-0.1875 0.3125,-0.0313 0.5625,-1.03125 -0.03125,-0.25 -0.25,-0.1875 -0.53125,0.21875 -0.6875,0 -0.34375,-0.2188 z m 10.40625,0 -0.1875,0.0625 -0.1875,0.0313 0.1875,0.1875 0.21875,-0.15625 0.0625,-0.0313 -0.09375,-0.0937 z m -15.21875,0.125 0.09375,0.25 0.03125,-0.15625 0.65625,0.0625 -0.28125,-0.125 -0.5,-0.0313 z m 6.6875,0.0937 0,0.25 -0.5625,1.0625 -0.34375,0.0313 -0.25,0.15625 -0.0625,0.28125 0.25,0.21875 -0.03125,0.34375 1.375,-0.0313 0.09375,-0.125 -0.375,-0.40625 -0.0625,-0.15625 0.25,-0.46875 -0.15625,-0.3125 -0.15625,-0.0625 0,-0.15625 0.15625,-0.125 0.03125,-0.46875 -0.15625,-0.0313 z m -6.5,0.0625 -0.0625,0.1875 0.125,0.21875 0.28125,-0.28125 0,-0.0625 -0.34375,-0.0625 z m 14.40625,0 -0.3125,0.15625 0.0625,0.28125 -0.0625,0.28125 -0.1875,0.15625 -0.78125,0.84375 -0.5625,0.15625 -0.25,0.3125 0.03125,0.75 0.1875,0.125 1.6875,-1.78125 0.3125,-0.90625 0,-0.28125 -0.125,-0.0937 z m 16.25,0 0.03125,0.25 -0.25,0.1875 -0.21875,0.0313 -0.25,0.25 0.03125,0.0937 0.1875,-0.0625 0.15625,-0.0937 0.125,0.3125 0.21875,0.15625 0.09375,-0.0313 0.09375,-0.0937 -0.1875,-0.15625 0.09375,-0.0937 0.125,0.0937 0.09375,-0.125 -0.09375,-0.15625 0,-0.375 -0.25,-0.1875 z m -30.25,0.0313 0,0.15625 -0.3125,0.25 0.21875,0.375 0.3125,-0.28125 0.3125,0 0.25,0.34375 0.21875,0.15625 0.09375,-0.1875 0.0625,-0.0313 0,-0.34375 -0.125,-0.4375 -0.46875,0.0625 -0.5625,-0.0625 z m 3.59375,0 -0.34375,0.25 0.15625,0.28125 0,0.78125 0.15625,0 0,-0.46875 0.21875,-0.3125 0,-0.5 -0.1875,-0.0313 z m 10.03125,0.125 -0.78125,0.28125 -0.09375,0 -0.3125,-0.21875 0,0.21875 0.59375,0.34375 0.4375,0.0313 0.15625,-0.125 0.0625,-0.25 -0.0625,-0.28125 z m -10.84375,0.15625 -0.375,0.0313 -0.125,0.8125 0.09375,0.1875 0.21875,0.34375 0.125,0 0.34375,-0.1875 -0.03125,-1.09375 -0.25,-0.0937 z m 0.40625,0.0313 -0.0625,0.0625 0,1.0625 0.21875,-0.125 0,-0.78125 -0.15625,-0.21875 z m 4.46875,0 -0.5,0.5 -0.03125,0.21875 -0.40625,-0.0313 0,0.0937 -0.28125,-0.0313 -0.25,0.46875 0.0625,0.125 0.34375,0.375 0.15625,-0.15625 0.21875,0 0.0625,-0.1875 0.21875,-0.125 0.46875,0.3125 0.25,-0.28125 1.03125,0.0625 -0.9375,-1 0.125,-0.0625 0,-0.1875 -0.21875,-0.0937 -0.3125,0 z m 12.96875,0.0625 -0.125,0.0625 0.03125,0.1875 0,0.15625 -0.09375,0.0313 0.03125,0.34375 0.1875,0.0937 0.25,-0.15625 -0.0625,-0.375 0.03125,-0.125 -0.25,-0.21875 z m -19.21875,0.0313 -0.1875,0.0313 0.03125,0.40625 -0.09375,0.0313 -0.125,0.1875 0.28125,0.3125 0.03125,0.5 0.34375,-0.25 0.40625,-0.0625 0.40625,0.0937 -0.21875,-0.34375 -0.0625,-0.1875 0.0625,-0.59375 -0.375,0.0313 -0.15625,-0.15625 -0.34375,0 z m -0.90625,0.15625 -0.28125,0.0313 -0.28125,0.21875 0.4375,0.40625 0.3125,-0.375 -0.1875,-0.28125 z m 27.9375,0.21875 -0.25,0.4375 0.09375,0.25 -0.15625,0.21875 -0.25,-0.0937 -0.65625,0.5 0.03125,0.25 -0.3125,0 0.25,0.25 0.875,-0.28125 0.1875,-0.6875 0.40625,-0.0313 0.34375,-0.28125 -0.46875,-0.34375 -0.09375,-0.1875 z m -27.6875,0.125 -0.3125,0.375 0.84375,0.5625 -0.03125,-0.4375 -0.25,-0.28125 -0.25,-0.21875 z m 23.78125,0.0936 0.15625,0.34375 0.03125,0.4375 0.1875,0.34375 0.5,0.28125 0.1875,0.0313 -0.03125,-0.3125 -0.15625,-0.40625 -0.25,-0.5 0,0.0937 -0.3125,-0.0313 -0.1875,-0.28125 -0.125,0 z m -0.8125,0.15625 0,0.1875 0.53125,0.875 0.125,0 1.09375,1.8125 0.4375,0.0625 0.21875,-0.65625 -0.34375,-0.21875 -0.0625,-0.34375 -2,-1.71875 z m 4.4375,0.125 -0.21875,0.28125 0.15625,0.0625 0.125,-0.15625 -0.0625,-0.1875 z m -9.53125,0.125 0.03125,0.1875 0.125,0.0625 0.03125,-0.1875 -0.1875,-0.0625 z m -7.8125,0.15625 -0.28125,0.0313 -0.03125,0.0625 0,0.1875 0.21875,0.40625 -0.25,0.5 -0.03125,0.15625 1.21875,0.78125 0.375,-0.59375 -0.1875,-0.15625 0,-0.8125 0.25,-0.25 -0.40625,0.125 -0.28125,0 -0.46875,-0.375 -0.125,-0.0625 z m -3.5625,0.0625 -0.1875,0.125 -0.09375,1 -0.3125,0.21875 -0.09375,0.21875 0.03125,0.3125 -0.5625,0.4375 -0.125,-0.0625 0.03125,0.0625 -0.1875,0.15625 0.8125,0 0.15625,0.21875 0,0.15625 0.0625,0.0625 0.375,0 0.125,-0.21875 0.15625,0 0.0625,0.0625 0.21875,0 0.0625,0.78125 0.40625,0 0,0.0625 1.03125,0.46875 0.03125,0.0937 0.21875,0 -0.03125,-0.34375 -0.375,-0.1875 0.03125,-0.25 0.15625,-0.375 0.375,0 -0.3125,-1.09375 0,-0.46875 0.5,-0.8125 0.03125,-0.125 -0.09375,-0.0313 0,-0.21875 -0.09375,0 -0.09375,-0.125 -1.5625,-0.0937 -0.28125,0.28125 -0.46875,-0.3125 z m 21.34375,0.0313 -0.28125,0.0313 -0.1875,0.65615 -0.96875,0.34375 -0.28125,-0.34375 -0.15625,0.03125 0.25,1 0.40625,0.0625 0.53125,0.1875 0,0.21875 0.21875,-0.0625 0.375,-0.46875 0,-0.40625 0.1875,-0.40625 0.21875,0.0625 -0.25,-0.5625 L 35.906249,27 z m -9.78125,0.15625 -0.03125,0.25 0.09375,0.0625 0.09375,-0.15625 -0.15625,-0.15625 z m -8.96875,0.0625 -0.03125,0.15625 0.09375,0.0937 0,0.15625 -0.375,0.53125 0.25,0.21875 0.125,-0.0937 0.40625,-0.0625 0.0625,0 0.03125,-0.15625 0.21875,-0.46875 -0.1875,-0.375 -0.59375,0 z m -5.03125,0.0313 -0.0625,0.15625 0.125,0.0625 0.09375,-0.0937 -0.03125,-0.125 -0.125,0 z m 1.9375,0.0313 -0.25,0.34375 -0.625,0.0313 0,0.0937 0.375,0.0313 0,0.9375 -0.3125,0 -0.1875,-0.15625 -0.15625,0.0937 -0.03125,0.0313 0.09375,0.0313 0.03125,0.21875 -0.21875,0.15625 0.03125,0.0937 0.25,-0.15625 0.09375,0 0.03125,0.0937 0.15625,0.0625 0.46875,-0.40625 0,-0.28125 0.09375,-0.21875 0.3125,-0.25 0.0625,-0.75 -0.21875,0 z m 24.0625,0.21875 -0.15625,0.34375 0.21875,0.3125 0.09375,0 0.09375,-0.21875 0.0625,-0.0625 -0.125,-0.0937 -0.125,-0.0625 -0.0625,-0.21875 z m -0.5,0.0625 -0.28125,0.25 -0.1875,0 -0.28125,-0.15625 -0.21875,0.0311 -0.21875,0.34375 -0.15625,0.65625 -0.0625,0.25 0.15625,0.21875 -0.09375,0.3125 0,0.0625 0.25,0 0.09375,-0.8125 0.09375,0.0313 0.125,0.71875 0.15625,0.0625 0.125,-0.3125 -0.125,-0.5 -0.125,-0.1875 0.375,-0.25 -0.09375,-0.125 -0.34375,0.21875 -0.09375,0 -0.15625,-0.25 0.0625,-0.0937 0.28125,-0.15625 0.40625,0.125 0.125,0 0.34375,-0.28125 -0.15625,-0.15625 z m -25.1875,0.0937 0,0.125 0.34375,0 0,-0.125 -0.34375,0 z m 0.40625,0 0,0.1875 -0.4375,0 -0.28125,0.5 0.625,0.6875 0.15625,-0.125 0,-0.125 -0.09375,-0.0625 0,-0.0937 0.21875,-0.15625 0.21875,0.1875 0.25,0 0,-0.8125 -0.375,-0.0313 0,-0.15625 -0.28125,0 z m 13.28125,0 -0.0625,0.0937 0.09375,0.0625 0.125,-0.0625 -0.15625,-0.0937 z m -14.3125,0.0625 0.0625,0.125 0.0625,0.0313 0.0625,-0.0937 -0.0625,-0.0625 -0.125,0 z m -0.09375,0.25 -0.0625,0.0313 0,0.0937 0.0625,0.0313 0.0625,-0.0937 -0.0625,-0.0625 z m 27.75,0.21875 -0.3125,0.0313 -0.1875,0.15625 0.0625,0.15625 0.34375,0.0625 0,0.0625 -0.21875,0.1875 0.125,0.375 0.09375,0 0.09375,-0.375 0.1875,0 0.0625,0.375 0.84375,0.6875 0,0.53125 0.3125,0.3125 0.125,0 0.03125,-1.90625 -0.5,-0.34375 -0.46875,0.3125 -0.15625,0.0937 -0.28125,-0.15625 0,-0.5625 -0.15625,0 z m -22.65625,0.0313 -0.125,0.1875 0,0.21875 0.34375,0 0,-0.21875 -0.21875,-0.1875 z m 0.8125,0.0313 -0.375,0.0937 -0.15625,0.0937 0,0.21875 -0.09375,0.34375 -0.09375,0.0937 -0.15625,0.0313 0.28125,0.875 0.40625,0.21875 0.3125,0 0,0.0625 -0.25,0 0.125,0.5625 -0.09375,0.40625 0.25,0.28125 0,0.3125 0.03125,0.125 0.3125,-0.34375 -0.03125,-0.4375 -0.15625,-0.125 0,-0.0625 -0.09375,-0.34375 1.28125,-0.15625 -0.28125,-0.59375 -0.03125,-0.5625 0.09375,-0.28125 -1.28125,-0.8125 z m 0.3125,2.75 0.21875,0.15625 0.0625,0.5 -0.4375,0.4375 -0.09375,-0.25 0,-0.3125 -0.21875,-0.25 -0.625,0.28125 0.5625,0.28125 0.03125,0.8125 -0.375,0.5625 0,0.65625 0.21875,0.1875 0.46875,-0.3125 0.09375,-0.4375 0,-0.71875 0.78125,-0.65625 0.125,0 0.5,-0.4375 -0.09375,-0.9375 -1.25,0.15625 0.03125,0.28125 z m 20.625,-2.34375 -0.3125,0.0625 -0.09375,0.0937 0.09375,0.125 0.1875,-0.0625 0.125,-0.0937 0.1875,0.15625 0.09375,-0.0625 -0.15625,-0.1875 -0.125,-0.0313 z m -21.5625,0.03105 -0.3125,0.0313 0,0.15625 0.0625,0.1875 0.09375,0 0.09375,-0.0625 0.0625,-0.3125 z m 24.09375,0.1875 -0.03125,1.875 0.28125,0 0.34375,-0.4375 0.3125,0.0313 0.1875,0.15625 0.0625,0.53125 0.59375,0.34375 0.15625,-0.0625 0,-0.21875 -0.46875,-0.4063 -0.25,-0.5625 0.1875,-0.0937 -0.125,-0.28125 -0.3125,-0.0313 -0.0625,-0.3125 -0.75,-0.53125 -0.125,0 z m -18.65625,0.0625 -0.125,0.0937 0.09375,0.15625 0.15625,0 -0.125,-0.25 z m -9.375,0.15625 -0.1875,0.15625 0.125,0.1875 0.15625,-0.1875 -0.03125,-0.15625 -0.0625,0 z m 9.4375,0.25 -0.09375,0.0937 0.0625,0.125 0.125,0.0313 0.03125,-0.25 -0.125,0 z m -8.65625,0.15625 -0.8125,0.0313 0.25,0.96875 0,0.3125 -0.375,0.40625 -0.0625,0.6875 1.46875,0 0.46875,0.1875 0.40625,-0.0625 -0.21875,-0.28125 0,-0.84375 0.4375,-0.0313 0,-0.3125 -0.375,0 -0.0625,-0.78125 -0.15625,0 -0.09375,-0.0625 -0.09375,0 -0.09375,0.25 -0.46875,0 -0.125,-0.125 0.03125,-0.15625 -0.125,-0.1875 z m 19.5625,0.125 -0.21875,0.15625 0.0625,0.125 0.65625,0.15625 0.34375,0.0625 0.15625,0.15625 0.375,0.0313 0.1875,0.15625 0.15625,-0.0625 0.15625,-0.125 -0.28125,-0.125 -0.21875,-0.2188 -0.65625,-0.15625 -0.71875,-0.15625 z m -11.625,0.0313 -0.03125,0.0937 0.125,0.0937 0.09375,-0.0937 -0.1875,-0.0937 z m 21.21875,0.0625 -0.28125,0.0625 0.03125,0.15625 0.25,-0.0313 0,-0.1875 z m -26.0625,0.28125 -0.34375,0.0313 -0.15625,0.375 0,0.15625 0.40625,0.1875 0.03125,0.40625 -0.34375,0.03115 -0.09375,-0.125 -0.9375,-0.40625 -0.03125,0.3125 -0.4375,0 0,0.71875 0.21875,0.3125 0.375,0.0313 0.15625,0.0937 0.375,0 0.34375,-0.5 0.96875,-0.40625 0.09375,-0.375 -0.125,-0.5625 -0.5,-0.28125 z m 18.96875,0.21875 0.03125,0.15625 0.15625,0.0625 0.09375,-0.0937 -0.09375,-0.125 -0.1875,0 z m -0.28125,0.0937 -0.1875,0.0937 0.09375,0.0937 0.25,-0.0937 -0.15625,-0.0937 z m 0.84375,0 -0.09375,0.0625 -0.03125,0.0937 0.34375,0.0313 0.25,-0.15625 -0.15625,-0.0313 -0.21875,0.0625 -0.09375,-0.0625 z m 1.03125,0.0937 -0.40625,0.34375 0.03125,0.0937 0.1875,-0.0313 0.1875,-0.1875 0.375,-0.0625 -0.0625,-0.125 -0.3125,-0.0313 z m -17.625,0.21875 0.03125,0.125 0.15625,0.0313 0.0625,-0.15625 -0.25,0 z m 16.4375,0 -0.21875,0.0313 0.21875,0.15625 0.125,0 -0.125,-0.1875 z m -15.3125,0.125 -0.15625,0.40625 -0.28125,0.5 -0.5,0.0313 -0.1875,0.25 0.03125,0.75 -0.3125,0.375 0.03125,0.59375 0.25,0.28125 0.3125,-0.0313 0.3125,-0.21875 -0.0625,-0.34375 0.6875,-1.21875 -0.125,-0.15625 0.125,-0.3125 0.15625,0.0625 0.0625,-0.125 -0.15625,-0.59375 -0.09375,-0.25 -0.09375,0 z m -0.6875,0.0937 -0.21875,0.0313 0.0625,0.125 0.09375,0 0.0625,-0.15625 z m 18.875,0.5625 -0.78125,0.21875 -0.21875,0.625 -0.34375,0.0937 -0.03125,-0.4375 -1.46875,0.875 0.03125,0.3125 -0.21875,0.3125 -0.53125,0 -1.1875,0.5 -0.40625,1.0939 -0.03125,1.96875 -0.3125,0.21875 0,0.1875 0.40625,0.28125 1,-0.1875 0.53125,0 0.1875,-0.28125 1.15625,-0.21875 0.8125,0.25 -0.0625,0.3125 0.125,0.34375 0.625,-0.125 0.03125,0.1875 -0.4375,0.28125 0.15625,0.125 0.28125,-0.125 -0.0625,0.9375 0.5625,0.4375 0.34375,-0.125 0.15625,0.15625 0.96875,-0.125 0.875,-1.46875 0.34375,-0.0625 0.65625,-1.21875 0.15625,-1.0625 -0.40625,-0.5 0.15625,-0.125 -0.3125,-1.03125 -0.375,-0.25 0.0625,-1.375 -0.3125,-0.25 -0.09375,-0.75 -0.15625,0 -0.5625,1.8125 -0.28125,0.0313 -0.6875,-0.6875 0.375,-1.03125 -0.71875,-0.125 z m -22.40625,0.1876 -0.21875,0.09375 -0.34375,0.46875 -0.4375,0 0,0.0937 0.71875,0.78125 0.53125,0.1563 0.34375,-0.5625 -0.03125,-0.75 -0.5625,-0.28125 z m -3.96875,0.375 0.0625,0.40625 0.46875,0.6875 -0.09375,0.375 0,0.1875 0.375,0.90625 0.25,0.0313 0.15625,0.15625 0.375,0 0.09375,-1.03125 0,-0.65625 0.21875,-0.0313 0.09375,-0.71875 0.59375,0 0.1875,-0.1875 -0.34375,0 -0.46875,0.0625 -0.53125,-0.1875 -1.4375,0 z m 2.84375,0.15625 -0.21875,0.1875 -0.5625,0.0313 -0.09375,0.6875 -0.21875,0.0625 0,0.625 0.15625,0.0625 -0.03125,0.46875 0.1875,0.0313 0.375,-0.375 0.46875,0.0625 0.125,-0.3125 0.59375,-0.5625 -0.71875,-0.8125 0,-0.125 -0.0625,-0.0313 z m 6.9375,0.65625 -0.09375,0.15625 0,0.15625 0.25,-0.1875 -0.15625,-0.125 z m -0.40625,0.25 -0.1875,0.0313 0,0.125 0.09375,0.0313 0.1875,-0.0625 -0.09375,-0.125 z m -5.65625,0.09375 -0.625,0.5625 -0.125,0.34375 -0.5,-0.0625 -0.40625,0.375 -0.25,-0.0313 0.03125,-0.5 -0.09375,-0.0313 -0.09375,1 -0.46875,0 -0.125,-0.15625 -0.21875,0 0.1875,0.53125 0.34375,0.34375 -0.25,0.28125 0.15625,0.34375 0.375,0.125 0.28125,-0.25 0.84375,0.0313 0.0625,-0.0937 0.34375,-0.0625 1.25,-1.25 0,-0.375 -0.125,0.1875 -0.1875,0 -0.25,-0.21875 0.125,-0.3125 0.21875,-0.03125 -0.03125,-0.625 -0.46875,-0.125 z m 0.5,0.8125 -0.1875,0.0313 -0.0625,0.21875 0.125,0.125 0.1875,0 0.15625,-0.21875 -0.21875,-0.1563 z m -0.78125,0.625 0.09375,0 0.1875,0.1875 0,0.25 -0.21875,0.0937 0,0.0937 -0.34375,0 -0.125,-0.25 0.125,-0.1875 0.28125,-0.1875 z m 0,0.0625 -0.25,0.1875 -0.0625,0.125 0.0625,0.15625 0.25,0.0313 0,-0.0625 0.21875,-0.0937 0.03125,-0.15625 -0.15625,-0.1875 -0.09375,0 z m 22.75,5.65625 -0.125,0.53125 0.03125,0.40625 0.40625,-0.0313 0.46875,-0.71875 -0.78125,-0.1875 z m -15.65625,0.25 0,0.34375 0.46875,0.0937 0.09375,-0.2812 -0.15625,0.0625 -0.21875,0.0313 -0.0625,-0.25 -0.125,0 z m 19.65625,1.96875 -0.3125,0.125 0.0625,0.21875 0.25,0.125 0,-0.46875 z"
       id="kalimantan"
       style="opacity:0.10000001;fill:#000000;fill-opacity:1" />
    <rect
       style="opacity:0.5;fill:none;stroke:url(#linearGradient3114);stroke-width:1;stroke-linecap:round;stroke-linejoin:round;stroke-miterlimit:4;stroke-opacity:1;stroke-dasharray:none;stroke-dashoffset:0"
       id="rect6741-2"
       y="6.5"
       x="5.499999"
       ry="1"
       rx="1"
       height="37"
       width="37"
       mask="none"
       clip-path="none" />
    <path
       style="fill:url(#linearGradient4149);fill-opacity:1;fill-rule:nonzero;stroke:url(#linearGradient3862);stroke-opacity:1"
       d="m 19.5,14.5 0,2 -2,0 0,2 -4,0 c -0.554,0 -1,0.446 -1,1 l 0,15 c 0,0.554 0.446,1 1,1 l 21,0 c 0.554,0 1,-0.446 1,-1 l 0,-15 c 0,-0.554 -0.446,-1 -1,-1 l -4.1,0 0,-2 -1.9,0 0,-2 z"
       id="rect4136"
       inkscape:connector-curvature="0"
       sodipodi:nodetypes="ccccssssssssccccc" />
    <rect
       style="fill:url(#linearGradient4134);fill-opacity:1;fill-rule:nonzero;stroke:none"
       id="rect3842"
       width="2"
       height="6"
       x="17"
       y="27" />
    <rect
       y="27"
       x="20"
       height="6"
       width="2"
       id="rect4088"
       style="fill:url(#linearGradient4131);fill-opacity:1;fill-rule:nonzero;stroke:none" />
    <rect
       style="fill:url(#linearGradient4128);fill-opacity:1;fill-rule:nonzero;stroke:none"
       id="rect4092"
       width="2"
       height="6"
       x="23"
       y="27" />
    <rect
       y="27"
       x="26"
       height="6"
       width="2"
       id="rect4096"
       style="fill:url(#linearGradient4125);fill-opacity:1;fill-rule:nonzero;stroke:none" />
    <rect
       style="fill:url(#linearGradient4122);fill-opacity:1;fill-rule:nonzero;stroke:none"
       id="rect4100"
       width="2"
       height="6"
       x="29"
       y="27" />
  </g>
</svg>
