<?xml version="1.0" encoding="UTF-8" standalone="no"?>
<!-- Created with Inkscape (http://www.inkscape.org/) -->

<svg
   xmlns:i="http://ns.adobe.com/AdobeIllustrator/10.0/"
   xmlns:dc="http://purl.org/dc/elements/1.1/"
   xmlns:cc="http://creativecommons.org/ns#"
   xmlns:rdf="http://www.w3.org/1999/02/22-rdf-syntax-ns#"
   xmlns:svg="http://www.w3.org/2000/svg"
   xmlns="http://www.w3.org/2000/svg"
   xmlns:xlink="http://www.w3.org/1999/xlink"
   xmlns:sodipodi="http://sodipodi.sourceforge.net/DTD/sodipodi-0.dtd"
   xmlns:inkscape="http://www.inkscape.org/namespaces/inkscape"
   version="1.1"
   width="48"
   height="48"
   id="svg3321"
   inkscape:version="0.48.1 r9760"
   sodipodi:docname="synaptic-temp.svg">
  <sodipodi:namedview
     pagecolor="#ffffff"
     bordercolor="#666666"
     borderopacity="1"
     objecttolerance="10"
     gridtolerance="10"
     guidetolerance="10"
     inkscape:pageopacity="0"
     inkscape:pageshadow="2"
     inkscape:window-width="1230"
     inkscape:window-height="776"
     id="namedview150"
     showgrid="false"
     inkscape:zoom="9.0156116"
     inkscape:cx="33.162424"
     inkscape:cy="1.6338752"
     inkscape:window-x="50"
     inkscape:window-y="24"
     inkscape:window-maximized="1"
     inkscape:current-layer="svg3321" />
  <defs
     id="defs3323"><linearGradient
   id="linearGradient3946">
  <stop
     style="stop-color:#ffffff;stop-opacity:1;"
     offset="0"
     id="stop3948" />
  <stop
     id="stop3962"
     offset="0.08782941"
     style="stop-color:#ffffff;stop-opacity:0.19607843;" />
  <stop
     id="stop3960"
     offset="0.24657717"
     style="stop-color:#ffffff;stop-opacity:0.74509805;" />
  <stop
     id="stop3958"
     offset="0.38731977"
     style="stop-color:#ffffff;stop-opacity:0.19607843;" />
  <stop
     id="stop3956"
     offset="0.64235848"
     style="stop-color:#ffffff;stop-opacity:0.66666669;" />
  <stop
     id="stop3954"
     offset="0.87238926"
     style="stop-color:#ffffff;stop-opacity:0.19607843;" />
  <stop
     style="stop-color:#ffffff;stop-opacity:1;"
     offset="1"
     id="stop3950" />
</linearGradient>
<linearGradient
   x1="30"
   y1="33"
   x2="30"
   y2="15"
   id="linearGradient25695"
   xlink:href="#linearGradient25689"
   gradientUnits="userSpaceOnUse" />
<linearGradient
   id="linearGradient25689">
  <stop
     id="stop25691"
     style="stop-color:#cccccc;stop-opacity:1"
     offset="0" />
  <stop
     id="stop25693"
     style="stop-color:#ffffff;stop-opacity:1"
     offset="1" />
</linearGradient>
<linearGradient
   x1="30"
   y1="33"
   x2="30"
   y2="15"
   id="linearGradient3255"
   xlink:href="#linearGradient25689"
   gradientUnits="userSpaceOnUse" />
<linearGradient
   id="linearGradient3257">
  <stop
     id="stop3259"
     style="stop-color:#cccccc;stop-opacity:1"
     offset="0" />
  <stop
     id="stop3261"
     style="stop-color:#ffffff;stop-opacity:1"
     offset="1" />
</linearGradient>
<linearGradient
   x1="23.99999"
   y1="4.999989"
   x2="23.99999"
   y2="43"
   id="linearGradient3114"
   xlink:href="#linearGradient3924"
   gradientUnits="userSpaceOnUse"
   gradientTransform="translate(2.8e-6,0.96748162)" />
<linearGradient
   id="linearGradient3924">
  <stop
     id="stop3926"
     style="stop-color:#ffffff;stop-opacity:1"
     offset="0" />
  <stop
     id="stop3928"
     style="stop-color:#ffffff;stop-opacity:0.23529412"
     offset="0.06316455" />
  <stop
     id="stop3930"
     style="stop-color:#ffffff;stop-opacity:0.15686275"
     offset="0.95056331" />
  <stop
     id="stop3932"
     style="stop-color:#ffffff;stop-opacity:0.39215687"
     offset="1" />
</linearGradient>
<radialGradient
   cx="7.4956832"
   cy="8.4497671"
   r="19.99999"
   fx="7.4956832"
   fy="8.4497671"
   id="radialGradient3117"
   xlink:href="#linearGradient2867-449-88-871-390-598-476-591-434-148-57-177-3-8"
   gradientUnits="userSpaceOnUse"
   gradientTransform="matrix(1.9428467e-8,2.33699,-2.4722567,-4.3056275e-8,44.890102,-11.467327)" />
<linearGradient
   id="linearGradient3242-187-536">
  <stop
     id="stop2778"
     style="stop-color:#8badea;stop-opacity:1"
     offset="0" />
  <stop
     id="stop2780"
     style="stop-color:#6396cd;stop-opacity:1"
     offset="0.26238" />
  <stop
     id="stop2782"
     style="stop-color:#3b7caf;stop-opacity:1"
     offset="0.66093999" />
  <stop
     id="stop2784"
     style="stop-color:#194c70;stop-opacity:1"
     offset="1" />
</linearGradient>
<linearGradient
   x1="24"
   y1="44"
   x2="24"
   y2="3.8990016"
   id="linearGradient3119"
   xlink:href="#linearGradient3707-319-631-407-324-3-8"
   gradientUnits="userSpaceOnUse"
   gradientTransform="translate(-2e-7,0.96747162)" />
<linearGradient
   id="linearGradient2490-182-124">
  <stop
     id="stop2788"
     style="stop-color:#1f4b6a;stop-opacity:1"
     offset="0" />
  <stop
     id="stop2790"
     style="stop-color:#4083c2;stop-opacity:1"
     offset="1" />
</linearGradient>
<radialGradient
   cx="4.9929786"
   cy="43.5"
   r="2.5"
   fx="4.9929786"
   fy="43.5"
   id="radialGradient2873-966-168"
   xlink:href="#linearGradient3688-166-749"
   gradientUnits="userSpaceOnUse"
   gradientTransform="matrix(2.003784,0,0,1.4,27.98813,-17.4)" />
<linearGradient
   id="linearGradient3688-166-749">
  <stop
     id="stop2883"
     style="stop-color:#181818;stop-opacity:1"
     offset="0" />
  <stop
     id="stop2885"
     style="stop-color:#181818;stop-opacity:0"
     offset="1" />
</linearGradient>
<radialGradient
   cx="4.9929786"
   cy="43.5"
   r="2.5"
   fx="4.9929786"
   fy="43.5"
   id="radialGradient2875-742-326"
   xlink:href="#linearGradient3688-464-309"
   gradientUnits="userSpaceOnUse"
   gradientTransform="matrix(2.003784,0,0,1.4,-20.01187,-104.4)" />
<linearGradient
   id="linearGradient3688-464-309">
  <stop
     id="stop2889"
     style="stop-color:#181818;stop-opacity:1"
     offset="0" />
  <stop
     id="stop2891"
     style="stop-color:#181818;stop-opacity:0"
     offset="1" />
</linearGradient>
<linearGradient
   x1="25.058096"
   y1="47.027729"
   x2="25.058096"
   y2="39.999443"
   id="linearGradient2877-634-617"
   xlink:href="#linearGradient3702-501-757"
   gradientUnits="userSpaceOnUse" />
<linearGradient
   id="linearGradient3702-501-757">
  <stop
     id="stop2895"
     style="stop-color:#181818;stop-opacity:0"
     offset="0" />
  <stop
     id="stop2897"
     style="stop-color:#181818;stop-opacity:1"
     offset="0.5" />
  <stop
     id="stop2899"
     style="stop-color:#181818;stop-opacity:0"
     offset="1" />
</linearGradient>
<linearGradient
   x1="30"
   y1="33"
   x2="30"
   y2="15"
   id="linearGradient9507"
   xlink:href="#linearGradient25689"
   gradientUnits="userSpaceOnUse" />
<linearGradient
   x1="30"
   y1="33"
   x2="30"
   y2="15"
   id="linearGradient9514"
   xlink:href="#linearGradient25689"
   gradientUnits="userSpaceOnUse" />
<linearGradient
   id="linearGradient3702-501-757-8">
  <stop
     id="stop2895-4"
     style="stop-color:#181818;stop-opacity:0"
     offset="0" />
  <stop
     id="stop2897-8"
     style="stop-color:#181818;stop-opacity:1"
     offset="0.5" />
  <stop
     id="stop2899-8"
     style="stop-color:#181818;stop-opacity:0"
     offset="1" />
</linearGradient>
<linearGradient
   id="linearGradient3688-464-309-6">
  <stop
     id="stop2889-5"
     style="stop-color:#181818;stop-opacity:1"
     offset="0" />
  <stop
     id="stop2891-6"
     style="stop-color:#181818;stop-opacity:0"
     offset="1" />
</linearGradient>
<linearGradient
   id="linearGradient3688-166-749-8">
  <stop
     id="stop2883-4"
     style="stop-color:#181818;stop-opacity:1"
     offset="0" />
  <stop
     id="stop2885-5"
     style="stop-color:#181818;stop-opacity:0"
     offset="1" />
</linearGradient>
<linearGradient
   id="linearGradient3390-178-986-453-3">
  <stop
     id="stop3624-6"
     style="stop-color:#ba4712;stop-opacity:1"
     offset="0" />
  <stop
     id="stop3856-8"
     style="stop-color:#cf671c;stop-opacity:1"
     offset="0.5" />
  <stop
     id="stop3626-0"
     style="stop-color:#e27f39;stop-opacity:1"
     offset="1" />
</linearGradient>
<linearGradient
   id="linearGradient7012-661-145-733-759-865-745-661-970-94-8">
  <stop
     id="stop3618-1"
     style="stop-color:#f0c178;stop-opacity:1"
     offset="0" />
  <stop
     id="stop3270-2"
     style="stop-color:#e18941;stop-opacity:1"
     offset="0.5" />
  <stop
     id="stop3620-8"
     style="stop-color:#ec4f18;stop-opacity:1"
     offset="1" />
</linearGradient>
<linearGradient
   id="linearGradient3390-178-986-453-3-9-9-4">
  <stop
     id="stop3624-6-9-7-3"
     style="stop-color:#ba4712;stop-opacity:1"
     offset="0" />
  <stop
     id="stop3856-8-7-9-7"
     style="stop-color:#cf671c;stop-opacity:1"
     offset="0.5" />
  <stop
     id="stop3626-0-8-7-8"
     style="stop-color:#e27f39;stop-opacity:1"
     offset="1" />
</linearGradient>
<linearGradient
   id="linearGradient3390-178-986-453-3-9-9">
  <stop
     id="stop3624-6-9-7"
     style="stop-color:#ba4712;stop-opacity:1"
     offset="0" />
  <stop
     id="stop3856-8-7-9"
     style="stop-color:#cf671c;stop-opacity:1"
     offset="0.5" />
  <stop
     id="stop3626-0-8-7"
     style="stop-color:#e27f39;stop-opacity:1"
     offset="1" />
</linearGradient>
<linearGradient
   id="linearGradient3390-178-986-453-3-9">
  <stop
     id="stop3624-6-9"
     style="stop-color:#ba4712;stop-opacity:1"
     offset="0" />
  <stop
     id="stop3856-8-7"
     style="stop-color:#cf671c;stop-opacity:1"
     offset="0.5" />
  <stop
     id="stop3626-0-8"
     style="stop-color:#e27f39;stop-opacity:1"
     offset="1" />
</linearGradient>
<linearGradient
   id="linearGradient3924-2">
  <stop
     id="stop3926-7"
     style="stop-color:#ffffff;stop-opacity:1"
     offset="0" />
  <stop
     id="stop3928-1"
     style="stop-color:#ffffff;stop-opacity:0.23529412"
     offset="0.06316455" />
  <stop
     id="stop3930-5"
     style="stop-color:#ffffff;stop-opacity:0.15686275"
     offset="0.95056331" />
  <stop
     id="stop3932-8"
     style="stop-color:#ffffff;stop-opacity:0.39215687"
     offset="1" />
</linearGradient>
<radialGradient
   cx="62.625"
   cy="4.625"
   r="10.625"
   fx="62.625"
   fy="4.625"
   id="radialGradient3765"
   xlink:href="#linearGradient8838"
   gradientUnits="userSpaceOnUse"
   gradientTransform="matrix(2.1647059,0,0,0.7529402,-111.56471,36.517647)" />
<linearGradient
   id="linearGradient8838">
  <stop
     id="stop8840"
     style="stop-color:#000000;stop-opacity:1"
     offset="0" />
  <stop
     id="stop8842"
     style="stop-color:#000000;stop-opacity:0"
     offset="1" />
</linearGradient>
<linearGradient
   id="linearGradient3707">
  <stop
     id="stop3709"
     style="stop-color:#4c2a4e;stop-opacity:1"
     offset="0" />
  <stop
     id="stop3711"
     style="stop-color:#a85394;stop-opacity:1"
     offset="1" />
</linearGradient>
<linearGradient
   x1="18.138792"
   y1="45.21809"
   x2="18.138792"
   y2="2.9999995"
   id="linearGradient2941"
   xlink:href="#linearGradient3707"
   gradientUnits="userSpaceOnUse" />
<linearGradient
   id="linearGradient3671">
  <stop
     id="stop3673"
     style="stop-color:#e384c6;stop-opacity:1"
     offset="0" />
  <stop
     id="stop3675"
     style="stop-color:#c467be;stop-opacity:1"
     offset="0.26238" />
  <stop
     id="stop3677"
     style="stop-color:#93399a;stop-opacity:1"
     offset="0.704952" />
  <stop
     id="stop3679"
     style="stop-color:#48274f;stop-opacity:1"
     offset="1" />
</linearGradient>
<radialGradient
   cx="20.248743"
   cy="4.9115634"
   r="23"
   fx="20.248743"
   fy="4.9115634"
   id="radialGradient2939"
   xlink:href="#linearGradient3671"
   gradientUnits="userSpaceOnUse"
   gradientTransform="matrix(0,1.7703635,-1.4881952,0,30.166509,-32.859046)" />
<linearGradient
   id="linearGradient4593">
  <stop
     id="stop12409"
     style="stop-color:#ffffff;stop-opacity:0.70200002"
     offset="0" />
  <stop
     id="stop12411"
     style="stop-color:#ffffff;stop-opacity:0"
     offset="1" />
</linearGradient>
<radialGradient
   cx="24.016491"
   cy="2.2461414"
   r="21.995602"
   fx="24.016491"
   fy="2.2461414"
   id="radialGradient2936"
   xlink:href="#linearGradient4593"
   gradientUnits="userSpaceOnUse"
   gradientTransform="matrix(-1.4868718e-8,1.4132436,-1.2268499,-1.2907672e-8,26.77217,-29.044021)" />
<linearGradient
   id="linearGradient3718">
  <stop
     id="stop3720"
     style="stop-color:#f49ff4;stop-opacity:1"
     offset="0" />
  <stop
     id="stop3722"
     style="stop-color:#9c4694;stop-opacity:0"
     offset="1" />
</linearGradient>
<radialGradient
   cx="90.746872"
   cy="32.164093"
   r="23"
   fx="90.746872"
   fy="32.164093"
   id="radialGradient2917"
   xlink:href="#linearGradient3718"
   gradientUnits="userSpaceOnUse"
   gradientTransform="matrix(0.32729625,-0.22730582,0.12062179,0.17368257,-25.12377,54.473017)" />
<linearGradient
   x1="30"
   y1="34"
   x2="30"
   y2="16"
   id="linearGradient6645"
   xlink:href="#linearGradient25689"
   gradientUnits="userSpaceOnUse"
   gradientTransform="translate(0,1)" />
<radialGradient
   cx="62.625"
   cy="4.625"
   r="10.625"
   fx="62.625"
   fy="4.625"
   id="radialGradient4001"
   xlink:href="#linearGradient8838-561-565"
   gradientUnits="userSpaceOnUse"
   gradientTransform="matrix(2.1647059,0,0,0.7529402,-111.56471,36.517647)" />
<linearGradient
   id="linearGradient8838-561-565">
  <stop
     id="stop4621"
     style="stop-color:#0a0a0a;stop-opacity:1"
     offset="0" />
  <stop
     id="stop4623"
     style="stop-color:#0a0a0a;stop-opacity:0"
     offset="1" />
</linearGradient>
<linearGradient
   x1="18.138792"
   y1="45.21809"
   x2="18.138792"
   y2="2.9999995"
   id="linearGradient2899"
   xlink:href="#linearGradient3707-319-631-407-324-3-8"
   gradientUnits="userSpaceOnUse" />
<linearGradient
   id="linearGradient2867-449-88-871-390-598-476-591-434-148-57-177-3-8">
  <stop
     id="stop3750-8-9"
     style="stop-color:#dcad51;stop-opacity:1;"
     offset="0" />
  <stop
     id="stop3756-9-3"
     style="stop-color:#996404;stop-opacity:1;"
     offset="1" />
</linearGradient>
<radialGradient
   cx="20.248743"
   cy="4.9115634"
   r="23"
   fx="20.248743"
   fy="4.9115634"
   id="radialGradient2897"
   xlink:href="#linearGradient2867-449-88-871-390-598-476-591-434-148-57-177-3-8"
   gradientUnits="userSpaceOnUse"
   gradientTransform="matrix(0,1.7703635,-1.4881952,0,30.166509,-32.859046)" />
<linearGradient
   id="linearGradient3725-941-985">
  <stop
     id="stop4651"
     style="stop-color:#54e1fa;stop-opacity:1"
     offset="0" />
  <stop
     id="stop4653"
     style="stop-color:#05a4dd;stop-opacity:0"
     offset="1" />
</linearGradient>
<radialGradient
   cx="90.746872"
   cy="32.164093"
   r="23"
   fx="90.746872"
   fy="32.164093"
   id="radialGradient2889"
   xlink:href="#linearGradient3725-941-985"
   gradientUnits="userSpaceOnUse"
   gradientTransform="matrix(0.32729625,-0.22730582,0.12062179,0.17368257,-25.123657,54.138634)" />
<linearGradient
   id="linearGradient3882">
  <stop
     id="stop3884"
     style="stop-color:#ffffff;stop-opacity:1"
     offset="0" />
  <stop
     id="stop3886"
     style="stop-color:#ffffff;stop-opacity:0.23529412"
     offset="0.4393521" />
  <stop
     id="stop3888"
     style="stop-color:#ffffff;stop-opacity:0.15686275"
     offset="0.83473867" />
  <stop
     id="stop3890"
     style="stop-color:#ffffff;stop-opacity:0.39215687"
     offset="1" />
</linearGradient>
<linearGradient
   x1="23.184526"
   y1="4.0244036"
   x2="23.184526"
   y2="42.351448"
   id="linearGradient3892"
   xlink:href="#linearGradient3882"
   gradientUnits="userSpaceOnUse" />
<linearGradient
   id="linearGradient3707-319-631-407-324-3-8">
  <stop
     id="stop3760-7-3"
     style="stop-color:#8f5a00;stop-opacity:1;"
     offset="0" />
  <stop
     id="stop3762-8-4"
     style="stop-color:#ad7818;stop-opacity:1;"
     offset="1" />
</linearGradient>
<linearGradient
   x1="25.845604"
   y1="43.546593"
   x2="25.845604"
   y2="2.8090379"
   id="linearGradient3900"
   xlink:href="#linearGradient3707-319-631-407-324-3-8"
   gradientUnits="userSpaceOnUse" />
<linearGradient
   x1="22.642942"
   y1="26.966721"
   x2="22.642942"
   y2="30.98424"
   id="linearGradient3937"
   xlink:href="#linearGradient3922"
   gradientUnits="userSpaceOnUse" />
<linearGradient
   id="linearGradient3922">
  <stop
     id="stop3924"
     style="stop-color:#000000;stop-opacity:1"
     offset="0" />
  <stop
     id="stop3926-5"
     style="stop-color:#000000;stop-opacity:0"
     offset="1" />
</linearGradient>
<linearGradient
   x1="22.642942"
   y1="26.966721"
   x2="22.642942"
   y2="30.98424"
   id="linearGradient3939"
   xlink:href="#linearGradient3922"
   gradientUnits="userSpaceOnUse" />
<linearGradient
   x1="22.642942"
   y1="26.966721"
   x2="22.642942"
   y2="30.98424"
   id="linearGradient6916"
   xlink:href="#linearGradient3922"
   gradientUnits="userSpaceOnUse"
   gradientTransform="translate(59.625,-4.336579)" />
<linearGradient
   x1="22.642942"
   y1="26.966721"
   x2="22.642942"
   y2="30.98424"
   id="linearGradient6919"
   xlink:href="#linearGradient3922"
   gradientUnits="userSpaceOnUse"
   gradientTransform="translate(59.625,-4.336579)" />
<linearGradient
   x1="25.845604"
   y1="43.546593"
   x2="25.845604"
   y2="2.8090379"
   id="linearGradient6923"
   xlink:href="#linearGradient3707-319-631-407-324-3-8"
   gradientUnits="userSpaceOnUse"
   gradientTransform="translate(59.625,-4.336579)" />
<linearGradient
   x1="23.184526"
   y1="4.0244036"
   x2="23.184526"
   y2="42.351448"
   id="linearGradient6926"
   xlink:href="#linearGradient3882"
   gradientUnits="userSpaceOnUse"
   gradientTransform="translate(59.625,-4.336579)" />
<radialGradient
   cx="90.746872"
   cy="32.164093"
   r="23"
   fx="90.746872"
   fy="32.164093"
   id="radialGradient6929"
   xlink:href="#linearGradient3725-941-985"
   gradientUnits="userSpaceOnUse"
   gradientTransform="matrix(0.32729625,-0.22730582,0.12062179,0.17368257,34.501343,49.802055)" />
<radialGradient
   cx="20.248743"
   cy="4.9115634"
   r="23"
   fx="20.248743"
   fy="4.9115634"
   id="radialGradient6932"
   xlink:href="#linearGradient2867-449-88-871-390-598-476-591-434-148-57-177-3-8"
   gradientUnits="userSpaceOnUse"
   gradientTransform="matrix(0,1.7703635,-1.4881952,0,89.791509,-37.195625)" />
<linearGradient
   x1="18.138792"
   y1="45.21809"
   x2="18.138792"
   y2="2.9999995"
   id="linearGradient6934"
   xlink:href="#linearGradient3707-319-631-407-324-3-8"
   gradientUnits="userSpaceOnUse"
   gradientTransform="translate(59.625,-4.336579)" />
<radialGradient
   cx="62.625"
   cy="4.625"
   r="10.625"
   fx="62.625"
   fy="4.625"
   id="radialGradient6937"
   xlink:href="#linearGradient8838-561-565"
   gradientUnits="userSpaceOnUse"
   gradientTransform="matrix(2.1647059,0,0,0.7529402,-51.93971,32.181068)" />
<linearGradient
   gradientUnits="userSpaceOnUse"
   xlink:href="#linearGradient3217"
   id="linearGradient3223"
   y2="41.190689"
   x2="27.150684"
   y1="6.7602739"
   x1="27.150684" />
<linearGradient
   id="linearGradient3217">
  <stop
     offset="0"
     style="stop-color:#ffffff;stop-opacity:1"
     id="stop3219" />
  <stop
     offset="1"
     style="stop-color:#ffffff;stop-opacity:0"
     id="stop3221" />
</linearGradient>
<linearGradient
   gradientUnits="userSpaceOnUse"
   xlink:href="#linearGradient3908"
   id="linearGradient3183"
   y2="47.814724"
   x2="23.5"
   y1="7.9999995"
   x1="23.5" />
<linearGradient
   id="linearGradient3908">
  <stop
     offset="0"
     style="stop-color:#8badea;stop-opacity:1"
     id="stop3910" />
  <stop
     offset="0.2261835"
     style="stop-color:#6396cd;stop-opacity:1"
     id="stop3912" />
  <stop
     offset="0.66093999"
     style="stop-color:#3b7caf;stop-opacity:1"
     id="stop3914" />
  <stop
     offset="1"
     style="stop-color:#194c70;stop-opacity:1"
     id="stop3916" />
</linearGradient>
<linearGradient
   gradientUnits="userSpaceOnUse"
   xlink:href="#linearGradient2490-182-124-8"
   id="linearGradient3205"
   y2="7"
   x2="26"
   y1="41.014702"
   x1="26" />
<linearGradient
   id="linearGradient2490-182-124-8">
  <stop
     offset="0"
     style="stop-color:#1f4b6a;stop-opacity:1"
     id="stop2788-8" />
  <stop
     offset="1"
     style="stop-color:#4083c2;stop-opacity:1"
     id="stop2790-4" />
</linearGradient>
<linearGradient
   inkscape:collect="always"
   xlink:href="#linearGradient3217"
   id="linearGradient3314"
   gradientUnits="userSpaceOnUse"
   x1="27.150684"
   y1="6.7602739"
   x2="27.150684"
   y2="41.190689"
   gradientTransform="translate(32.60607,-1.7743942)" />
<linearGradient
   inkscape:collect="always"
   xlink:href="#linearGradient2490-182-124-8"
   id="linearGradient3320"
   gradientUnits="userSpaceOnUse"
   x1="26"
   y1="41.014702"
   x2="26"
   y2="7"
   gradientTransform="translate(32.60607,-1.7743942)" />
<linearGradient
   inkscape:collect="always"
   xlink:href="#linearGradient25689"
   id="linearGradient3323"
   gradientUnits="userSpaceOnUse"
   gradientTransform="translate(0,1)"
   x1="30"
   y1="34"
   x2="30"
   y2="16" />
<linearGradient
   inkscape:collect="always"
   xlink:href="#linearGradient3924"
   id="linearGradient3327"
   gradientUnits="userSpaceOnUse"
   gradientTransform="translate(2.8e-6,1.00001)"
   x1="23.99999"
   y1="4.999989"
   x2="23.99999"
   y2="43" />
<radialGradient
   inkscape:collect="always"
   xlink:href="#linearGradient2867-449-88-871-390-598-476-591-434-148-57-177-3-8"
   id="radialGradient3330"
   gradientUnits="userSpaceOnUse"
   gradientTransform="matrix(1.9428467e-8,2.33699,-2.4722567,-4.3056275e-8,44.890102,-11.434799)"
   cx="7.4956832"
   cy="8.4497671"
   fx="7.4956832"
   fy="8.4497671"
   r="19.99999" />
<linearGradient
   inkscape:collect="always"
   xlink:href="#linearGradient3707-319-631-407-324-3-8"
   id="linearGradient3332"
   gradientUnits="userSpaceOnUse"
   gradientTransform="translate(-2e-7,1)"
   x1="24"
   y1="44"
   x2="24"
   y2="3.8990016" />
<radialGradient
   inkscape:collect="always"
   xlink:href="#linearGradient2867-449-88-871-390-598-476-591-434-148-57-177-3-8"
   id="radialGradient3170"
   gradientUnits="userSpaceOnUse"
   gradientTransform="matrix(4.8798587e-8,2.33699,-2.0063979,0,40.953703,3.5652006)"
   cx="9.1093979"
   cy="8.4497671"
   fx="9.1093979"
   fy="8.4497671"
   r="19.99999" />
<linearGradient
   inkscape:collect="always"
   xlink:href="#linearGradient3924"
   id="linearGradient3176"
   gradientUnits="userSpaceOnUse"
   gradientTransform="translate(2.8e-6,16.00001)"
   x1="23.99999"
   y1="4.999989"
   x2="23.99999"
   y2="27.860672" />
<linearGradient
   inkscape:collect="always"
   xlink:href="#linearGradient3946"
   id="linearGradient3952"
   x1="18.110918"
   y1="6.1277628"
   x2="29.778162"
   y2="25.760374"
   gradientUnits="userSpaceOnUse" />

		
	
			
			
			
			
			
			
			
			
			
			
			
			
		</defs>
  <metadata
     id="metadata3326">
    <rdf:RDF>
      <cc:Work
         rdf:about="">
        <dc:format>image/svg+xml</dc:format>
        <dc:type
           rdf:resource="http://purl.org/dc/dcmitype/StillImage" />
        <dc:title></dc:title>
      </cc:Work>
    </rdf:RDF>
  </metadata>
  <g
     style="display:inline"
     id="g2036"
     transform="matrix(1.1,0,0,0.4444449,-2.4000022,25.111102)">
    <g
       style="opacity:0.4"
       id="g3712"
       transform="matrix(1.052632,0,0,1.285713,-1.263158,-13.42854)">
      <rect
         style="fill:url(#radialGradient2873-966-168);fill-opacity:1;stroke:none"
         id="rect2801"
         y="40"
         x="38"
         height="7"
         width="5" />
      <rect
         style="fill:url(#radialGradient2875-742-326);fill-opacity:1;stroke:none"
         id="rect3696"
         transform="scale(-1,-1)"
         y="-47"
         x="-10"
         height="7"
         width="5" />
      <rect
         style="fill:url(#linearGradient2877-634-617);fill-opacity:1;stroke:none"
         id="rect3700"
         y="40"
         x="10"
         height="7.0000005"
         width="28" />
    </g>
  </g>
  <rect
     style="color:#000000;fill:url(#radialGradient3330);fill-opacity:1;fill-rule:nonzero;stroke:url(#linearGradient3332);stroke-width:1;stroke-linecap:round;stroke-linejoin:round;stroke-miterlimit:4;stroke-opacity:1;stroke-dasharray:none;stroke-dashoffset:0;marker:none;visibility:visible;display:inline;overflow:visible;enable-background:accumulate"
     id="rect5505-21"
     y="5.5"
     x="4.499999"
     ry="2"
     rx="2"
     height="39"
     width="39" />
  <rect
     style="opacity:0.5;fill:none;stroke:url(#linearGradient3327);stroke-width:1;stroke-linecap:round;stroke-linejoin:round;stroke-miterlimit:4;stroke-opacity:1;stroke-dasharray:none;stroke-dashoffset:0"
     id="rect6741-2"
     y="6.5"
     x="5.499999"
     ry="1"
     rx="1"
     height="37"
     width="37" />
  <rect
     width="39"
     height="24"
     rx="2"
     ry="2"
     x="4.499999"
     y="20.5"
     id="rect3168"
     style="color:#000000;fill:url(#radialGradient3170);fill-opacity:1;fill-rule:nonzero;stroke:#8f5a00;stroke-width:1;stroke-linecap:round;stroke-linejoin:round;stroke-miterlimit:4;stroke-opacity:1;stroke-dasharray:none;stroke-dashoffset:0;marker:none;visibility:visible;display:inline;overflow:visible;enable-background:accumulate" />
  <path
     style="font-size:medium;font-style:normal;font-variant:normal;font-weight:normal;font-stretch:normal;text-indent:0;text-align:start;text-decoration:none;line-height:normal;letter-spacing:normal;word-spacing:normal;text-transform:none;direction:ltr;block-progression:tb;writing-mode:lr-tb;text-anchor:start;baseline-shift:baseline;color:#000000;fill-opacity:1;fill-rule:nonzero;stroke:#ffffff;stroke-width:1;stroke-opacity:1;marker:none;visibility:visible;display:inline;overflow:visible;enable-background:accumulate;font-family:Sans;-inkscape-font-specification:Sans;opacity:0.20000000000000001;fill:#ffffff"
     d="m 34.453185,26.499917 0.03125,0.0625 c -0.07274,0.01347 -0.143409,0.02362 -0.21875,0.03125 -0.05319,0.0054 -0.101568,-0.0071 -0.15625,0 l 0,0.03125 0,0.1875 c -0.01946,-0.002 -0.0374,0.0039 -0.0625,0 -0.02982,-0.0046 -0.11507,0.0029 -0.15625,0 l -0.0625,-0.1875 c -0.260867,0.01592 -0.492873,0.0688 -0.625,0.09375 0.01667,0.0035 -0.003,0.02446 0.03125,0.03125 0.03427,0.0068 0.08694,0.01607 0.15625,0.0625 -0.05763,0.03187 -0.08825,0.04583 -0.15625,0.09375 l 0.25,0.53125 -0.5625,-0.71875 c -0.404158,0.181072 -1.087451,0.564945 -1.71875,0.9375 l -0.09375,-0.5625 -0.6875,0.84375 c -0.06829,0.08233 -0.39082,0.375636 -0.6875,0.65625 -0.186113,0.176034 -0.291358,0.433373 -0.4375,0.65625 -0.0033,0.005 -0.028,-0.0051 -0.03125,0 l -0.15625,0.0625 -0.125,0.15625 c -0.08159,0.138725 -0.137305,0.274749 -0.1875,0.40625 -0.143589,-0.101524 -0.280972,-0.131723 -0.34375,-0.125 -0.143491,0.01537 -0.138511,0.03418 0,0.03125 0.06925,-0.0015 0.228205,0.02849 0.34375,0.15625 -0.03855,0.104089 -0.08966,0.19338 -0.125,0.28125 l -0.03125,0.03125 -0.21875,-0.03125 -0.125,0.03125 0,-0.03125 -0.375,0 c -2.19e-4,0.01313 -7.36e-4,0.04673 0,0.0625 0.0035,0.03207 0.0119,0.01133 0,0.03125 -0.0015,0.0025 -0.0255,0.02164 -0.03125,0.03125 -0.0029,0.0048 0.0073,0.01771 0,0.03125 -0.0073,0.01354 -0.03103,0.09302 -0.03125,0.09375 -5.5e-5,1.82e-4 -0.03123,0.06236 -0.03125,0.0625 -2.1e-5,1.43e-4 -1.3e-5,0.124896 0,0.125 1.3e-5,1.04e-4 0.0937,0.249935 0.09375,0.25 l 0.125,0.125 c 1.7e-5,1.1e-5 0.03126,0.01563 0.0625,0.03125 -0.02144,0.05157 -0.04241,0.105939 -0.0625,0.15625 l -0.3125,-0.15625 c -0.04513,0.05793 -0.0288,0.123958 -0.0625,0.1875 l -0.03125,0 c -0.01256,0.05864 -0.02248,0.108649 -0.03125,0.15625 -0.02999,0.0866 -0.09302,0.173111 -0.09375,0.25 -0.0017,0.182222 -0.0016,0.169674 0,0.15625 l 0.3125,0.03125 c -0.07686,0.225487 -0.162189,0.440076 -0.21875,0.625 l -0.0625,0.25 0.0625,0.09375 c 0.004,0.0076 0.02886,0.04975 0.03125,0.09375 0.0048,0.088 0.004,0.216677 0,0.375 -0.0078,0.307599 -0.02112,0.687066 0,1.0625 -5.81e-4,0.01054 5.34e-4,0.02071 0,0.03125 -0.185649,3.66264 2.456798,7.116896 5.53125,7.96875 0.0088,0.0024 0.02241,-0.0024 0.03125,0 0.484574,0.166227 1.011187,0.118413 1.46875,0.125 0.02986,4.3e-4 0.06454,0.03071 0.09375,0.03125 0.0378,6.97e-4 0.08842,-0.0011 0.125,0 l 0.125,-0.96875 c -0.333499,-0.09576 -0.523916,-0.129995 -0.6875,-0.15625 -0.154924,-0.02486 -0.286731,-0.04147 -0.53125,-0.125 -0.01092,-0.0052 -0.02115,0.005 -0.03125,0 -0.140403,-0.06971 -0.195022,-0.131581 -0.28125,-0.21875 -0.06399,-0.06469 -0.178478,-0.178184 -0.28125,-0.28125 -0.04568,-0.04581 -0.06701,-0.07446 -0.125,-0.125 l -0.09375,0.09375 c -0.101302,-0.03852 -0.159395,-0.07083 -0.1875,-0.09375 l 0.34375,-0.4375 -0.875,-0.0625 c -0.01678,-0.0085 -0.05514,-0.0283 -0.09375,-0.0625 -0.07722,-0.06838 -0.168066,-0.179703 -0.15625,-0.15625 l -0.15625,-0.28125 -0.25,0 c -0.03782,-0.07145 -0.122135,-0.23869 -0.125,-0.1875 l -0.28125,-0.09375 0.125,-0.0625 c -0.07803,-0.134465 -0.103252,-0.168204 -0.1875,-0.28125 -0.08425,-0.113046 -0.20494,-0.262619 -0.28125,-0.375 -0.07631,-0.112381 -0.120462,-0.248839 -0.09375,-0.15625 0.0067,0.02315 0.02193,0.06721 0,0.1875 -0.02193,0.120286 -0.161866,0.330807 -0.3125,0.375 -0.112975,0.03314 -0.148488,0.01131 -0.1875,0 -0.01879,-0.02399 -0.04396,-0.03826 -0.0625,-0.0625 l 0.28125,-0.40625 0.03125,-0.03125 0.0625,-0.0625 0.125,-0.15625 0.25,0.09375 -0.40625,-1 c -0.146992,-0.366251 -0.2712,-0.573754 -0.4375,-0.75 -0.01979,-0.02097 -0.03963,-0.01305 -0.0625,-0.03125 l -0.4375,-0.6875 c -0.01496,-0.02262 -0.06854,-0.102441 -0.09375,-0.15625 l 0.03125,-0.21875 0.03125,-0.21875 -0.15625,-0.15625 c 0.01743,0.02024 -0.08936,-0.411018 -0.0625,-0.90625 0.0263,-0.484986 0.09269,-1.030292 0.125,-1.46875 6.83e-4,-0.0093 -6.38e-4,-0.02209 0,-0.03125 0.02108,-0.09891 0.289091,-0.453328 0.53125,-1.0625 l 0.09375,-0.28125 c 0.156139,-0.201066 0.282081,-0.386797 0.53125,-0.625 0.185358,-0.1772 0.380021,-0.341597 0.53125,-0.4375 0.113422,-0.07193 0.212696,-0.08846 0.21875,-0.09375 l 0.25,0.03125 0.1875,-0.21875 c 0.03627,-0.04576 0.06869,-0.09015 0.09375,-0.125 0.02506,-0.03485 0.01761,-0.04133 0.0625,-0.15625 0.02857,-0.0137 0.104421,-0.08825 0.125,-0.09375 0.07083,-0.01894 0.244589,-0.01435 0.53125,-0.09375 l 0.0625,-0.03125 0.0625,-0.03125 c 0.06129,-0.03653 0.101653,-0.0517 0.15625,-0.09375 0.0273,-0.02102 0.05875,-0.03086 0.125,-0.125 0.01159,-0.01647 0.01878,-0.03821 0.03125,-0.0625 0.0053,-0.01041 -1.07e-4,-0.03099 0,-0.03125 0.04023,-0.02457 0.160065,-0.04593 0.1875,-0.0625 0.08565,-0.05173 0.261548,-0.0927 0.4375,-0.125 l 0.03125,0.0625 c 0.169046,-0.08305 0.594625,-0.151708 1.0625,-0.125 0.467875,0.02671 0.985973,0.14651 1.34375,0.3125 0.400451,0.187927 0.908243,0.609456 1.28125,1.125 0.373007,0.515544 0.607206,1.100727 0.625,1.625 l 0.03125,0.375 c 0.0049,0.423646 0.03533,0.858802 -0.0625,1.15625 l 0.0625,0.03125 c -0.01106,0.140661 -0.05911,0.302293 -0.125,0.46875 l -0.15625,0.09375 -0.0625,0.125 c -0.05506,0.10737 -0.10188,0.203151 -0.125,0.3125 -0.0069,0.03281 0.0014,0.05821 0,0.09375 l -0.71875,0.5 c -0.07538,0.05199 -0.07237,0.08043 -0.125,0.125 -0.02631,0.02228 -0.04132,0.04307 -0.0625,0.0625 -0.04325,0.03966 -0.132023,0.07023 -0.15625,0.09375 l 0,-0.03125 -0.46875,0.21875 c -0.987418,0.466494 -2.551224,-0.571919 -2.53125,-1.96875 l -0.0625,0 c -0.01226,-0.669468 0.354909,-1.330631 0.9375,-1.59375 0.617148,-0.306802 1.334813,-0.169821 1.75,0.21875 l 0.75,-0.6875 c -0.01619,-0.0213 -0.04522,-0.04125 -0.0625,-0.0625 -0.0071,-0.0066 -0.02411,0.0065 -0.03125,0 -0.41457,-0.50073 -1.104833,-0.974587 -2,-0.9375 -0.01111,4.6e-4 -0.02009,-6.17e-4 -0.03125,0 -0.81583,0.02287 -1.48809,0.464329 -1.875,1.0625 -0.01592,0.01007 -0.01624,0.02076 -0.03125,0.03125 -0.04292,0.06977 -0.122674,0.112996 -0.15625,0.1875 l 0.03125,0 c -0.17981,0.199976 -0.342021,0.417656 -0.40625,0.59375 -0.04411,0.120944 -0.101818,0.221685 -0.125,0.28125 l -0.09375,0.09375 -0.03125,0.1875 c -0.100909,0.744747 0.03544,1.317266 0.25,1.84375 l -0.53125,-0.125 0.21875,0.375 -0.0625,0 -0.03125,0.15625 -0.03125,0.21875 0.125,0.1875 c 0.105711,0.144178 0.249575,0.358493 0.4375,0.5625 0.05277,0.05728 0.05837,0.100606 0.125,0.15625 l 0.25,-0.1875 c 0.108382,0.101843 0.248144,0.207013 0.375,0.3125 0.05964,0.06066 0.08593,0.1309 0.15625,0.1875 l 0.03125,-0.03125 c 0.05398,0.02788 0.05974,0.07155 0.125,0.09375 l 0.03125,-0.03125 c 0.198726,0.126665 0.317138,0.343256 0.53125,0.4375 0.637438,0.280576 1.312812,0.395205 1.9375,0.21875 0.0101,-0.0029 0.02118,0.003 0.03125,0 0.06161,-0.01853 0.127275,-0.006 0.1875,-0.03125 l -0.0625,-0.28125 c 0.677598,-0.09915 1.348437,-0.376336 1.9375,-0.84375 0.01265,-0.0099 0.01886,-0.02119 0.03125,-0.03125 0.162024,-0.131499 0.327115,-0.265842 0.4375,-0.375 0.04456,-0.04406 0.06905,-0.06938 0.09375,-0.09375 -0.02551,0.01326 -0.07855,0.02672 -0.15625,0.03125 l 0,-0.1875 0.1875,0.125 0.125,0.09375 c 0.0054,-0.0088 -0.0052,-0.02262 0,-0.03125 0.04226,-0.07337 0.111005,-0.142401 0.125,-0.28125 0.01057,-0.03424 0.05604,-0.05574 0.0625,-0.09375 0.0051,-0.03026 -5.66e-4,-0.03301 0,-0.0625 l 0.125,-0.1875 0.03125,0.03125 0.4375,0.25 c 0.0047,-0.0088 -0.0046,-0.02242 0,-0.03125 0.229478,-0.439958 0.383353,-0.923917 0.46875,-1.40625 0.0057,-0.03216 0.02621,-0.06151 0.03125,-0.09375 0.0066,-0.04195 0.0258,-0.08294 0.03125,-0.125 l -0.28125,-0.03125 c 0.0021,-0.03052 9.1e-5,-0.06381 0,-0.09375 -5.84e-4,-0.01529 7.02e-4,-0.01776 0,-0.03125 -4.16e-4,-0.02018 0.0015,-0.04151 0,-0.0625 l 0.125,-0.03125 c -0.06002,-0.234673 0.05594,-0.326482 0.15625,-0.78125 l 0.09375,-0.40625 -0.125,-0.0625 -0.03125,-0.15625 0.0625,-0.125 0.3125,-0.0625 c -0.0036,-0.02034 0.0038,-0.04225 0,-0.0625 -0.0085,-0.04582 -0.05293,-0.07965 -0.0625,-0.125 -0.06096,-0.288974 -0.124856,-0.573961 -0.21875,-0.84375 2.73e-4,-0.0397 0.03391,-0.09693 0.03125,-0.125 -0.0066,-0.06969 -0.0242,-0.109948 -0.03125,-0.15625 -0.0026,0.02136 -0.01246,0.01398 -0.03125,0.0625 -0.0089,0.02291 -0.04256,0.06208 -0.0625,0.09375 l -0.0625,0 c -0.01503,-0.03612 -0.01503,-0.05744 -0.03125,-0.09375 l 0.1875,-0.0625 0.125,-0.0625 c -0.0099,-0.03649 -0.05157,-0.05758 -0.0625,-0.09375 -0.01724,-0.03192 -0.01564,-0.06685 -0.03125,-0.09375 -0.0147,-0.04462 -0.04626,-0.08092 -0.0625,-0.125 -0.0072,-0.01016 -0.02299,-0.02044 -0.03125,-0.03125 -0.431821,-1.135214 -1.315418,-2.091479 -2.25,-2.625 -0.03576,-0.02041 -0.05801,-0.07456 -0.09375,-0.09375 l -0.0625,0.0625 -0.0625,-0.15625 -0.1875,-0.0625 c -0.253021,-0.103376 -0.523631,-0.134155 -0.6875,-0.09375 -0.125312,0.0309 -0.09139,0.02974 -0.09375,0.03125 -0.01105,-0.0054 -0.02045,0.0052 -0.03125,0 -0.543341,-0.262349 -0.833495,-0.334885 -1.375,-0.53125 l -0.46875,-0.15625 0,-0.125 c -0.01901,0.0016 -0.04323,-0.0015 -0.0625,0 -0.0045,0.001 -0.08076,4.8e-4 -0.09375,0 -0.02918,0.0022 -0.06388,-0.0045 -0.09375,0 z m -0.875,1.1875 0.03125,0.03125 -0.21875,0.3125 0.625,-0.125 c 0.330535,0.03847 0.60022,-0.0085 0.71875,-0.03125 0.11853,-0.02274 0.08482,-0.05524 0.25,0 l 0.75,0.25 c -0.292942,-0.06753 -0.58588,-0.108496 -0.875,-0.125 -0.288327,-0.01646 -0.517148,0.05963 -0.78125,0.09375 l -0.125,-0.09375 -0.15625,0.03125 c -0.531177,0.05302 -0.86432,0.161558 -1.0625,0.28125 -0.19818,0.119692 -0.219202,0.169952 -0.53125,0.25 l -0.125,0.03125 -0.09375,0.09375 c -0.008,0.0078 -0.02285,0.02261 -0.03125,0.03125 -0.04248,0.008 -0.04169,0.01733 -0.09375,0.03125 -0.270507,0.07234 -0.574816,0.249315 -0.90625,0.59375 l -0.125,0.125 c -0.05555,0.03126 -0.133874,0.02849 -0.1875,0.0625 -0.238909,0.151506 -0.470643,0.355187 -0.6875,0.5625 -0.01266,0.0121 -0.01872,0.01913 -0.03125,0.03125 -0.126427,0.122259 -0.170445,0.222719 -0.28125,0.34375 0.04637,-0.111228 0.081,-0.220301 0.125,-0.3125 l 0.15625,-0.03125 0.0625,-0.3125 c -0.01418,0.08267 0.174364,-0.251114 0.4375,-0.5 0.01119,-0.01059 0.01996,-0.02074 0.03125,-0.03125 l 0,0.125 0.71875,-0.65625 c 0.435903,-0.410438 1.314657,-0.746126 1.96875,-1.03125 0.08714,-9.69e-4 0.189113,0.0115 0.25,0 0.06824,-0.01288 0.118037,-0.01763 0.1875,-0.03125 z m 4,0.15625 -0.28125,0.4375 c -0.004,-0.03476 -0.03834,-0.04182 -0.03125,-0.09375 0.01977,-0.144734 0.198672,-0.287278 0.3125,-0.34375 z m -1.78125,0.25 c 0.163685,0.05725 0.337212,0.06546 0.625,0.21875 l 0.09375,0.03125 0.09375,0 c 0.204749,0.01 0.328891,-0.04541 0.375,-0.0625 0.01059,0.01515 0.01952,0.01727 0.03125,0.03125 0.121984,0.145444 0.249452,0.256439 0.5,0.40625 l 0.1875,0.125 0.0625,-0.03125 c 2.139257,3.001019 0.607674,0.858851 -1.1875,-0.40625 -0.229211,-0.106342 -0.491364,-0.184877 -0.75,-0.25 z m -6.75,2.1875 c 0.02749,0.01593 0.07854,0.01799 0.09375,0.03125 0,0 -0.05363,0.05467 -0.09375,0.09375 0.004,-0.03016 -0.0023,-0.055 0,-0.09375 0.0025,-0.0052 -0.0022,-0.02781 0,-0.03125 z m -0.5,0.8125 c 0.02312,0.01675 0.06089,0.04612 0.09375,0.0625 l -0.09375,-0.03125 c 0,0 -0.0014,-0.02889 0,-0.03125 z m 8.40625,1.4375 c -0.21728,0.0055 -0.319305,0.09742 -0.375,0.15625 -0.0557,0.05883 -0.07162,0.114663 -0.09375,0.15625 -0.04426,0.08317 -0.07501,0.168999 -0.09375,0.25 l -0.09375,0.375 0.1875,0.09375 c 0.0077,0.0173 0.01558,0.03592 0.03125,0.0625 0.01567,0.02658 0.04946,0.04827 0.09375,0.09375 0.02215,0.02274 0.05266,0.06737 0.09375,0.09375 0.02054,0.01319 0.03518,0.01929 0.0625,0.03125 0.02732,0.01196 0.0931,0.0311 0.09375,0.03125 0.0013,2.94e-4 0.21744,2.89e-4 0.21875,0 6.55e-4,-1.44e-4 0.06323,-0.01739 0.09375,-0.03125 0.03052,-0.01386 0.07056,-0.04638 0.09375,-0.0625 0.09275,-0.06448 0.130878,-0.11254 0.15625,-0.15625 0.05074,-0.08742 0.05123,-0.141996 0.0625,-0.1875 l -0.21875,-0.0625 c -0.04317,0.04515 -0.09543,0.151527 -0.28125,0.15625 -0.201974,0.0051 -0.391245,-0.170278 -0.4375,-0.25 l 0.46875,0.0625 -0.46875,-0.125 c -7.38e-4,-0.0024 -0.03067,0.0021 -0.03125,0 1.11e-4,-4.49e-4 -0.0088,-0.02479 0.03125,-0.09375 0.02001,-0.03448 0.06877,-0.09544 0.15625,-0.15625 0.02187,-0.0152 0.0333,-0.01798 0.0625,-0.03125 0.0292,-0.01327 0.09441,-0.03139 0.09375,-0.03125 -9.36e-4,2.06e-4 0.09369,-7.1e-5 0.15625,0 l -0.15625,0.28125 0.5,0.125 c -0.003,0.0056 -0.0235,0.01971 -0.03125,0.03125 l 0.15625,0.03125 c 0.0088,-0.131904 0.01841,-0.258718 0,-0.375 -0.0092,-0.05814 -0.004,-0.117906 -0.0625,-0.21875 -0.05851,-0.100844 -0.25147,-0.255523 -0.46875,-0.25 z m -0.75,1.21875 c -0.06579,0.08315 -0.07968,0.152078 -0.125,0.21875 -0.04836,0.07115 -0.122554,0.142874 -0.15625,0.21875 -0.0215,0.04842 -0.01966,0.117623 -0.03125,0.1875 l -0.21875,0.0625 c -0.126455,0.03112 -0.262941,0.01603 -0.4375,0 l -0.0625,0.65625 0,-0.65625 c -0.0526,7.44e-4 -0.103443,0.0097 -0.1875,0.03125 -0.04203,0.01075 -0.07905,0.01047 -0.15625,0.0625 -0.0386,0.02602 -0.11371,0.06775 -0.15625,0.125 -0.02127,0.02863 -0.01481,0.05624 -0.03125,0.09375 -0.01644,0.03751 -0.06236,0.124191 -0.0625,0.125 -1.35e-4,8.09e-4 -0.003,0.0859 0,0.125 0.003,0.0391 0.0218,0.09324 0.03125,0.125 0.0189,0.06351 0.0385,0.08988 0.0625,0.125 0.048,0.07024 0.09313,0.100455 0.125,0.125 0.06375,0.04909 0.115306,0.0751 0.15625,0.09375 0.163775,0.0746 0.33031,0.125199 0.53125,0.15625 l 0.1875,0.03125 0.1875,-0.15625 c 0.102538,-0.08041 0.197744,-0.139052 0.28125,-0.21875 l 0.28125,-0.28125 c 0.124923,-0.0027 0.198645,-0.03912 0.25,-0.0625 0.06847,-0.03117 0.118726,-0.05026 0.1875,-0.09375 l 0.0625,0.0625 c 0.05077,-0.07038 0.04982,-0.173475 0.09375,-0.25 0.04037,-0.0723 0.105163,-0.205112 0.15625,-0.3125 0.01637,-0.04425 0.04015,-0.08439 0.0625,-0.125 l 0.25,-0.25 -0.1875,0.0625 -0.03125,0 -0.46875,-0.09375 -0.34375,-0.0625 z"
     id="path4055"
     inkscape:connector-curvature="0"
     sodipodi:nodetypes="ccccccccccccccccccscccccccccccccccccsccsccccccccccccccccccccsccccccssccccccccccccsscsccccccccccccccccsccccsccccscccccccccsccscscccccccccccccccccccccccccccccccccccccccccccccccscccccccccccccccccccccccccccccccccccccccccccccccccccccccccccccccccccccccscccsccccccccccccccccccccccccccccccccccccccccccccccccccccsccsccscccccccccccsccccccccccccccccccccscscscscccccsccccccccccc" />
  <rect
     width="37"
     height="22"
     rx="1"
     ry="1"
     x="5.499999"
     y="21.5"
     id="rect3174"
     style="opacity:0.50000000000000000;fill:none;stroke:url(#linearGradient3176);stroke-width:1;stroke-linecap:round;stroke-linejoin:round;stroke-miterlimit:4;stroke-opacity:1;stroke-dasharray:none;stroke-dashoffset:0" />
  <path
     style="opacity:0.5;fill:#7b4600;fill-opacity:1;fill-rule:nonzero;stroke:none"
     d="M 17 7 L 17 27 L 31 27 L 31 7 L 30 7 L 30 26 L 18 26 L 18 7 L 17 7 z "
     id="rect3969" />
  <rect
     style="opacity:1;fill:url(#linearGradient3952);fill-opacity:1;fill-rule:nonzero;stroke:none"
     id="rect3013"
     width="12"
     height="20"
     x="18"
     y="5.9995284" />
  <g
     i:rgbTrio="#4F008000FFFF"
     i:dimmedPercent="50"
     i:layer="yes"
     id="Layer_1"
     transform="matrix(0.13773297,0,0,0.13831386,28.011309,27)"
     style="fill:#7b4600;fill-opacity:1">
		<g
   id="g3161"
   style="fill:#7b4600;fill-opacity:1">
			<path
   id="path3163"
   d="m 51.986,57.297 c -1.797,0.025 0.34,0.926 2.686,1.287 0.648,-0.506 1.236,-1.018 1.76,-1.516 -1.461,0.358 -2.948,0.366 -4.446,0.229"
   i:knockout="Off"
   inkscape:connector-curvature="0"
   style="fill:#7b4600;fill-opacity:1" />

			<path
   id="path3165"
   d="m 61.631,54.893 c 1.07,-1.477 1.85,-3.094 2.125,-4.766 -0.24,1.192 -0.887,2.221 -1.496,3.307 -3.359,2.115 -0.316,-1.256 -0.002,-2.537 -3.612,4.546 -0.496,2.726 -0.627,3.996"
   i:knockout="Off"
   inkscape:connector-curvature="0"
   style="fill:#7b4600;fill-opacity:1" />

			<path
   id="path3167"
   d="m 65.191,45.629 c 0.217,-3.236 -0.637,-2.213 -0.924,-0.978 0.335,0.174 0.6,2.281 0.924,0.978"
   i:knockout="Off"
   inkscape:connector-curvature="0"
   style="fill:#7b4600;fill-opacity:1" />

			<path
   id="path3169"
   d="m 45.172,1.399 c 0.959,0.172 2.072,0.304 1.916,0.533 1.049,-0.23 1.287,-0.442 -1.916,-0.533"
   i:knockout="Off"
   inkscape:connector-curvature="0"
   style="fill:#7b4600;fill-opacity:1" />

			<path
   id="path3171"
   d="M 47.088,1.932 46.41,2.072 47.041,2.016 47.088,1.932"
   i:knockout="Off"
   inkscape:connector-curvature="0"
   style="fill:#7b4600;fill-opacity:1" />

			<path
   id="path3173"
   d="m 76.992,46.856 c 0.107,2.906 -0.85,4.316 -1.713,6.812 l -1.553,0.776 c -1.271,2.468 0.123,1.567 -0.787,3.53 -1.984,1.764 -6.021,5.52 -7.313,5.863 -0.943,-0.021 0.639,-1.113 0.846,-1.541 -2.656,1.824 -2.131,2.738 -6.193,3.846 L 60.16,65.878 C 50.142,70.591 36.226,61.251 36.409,48.507 c -0.107,0.809 -0.304,0.607 -0.526,0.934 -0.517,-6.557 3.028,-13.143 9.007,-15.832 5.848,-2.895 12.704,-1.707 16.893,2.197 -2.301,-3.014 -6.881,-6.209 -12.309,-5.91 -5.317,0.084 -10.291,3.463 -11.951,7.131 -2.724,1.715 -3.04,6.611 -4.227,7.507 -1.597,11.737 3.004,16.808 10.787,22.773 1.225,0.826 0.345,0.951 0.511,1.58 -2.586,-1.211 -4.954,-3.039 -6.901,-5.277 1.033,1.512 2.148,2.982 3.589,4.137 -2.438,-0.826 -5.695,-5.908 -6.646,-6.115 4.203,7.525 17.052,13.197 23.78,10.383 -3.113,0.115 -7.068,0.064 -10.566,-1.229 -1.469,-0.756 -3.467,-2.322 -3.11,-2.615 9.182,3.43 18.667,2.598 26.612,-3.771 2.021,-1.574 4.229,-4.252 4.867,-4.289 -0.961,1.445 0.164,0.695 -0.574,1.971 2.014,-3.248 -0.875,-1.322 2.082,-5.609 l 1.092,1.504 c -0.406,-2.696 3.348,-5.97 2.967,-10.234 0.861,-1.304 0.961,1.403 0.047,4.403 1.268,-3.328 0.334,-3.863 0.66,-6.609 0.352,0.923 0.814,1.904 1.051,2.878 -0.826,-3.216 0.848,-5.416 1.262,-7.285 -0.408,-0.181 -1.275,1.422 -1.473,-2.377 0.029,-1.65 0.459,-0.865 0.625,-1.271 -0.324,-0.186 -1.174,-1.451 -1.691,-3.877 0.375,-0.57 1.002,1.478 1.512,1.562 -0.328,-1.929 -0.893,-3.4 -0.916,-4.88 -1.49,-3.114 -0.527,0.415 -1.736,-1.337 -1.586,-4.947 1.316,-1.148 1.512,-3.396 2.404,3.483 3.775,8.881 4.404,11.117 -0.48,-2.726 -1.256,-5.367 -2.203,-7.922 0.73,0.307 -1.176,-5.609 0.949,-1.691 C 83.519,18.706 76.074,10.902 69.225,7.24 70.063,8.007 71.121,8.97 70.741,9.121 67.335,7.093 67.934,6.935 67.446,6.078 64.671,4.949 64.489,6.169 62.651,6.08 57.421,3.306 56.413,3.601 51.6,1.863 l 0.219,1.023 c -3.465,-1.154 -4.037,0.438 -7.782,0.004 -0.228,-0.178 1.2,-0.644 2.375,-0.815 -3.35,0.442 -3.193,-0.66 -6.471,0.122 0.808,-0.567 1.662,-0.942 2.524,-1.424 -2.732,0.166 -6.522,1.59 -5.352,0.295 -4.456,1.988 -12.37,4.779 -16.811,8.943 l -0.14,-0.933 c -2.035,2.443 -8.874,7.296 -9.419,10.46 l -0.544,0.127 c -1.059,1.793 -1.744,3.825 -2.584,5.67 -1.385,2.36 -2.03,0.908 -1.833,1.278 -2.724,5.523 -4.077,10.164 -5.246,13.97 0.833,1.245 0.02,7.495 0.335,12.497 -1.368,24.704 17.338,48.69 37.785,54.228 2.997,1.072 7.454,1.031 11.245,1.141 -4.473,-1.279 -5.051,-0.678 -9.408,-2.197 -3.143,-1.48 -3.832,-3.17 -6.058,-5.102 l 0.881,1.557 c -4.366,-1.545 -2.539,-1.912 -6.091,-3.037 l 0.941,-1.229 C 28.751,98.334 26.418,96.056 25.78,94.795 l -1.548,0.061 c -1.86,-2.295 -2.851,-3.949 -2.779,-5.23 l -0.5,0.891 c -0.567,-0.973 -6.843,-8.607 -3.587,-6.83 -0.605,-0.553 -1.409,-0.9 -2.281,-2.484 l 0.663,-0.758 c -1.567,-2.016 -2.884,-4.6 -2.784,-5.461 0.836,1.129 1.416,1.34 1.99,1.533 -3.957,-9.818 -4.179,-0.541 -7.176,-9.994 L 8.412,66.472 C 7.926,65.74 7.631,64.945 7.24,64.165 l 0.276,-2.75 C 4.667,58.121 6.719,47.409 7.13,41.534 7.415,39.145 9.508,36.602 11.1,32.614 l -0.97,-0.167 c 1.854,-3.234 10.586,-12.988 14.63,-12.486 1.959,-2.461 -0.389,-0.009 -0.772,-0.629 4.303,-4.453 5.656,-3.146 8.56,-3.947 3.132,-1.859 -2.688,0.725 -1.203,-0.709 5.414,-1.383 3.837,-3.144 10.9,-3.846 0.745,0.424 -1.729,0.655 -2.35,1.205 4.511,-2.207 14.275,-1.705 20.617,1.225 7.359,3.439 15.627,13.605 15.953,23.17 l 0.371,0.1 c -0.188,3.802 0.582,8.199 -0.752,12.238 l 0.908,-1.912"
   i:knockout="Off"
   inkscape:connector-curvature="0"
   style="fill:#7b4600;fill-opacity:1" />

			<path
   id="path3175"
   d="m 32.372,59.764 -0.252,1.26 c 1.181,1.604 2.118,3.342 3.626,4.596 -1.085,-2.118 -1.891,-2.993 -3.374,-5.856"
   i:knockout="Off"
   inkscape:connector-curvature="0"
   style="fill:#7b4600;fill-opacity:1" />

			<path
   id="path3177"
   d="m 35.164,59.654 c -0.625,-0.691 -0.995,-1.523 -1.409,-2.352 0.396,1.457 1.207,2.709 1.962,3.982 l -0.553,-1.63"
   i:knockout="Off"
   inkscape:connector-curvature="0"
   style="fill:#7b4600;fill-opacity:1" />

			<path
   id="path3179"
   d="m 84.568,48.916 -0.264,0.662 c -0.484,3.438 -1.529,6.84 -3.131,9.994 1.77,-3.328 2.915,-6.968 3.395,-10.656"
   i:knockout="Off"
   inkscape:connector-curvature="0"
   style="fill:#7b4600;fill-opacity:1" />

			<path
   id="path3181"
   d="M 45.527,0.537 C 46.742,0.092 48.514,0.293 49.803,0 48.123,0.141 46.451,0.225 44.8,0.438 l 0.727,0.099"
   i:knockout="Off"
   inkscape:connector-curvature="0"
   style="fill:#7b4600;fill-opacity:1" />

			<path
   id="path3183"
   d="m 2.872,23.219 c 0.28,2.592 -1.95,3.598 0.494,1.889 1.31,-2.951 -0.512,-0.815 -0.494,-1.889"
   i:knockout="Off"
   inkscape:connector-curvature="0"
   style="fill:#7b4600;fill-opacity:1" />

			<path
   id="path3185"
   d="M 0,35.215 C 0.563,33.487 0.665,32.449 0.88,31.449 -0.676,33.438 0.164,33.862 0,35.215"
   i:knockout="Off"
   inkscape:connector-curvature="0"
   style="fill:#7b4600;fill-opacity:1" />

		</g>

	</g>
</svg>
