<?xml version="1.0" encoding="UTF-8" standalone="no"?>
<!-- Created with Inkscape (http://www.inkscape.org/) -->

<svg
   xmlns:dc="http://purl.org/dc/elements/1.1/"
   xmlns:cc="http://creativecommons.org/ns#"
   xmlns:rdf="http://www.w3.org/1999/02/22-rdf-syntax-ns#"
   xmlns:svg="http://www.w3.org/2000/svg"
   xmlns="http://www.w3.org/2000/svg"
   xmlns:xlink="http://www.w3.org/1999/xlink"
   xmlns:sodipodi="http://sodipodi.sourceforge.net/DTD/sodipodi-0.dtd"
   xmlns:inkscape="http://www.inkscape.org/namespaces/inkscape"
   width="96"
   height="96"
   id="svg2"
   version="1.1"
   inkscape:version="0.48.3.1 r9886"
   sodipodi:docname="template.svg">
  <defs
     id="defs4">
    <linearGradient
       id="linearGradient3784">
      <stop
         style="stop-color:#640000;stop-opacity:1;"
         offset="0"
         id="stop3786" />
      <stop
         style="stop-color:#c80000;stop-opacity:1;"
         offset="1"
         id="stop3788" />
    </linearGradient>
    <linearGradient
       id="linearGradient3776">
      <stop
         style="stop-color:#de220c;stop-opacity:1;"
         offset="0"
         id="stop3778" />
      <stop
         style="stop-color:#960000;stop-opacity:1;"
         offset="1"
         id="stop3780" />
    </linearGradient>
    <linearGradient
       id="linearGradient3817">
      <stop
         style="stop-color:#ffffff;stop-opacity:1;"
         offset="0"
         id="stop3819" />
      <stop
         id="stop3827"
         offset="0.05455951"
         style="stop-color:#ffffff;stop-opacity:0.23529412;" />
      <stop
         id="stop3825"
         offset="0.95526141"
         style="stop-color:#ffffff;stop-opacity:0.15686275;" />
      <stop
         style="stop-color:#ffffff;stop-opacity:0.39215687;"
         offset="1"
         id="stop3821" />
    </linearGradient>
    <radialGradient
       cx="4.9929786"
       cy="43.5"
       r="2.5"
       fx="4.9929786"
       fy="43.5"
       id="radialGradient2873-966-168"
       xlink:href="#linearGradient3688-166-749"
       gradientUnits="userSpaceOnUse"
       gradientTransform="matrix(2.003784,0,0,1.4,27.98813,-17.4)" />
    <linearGradient
       id="linearGradient3688-166-749">
      <stop
         id="stop2883"
         style="stop-color:#181818;stop-opacity:1"
         offset="0" />
      <stop
         id="stop2885"
         style="stop-color:#181818;stop-opacity:0"
         offset="1" />
    </linearGradient>
    <radialGradient
       cx="4.9929786"
       cy="43.5"
       r="2.5"
       fx="4.9929786"
       fy="43.5"
       id="radialGradient2875-742-326"
       xlink:href="#linearGradient3688-464-309"
       gradientUnits="userSpaceOnUse"
       gradientTransform="matrix(2.003784,0,0,1.4,-20.01187,-104.4)" />
    <linearGradient
       id="linearGradient3688-464-309">
      <stop
         id="stop2889"
         style="stop-color:#181818;stop-opacity:1"
         offset="0" />
      <stop
         id="stop2891"
         style="stop-color:#181818;stop-opacity:0"
         offset="1" />
    </linearGradient>
    <linearGradient
       x1="25.058096"
       y1="47.027729"
       x2="25.058096"
       y2="39.999443"
       id="linearGradient2877-634-617"
       xlink:href="#linearGradient3702-501-757"
       gradientUnits="userSpaceOnUse" />
    <linearGradient
       id="linearGradient3702-501-757">
      <stop
         id="stop2895"
         style="stop-color:#181818;stop-opacity:0"
         offset="0" />
      <stop
         id="stop2897"
         style="stop-color:#181818;stop-opacity:1"
         offset="0.5" />
      <stop
         id="stop2899"
         style="stop-color:#181818;stop-opacity:0"
         offset="1" />
    </linearGradient>
    <linearGradient
       inkscape:collect="always"
       xlink:href="#linearGradient3817"
       id="linearGradient3823"
       x1="47.214287"
       y1="965.25507"
       x2="47.214287"
       y2="1042.9185"
       gradientUnits="userSpaceOnUse" />
    <radialGradient
       inkscape:collect="always"
       xlink:href="#linearGradient3776"
       id="radialGradient3782"
       cx="48.17857"
       cy="975.96936"
       fx="48.17857"
       fy="975.96936"
       r="40"
       gradientUnits="userSpaceOnUse"
       gradientTransform="matrix(-9.7427611e-8,1.8742607,-1.3661871,-7.1016984e-8,1381.5353,885.67017)" />
    <linearGradient
       inkscape:collect="always"
       xlink:href="#linearGradient3784"
       id="linearGradient3790"
       x1="28.535715"
       y1="1044.0339"
       x2="28.535715"
       y2="964.54077"
       gradientUnits="userSpaceOnUse" />
  </defs>
  <sodipodi:namedview
     id="base"
     pagecolor="#ffffff"
     bordercolor="#666666"
     borderopacity="1.0"
     inkscape:pageopacity="0.0"
     inkscape:pageshadow="2"
     inkscape:zoom="1.4"
     inkscape:cx="67.235462"
     inkscape:cy="-27.01116"
     inkscape:document-units="px"
     inkscape:current-layer="layer1"
     showgrid="false"
     inkscape:window-width="1280"
     inkscape:window-height="749"
     inkscape:window-x="0"
     inkscape:window-y="24"
     inkscape:window-maximized="1" />
  <metadata
     id="metadata7">
    <rdf:RDF>
      <cc:Work
         rdf:about="">
        <dc:format>image/svg+xml</dc:format>
        <dc:type
           rdf:resource="http://purl.org/dc/dcmitype/StillImage" />
        <dc:title></dc:title>
      </cc:Work>
    </rdf:RDF>
  </metadata>
  <g
     inkscape:label="Livello 1"
     inkscape:groupmode="layer"
     id="layer1"
     transform="translate(0,-956.36218)">
    <g
       style="display:inline"
       id="g2036"
       transform="matrix(2.1999991,0,0,0.88888944,-4.8000008,1006.5844)">
      <g
         style="opacity:0.4"
         id="g3712"
         transform="matrix(1.052632,0,0,1.285713,-1.263158,-13.42854)">
        <rect
           style="fill:url(#radialGradient2873-966-168);fill-opacity:1;stroke:none"
           id="rect2801"
           y="40"
           x="38"
           height="7"
           width="5" />
        <rect
           style="fill:url(#radialGradient2875-742-326);fill-opacity:1;stroke:none"
           id="rect3696"
           transform="scale(-1,-1)"
           y="-47"
           x="-10"
           height="7"
           width="5" />
        <rect
           style="fill:url(#linearGradient2877-634-617);fill-opacity:1;stroke:none"
           id="rect3700"
           y="40"
           x="10"
           height="7.0000005"
           width="28" />
      </g>
    </g>
    <rect
       style="fill:url(#radialGradient3782);fill-opacity:1;stroke:url(#linearGradient3790);stroke-opacity:1"
       id="rect2985"
       width="79"
       height="79"
       x="8.5"
       y="964.86218"
       rx="3"
       ry="3" />
    <rect
       ry="2"
       rx="2"
       y="965.86218"
       x="9.5"
       height="77"
       width="77"
       id="rect3815"
       style="fill:none;stroke:url(#linearGradient3823);stroke-opacity:1;opacity:0.50000000000000000" />
    <path
       id="path3803"
       d="m 24.437498,966.36318 c -0.252578,0.94992 -0.538634,1.95826 -0.875,3.12496 -2.704924,9.38338 -7.61384,22.0428 -13.5625,35.81206 l 0,32.2494 3.1875,-6.3748 c 6.22674,-12.4368 13.200478,-28.3313 15.5,-35.37452 2.2995,-7.04456 4.5497,-13.5076 5,-14.3123 0.450338,-0.80136 3.448788,3.10792 6.625,8.62488 8.29452,14.40694 21.215408,29.39284 31,35.99954 6.609564,4.4621 7.587514,5.7499 4.625004,5.7499 -4.411192,0 -29.484356,6.1229 -43.375004,10.4999 l 39.25,0 c 0.231012,-0.038 0.455948,-0.086 0.6875,-0.126 l 13.437504,-2.25 c 0.0398,-0.196 0.0625,-0.4172 0.0625,-0.625 l 0,-18.3748 c -15.5569,-9.8007 -33.042514,-30.89744 -42.437504,-51.81176 -0.452464,-1.00724 -0.896856,-1.92482 -1.25,-2.81246 l -17.875,0 z"
       style="fill:#000000;fill-opacity:1;stroke:#000000;stroke-opacity:1;stroke-linejoin:round;opacity:0.05;stroke-width:3;stroke-miterlimit:4;stroke-dasharray:none"
       inkscape:connector-curvature="0" />
    <path
       inkscape:connector-curvature="0"
       style="fill:#000000;fill-opacity:1;stroke:#000000;stroke-opacity:1;stroke-linejoin:round;opacity:0.1;stroke-width:2;stroke-miterlimit:4;stroke-dasharray:none"
       d="m 24.437498,966.36318 c -0.252578,0.94992 -0.538634,1.95826 -0.875,3.12496 -2.704924,9.38338 -7.61384,22.0428 -13.5625,35.81206 l 0,32.2494 3.1875,-6.3748 c 6.22674,-12.4368 13.200478,-28.3313 15.5,-35.37452 2.2995,-7.04456 4.5497,-13.5076 5,-14.3123 0.450338,-0.80136 3.448788,3.10792 6.625,8.62488 8.29452,14.40694 21.215408,29.39284 31,35.99954 6.609564,4.4621 7.587514,5.7499 4.625004,5.7499 -4.411192,0 -29.484356,6.1229 -43.375004,10.4999 l 39.25,0 c 0.231012,-0.038 0.455948,-0.086 0.6875,-0.126 l 13.437504,-2.25 c 0.0398,-0.196 0.0625,-0.4172 0.0625,-0.625 l 0,-18.3748 c -15.5569,-9.8007 -33.042514,-30.89744 -42.437504,-51.81176 -0.452464,-1.00724 -0.896856,-1.92482 -1.25,-2.81246 l -17.875,0 z"
       id="path3801" />
    <path
       id="path3799"
       d="m 24.437498,966.36318 c -0.252578,0.94992 -0.538634,1.95826 -0.875,3.12496 -2.704924,9.38338 -7.61384,22.0428 -13.5625,35.81206 l 0,32.2494 3.1875,-6.3748 c 6.22674,-12.4368 13.200478,-28.3313 15.5,-35.37452 2.2995,-7.04456 4.5497,-13.5076 5,-14.3123 0.450338,-0.80136 3.448788,3.10792 6.625,8.62488 8.29452,14.40694 21.215408,29.39284 31,35.99954 6.609564,4.4621 7.587514,5.7499 4.625004,5.7499 -4.411192,0 -29.484356,6.1229 -43.375004,10.4999 l 39.25,0 c 0.231012,-0.038 0.455948,-0.086 0.6875,-0.126 l 13.437504,-2.25 c 0.0398,-0.196 0.0625,-0.4172 0.0625,-0.625 l 0,-18.3748 c -15.5569,-9.8007 -33.042514,-30.89744 -42.437504,-51.81176 -0.452464,-1.00724 -0.896856,-1.92482 -1.25,-2.81246 l -17.875,0 z"
       style="fill:#000000;fill-opacity:1;stroke:#000000;stroke-opacity:1;stroke-linejoin:round;opacity:0.15"
       inkscape:connector-curvature="0" />
    <path
       inkscape:connector-curvature="0"
       style="fill:#ffffff;fill-opacity:1;stroke:none"
       d="m 24.437498,966.36318 c -0.252578,0.94992 -0.538634,1.95826 -0.875,3.12496 -2.704924,9.38338 -7.61384,22.0428 -13.5625,35.81206 l 0,32.2494 3.1875,-6.3748 c 6.22674,-12.4368 13.200478,-28.3313 15.5,-35.37452 2.2995,-7.04456 4.5497,-13.5076 5,-14.3123 0.450338,-0.80136 3.448788,3.10792 6.625,8.62488 8.29452,14.40694 21.215408,29.39284 31,35.99954 6.609564,4.4621 7.587514,5.7499 4.625004,5.7499 -4.411192,0 -29.484356,6.1229 -43.375004,10.4999 l 39.25,0 c 0.231012,-0.038 0.455948,-0.086 0.6875,-0.126 l 13.437504,-2.25 c 0.0398,-0.196 0.0625,-0.4172 0.0625,-0.625 l 0,-18.3748 c -15.5569,-9.8007 -33.042514,-30.89744 -42.437504,-51.81176 -0.452464,-1.00724 -0.896856,-1.92482 -1.25,-2.81246 l -17.875,0 z"
       id="path2830" />
  </g>
</svg>
