<?xml version="1.0" encoding="UTF-8" standalone="no"?>
<!-- Created with Inkscape (http://www.inkscape.org/) -->

<svg
   xmlns:dc="http://purl.org/dc/elements/1.1/"
   xmlns:cc="http://creativecommons.org/ns#"
   xmlns:rdf="http://www.w3.org/1999/02/22-rdf-syntax-ns#"
   xmlns:svg="http://www.w3.org/2000/svg"
   xmlns="http://www.w3.org/2000/svg"
   xmlns:xlink="http://www.w3.org/1999/xlink"
   xmlns:sodipodi="http://sodipodi.sourceforge.net/DTD/sodipodi-0.dtd"
   xmlns:inkscape="http://www.inkscape.org/namespaces/inkscape"
   width="96"
   height="96"
   id="svg2"
   version="1.1"
   inkscape:version="0.48.3.1 r9886"
   sodipodi:docname="application-x-7zip.svg">
  <defs
     id="defs4">
    <linearGradient
       id="linearGradient3946">
      <stop
         style="stop-color:#505050;stop-opacity:1;"
         offset="0"
         id="stop3948" />
      <stop
         style="stop-color:#c8c8c8;stop-opacity:1;"
         offset="1"
         id="stop3950" />
    </linearGradient>
    <linearGradient
       id="linearGradient3940">
      <stop
         style="stop-color:#ebebeb;stop-opacity:1;"
         offset="0"
         id="stop3942" />
      <stop
         style="stop-color:#a0a0a0;stop-opacity:1;"
         offset="1"
         id="stop3944" />
    </linearGradient>
    <linearGradient
       id="linearGradient3934">
      <stop
         id="stop3936"
         offset="0"
         style="stop-color:#646464;stop-opacity:1;" />
      <stop
         id="stop3938"
         offset="1"
         style="stop-color:#c8c8c8;stop-opacity:1;" />
    </linearGradient>
    <linearGradient
       id="linearGradient3928">
      <stop
         id="stop3930"
         offset="0"
         style="stop-color:#ebebeb;stop-opacity:1;" />
      <stop
         id="stop3932"
         offset="1"
         style="stop-color:#b4b4b4;stop-opacity:1;" />
    </linearGradient>
    <linearGradient
       id="linearGradient3915">
      <stop
         style="stop-color:#f0f0f0;stop-opacity:1;"
         offset="0"
         id="stop3917" />
      <stop
         style="stop-color:#bebebe;stop-opacity:1;"
         offset="1"
         id="stop3919" />
    </linearGradient>
    <linearGradient
       id="linearGradient3807">
      <stop
         style="stop-color:#be3c00;stop-opacity:1;"
         offset="0"
         id="stop3809" />
      <stop
         style="stop-color:#d2821e;stop-opacity:1;"
         offset="1"
         id="stop3811" />
    </linearGradient>
    <linearGradient
       id="linearGradient3799">
      <stop
         style="stop-color:#ffc800;stop-opacity:1;"
         offset="0"
         id="stop3801" />
      <stop
         style="stop-color:#dc6414;stop-opacity:1;"
         offset="1"
         id="stop3803" />
    </linearGradient>
    <linearGradient
       id="linearGradient3817">
      <stop
         style="stop-color:#ffffff;stop-opacity:1;"
         offset="0"
         id="stop3819" />
      <stop
         id="stop3827"
         offset="0.05455951"
         style="stop-color:#ffffff;stop-opacity:0.23529412;" />
      <stop
         id="stop3825"
         offset="0.95526141"
         style="stop-color:#ffffff;stop-opacity:0.15686275;" />
      <stop
         style="stop-color:#ffffff;stop-opacity:0.39215687;"
         offset="1"
         id="stop3821" />
    </linearGradient>
    <radialGradient
       cx="4.9929786"
       cy="43.5"
       r="2.5"
       fx="4.9929786"
       fy="43.5"
       id="radialGradient2873-966-168"
       xlink:href="#linearGradient3688-166-749"
       gradientUnits="userSpaceOnUse"
       gradientTransform="matrix(2.003784,0,0,1.4,27.98813,-17.4)" />
    <linearGradient
       id="linearGradient3688-166-749">
      <stop
         id="stop2883"
         style="stop-color:#181818;stop-opacity:1"
         offset="0" />
      <stop
         id="stop2885"
         style="stop-color:#181818;stop-opacity:0"
         offset="1" />
    </linearGradient>
    <radialGradient
       cx="4.9929786"
       cy="43.5"
       r="2.5"
       fx="4.9929786"
       fy="43.5"
       id="radialGradient2875-742-326"
       xlink:href="#linearGradient3688-464-309"
       gradientUnits="userSpaceOnUse"
       gradientTransform="matrix(2.003784,0,0,1.4,-20.01187,-104.4)" />
    <linearGradient
       id="linearGradient3688-464-309">
      <stop
         id="stop2889"
         style="stop-color:#181818;stop-opacity:1"
         offset="0" />
      <stop
         id="stop2891"
         style="stop-color:#181818;stop-opacity:0"
         offset="1" />
    </linearGradient>
    <linearGradient
       x1="25.058096"
       y1="47.027729"
       x2="25.058096"
       y2="39.999443"
       id="linearGradient2877-634-617"
       xlink:href="#linearGradient3702-501-757"
       gradientUnits="userSpaceOnUse" />
    <linearGradient
       id="linearGradient3702-501-757">
      <stop
         id="stop2895"
         style="stop-color:#181818;stop-opacity:0"
         offset="0" />
      <stop
         id="stop2897"
         style="stop-color:#181818;stop-opacity:1"
         offset="0.5" />
      <stop
         id="stop2899"
         style="stop-color:#181818;stop-opacity:0"
         offset="1" />
    </linearGradient>
    <linearGradient
       inkscape:collect="always"
       xlink:href="#linearGradient3817"
       id="linearGradient3823"
       x1="47.214287"
       y1="965.25507"
       x2="47.214287"
       y2="1027.2168"
       gradientUnits="userSpaceOnUse" />
    <radialGradient
       inkscape:collect="always"
       xlink:href="#linearGradient3799"
       id="radialGradient3805"
       cx="48.357143"
       cy="965.11218"
       fx="48.357143"
       fy="965.11218"
       r="40"
       gradientTransform="matrix(0,1.8989073,-1.626148,0,1617.7724,879.53645)"
       gradientUnits="userSpaceOnUse" />
    <linearGradient
       inkscape:collect="always"
       xlink:href="#linearGradient3807"
       id="linearGradient3813"
       x1="22.285715"
       y1="1027.0118"
       x2="22.285715"
       y2="963.86218"
       gradientUnits="userSpaceOnUse" />
    <linearGradient
       inkscape:collect="always"
       xlink:href="#linearGradient3807"
       id="linearGradient3822"
       x1="26.928572"
       y1="1029.7698"
       x2="26.928572"
       y2="965.00507"
       gradientUnits="userSpaceOnUse" />
    <linearGradient
       inkscape:collect="always"
       xlink:href="#linearGradient3807"
       id="linearGradient3830"
       x1="25.857143"
       y1="1029.0712"
       x2="25.857143"
       y2="964.7193"
       gradientUnits="userSpaceOnUse" />
    <radialGradient
       inkscape:collect="always"
       xlink:href="#linearGradient3799"
       id="radialGradient3838"
       cx="47.642857"
       cy="970.60028"
       fx="47.642857"
       fy="970.60028"
       r="40"
       gradientTransform="matrix(0,1.4442801,-1.106918,0,1122.0178,904.76684)"
       gradientUnits="userSpaceOnUse" />
    <radialGradient
       inkscape:collect="always"
       xlink:href="#linearGradient3799"
       id="radialGradient3846"
       cx="47.64286"
       cy="972.93365"
       fx="47.64286"
       fy="972.93365"
       r="40"
       gradientUnits="userSpaceOnUse"
       gradientTransform="matrix(1.0287635e-7,1.4176102,-1.1173053,8.1083142e-8,1134.7068,905.39452)" />
    <radialGradient
       inkscape:collect="always"
       xlink:href="#linearGradient3915"
       id="radialGradient3926"
       cx="25.937485"
       cy="968.23694"
       fx="25.937485"
       fy="968.23694"
       r="4"
       gradientTransform="matrix(1.1325723e-5,3.1719135,-2.1094329,7.5320002e-6,2068.368,884.39568)"
       gradientUnits="userSpaceOnUse" />
  </defs>
  <sodipodi:namedview
     id="base"
     pagecolor="#ffffff"
     bordercolor="#666666"
     borderopacity="1.0"
     inkscape:pageopacity="0.0"
     inkscape:pageshadow="2"
     inkscape:zoom="2"
     inkscape:cx="119.04625"
     inkscape:cy="0.35979826"
     inkscape:document-units="px"
     inkscape:current-layer="layer1"
     showgrid="false"
     inkscape:window-width="1280"
     inkscape:window-height="756"
     inkscape:window-x="0"
     inkscape:window-y="24"
     inkscape:window-maximized="1" />
  <metadata
     id="metadata7">
    <rdf:RDF>
      <cc:Work
         rdf:about="">
        <dc:format>image/svg+xml</dc:format>
        <dc:type
           rdf:resource="http://purl.org/dc/dcmitype/StillImage" />
        <dc:title />
      </cc:Work>
    </rdf:RDF>
  </metadata>
  <g
     inkscape:label="Livello 1"
     inkscape:groupmode="layer"
     id="layer1"
     transform="translate(0,-956.36218)">
    <g
       style="display:inline"
       id="g2036"
       transform="matrix(2.1999991,0,0,0.88888944,-4.8000008,1006.5844)">
      <g
         style="opacity:0.4"
         id="g3712"
         transform="matrix(1.052632,0,0,1.285713,-1.263158,-13.42854)">
        <rect
           style="fill:url(#radialGradient2873-966-168);fill-opacity:1;stroke:none"
           id="rect2801"
           y="40"
           x="38"
           height="7"
           width="5" />
        <rect
           style="fill:url(#radialGradient2875-742-326);fill-opacity:1;stroke:none"
           id="rect3696"
           transform="scale(-1,-1)"
           y="-47"
           x="-10"
           height="7"
           width="5" />
        <rect
           style="fill:url(#linearGradient2877-634-617);fill-opacity:1;stroke:none"
           id="rect3700"
           y="40"
           x="10"
           height="7.0000005"
           width="28" />
      </g>
    </g>
    <rect
       style="fill:url(#radialGradient3846);fill-opacity:1;stroke:url(#linearGradient3830);stroke-opacity:1"
       id="rect2985"
       width="79"
       height="79"
       x="8.5"
       y="964.86218"
       rx="3"
       ry="3" />
    <rect
       ry="3"
       rx="3"
       y="964.86218"
       x="8.5"
       height="71"
       width="79"
       id="rect3010"
       style="fill:url(#radialGradient3838);fill-opacity:1;stroke:url(#linearGradient3822);stroke-opacity:1" />
    <rect
       ry="3"
       rx="3"
       y="964.86218"
       x="8.5"
       height="63"
       width="79"
       id="rect3008"
       style="fill:url(#radialGradient3805);fill-opacity:1;stroke:url(#linearGradient3813);stroke-opacity:1" />
    <path
       style="opacity:0.2;fill:#000000;fill-opacity:1;stroke:none"
       d="m 32,965.36196 0,50.00024 c 0,0.554 -0.446,1 -1,1 l -10,0 c -0.554,0 -1,-0.446 -1,-1 l 0,-50.00024 z"
       id="rect3913"
       inkscape:connector-curvature="0"
       sodipodi:nodetypes="csssscc" />
    <path
       style="fill:#f5f5f5;fill-opacity:1;stroke:none"
       d="m 30.999985,965.36196 0,49.00024 c 0,0.554 -0.446,1 -1,1 l -8,0 c -0.554,0 -1,-0.446 -1,-1 l 0,-49.00024 z"
       id="rect3911"
       inkscape:connector-curvature="0"
       sodipodi:nodetypes="csssscc" />
    <rect
       style="fill:#333333;fill-opacity:1;stroke:none"
       id="rect3908"
       width="8"
       height="48.999886"
       x="21.999962"
       y="965.36218" />
    <rect
       y="1004.3622"
       x="49.999996"
       height="20"
       width="28"
       id="rect3880"
       style="fill:#333333;fill-opacity:1;stroke:none" />
    <rect
       style="fill:#ffffff;fill-opacity:1;stroke:none"
       id="rect3878"
       width="12"
       height="16"
       x="51.999989"
       y="1006.3622" />
    <rect
       ry="2"
       rx="2"
       y="965.86218"
       x="9.5"
       height="61"
       width="77"
       id="rect3815"
       style="opacity:0.50000000000000000;fill:none;stroke:url(#linearGradient3823);stroke-opacity:1" />
    <path
       style="fill:#e6e6e6;fill-opacity:1;stroke:none"
       d="m 23.999985,966.36196 0,3 1,0 0,-1 1,0 0,-1 -1,0 0,-1 -1,0 z m 3,0 0,1 1,0 0,-1 -1,0 z m 0,2 0,1 -1,0 0,1 1,0 0,1 1,0 0,-3 -1,0 z m -3,2 0,3 1,0 0,-1 1,0 0,-1 -1,0 0,-1 -1,0 z m 3,2 0,1 -1,0 0,1 1,0 0,1 1,0 0,-3 -1,0 z m -3,2 0,3 1,0 0,-1 1,0 0,-1 -1,0 0,-1 -1,0 z m 3,2 0,1 -1,0 0,1 1,0 0,0.99994 1,0 0,-2.99994 -1,0 z m -3,2 0,2.99994 1,0 0,-1 1,0 0,-1 -1,0 0,-0.99994 -1,0 z m 3,1.99994 0,1 -1,0 0,1 1,0 0,1 1,0 0,-3 -1,0 z m -3,2 0,3 1,0 0,-1 1,0 0,-1 -1,0 0,-1 -1,0 z m 3,2 0,1 -1,0 0,1 1,0 0,1 1,0 0,-3 -1,0 z m -3,2 0,3 1,0 0,-1 1,0 0,-1 -1,0 0,-1 -1,0 z m 3,2 0,1 -1,0 0,1 1,0 0,1 1,0 0,-3 -1,0 z m -3,2 0,3 1,0 0,-1 1,0 0,-1 -1,0 0,-1 -1,0 z m 3,2 0,1 -1,0 0,1 1,0 0,1 1,0 0,-3 -1,0 z m -3,2 0,3 1,0 0,-1 1,0 0,-1 -1,0 0,-1 -1,0 z m 3,2 0,1 -1,0 0,1 1,0 0,1 1,0 0,-3 -1,0 z m -3,2 0,3.0001 1,0 0,-1 1,0 0,-1.0001 -1,0 0,-1 -1,0 z m 3,2.0001 0,1 -1,0 0,1 1,0 0,1 1,0 0,-3 -1,0 z m -3,2 0,3 1,0 0,-1 1,0 0,-1 -1,0 0,-1 -1,0 z m 3,2 0,1 -1,0 0,1 1,0 0,1 1,0 0,-3 -1,0 z m -3,2 0,3 1,0 0,-1 1,0 0,-1 -1,0 0,-1 -1,0 z m 3,2 0,1 -1,0 0,1 1,0 0,1 1,0 0,-3 -1,0 z m -3,2 0,3 1,0 0,-1 1,0 0,-1 -1,0 0,-1 -1,0 z m 3,2 0,1 1,0 0,-1 -1,0 z"
       id="rect3853"
       inkscape:connector-curvature="0" />
    <path
       inkscape:connector-curvature="0"
       id="path3842"
       d="m 21.999985,966.36196 0,4 2,0 0,2 -2,0 0,5.00022 8,0 0,-5.00022 -2,0 0,-2 2,0 0,-4 z m 2,8 2,0 2,0 0,2 -2,0 -2,0 z"
       style="opacity:0.35;fill:#dcdcdc;fill-opacity:1;stroke:#000000;stroke-width:1.99999785;stroke-miterlimit:4;stroke-opacity:1;stroke-dasharray:none"
       sodipodi:nodetypes="cccccccccccccccccccc" />
    <path
       style="fill:url(#radialGradient3926);fill-opacity:1;stroke:none"
       d="m 21.999985,965.36196 0,4 2,0 0,2 -2,0 0,6 8,0 0,-6 -2,0 0,-2 2,0 0,-4 -8,0 z m 2,8 2,0 2,0 0,2 -2,0 -2,0 0,-2 z"
       id="rect3848"
       inkscape:connector-curvature="0" />
    <path
       style="fill:#333333;fill-opacity:1;stroke:none"
       d="M 54 52 L 54 54 L 56 54 L 58 54 L 60 54 L 60 56 L 62 56 L 62 54 L 62 52 L 60 52 L 58 52 L 56 52 L 54 52 z M 60 56 L 58 56 L 58 58 L 58 60 L 60 60 L 60 58 L 60 56 z M 58 60 L 56 60 L 56 62 L 56 64 L 58 64 L 58 62 L 58 60 z "
       transform="translate(0,956.36218)"
       id="rect3831" />
    <path
       style="fill:#ffffff;fill-opacity:1;stroke:none"
       d="m 67,1008.3622 0,2 0,2 2,0 0,-2 2,0 2,0 0,2 2,0 0,-2 0,-2 -2,0 -2,0 -2,0 -2,0 z m 6,4 -2,0 0,2 2,0 0,-2 z m -2,2 -2,0 0,2 2,0 0,-2 z m -2,2 -2,0 0,2 0,2 2,0 2,0 2,0 2,0 0,-2 0,-2 -2,0 0,2 -2,0 -2,0 0,-2 z"
       id="rect3849"
       inkscape:connector-curvature="0" />
  </g>
</svg>
