<?xml version="1.0" encoding="UTF-8" standalone="no"?>
<!-- Created with Inkscape (http://www.inkscape.org/) -->

<svg
   xmlns:dc="http://purl.org/dc/elements/1.1/"
   xmlns:cc="http://creativecommons.org/ns#"
   xmlns:rdf="http://www.w3.org/1999/02/22-rdf-syntax-ns#"
   xmlns:svg="http://www.w3.org/2000/svg"
   xmlns="http://www.w3.org/2000/svg"
   xmlns:xlink="http://www.w3.org/1999/xlink"
   xmlns:sodipodi="http://sodipodi.sourceforge.net/DTD/sodipodi-0.dtd"
   xmlns:inkscape="http://www.inkscape.org/namespaces/inkscape"
   width="96"
   height="96"
   id="svg2"
   version="1.1"
   inkscape:version="0.48.3.1 r9886"
   sodipodi:docname="application-vnd.ms-excel.svg">
  <defs
     id="defs4">
    <linearGradient
       id="linearGradient3821">
      <stop
         style="stop-color:#1e5d21;stop-opacity:1;"
         offset="0"
         id="stop3823" />
      <stop
         style="stop-color:#53a455;stop-opacity:1;"
         offset="1"
         id="stop3826" />
    </linearGradient>
    <linearGradient
       id="linearGradient3813">
      <stop
         style="stop-color:#bbfd81;stop-opacity:1;"
         offset="0"
         id="stop3815" />
      <stop
         style="stop-color:#40b62c;stop-opacity:1;"
         offset="1"
         id="stop3817" />
    </linearGradient>
    <linearGradient
       id="linearGradient3784">
      <stop
         style="stop-color:#646464;stop-opacity:1;"
         offset="0"
         id="stop3786" />
      <stop
         style="stop-color:#8c8c8c;stop-opacity:1;"
         offset="1"
         id="stop3788" />
    </linearGradient>
    <linearGradient
       id="linearGradient3776">
      <stop
         style="stop-color:#fafafa;stop-opacity:1;"
         offset="0"
         id="stop3778" />
      <stop
         style="stop-color:#c8c8c8;stop-opacity:1;"
         offset="1"
         id="stop3780" />
    </linearGradient>
    <linearGradient
       id="linearGradient3817">
      <stop
         style="stop-color:#ffffff;stop-opacity:1;"
         offset="0"
         id="stop3819" />
      <stop
         id="stop3827"
         offset="0.05455951"
         style="stop-color:#ffffff;stop-opacity:0.23529412;" />
      <stop
         id="stop3825"
         offset="0.95526141"
         style="stop-color:#ffffff;stop-opacity:0.15686275;" />
      <stop
         style="stop-color:#ffffff;stop-opacity:0.39215687;"
         offset="1"
         id="stop3821" />
    </linearGradient>
    <radialGradient
       cx="4.9929786"
       cy="43.5"
       r="2.5"
       fx="4.9929786"
       fy="43.5"
       id="radialGradient2873-966-168"
       xlink:href="#linearGradient3688-166-749"
       gradientUnits="userSpaceOnUse"
       gradientTransform="matrix(2.003784,0,0,1.4,27.98813,-17.4)" />
    <linearGradient
       id="linearGradient3688-166-749">
      <stop
         id="stop2883"
         style="stop-color:#181818;stop-opacity:1"
         offset="0" />
      <stop
         id="stop2885"
         style="stop-color:#181818;stop-opacity:0"
         offset="1" />
    </linearGradient>
    <radialGradient
       cx="4.9929786"
       cy="43.5"
       r="2.5"
       fx="4.9929786"
       fy="43.5"
       id="radialGradient2875-742-326"
       xlink:href="#linearGradient3688-464-309"
       gradientUnits="userSpaceOnUse"
       gradientTransform="matrix(2.003784,0,0,1.4,-20.01187,-104.4)" />
    <linearGradient
       id="linearGradient3688-464-309">
      <stop
         id="stop2889"
         style="stop-color:#181818;stop-opacity:1"
         offset="0" />
      <stop
         id="stop2891"
         style="stop-color:#181818;stop-opacity:0"
         offset="1" />
    </linearGradient>
    <linearGradient
       x1="25.058096"
       y1="47.027729"
       x2="25.058096"
       y2="39.999443"
       id="linearGradient2877-634-617"
       xlink:href="#linearGradient3702-501-757"
       gradientUnits="userSpaceOnUse" />
    <linearGradient
       id="linearGradient3702-501-757">
      <stop
         id="stop2895"
         style="stop-color:#181818;stop-opacity:0"
         offset="0" />
      <stop
         id="stop2897"
         style="stop-color:#181818;stop-opacity:1"
         offset="0.5" />
      <stop
         id="stop2899"
         style="stop-color:#181818;stop-opacity:0"
         offset="1" />
    </linearGradient>
    <linearGradient
       inkscape:collect="always"
       xlink:href="#linearGradient3817"
       id="linearGradient3823"
       x1="47.214287"
       y1="965.25507"
       x2="47.214287"
       y2="1042.9185"
       gradientUnits="userSpaceOnUse" />
    <radialGradient
       inkscape:collect="always"
       xlink:href="#linearGradient3776"
       id="radialGradient3782"
       cx="48.357143"
       cy="972.93353"
       fx="48.357143"
       fy="972.93353"
       r="40"
       gradientUnits="userSpaceOnUse"
       gradientTransform="matrix(9.1992568e-7,2.1785165,-1.7412775,7.3529206e-7,1742.5044,867.58604)" />
    <linearGradient
       inkscape:collect="always"
       xlink:href="#linearGradient3784"
       id="linearGradient3790"
       x1="25.5"
       y1="1043.6552"
       x2="25.5"
       y2="965.07648"
       gradientUnits="userSpaceOnUse" />
    <linearGradient
       inkscape:collect="always"
       xlink:href="#linearGradient3817"
       id="linearGradient3803"
       x1="19.714285"
       y1="965.61218"
       x2="19.714285"
       y2="1043.2908"
       gradientUnits="userSpaceOnUse" />
    <radialGradient
       inkscape:collect="always"
       xlink:href="#linearGradient3813"
       id="radialGradient3819"
       cx="19.535715"
       cy="995.0318"
       fx="19.535715"
       fy="995.0318"
       r="11"
       gradientTransform="matrix(8.9921391e-7,6.9968015,-4.5454844,5.841759e-7,4542.4372,833.74531)"
       gradientUnits="userSpaceOnUse" />
    <linearGradient
       inkscape:collect="always"
       xlink:href="#linearGradient3821"
       id="linearGradient3828"
       x1="12.857142"
       y1="1042.5765"
       x2="12.857142"
       y2="964.36218"
       gradientUnits="userSpaceOnUse" />
  </defs>
  <sodipodi:namedview
     id="base"
     pagecolor="#ffffff"
     bordercolor="#666666"
     borderopacity="1.0"
     inkscape:pageopacity="0.0"
     inkscape:pageshadow="2"
     inkscape:zoom="2.890625"
     inkscape:cx="31.231079"
     inkscape:cy="37.730342"
     inkscape:document-units="px"
     inkscape:current-layer="layer1"
     showgrid="false"
     inkscape:window-width="1280"
     inkscape:window-height="756"
     inkscape:window-x="0"
     inkscape:window-y="24"
     inkscape:window-maximized="1" />
  <metadata
     id="metadata7">
    <rdf:RDF>
      <cc:Work
         rdf:about="">
        <dc:format>image/svg+xml</dc:format>
        <dc:type
           rdf:resource="http://purl.org/dc/dcmitype/StillImage" />
        <dc:title></dc:title>
      </cc:Work>
    </rdf:RDF>
  </metadata>
  <g
     inkscape:label="Livello 1"
     inkscape:groupmode="layer"
     id="layer1"
     transform="translate(0,-956.36218)">
    <g
       style="display:inline"
       id="g2036"
       transform="matrix(2.1999991,0,0,0.88888944,-4.8000008,1006.5844)">
      <g
         style="opacity:0.4"
         id="g3712"
         transform="matrix(1.052632,0,0,1.285713,-1.263158,-13.42854)">
        <rect
           style="fill:url(#radialGradient2873-966-168);fill-opacity:1;stroke:none"
           id="rect2801"
           y="40"
           x="38"
           height="7"
           width="5" />
        <rect
           style="fill:url(#radialGradient2875-742-326);fill-opacity:1;stroke:none"
           id="rect3696"
           transform="scale(-1,-1)"
           y="-47"
           x="-10"
           height="7"
           width="5" />
        <rect
           style="fill:url(#linearGradient2877-634-617);fill-opacity:1;stroke:none"
           id="rect3700"
           y="40"
           x="10"
           height="7.0000005"
           width="28" />
      </g>
    </g>
    <rect
       style="fill:url(#radialGradient3782);fill-opacity:1;stroke:url(#linearGradient3790);stroke-opacity:1"
       id="rect2985"
       width="79"
       height="79"
       x="8.5"
       y="964.86218"
       rx="3"
       ry="3" />
    <rect
       ry="2"
       rx="2"
       y="965.86218"
       x="9.5"
       height="77"
       width="77"
       id="rect3815"
       style="fill:none;stroke:url(#linearGradient3823);stroke-opacity:1;opacity:0.50000000000000000" />
    <path
       style="fill:url(#radialGradient3819);fill-opacity:1;stroke:url(#linearGradient3828);stroke-opacity:1"
       d="m 11.5,964.86218 18,0 0,79.00002 -18,0 c -1.662,0 -3,-1.338 -3,-3 l 0,-73.00002 c 0,-1.662 1.338,-3 3,-3 z"
       id="rect3792"
       inkscape:connector-curvature="0"
       sodipodi:nodetypes="sccssss" />
    <path
       sodipodi:nodetypes="sccssss"
       inkscape:connector-curvature="0"
       id="path3795"
       d="m 12,965.86218 16.5,0 0,77.00002 -16.5,0 c -1.662,0 -2.5,-0.838 -2.5,-2.5 l 0,-72.00002 c 0,-1.662 0.838,-2.5 2.5,-2.5 z"
       style="fill:none;fill-opacity:1;stroke:url(#linearGradient3803);stroke-opacity:1;opacity:0.3" />
    <rect
       style="opacity:0.3;fill:#ffffff;fill-opacity:1;stroke:none"
       id="rect3830"
       width="1"
       height="78"
       x="30"
       y="965.36218" />
    <path
       style="opacity:0.5;fill:#ffffff;fill-opacity:1;stroke:none"
       d="m 35,972.86218 0,1 0,3 0,1 0,3 0,1 0,3 0,1 0,3 0,1 0,3 0,1 0,3 0,1 0,3.00002 0,1 0,3 0,1 0,3 0,1 0,3 0,1 0,3 0,1 0,3 0,1 0,3 0,1 0,3 0,1 0,3 0,1 0,3 0,1 32,0 1,0 13,0 1,0 0,-65.00002 -1,0 -13,0 -1,0 -32,0 z m 1,1 5,0 0,3 -5,0 0,-3 z m 6,0 11,0 0,3 -11,0 0,-3 z m 12,0 13,0 0,3 -13,0 0,-3 z m 14,0 13,0 0,3 -13,0 0,-3 z m -32,4 5,0 0,3 -5,0 0,-3 z m 6,0 11,0 0,3 -11,0 0,-3 z m 12,0 13,0 0,3 -13,0 0,-3 z m 14,0 13,0 0,3 -13,0 0,-3 z m -32,4 5,0 0,3 -5,0 0,-3 z m 6,0 11,0 0,3 -11,0 0,-3 z m 12,0 13,0 0,3 -13,0 0,-3 z m 14,0 13,0 0,3 -13,0 0,-3 z m -32,4 5,0 0,3 -5,0 0,-3 z m 6,0 11,0 0,3 -11,0 0,-3 z m 12,0 13,0 0,3 -13,0 0,-3 z m 14,0 13,0 0,3 -13,0 0,-3 z m -32,4 5,0 0,3 -5,0 0,-3 z m 6,0 11,0 0,3 -11,0 0,-3 z m 12,0 13,0 0,3 -13,0 0,-3 z m 14,0 13,0 0,3 -13,0 0,-3 z m -32,4 5,0 0,3 -5,0 0,-3 z m 6,0 11,0 0,3 -11,0 0,-3 z m 12,0 13,0 0,3 -13,0 0,-3 z m 14,0 13,0 0,3 -13,0 0,-3 z m -32,4 5,0 0,3.00002 -5,0 0,-3.00002 z m 6,0 11,0 0,3.00002 -11,0 0,-3.00002 z m 12,0 13,0 0,3.00002 -13,0 0,-3.00002 z m 14,0 13,0 0,3.00002 -13,0 0,-3.00002 z m -32,4.00002 5,0 0,3 -5,0 0,-3 z m 6,0 11,0 0,3 -11,0 0,-3 z m 12,0 13,0 0,3 -13,0 0,-3 z m 14,0 13,0 0,3 -13,0 0,-3 z m -32,4 5,0 0,3 -5,0 0,-3 z m 6,0 11,0 0,3 -11,0 0,-3 z m 12,0 13,0 0,3 -13,0 0,-3 z m 14,0 13,0 0,3 -13,0 0,-3 z m -32,4 5,0 0,3 -5,0 0,-3 z m 6,0 11,0 0,3 -11,0 0,-3 z m 12,0 13,0 0,3 -13,0 0,-3 z m 14,0 13,0 0,3 -13,0 0,-3 z m -32,4 5,0 0,3 -5,0 0,-3 z m 6,0 11,0 0,3 -11,0 0,-3 z m 12,0 13,0 0,3 -13,0 0,-3 z m 14,0 13,0 0,3 -13,0 0,-3 z m -32,4 5,0 0,3 -5,0 0,-3 z m 6,0 11,0 0,3 -11,0 0,-3 z m 12,0 13,0 0,3 -13,0 0,-3 z m 14,0 13,0 0,3 -13,0 0,-3 z m -32,4 5,0 0,3 -5,0 0,-3 z m 6,0 11,0 0,3 -11,0 0,-3 z m 12,0 13,0 0,3 -13,0 0,-3 z m 14,0 13,0 0,3 -13,0 0,-3 z m -32,4 5,0 0,3 -5,0 0,-3 z m 6,0 11,0 0,3 -11,0 0,-3 z m 12,0 13,0 0,3 -13,0 0,-3 z m 14,0 13,0 0,3 -13,0 0,-3 z m -32,4 5,0 0,3 -5,0 0,-3 z m 6,0 11,0 0,3 -11,0 0,-3 z m 12,0 13,0 0,3 -13,0 0,-3 z m 14,0 13,0 0,3 -13,0 0,-3 z m -32,4 5,0 0,3 -5,0 0,-3 z m 6,0 11,0 0,3 -11,0 0,-3 z m 12,0 13,0 0,3 -13,0 0,-3 z m 14,0 13,0 0,3 -13,0 0,-3 z"
       id="rect4012"
       inkscape:connector-curvature="0" />
    <rect
       style="fill:#8c8c8c;fill-opacity:1;stroke:none"
       id="rect3835"
       width="45.999985"
       height="1"
       x="35"
       y="972.36218" />
    <rect
       y="980.36218"
       x="35"
       height="1"
       width="45.999985"
       id="rect3837"
       style="fill:#8c8c8c;fill-opacity:1;stroke:none" />
    <rect
       style="fill:#8c8c8c;fill-opacity:1;stroke:none"
       id="rect3839"
       width="45.999985"
       height="1"
       x="35"
       y="988.36218" />
    <rect
       y="996.36218"
       x="35"
       height="1"
       width="45.999985"
       id="rect3841"
       style="fill:#8c8c8c;fill-opacity:1;stroke:none" />
    <rect
       style="fill:#8c8c8c;fill-opacity:1;stroke:none"
       id="rect3843"
       width="45.999985"
       height="1"
       x="35"
       y="1004.3622" />
    <rect
       y="1012.3622"
       x="35"
       height="1"
       width="45.999985"
       id="rect3845"
       style="fill:#8c8c8c;fill-opacity:1;stroke:none" />
    <rect
       style="fill:#8c8c8c;fill-opacity:1;stroke:none"
       id="rect3847"
       width="45.999985"
       height="1"
       x="35"
       y="1020.3622" />
    <rect
       y="1028.3622"
       x="35"
       height="1"
       width="45.999985"
       id="rect3849"
       style="fill:#8c8c8c;fill-opacity:1;stroke:none" />
    <rect
       style="fill:#8c8c8c;fill-opacity:1;stroke:none"
       id="rect3851"
       width="45.999985"
       height="1"
       x="35"
       y="1036.3622" />
    <rect
       style="fill:#8c8c8c;fill-opacity:1;stroke:none"
       id="rect3853"
       width="64.999969"
       height="1"
       x="-1037.3619"
       y="35"
       transform="matrix(0,-1,1,0,0,0)" />
    <rect
       transform="matrix(0,-1,1,0,0,0)"
       y="41"
       x="-1037.3619"
       height="1"
       width="64.999969"
       id="rect3855"
       style="fill:#8c8c8c;fill-opacity:1;stroke:none" />
    <rect
       transform="matrix(0,-1,1,0,0,0)"
       y="81"
       x="-1037.3619"
       height="1"
       width="64.999969"
       id="rect3859"
       style="fill:#8c8c8c;fill-opacity:1;stroke:none" />
    <rect
       style="fill:#8c8c8c;fill-opacity:1;stroke:none"
       id="rect3903"
       width="45.999985"
       height="1"
       x="35"
       y="976.36218" />
    <rect
       y="984.36218"
       x="35"
       height="1"
       width="45.999985"
       id="rect3905"
       style="fill:#8c8c8c;fill-opacity:1;stroke:none" />
    <rect
       style="fill:#8c8c8c;fill-opacity:1;stroke:none"
       id="rect3907"
       width="45.999985"
       height="1"
       x="35"
       y="992.36218" />
    <rect
       y="1000.3622"
       x="35"
       height="1"
       width="45.999985"
       id="rect3909"
       style="fill:#8c8c8c;fill-opacity:1;stroke:none" />
    <rect
       style="fill:#8c8c8c;fill-opacity:1;stroke:none"
       id="rect3911"
       width="45.999985"
       height="1"
       x="35"
       y="1008.3622" />
    <rect
       y="1016.3622"
       x="35"
       height="1"
       width="45.999985"
       id="rect3913"
       style="fill:#8c8c8c;fill-opacity:1;stroke:none" />
    <rect
       style="fill:#8c8c8c;fill-opacity:1;stroke:none"
       id="rect3915"
       width="45.999985"
       height="1"
       x="35"
       y="1024.3622" />
    <rect
       y="1032.3622"
       x="35"
       height="1"
       width="45.999985"
       id="rect3917"
       style="fill:#8c8c8c;fill-opacity:1;stroke:none" />
    <rect
       style="fill:#8c8c8c;fill-opacity:1;stroke:none"
       id="rect3919"
       width="64.999969"
       height="1"
       x="-1037.3619"
       y="53"
       transform="matrix(0,-1,1,0,0,0)" />
    <rect
       transform="matrix(0,-1,1,0,0,0)"
       y="67"
       x="-1037.3619"
       height="1"
       width="64.999969"
       id="rect3921"
       style="fill:#8c8c8c;fill-opacity:1;stroke:none" />
    <rect
       style="fill:#b4b4b4;fill-opacity:1;stroke:none"
       id="rect3925"
       width="5"
       height="3"
       x="36"
       y="973.36218" />
    <rect
       y="977.36218"
       x="36"
       height="3"
       width="5"
       id="rect3927"
       style="fill:#b4b4b4;fill-opacity:1;stroke:none" />
    <rect
       style="fill:#b4b4b4;fill-opacity:1;stroke:none"
       id="rect3929"
       width="5"
       height="3"
       x="36"
       y="981.36218" />
    <rect
       y="985.36218"
       x="36"
       height="3"
       width="5"
       id="rect3931"
       style="fill:#b4b4b4;fill-opacity:1;stroke:none" />
    <rect
       style="fill:#b4b4b4;fill-opacity:1;stroke:none"
       id="rect3933"
       width="5"
       height="3"
       x="36"
       y="989.36218" />
    <rect
       y="993.36218"
       x="36"
       height="3"
       width="5"
       id="rect3935"
       style="fill:#b4b4b4;fill-opacity:1;stroke:none" />
    <rect
       style="fill:#b4b4b4;fill-opacity:1;stroke:none"
       id="rect3937"
       width="5"
       height="3"
       x="36"
       y="997.36218" />
    <rect
       y="1001.3622"
       x="36"
       height="3"
       width="5"
       id="rect3939"
       style="fill:#b4b4b4;fill-opacity:1;stroke:none" />
    <rect
       style="fill:#b4b4b4;fill-opacity:1;stroke:none"
       id="rect3941"
       width="5"
       height="3"
       x="36"
       y="1005.3622" />
    <rect
       y="1009.3622"
       x="36"
       height="3"
       width="5"
       id="rect3943"
       style="fill:#b4b4b4;fill-opacity:1;stroke:none" />
    <rect
       style="fill:#b4b4b4;fill-opacity:1;stroke:none"
       id="rect3945"
       width="5"
       height="3"
       x="36"
       y="1013.3622" />
    <rect
       y="1017.3622"
       x="36"
       height="3"
       width="5"
       id="rect3947"
       style="fill:#b4b4b4;fill-opacity:1;stroke:none" />
    <rect
       style="fill:#b4b4b4;fill-opacity:1;stroke:none"
       id="rect3949"
       width="5"
       height="3"
       x="36"
       y="1021.3622" />
    <rect
       y="1025.3622"
       x="36"
       height="3"
       width="5"
       id="rect3951"
       style="fill:#b4b4b4;fill-opacity:1;stroke:none" />
    <rect
       style="fill:#b4b4b4;fill-opacity:1;stroke:none"
       id="rect3953"
       width="5"
       height="3"
       x="36"
       y="1029.3622" />
    <rect
       y="1033.3622"
       x="36"
       height="3"
       width="5"
       id="rect3955"
       style="fill:#b4b4b4;fill-opacity:1;stroke:none" />
    <rect
       y="973.36218"
       x="42"
       height="3"
       width="11.000009"
       id="rect3957"
       style="fill:#b4b4b4;fill-opacity:1;stroke:none" />
    <rect
       style="fill:#b4b4b4;fill-opacity:1;stroke:none"
       id="rect3959"
       width="13.000004"
       height="3"
       x="54"
       y="973.36218" />
    <rect
       y="973.36218"
       x="68"
       height="3"
       width="13.000004"
       id="rect3961"
       style="fill:#b4b4b4;fill-opacity:1;stroke:none" />
    <rect
       style="fill:#a8f274;fill-opacity:1;stroke:none"
       id="rect3963"
       width="13.000004"
       height="3"
       x="68"
       y="981.36218" />
  </g>
</svg>
