<?xml version="1.0" encoding="UTF-8" standalone="no"?>
<!-- Created with Inkscape (http://www.inkscape.org/) -->

<svg
   xmlns:dc="http://purl.org/dc/elements/1.1/"
   xmlns:cc="http://creativecommons.org/ns#"
   xmlns:rdf="http://www.w3.org/1999/02/22-rdf-syntax-ns#"
   xmlns:svg="http://www.w3.org/2000/svg"
   xmlns="http://www.w3.org/2000/svg"
   xmlns:xlink="http://www.w3.org/1999/xlink"
   xmlns:sodipodi="http://sodipodi.sourceforge.net/DTD/sodipodi-0.dtd"
   xmlns:inkscape="http://www.inkscape.org/namespaces/inkscape"
   width="96"
   height="96"
   id="svg2"
   version="1.1"
   inkscape:version="0.48.3.1 r9886"
   sodipodi:docname="addressbook.svg">
  <defs
     id="defs4">
    <linearGradient
       id="linearGradient3949">
      <stop
         style="stop-color:#b9eee0;stop-opacity:1;"
         offset="0"
         id="stop3951" />
      <stop
         style="stop-color:#7cd3e0;stop-opacity:1;"
         offset="1"
         id="stop3953" />
    </linearGradient>
    <linearGradient
       id="linearGradient3941">
      <stop
         style="stop-color:#ea9bea;stop-opacity:1;"
         offset="0"
         id="stop3943" />
      <stop
         style="stop-color:#c938e0;stop-opacity:1;"
         offset="1"
         id="stop3945" />
    </linearGradient>
    <linearGradient
       id="linearGradient3933">
      <stop
         style="stop-color:#fa4646;stop-opacity:1;"
         offset="0"
         id="stop3935" />
      <stop
         style="stop-color:#c13815;stop-opacity:1;"
         offset="1"
         id="stop3937" />
    </linearGradient>
    <linearGradient
       id="linearGradient3863">
      <stop
         style="stop-color:#ffea64;stop-opacity:1;"
         offset="0"
         id="stop3865" />
      <stop
         style="stop-color:#eac911;stop-opacity:1;"
         offset="1"
         id="stop3867" />
    </linearGradient>
    <linearGradient
       id="linearGradient3819">
      <stop
         style="stop-color:#d23228;stop-opacity:1;"
         offset="0"
         id="stop3822" />
      <stop
         id="stop3828"
         offset="0.02586383"
         style="stop-color:#fa4632;stop-opacity:1;" />
      <stop
         style="stop-color:#d23228;stop-opacity:1;"
         offset="0.0601431"
         id="stop3830" />
      <stop
         style="stop-color:#d23228;stop-opacity:1;"
         offset="1"
         id="stop3824" />
    </linearGradient>
    <linearGradient
       id="linearGradient3804">
      <stop
         id="stop3806"
         offset="0"
         style="stop-color:#7adce6;stop-opacity:1;" />
      <stop
         id="stop3808"
         offset="1"
         style="stop-color:#55bee6;stop-opacity:1;" />
    </linearGradient>
    <linearGradient
       id="linearGradient3798">
      <stop
         id="stop3800"
         offset="0"
         style="stop-color:#4bafb4;stop-opacity:1;" />
      <stop
         id="stop3802"
         offset="1"
         style="stop-color:#0b7bb7;stop-opacity:1;" />
    </linearGradient>
    <linearGradient
       id="linearGradient3784">
      <stop
         style="stop-color:#379ba0;stop-opacity:1;"
         offset="0"
         id="stop3786" />
      <stop
         style="stop-color:#0b7bb7;stop-opacity:1;"
         offset="1"
         id="stop3788" />
    </linearGradient>
    <linearGradient
       id="linearGradient3776">
      <stop
         style="stop-color:#64dacf;stop-opacity:1;"
         offset="0"
         id="stop3778" />
      <stop
         style="stop-color:#2c93bd;stop-opacity:1;"
         offset="1"
         id="stop3780" />
    </linearGradient>
    <linearGradient
       id="linearGradient3817">
      <stop
         style="stop-color:#ffffff;stop-opacity:1;"
         offset="0"
         id="stop3819" />
      <stop
         id="stop3827"
         offset="0.05455951"
         style="stop-color:#ffffff;stop-opacity:0.23529412;" />
      <stop
         id="stop3825"
         offset="0.95526141"
         style="stop-color:#ffffff;stop-opacity:0.15686275;" />
      <stop
         style="stop-color:#ffffff;stop-opacity:0.39215687;"
         offset="1"
         id="stop3821" />
    </linearGradient>
    <radialGradient
       cx="4.9929786"
       cy="43.5"
       r="2.5"
       fx="4.9929786"
       fy="43.5"
       id="radialGradient2873-966-168"
       xlink:href="#linearGradient3688-166-749"
       gradientUnits="userSpaceOnUse"
       gradientTransform="matrix(2.003784,0,0,1.4,27.98813,-17.4)" />
    <linearGradient
       id="linearGradient3688-166-749">
      <stop
         id="stop2883"
         style="stop-color:#181818;stop-opacity:1"
         offset="0" />
      <stop
         id="stop2885"
         style="stop-color:#181818;stop-opacity:0"
         offset="1" />
    </linearGradient>
    <radialGradient
       cx="4.9929786"
       cy="43.5"
       r="2.5"
       fx="4.9929786"
       fy="43.5"
       id="radialGradient2875-742-326"
       xlink:href="#linearGradient3688-464-309"
       gradientUnits="userSpaceOnUse"
       gradientTransform="matrix(2.003784,0,0,1.4,-20.01187,-104.4)" />
    <linearGradient
       id="linearGradient3688-464-309">
      <stop
         id="stop2889"
         style="stop-color:#181818;stop-opacity:1"
         offset="0" />
      <stop
         id="stop2891"
         style="stop-color:#181818;stop-opacity:0"
         offset="1" />
    </linearGradient>
    <linearGradient
       x1="25.058096"
       y1="47.027729"
       x2="25.058096"
       y2="39.999443"
       id="linearGradient2877-634-617"
       xlink:href="#linearGradient3702-501-757"
       gradientUnits="userSpaceOnUse" />
    <linearGradient
       id="linearGradient3702-501-757">
      <stop
         id="stop2895"
         style="stop-color:#181818;stop-opacity:0"
         offset="0" />
      <stop
         id="stop2897"
         style="stop-color:#181818;stop-opacity:1"
         offset="0.5" />
      <stop
         id="stop2899"
         style="stop-color:#181818;stop-opacity:0"
         offset="1" />
    </linearGradient>
    <linearGradient
       inkscape:collect="always"
       xlink:href="#linearGradient3817"
       id="linearGradient3823"
       x1="47.214287"
       y1="965.25507"
       x2="47.214287"
       y2="1042.9185"
       gradientUnits="userSpaceOnUse" />
    <radialGradient
       inkscape:collect="always"
       xlink:href="#linearGradient3776"
       id="radialGradient3782"
       cx="47.285713"
       cy="972.2193"
       fx="47.285713"
       fy="972.2193"
       r="40"
       gradientUnits="userSpaceOnUse"
       gradientTransform="matrix(9.3803314e-7,2.0448183,-1.6162934,7.4145305e-7,1618.6773,875.52789)" />
    <linearGradient
       inkscape:collect="always"
       xlink:href="#linearGradient3784"
       id="linearGradient3790"
       x1="20.142857"
       y1="964.54077"
       x2="20.142857"
       y2="1043.984"
       gradientUnits="userSpaceOnUse" />
    <radialGradient
       inkscape:collect="always"
       xlink:href="#linearGradient3804"
       id="radialGradient3794"
       gradientUnits="userSpaceOnUse"
       gradientTransform="matrix(4.1666326e-8,1.5720098,-1.0359363,2.7457628e-8,1064.4416,897.14246)"
       cx="45.713791"
       cy="980.83685"
       fx="45.713791"
       fy="980.83685"
       r="40" />
    <linearGradient
       inkscape:collect="always"
       xlink:href="#linearGradient3784"
       id="linearGradient3815"
       gradientUnits="userSpaceOnUse"
       gradientTransform="translate(15,0)"
       x1="20.142857"
       y1="964.54077"
       x2="20.142857"
       y2="1043.984" />
    <linearGradient
       inkscape:collect="always"
       xlink:href="#linearGradient3819"
       id="linearGradient3826"
       x1="63.57143"
       y1="7.9642868"
       x2="63.57143"
       y2="87.432114"
       gradientUnits="userSpaceOnUse"
       gradientTransform="translate(6.4999848,956.39789)" />
    <radialGradient
       inkscape:collect="always"
       xlink:href="#linearGradient3863"
       id="radialGradient3869"
       cx="84.276787"
       cy="975.48645"
       fx="84.276787"
       fy="975.48645"
       r="5.5"
       gradientTransform="matrix(-0.86688312,5.3852983e-6,-1.2728637e-5,-2.0489563,157.34733,2974.0102)"
       gradientUnits="userSpaceOnUse" />
    <radialGradient
       inkscape:collect="always"
       xlink:href="#linearGradient3933"
       id="radialGradient3939"
       cx="84.298225"
       cy="994.69879"
       fx="84.298225"
       fy="994.69879"
       r="5.5"
       gradientTransform="matrix(-1.089421,6.6449051e-7,-1.3908204e-6,-2.2802267,176.13586,3262.7483)"
       gradientUnits="userSpaceOnUse" />
    <radialGradient
       inkscape:collect="always"
       xlink:href="#linearGradient3941"
       id="radialGradient3947"
       cx="84.424492"
       cy="1013.6987"
       fx="84.424492"
       fy="1013.6987"
       r="5.5"
       gradientTransform="matrix(-0.99252839,-9.0460761e-6,1.62856e-5,-1.7868433,168.20169,2824.931)"
       gradientUnits="userSpaceOnUse" />
    <radialGradient
       inkscape:collect="always"
       xlink:href="#linearGradient3949"
       id="radialGradient3955"
       cx="84.298225"
       cy="1032.8213"
       fx="84.298225"
       fy="1032.8213"
       r="5.5"
       gradientTransform="matrix(-1.0203697,1.3146005e-5,-2.3904447e-5,-1.855421,170.33827,2949.1161)"
       gradientUnits="userSpaceOnUse" />
  </defs>
  <sodipodi:namedview
     id="base"
     pagecolor="#ffffff"
     bordercolor="#666666"
     borderopacity="1.0"
     inkscape:pageopacity="0.0"
     inkscape:pageshadow="2"
     inkscape:zoom="2.8"
     inkscape:cx="25.239599"
     inkscape:cy="45.233886"
     inkscape:document-units="px"
     inkscape:current-layer="layer1"
     showgrid="false"
     inkscape:window-width="1280"
     inkscape:window-height="756"
     inkscape:window-x="0"
     inkscape:window-y="24"
     inkscape:window-maximized="1" />
  <metadata
     id="metadata7">
    <rdf:RDF>
      <cc:Work
         rdf:about="">
        <dc:format>image/svg+xml</dc:format>
        <dc:type
           rdf:resource="http://purl.org/dc/dcmitype/StillImage" />
        <dc:title />
      </cc:Work>
    </rdf:RDF>
  </metadata>
  <g
     inkscape:label="Livello 1"
     inkscape:groupmode="layer"
     id="layer1"
     transform="translate(0,-956.36218)">
    <g
       style="display:inline"
       id="g2036"
       transform="matrix(2.1999991,0,0,0.88888944,-4.8000008,1006.5844)">
      <g
         style="opacity:0.4"
         id="g3712"
         transform="matrix(1.052632,0,0,1.285713,-1.263158,-13.42854)">
        <rect
           style="fill:url(#radialGradient2873-966-168);fill-opacity:1;stroke:none"
           id="rect2801"
           y="40"
           x="38"
           height="7"
           width="5" />
        <rect
           style="fill:url(#radialGradient2875-742-326);fill-opacity:1;stroke:none"
           id="rect3696"
           transform="scale(-1,-1)"
           y="-47"
           x="-10"
           height="7"
           width="5" />
        <rect
           style="fill:url(#linearGradient2877-634-617);fill-opacity:1;stroke:none"
           id="rect3700"
           y="40"
           x="10"
           height="7.0000005"
           width="28" />
      </g>
    </g>
    <rect
       style="fill:url(#radialGradient3782);fill-opacity:1;stroke:url(#linearGradient3790);stroke-opacity:1"
       id="rect2985"
       width="79"
       height="79"
       x="8.5"
       y="964.86218"
       rx="3"
       ry="3" />
    <g
       id="g3927">
      <rect
         style="opacity:0.05000001;fill:#000000;fill-opacity:1;stroke:#000000;stroke-width:3;stroke-miterlimit:4;stroke-opacity:1;stroke-dasharray:none"
         id="rect3915"
         width="11"
         height="16.999975"
         x="74"
         y="967.362"
         rx="2"
         ry="1.999997" />
      <rect
         ry="1.999997"
         rx="2"
         y="986.36218"
         x="74"
         height="16.999975"
         width="11"
         id="rect3917"
         style="opacity:0.05000001;fill:#000000;fill-opacity:1;stroke:#000000;stroke-width:3;stroke-miterlimit:4;stroke-opacity:1;stroke-dasharray:none" />
      <rect
         style="opacity:0.05000001;fill:#000000;fill-opacity:1;stroke:#000000;stroke-width:3;stroke-miterlimit:4;stroke-opacity:1;stroke-dasharray:none"
         id="rect3919"
         width="11"
         height="16.999975"
         x="74"
         y="1005.362"
         rx="2"
         ry="1.999997" />
      <rect
         ry="1.999997"
         rx="2"
         y="1024.3622"
         x="74"
         height="16.999975"
         width="11"
         id="rect3921"
         style="opacity:0.05000001;fill:#000000;fill-opacity:1;stroke:#000000;stroke-width:3;stroke-miterlimit:4;stroke-opacity:1;stroke-dasharray:none" />
    </g>
    <g
       id="g3907">
      <rect
         ry="1.999997"
         rx="2"
         y="967.362"
         x="74"
         height="16.999975"
         width="11"
         id="rect3895"
         style="opacity:0.1;fill:#000000;fill-opacity:1;stroke:#000000;stroke-opacity:1;stroke-width:2;stroke-miterlimit:4;stroke-dasharray:none" />
      <rect
         style="opacity:0.1;fill:#000000;fill-opacity:1;stroke:#000000;stroke-opacity:1;stroke-width:2;stroke-miterlimit:4;stroke-dasharray:none"
         id="rect3897"
         width="11"
         height="16.999975"
         x="74"
         y="986.36218"
         rx="2"
         ry="1.999997" />
      <rect
         ry="1.999997"
         rx="2"
         y="1005.362"
         x="74"
         height="16.999975"
         width="11"
         id="rect3899"
         style="opacity:0.1;fill:#000000;fill-opacity:1;stroke:#000000;stroke-opacity:1;stroke-width:2;stroke-miterlimit:4;stroke-dasharray:none" />
      <rect
         style="opacity:0.1;fill:#000000;fill-opacity:1;stroke:#000000;stroke-opacity:1;stroke-width:2;stroke-miterlimit:4;stroke-dasharray:none"
         id="rect3901"
         width="11"
         height="16.999975"
         x="74"
         y="1024.3622"
         rx="2"
         ry="1.999997" />
    </g>
    <g
       id="g3887">
      <rect
         style="fill:#000000;fill-opacity:1;stroke:#000000;stroke-opacity:1;opacity:0.15"
         id="rect3879"
         width="11"
         height="16.999975"
         x="74"
         y="967.362"
         rx="2"
         ry="1.999997" />
      <rect
         ry="1.999997"
         rx="2"
         y="986.36218"
         x="74"
         height="16.999975"
         width="11"
         id="rect3881"
         style="fill:#000000;fill-opacity:1;stroke:#000000;stroke-opacity:1;opacity:0.15" />
      <rect
         style="fill:#000000;fill-opacity:1;stroke:#000000;stroke-opacity:1;opacity:0.15"
         id="rect3883"
         width="11"
         height="16.999975"
         x="74"
         y="1005.362"
         rx="2"
         ry="1.999997" />
      <rect
         ry="1.999997"
         rx="2"
         y="1024.3622"
         x="74"
         height="16.999975"
         width="11"
         id="rect3885"
         style="fill:#000000;fill-opacity:1;stroke:#000000;stroke-opacity:1;opacity:0.15" />
    </g>
    <rect
       style="fill:url(#radialGradient3869);fill-opacity:1;stroke:none"
       id="rect3855"
       width="11"
       height="16.999975"
       x="74"
       y="967.362"
       rx="2"
       ry="1.999997" />
    <rect
       ry="1.999997"
       rx="2"
       y="986.36218"
       x="74"
       height="16.999975"
       width="11"
       id="rect3857"
       style="fill:url(#radialGradient3939);fill-opacity:1;stroke:none" />
    <rect
       style="fill:url(#radialGradient3947);fill-opacity:1;stroke:none"
       id="rect3859"
       width="11"
       height="16.999975"
       x="74"
       y="1005.362"
       rx="2"
       ry="1.999997" />
    <rect
       ry="1.999997"
       rx="2"
       y="1024.3622"
       x="74"
       height="16.999975"
       width="11"
       id="rect3861"
       style="fill:url(#radialGradient3955);fill-opacity:1;stroke:none" />
    <path
       sodipodi:nodetypes="csssscc"
       inkscape:connector-curvature="0"
       id="path3877"
       d="m 27,964.36218 52,0 c 1.662,0 3,1.838 3,3.5 l 0,73.00002 c 0,1.662 -1.338003,3.5032 -3,3.5 l -52,0 z"
       style="opacity:0.02;fill:#000000;fill-opacity:1;stroke:none" />
    <path
       style="opacity:0.07;fill:#000000;fill-opacity:1;stroke:none"
       d="m 26,964.36218 52,0 c 1.662,0 3,1.838 3,3.5 l 0,73.00002 c 0,1.662 -1.338003,3.5032 -3,3.5 l -52,0 z"
       id="path3875"
       inkscape:connector-curvature="0"
       sodipodi:nodetypes="csssscc" />
    <path
       sodipodi:nodetypes="csssscc"
       inkscape:connector-curvature="0"
       id="path3871"
       d="m 25,964.36218 52,0 c 1.662,0 3,1.838 3,3.5 l 0,73.00002 c 0,1.662 -1.338003,3.5032 -3,3.5 l -52,0 z"
       style="fill:#000000;fill-opacity:1;stroke:none;opacity:0.12" />
    <path
       style="fill:url(#radialGradient3794);fill-opacity:1;stroke:url(#linearGradient3815);stroke-opacity:1"
       d="m 23.5,964.86218 52,0 c 1.662,0 3,1.338 3,3 l 0,73.00002 c 0,1.662 -1.338,3 -3,3 l -52,0 z"
       id="rect3792"
       inkscape:connector-curvature="0"
       sodipodi:nodetypes="csssscc" />
    <rect
       style="opacity:0.3;fill:#ffffff;fill-opacity:1;stroke:none"
       id="rect3811"
       width="1"
       height="76"
       x="24.000004"
       y="966.36218" />
    <rect
       style="opacity:0.5;fill:none;stroke:url(#linearGradient3823);stroke-opacity:1"
       id="rect3813"
       width="68"
       height="77"
       x="9.5"
       y="965.86218"
       rx="2"
       ry="2" />
    <rect
       style="fill:url(#linearGradient3826);fill-opacity:1;stroke:none"
       id="rect3817"
       width="2.0000017"
       height="80"
       x="68.999962"
       y="964.36218" />
    <rect
       y="966.36218"
       x="67.999962"
       height="76"
       width="1.0000008"
       id="rect3832"
       style="opacity:0.3;fill:#ffffff;fill-opacity:1;stroke:none" />
    <rect
       style="opacity:0.7;fill:#2991a7;fill-opacity:1;stroke:none"
       id="rect3834"
       width="1.0000008"
       height="79.999977"
       x="70.999954"
       y="964.36218" />
    <path
       sodipodi:nodetypes="cccssscccssccccccsscccsssccc"
       inkscape:connector-curvature="0"
       id="path3080"
       d="m 46.95312,983.86218 c -4.912208,0 -8.90625,3.85146 -8.90625,8.625 -0.06701,0.8042 -0.07317,1.61061 -0.04687,2.39061 -0.4155,0 -1.5,0.33451 -1.5,0.75 l 0,4.50011 c 0,0.4155 1.0845,0.75 1.5,0.75 l 0.515625,0 c 0.754063,3.164 2.395449,5.7665 4.546875,7.2187 -0.186518,0.2351 -0.369111,0.4771 -0.5625,0.7031 l -1.5,0 c -0.831,0 -1.5,0.669 -1.5,1.5 l 0,1.4063 c -2.103032,1.6539 -4.57398,2.8825 -7.5,3.6562 l 0,10.5 30,0 0,-10.5 c -2.789685,-0.8556 -5.273448,-2.2473 -7.5,-4.0781 l 0,-0.9844 c 0,-0.831 -0.669,-1.5 -1.5,-1.5 l -1.078125,0 c -0.235904,-0.2607 -0.474351,-0.523 -0.703125,-0.7968 2.074704,-1.4666 3.595594,-4.0224 4.3125,-7.125 l 0.46875,0 c 0.4155,0 1.5,-0.3345 1.5,-0.75 l 0,-4.50011 c 0,-0.41549 -1.0845,-0.75 -1.5,-0.75 -0.0095,-0.6515 -0.07092,-1.36 -0.1875,-2.15623 0,-6.39891 -4.873966,-8.74166 -8.859375,-8.85938 z"
       style="opacity:0.3;fill:#ffffff;fill-opacity:1;fill-rule:nonzero;stroke:none" />
    <path
       style="fill:#41aac3;fill-opacity:1;fill-rule:nonzero;stroke:none"
       d="m 46.95312,983.36218 c -4.912208,0 -8.90625,3.85146 -8.90625,8.625 -0.06701,0.8042 -0.07317,1.61061 -0.04687,2.39061 -0.4155,0 -1.5,0.33451 -1.5,0.75 l 0,4.5001 c 0,0.41551 1.0845,0.75001 1.5,0.75001 l 0.515625,0 c 0.754063,3.164 2.395449,5.7665 4.546875,7.2187 -0.186518,0.2351 -0.369111,0.4771 -0.5625,0.7031 l -1.5,0 c -0.831,0 -1.5,0.669 -1.5,1.5 l 0,1.4063 c -2.103032,1.6539 -4.57398,2.8825 -7.5,3.6562 l 0,10.5 30,0 0,-10.5 c -2.789685,-0.8556 -5.273448,-2.2473 -7.5,-4.0781 l 0,-0.9844 c 0,-0.831 -0.669,-1.5 -1.5,-1.5 l -1.078125,0 c -0.235904,-0.2607 -0.474351,-0.523 -0.703125,-0.7968 2.074704,-1.4666 3.595594,-4.0224 4.3125,-7.125 l 0.46875,0 c 0.4155,0 1.5,-0.3345 1.5,-0.75001 l 0,-4.5001 c 0,-0.41549 -1.0845,-0.75 -1.5,-0.75 -0.0095,-0.6515 -0.07092,-1.36 -0.1875,-2.15623 0,-6.39891 -4.873966,-8.74166 -8.859375,-8.85938 z"
       id="path3290"
       inkscape:connector-curvature="0"
       sodipodi:nodetypes="cccssscccssccccccsscccsssccc" />
  </g>
</svg>
