<?xml version="1.0" encoding="UTF-8" standalone="no"?>
<!-- Created with Inkscape (http://www.inkscape.org/) -->

<svg
   xmlns:dc="http://purl.org/dc/elements/1.1/"
   xmlns:cc="http://creativecommons.org/ns#"
   xmlns:rdf="http://www.w3.org/1999/02/22-rdf-syntax-ns#"
   xmlns:svg="http://www.w3.org/2000/svg"
   xmlns="http://www.w3.org/2000/svg"
   xmlns:xlink="http://www.w3.org/1999/xlink"
   xmlns:sodipodi="http://sodipodi.sourceforge.net/DTD/sodipodi-0.dtd"
   xmlns:inkscape="http://www.inkscape.org/namespaces/inkscape"
   width="22"
   height="22"
   id="svg3147"
   version="1.1"
   inkscape:version="0.48.3.1 r9886"
   sodipodi:docname="stock_people.svg">
  <defs
     id="defs3149">
    <linearGradient
       id="linearGradient3779">
      <stop
         style="stop-color:#682f00;stop-opacity:1;"
         offset="0"
         id="stop3781" />
      <stop
         style="stop-color:#b4663b;stop-opacity:1;"
         offset="1"
         id="stop3783" />
    </linearGradient>
    <linearGradient
       id="linearGradient3771">
      <stop
         style="stop-color:#d2c86a;stop-opacity:1;"
         offset="0"
         id="stop3773" />
      <stop
         style="stop-color:#a94310;stop-opacity:1;"
         offset="1"
         id="stop3775" />
    </linearGradient>
    <linearGradient
       id="linearGradient4536">
      <stop
         style="stop-color:#ffffff;stop-opacity:1;"
         offset="0"
         id="stop4538" />
      <stop
         id="stop4546"
         offset="0.06216056"
         style="stop-color:#ffffff;stop-opacity:0.15686275;" />
      <stop
         id="stop4544"
         offset="0.936414"
         style="stop-color:#ffffff;stop-opacity:0.23529412;" />
      <stop
         style="stop-color:#ffffff;stop-opacity:0.39215687;"
         offset="1"
         id="stop4540" />
    </linearGradient>
    <radialGradient
       inkscape:collect="always"
       xlink:href="#linearGradient3688-166-749"
       id="radialGradient3132"
       gradientUnits="userSpaceOnUse"
       gradientTransform="matrix(2.003784,0,0,1.4,27.98813,-17.4)"
       cx="4.9929786"
       cy="43.5"
       fx="4.9929786"
       fy="43.5"
       r="2.5" />
    <linearGradient
       id="linearGradient3688-166-749">
      <stop
         id="stop2883"
         style="stop-color:#181818;stop-opacity:1"
         offset="0" />
      <stop
         id="stop2885"
         style="stop-color:#181818;stop-opacity:0"
         offset="1" />
    </linearGradient>
    <radialGradient
       inkscape:collect="always"
       xlink:href="#linearGradient3688-464-309"
       id="radialGradient3134"
       gradientUnits="userSpaceOnUse"
       gradientTransform="matrix(2.003784,0,0,1.4,-20.01187,-104.4)"
       cx="4.9929786"
       cy="43.5"
       fx="4.9929786"
       fy="43.5"
       r="2.5" />
    <linearGradient
       id="linearGradient3688-464-309">
      <stop
         id="stop2889"
         style="stop-color:#181818;stop-opacity:1"
         offset="0" />
      <stop
         id="stop2891"
         style="stop-color:#181818;stop-opacity:0"
         offset="1" />
    </linearGradient>
    <linearGradient
       inkscape:collect="always"
       xlink:href="#linearGradient3702-501-757"
       id="linearGradient3136"
       gradientUnits="userSpaceOnUse"
       x1="25.058096"
       y1="47.027729"
       x2="25.058096"
       y2="39.999443" />
    <linearGradient
       id="linearGradient3702-501-757">
      <stop
         id="stop2895"
         style="stop-color:#181818;stop-opacity:0"
         offset="0" />
      <stop
         id="stop2897"
         style="stop-color:#181818;stop-opacity:1"
         offset="0.5" />
      <stop
         id="stop2899"
         style="stop-color:#181818;stop-opacity:0"
         offset="1" />
    </linearGradient>
    <linearGradient
       inkscape:collect="always"
       xlink:href="#linearGradient4536"
       id="linearGradient4542"
       x1="14.801802"
       y1="1010.4072"
       x2="14.801802"
       y2="1028.1376"
       gradientUnits="userSpaceOnUse"
       gradientTransform="translate(-3,22.000041)" />
    <radialGradient
       inkscape:collect="always"
       xlink:href="#linearGradient3771"
       id="radialGradient3777"
       cx="8.4395084"
       cy="1038.224"
       fx="8.4395084"
       fy="1038.224"
       r="8"
       gradientUnits="userSpaceOnUse"
       gradientTransform="matrix(-1.8033154e-7,2.3063239,-1.7388621,-1.3596168e-7,1816.1303,1015.2853)" />
  </defs>
  <sodipodi:namedview
     id="base"
     pagecolor="#ffffff"
     bordercolor="#666666"
     borderopacity="1.0"
     inkscape:pageopacity="0.0"
     inkscape:pageshadow="2"
     inkscape:zoom="27.75"
     inkscape:cx="10.464421"
     inkscape:cy="9.1715364"
     inkscape:document-units="px"
     inkscape:current-layer="layer1"
     showgrid="false"
     inkscape:window-width="1280"
     inkscape:window-height="749"
     inkscape:window-x="0"
     inkscape:window-y="24"
     inkscape:window-maximized="1" />
  <metadata
     id="metadata3152">
    <rdf:RDF>
      <cc:Work
         rdf:about="">
        <dc:format>image/svg+xml</dc:format>
        <dc:type
           rdf:resource="http://purl.org/dc/dcmitype/StillImage" />
        <dc:title />
      </cc:Work>
    </rdf:RDF>
  </metadata>
  <g
     inkscape:label="Livello 1"
     inkscape:groupmode="layer"
     id="layer1"
     transform="translate(0,-1030.3622)">
    <rect
       style="fill:url(#radialGradient3777);fill-opacity:1;stroke:#692f00;stroke-opacity:1"
       id="rect3163"
       width="19"
       height="19"
       x="1.4999999"
       y="1031.8622"
       rx="1"
       ry="1" />
    <rect
       style="opacity:0.3;fill:none;stroke:url(#linearGradient4542);stroke-opacity:1"
       id="rect4534"
       width="17"
       height="17"
       x="2.5000005"
       y="1032.8622"
       rx="0.1"
       ry="0.1" />
    <path
       inkscape:connector-curvature="0"
       id="path3012"
       d="m 12,1037.3621 c -1.104569,0 -2,1.3431 -2,3 0,1.1117 0.401097,2.0755 1,2.5938 l 0,0.4062 -3,1 0,2 8,0 0,-2 -3,-1 0,-0.4062 c 0.598903,-0.5183 1,-1.4821 1,-2.5938 0,-1.6569 -0.895431,-3 -2,-3 z"
       style="opacity:0.3;fill:#ffffff;fill-opacity:1;stroke:none" />
    <path
       style="opacity:0.3;fill:#ffffff;fill-opacity:1;stroke:none"
       d="M 8 10 C 7.171573 10 6.5 11.05485 6.5 12.34375 C 6.5 13.033278 6.6946764 13.636503 7 14.0625 L 7 13 L 9.5 12.15625 C 9.43768 10.956523 8.7871889 10 8 10 z M 7 14.75 L 5 15.4375 L 5 17 L 11 17 L 11 15.4375 L 9.75 15 L 7 15 L 7 14.75 z "
       transform="translate(0,1030.3622)"
       id="path3826" />
    <path
       style="fill:#874d1e;fill-opacity:1;stroke:none"
       d="M 8 9 C 7.171573 9 6.5 10.05485 6.5 11.34375 C 6.5 12.033278 6.6946764 12.636503 7 13.0625 L 7 13 L 9.375 12.21875 C 9.4482106 11.94423 9.5 11.660403 9.5 11.34375 C 9.5 11.182637 9.4887313 11.02691 9.46875 10.875 C 9.2806419 10.529227 9.1322881 10.137118 9.0625 9.6875 C 8.7910534 9.2652875 8.4142135 9 8 9 z M 7 13.75 L 5 14.4375 L 5 16 L 11 16 L 11 15 L 7 15 L 7 13.75 z "
       transform="translate(0,1030.3622)"
       id="path3824" />
    <path
       style="fill:#692f00;fill-opacity:1;stroke:none"
       d="m 12,1036.3621 c -1.104569,0 -2,1.3431 -2,3 0,1.1117 0.401097,2.0755 1,2.5938 l 0,0.4062 -3,1 0,2 8,0 0,-2 -3,-1 0,-0.4062 c 0.598903,-0.5183 1,-1.4821 1,-2.5938 0,-1.6569 -0.895431,-3 -2,-3 z"
       id="path3030"
       inkscape:connector-curvature="0" />
  </g>
</svg>
