<?xml version="1.0" encoding="UTF-8" standalone="no"?>
<!-- Created with Inkscape (http://www.inkscape.org/) -->

<svg
   xmlns:dc="http://purl.org/dc/elements/1.1/"
   xmlns:cc="http://creativecommons.org/ns#"
   xmlns:rdf="http://www.w3.org/1999/02/22-rdf-syntax-ns#"
   xmlns:svg="http://www.w3.org/2000/svg"
   xmlns="http://www.w3.org/2000/svg"
   xmlns:xlink="http://www.w3.org/1999/xlink"
   xmlns:sodipodi="http://sodipodi.sourceforge.net/DTD/sodipodi-0.dtd"
   xmlns:inkscape="http://www.inkscape.org/namespaces/inkscape"
   width="22"
   height="22"
   id="svg3147"
   version="1.1"
   inkscape:version="0.48.3.1 r9886"
   sodipodi:docname="eog.svg">
  <defs
     id="defs3149">
    <linearGradient
       id="linearGradient3907">
      <stop
         style="stop-color:#ffe17a;stop-opacity:1;"
         offset="0"
         id="stop3909" />
      <stop
         id="stop3915"
         offset="0.5"
         style="stop-color:#ffffc8;stop-opacity:1;" />
      <stop
         style="stop-color:#ffe17a;stop-opacity:1;"
         offset="1"
         id="stop3911" />
    </linearGradient>
    <linearGradient
       id="linearGradient3798">
      <stop
         id="stop3800"
         offset="0"
         style="stop-color:#690e00;stop-opacity:1;" />
      <stop
         id="stop3802"
         offset="1"
         style="stop-color:#8f3220;stop-opacity:1;" />
    </linearGradient>
    <linearGradient
       id="linearGradient3790">
      <stop
         id="stop3792"
         offset="0"
         style="stop-color:#b16000;stop-opacity:1;" />
      <stop
         id="stop3794"
         offset="1"
         style="stop-color:#7d2f00;stop-opacity:1;" />
    </linearGradient>
    <linearGradient
       id="linearGradient3779">
      <stop
         style="stop-color:#cd7220;stop-opacity:1;"
         offset="0"
         id="stop3781" />
      <stop
         style="stop-color:#d39936;stop-opacity:1;"
         offset="1"
         id="stop3783" />
    </linearGradient>
    <linearGradient
       id="linearGradient3771">
      <stop
         style="stop-color:#e5d554;stop-opacity:1;"
         offset="0"
         id="stop3773" />
      <stop
         style="stop-color:#e19332;stop-opacity:1;"
         offset="1"
         id="stop3775" />
    </linearGradient>
    <linearGradient
       id="linearGradient4536">
      <stop
         style="stop-color:#ffffff;stop-opacity:1;"
         offset="0"
         id="stop4538" />
      <stop
         id="stop4546"
         offset="0.08220192"
         style="stop-color:#ffffff;stop-opacity:0.15686275;" />
      <stop
         id="stop4544"
         offset="0.936414"
         style="stop-color:#ffffff;stop-opacity:0.23529412;" />
      <stop
         style="stop-color:#ffffff;stop-opacity:0.39215687;"
         offset="1"
         id="stop4540" />
    </linearGradient>
    <radialGradient
       inkscape:collect="always"
       xlink:href="#linearGradient3688-166-749"
       id="radialGradient3132"
       gradientUnits="userSpaceOnUse"
       gradientTransform="matrix(2.003784,0,0,1.4,27.98813,-17.4)"
       cx="4.9929786"
       cy="43.5"
       fx="4.9929786"
       fy="43.5"
       r="2.5" />
    <linearGradient
       id="linearGradient3688-166-749">
      <stop
         id="stop2883"
         style="stop-color:#181818;stop-opacity:1"
         offset="0" />
      <stop
         id="stop2885"
         style="stop-color:#181818;stop-opacity:0"
         offset="1" />
    </linearGradient>
    <radialGradient
       inkscape:collect="always"
       xlink:href="#linearGradient3688-464-309"
       id="radialGradient3134"
       gradientUnits="userSpaceOnUse"
       gradientTransform="matrix(2.003784,0,0,1.4,-20.01187,-104.4)"
       cx="4.9929786"
       cy="43.5"
       fx="4.9929786"
       fy="43.5"
       r="2.5" />
    <linearGradient
       id="linearGradient3688-464-309">
      <stop
         id="stop2889"
         style="stop-color:#181818;stop-opacity:1"
         offset="0" />
      <stop
         id="stop2891"
         style="stop-color:#181818;stop-opacity:0"
         offset="1" />
    </linearGradient>
    <linearGradient
       inkscape:collect="always"
       xlink:href="#linearGradient3702-501-757"
       id="linearGradient3136"
       gradientUnits="userSpaceOnUse"
       x1="25.058096"
       y1="47.027729"
       x2="25.058096"
       y2="39.999443" />
    <linearGradient
       id="linearGradient3702-501-757">
      <stop
         id="stop2895"
         style="stop-color:#181818;stop-opacity:0"
         offset="0" />
      <stop
         id="stop2897"
         style="stop-color:#181818;stop-opacity:1"
         offset="0.5" />
      <stop
         id="stop2899"
         style="stop-color:#181818;stop-opacity:0"
         offset="1" />
    </linearGradient>
    <linearGradient
       inkscape:collect="always"
       xlink:href="#linearGradient4536"
       id="linearGradient4542"
       x1="16.243242"
       y1="1010.3351"
       x2="16.243242"
       y2="1028.3159"
       gradientUnits="userSpaceOnUse"
       gradientTransform="translate(-2,21.000017)" />
    <radialGradient
       inkscape:collect="always"
       xlink:href="#linearGradient3771"
       id="radialGradient3777"
       cx="12.144124"
       cy="1034.4523"
       fx="12.144124"
       fy="1034.4523"
       r="10"
       gradientUnits="userSpaceOnUse"
       gradientTransform="matrix(6.0872563e-7,1.8241719,-1.3461196,4.4919972e-7,1404.6406,1012.2988)" />
    <linearGradient
       inkscape:collect="always"
       xlink:href="#linearGradient3779"
       id="linearGradient3785"
       x1="7.2252254"
       y1="1050.1881"
       x2="7.2252254"
       y2="1030.5604"
       gradientUnits="userSpaceOnUse" />
    <radialGradient
       inkscape:collect="always"
       xlink:href="#linearGradient3790"
       id="radialGradient3796"
       gradientUnits="userSpaceOnUse"
       gradientTransform="matrix(0,1.8241628,-0.51974513,0,544.54818,1013.2974)"
       cx="11.74901"
       cy="1039.5922"
       fx="11.74901"
       fy="1039.5922"
       r="10" />
    <linearGradient
       inkscape:collect="always"
       xlink:href="#linearGradient3798"
       id="linearGradient3804"
       gradientUnits="userSpaceOnUse"
       x1="7.2252254"
       y1="1050.1881"
       x2="7.2252254"
       y2="1030.5604"
       gradientTransform="matrix(1.0000001,0,0,0.999995,-1.0000009,1.0032009)" />
    <linearGradient
       inkscape:collect="always"
       xlink:href="#linearGradient3907"
       id="linearGradient3913"
       x1="4.5"
       y1="1040.3622"
       x2="5.5"
       y2="1040.3622"
       gradientUnits="userSpaceOnUse"
       gradientTransform="matrix(1,0,0,0.99999695,-0.50000087,1.0032016)" />
    <linearGradient
       inkscape:collect="always"
       xlink:href="#linearGradient3790"
       id="linearGradient3948"
       x1="15.603603"
       y1="1030.2766"
       x2="15.603603"
       y2="1050.1216"
       gradientUnits="userSpaceOnUse"
       gradientTransform="matrix(1,0,0,0.99999695,-1.0000008,1.0032016)" />
    <linearGradient
       inkscape:collect="always"
       xlink:href="#linearGradient3790"
       id="linearGradient3956"
       gradientUnits="userSpaceOnUse"
       x1="15.603603"
       y1="1030.2766"
       x2="15.603603"
       y2="1050.1216"
       gradientTransform="translate(0,0.5)" />
    <linearGradient
       inkscape:collect="always"
       xlink:href="#linearGradient3790"
       id="linearGradient3960"
       gradientUnits="userSpaceOnUse"
       x1="15.603603"
       y1="1030.2766"
       x2="15.603603"
       y2="1050.1216"
       gradientTransform="translate(0,-1028.3622)" />
    <linearGradient
       inkscape:collect="always"
       xlink:href="#linearGradient3798"
       id="linearGradient3809"
       gradientUnits="userSpaceOnUse"
       x1="7.2252254"
       y1="1050.1881"
       x2="7.2252254"
       y2="1030.5604"
       gradientTransform="matrix(1.0000001,0,0,0.999995,-1.0000009,1.0032009)" />
    <radialGradient
       inkscape:collect="always"
       xlink:href="#linearGradient3790"
       id="radialGradient3811"
       gradientUnits="userSpaceOnUse"
       gradientTransform="matrix(2.4227074e-6,0.51535681,-0.4491774,2.1115745e-6,480.85634,1027.0322)"
       cx="10.49579"
       cy="1028.8113"
       fx="10.49579"
       fy="1028.8113"
       r="10" />
    <radialGradient
       inkscape:collect="always"
       xlink:href="#linearGradient3790"
       id="radialGradient3818"
       gradientUnits="userSpaceOnUse"
       gradientTransform="matrix(0.22033592,3.5841694e-8,4.1789942e-8,-0.25690002,15.644694,1312.3342)"
       cx="14.691236"
       cy="1028.4904"
       fx="14.691236"
       fy="1028.4904"
       r="10" />
    <linearGradient
       inkscape:collect="always"
       xlink:href="#linearGradient3798"
       id="linearGradient3820"
       gradientUnits="userSpaceOnUse"
       x1="16.738739"
       y1="1022.0006"
       x2="16.738739"
       y2="1044.6865"
       gradientTransform="matrix(1.0000001,0,0,-0.999995,-1.0000009,2081.7172)" />
    <linearGradient
       inkscape:collect="always"
       xlink:href="#linearGradient4536"
       id="linearGradient3822"
       gradientUnits="userSpaceOnUse"
       gradientTransform="matrix(1.0000001,0,0,0.999995,-3.0000012,22.003114)"
       x1="16.243242"
       y1="1010.3351"
       x2="16.243242"
       y2="1028.3159" />
    <linearGradient
       inkscape:collect="always"
       xlink:href="#linearGradient4536"
       id="linearGradient3824"
       gradientUnits="userSpaceOnUse"
       gradientTransform="matrix(1.0000001,0,0,0.999995,-3.0000012,22.003114)"
       x1="16.243242"
       y1="1010.3351"
       x2="16.243242"
       y2="1028.3159" />
    <radialGradient
       inkscape:collect="always"
       xlink:href="#linearGradient3771"
       id="radialGradient3826"
       gradientUnits="userSpaceOnUse"
       gradientTransform="matrix(6.0872569e-7,1.8241628,-1.3461197,4.4919747e-7,1403.6407,1013.2969)"
       cx="12.144124"
       cy="1034.4523"
       fx="12.144124"
       fy="1034.4523"
       r="10" />
    <linearGradient
       inkscape:collect="always"
       xlink:href="#linearGradient3779"
       id="linearGradient3828"
       gradientUnits="userSpaceOnUse"
       x1="7.2252254"
       y1="1050.1881"
       x2="7.2252254"
       y2="1030.5604"
       gradientTransform="matrix(1.0000001,0,0,0.999995,-1.0000009,1.0032009)" />
  </defs>
  <sodipodi:namedview
     id="base"
     pagecolor="#ffffff"
     bordercolor="#666666"
     borderopacity="1.0"
     inkscape:pageopacity="0.0"
     inkscape:pageshadow="2"
     inkscape:zoom="13.875"
     inkscape:cx="7.5517743"
     inkscape:cy="12.476394"
     inkscape:document-units="px"
     inkscape:current-layer="layer1"
     showgrid="false"
     inkscape:window-width="1280"
     inkscape:window-height="751"
     inkscape:window-x="0"
     inkscape:window-y="24"
     inkscape:window-maximized="1" />
  <metadata
     id="metadata3152">
    <rdf:RDF>
      <cc:Work
         rdf:about="">
        <dc:format>image/svg+xml</dc:format>
        <dc:type
           rdf:resource="http://purl.org/dc/dcmitype/StillImage" />
        <dc:title></dc:title>
      </cc:Work>
    </rdf:RDF>
  </metadata>
  <g
     inkscape:label="Livello 1"
     inkscape:groupmode="layer"
     id="layer1"
     transform="translate(0,-1030.3622)">
    <rect
       style="fill:url(#radialGradient3826);fill-opacity:1;stroke:url(#linearGradient3828);stroke-width:0.99999857;stroke-opacity:1"
       id="rect3163"
       width="19"
       height="18.999941"
       x="1.4999995"
       y="1031.8621"
       rx="1.5"
       ry="1.4999954" />
    <rect
       style="opacity:0.3;fill:none;stroke:url(#linearGradient3824);stroke-width:0.99999857;stroke-opacity:1"
       id="rect4534"
       width="17.000002"
       height="16.99995"
       x="2.5000005"
       y="1032.8621"
       rx="0.50000006"
       ry="0.49999848" />
    <path
       style="fill:url(#radialGradient3796);fill-opacity:1;stroke:url(#linearGradient3804);stroke-width:0.99999857;stroke-opacity:1"
       d="m 2.9999993,1031.8622 4.5000003,0 0,19 -4.5000003,0 c -0.8309999,0 -1.5,-0.669 -1.5,-1.5 l 0,-16 c 0,-0.831 0.6690001,-1.5 1.5,-1.5 z"
       id="rect3787"
       inkscape:connector-curvature="0"
       sodipodi:nodetypes="sccssss" />
    <path
       style="opacity:0.2;fill:none;stroke:url(#linearGradient3822);stroke-width:0.99999857;stroke-opacity:1"
       d="m 2.9999993,1032.8622 3.5,0 0,17 -3.5,0 c -0.277,0 -0.5,-0.223 -0.5,-0.5 l 0,-16 c 0,-0.277 0.223,-0.5 0.5,-0.5 z"
       id="rect3806"
       inkscape:connector-curvature="0"
       sodipodi:nodetypes="sccssss" />
    <rect
       style="opacity:0.15;fill:#ffffff;fill-opacity:1;stroke:none"
       id="rect3809"
       width="1.0000001"
       height="15.999951"
       x="8"
       y="1033.3621" />
    <rect
       style="opacity:0.05;fill:#000000;fill-opacity:1;stroke:#000000;stroke-width:1.99999714;stroke-linejoin:round;stroke-miterlimit:4;stroke-opacity:1;stroke-dasharray:none"
       id="rect3919"
       width="1.0000001"
       height="13.999959"
       x="3.9999995"
       y="1034.3621"
       rx="0.50000006"
       ry="0.49999848" />
    <rect
       ry="0.49999848"
       rx="0.50000006"
       y="1034.3621"
       x="3.9999995"
       height="13.999959"
       width="1.0000001"
       id="rect3917"
       style="opacity:0.1;fill:#000000;fill-opacity:1;stroke:#000000;stroke-width:0.99999857;stroke-linejoin:round;stroke-opacity:1" />
    <path
       transform="matrix(1.6165051,0,0,1.6165001,-3.7572832,1039.6632)"
       d="m 6.036036,5.072072 c 0,0.5124805 -0.4154475,0.9279279 -0.927928,0.9279279 -0.5124804,0 -0.9279279,-0.4154474 -0.9279279,-0.9279279 0,-0.5124804 0.4154475,-0.9279279 0.9279279,-0.9279279 0.5124805,0 0.927928,0.4154475 0.927928,0.9279279 z"
       sodipodi:ry="0.92792791"
       sodipodi:rx="0.92792791"
       sodipodi:cy="5.072072"
       sodipodi:cx="5.108108"
       id="path3923"
       style="opacity:0.1;fill:#000000;fill-opacity:1;stroke:none"
       sodipodi:type="arc" />
    <path
       sodipodi:type="arc"
       style="opacity:0.1;fill:#000000;fill-opacity:1;stroke:none"
       id="path3921"
       sodipodi:cx="5.108108"
       sodipodi:cy="5.072072"
       sodipodi:rx="0.92792791"
       sodipodi:ry="0.92792791"
       d="m 6.036036,5.072072 c 0,0.5124805 -0.4154475,0.9279279 -0.927928,0.9279279 -0.5124804,0 -0.9279279,-0.4154474 -0.9279279,-0.9279279 0,-0.5124804 0.4154475,-0.9279279 0.9279279,-0.9279279 0.5124805,0 0.927928,0.4154475 0.927928,0.9279279 z"
       transform="matrix(1.6165051,0,0,1.6165001,-3.7572832,1026.6633)" />
    <rect
       style="fill:url(#linearGradient3913);fill-opacity:1;stroke:none"
       id="rect3905"
       width="1.0000001"
       height="13.999959"
       x="3.9999995"
       y="1034.3621"
       rx="0.50000006"
       ry="0.49999848" />
    <path
       inkscape:connector-curvature="0"
       id="path3950"
       d="m 11,1037.8622 0,1 0,2 1,0 0,-2 2.000001,0 0,-1 -2.000001,0 -1,0 z m 4,0 0,1 2,0 0,2 1,0 0,-3 -3,0 z m -4,4 0,2 0,1 3.000001,0 0,-1 -2.000001,0 0,-2 -1,0 z m 6,0 0,2 -2,0 0,1 3,0 0,-1 0,-2 -1,0 z"
       style="opacity:0.2;fill:#ffffff;fill-opacity:1;stroke:none" />
    <path
       style="fill:url(#linearGradient3948);fill-opacity:1;stroke:none"
       d="m 11,1037.3622 0,1 0,2 1,0 0,-2 2.000001,0 0,-1 -2.000001,0 -1,0 z m 4,0 0,1 2,0 0,2 1,0 0,-3 -3,0 z m -4,4 0,2 0,1 3.000001,0 0,-1 -2.000001,0 0,-2 -1,0 z m 6,0 0,2 -2,0 0,1 3,0 0,-1 0,-2 -1,0 z"
       id="rect3925"
       inkscape:connector-curvature="0" />
    <path
       style="opacity:0.2;fill:#000000;fill-opacity:1;stroke:none"
       d="m 11,1037.3622 0,0.5 1,0 2.000001,0 0,-0.5 -2.000001,0 -1,0 z m 4,0 0,0.5 3,0 0,-0.5 -3,0 z m -4,4 0,0.5 1,0 0,-0.5 -1,0 z m 6,0 0,0.5 1,0 0,-0.5 -1,0 z m -5,2 0,0.5 2.000001,0 0,-0.5 -2.000001,0 z m 3,0 0,0.5 2,0 0,-0.5 -2,0 z"
       id="path3958"
       inkscape:connector-curvature="0" />
    <path
       style="fill:url(#radialGradient3811);fill-opacity:1;stroke:url(#linearGradient3809);stroke-width:0.99999857;stroke-opacity:1"
       d="m 16,1031.8622 3,0 c 0.831,0 1.5,0.669 1.5,1.5 l 0,3 z"
       id="rect3038"
       inkscape:connector-curvature="0"
       sodipodi:nodetypes="csscc" />
    <path
       sodipodi:nodetypes="csscc"
       inkscape:connector-curvature="0"
       id="path3816"
       d="m 16,1050.8622 3,0 c 0.831,0 1.5,-0.669 1.5,-1.5 l 0,-3 z"
       style="fill:url(#radialGradient3818);fill-opacity:1;stroke:url(#linearGradient3820);stroke-width:0.99999857;stroke-opacity:1" />
  </g>
</svg>
