<?xml version="1.0" encoding="UTF-8" standalone="no"?>
<!-- Created with Inkscape (http://www.inkscape.org/) -->

<svg
   xmlns:dc="http://purl.org/dc/elements/1.1/"
   xmlns:cc="http://creativecommons.org/ns#"
   xmlns:rdf="http://www.w3.org/1999/02/22-rdf-syntax-ns#"
   xmlns:svg="http://www.w3.org/2000/svg"
   xmlns="http://www.w3.org/2000/svg"
   xmlns:xlink="http://www.w3.org/1999/xlink"
   xmlns:sodipodi="http://sodipodi.sourceforge.net/DTD/sodipodi-0.dtd"
   xmlns:inkscape="http://www.inkscape.org/namespaces/inkscape"
   width="22"
   height="22"
   id="svg3147"
   version="1.1"
   inkscape:version="0.48.4 r9939"
   sodipodi:docname="evolution-calendar.svg">
  <defs
     id="defs3149">
    <linearGradient
       id="linearGradient3820">
      <stop
         style="stop-color:#3372b1;stop-opacity:1;"
         offset="0"
         id="stop3822" />
      <stop
         style="stop-color:#93d0e9;stop-opacity:1;"
         offset="1"
         id="stop3824" />
    </linearGradient>
    <linearGradient
       id="linearGradient3821">
      <stop
         id="stop3823"
         offset="0"
         style="stop-color:#ffffff;stop-opacity:1;" />
      <stop
         style="stop-color:#ffffff;stop-opacity:0.15686275;"
         offset="0.30231887"
         id="stop3825" />
      <stop
         style="stop-color:#ffffff;stop-opacity:0.23529412;"
         offset="0.74169105"
         id="stop3827" />
      <stop
         id="stop3829"
         offset="1"
         style="stop-color:#ffffff;stop-opacity:0.39215687;" />
    </linearGradient>
    <linearGradient
       id="linearGradient3800">
      <stop
         id="stop3802"
         offset="0"
         style="stop-color:#be0000;stop-opacity:1;" />
      <stop
         id="stop3804"
         offset="1"
         style="stop-color:#e61e1e;stop-opacity:1;" />
    </linearGradient>
    <linearGradient
       id="linearGradient3779">
      <stop
         style="stop-color:#787878;stop-opacity:1;"
         offset="0"
         id="stop3781" />
      <stop
         style="stop-color:#969696;stop-opacity:1;"
         offset="1"
         id="stop3783" />
    </linearGradient>
    <linearGradient
       id="linearGradient3771">
      <stop
         style="stop-color:#ffffff;stop-opacity:1;"
         offset="0"
         id="stop3773" />
      <stop
         style="stop-color:#e6e6e6;stop-opacity:1;"
         offset="1"
         id="stop3775" />
    </linearGradient>
    <linearGradient
       id="linearGradient4536">
      <stop
         style="stop-color:#ffffff;stop-opacity:1;"
         offset="0"
         id="stop4538" />
      <stop
         id="stop4546"
         offset="0.06216056"
         style="stop-color:#ffffff;stop-opacity:0.15686275;" />
      <stop
         id="stop4544"
         offset="0.936414"
         style="stop-color:#ffffff;stop-opacity:0.23529412;" />
      <stop
         style="stop-color:#ffffff;stop-opacity:0.39215687;"
         offset="1"
         id="stop4540" />
    </linearGradient>
    <radialGradient
       inkscape:collect="always"
       xlink:href="#linearGradient3688-166-749"
       id="radialGradient3132"
       gradientUnits="userSpaceOnUse"
       gradientTransform="matrix(2.003784,0,0,1.4,27.98813,-17.4)"
       cx="4.9929786"
       cy="43.5"
       fx="4.9929786"
       fy="43.5"
       r="2.5" />
    <linearGradient
       id="linearGradient3688-166-749">
      <stop
         id="stop2883"
         style="stop-color:#181818;stop-opacity:1"
         offset="0" />
      <stop
         id="stop2885"
         style="stop-color:#181818;stop-opacity:0"
         offset="1" />
    </linearGradient>
    <radialGradient
       inkscape:collect="always"
       xlink:href="#linearGradient3688-464-309"
       id="radialGradient3134"
       gradientUnits="userSpaceOnUse"
       gradientTransform="matrix(2.003784,0,0,1.4,-20.01187,-104.4)"
       cx="4.9929786"
       cy="43.5"
       fx="4.9929786"
       fy="43.5"
       r="2.5" />
    <linearGradient
       id="linearGradient3688-464-309">
      <stop
         id="stop2889"
         style="stop-color:#181818;stop-opacity:1"
         offset="0" />
      <stop
         id="stop2891"
         style="stop-color:#181818;stop-opacity:0"
         offset="1" />
    </linearGradient>
    <linearGradient
       inkscape:collect="always"
       xlink:href="#linearGradient3702-501-757"
       id="linearGradient3136"
       gradientUnits="userSpaceOnUse"
       x1="25.058096"
       y1="47.027729"
       x2="25.058096"
       y2="39.999443" />
    <linearGradient
       id="linearGradient3702-501-757">
      <stop
         id="stop2895"
         style="stop-color:#181818;stop-opacity:0"
         offset="0" />
      <stop
         id="stop2897"
         style="stop-color:#181818;stop-opacity:1"
         offset="0.5" />
      <stop
         id="stop2899"
         style="stop-color:#181818;stop-opacity:0"
         offset="1" />
    </linearGradient>
    <linearGradient
       inkscape:collect="always"
       xlink:href="#linearGradient4536"
       id="linearGradient4542"
       x1="14.801802"
       y1="1010.4072"
       x2="14.801802"
       y2="1028.1376"
       gradientUnits="userSpaceOnUse"
       gradientTransform="translate(-2.9999959,22.000034)" />
    <linearGradient
       inkscape:collect="always"
       xlink:href="#linearGradient3821"
       id="linearGradient3834"
       gradientUnits="userSpaceOnUse"
       x1="12.222803"
       y1="1031.323"
       x2="12.222803"
       y2="1035.3539"
       gradientTransform="translate(-0.99999592,1)" />
    <linearGradient
       inkscape:collect="always"
       xlink:href="#linearGradient3800"
       id="linearGradient3836"
       gradientUnits="userSpaceOnUse"
       x1="12.450451"
       y1="1031.5688"
       x2="12.450451"
       y2="1035.334"
       gradientTransform="translate(-0.99999592,1)" />
    <radialGradient
       inkscape:collect="always"
       xlink:href="#linearGradient3771"
       id="radialGradient3838"
       gradientUnits="userSpaceOnUse"
       gradientTransform="matrix(-1.8033154e-7,2.3063239,-1.7388621,-1.3596168e-7,1816.1303,1015.2854)"
       cx="8.4395084"
       cy="1038.224"
       fx="8.4395084"
       fy="1038.224"
       r="8" />
    <linearGradient
       inkscape:collect="always"
       xlink:href="#linearGradient3779"
       id="linearGradient3840"
       gradientUnits="userSpaceOnUse"
       gradientTransform="translate(1.0000042,-4.9999998)"
       x1="4.8288288"
       y1="1056.1926"
       x2="4.8288288"
       y2="1036.2902" />
    <linearGradient
       inkscape:collect="always"
       id="linearGradient4151">
      <stop
         style="stop-color:#000000;stop-opacity:1;"
         offset="0"
         id="stop4153" />
      <stop
         style="stop-color:#000000;stop-opacity:0;"
         offset="1"
         id="stop4155" />
    </linearGradient>
    <linearGradient
       id="linearGradient4137">
      <stop
         style="stop-color:#c8c8c8;stop-opacity:1;"
         offset="0"
         id="stop4139" />
      <stop
         id="stop4145"
         offset="0.5"
         style="stop-color:#ffffff;stop-opacity:1;" />
      <stop
         style="stop-color:#aaaaaa;stop-opacity:1;"
         offset="1"
         id="stop4141" />
    </linearGradient>
    <linearGradient
       inkscape:collect="always"
       xlink:href="#linearGradient4137"
       id="linearGradient4052"
       gradientUnits="userSpaceOnUse"
       gradientTransform="translate(23.445633,-18.157629)"
       x1="13.75"
       y1="5.25"
       x2="13.75"
       y2="9.8901777" />
    <linearGradient
       id="linearGradient4455">
      <stop
         style="stop-color:#c8c8c8;stop-opacity:1;"
         offset="0"
         id="stop4457" />
      <stop
         id="stop4459"
         offset="0.5"
         style="stop-color:#ffffff;stop-opacity:1;" />
      <stop
         style="stop-color:#aaaaaa;stop-opacity:1;"
         offset="1"
         id="stop4461" />
    </linearGradient>
    <linearGradient
       inkscape:collect="always"
       xlink:href="#linearGradient4151"
       id="linearGradient3902"
       gradientUnits="userSpaceOnUse"
       gradientTransform="translate(3.9999986,1028.3623)"
       x1="13.757358"
       y1="6.9897652"
       x2="13.757358"
       y2="5.0132775" />
    <linearGradient
       inkscape:collect="always"
       xlink:href="#linearGradient4137"
       id="linearGradient3904"
       gradientUnits="userSpaceOnUse"
       gradientTransform="matrix(0.74999991,0,0,0.59999995,6.7499979,1028.362)"
       x1="13.75"
       y1="5.25"
       x2="13.75"
       y2="9.8901777" />
    <linearGradient
       inkscape:collect="always"
       xlink:href="#linearGradient4151"
       id="linearGradient3910"
       gradientUnits="userSpaceOnUse"
       gradientTransform="translate(-5.0000006,1028.3623)"
       x1="13.757358"
       y1="6.9897652"
       x2="13.757358"
       y2="5.0132775" />
    <linearGradient
       inkscape:collect="always"
       xlink:href="#linearGradient4137"
       id="linearGradient3912"
       gradientUnits="userSpaceOnUse"
       gradientTransform="matrix(0.74999991,0,0,0.59999995,-2.2500013,1028.362)"
       x1="13.75"
       y1="5.25"
       x2="13.75"
       y2="9.8901777" />
    <linearGradient
       inkscape:collect="always"
       xlink:href="#linearGradient4137"
       id="linearGradient3064"
       gradientUnits="userSpaceOnUse"
       gradientTransform="matrix(0.74999991,0,0,0.40000005,-3.2499972,1030.3619)"
       x1="13.75"
       y1="5.25"
       x2="13.75"
       y2="9.8901777" />
    <linearGradient
       inkscape:collect="always"
       xlink:href="#linearGradient4151"
       id="linearGradient3067"
       gradientUnits="userSpaceOnUse"
       gradientTransform="translate(-5.9999965,1028.3626)"
       x1="13.757358"
       y1="6.9897652"
       x2="13.757358"
       y2="5.0132775" />
    <linearGradient
       inkscape:collect="always"
       xlink:href="#linearGradient4137"
       id="linearGradient3070"
       gradientUnits="userSpaceOnUse"
       gradientTransform="matrix(0.74999991,0,0,0.39999986,5.7500001,1030.362)"
       x1="13.75"
       y1="5.25"
       x2="13.75"
       y2="9.8901777" />
    <linearGradient
       inkscape:collect="always"
       xlink:href="#linearGradient4151"
       id="linearGradient3073"
       gradientUnits="userSpaceOnUse"
       gradientTransform="translate(3.0000008,1028.3626)"
       x1="13.757358"
       y1="6.9897652"
       x2="13.757358"
       y2="5.0132775" />
  </defs>
  <sodipodi:namedview
     id="base"
     pagecolor="#ffffff"
     bordercolor="#666666"
     borderopacity="1.0"
     inkscape:pageopacity="0.0"
     inkscape:pageshadow="2"
     inkscape:zoom="13.875"
     inkscape:cx="8.2367441"
     inkscape:cy="9.5667033"
     inkscape:document-units="px"
     inkscape:current-layer="layer1"
     showgrid="false"
     inkscape:window-width="1280"
     inkscape:window-height="748"
     inkscape:window-x="0"
     inkscape:window-y="26"
     inkscape:window-maximized="1" />
  <metadata
     id="metadata3152">
    <rdf:RDF>
      <cc:Work
         rdf:about="">
        <dc:format>image/svg+xml</dc:format>
        <dc:type
           rdf:resource="http://purl.org/dc/dcmitype/StillImage" />
        <dc:title></dc:title>
      </cc:Work>
    </rdf:RDF>
  </metadata>
  <g
     inkscape:label="Livello 1"
     inkscape:groupmode="layer"
     id="layer1"
     transform="translate(0,-1030.3622)">
    <path
       style="fill:url(#radialGradient3838);fill-opacity:1;stroke:url(#linearGradient3840);stroke-width:1;stroke-opacity:1"
       d="m 2.5000043,1031.8622 c -0.554,0 -1.0000001,0.446 -1.0000001,1 l 0,17 c 0,0.554 0.4460001,1 1.0000001,1 l 16.9999997,0 c 0.554,0 1,-0.446 1,-1 l 0,-17 c 0,-0.554 -0.446,-1 -1,-1 l -16.9999997,0 z m 4,0.5 c 0.8284271,0 1.5,0.6716 1.5,1.5 0,0.8284 -0.6715729,1.5 -1.5,1.5 -0.8284271,0 -1.5,-0.6716 -1.5,-1.5 0,-0.8284 0.6715729,-1.5 1.5,-1.5 z m 8.9999997,0 c 0.828427,0 1.5,0.6716 1.5,1.5 0,0.8284 -0.671573,1.5 -1.5,1.5 -0.828427,0 -1.5,-0.6716 -1.5,-1.5 0,-0.8284 0.671573,-1.5 1.5,-1.5 z"
       id="rect3163"
       inkscape:connector-curvature="0" />
    <rect
       style="opacity:0.5;fill:none;stroke:url(#linearGradient4542);stroke-width:1;stroke-opacity:1"
       id="rect4534"
       width="17"
       height="17"
       x="2.5000052"
       y="1032.8619"
       rx="0.1"
       ry="0.1" />
    <path
       style="fill:url(#linearGradient3836);fill-opacity:1;stroke:#960000;stroke-width:1;stroke-opacity:1"
       d="m 2.5000043,1031.8622 c -0.554,0 -1.0000001,0.446 -1.0000001,1 l 0,4 18.9999998,0 0,-4 c 0,-0.554 -0.446,-1 -1,-1 z"
       id="rect3798"
       inkscape:connector-curvature="0"
       sodipodi:nodetypes="ssccsss" />
    <path
       style="opacity:0.3;fill:none;stroke:url(#linearGradient3834);stroke-width:1;stroke-opacity:1"
       d="m 2.6875043,1032.8622 c -0.2185312,0.011 -0.1875,0.084 -0.1875,0.5 l 0,2.5 16.9999997,0 0,-2.5 c 0,-0.554 0.054,-0.5 -0.5,-0.5 l -15.9999997,0 c -0.1385,0 -0.2396562,0 -0.3125,0 z"
       id="path3811"
       inkscape:connector-curvature="0"
       sodipodi:nodetypes="csccsccc" />
    <rect
       style="opacity:0.04999982;fill:#000000;fill-opacity:1;stroke:none"
       id="rect3831"
       width="20.00001"
       height="2.0000024"
       x="0.99999988"
       y="1037.3617" />
    <rect
       y="1037.3617"
       x="0.99999988"
       height="1.5000018"
       width="20.00001"
       id="rect3837"
       style="opacity:0.1;fill:#000000;fill-opacity:1;stroke:none" />
    <rect
       y="1037.3617"
       x="0.99999988"
       height="1.0000008"
       width="20.00001"
       id="rect3833"
       style="opacity:0.15000006;fill:#000000;fill-opacity:1;stroke:none" />
    <rect
       style="opacity:0.2;fill:#000000;fill-opacity:1;stroke:none"
       id="rect3835"
       width="20.00001"
       height="0.50000018"
       x="0.99999988"
       y="1037.3617" />
    <g
       style="font-size:11px;font-style:normal;font-variant:normal;font-weight:bold;font-stretch:normal;line-height:125%;letter-spacing:0px;word-spacing:0px;opacity:0.09999994;fill:#ffffff;fill-opacity:1;stroke:#ffffff;stroke-width:2;stroke-linejoin:round;stroke-miterlimit:4;stroke-opacity:1;stroke-dasharray:none;font-family:Droid Sans;-inkscape-font-specification:Droid Sans Bold"
       id="g3994"
       transform="matrix(1.0000003,0,0,1.0000013,-1.0000009,-0.001354)">
      <path
         d="m 11.615967,1047.3622 -5.2690432,0 0,-1.1548 1.8476563,-1.9927 c 0.2327449,-0.2506 0.4440077,-0.4816 0.633789,-0.6928 0.1897756,-0.2113 0.3526986,-0.4172 0.4887696,-0.6177 0.1360641,-0.2005 0.2416955,-0.4046 0.3168945,-0.6123 0.075192,-0.2077 0.1127891,-0.4315 0.112793,-0.6714 -3.9e-6,-0.265 -0.08057,-0.4709 -0.2416992,-0.6177 -0.1575556,-0.1468 -0.3706087,-0.2202 -0.6391602,-0.2202 -0.2828803,0 -0.5550154,0.07 -0.8164063,0.2095 -0.2613951,0.1396 -0.5353206,0.3384 -0.8217773,0.5962 l -0.9023437,-1.0689 c 0.1611322,-0.1468 0.3294263,-0.2864 0.5048828,-0.4189 0.1754546,-0.1361 0.3688138,-0.2561 0.5800781,-0.3599 0.2112613,-0.1038 0.4440085,-0.1862 0.6982422,-0.2471 0.2542293,-0.064 0.538897,-0.097 0.8540039,-0.097 0.3759731,0 0.7125613,0.052 1.0097656,0.1557 0.3007769,0.1039 0.5567989,0.2525 0.7680669,0.4458 0.211257,0.1898 0.37239,0.4208 0.483398,0.6929 0.114578,0.2721 0.171869,0.5783 0.171875,0.9184 -6e-6,0.308 -0.05372,0.6034 -0.161133,0.8863 -0.107427,0.2793 -0.254237,0.555 -0.44043,0.8271 -0.186202,0.2686 -0.402836,0.5371 -0.649902,0.8057 -0.2434935,0.265 -0.5048864,0.5353 -0.7841796,0.811 l -0.9453125,0.9507 0,0.075 3.2011721,0 0,1.3965"
         style="fill:#ffffff;fill-opacity:1;stroke:#ffffff;stroke-width:2;stroke-linejoin:round;stroke-miterlimit:4;stroke-opacity:1;stroke-dasharray:none"
         id="path3996"
         inkscape:connector-curvature="0" />
      <path
         d="m 13.076904,1047.3622 2.792969,-6.4453 -3.609375,0 0,-1.3965 5.414063,0 0,1.042 -2.862793,6.7998 -1.734864,0"
         style="fill:#ffffff;fill-opacity:1;stroke:#ffffff;stroke-width:2;stroke-linejoin:round;stroke-miterlimit:4;stroke-opacity:1;stroke-dasharray:none"
         id="path3998"
         inkscape:connector-curvature="0" />
    </g>
    <g
       id="g3988"
       style="font-size:11px;font-style:normal;font-variant:normal;font-weight:bold;font-stretch:normal;line-height:125%;letter-spacing:0px;word-spacing:0px;opacity:0.15;fill:#ffffff;fill-opacity:1;stroke:#ffffff;stroke-linejoin:round;stroke-opacity:1;font-family:Droid Sans;-inkscape-font-specification:Droid Sans Bold"
       transform="matrix(1.0000003,0,0,1.0000013,-1.0000009,-0.001354)">
      <path
         id="path3990"
         style="fill:#ffffff;fill-opacity:1;stroke:#ffffff;stroke-linejoin:round;stroke-opacity:1"
         d="m 11.615967,1047.3622 -5.2690432,0 0,-1.1548 1.8476563,-1.9927 c 0.2327449,-0.2506 0.4440077,-0.4816 0.633789,-0.6928 0.1897756,-0.2113 0.3526986,-0.4172 0.4887696,-0.6177 0.1360641,-0.2005 0.2416955,-0.4046 0.3168945,-0.6123 0.075192,-0.2077 0.1127891,-0.4315 0.112793,-0.6714 -3.9e-6,-0.265 -0.08057,-0.4709 -0.2416992,-0.6177 -0.1575556,-0.1468 -0.3706087,-0.2202 -0.6391602,-0.2202 -0.2828803,0 -0.5550154,0.07 -0.8164063,0.2095 -0.2613951,0.1396 -0.5353206,0.3384 -0.8217773,0.5962 l -0.9023437,-1.0689 c 0.1611322,-0.1468 0.3294263,-0.2864 0.5048828,-0.4189 0.1754546,-0.1361 0.3688138,-0.2561 0.5800781,-0.3599 0.2112613,-0.1038 0.4440085,-0.1862 0.6982422,-0.2471 0.2542293,-0.064 0.538897,-0.097 0.8540039,-0.097 0.3759731,0 0.7125613,0.052 1.0097656,0.1557 0.3007769,0.1039 0.5567989,0.2525 0.7680669,0.4458 0.211257,0.1898 0.37239,0.4208 0.483398,0.6929 0.114578,0.2721 0.171869,0.5783 0.171875,0.9184 -6e-6,0.308 -0.05372,0.6034 -0.161133,0.8863 -0.107427,0.2793 -0.254237,0.555 -0.44043,0.8271 -0.186202,0.2686 -0.402836,0.5371 -0.649902,0.8057 -0.2434935,0.265 -0.5048864,0.5353 -0.7841796,0.811 l -0.9453125,0.9507 0,0.075 3.2011721,0 0,1.3965"
         inkscape:connector-curvature="0" />
      <path
         id="path3992"
         style="fill:#ffffff;fill-opacity:1;stroke:#ffffff;stroke-linejoin:round;stroke-opacity:1"
         d="m 13.076904,1047.3622 2.792969,-6.4453 -3.609375,0 0,-1.3965 5.414063,0 0,1.042 -2.862793,6.7998 -1.734864,0"
         inkscape:connector-curvature="0" />
    </g>
    <g
       style="font-size:11px;font-style:normal;font-variant:normal;font-weight:bold;font-stretch:normal;line-height:125%;letter-spacing:0px;word-spacing:0px;fill:#000000;fill-opacity:1;stroke:none;font-family:Droid Sans;-inkscape-font-specification:Droid Sans Bold"
       id="text3922"
       transform="matrix(1.0000003,0,0,1.0000013,-1.0000009,0.99864727)">
      <path
         d="m 11.615967,1047.3622 -5.2690432,0 0,-1.1548 1.8476563,-1.9927 c 0.2327449,-0.2506 0.4440077,-0.4816 0.633789,-0.6928 0.1897756,-0.2113 0.3526986,-0.4172 0.4887696,-0.6177 0.1360641,-0.2005 0.2416955,-0.4046 0.3168945,-0.6123 0.075192,-0.2077 0.1127891,-0.4315 0.112793,-0.6714 -3.9e-6,-0.265 -0.08057,-0.4709 -0.2416992,-0.6177 -0.1575556,-0.1468 -0.3706087,-0.2202 -0.6391602,-0.2202 -0.2828803,0 -0.5550154,0.07 -0.8164063,0.2095 -0.2613951,0.1396 -0.5353206,0.3384 -0.8217773,0.5962 l -0.9023437,-1.0689 c 0.1611322,-0.1468 0.3294263,-0.2864 0.5048828,-0.4189 0.1754546,-0.1361 0.3688138,-0.2561 0.5800781,-0.3599 0.2112613,-0.1038 0.4440085,-0.1862 0.6982422,-0.2471 0.2542293,-0.064 0.538897,-0.097 0.8540039,-0.097 0.3759731,0 0.7125613,0.052 1.0097656,0.1557 0.3007769,0.1039 0.5567989,0.2525 0.7680669,0.4458 0.211257,0.1898 0.37239,0.4208 0.483398,0.6929 0.114578,0.2721 0.171869,0.5783 0.171875,0.9184 -6e-6,0.308 -0.05372,0.6034 -0.161133,0.8863 -0.107427,0.2793 -0.254237,0.555 -0.44043,0.8271 -0.186202,0.2686 -0.402836,0.5371 -0.649902,0.8057 -0.2434935,0.265 -0.5048864,0.5353 -0.7841796,0.811 l -0.9453125,0.9507 0,0.075 3.2011721,0 0,1.3965"
         id="path3984"
         inkscape:connector-curvature="0" />
      <path
         d="m 13.076904,1047.3622 2.792969,-6.4453 -3.609375,0 0,-1.3965 5.414063,0 0,1.042 -2.862793,6.7998 -1.734864,0"
         id="path3986"
         inkscape:connector-curvature="0" />
    </g>
    <text
       xml:space="preserve"
       style="font-size:9px;font-style:normal;font-variant:normal;font-weight:normal;font-stretch:normal;line-height:125%;letter-spacing:0px;word-spacing:0px;fill:#000000;fill-opacity:1;stroke:none;font-family:Droid Sans;-inkscape-font-specification:Droid Sans"
       x="6.1155181"
       y="19.260473"
       id="text3926"
       sodipodi:linespacing="125%"
       transform="translate(0,1028.3622)"><tspan
         sodipodi:role="line"
         id="tspan3928"
         x="6.1155181"
         y="19.260473" /></text>
    <rect
       y="1033.3621"
       x="4.0000052"
       height="2"
       width="5"
       id="rect4147"
       style="opacity:0.6;fill:url(#linearGradient3067);fill-opacity:1;stroke:none"
       rx="0.5"
       ry="0.5" />
    <rect
       style="fill:url(#linearGradient3064);fill-opacity:1;stroke:none"
       id="rect3367"
       width="3.0000002"
       height="2.0000017"
       x="5.0000048"
       y="1032.3619" />
    <rect
       ry="0.5"
       rx="0.5"
       style="opacity:0.6;fill:url(#linearGradient3073);fill-opacity:1;stroke:none"
       id="rect3890"
       width="5"
       height="2"
       x="13"
       y="1033.3621" />
    <rect
       y="1032.3621"
       x="14"
       height="2.0000002"
       width="3.0000002"
       id="rect3892"
       style="fill:url(#linearGradient3070);fill-opacity:1;stroke:none" />
  </g>
</svg>
