<?xml version="1.0" encoding="UTF-8" standalone="no"?>
<!-- Created with Inkscape (http://www.inkscape.org/) -->

<svg
   xmlns:dc="http://purl.org/dc/elements/1.1/"
   xmlns:cc="http://creativecommons.org/ns#"
   xmlns:rdf="http://www.w3.org/1999/02/22-rdf-syntax-ns#"
   xmlns:svg="http://www.w3.org/2000/svg"
   xmlns="http://www.w3.org/2000/svg"
   xmlns:xlink="http://www.w3.org/1999/xlink"
   xmlns:sodipodi="http://sodipodi.sourceforge.net/DTD/sodipodi-0.dtd"
   xmlns:inkscape="http://www.inkscape.org/namespaces/inkscape"
   width="22"
   height="22"
   id="svg3147"
   version="1.1"
   inkscape:version="0.48.3.1 r9886"
   sodipodi:docname="evolution.svg">
  <defs
     id="defs3149">
    <linearGradient
       id="linearGradient3818">
      <stop
         style="stop-color:#ffffff;stop-opacity:1;"
         offset="0"
         id="stop3820" />
      <stop
         style="stop-color:#ebebeb;stop-opacity:1;"
         offset="1"
         id="stop3822" />
    </linearGradient>
    <linearGradient
       id="linearGradient3779">
      <stop
         style="stop-color:#1b40d8;stop-opacity:1;"
         offset="0"
         id="stop3781" />
      <stop
         style="stop-color:#4685de;stop-opacity:1;"
         offset="1"
         id="stop3783" />
    </linearGradient>
    <linearGradient
       id="linearGradient3771">
      <stop
         style="stop-color:#aee8e2;stop-opacity:1;"
         offset="0"
         id="stop3773" />
      <stop
         style="stop-color:#1b5bdc;stop-opacity:1;"
         offset="1"
         id="stop3775" />
    </linearGradient>
    <linearGradient
       id="linearGradient4536">
      <stop
         style="stop-color:#ffffff;stop-opacity:1;"
         offset="0"
         id="stop4538" />
      <stop
         id="stop4546"
         offset="0.06216056"
         style="stop-color:#ffffff;stop-opacity:0.15686275;" />
      <stop
         id="stop4544"
         offset="0.936414"
         style="stop-color:#ffffff;stop-opacity:0.23529412;" />
      <stop
         style="stop-color:#ffffff;stop-opacity:0.39215687;"
         offset="1"
         id="stop4540" />
    </linearGradient>
    <radialGradient
       inkscape:collect="always"
       xlink:href="#linearGradient3688-166-749"
       id="radialGradient3132"
       gradientUnits="userSpaceOnUse"
       gradientTransform="matrix(2.003784,0,0,1.4,27.98813,-17.4)"
       cx="4.9929786"
       cy="43.5"
       fx="4.9929786"
       fy="43.5"
       r="2.5" />
    <linearGradient
       id="linearGradient3688-166-749">
      <stop
         id="stop2883"
         style="stop-color:#181818;stop-opacity:1"
         offset="0" />
      <stop
         id="stop2885"
         style="stop-color:#181818;stop-opacity:0"
         offset="1" />
    </linearGradient>
    <radialGradient
       inkscape:collect="always"
       xlink:href="#linearGradient3688-464-309"
       id="radialGradient3134"
       gradientUnits="userSpaceOnUse"
       gradientTransform="matrix(2.003784,0,0,1.4,-20.01187,-104.4)"
       cx="4.9929786"
       cy="43.5"
       fx="4.9929786"
       fy="43.5"
       r="2.5" />
    <linearGradient
       id="linearGradient3688-464-309">
      <stop
         id="stop2889"
         style="stop-color:#181818;stop-opacity:1"
         offset="0" />
      <stop
         id="stop2891"
         style="stop-color:#181818;stop-opacity:0"
         offset="1" />
    </linearGradient>
    <linearGradient
       inkscape:collect="always"
       xlink:href="#linearGradient3702-501-757"
       id="linearGradient3136"
       gradientUnits="userSpaceOnUse"
       x1="25.058096"
       y1="47.027729"
       x2="25.058096"
       y2="39.999443" />
    <linearGradient
       id="linearGradient3702-501-757">
      <stop
         id="stop2895"
         style="stop-color:#181818;stop-opacity:0"
         offset="0" />
      <stop
         id="stop2897"
         style="stop-color:#181818;stop-opacity:1"
         offset="0.5" />
      <stop
         id="stop2899"
         style="stop-color:#181818;stop-opacity:0"
         offset="1" />
    </linearGradient>
    <linearGradient
       inkscape:collect="always"
       xlink:href="#linearGradient4536"
       id="linearGradient4542"
       x1="23.522522"
       y1="1010.4793"
       x2="23.522522"
       y2="1028.3296"
       gradientUnits="userSpaceOnUse"
       gradientTransform="translate(-3.0000003,21.999965)" />
    <radialGradient
       inkscape:collect="always"
       xlink:href="#linearGradient3771"
       id="radialGradient3777"
       cx="12.144132"
       cy="1035.2451"
       fx="12.144132"
       fy="1035.2451"
       r="10"
       gradientUnits="userSpaceOnUse"
       gradientTransform="matrix(-3.665586e-6,1.8025593,-1.2883084,-2.6198335e-6,1344.8592,1014.3572)" />
    <linearGradient
       inkscape:collect="always"
       xlink:href="#linearGradient3779"
       id="linearGradient3785"
       x1="7.4414415"
       y1="1050.3097"
       x2="7.4414415"
       y2="1030.4163"
       gradientUnits="userSpaceOnUse"
       gradientTransform="translate(-1.0000003,0.99994746)" />
    <radialGradient
       inkscape:collect="always"
       xlink:href="#linearGradient3771"
       id="radialGradient3795"
       cx="12.072083"
       cy="1032.682"
       fx="12.072083"
       fy="1032.682"
       r="6"
       gradientTransform="matrix(-3.4087139e-7,0.91318947,-1.7701482,-4.8545142e-7,1839.084,1024.7933)"
       gradientUnits="userSpaceOnUse" />
    <radialGradient
       inkscape:collect="always"
       xlink:href="#linearGradient3818"
       id="radialGradient3824"
       cx="12.108088"
       cy="1035.0321"
       fx="12.108088"
       fy="1035.0321"
       r="6"
       gradientTransform="matrix(-9.5417665e-7,1.1293248,-1.3051739,-1.1027531e-6,1362.005,1022.9551)"
       gradientUnits="userSpaceOnUse" />
  </defs>
  <sodipodi:namedview
     id="base"
     pagecolor="#ffffff"
     bordercolor="#666666"
     borderopacity="1.0"
     inkscape:pageopacity="0.0"
     inkscape:pageshadow="2"
     inkscape:zoom="6.9375"
     inkscape:cx="13.706206"
     inkscape:cy="-1.2879451"
     inkscape:document-units="px"
     inkscape:current-layer="layer1"
     showgrid="false"
     inkscape:window-width="1280"
     inkscape:window-height="751"
     inkscape:window-x="0"
     inkscape:window-y="24"
     inkscape:window-maximized="1" />
  <metadata
     id="metadata3152">
    <rdf:RDF>
      <cc:Work
         rdf:about="">
        <dc:format>image/svg+xml</dc:format>
        <dc:type
           rdf:resource="http://purl.org/dc/dcmitype/StillImage" />
        <dc:title></dc:title>
      </cc:Work>
    </rdf:RDF>
  </metadata>
  <g
     inkscape:label="Livello 1"
     inkscape:groupmode="layer"
     id="layer1"
     transform="translate(0,-1030.3622)">
    <rect
       style="fill:url(#radialGradient3777);fill-opacity:1;stroke:url(#linearGradient3785);stroke-opacity:1"
       id="rect3163"
       width="19"
       height="19"
       x="1.4999998"
       y="1031.8621"
       rx="1.5"
       ry="1.5" />
    <rect
       style="opacity:0.1;fill:#000000;fill-opacity:1;stroke:none"
       id="rect3830"
       width="12"
       height="7"
       x="5.000001"
       y="1037.3623"
       rx="0.5"
       ry="0.5" />
    <rect
       ry="0.5"
       rx="0.5"
       y="1036.3624"
       x="5.000001"
       height="7"
       width="12"
       id="rect3826"
       style="opacity:0.15;fill:#000000;fill-opacity:1;stroke:none" />
    <rect
       style="fill:url(#radialGradient3824);fill-opacity:1;stroke:none"
       id="rect3816"
       width="12"
       height="7"
       x="5.000001"
       y="1035.3624"
       rx="0.5"
       ry="0.5" />
    <rect
       style="opacity:0.05;fill:#000000;fill-opacity:1;stroke:none"
       id="rect3814"
       width="14.000002"
       height="3"
       x="4.000001"
       y="1037.3621" />
    <rect
       style="opacity:0.3;fill:none;stroke:url(#linearGradient4542);stroke-opacity:1"
       id="rect4534"
       width="17"
       height="17"
       x="2.5000005"
       y="1032.8621"
       rx="0.5"
       ry="0.5" />
    <rect
       y="1036.3623"
       x="4.000001"
       height="3"
       width="14.000002"
       id="rect3810"
       style="opacity:0.1;fill:#000000;fill-opacity:1;stroke:none" />
    <rect
       y="1034.4626"
       x="3.000001"
       height="3.8999991"
       width="16.000002"
       id="rect3797"
       style="fill:#4a85e7;fill-opacity:1;stroke:none" />
    <rect
       style="fill:url(#radialGradient3795);fill-opacity:1;stroke:none"
       id="rect3787"
       width="14.000002"
       height="3"
       x="4.000001"
       y="1035.3624" />
    <path
       style="opacity:0.1;fill:#ffffff;fill-opacity:1;stroke:none"
       d="m 3.9999997,1035.3622 0,3 14.0000003,0 0,-3 z m 1,1 12.0000003,0 0,1 -12.0000003,0 z"
       id="rect3801"
       inkscape:connector-curvature="0"
       sodipodi:nodetypes="cccccccccc" />
    <g
       id="g3841"
       style="font-size:10.22287273px;font-style:normal;font-variant:normal;font-weight:bold;font-stretch:normal;line-height:125%;letter-spacing:0px;word-spacing:0px;opacity:0.15;fill:#ffffff;fill-opacity:1;stroke:none;font-family:Droid Sans;-inkscape-font-specification:Droid Sans Bold"
       transform="matrix(0.51008268,0,0,0.4901161,-0.99999323,526.18116)">
      <path
         id="path3843"
         d="m 27.446517,1061.9205 c -8e-6,0.3161 -0.03828,0.6289 -0.114807,0.9384 -0.07322,0.3095 -0.186363,0.5874 -0.339432,0.8336 -0.153084,0.2429 -0.346094,0.4409 -0.579029,0.594 -0.229623,0.1498 -0.500835,0.2246 -0.813637,0.2246 -0.126461,0 -0.246261,-0.015 -0.359398,-0.045 -0.109822,-0.033 -0.211319,-0.078 -0.30449,-0.1348 -0.09318,-0.06 -0.174713,-0.1281 -0.24459,-0.2046 -0.06656,-0.08 -0.118141,-0.1664 -0.154741,-0.2596 l -0.07487,0 c -0.06323,0.083 -0.136443,0.1647 -0.219632,0.2446 -0.0832,0.077 -0.176376,0.1448 -0.279531,0.2047 -0.103166,0.06 -0.217973,0.1081 -0.344423,0.1447 -0.123132,0.033 -0.257906,0.05 -0.404323,0.05 -0.276208,0 -0.522461,-0.046 -0.738762,-0.1397 -0.21298,-0.097 -0.392679,-0.2313 -0.539097,-0.4043 -0.146424,-0.1764 -0.257904,-0.3861 -0.33444,-0.629 -0.07654,-0.2462 -0.11481,-0.5175 -0.114807,-0.8136 -3e-6,-0.3428 0.05158,-0.6573 0.15474,-0.9434 0.103158,-0.2862 0.251243,-0.5325 0.444256,-0.7388 0.193007,-0.2097 0.427614,-0.3711 0.703821,-0.4842 0.2762,-0.1165 0.585681,-0.1747 0.928445,-0.1747 0.149744,0 0.304484,0.01 0.464222,0.025 0.159727,0.017 0.312804,0.038 0.45923,0.065 0.149744,0.027 0.289509,0.057 0.419298,0.09 0.129776,0.033 0.241256,0.067 0.33444,0.1 l -0.104825,2.0915 c -0.0067,0.073 -0.01,0.1448 -0.01,0.2147 -6e-6,0.07 -6e-6,0.1148 0,0.1347 -6e-6,0.1398 0.01,0.2546 0.02995,0.3445 0.02329,0.09 0.05157,0.1614 0.08486,0.2146 0.0366,0.05 0.07653,0.085 0.119799,0.1048 0.04658,0.02 0.09483,0.03 0.144757,0.03 0.116465,0 0.217962,-0.045 0.30449,-0.1348 0.08651,-0.09 0.158062,-0.2113 0.214641,-0.3644 0.05656,-0.1531 0.09982,-0.3311 0.129782,-0.5341 0.02994,-0.2063 0.04492,-0.4243 0.04493,-0.6539 -7e-6,-0.4259 -0.06324,-0.8053 -0.189682,-1.1381 -0.126462,-0.3328 -0.302833,-0.614 -0.529114,-0.8436 -0.222966,-0.2296 -0.489186,-0.4043 -0.798662,-0.5241 -0.309487,-0.1198 -0.64559,-0.1797 -1.00831,-0.1797 -0.509152,0 -0.958399,0.085 -1.347742,0.2546 -0.386023,0.1697 -0.71048,0.4076 -0.97337,0.7138 -0.259567,0.3028 -0.457568,0.6622 -0.594005,1.0782 -0.133112,0.4159 -0.199667,0.8718 -0.199665,1.3677 -2e-6,0.4592 0.05823,0.8669 0.174707,1.2229 0.11647,0.3528 0.289513,0.6506 0.519131,0.8935 0.229612,0.2396 0.512471,0.4227 0.848578,0.5491 0.3361,0.1231 0.723783,0.1847 1.163051,0.1847 0.18635,0 0.377696,-0.012 0.574039,-0.035 0.196332,-0.023 0.391006,-0.055 0.584021,-0.095 0.196332,-0.04 0.387678,-0.088 0.574038,-0.1447 0.189676,-0.057 0.369375,-0.1182 0.539097,-0.1847 l 0,0.9584 c -0.312815,0.1397 -0.660566,0.2495 -1.043252,0.3294 -0.37937,0.083 -0.785356,0.1248 -1.217959,0.1248 -0.602328,0 -1.141425,-0.087 -1.617291,-0.2596 -0.472544,-0.1697 -0.871874,-0.4159 -1.197993,-0.7387 -0.326121,-0.3228 -0.575703,-0.7172 -0.748745,-1.183 -0.173044,-0.4693 -0.259566,-1 -0.259565,-1.5924 -1e-6,-0.4126 0.04492,-0.8069 0.134774,-1.183 0.08985,-0.3793 0.219631,-0.7304 0.389347,-1.0532 0.169715,-0.3261 0.376036,-0.6206 0.618963,-0.8835 0.246253,-0.2663 0.525784,-0.4925 0.838595,-0.6789 0.312807,-0.1897 0.65723,-0.3344 1.033269,-0.4343 0.376033,-0.1031 0.778691,-0.1547 1.207977,-0.1547 0.52578,0 1.009968,0.085 1.452566,0.2546 0.442585,0.1663 0.823613,0.4076 1.143085,0.7237 0.322785,0.3129 0.57403,0.6939 0.753737,1.1431 0.179691,0.4493 0.26954,0.9551 0.269548,1.5175 m -4.801954,0.6239 c -4e-6,0.3727 0.06322,0.6423 0.189682,0.8087 0.126451,0.163 0.294502,0.2446 0.504155,0.2446 0.139762,0 0.259561,-0.032 0.359398,-0.095 0.103156,-0.066 0.18635,-0.158 0.249582,-0.2745 0.06655,-0.1198 0.116466,-0.2612 0.149749,-0.4243 0.0366,-0.1664 0.0599,-0.3511 0.06988,-0.5541 l 0.0599,-1.1031 c -0.06656,-0.017 -0.144762,-0.03 -0.234606,-0.04 -0.08986,-0.01 -0.181368,-0.015 -0.27454,-0.015 -0.196343,0 -0.36273,0.042 -0.499164,0.1248 -0.136442,0.083 -0.247922,0.193 -0.33444,0.3294 -0.0832,0.1365 -0.144761,0.2929 -0.18469,0.4692 -0.03661,0.1731 -0.05491,0.3494 -0.05491,0.5291"
         inkscape:connector-curvature="0"
         style="fill:#ffffff;fill-opacity:1" />
    </g>
    <g
       transform="matrix(0.51008268,0,0,0.4901161,-0.99999323,525.68116)"
       style="font-size:10.22287273px;font-style:normal;font-variant:normal;font-weight:bold;font-stretch:normal;line-height:125%;letter-spacing:0px;word-spacing:0px;fill:#0040be;fill-opacity:1;stroke:none;font-family:Droid Sans;-inkscape-font-specification:Droid Sans Bold"
       id="text4259">
      <path
         inkscape:connector-curvature="0"
         d="m 27.446517,1061.9205 c -8e-6,0.3161 -0.03828,0.6289 -0.114807,0.9384 -0.07322,0.3095 -0.186363,0.5874 -0.339432,0.8336 -0.153084,0.2429 -0.346094,0.4409 -0.579029,0.594 -0.229623,0.1498 -0.500835,0.2246 -0.813637,0.2246 -0.126461,0 -0.246261,-0.015 -0.359398,-0.045 -0.109822,-0.033 -0.211319,-0.078 -0.30449,-0.1348 -0.09318,-0.06 -0.174713,-0.1281 -0.24459,-0.2046 -0.06656,-0.08 -0.118141,-0.1664 -0.154741,-0.2596 l -0.07487,0 c -0.06323,0.083 -0.136443,0.1647 -0.219632,0.2446 -0.0832,0.077 -0.176376,0.1448 -0.279531,0.2047 -0.103166,0.06 -0.217973,0.1081 -0.344423,0.1447 -0.123132,0.033 -0.257906,0.05 -0.404323,0.05 -0.276208,0 -0.522461,-0.046 -0.738762,-0.1397 -0.21298,-0.097 -0.392679,-0.2313 -0.539097,-0.4043 -0.146424,-0.1764 -0.257904,-0.3861 -0.33444,-0.629 -0.07654,-0.2462 -0.11481,-0.5175 -0.114807,-0.8136 -3e-6,-0.3428 0.05158,-0.6573 0.15474,-0.9434 0.103158,-0.2862 0.251243,-0.5325 0.444256,-0.7388 0.193007,-0.2097 0.427614,-0.3711 0.703821,-0.4842 0.2762,-0.1165 0.585681,-0.1747 0.928445,-0.1747 0.149744,0 0.304484,0.01 0.464222,0.025 0.159727,0.017 0.312804,0.038 0.45923,0.065 0.149744,0.027 0.289509,0.057 0.419298,0.09 0.129776,0.033 0.241256,0.067 0.33444,0.1 l -0.104825,2.0915 c -0.0067,0.073 -0.01,0.1448 -0.01,0.2147 -6e-6,0.07 -6e-6,0.1148 0,0.1347 -6e-6,0.1398 0.01,0.2546 0.02995,0.3445 0.02329,0.09 0.05157,0.1614 0.08486,0.2146 0.0366,0.05 0.07653,0.085 0.119799,0.1048 0.04658,0.02 0.09483,0.03 0.144757,0.03 0.116465,0 0.217962,-0.045 0.30449,-0.1348 0.08651,-0.09 0.158062,-0.2113 0.214641,-0.3644 0.05656,-0.1531 0.09982,-0.3311 0.129782,-0.5341 0.02994,-0.2063 0.04492,-0.4243 0.04493,-0.6539 -7e-6,-0.4259 -0.06324,-0.8053 -0.189682,-1.1381 -0.126462,-0.3328 -0.302833,-0.614 -0.529114,-0.8436 -0.222966,-0.2296 -0.489186,-0.4043 -0.798662,-0.5241 -0.309487,-0.1198 -0.64559,-0.1797 -1.00831,-0.1797 -0.509152,0 -0.958399,0.085 -1.347742,0.2546 -0.386023,0.1697 -0.71048,0.4076 -0.97337,0.7138 -0.259567,0.3028 -0.457568,0.6622 -0.594005,1.0782 -0.133112,0.4159 -0.199667,0.8718 -0.199665,1.3677 -2e-6,0.4592 0.05823,0.8669 0.174707,1.2229 0.11647,0.3528 0.289513,0.6506 0.519131,0.8935 0.229612,0.2396 0.512471,0.4227 0.848578,0.5491 0.3361,0.1231 0.723783,0.1847 1.163051,0.1847 0.18635,0 0.377696,-0.012 0.574039,-0.035 0.196332,-0.023 0.391006,-0.055 0.584021,-0.095 0.196332,-0.04 0.387678,-0.088 0.574038,-0.1447 0.189676,-0.057 0.369375,-0.1182 0.539097,-0.1847 l 0,0.9584 c -0.312815,0.1397 -0.660566,0.2495 -1.043252,0.3294 -0.37937,0.083 -0.785356,0.1248 -1.217959,0.1248 -0.602328,0 -1.141425,-0.087 -1.617291,-0.2596 -0.472544,-0.1697 -0.871874,-0.4159 -1.197993,-0.7387 -0.326121,-0.3228 -0.575703,-0.7172 -0.748745,-1.183 -0.173044,-0.4693 -0.259566,-1 -0.259565,-1.5924 -1e-6,-0.4126 0.04492,-0.8069 0.134774,-1.183 0.08985,-0.3793 0.219631,-0.7304 0.389347,-1.0532 0.169715,-0.3261 0.376036,-0.6206 0.618963,-0.8835 0.246253,-0.2663 0.525784,-0.4925 0.838595,-0.6789 0.312807,-0.1897 0.65723,-0.3344 1.033269,-0.4343 0.376033,-0.1031 0.778691,-0.1547 1.207977,-0.1547 0.52578,0 1.009968,0.085 1.452566,0.2546 0.442585,0.1663 0.823613,0.4076 1.143085,0.7237 0.322785,0.3129 0.57403,0.6939 0.753737,1.1431 0.179691,0.4493 0.26954,0.9551 0.269548,1.5175 m -4.801954,0.6239 c -4e-6,0.3727 0.06322,0.6423 0.189682,0.8087 0.126451,0.163 0.294502,0.2446 0.504155,0.2446 0.139762,0 0.259561,-0.032 0.359398,-0.095 0.103156,-0.066 0.18635,-0.158 0.249582,-0.2745 0.06655,-0.1198 0.116466,-0.2612 0.149749,-0.4243 0.0366,-0.1664 0.0599,-0.3511 0.06988,-0.5541 l 0.0599,-1.1031 c -0.06656,-0.017 -0.144762,-0.03 -0.234606,-0.04 -0.08986,-0.01 -0.181368,-0.015 -0.27454,-0.015 -0.196343,0 -0.36273,0.042 -0.499164,0.1248 -0.136442,0.083 -0.247922,0.193 -0.33444,0.3294 -0.0832,0.1365 -0.144761,0.2929 -0.18469,0.4692 -0.03661,0.1731 -0.05491,0.3494 -0.05491,0.5291"
         id="path3815" />
    </g>
  </g>
</svg>
