<?xml version="1.0" encoding="UTF-8" standalone="no"?>
<!-- Created with Inkscape (http://www.inkscape.org/) -->

<svg
   xmlns:dc="http://purl.org/dc/elements/1.1/"
   xmlns:cc="http://creativecommons.org/ns#"
   xmlns:rdf="http://www.w3.org/1999/02/22-rdf-syntax-ns#"
   xmlns:svg="http://www.w3.org/2000/svg"
   xmlns="http://www.w3.org/2000/svg"
   xmlns:xlink="http://www.w3.org/1999/xlink"
   xmlns:sodipodi="http://sodipodi.sourceforge.net/DTD/sodipodi-0.dtd"
   xmlns:inkscape="http://www.inkscape.org/namespaces/inkscape"
   width="22"
   height="22"
   id="svg3147"
   version="1.1"
   inkscape:version="0.48.3.1 r9886"
   sodipodi:docname="preferences-system-network.svg">
  <defs
     id="defs3149">
    <linearGradient
       id="linearGradient3978">
      <stop
         style="stop-color:#e8bf00;stop-opacity:1;"
         offset="0"
         id="stop3980" />
      <stop
         style="stop-color:#ffff75;stop-opacity:0;"
         offset="1"
         id="stop3982" />
    </linearGradient>
    <linearGradient
       id="linearGradient3808">
      <stop
         style="stop-color:#141414;stop-opacity:1;"
         offset="0"
         id="stop3810" />
      <stop
         style="stop-color:#333333;stop-opacity:1;"
         offset="1"
         id="stop3812" />
    </linearGradient>
    <linearGradient
       id="linearGradient3800">
      <stop
         style="stop-color:#ffffff;stop-opacity:1;"
         offset="0"
         id="stop3802" />
      <stop
         style="stop-color:#787878;stop-opacity:1;"
         offset="1"
         id="stop3804" />
    </linearGradient>
    <linearGradient
       id="linearGradient3786">
      <stop
         style="stop-color:#f0f0f0;stop-opacity:1;"
         offset="0"
         id="stop3788" />
      <stop
         id="stop3796"
         offset="0.25"
         style="stop-color:#d2d2d2;stop-opacity:1;" />
      <stop
         id="stop3794"
         offset="0.5"
         style="stop-color:#bebebe;stop-opacity:1;" />
      <stop
         style="stop-color:#969696;stop-opacity:1;"
         offset="1"
         id="stop3790" />
    </linearGradient>
    <linearGradient
       id="linearGradient3778">
      <stop
         style="stop-color:#646464;stop-opacity:1;"
         offset="0"
         id="stop3780" />
      <stop
         style="stop-color:#8c8c8c;stop-opacity:1;"
         offset="1"
         id="stop3782" />
    </linearGradient>
    <linearGradient
       id="linearGradient4536">
      <stop
         style="stop-color:#ffffff;stop-opacity:1;"
         offset="0"
         id="stop4538" />
      <stop
         id="stop4546"
         offset="0.06216056"
         style="stop-color:#ffffff;stop-opacity:0.15686275;" />
      <stop
         id="stop4544"
         offset="0.936414"
         style="stop-color:#ffffff;stop-opacity:0.23529412;" />
      <stop
         style="stop-color:#ffffff;stop-opacity:0.39215687;"
         offset="1"
         id="stop4540" />
    </linearGradient>
    <radialGradient
       inkscape:collect="always"
       xlink:href="#linearGradient3688-166-749"
       id="radialGradient3132"
       gradientUnits="userSpaceOnUse"
       gradientTransform="matrix(2.003784,0,0,1.4,27.98813,-17.4)"
       cx="4.9929786"
       cy="43.5"
       fx="4.9929786"
       fy="43.5"
       r="2.5" />
    <linearGradient
       id="linearGradient3688-166-749">
      <stop
         id="stop2883"
         style="stop-color:#181818;stop-opacity:1"
         offset="0" />
      <stop
         id="stop2885"
         style="stop-color:#181818;stop-opacity:0"
         offset="1" />
    </linearGradient>
    <radialGradient
       inkscape:collect="always"
       xlink:href="#linearGradient3688-464-309"
       id="radialGradient3134"
       gradientUnits="userSpaceOnUse"
       gradientTransform="matrix(2.003784,0,0,1.4,-20.01187,-104.4)"
       cx="4.9929786"
       cy="43.5"
       fx="4.9929786"
       fy="43.5"
       r="2.5" />
    <linearGradient
       id="linearGradient3688-464-309">
      <stop
         id="stop2889"
         style="stop-color:#181818;stop-opacity:1"
         offset="0" />
      <stop
         id="stop2891"
         style="stop-color:#181818;stop-opacity:0"
         offset="1" />
    </linearGradient>
    <linearGradient
       inkscape:collect="always"
       xlink:href="#linearGradient3702-501-757"
       id="linearGradient3136"
       gradientUnits="userSpaceOnUse"
       x1="25.058096"
       y1="47.027729"
       x2="25.058096"
       y2="39.999443" />
    <linearGradient
       id="linearGradient3702-501-757">
      <stop
         id="stop2895"
         style="stop-color:#181818;stop-opacity:0"
         offset="0" />
      <stop
         id="stop2897"
         style="stop-color:#181818;stop-opacity:1"
         offset="0.5" />
      <stop
         id="stop2899"
         style="stop-color:#181818;stop-opacity:0"
         offset="1" />
    </linearGradient>
    <linearGradient
       inkscape:collect="always"
       xlink:href="#linearGradient4536"
       id="linearGradient4542"
       x1="23.522522"
       y1="1010.4793"
       x2="23.522522"
       y2="1028.3296"
       gradientUnits="userSpaceOnUse"
       gradientTransform="translate(-3,22.000031)" />
    <linearGradient
       inkscape:collect="always"
       xlink:href="#linearGradient3778"
       id="linearGradient3784"
       x1="5.8558559"
       y1="1050.0922"
       x2="5.8558559"
       y2="1030.4883"
       gradientUnits="userSpaceOnUse"
       gradientTransform="translate(-1,1.0000137)" />
    <radialGradient
       inkscape:collect="always"
       xlink:href="#linearGradient3786"
       id="radialGradient3792"
       cx="12.216212"
       cy="1033.5874"
       fx="12.216212"
       fy="1033.5874"
       r="10"
       gradientUnits="userSpaceOnUse"
       gradientTransform="matrix(1.7079932e-6,1.8127962,-1.3460231,1.2682056e-6,1402.4487,1012.4406)" />
    <linearGradient
       inkscape:collect="always"
       xlink:href="#linearGradient3800"
       id="linearGradient3827"
       x1="8.0855856"
       y1="17.009008"
       x2="8.0855856"
       y2="6.9537888"
       gradientUnits="userSpaceOnUse"
       gradientTransform="translate(-1,1029.3622)" />
    <linearGradient
       inkscape:collect="always"
       xlink:href="#linearGradient3808"
       id="linearGradient3829"
       gradientUnits="userSpaceOnUse"
       gradientTransform="translate(-1.5990992,1029.8171)"
       x1="12.797297"
       y1="7.5353069"
       x2="12.797297"
       y2="15.546751" />
    <linearGradient
       inkscape:collect="always"
       xlink:href="#linearGradient3978"
       id="linearGradient3984"
       x1="12.256757"
       y1="1042.3287"
       x2="12.256757"
       y2="1039.3082"
       gradientUnits="userSpaceOnUse"
       gradientTransform="translate(0,0.99992304)" />
    <linearGradient
       inkscape:collect="always"
       xlink:href="#linearGradient3978"
       id="linearGradient3042"
       gradientUnits="userSpaceOnUse"
       gradientTransform="translate(-0.5,0.99992304)"
       x1="12.256757"
       y1="1042.3287"
       x2="12.256757"
       y2="1039.3082" />
    <linearGradient
       inkscape:collect="always"
       xlink:href="#linearGradient3978"
       id="linearGradient3060"
       gradientUnits="userSpaceOnUse"
       gradientTransform="translate(-1.5,1.9999367)"
       x1="12.256757"
       y1="1042.3287"
       x2="12.256757"
       y2="1039.3082" />
  </defs>
  <sodipodi:namedview
     id="base"
     pagecolor="#ffffff"
     bordercolor="#666666"
     borderopacity="1.0"
     inkscape:pageopacity="0.0"
     inkscape:pageshadow="2"
     inkscape:zoom="13.875"
     inkscape:cx="8.8920194"
     inkscape:cy="8.2641741"
     inkscape:document-units="px"
     inkscape:current-layer="layer1"
     showgrid="false"
     inkscape:window-width="1280"
     inkscape:window-height="749"
     inkscape:window-x="0"
     inkscape:window-y="24"
     inkscape:window-maximized="1" />
  <metadata
     id="metadata3152">
    <rdf:RDF>
      <cc:Work
         rdf:about="">
        <dc:format>image/svg+xml</dc:format>
        <dc:type
           rdf:resource="http://purl.org/dc/dcmitype/StillImage" />
        <dc:title></dc:title>
      </cc:Work>
    </rdf:RDF>
  </metadata>
  <g
     inkscape:label="Livello 1"
     inkscape:groupmode="layer"
     id="layer1"
     transform="translate(0,-1030.3622)">
    <rect
       style="fill:url(#radialGradient3792);fill-opacity:1;stroke:url(#linearGradient3784);stroke-opacity:1"
       id="rect3163"
       width="19"
       height="19"
       x="1.5"
       y="1031.8622"
       rx="1.5"
       ry="1.5" />
    <rect
       style="opacity:0.3;fill:none;stroke:url(#linearGradient4542);stroke-opacity:1"
       id="rect4534"
       width="17"
       height="17"
       x="2.5"
       y="1032.8622"
       rx="0.5"
       ry="0.5" />
    <path
       inkscape:connector-curvature="0"
       d="m 2.4736818,1032.3651 c -0.262421,0 -0.4736841,0.2232 -0.4736841,0.5003 l 0,1.3757 0.1776315,-0.2345 0.1332237,0.063 0.2664473,0 0.2220394,-0.2345 0.2664473,-0.125 0.029605,-0.172 -0.1628289,-0.1563 -0.1480263,-0.047 -0.088816,-0.2189 0.1924342,-0.125 0.2960526,0.1718 0.1036184,-0.1249 -0.162829,-0.094 0.3404605,-0.469 -0.029605,-0.1094 -0.9621708,0 z m 3.1085519,0 0,0.015 0.05921,0.094 0.074013,-0.1094 -0.1332237,0 z m 3.1233547,0 -0.1332237,0.2347 -0.044408,0.1249 0.2516447,0.078 0.044408,-0.172 0.074013,-0.2343 0.059211,-0.032 -0.2516447,0 z m 1.8355256,0 0,0.1251 0.296053,0.1251 -0.148026,0.125 -0.310855,-0.125 -0.133224,0.125 -0.192434,-0.2344 -0.0444,0.078 0.222039,0.7034 0.0444,0.032 0.148026,-0.079 0.07402,0.047 0,0.1251 -0.133223,-0.047 -0.08882,0.063 0.05921,0.1252 -0.0444,0.3281 -0.28125,0.032 -0.01481,-0.1095 0.162829,-0.094 0.02961,-0.297 -0.177631,-0.2502 -0.07402,-0.4376 -0.28125,-0.063 -0.02961,0.1563 0.05921,0.079 -0.133224,0.1094 0.05921,0.297 0.162829,0.079 0.0444,0.2189 -0.177632,-0.1251 -0.444078,-0.079 -0.05921,0.1564 -0.3552637,0.1251 -0.059211,-0.094 -0.4736841,0.2814 0,0.1719 -0.1924342,0.032 0.05921,-0.1251 0,-0.1407 -0.1776315,-0.078 -0.118421,0.063 0.088816,0.2033 0.074013,0.1251 0,0.1094 -0.1332237,-0.032 -0.029605,-0.015 -0.1332237,0.1562 0.074013,0.1252 -0.3108552,0 0.1036184,0.125 -0.029605,0.063 -0.1628289,0 -0.118421,-0.079 -0.029605,-0.2501 -0.1924342,-0.078 0,-0.094 0.399671,0.079 0.2220394,0.032 0.088816,-0.1562 -0.088816,-0.1564 -0.5773025,-0.2344 -0.2072369,0.047 -0.074013,0.063 0.029605,0.1407 0.088816,0.015 -0.029605,0.2346 0.2664474,0.6565 -0.1924343,0.3285 -0.014803,0.063 0.1036185,0.079 -0.088816,0.063 -0.05921,0 0.014803,0.2813 0.074013,0.125 0,0.1095 0.1036184,0.015 0.162829,0.063 0.1628289,0.2503 0.014803,0.063 -0.05921,0.094 0.118421,-0.015 0.118421,0.047 0.1776316,0.2347 0.3996709,0.047 -0.014803,0.297 -0.1480263,0.1251 0.029605,0.047 -0.1332237,0.1563 -0.029605,0.1407 0.074013,0.125 0.2664473,0.1094 0.1036184,-0.079 0.7105267,0.2815 0.02961,-0.079 -0.1480268,-0.1406 0,-0.1876 -0.088816,-0.032 0.014803,-0.1564 0.1480263,-0.1875 -0.2664473,-0.2033 0.029605,-0.2814 0.2812498,-0.2033 0.3256581,0.016 0.05921,0.1095 0.3404599,0.015 0.236842,-0.1407 -0.118421,-0.1405 0.01481,-0.2815 0.651315,-0.3283 0.488487,0.2344 0.162829,-0.1562 0.488487,0.4847 0.370066,-0.032 0.133223,0.1249 0.340461,0.046 0.236842,-0.3283 0.296052,0.1407 0.148027,0.016 0.162828,-0.1408 -0.148026,-0.094 0.118421,-0.2031 0.340461,0.1251 0.07402,0.1563 0.148026,0 0.08882,-0.063 0.251644,-0.015 0.02961,0.079 0.281249,0.016 0.192435,-0.2189 0.399671,0.047 0.118421,-0.047 0.02961,-0.2345 -0.118421,-0.2814 0.118421,-0.1094 0.384868,0 0.355263,0.4534 0.458882,0.2813 0.133223,0 0.02961,-0.125 0.162828,-0.1094 0.01481,0.6409 -0.148025,0 0,0.1563 0.08882,0.1095 -0.01481,0.1407 0.05921,0.032 0.02961,-0.094 0.05921,0.015 0.02961,0.032 0.177631,-0.032 0.162829,-0.5158 0.01481,-0.6254 -0.207236,-0.5158 -0.266448,-0.3441 -0.133223,0.032 0,0.1094 -0.310856,-0.1407 0.118421,-0.2657 0.103619,-0.7192 0.414473,-0.1406 0.207237,-0.1408 0.22204,0 -0.05921,0.079 0.05921,0.1095 0.192434,-0.2189 0.103618,0 -0.01481,-0.1251 -0.177632,-0.032 0.118421,-0.469 0.162829,-0.1562 0.05921,0.2345 0.133223,0.047 0.133224,-0.2189 -0.07402,-0.1407 0.02961,-0.1251 0.192435,0 -0.0444,0.094 0.01481,0.3439 -0.28125,0.7348 0.02961,0.1562 -0.01481,0.2502 0.518092,0.7973 0.103618,0.032 0,-0.641 0.103619,-0.1093 -0.103619,-0.2502 0.08882,-0.1095 -0.207237,-0.2813 -0.103618,0.015 -0.02961,-0.4689 0.281249,-0.079 0.01481,-0.1407 0.148026,-0.032 0.07402,0.078 0.103618,-0.4377 0.02961,-0.047 -8.481906,0 z m -2.057565,0.4689 0.014803,0.1721 -0.118421,0.032 0,0.079 0.074013,0.1094 0.1776315,0.015 0.088816,0.094 0.088816,0 0.044408,-0.1094 -0.1332237,-0.1563 -0.05921,-0.2034 -0.1776315,-0.032 z m -5.5213805,0.3284 -0.059211,0.046 0.029605,0.063 0.1924341,0.094 0,-0.1563 -0.1628289,-0.046 z m 3.7154598,0.3127 -0.2664473,0.032 -0.029605,0.1251 -0.059211,-0.032 -0.044408,-0.063 -0.1184211,0 -0.014803,0.1407 -0.05921,0.032 -0.044408,-0.079 -0.2664473,0.2345 0.05921,0.063 -0.1036184,0.047 -0.2220394,0.4689 -0.088816,0.063 0.014803,0.047 0.074013,0.046 -0.014803,0.078 -0.1332237,0 -0.044408,-0.046 -0.088816,0.1094 -0.044408,0.032 -0.014803,0.1095 -0.044408,0.032 -0.1332237,0.015 -0.05921,0.2033 0.044408,0.3283 0.044408,0.1563 0.059211,0.047 0.118421,0 0.1776315,-0.1876 0.059211,-0.1095 0.029605,0.172 0.1036184,-0.2189 0.014803,-0.5939 0.088816,-0.063 0.029605,-0.3285 0.2812499,-0.4221 0.1332236,-0.047 0.059211,-0.079 0.2072368,0.047 0.088816,0.063 0.044408,-0.1874 0.1628289,-0.094 0.1036184,0.1718 0.074013,-0.047 -0.014803,-0.063 -0.044408,-0.032 0.014803,-0.079 0.029605,0 0,-0.046 -0.1628289,-0.047 z m -0.014803,0.172 -0.118421,0.094 -0.044408,0.2033 -0.1332237,-0.079 -0.1776316,-0.047 -0.044408,0.047 0.074013,0.063 0.1184211,0 0.1036185,0.1721 0.014803,0.2656 0.088816,0.032 0.044408,0.094 -0.044408,0.063 -0.2368422,0.2813 -0.044408,0.1406 0.05921,0.2032 0.1776317,0.1406 0.236842,-0.1249 0.1924342,-0.032 0.1776315,-0.2971 -0.1332236,-0.344 -0.118421,-0.3127 0.014803,-0.2032 -0.074013,-0.015 -0.029605,-0.1563 -0.1036184,-0.1876 z m 12.3601947,0.2032 0.02961,0.063 0.08882,0.063 0.02961,-0.032 -0.08882,-0.094 -0.05921,0 z m -12.8930894,0.047 -0.1332237,0.047 -0.2664473,0.4065 -0.029605,0.344 -0.088816,0.047 -0.014803,0.6096 -0.1332237,0.2346 0.1628289,0.2813 0.044408,0.2033 0.074013,0 0.059211,-0.1095 0.1480262,-0.063 0,-0.3127 0.088816,-0.094 0.074013,-0.094 0.014803,-0.078 -0.1776316,-0.1407 0,-0.172 0.088816,-0.172 0.074013,-0.015 0.1332237,-0.1876 0,-0.1252 0.1776315,-0.1407 -0.014803,-0.2501 -0.074013,-0.1564 -0.1332237,0 -0.074013,-0.063 z m 13.1003254,0 0,0.063 0.118421,0.032 0,-0.046 -0.118421,-0.047 z m 0.592105,0.2346 0.0444,0.094 0.07402,-0.015 0.01481,-0.063 -0.133224,-0.015 z m -17.0970349,0.2033 -0.1036184,0.063 -0.074013,0.079 0,0.047 0.1036184,0.015 0,0.078 -0.044408,0.047 0.014803,0.032 0.1036184,0 0,0.1407 0.1480263,0.015 0.1036184,0.063 0.1036184,0 0.1776315,-0.094 0.1332237,-0.1875 0,-0.1252 -0.088816,-0.078 -0.05921,-0.063 -0.044408,0.032 -0.044408,0.063 -0.044408,-0.015 -0.05921,-0.063 -0.074013,0.015 -0.088816,0.079 -0.074013,0.078 -0.029605,-0.032 0,-0.079 0.029605,-0.032 -0.014803,-0.032 -0.074013,-0.047 z m 14.3881539,0.2501 0,0.2346 0.28125,0.4689 0.103619,0.3909 0.177631,0.3596 0.07402,0.032 0.05921,-0.063 0.02961,-0.079 -0.266447,-0.2971 0.01481,-0.1563 0.05921,-0.016 0.01481,-0.094 -0.503289,-0.7504 -0.0444,-0.032 z m 1.509869,0.3597 -0.0444,0.063 0.01481,0.094 0.02961,0 0.07402,-0.1407 -0.07402,-0.015 z m 0,0.2188 -0.07402,0.016 0,0.1563 0.0444,0.015 0.02961,-0.047 0,-0.1408 z m -3.315788,0.1095 -0.08882,0.094 0.118421,0.2657 -0.0444,0.2659 -0.133224,0.063 -0.08882,-0.015 0,0.25 0.08882,0.032 0.148026,-0.078 0.192435,0.1095 0,0.094 -0.148027,0 -0.103618,0.2658 -0.103618,0 -0.355263,0.5003 -0.384869,0.172 -0.251645,0.032 -0.177631,-0.1407 -0.236842,0.1407 -0.266447,-0.078 -0.07402,-0.1876 -0.444079,-0.032 -0.236842,-0.4065 -0.103619,0 -0.08881,-0.1877 -0.08882,-0.015 -0.133224,0.3282 -0.162829,0 -0.192434,0.4222 0.162829,0.2033 -0.325658,0.4689 -0.162829,-0.015 -0.118421,0.1406 0.02961,0.094 0.133223,0 0.05921,0.1563 0.133223,0.032 0.399671,0.5315 0,0.2814 0.192435,0.125 0.207236,-0.032 0.266448,0.1564 0.325657,0.094 0.148027,-0.016 0.177631,-0.015 0.370066,-0.2502 0.118421,0.016 0.0444,0.1095 0.103619,0.032 0.133223,0.2188 -0.08882,0.219 0.05921,0.1407 0.148026,0.063 0.02961,0.1717 0.177632,0.015 0.02961,-0.078 0.266448,-0.1563 0.162828,0.015 0.192435,0.2186 0.133223,-0.046 0.08882,0 0.02961,0.1094 0.07402,0.016 0.08882,-0.1407 0.370066,-0.1406 0.325658,-0.4222 0.103618,-0.4065 0,-0.2657 -0.148026,-0.032 0.08882,-0.094 -0.01481,-0.1564 -0.355263,-0.3751 0,-0.172 0.103618,-0.1406 0.103619,-0.046 0,-0.1094 -0.251645,0 -0.0444,0.1407 -0.118421,-0.032 -0.148026,-0.1563 0.08882,-0.2658 0.133224,-0.1406 0.118421,0.015 -0.01481,0.2188 0.05921,0.063 0.148026,-0.172 0.05921,0 -0.01481,-0.1406 0.148026,-0.172 0.103618,0 0.07402,-0.2189 0.07402,-0.032 0,-0.1407 -0.07402,-0.079 0,-0.2032 0.133223,-0.016 0,-0.5472 -0.103618,0.063 -0.02961,0.1407 -0.162829,0 -0.488486,-0.2813 -0.340461,-0.4378 -0.355263,-0.016 z m -8.6447357,0.1093 -0.1332237,0.094 0,0.063 0.074013,0.079 0.2664473,0.047 0,-0.2658 -0.2072368,-0.015 z m -2.4572364,0.172 -0.1480263,0.1095 -0.088816,0.2969 0.088816,-0.015 -0.014803,0.1719 0.044408,0.047 0.1332236,0 0.014803,0.2188 -0.1036184,0.015 -0.014803,0.125 -0.088816,0.1251 0.1332236,0.015 0.044408,0.032 -0.2812499,0.1565 0.1036184,0.046 0.2812499,-0.1251 0.1776315,0.015 0.088816,-0.047 0.044408,-0.047 -0.044408,-0.032 0,-0.046 0.074013,-0.032 0,-0.079 -0.044408,-0.094 -0.1036184,-0.046 -0.074013,-0.1564 -0.074013,-0.1719 -0.029605,-0.1563 0.029605,-0.063 0,-0.063 -0.1480263,0 -0.029605,-0.047 0.074013,-0.1095 -0.044408,-0.046 z m 2.2055917,0 -0.044408,0.032 0.029605,0.032 0.059211,0 0.029605,-0.032 -0.029605,-0.032 -0.044408,0 z m -0.2516448,0.094 -0.074013,0.063 0.029605,0.094 0.074013,-0.063 -0.029605,-0.094 z m 0.4588816,0 0.014803,0.1564 0.2220395,0.1408 0.1036184,-0.032 -0.014803,-0.1095 -0.074013,-0.1094 -0.2516447,-0.047 z m -1.2582235,0.047 -0.1480263,0.1876 0,0.1093 0.05921,0.1878 0.1184211,-0.015 -0.014803,-0.1565 0.074013,-0.094 0,-0.063 -0.05921,-0.1406 -0.029605,-0.015 z m 1.0361841,0 -0.088816,0.125 0,0.063 0.029605,0.015 0.05921,0 0.1036184,-0.094 0.014803,-0.032 -0.05921,-0.063 -0.059211,-0.015 z m 4.144736,0.032 -0.62171,0.3282 -0.01481,0.2189 0.148026,0.1875 -0.28125,0.1564 -0.3700659,0 -0.07402,-0.1251 -0.2812501,-0.015 -0.2812503,0.1877 0,0.25 0.2516443,0.219 0.148027,-0.079 0.1628291,0 0.01481,0.2658 -0.103618,0 -0.07402,0.1407 0.1036181,0.1719 0.1480249,0.079 0.01481,0.094 0.0444,-0.015 0.05921,-0.063 0.07402,0.015 0.0444,0.094 0.1036189,0 0,-0.1096 -0.07402,-0.2031 -0.02961,-0.1564 0.192434,-0.079 0.251644,0.032 0.148027,0.172 0.355263,-0.032 0.192434,0.2814 0.236842,0.015 0.05921,-0.1094 0.07402,-0.016 0.01481,-0.1251 0.118421,0 0.07402,0.079 0.05921,-0.1564 0.547697,0.079 0.08882,-0.1251 -0.148026,-0.2032 0.207237,-0.4847 0.162829,0.016 0.118421,-0.297 -0.236842,-0.032 -0.133224,-0.1249 -0.355263,0.046 -0.473684,-0.4848 -0.162829,0.1563 -0.503289,-0.25 z m 7.963814,0.063 -0.07402,0.047 -0.0444,0.094 0,0.063 0.05921,-0.032 0.05921,-0.1252 0,-0.046 z m -11.9753264,0.032 -0.1036184,0.1095 -0.088816,0 0,0.1408 -0.05921,0.1093 0.2072367,0 0.044408,-0.015 0.059211,0.079 0.1332237,-0.015 0.118421,-0.1563 0,-0.1096 -0.236842,-0.1406 -0.074013,0 z m 6.8388144,0.015 -0.103618,0.1407 0.148026,0.1095 -0.207236,0.2033 -0.177632,-0.047 -0.251645,-0.1252 -0.222039,0.2971 0.05921,0.1564 0.118421,0 0.236843,0.422 0.458881,0.032 0.05921,0.1877 0.236843,0.078 0.251644,-0.1407 0.192434,0.1407 0.236842,-0.032 0.355264,-0.1721 0.370065,-0.4846 0.08882,-0.016 0.118421,-0.2657 0.118421,0 0,-0.046 -0.162829,-0.079 -0.148026,0.063 -0.118421,-0.016 0.01481,-0.2971 -0.28125,-0.032 -0.192434,0.2188 -0.325658,-0.015 -0.02961,-0.079 -0.192434,0 -0.103619,0.079 -0.177631,0 -0.08882,-0.1718 -0.28125,-0.1101 z m -6.3947355,0.1096 -0.1036184,0.032 0,0.1096 -0.1332237,0.1876 -0.1332236,0 0.05921,0.094 -0.029605,0.078 0,0.047 0.029605,0.079 0.1036184,-0.063 0.1480263,0 0.1036184,0.046 0.236842,0 0.074013,-0.1877 0.044408,-0.079 0,-0.032 -0.1480262,-0.2346 -0.1480263,-0.063 -0.1036184,-0.015 z m -1.4654603,0.063 -0.044408,0.047 0,0.063 0.1036184,0.016 0,-0.078 -0.029605,-0.047 -0.029605,0 z m 12.7894708,0.032 -0.103619,0.1563 0.01481,0.063 0.0444,-0.015 0.118421,-0.1564 -0.07402,-0.046 z m -14.4769704,0.046 -0.05921,0.1407 -0.1332237,0 0,0.1251 0.029605,0.078 -0.1480263,0.1096 0,0.032 0.074013,0.047 0.088816,0 0.2960526,-0.1094 0.029605,-0.2345 -0.088816,0.032 -0.1036184,-0.094 0.014803,-0.1251 z m 0.1480263,0 -0.1184211,0.016 -0.014803,0.1094 0.088816,0.063 0.074013,-0.032 0.044408,-0.063 -0.074013,-0.094 z m 2.2203942,0.032 -0.074013,0.016 -0.1628289,0.063 -0.1332236,0.1095 0.014803,0.2656 0.059211,0.1094 0.1776316,0.094 0.1628289,0.1251 0.1036184,0.032 0.1036185,-0.032 0.029605,0 0.074013,0.032 0.044408,-0.032 0.059211,-0.1094 0.014803,-0.063 0,-0.079 -0.029605,-0.046 -0.014803,-0.079 -0.014803,-0.094 0.029605,-0.063 -0.1036184,-0.1719 -0.074013,0.015 -0.28125,-0.015 -0.014803,-0.016 0.029605,-0.063 z m 11.5756549,0.047 -0.05921,0.047 0.02961,0.1094 0.05921,0.047 -0.01481,0.1719 -0.05921,0.032 -0.0444,0.1094 0.148027,0.2189 0.08881,-0.031 0.01481,-0.063 -0.103619,-0.094 0.05921,-0.079 0.07402,0 0.0444,0.063 0.01481,-0.1252 0.133224,-0.1251 0.08882,-0.015 -0.07402,-0.1248 -0.02961,-0.046 -0.0444,0.032 -0.0444,0.063 -0.103618,-0.015 -0.103619,-0.078 -0.07402,-0.094 z m -12.3601942,0.032 -0.118421,0.015 0,0.094 -0.1332237,0.032 0.044408,0.2344 -0.1036184,0.047 -0.014803,0.1251 0.074013,0.094 -0.014803,0.094 0.1036184,0.063 0,0.125 0.118421,0.032 0.029605,0.079 0.05921,0 0.044408,-0.063 0.118421,-0.015 0.1480263,-0.063 0.014803,-0.079 -0.1628289,-0.1563 -0.014803,-0.032 0.1776315,-0.1094 0.1036184,-0.015 -0.074013,-0.1095 -0.014803,-0.2677 -0.074013,-0.079 -0.088816,-0.032 -0.1036184,0.046 -0.05921,0 -0.05921,-0.063 z m -0.2812499,0.1562 -0.162829,0.079 0.029605,0.032 0,0.094 -0.029605,-0.015 -0.044408,-0.063 -0.088816,0.1564 0.1480263,0.032 0.044408,0.063 0.029605,0 0.014803,-0.1408 0.088816,-0.032 -0.029605,-0.2033 z m 2.2203943,0.063 -0.05921,0.1718 -0.28125,0 -0.088816,-0.047 -0.1332237,0 -0.1036184,0.063 0.029605,0.1096 -0.1036184,0.2187 0,0.094 0.044408,0.032 0.2960525,0.016 0.088816,-0.063 0.088816,0.032 0.118421,0.172 -0.088816,0.1719 0.1036184,0.046 0.1480263,-0.1875 0.088816,0.015 0.074013,0.063 -0.074013,0.094 0.1036184,0.1564 0.088816,0 0.044408,-0.1094 0.1036184,-0.015 0.014803,-0.079 -0.1924341,-0.032 0,-0.094 0.1924341,0 0.1924342,-0.172 0.088816,-0.079 0.014803,-0.2657 -0.399671,-0.032 -0.1480262,-0.2346 -0.1184211,-0.047 -0.1332236,0 z m -2.5312495,0.2501 -0.029605,0.063 0.2516447,0.1717 0.074013,0.016 0,-0.079 -0.05921,-0.079 -0.029605,0 -0.059211,-0.063 -0.1480262,-0.032 z m 1.0805918,0.047 -0.1036184,0.015 -0.1480263,0.1094 0.1480263,0.1562 0.1036184,0 0.05921,0 0.088816,0.063 0.1628289,-0.1408 -0.1628289,-0.125 -0.1480263,-0.079 z m -1.1249997,0.032 -0.074013,0.032 -0.1628289,0.1875 -0.05921,0 -0.05921,-0.046 -0.044408,0 -0.029605,0.1095 -0.2368421,0.016 0.014803,0.046 0.1480263,0.1095 0.1924342,0.1563 0,0.2031 -0.1036184,0.172 0.2220394,0.1095 0.2220394,0.016 0.05921,-0.079 0.1332237,0 0.044408,0.032 0.1480263,0 0.05921,-0.1095 -0.088816,-0.1094 0,-0.063 0.014803,-0.079 -0.044408,-0.078 -0.074013,0.032 -0.014803,-0.063 0.1776315,-0.2033 0,-0.1251 -0.118421,-0.063 -0.05921,-0.015 -0.2664473,-0.1876 z m 11.9605242,0.079 -0.05921,0.032 -0.05921,0.2187 -0.118421,0 -0.133224,0.1563 0.01481,0.1252 0.07402,0.032 0.01481,0.2346 0.133224,0.015 0.133223,-0.1564 -0.0444,-0.047 0,-0.1562 0.11842,-0.1564 -0.05921,-0.1094 0.02961,-0.047 0.02961,-0.1093 -0.07402,-0.032 z m -10.5098667,0.1093 -0.1628289,0.1407 0.029605,0.032 0,0.032 0.28125,0 0.2072368,-0.094 0,-0.094 -0.044408,0.015 -0.05921,-0.032 -0.029605,0 -0.088816,0.032 -0.1332237,-0.032 z m 11.7236817,0 -0.08882,0.1095 0,0.094 0.0444,0.063 0.01481,0.2344 -0.118421,0.1407 -0.05921,-0.032 -0.0444,0.1096 -0.01481,0.1094 0.0444,0.063 -0.02961,0.047 -0.07402,-0.079 -0.05921,0 -0.05921,0.032 -0.02961,0.015 -0.177631,0.2188 0.02961,0.047 0.08882,0.015 0.162828,-0.1408 0.118421,-0.015 0.103619,0.125 0.07402,-0.032 0.02961,-0.125 0.148026,0 0.148027,-0.1876 -0.07402,-0.3127 -0.02961,-0.1563 0.07402,-0.063 -0.177631,-0.2815 -0.0444,0 z m -12.1381552,0.079 -0.014803,0.092 -0.1628289,0.078 -0.118421,0.015 -0.029605,0.047 0.029605,0.032 0.074013,-0.016 0.074013,0 0.088816,0.079 0.162829,-0.047 0.118421,-0.063 0.029605,-0.063 0,-0.063 -0.118421,-0.094 -0.1332236,0 z m 1.2286182,0.032 -0.05921,0.063 0.1036184,0.1719 0,0.1094 0.044408,0 0.088816,-0.1719 -0.118421,-0.1564 -0.059211,-0.015 z m -0.4440789,0.015 -0.2072367,0.1095 -0.2812501,0 -0.044408,0.079 0,0.1095 0.074013,0.032 0.2072368,0 0.28125,-0.2501 0,-0.063 -0.029605,-0.016 z m 0.074013,0.032 -0.014803,0.063 -0.2072368,0.1876 0.1776315,0.2658 0.1036184,0.094 0.2072368,0 0.074013,-0.063 0.088816,-0.015 0.05921,0.046 0.118421,-0.1407 -0.014803,-0.079 -0.118421,-0.032 -0.088816,0 0,-0.125 -0.1036185,-0.1876 -0.2812499,-0.016 z m -1.435855,0.079 -0.162829,0.172 0,0.015 0.074013,-0.015 0.05921,0.078 0.088816,-0.032 0.074013,0.063 0.029605,-0.016 0.088816,-0.1406 -0.029605,-0.032 -0.074013,0 -0.044408,-0.094 -0.1036184,0 z m 0.7993419,0.094 -0.088816,0.063 -0.1776315,0.032 0.029605,0.1093 0.1184211,0 0.118421,-0.094 0,-0.1095 z m -0.4440789,0.032 -0.088816,0.016 -0.074013,0.125 -0.05921,0.047 -0.074013,-0.063 -0.088816,0.032 -0.014803,0.063 0,0.063 0.088816,0.1096 0.1332237,0 0.3108552,0.3751 0.1924342,0.063 0.1036184,0.1093 0.029605,0.2502 0.05921,-0.032 0.044408,-0.1406 0,-0.1095 0.088816,0 0,-0.063 -0.2368421,-0.1252 -0.236842,-0.25 -0.1036184,-0.1406 -0.014803,-0.1408 0.1184211,-0.032 -0.029605,-0.094 -0.074013,-0.063 -0.074013,0 z m 4.2631569,0.032 -0.162829,0.063 0.103618,0.3283 0,0.1252 0.05921,0 0.08882,-0.1721 0.222039,0 0.0444,0.1251 0.488487,0.344 0.177632,0.046 0.05921,0.1251 0.103618,0 0,-0.2033 -0.103618,-0.063 0.177632,-0.2344 0.07402,0 0.07402,0.094 0.192435,-0.079 -0.266448,-0.1095 -0.01481,-0.046 -0.05921,0.015 -0.05921,0.1094 -0.266447,-0.015 -0.192435,-0.2814 -0.34046,0.032 -0.162829,-0.1719 -0.236842,-0.032 z m -3.4342096,0.032 -0.074013,0.063 -0.029605,0 -0.029605,0.079 0.088816,0.1094 0.014803,0.094 -0.1184212,0.1563 0.014803,0.046 0.05921,0.016 0.059211,-0.063 0.029605,0 0.044408,0.046 0.1332237,-0.046 -0.014803,-0.2188 -0.1776316,-0.2814 z m -0.3552632,0.032 -0.1332236,0.1095 -0.1332237,0 -0.014803,0.094 0.05921,0.016 0.029605,-0.047 0.05921,0.047 0.029605,0.1407 0.2516447,0.125 0.029605,-0.032 -0.2516447,-0.2815 0.014803,-0.046 0.2516447,-0.016 0.029605,-0.079 -0.162829,0 -0.059211,-0.032 z m 5.3881568,0.078 -0.07402,0.172 -0.08882,-0.094 -0.07402,0 -0.01481,0.094 0.01481,0.063 0.310855,0.1096 -0.266447,0.125 -0.0444,-0.032 -0.05921,0.046 0.01481,0.015 0.02961,0.016 0.192434,0 0.103619,-0.032 0.118421,-0.1564 0.162829,0.015 0.192434,-0.2815 -0.518092,-0.063 z m 5.299341,0.032 -0.118421,0.1563 0.05921,0.032 0,0.046 -0.0444,0.032 0.0444,0.1094 0.103618,0.2502 0.103618,0 0.103618,-0.1407 0.01481,-0.094 -0.0444,-0.1878 -0.222039,-0.2032 z m -10.717103,0.032 -0.014803,0.032 0.236842,0.2659 0.1036184,-0.1408 -0.014803,-0.063 -0.074013,-0.098 -0.236842,0 z m 1.0509867,0.125 -0.074013,0.015 -0.044408,0.063 -0.2368421,0 -0.088816,-0.063 0,0.1876 0.05921,0.1407 0.2368421,0 0.1036184,-0.078 0.1036184,-0.046 -0.029605,-0.1251 0.029605,-0.063 -0.05921,-0.032 z m 1.2582234,0.015 -0.1036184,0.063 0.118421,0.172 0.1628289,0.063 0.088816,0 0.1480263,-0.047 0.044408,-0.063 -0.4588815,-0.1876 z m 1.6134859,0.031 -0.07402,0.172 -0.08882,0 -0.148027,0 -0.01481,0.094 -0.1628289,0 0,0.1408 0.1628289,0.1093 -0.0444,0.1564 0,0.079 0.07402,0 0.08882,-0.1249 0.192434,-0.046 0.429276,0.1718 0.01481,0.1251 0.236842,0.032 0.266448,-0.297 -0.02961,-0.094 -0.177631,-0.047 -0.503289,-0.3438 -0.02961,-0.1251 -0.192434,0 z m -6.1726955,0.015 -0.059211,0.015 -0.044408,0.1095 0.014803,0.1249 0.1776316,0.015 0.029605,0.079 -0.088816,0.469 0.014803,0.079 0.118421,0.079 0.1480263,0 0.2960525,-0.063 0.1332237,-0.2032 0,-0.1877 0.2516447,-0.2343 0.014803,-0.1096 -0.2220394,0 -0.2368421,-0.125 -0.4588814,0 -0.088816,-0.047 z m 1.6282891,0.1253 -0.074013,0.078 0,0.063 0.05921,0.047 0.014803,-0.015 0.014803,-0.094 -0.014803,-0.079 z m 5.7138144,0 -0.148026,0.1873 0.08882,0.079 0,0.2033 0.05921,0 0.08882,-0.032 0,-0.063 0.103618,-0.094 0.07402,0.078 0,0.1252 0.08882,0 0.01481,-0.094 0.08882,-0.015 0.05921,0 0.02961,0.063 0.02961,0 0.01481,-0.047 -0.05921,-0.1407 -0.133224,-0.015 -0.02961,-0.079 -0.02961,0 -0.07402,0.032 -0.207237,-0.015 -0.05921,-0.032 0,-0.047 0.07402,-0.063 -0.01481,-0.032 -0.05921,0 z m -2.2944072,0.032 -0.044408,0.063 0.1776316,0.2345 0.059211,-0.015 0.1036186,0.1094 0.0444,-0.1876 0.1036181,0.015 -0.01481,-0.063 -0.1628287,-0.1562 -0.04441,0.094 -0.2220388,-0.094 z m -2.4128284,0.015 -0.044408,0.063 0,0.1721 0.044408,0.1093 0.029605,-0.015 0.05921,-0.1094 -0.029605,-0.047 -0.014803,-0.1407 -0.044408,-0.032 z m 0.2072368,0 -0.1332237,0.032 0.014803,0.1094 0.029605,0.046 0.1332237,-0.078 -0.044408,-0.1094 z m 1.0065787,0 -0.2072368,0.1562 -0.1924341,0 -0.014803,0.1251 -0.2072368,0 -0.088816,0.078 0,0.047 0.05921,0.047 0,0.046 -0.029605,0.063 0.029605,0.047 0.05921,-0.032 0.074013,0.079 -0.014803,0.047 -0.029605,0.032 0.029605,0.047 0.1924342,0.046 0.1332236,-0.063 0,-0.078 0.074013,0.015 0.1480262,0.094 0.162829,-0.032 0.074013,-0.079 0.044408,0.015 0,0.094 0.074013,0 0.044408,-0.1251 0.4884867,-0.046 0.2220395,-0.032 -0.05921,-0.079 0,-0.1093 0.044408,-0.047 -0.1628289,-0.1407 0.014803,-0.1095 -0.088816,0 -0.1480263,-0.063 -0.074013,0.079 -0.2960526,0 -0.1776315,-0.1095 -0.1776316,-0.015 z m -0.4736841,0.016 -0.1036184,0.046 0,0.1407 0.118421,-0.046 0.044408,-0.032 -0.014803,-0.063 -0.044408,-0.047 z m 1.6134865,0.046 -0.1480263,0.047 -0.014803,0.094 0.1628289,0.1406 0.118421,0.032 0.05921,-0.063 -0.1776315,-0.2502 z m -1.7467101,0.015 -0.074013,0.063 -0.2516447,-0.015 -0.1480262,0.094 -0.088816,0.1406 0,0.063 0.1628289,0.079 0.088816,0.032 -0.044408,0.046 -0.088816,0.015 -0.014803,0.047 0.029605,0.079 0.1036184,0.063 0.044408,0 0,-0.1407 0.074013,-0.079 -0.1924342,-0.2345 0.029605,-0.079 0.044408,0 0.074013,0.047 0.044408,-0.015 0,-0.078 0.2072368,0 0,-0.125 z m -3.3305915,0.047 -0.014803,0.3282 -0.074013,0.063 0.014803,0.032 0.044408,0.079 -0.029605,0.1095 0.044408,0.016 0.118421,-0.016 -0.014803,-0.094 0.074013,-0.4533 -0.014803,-0.063 -0.1480263,0 z m 13.9144693,0.063 -0.103618,0.1094 0,0.1095 0.02961,0.032 0.133224,-0.1251 -0.01481,-0.1094 -0.0444,-0.016 z m -12.212167,0.015 -0.088816,0.047 0.014803,0.2032 0.074013,0.015 0.05921,-0.063 0,-0.1876 -0.05921,-0.015 z m 5.921051,0.063 -0.07402,0.079 0,0.063 -0.118421,0.047 -0.207237,0 -0.281249,0.2971 -0.251645,-0.015 0.05921,0.469 0.148027,0.032 0.01481,0.094 -0.103618,0.094 0.192434,0.1564 0.370065,-0.1408 0.02961,-0.172 0.236842,-0.1564 0.08882,-0.3595 0.07402,-0.079 -0.07402,-0.125 0.236842,-0.1407 -0.02961,-0.047 -0.118421,0 0,0.1096 -0.148026,0 0,-0.1408 -0.0444,-0.063 z m -2.294407,0.032 -0.044408,0.015 -0.074013,0.094 -0.1480262,-0.032 -0.044408,0.047 0.014803,0.078 0.044408,0.094 0.2072368,0.2189 -0.029605,0.094 -0.044408,0 -0.014803,0.094 0.1184214,0.1406 0.103618,0.015 0.2072371,0.2972 0.103618,0.016 0.1036189,0.063 0,0.1407 0.355263,0.2188 0.133224,0 0.07402,-0.079 0.103618,0 0.05921,0.1408 0.384868,0.063 0.01481,-0.1563 0.133224,-0.047 0,-0.047 -0.103618,-0.1564 -0.22204,-0.1875 0.118421,-0.1095 -0.01481,-0.046 -0.148026,-0.032 -0.05921,-0.5315 0,-0.1095 -0.414474,-0.1719 -0.177631,0.046 -0.08882,0.1251 -0.08882,0 -0.02961,0.015 -0.1924339,-0.015 -0.2516451,-0.1876 -0.08882,-0.1094 z m 8.274668,0.015 -0.05921,0.063 0.01481,0.094 0.05921,0 0.02961,0.2031 0.0444,0.047 0.07402,-0.079 0.02961,-0.1249 -0.08882,-0.1407 -0.103618,-0.063 z m -12.4934172,0.032 -0.05921,0.032 0.014803,0.047 0.074013,0 0.044408,-0.032 -0.074013,-0.047 z m 6.9424322,0.015 -0.0444,0.063 -0.02961,0 -0.207237,0.1406 0.05921,0.1251 -0.07402,0.079 -0.08882,0.3753 -0.236842,0.1564 -0.02961,0.1719 -0.384869,0.1408 0.103619,0.1406 -0.01481,0.079 -0.118421,0.063 -0.01481,0.1252 0.148026,0 0.0444,-0.047 0.28125,0 0.251645,0.2343 0.02961,-0.1092 0.177632,0 0,-0.1408 -0.177632,-0.2032 0.02961,-0.094 0.207236,-0.015 0.251645,-0.5784 -0.148026,-0.1252 -0.0444,-0.2032 0.355263,-0.032 -0.207237,-0.3126 -0.118421,-0.032 z m -5.8618403,0.1877 -0.1776315,0.032 0.014803,0.047 0.1628289,0.079 0.014803,0.032 0.044408,0.015 0,-0.172 -0.05921,-0.032 z m -3.7746702,0.078 -0.014803,0.047 0.029605,0.032 0.074013,-0.047 -0.088816,-0.032 z m 6.6611828,0 -0.2072368,0.032 -0.059211,0.2972 -0.2368421,0.2031 0.014803,0.094 0.236842,0.015 0.3700657,0.3128 0.2072369,0 0,-0.079 0.07401,-0.078 0.1036181,0.063 0.01481,-0.016 -0.1924351,-0.2815 -0.1036181,-0.015 -0.1332237,-0.1719 0.029605,-0.1251 0.044408,0 0.014803,-0.063 -0.1776315,-0.1877 z m -3.2713809,0.032 -0.1924342,0.079 0.05921,0.2815 -0.074013,0.046 0.014803,0.125 0.1332236,0.1407 0,0.1407 0.029605,0.047 0.05921,-0.015 0,-0.1407 0.044408,0 0.1036184,-0.172 -0.1332237,-0.063 0,-0.032 0.029605,-0.063 0,-0.1407 -0.029605,-0.015 0,-0.078 0.029605,-0.047 0,-0.046 -0.074013,-0.047 z m 3.0345388,0 -0.4588814,0.047 -0.05921,0.1095 -0.088816,0 -0.014803,0.094 0.1036184,0.047 0,0.2659 0.1036184,0 0.088816,-0.078 0.044408,-0.015 0.2368421,-0.1876 0.044408,-0.2814 z m -3.4194072,0.032 -0.6217104,0.1251 -0.1332236,0.1095 0.088816,0.4534 -0.2516447,0.016 -0.1480263,0.2501 -0.3552631,0.079 0,0.1877 1.1694076,0.9379 0.1924342,0.015 0.6661183,-0.5472 -0.074013,-0.079 -0.118421,-0.015 -0.074013,-0.1405 0,-0.5472 -0.044408,-0.047 0,-0.1407 -0.1332237,-0.1407 -0.014803,-0.1563 0.059211,-0.032 -0.029605,-0.172 -0.029605,-0.094 -0.1480263,-0.063 z m 6.972038,0.047 -0.340461,0.032 0.0444,0.1564 0.162828,0.1409 -0.28125,0.6096 -0.192434,0.016 -0.02961,0.063 0.192434,0.1877 -0.01481,0.1876 -0.192434,-0.015 -0.01481,0.094 0.148027,0 0.01481,0.063 -0.118421,0.063 0.07402,0.1564 0.133223,0.047 0.08882,-0.079 0.0444,-0.1095 0.0444,-0.031 0.05921,0.063 -0.01481,0.1564 -0.0444,0.078 0.01481,0.1249 0.592105,1.3133 0.177632,-0.094 0.08882,-0.3751 0,-0.469 0.577303,-0.6409 0,-0.1564 0.103618,-0.047 0,-0.1875 -0.118421,-0.2502 0.07402,-0.1407 0.148026,0.1563 0.207237,0 0,0.094 -0.05921,0.063 0.01481,0.047 0.103618,0 0.01481,0.1251 0.0444,0 0.07402,-0.1407 0.0444,-0.4065 0.133224,-0.1095 0,-0.1406 -0.0444,-0.1096 -0.08882,0 -0.340461,0.2347 0.02961,0.1562 -0.236843,0 -0.08882,-0.1093 -0.0444,0 0.01481,0.1562 -0.503289,-0.047 -0.325658,-0.1406 -0.01481,-0.1877 -0.207236,-0.1408 0,-0.2814 -0.148027,-0.172 z m -4.2927622,0.1095 -0.1036184,0.046 -0.1036184,0.015 0,0.063 0.044408,0.032 0.074013,0.016 0.1332236,-0.1407 -0.044408,-0.032 z m -1.8503286,0.015 -0.05921,0.015 0,0.063 0.05921,0.032 0.029605,-0.032 -0.029605,-0.079 z m 0.8881578,0 -0.029605,0.046 0.044408,0.016 0.029605,0.046 0.1628289,0 0.044408,-0.063 -0.029605,-0.015 -0.044408,0.015 -0.088816,0 -0.029605,-0.046 -0.05921,0 z m -2.9161179,0.079 -0.088816,0.1875 -0.1924342,0.094 -0.1480263,0.4534 -0.3108552,0.1876 -0.4292762,0.7504 0.4144736,-0.015 0.014803,-0.219 0.1184211,0 0,-0.297 0.3700657,0 0,-0.3907 0.355263,-0.079 0.1628289,-0.2502 0.2220395,-0.015 -0.074013,-0.4066 -0.4144736,0 z m 3.9967098,0 0,0.078 -0.029605,0.1093 0.1036184,0.015 0,-0.1718 -0.074013,-0.032 z m -5.0476964,0.1562 -0.044408,0.047 0.044408,0.047 0.059211,-0.032 -0.059211,-0.063 z m 5.0032885,0.063 -0.044408,0.1877 0.074013,0.2345 0.074013,-0.344 0,-0.063 -0.1036184,-0.015 z m 0.3552631,0.015 -0.1036184,0.079 -0.1184211,0.015 -0.088816,0.3283 0,0.046 0.1332236,0 0.1628289,-0.1562 0,-0.047 -0.059211,-0.079 0.118421,-0.094 -0.014803,-0.094 -0.029605,0 z m -2.5164469,0.016 -0.1184211,0.2033 -0.029605,0 -0.014803,0.1407 -0.05921,0 0,0.5315 0.05921,0.125 0.1332237,0.016 0.074013,0.1095 0.3108552,0.078 0.074013,-0.046 0.754934,0.4064 0.1184211,0.015 -0.014803,-1.4226 -0.162829,-0.032 -0.088816,-0.1095 -0.2072368,0 -0.1036184,0.094 0,0.046 0.059211,0.063 0.014803,0.063 -0.1480263,0.079 -0.2812499,-0.1409 -0.074013,-0.1251 -0.2960525,-0.094 z m 2.59046,0.094 -0.1036184,0.094 0.044408,0.047 0,0.078 -0.1776316,0.172 -0.1480262,0 0.029605,0.1094 0.5032894,0.641 0,0.1719 0.044408,0.079 0.1332236,0.079 0.2072368,0.3439 0.1480263,-0.1406 0.236842,0.1563 0.207237,-0.2033 0.3700649,-0.1251 0.266448,-0.1563 0.0444,-0.2189 -0.0444,-0.016 -0.399671,-0.032 -0.02961,-0.1719 -0.08882,-0.079 -0.2516449,-0.3754 -0.1776311,-0.063 -0.0148,-0.063 -0.2220394,0.015 -0.3700657,-0.3282 -0.2072368,-0.016 z m 4.3519728,0 -0.177632,0.047 0.01481,0.1564 0.296052,0.1405 0.473684,0.047 -0.01481,-0.1249 -0.325658,-0.094 -0.266447,-0.172 z m -5.1365121,0.031 -0.118421,0.094 -0.088816,0 -0.1924342,-0.063 -0.088816,0 0.014803,1.1569 0.9325656,0.015 0.1036184,-0.1251 -0.014803,-0.1876 -0.3404604,-0.4534 -0.044408,-0.1406 0.014803,-0.094 0.05921,0.016 0.074013,0.25 0.059211,0.032 0.029605,-0.032 -0.014803,-0.1094 -0.029605,-0.079 -0.074013,-0.2345 -0.014803,0 -0.118421,0 -0.1036184,-0.047 -0.044408,0 z m 6.6019721,0.078 0,0.1564 -0.133224,0.094 -0.0444,0.4066 -0.08882,0.1562 -0.01481,0.1876 -0.05921,0.032 0.251645,0.2501 0.05921,0.1252 0.02961,0.1563 0.02961,0.047 0.08882,0 0.05921,-0.1251 0.02961,-0.047 0.103618,0.2033 0.01481,0.2188 0.05921,0.015 0.07402,0.1406 -0.07402,0.1096 0.103618,0.1719 0.02961,-0.094 0,-0.2189 -0.133224,-0.2189 -0.01481,-0.046 0.0444,-0.047 0,-0.1405 -0.192434,-0.2658 0.02961,-0.1721 0.251644,-0.1094 0.05921,-0.1096 -0.207237,-0.032 -0.02961,-0.1874 -0.148026,-0.063 -0.05921,-0.1563 0.08882,-0.2188 -0.133224,-0.1877 -0.07402,-0.032 z m -4.929275,0.063 -0.05921,0.063 0,0.1249 0.1332241,0.047 0,-0.1876 -0.07402,-0.047 z m 4.39638,0.063 -0.222039,0.032 0.0444,0.079 0.192434,0 -0.01481,-0.1093 z m 3.138157,0.032 -0.133223,0.1094 0,0.2032 0.103618,0.1251 0.02961,-0.015 0,-0.422 z m -13.9884831,0.1562 -0.05921,0.046 0.074013,0.063 0.044408,-0.094 -0.05921,-0.015 z m 10.6282871,0.032 -0.0444,0.094 0.118421,0.2501 0,0.1876 0.02961,0.047 0.148026,0.015 0.07402,-0.094 0.05921,0.047 0.01481,0.1094 0.05921,-0.032 0,-0.1408 -0.0444,-0.015 -0.02961,-0.125 -0.103618,0 -0.01481,-0.078 0.05921,-0.078 0,-0.047 -0.177632,0 -0.148026,-0.1407 z m -10.2138135,0.015 -0.074013,0.046 0.029605,0.032 0.044408,-0.078 z m -0.2368421,0.015 -0.074013,0.015 0.044408,0.063 0.05921,0 -0.029605,-0.079 z m 6.7499986,0.1564 -0.05921,0.047 -0.01481,0.1408 0.05921,0.047 0.0444,0 0.01481,-0.1876 -0.0444,-0.047 z m 0.503289,0.016 -0.118421,0.032 -0.133224,0.2032 -0.251644,0.015 0.02961,0.1407 0.355263,0.032 0.02961,-0.2813 0.05921,-0.032 0.02961,-0.1094 z m -6.4687483,0.015 0,0.1563 -0.3700657,0 0,0.297 -0.118421,0 -0.014803,0.219 -0.4440789,0.015 0.074013,0.1093 -0.014803,0.469 0.1184211,-0.079 0.088816,-0.015 0.118421,0.032 0.1184211,0.2031 0.1332236,-0.094 0.6069078,0 -0.1480263,-1.0631 0.1480263,0 -0.2960526,-0.25 z m 11.2796023,0.063 -0.133223,0.078 0.0444,0.1876 0.177631,0.032 0.0444,0.1407 -0.05921,0.046 0,0.032 0.429276,0.4378 0.01481,0.125 -0.02961,0.3908 -0.296052,0.2346 0.0444,0.063 0.01481,0.079 0.103619,0.015 0.148026,-0.1876 0.133224,-0.047 0.05921,-0.1876 -0.02961,-0.3285 -0.133224,-0.2033 -0.148026,-0.1093 -0.177632,-0.3283 0.133224,-0.2346 -0.192434,-0.2188 -0.148026,-0.015 z m -4.825656,0.063 -0.05921,0.032 -0.01481,0.25 0.05921,0.032 -0.0444,0.2502 -0.28125,0.1562 0.148026,0.2658 0.177632,0 0.399671,-0.6253 0,-0.094 -0.325658,-0.1876 -0.05921,-0.079 z m 4.662827,0.032 -0.07402,0.046 -0.07402,0.2345 0.118421,0.1564 -0.02961,0.1875 0.02961,0 0.207236,-0.094 0.266448,0.3126 0,0.2032 0.05921,0.047 0.148027,-0.125 -0.01481,-0.1094 -0.429276,-0.4222 0,-0.063 0.05921,-0.047 -0.0296,-0.1094 -0.177631,-0.032 -0.05921,-0.1876 z m -10.9391417,0.1248 0.1480262,1.0632 -0.6217103,0 -0.1184211,0.079 0.1332237,0.1877 -0.014803,0.063 0.2072367,-0.015 0.074013,0.2031 0.2664473,0 0.074013,-0.2188 0.3848684,-0.2972 0.5032893,-0.047 0.029605,-0.3595 -0.1036184,-0.015 -0.7993419,-0.6411 -0.1628289,0 z m 1.8651311,0.1096 -0.6661183,0.5628 -0.1036184,-0.015 -0.029605,0.3753 -0.3404605,0.046 0.1924342,0.3127 0.088816,-0.015 0.088816,-0.1252 0.1480263,-0.032 0.1480263,0.094 0.3108552,0.016 0.2516447,-0.1094 0.088816,-0.078 0.014803,-0.1095 0.1776315,-0.1876 0.044408,-0.4065 -0.118421,-0.25 -0.2960526,-0.079 z m 0.4144736,0.032 -0.088816,0.047 0.1184211,0.2346 -0.044408,0.4376 -0.1776316,0.1719 0,0.1251 -0.088816,0.079 0.118421,0.094 0.088816,0.015 0,0.2813 -0.05921,0.047 -0.014803,0.046 0.05921,0.032 0.074013,0.1563 0.118421,0.015 0,-0.047 0.1924342,0.015 0,-0.094 0.2664473,-0.2656 0.1628289,0 -0.088816,-0.1876 0,-0.219 0.1332237,-0.125 0,-0.4221 -0.7697367,-0.4377 z m 9.562498,0.015 -0.08882,0.032 -0.07402,0.078 0.05921,0.1094 0.07402,0 0.08882,-0.079 0.01481,-0.1093 -0.07402,-0.032 z m -7.5937483,0.016 -0.1332237,0.1407 -0.9473682,0 0.014803,0.2501 -0.088816,0 -0.014803,0.4534 -0.1332236,0.1251 0,0.1875 0.088816,0.2033 0.1184211,0.063 -0.014803,0.1249 -0.044408,0.032 0.4440788,0.4847 0.2516447,0.015 0.029605,0.046 0.3552631,0.016 0,-0.079 0.029605,-0.063 0.118421,-0.015 -0.1480263,-0.2189 -0.1036184,0 -0.029605,-0.1564 0.088816,-0.047 0.2516447,-0.5628 0,-0.3126 0.1628289,-0.1876 -0.2960525,-0.5003 z m 6.4983533,0 -0.236842,0.094 -0.01481,0.1563 0.192434,0.2501 0,0.1719 -0.0444,0.047 0.01481,0.015 0.133224,0.2187 0,0.2503 -0.05921,0.1095 -0.01481,0.078 -0.0444,0.094 0.02961,0.1095 0.118421,0.1094 0.103619,0 0.08882,0.1409 0.103619,0 0.01481,-0.047 -0.192434,-0.2035 -0.118421,-0.2033 0.01481,-0.4846 0.02961,-0.047 0.07402,0 0,0.1094 0.162829,0.1251 0.05921,-0.032 0,-0.094 -0.07402,-0.032 -0.01481,-0.094 0.08882,-0.1406 0.0444,0 0.07402,0.032 0.07402,0.015 0,-0.1876 -0.222039,-0.2659 -0.02961,-0.015 -0.192435,0.094 -0.0444,-0.015 0,-0.2033 -0.118421,-0.1563 z m 2.235196,0.094 -0.08882,0.063 -0.01481,0.2345 0.148026,0.2971 0.05921,0.046 0.05921,-0.046 0.103619,0.015 0.02961,0.094 0.07402,0.016 0.0444,-0.063 -0.05921,-0.063 -0.05921,-0.063 -0.118421,-0.016 -0.07402,-0.1094 0.07402,-0.1251 0.01481,-0.1094 -0.05921,-0.1407 -0.133224,-0.032 z m -7.075655,0.3124 -0.3552629,0.1251 -0.207237,0.2033 -0.236842,-0.1408 -0.1332237,0.1252 0.05921,0.1718 0,0.1563 0.059211,0.079 0.059211,0.047 0.8881576,-0.3908 0.01481,-0.1095 -0.148026,-0.2656 z m -0.8141445,0.7191 -0.059211,-0.032 -0.074013,0.094 -0.014803,0.1406 0.1332236,0 0.014803,-0.2032 z m -0.5328947,-0.594 -0.1480262,0.1719 0.014803,0.2188 0.2664473,0 0.2516447,0.2347 0.059211,-0.079 -0.3404605,-0.2657 -0.074013,-0.25 -0.029605,-0.032 z m 6.6463802,0.1877 -0.02961,0.015 -0.07402,0.125 0.01481,0.063 0.07402,0.032 -0.01481,0.1251 -0.0444,0.032 0.148027,0.1719 0.28125,-0.2189 0.01481,-0.3438 -0.133224,0.1093 -0.07402,-0.047 -0.103618,-0.015 -0.05921,-0.047 z m -12.0641422,0.032 -0.074013,0.015 -0.1480263,0.1094 -0.029605,0.063 -0.014803,0.063 0.059211,0.032 0.1776316,0 0.118421,-0.032 0,0.063 0,0.078 0.1036184,0.046 0.029605,0.032 0.1332237,0 0.014803,-0.063 -0.1332236,-0.172 -0.1480263,-0.2032 -0.088816,-0.032 z m 13.8996672,0 0.02961,0.1094 0.0444,0.032 0.02961,-0.047 -0.05921,-0.079 -0.0444,-0.015 z m -14.8026275,0.015 -0.05921,0.047 0.044408,0.046 0.05921,-0.031 -0.044408,-0.063 z m 0.1776315,0.094 -0.044408,0.032 0.029605,0.063 0.074013,-0.032 -0.059211,-0.063 z m 15.09868,0 -0.08882,0.015 0.07402,0.094 0.02961,0.094 0.05921,0 -0.01481,-0.1564 -0.05921,-0.046 z m -12.8338778,0.046 -0.1332237,0.015 -0.3848683,0.2971 -0.05921,0.2032 0.044408,0.063 0.1628289,-0.015 0.044408,-0.1094 0.1924342,-0.015 0.1480263,0.046 0.1924342,-0.1562 -0.2072368,-0.3284 z m 12.5230228,0.047 -0.01481,0.1876 0.07402,0.079 0.01481,0.1252 0.07402,0.015 0.02961,-0.079 -0.0444,-0.047 -0.01481,-0.2345 -0.118421,-0.047 z m -14.8914434,0.015 -0.059211,0.047 0.059211,0.079 0.059211,-0.015 -0.059211,-0.1094 z m 6.1134856,0 -0.2664473,0.6252 -0.088816,0.016 0.014803,0.1252 0.1036184,0 0.162829,0.2501 0.088816,0.032 0.2072368,0.1877 0.118421,0 0.4736839,-0.1564 0.3404611,-0.3908 -0.177632,0 -0.2960525,-0.1876 -0.014803,-0.1094 -0.1924342,0 0.014803,-0.1876 -0.2220394,-0.2033 -0.2664473,0 z m -5.2253279,0.063 -0.074013,0.032 -0.1776315,0.015 0,0.032 0.2516446,0 0.014803,-0.046 -0.014803,-0.032 z m 14.1809167,0 0,0.172 0.0444,0.063 0.05921,-0.078 -0.01481,-0.1564 -0.08882,0 z m -0.473683,0.015 -0.02961,0.063 -0.01481,0.078 -0.177631,0.2187 0.01481,0.063 0.07402,-0.015 0.222039,-0.2657 -0.08882,-0.1407 z m -11.6792736,0.032 -0.118421,0.032 -0.05921,0.1094 0,0.297 -0.1036184,0.1407 0,0.2187 0.1480262,0.016 0.162829,0.2033 0.088816,0.015 0.05921,-0.032 0.1036184,-0.015 0.029605,-0.1407 0.1480263,-0.094 0.1480263,-0.015 0.2664473,-0.5158 -0.014803,-0.1252 -0.118421,-0.094 -0.2516447,0.1094 -0.3256578,0 -0.1628289,-0.1095 z m 4.9292746,0 -0.08881,0.032 -0.08882,0.015 0.08882,0.094 0.103618,-0.079 0.02961,-0.016 -0.0444,-0.046 z m -7.2088793,0.063 0.044408,0.1251 0.014803,-0.079 0.3108552,0.032 -0.1332237,-0.063 -0.236842,-0.015 z m 3.1677624,0.047 0,0.1251 -0.2664473,0.5316 -0.1628289,0.015 -0.1184211,0.079 -0.029605,0.1407 0.118421,0.1094 -0.014803,0.172 0.6513156,-0.015 0.044408,-0.063 -0.1776315,-0.2034 -0.029605,-0.078 0.118421,-0.2345 -0.074013,-0.1563 -0.074013,-0.032 0,-0.078 0.074013,-0.063 0.014803,-0.2343 -0.074013,-0.016 z m -3.0789467,0.032 -0.029605,0.094 0.05921,0.1093 0.1332236,-0.1407 0,-0.032 -0.1628289,-0.032 z m 6.8240116,0 -0.148026,0.078 0.02961,0.1406 -0.02961,0.1407 -0.08882,0.079 -0.3700651,0.422 -0.2664478,0.079 -0.1184211,0.1565 0.014803,0.375 0.088816,0.063 0.799342,-0.8912 0.148026,-0.4533 0,-0.1406 -0.05921,-0.047 z m 7.697366,0 0.01481,0.125 -0.118421,0.094 -0.103618,0.015 -0.118421,0.125 0.01481,0.047 0.08882,-0.032 0.07402,-0.047 0.05921,0.1564 0.103618,0.078 0.0444,-0.015 0.0444,-0.046 -0.08882,-0.079 0.0444,-0.046 0.05921,0.046 0.0444,-0.063 -0.0444,-0.079 0,-0.1874 -0.118421,-0.094 z m -14.3289434,0.015 0,0.079 -0.1480263,0.1249 0.1036184,0.1876 0.1480263,-0.1407 0.1480263,0 0.118421,0.172 0.1036184,0.079 0.044408,-0.094 0.029605,-0.015 0,-0.1719 -0.05921,-0.2189 -0.2220394,0.032 -0.2664473,-0.032 z m 1.7023022,0 -0.1628289,0.1252 0.074013,0.1406 0,0.3908 0.074013,0 0,-0.2345 0.1036184,-0.1563 0,-0.2501 -0.088816,-0.015 z m 4.7516432,0.063 -0.370065,0.1405 -0.0444,0 -0.1480263,-0.1094 0,0.1094 0.2812504,0.172 0.207237,0.016 0.07402,-0.063 0.02961,-0.1251 -0.02961,-0.1406 z m -5.1365115,0.078 -0.1776315,0.015 -0.059211,0.4066 0.044408,0.094 0.1036184,0.172 0.05921,0 0.162829,-0.094 -0.014803,-0.5472 -0.118421,-0.047 z m 0.1924342,0.015 -0.029605,0.032 0,0.5316 0.1036184,-0.063 0,-0.3907 -0.074013,-0.114 z m 2.1167758,0 -0.236842,0.2502 -0.014803,0.1095 -0.1924341,-0.016 0,0.047 -0.1332237,-0.015 -0.118421,0.2345 0.029605,0.063 0.1628289,0.1876 0.074013,-0.078 0.1036184,0 0.029605,-0.094 0.1036184,-0.063 0.2220395,0.1564 0.118421,-0.1408 0.4884868,0.032 -0.4440789,-0.5003 0.059211,-0.032 0,-0.094 -0.1036184,-0.047 -0.1480263,0 z m 6.1430905,0.032 -0.05921,0.032 0.01481,0.094 0,0.079 -0.0444,0.015 0.01481,0.172 0.08882,0.047 0.118421,-0.079 -0.02961,-0.1876 0.01481,-0.063 -0.118421,-0.1094 z m -9.1036161,0.015 -0.088816,0.016 0.014803,0.2033 -0.044408,0.015 -0.05921,0.094 0.1332237,0.1562 0.014803,0.2502 0.1628289,-0.129 0.1924342,-0.032 0.1924341,0.046 -0.1036184,-0.1721 -0.029605,-0.094 0.029605,-0.2971 -0.1776315,0.015 -0.074013,-0.078 -0.1628289,0 z m -0.4292763,0.079 -0.1332236,0.015 -0.1332237,0.1093 0.2072368,0.2034 0.1480263,-0.1877 -0.088816,-0.1408 z m 13.2335494,0.1094 -0.118421,0.219 0.0444,0.1249 -0.07402,0.1095 -0.118421,-0.047 -0.310855,0.2502 0.01481,0.1249 -0.148027,0 0.118421,0.1251 0.414474,-0.1407 0.08882,-0.3439 0.192434,-0.016 0.162828,-0.1408 -0.222039,-0.1718 -0.0444,-0.094 z m -13.1151283,0.063 -0.1480263,0.1875 0.3996709,0.2816 -0.014803,-0.2189 -0.118421,-0.1406 -0.118421,-0.1096 z m 11.2648003,0.047 0.07402,0.1721 0.01481,0.2189 0.08882,0.1719 0.236842,0.1406 0.08882,0.015 -0.01481,-0.1561 -0.07402,-0.2034 -0.118421,-0.25 0,0.047 -0.148026,-0.015 -0.08882,-0.1406 -0.05921,0 z m -0.384869,0.079 0,0.094 0.251645,0.4378 0.05921,0 0.518092,0.9067 0.207237,0.032 0.103619,-0.3284 -0.162829,-0.1093 -0.02961,-0.1721 -0.947369,-0.8597 z m 2.101974,0.063 -0.103619,0.1407 0.07402,0.032 0.05921,-0.078 -0.02961,-0.094 z m -4.514802,0.063 0.01481,0.094 0.05921,0.032 0.01481,-0.094 -0.08882,-0.032 z m -3.7006569,0.078 -0.1332237,0.015 -0.014803,0.032 0,0.094 0.1036184,0.2033 -0.1184211,0.2501 -0.014803,0.079 0.5773025,0.3908 0.1776316,-0.2969 -0.088816,-0.079 0,-0.4063 0.118421,-0.1252 -0.1924342,0.063 -0.1332236,0 -0.2220394,-0.1877 -0.05921,-0.032 z m -1.6874998,0.032 -0.088816,0.063 -0.044408,0.5002 -0.1480263,0.1095 -0.044408,0.1094 0.014803,0.1563 -0.2664473,0.2189 -0.05921,-0.032 0.014803,0.032 -0.088816,0.079 0.3848683,0 0.074013,0.1095 0,0.079 0.029605,0.032 0.1776316,0 0.05921,-0.1093 0.074013,0 0.029605,0.032 0.1036184,0 0.029605,0.3907 0.1924343,0 0,0.032 0.4884867,0.2344 0.014803,0.046 0.1036184,0 -0.014803,-0.1718 -0.1776315,-0.094 0.014803,-0.1251 0.074013,-0.1878 0.1776316,0 -0.1480263,-0.5472 0,-0.2343 0.236842,-0.4066 0.014803,-0.063 -0.044408,-0.015 0,-0.1096 -0.044408,0 -0.044408,-0.063 -0.7401315,-0.046 -0.1332236,0.1407 -0.2220395,-0.1563 z m 10.1101947,0.015 -0.133223,0.015 -0.08882,0.3282 -0.458882,0.1719 -0.133223,-0.1719 -0.07402,0.015 0.118421,0.5003 0.192434,0.032 0.251645,0.094 0,0.1096 0.103618,-0.032 0.177632,-0.2344 0,-0.2032 0.08882,-0.2033 0.103618,0.032 -0.11842,-0.2813 -0.02961,-0.172 z m -4.633222,0.079 -0.01481,0.125 0.0444,0.032 0.0444,-0.079 -0.07402,-0.078 z m -4.2483544,0.032 -0.014803,0.078 0.044408,0.047 0,0.079 -0.1776315,0.2658 0.118421,0.1094 0.05921,-0.047 0.1924342,-0.032 0.029605,0 0.014803,-0.079 0.1036184,-0.2344 -0.088816,-0.1876 -0.2812499,0 z m -2.3832233,0.016 -0.029605,0.078 0.05921,0.032 0.044408,-0.047 -0.014803,-0.063 -0.05921,0 z m 0.917763,0.015 -0.118421,0.1719 -0.2960526,0.016 0,0.046 0.1776315,0.015 0,0.469 -0.1480262,0 -0.088816,-0.079 -0.074013,0.047 -0.014803,0.015 0.044408,0.015 0.014803,0.1093 -0.1036184,0.079 0.014803,0.047 0.118421,-0.079 0.044408,0 0.014803,0.047 0.074013,0.032 0.2220395,-0.2033 0,-0.1406 0.044408,-0.1096 0.1480263,-0.125 0.029605,-0.3751 -0.1036184,0 z m 11.3980227,0.1095 -0.07402,0.1718 0.103618,0.1564 0.0444,0 0.0444,-0.1095 0.02961,-0.032 -0.05921,-0.047 -0.05921,-0.032 -0.02961,-0.1093 z m -0.236842,0.032 -0.133224,0.125 -0.08882,0 -0.133223,-0.078 -0.103619,0.015 -0.103618,0.172 -0.07402,0.3283 -0.02961,0.1251 0.07402,0.1094 -0.0444,0.1564 0,0.032 0.118421,0 0.0444,-0.4065 0.0444,0.015 0.05921,0.3597 0.07402,0.032 0.05921,-0.1563 -0.05921,-0.2502 -0.05921,-0.094 0.177631,-0.1251 -0.0444,-0.063 -0.162829,0.1094 -0.0444,0 -0.07402,-0.125 0.02961,-0.047 0.133223,-0.079 0.192434,0.063 0.05921,0 0.162829,-0.1407 -0.07402,-0.079 z m -11.9309174,0.047 0,0.063 0.1628289,0 0,-0.063 -0.1628289,0 z m 0.1924342,0 0,0.094 -0.2072368,0 -0.1332237,0.2503 0.2960526,0.3439 0.074013,-0.063 0,-0.063 -0.044408,-0.032 0,-0.046 0.1036184,-0.078 0.1036184,0.094 0.118421,0 0,-0.4067 -0.1776316,-0.015 0,-0.078 -0.1332236,0 z m 6.2911172,0 -0.02961,0.047 0.0444,0.032 0.05921,-0.032 -0.07402,-0.047 z m -6.7796039,0.032 0.029605,0.063 0.029605,0.015 0.029605,-0.047 -0.029605,-0.031 -0.05921,0 z m -0.044408,0.125 -0.029605,0.015 0,0.047 0.029605,0.015 0.029605,-0.047 -0.029605,-0.032 z m 13.1447329,0.1095 -0.148026,0.015 -0.08882,0.078 0.02961,0.079 0.162829,0.032 0,0.032 -0.103618,0.094 0.05921,0.1877 0.0444,0 0.0444,-0.1877 0.08882,0 0.02961,0.1877 0.39967,0.344 0,0.2657 0.148027,0.1563 0.05921,0 0.01481,-0.9537 -0.236842,-0.1719 -0.22204,0.1562 -0.07402,0.047 -0.133223,-0.079 0,-0.2813 -0.07402,0 z m -10.7319044,0.015 -0.05921,0.094 0,0.1094 0.1628289,0 0,-0.1094 -0.1036184,-0.094 z m 0.3848683,0.015 -0.1776315,0.047 -0.074013,0.046 0,0.1095 -0.044408,0.1718 -0.044408,0.047 -0.074013,0.015 0.1332237,0.4379 0.1924341,0.1093 0.1480263,0 0,0.032 -0.118421,0 0.059211,0.2813 -0.044408,0.2033 0.118421,0.1407 0,0.1563 0.014803,0.063 0.1480263,-0.1719 -0.014803,-0.2189 -0.074013,-0.063 0,-0.032 -0.044408,-0.1719 0.6069078,-0.078 -0.1332237,-0.2971 -0.014803,-0.2815 0.044408,-0.1407 -0.6069078,-0.4064 z m 0.1480263,1.3758 0.1036184,0.079 0.029605,0.2502 -0.2072369,0.2187 -0.044408,-0.125 0,-0.1564 -0.1036184,-0.125 -0.2960526,0.1407 0.2664473,0.1407 0.014803,0.4064 -0.1776315,0.2813 0,0.3285 0.1036184,0.094 0.2220394,-0.1563 0.044408,-0.219 0,-0.3594 0.3700658,-0.3284 0.059211,0 0.2368421,-0.2188 -0.044408,-0.469 -0.5921052,0.078 0.014803,0.1408 z m 9.7697338,-1.1725 -0.148027,0.032 -0.0444,0.047 0.0444,0.063 0.08882,-0.032 0.05921,-0.046 0.08882,0.079 0.0444,-0.032 -0.07402,-0.094 -0.05921,-0.016 z m -10.2138127,0.015 -0.1480262,0.015 0,0.079 0.029605,0.094 0.044408,0 0.044408,-0.032 0.029605,-0.1563 z m 11.4128257,0.094 -0.01481,0.9382 0.133224,0 0.162829,-0.2189 0.148026,0.015 0.08882,0.079 0.02961,0.2658 0.28125,0.1719 0.07402,-0.032 0,-0.1094 -0.222039,-0.2031 -0.118421,-0.2816 0.08882,-0.046 -0.05921,-0.1408 -0.148027,-0.015 -0.02961,-0.1566 -0.355263,-0.2658 -0.05921,0 z m -8.837168,0.032 -0.05921,0.047 0.0444,0.079 0.07402,0 -0.05921,-0.125 z m -4.4407889,0.079 -0.088816,0.078 0.05921,0.094 0.074013,-0.094 -0.014803,-0.078 -0.029605,0 z m 4.4703939,0.1251 -0.0444,0.046 0.02961,0.063 0.05921,0.015 0.01481,-0.1251 -0.05921,0 z m -4.1003282,0.078 -0.3848683,0.015 0.118421,0.4847 0,0.1562 -0.1776316,0.2033 -0.029605,0.3439 0.6957235,0 0.2220394,0.094 0.1924342,-0.032 -0.1036184,-0.1407 0,-0.422 0.2072368,-0.016 0,-0.1563 -0.1776315,0 -0.029605,-0.391 -0.074013,0 -0.044408,-0.032 -0.044408,0 -0.044408,0.1249 -0.2220394,0 -0.05921,-0.063 0.014803,-0.079 -0.05921,-0.094 z m 9.2664452,0.063 -0.103618,0.078 0.02961,0.063 0.310855,0.079 0.162829,0.032 0.07402,0.078 0.177631,0.015 0.08882,0.079 0.07402,-0.032 0.07402,-0.063 -0.133224,-0.063 -0.103618,-0.1094 -0.310855,-0.079 -0.340461,-0.079 z m -5.506578,0.015 -0.01481,0.046 0.05921,0.047 0.0444,-0.047 -0.08882,-0.046 z m 10.050984,0.032 -0.133224,0.032 0.01481,0.079 0.118421,-0.015 0,-0.094 z m -12.3453909,0.1406 -0.1628289,0.015 -0.074013,0.1876 0,0.079 0.1924342,0.094 0.014803,0.2032 -0.1628289,0.016 -0.044408,-0.063 -0.4440788,-0.2031 -0.014803,0.1562 -0.2072369,0 0,0.3596 0.1036184,0.1563 0.1776316,0.015 0.074013,0.047 0.1776316,0 0.1628289,-0.25 0.4588815,-0.2033 0.044408,-0.1877 -0.059211,-0.2814 -0.236842,-0.1407 z m 8.9851949,0.1094 0.01481,0.079 0.07402,0.032 0.0444,-0.047 -0.0444,-0.063 -0.08882,0 z m -0.133223,0.047 -0.08882,0.047 0.0444,0.046 0.118421,-0.046 -0.07402,-0.047 z m 0.39967,0 -0.0444,0.032 -0.01481,0.047 0.162829,0.015 0.118421,-0.078 -0.07402,-0.015 -0.103618,0.032 -0.0444,-0.032 z m 0.488486,0.047 -0.192434,0.1721 0.01481,0.047 0.08882,-0.015 0.08882,-0.094 0.177632,-0.032 -0.02961,-0.063 -0.148026,-0.015 z m -8.348681,0.1095 0.0148,0.063 0.07401,0.016 0.02961,-0.079 -0.118422,0 z m 7.786182,0 -0.103618,0.016 0.103618,0.079 0.05921,0 -0.05921,-0.094 z m -7.253287,0.063 -0.07402,0.2032 -0.1332239,0.2502 -0.2368421,0.015 -0.08882,0.1252 0.0148,0.3751 -0.1480263,0.1876 0.014803,0.297 0.1184213,0.1408 0.148026,-0.015 0.1480271,-0.1095 -0.02961,-0.1719 0.3256569,-0.6097 -0.05921,-0.079 0.05921,-0.1562 0.07402,0.032 0.02961,-0.063 -0.07402,-0.2971 -0.0444,-0.1251 -0.0444,0 z m -0.3256579,0.047 -0.1036181,0.015 0.02961,0.063 0.0444,0 0.02961,-0.078 z m 8.9407859,0.2814 -0.370065,0.1096 -0.103619,0.3126 -0.162829,0.047 -0.01481,-0.2188 -0.695724,0.4378 0.01481,0.1563 -0.103618,0.1563 -0.251644,0 -0.5625,0.2501 -0.192434,0.5473 -0.01481,0.9849 -0.148026,0.1093 0,0.094 0.192434,0.1407 0.473684,-0.094 0.251645,0 0.08882,-0.1407 0.547696,-0.1093 0.384868,0.1249 -0.02961,0.1563 0.05921,0.1721 0.296052,-0.063 0.01481,0.094 -0.207236,0.1405 0.07402,0.063 0.133223,-0.063 -0.02961,0.4692 0.266447,0.2188 0.162829,-0.063 0.07402,0.079 0.458882,-0.063 0.414473,-0.7348 0.162829,-0.032 0.310855,-0.6097 0.07402,-0.5315 -0.192434,-0.2503 0.07402,-0.063 -0.148026,-0.5159 -0.177632,-0.125 0.02961,-0.688 -0.148026,-0.125 -0.0444,-0.3752 -0.07402,0 -0.266447,0.9067 -0.133224,0.015 -0.325658,-0.3439 0.177632,-0.5159 -0.340461,-0.063 z m -10.6134831,0.094 -0.1036184,0.046 -0.1628289,0.2345 -0.2072368,0 0,0.046 0.3404605,0.3908 0.2516447,0.078 0.1628289,-0.2814 -0.014803,-0.3751 -0.2664473,-0.1407 z m -1.8799338,0.1875 0.029605,0.2033 0.2220394,0.3439 -0.044408,0.1876 0,0.094 0.1776315,0.4534 0.118421,0.016 0.074013,0.079 0.1776316,0 0.044408,-0.5159 0,-0.3283 0.1036184,-0.015 0.044408,-0.3595 0.2812499,0 0.088816,-0.094 -0.162829,0 -0.2220395,0.032 -0.2516446,-0.094 -0.6809209,0 z m 1.3470392,0.079 -0.1036184,0.094 -0.2664473,0.015 -0.044408,0.3439 -0.1036184,0.032 0,0.3126 0.074013,0.032 -0.014803,0.2344 0.088816,0.016 0.1776316,-0.1876 0.2220394,0.032 0.05921,-0.1562 0.2812499,-0.2815 -0.3404604,-0.4063 0,-0.063 -0.029605,-0.015 z m 3.2861837,0.3283 -0.0444,0.079 0,0.078 0.118421,-0.094 -0.07402,-0.063 z m -0.192434,0.125 -0.08882,0.016 0,0.063 0.0444,0.016 0.08882,-0.032 -0.0444,-0.063 z m -2.6792761,0.047 -0.2960526,0.2814 -0.05921,0.1719 -0.236842,-0.032 -0.1924342,0.1877 -0.118421,-0.016 0.014803,-0.25 -0.044408,-0.016 -0.044408,0.5003 -0.2220395,0 -0.05921,-0.079 -0.1036184,0 0.088816,0.2658 0.1628289,0.1719 -0.118421,0.1408 0.074013,0.1718 0.1776316,0.063 0.1332237,-0.1251 0.399671,0.015 0.029605,-0.047 0.1628289,-0.032 0.5921052,-0.6253 0,-0.1876 -0.059211,0.094 -0.088816,0 -0.118421,-0.1095 0.05921,-0.1563 0.1036184,-0.015 -0.014803,-0.3128 -0.2220394,-0.063 z m 0.2368421,0.4065 -0.088816,0.015 -0.029605,0.1094 0.05921,0.063 0.088816,0 0.074013,-0.1094 -0.1036184,-0.079 z m -0.3700657,0.3126 0.044408,0 0.088816,0.094 0,0.125 -0.1036184,0.046 0,0.047 -0.1628289,0 -0.05921,-0.125 0.05921,-0.094 0.1332237,-0.094 z m 0,0.032 -0.1184211,0.094 -0.029605,0.063 0.029605,0.078 0.1184211,0.015 0,-0.032 0.1036184,-0.046 0.014803,-0.078 -0.074013,-0.094 -0.044408,0 z m 10.7763127,2.8296 -0.05921,0.2658 0.01481,0.2032 0.192435,-0.016 0.222039,-0.3596 -0.370066,-0.1 z m -7.416116,0.125 0,0.1721 0.222039,0.047 0.0444,-0.1407 -0.07402,0.032 -0.103618,0.015 -0.02961,-0.1251 -0.05921,0 z m 9.310852,0.9789 -0.148026,0.063 0.02961,0.1094 0.118421,0.063 0,-0.2346 z"
       id="kalimantan"
       style="opacity:0.2;fill:#000000;fill-opacity:1" />
    <path
       style="fill:url(#linearGradient3829);fill-opacity:1;stroke:url(#linearGradient3827)"
       d="m 8.5,1036.8622 0,1 -1,0 0,1 -1.5,0 c -0.277,0 -0.5,0.223 -0.5,0.5 l 0,6 c 0,0.277 0.223,0.5 0.5,0.5 l 10,0 c 0.277,0 0.5,-0.223 0.5,-0.5 l 0,-6 c 0,-0.277 -0.223,-0.5 -0.5,-0.5 l -1.5,0 0,-1 -1,0 0,-1 z"
       id="rect3798"
       inkscape:connector-curvature="0"
       sodipodi:nodetypes="ccccssssssssccccc" />
    <rect
       style="fill:url(#linearGradient3060);fill-opacity:1;stroke:none"
       id="rect3976"
       width="8"
       height="3"
       x="6.9999995"
       y="1041.3621" />
  </g>
</svg>
