<?xml version="1.0" encoding="UTF-8" standalone="no"?>
<!-- Created with Inkscape (http://www.inkscape.org/) -->

<svg
   xmlns:dc="http://purl.org/dc/elements/1.1/"
   xmlns:cc="http://creativecommons.org/ns#"
   xmlns:rdf="http://www.w3.org/1999/02/22-rdf-syntax-ns#"
   xmlns:svg="http://www.w3.org/2000/svg"
   xmlns="http://www.w3.org/2000/svg"
   xmlns:xlink="http://www.w3.org/1999/xlink"
   xmlns:sodipodi="http://sodipodi.sourceforge.net/DTD/sodipodi-0.dtd"
   xmlns:inkscape="http://www.inkscape.org/namespaces/inkscape"
   width="22"
   height="22"
   id="svg3147"
   version="1.1"
   inkscape:version="0.48.4 r9939"
   sodipodi:docname="preferences-desktop-keyboard.svg">
  <defs
     id="defs3149">
    <linearGradient
       id="linearGradient3779">
      <stop
         style="stop-color:#c8c8c8;stop-opacity:1;"
         offset="0"
         id="stop3781" />
      <stop
         style="stop-color:#969696;stop-opacity:1;"
         offset="1"
         id="stop3783" />
    </linearGradient>
    <linearGradient
       id="linearGradient3771">
      <stop
         style="stop-color:#e6e6e6;stop-opacity:1;"
         offset="0"
         id="stop3773" />
      <stop
         style="stop-color:#f5f5f5;stop-opacity:1;"
         offset="1"
         id="stop3775" />
    </linearGradient>
    <linearGradient
       id="linearGradient4536">
      <stop
         style="stop-color:#ffffff;stop-opacity:1;"
         offset="0"
         id="stop4538" />
      <stop
         id="stop4546"
         offset="0.08220192"
         style="stop-color:#ffffff;stop-opacity:0.15686275;" />
      <stop
         id="stop4544"
         offset="0.936414"
         style="stop-color:#ffffff;stop-opacity:0.23529412;" />
      <stop
         style="stop-color:#ffffff;stop-opacity:0.39215687;"
         offset="1"
         id="stop4540" />
    </linearGradient>
    <radialGradient
       inkscape:collect="always"
       xlink:href="#linearGradient3688-166-749"
       id="radialGradient3132"
       gradientUnits="userSpaceOnUse"
       gradientTransform="matrix(2.003784,0,0,1.4,27.98813,-17.4)"
       cx="4.9929786"
       cy="43.5"
       fx="4.9929786"
       fy="43.5"
       r="2.5" />
    <linearGradient
       id="linearGradient3688-166-749">
      <stop
         id="stop2883"
         style="stop-color:#181818;stop-opacity:1"
         offset="0" />
      <stop
         id="stop2885"
         style="stop-color:#181818;stop-opacity:0"
         offset="1" />
    </linearGradient>
    <radialGradient
       inkscape:collect="always"
       xlink:href="#linearGradient3688-464-309"
       id="radialGradient3134"
       gradientUnits="userSpaceOnUse"
       gradientTransform="matrix(2.003784,0,0,1.4,-20.01187,-104.4)"
       cx="4.9929786"
       cy="43.5"
       fx="4.9929786"
       fy="43.5"
       r="2.5" />
    <linearGradient
       id="linearGradient3688-464-309">
      <stop
         id="stop2889"
         style="stop-color:#181818;stop-opacity:1"
         offset="0" />
      <stop
         id="stop2891"
         style="stop-color:#181818;stop-opacity:0"
         offset="1" />
    </linearGradient>
    <linearGradient
       inkscape:collect="always"
       xlink:href="#linearGradient3702-501-757"
       id="linearGradient3136"
       gradientUnits="userSpaceOnUse"
       x1="25.058096"
       y1="47.027729"
       x2="25.058096"
       y2="39.999443" />
    <linearGradient
       id="linearGradient3702-501-757">
      <stop
         id="stop2895"
         style="stop-color:#181818;stop-opacity:0"
         offset="0" />
      <stop
         id="stop2897"
         style="stop-color:#181818;stop-opacity:1"
         offset="0.5" />
      <stop
         id="stop2899"
         style="stop-color:#181818;stop-opacity:0"
         offset="1" />
    </linearGradient>
    <linearGradient
       inkscape:collect="always"
       xlink:href="#linearGradient4536"
       id="linearGradient4542"
       x1="16.243242"
       y1="1010.3351"
       x2="16.243242"
       y2="1026.3346"
       gradientUnits="userSpaceOnUse"
       gradientTransform="translate(-3,21.999965)" />
    <linearGradient
       inkscape:collect="always"
       xlink:href="#linearGradient3771"
       id="linearGradient3777"
       x1="11.945946"
       y1="1030.4883"
       x2="11.945946"
       y2="1050.0215"
       gradientUnits="userSpaceOnUse"
       gradientTransform="translate(-1,0.99994746)" />
    <linearGradient
       inkscape:collect="always"
       xlink:href="#linearGradient3779"
       id="linearGradient3785"
       x1="6.7567568"
       y1="1030.4883"
       x2="6.7567568"
       y2="1050.0201"
       gradientUnits="userSpaceOnUse"
       gradientTransform="translate(-1,0.99994746)" />
  </defs>
  <sodipodi:namedview
     id="base"
     pagecolor="#ffffff"
     bordercolor="#666666"
     borderopacity="1.0"
     inkscape:pageopacity="0.0"
     inkscape:pageshadow="2"
     inkscape:zoom="9.8111066"
     inkscape:cx="8.6707571"
     inkscape:cy="11.856347"
     inkscape:document-units="px"
     inkscape:current-layer="layer1"
     showgrid="false"
     inkscape:window-width="1280"
     inkscape:window-height="750"
     inkscape:window-x="0"
     inkscape:window-y="26"
     inkscape:window-maximized="1" />
  <metadata
     id="metadata3152">
    <rdf:RDF>
      <cc:Work
         rdf:about="">
        <dc:format>image/svg+xml</dc:format>
        <dc:type
           rdf:resource="http://purl.org/dc/dcmitype/StillImage" />
        <dc:title></dc:title>
      </cc:Work>
    </rdf:RDF>
  </metadata>
  <g
     inkscape:label="Livello 1"
     inkscape:groupmode="layer"
     id="layer1"
     transform="translate(0,-1030.3622)">
    <rect
       style="fill:url(#linearGradient3777);fill-opacity:1;stroke:url(#linearGradient3785);stroke-opacity:1"
       id="rect3163"
       width="19"
       height="19"
       x="1.4999999"
       y="1031.8621"
       rx="1.5"
       ry="1.5" />
    <path
       style="fill:#b4b4b4;fill-opacity:1;stroke:none"
       d="m 2,1047.3621 0,2 c 0,0.554 0.446,1 1,1 l 16,0 c 0.554,0 1,-0.446 1,-1 l 0,-2 c 0,0.554 -0.446,1 -1,1 l -16,0 c -0.554,0 -1,-0.446 -1,-1 z"
       id="rect3787"
       inkscape:connector-curvature="0" />
    <rect
       style="opacity:0.50000006;fill:none;stroke:url(#linearGradient4542);stroke-opacity:1"
       id="rect4534"
       width="17"
       height="15"
       x="2.5000005"
       y="1032.8621"
       rx="0.5"
       ry="0.5" />
    <g
       id="g3799"
       style="font-size:12.80484295px;font-style:normal;font-variant:normal;font-weight:normal;font-stretch:normal;line-height:125%;letter-spacing:0px;word-spacing:0px;fill:#ffffff;fill-opacity:1;stroke:none;font-family:Droid Sans;-inkscape-font-specification:Sans"
       transform="matrix(1.0278888,0,0,0.9728679,-1,0.49924476)">
      <path
         style="fill:#ffffff;fill-opacity:1"
         inkscape:connector-curvature="0"
         id="path3801"
         d="m 16.538754,1068.8077 c -10e-6,0.2584 -0.02085,0.5189 -0.06252,0.7815 -0.03752,0.2585 -0.09588,0.5065 -0.175066,0.7441 -0.07504,0.2334 -0.172992,0.4522 -0.293862,0.6565 -0.11672,0.2 -0.254272,0.3751 -0.412656,0.5252 -0.158402,0.15 -0.339721,0.2688 -0.543955,0.3564 -0.200085,0.083 -0.421001,0.125 -0.662751,0.125 -0.187579,0 -0.358477,-0.031 -0.512694,-0.094 -0.150064,-0.063 -0.27928,-0.1459 -0.387647,-0.2501 -0.108381,-0.1042 -0.197998,-0.223 -0.268851,-0.3564 -0.0667,-0.1375 -0.11255,-0.2792 -0.137552,-0.4251 l -0.02501,0 c -0.07503,0.1542 -0.16882,0.3001 -0.281356,0.4376 -0.112549,0.1376 -0.243849,0.2585 -0.393899,0.3627 -0.145895,0.1 -0.312624,0.1792 -0.500189,0.2376 -0.183409,0.058 -0.385568,0.088 -0.60648,0.088 -0.320959,0 -0.606484,-0.058 -0.856574,-0.1751 -0.24593,-0.1167 -0.4543419,-0.2792 -0.6252361,-0.4876 -0.1709014,-0.2126 -0.3022009,-0.4669 -0.3938989,-0.7628 -0.087536,-0.296 -0.1313028,-0.6232 -0.1312997,-0.9817 -3.1e-6,-0.4209 0.060436,-0.8065 0.1813186,-1.1566 0.1250438,-0.3502 0.302194,-0.6524 0.531451,-0.9066 0.2334171,-0.2543 0.5147741,-0.4523 0.8440691,-0.594 0.329286,-0.1417 0.698175,-0.2126 1.106669,-0.2126 0.187565,0 0.375135,0.01 0.562713,0.025 0.187564,0.017 0.366798,0.04 0.537703,0.069 0.170891,0.029 0.3272,0.063 0.468927,0.1 0.145881,0.033 0.26676,0.067 0.362637,0.1001 l -0.143804,2.601 c -0.0042,0.092 -0.0083,0.1667 -0.0125,0.225 -7e-6,0.054 -7e-6,0.098 0,0.1313 -7e-6,0.033 -7e-6,0.058 0,0.075 -7e-6,0.017 -7e-6,0.031 0,0.044 -7e-6,0.2209 0.02083,0.4023 0.06252,0.544 0.04584,0.1417 0.104198,0.2543 0.175066,0.3376 0.07085,0.083 0.150049,0.1417 0.23759,0.1751 0.09169,0.029 0.185479,0.044 0.281356,0.044 0.191731,0 0.360545,-0.063 0.506442,-0.1875 0.145879,-0.1292 0.266758,-0.3022 0.362637,-0.519 0.100029,-0.2167 0.175057,-0.471 0.225085,-0.7628 0.05001,-0.2917 0.07502,-0.6002 0.07503,-0.9253 -1e-5,-0.5919 -0.08963,-1.1171 -0.268852,-1.5756 -0.179244,-0.4627 -0.427254,-0.8524 -0.744031,-1.1692 -0.316795,-0.3168 -0.694021,-0.5565 -1.131679,-0.719 -0.433504,-0.1667 -0.906599,-0.2501 -1.419286,-0.2501 -0.704439,0 -1.325506,0.1167 -1.863205,0.3501 -0.5377069,0.2293 -0.9899608,0.5523 -1.3567631,0.9691 -0.3626395,0.4127 -0.6377433,0.9045 -0.8253122,1.4756 -0.1875726,0.5669 -0.281358,1.1879 -0.2813564,1.8632 -1.6e-6,0.6294 0.081279,1.1879 0.2438422,1.6756 0.1667277,0.4877 0.4084856,0.8983 0.7252743,1.2317 0.3209519,0.3335 0.7169346,0.5857 1.1879493,0.7566 0.4751759,0.1709 1.0191309,0.2563 1.6318669,0.2563 0.254258,0 0.504352,-0.015 0.750284,-0.044 0.250088,-0.029 0.489762,-0.069 0.719022,-0.1188 0.233415,-0.05 0.454331,-0.1063 0.662751,-0.1688 0.208404,-0.067 0.402227,-0.1355 0.58147,-0.2064 l 0,0.8816 c -0.358477,0.1584 -0.762796,0.2834 -1.212959,0.3752 -0.450177,0.092 -0.946197,0.1375 -1.488063,0.1375 -0.74612,0 -1.413038,-0.1063 -2.0007566,-0.3189 -0.5835569,-0.2125 -1.0795774,-0.521 -1.4880628,-0.9253 -0.4043212,-0.4085 -0.7127708,-0.9045 -0.92535,-1.4881 -0.2125812,-0.5877 -0.3188713,-1.2546 -0.3188706,-2.0007 -7e-7,-0.7837 0.1229623,-1.5131 0.3688895,-2.1884 0.245925,-0.6794 0.5960571,-1.2671 1.0503973,-1.7631 0.4585042,-0.496 1.0107958,-0.8858 1.6568766,-1.1692 0.6502416,-0.2835 1.3775996,-0.4252 2.1820756,-0.4252 0.650239,0 1.248381,0.1063 1.794428,0.3189 0.546032,0.2084 1.017043,0.5106 1.413035,0.9066 0.400142,0.3918 0.710675,0.8711 0.931602,1.438 0.220907,0.5627 0.331365,1.1984 0.331375,1.907 m -6.271121,0.8066 c -4e-6,0.5543 0.104201,0.9566 0.312618,1.2067 0.212576,0.2459 0.496016,0.3688 0.850322,0.3688 0.229247,0 0.425155,-0.046 0.587722,-0.1375 0.162555,-0.096 0.295939,-0.2293 0.400151,-0.4002 0.1042,-0.175 0.183396,-0.3813 0.23759,-0.6189 0.05418,-0.2418 0.08961,-0.5065 0.10629,-0.7941 l 0.08753,-1.5818 c -0.116717,-0.033 -0.256353,-0.063 -0.418908,-0.088 -0.1584,-0.029 -0.325129,-0.044 -0.500189,-0.044 -0.308456,0 -0.568971,0.06 -0.781546,0.1813 -0.208417,0.1209 -0.379315,0.2793 -0.512694,0.4752 -0.12922,0.1959 -0.223005,0.4189 -0.281356,0.669 -0.05836,0.2501 -0.08754,0.5043 -0.08753,0.7628" />
    </g>
    <g
       transform="matrix(1.0278888,0,0,0.9728679,-1,-7.5524e-4)"
       style="font-size:12.80484295px;font-style:normal;font-variant:normal;font-weight:normal;font-stretch:normal;line-height:125%;letter-spacing:0px;word-spacing:0px;fill:#c8c8c8;fill-opacity:1;stroke:none;font-family:Droid Sans;-inkscape-font-specification:Sans"
       id="text3792">
      <path
         d="m 16.538754,1068.8077 c -10e-6,0.2584 -0.02085,0.5189 -0.06252,0.7815 -0.03752,0.2585 -0.09588,0.5065 -0.175066,0.7441 -0.07504,0.2334 -0.172992,0.4522 -0.293862,0.6565 -0.11672,0.2 -0.254272,0.3751 -0.412656,0.5252 -0.158402,0.15 -0.339721,0.2688 -0.543955,0.3564 -0.200085,0.083 -0.421001,0.125 -0.662751,0.125 -0.187579,0 -0.358477,-0.031 -0.512694,-0.094 -0.150064,-0.063 -0.27928,-0.1459 -0.387647,-0.2501 -0.108381,-0.1042 -0.197998,-0.223 -0.268851,-0.3564 -0.0667,-0.1375 -0.11255,-0.2792 -0.137552,-0.4251 l -0.02501,0 c -0.07503,0.1542 -0.16882,0.3001 -0.281356,0.4376 -0.112549,0.1376 -0.243849,0.2585 -0.393899,0.3627 -0.145895,0.1 -0.312624,0.1792 -0.500189,0.2376 -0.183409,0.058 -0.385568,0.088 -0.60648,0.088 -0.320959,0 -0.606484,-0.058 -0.856574,-0.1751 -0.24593,-0.1167 -0.4543419,-0.2792 -0.6252361,-0.4876 -0.1709014,-0.2126 -0.3022009,-0.4669 -0.3938989,-0.7628 -0.087536,-0.296 -0.1313028,-0.6232 -0.1312997,-0.9817 -3.1e-6,-0.4209 0.060436,-0.8065 0.1813186,-1.1566 0.1250438,-0.3502 0.302194,-0.6524 0.531451,-0.9066 0.2334171,-0.2543 0.5147741,-0.4523 0.8440691,-0.594 0.329286,-0.1417 0.698175,-0.2126 1.106669,-0.2126 0.187565,0 0.375135,0.01 0.562713,0.025 0.187564,0.017 0.366798,0.04 0.537703,0.069 0.170891,0.029 0.3272,0.063 0.468927,0.1 0.145881,0.033 0.26676,0.067 0.362637,0.1001 l -0.143804,2.601 c -0.0042,0.092 -0.0083,0.1667 -0.0125,0.225 -7e-6,0.054 -7e-6,0.098 0,0.1313 -7e-6,0.033 -7e-6,0.058 0,0.075 -7e-6,0.017 -7e-6,0.031 0,0.044 -7e-6,0.2209 0.02083,0.4023 0.06252,0.544 0.04584,0.1417 0.104198,0.2543 0.175066,0.3376 0.07085,0.083 0.150049,0.1417 0.23759,0.1751 0.09169,0.029 0.185479,0.044 0.281356,0.044 0.191731,0 0.360545,-0.063 0.506442,-0.1875 0.145879,-0.1292 0.266758,-0.3022 0.362637,-0.519 0.100029,-0.2167 0.175057,-0.471 0.225085,-0.7628 0.05001,-0.2917 0.07502,-0.6002 0.07503,-0.9253 -1e-5,-0.5919 -0.08963,-1.1171 -0.268852,-1.5756 -0.179244,-0.4627 -0.427254,-0.8524 -0.744031,-1.1692 -0.316795,-0.3168 -0.694021,-0.5565 -1.131679,-0.719 -0.433504,-0.1667 -0.906599,-0.2501 -1.419286,-0.2501 -0.704439,0 -1.325506,0.1167 -1.863205,0.3501 -0.5377069,0.2293 -0.9899608,0.5523 -1.3567631,0.9691 -0.3626395,0.4127 -0.6377433,0.9045 -0.8253122,1.4756 -0.1875726,0.5669 -0.281358,1.1879 -0.2813564,1.8632 -1.6e-6,0.6294 0.081279,1.1879 0.2438422,1.6756 0.1667277,0.4877 0.4084856,0.8983 0.7252743,1.2317 0.3209519,0.3335 0.7169346,0.5857 1.1879493,0.7566 0.4751759,0.1709 1.0191309,0.2563 1.6318669,0.2563 0.254258,0 0.504352,-0.015 0.750284,-0.044 0.250088,-0.029 0.489762,-0.069 0.719022,-0.1188 0.233415,-0.05 0.454331,-0.1063 0.662751,-0.1688 0.208404,-0.067 0.402227,-0.1355 0.58147,-0.2064 l 0,0.8816 c -0.358477,0.1584 -0.762796,0.2834 -1.212959,0.3752 -0.450177,0.092 -0.946197,0.1375 -1.488063,0.1375 -0.74612,0 -1.413038,-0.1063 -2.0007566,-0.3189 -0.5835569,-0.2125 -1.0795774,-0.521 -1.4880628,-0.9253 -0.4043212,-0.4085 -0.7127708,-0.9045 -0.92535,-1.4881 -0.2125812,-0.5877 -0.3188713,-1.2546 -0.3188706,-2.0007 -7e-7,-0.7837 0.1229623,-1.5131 0.3688895,-2.1884 0.245925,-0.6794 0.5960571,-1.2671 1.0503973,-1.7631 0.4585042,-0.496 1.0107958,-0.8858 1.6568766,-1.1692 0.6502416,-0.2835 1.3775996,-0.4252 2.1820756,-0.4252 0.650239,0 1.248381,0.1063 1.794428,0.3189 0.546032,0.2084 1.017043,0.5106 1.413035,0.9066 0.400142,0.3918 0.710675,0.8711 0.931602,1.438 0.220907,0.5627 0.331365,1.1984 0.331375,1.907 m -6.271121,0.8066 c -4e-6,0.5543 0.104201,0.9566 0.312618,1.2067 0.212576,0.2459 0.496016,0.3688 0.850322,0.3688 0.229247,0 0.425155,-0.046 0.587722,-0.1375 0.162555,-0.096 0.295939,-0.2293 0.400151,-0.4002 0.1042,-0.175 0.183396,-0.3813 0.23759,-0.6189 0.05418,-0.2418 0.08961,-0.5065 0.10629,-0.7941 l 0.08753,-1.5818 c -0.116717,-0.033 -0.256353,-0.063 -0.418908,-0.088 -0.1584,-0.029 -0.325129,-0.044 -0.500189,-0.044 -0.308456,0 -0.568971,0.06 -0.781546,0.1813 -0.208417,0.1209 -0.379315,0.2793 -0.512694,0.4752 -0.12922,0.1959 -0.223005,0.4189 -0.281356,0.669 -0.05836,0.2501 -0.08754,0.5043 -0.08753,0.7628"
         id="path3797"
         inkscape:connector-curvature="0"
         style="fill:#c8c8c8;fill-opacity:1" />
    </g>
    <path
       style="font-size:12.80484295px;font-style:normal;font-variant:normal;font-weight:normal;font-stretch:normal;line-height:125%;letter-spacing:0px;word-spacing:0px;opacity:0.2;fill:#000000;fill-opacity:1;stroke:none;font-family:Droid Sans;-inkscape-font-specification:Sans"
       d="m 11.40625,1035.3621 c -0.826912,0 -1.581624,0.1304 -2.25,0.4063 -0.6640994,0.2757 -1.2162087,0.6737 -1.6875,1.1562 -0.4670112,0.4826 -0.8409664,1.0578 -1.09375,1.7188 -0.2527858,0.657 -0.3750008,1.3626 -0.375,2.125 -1e-7,0.088 0.02802,0.164 0.03125,0.25 0.025041,-0.667 0.1191484,-1.2913 0.34375,-1.875 0.2527836,-0.661 0.6267388,-1.2362 1.09375,-1.7188 0.4712913,-0.4825 1.0234006,-0.8805 1.6875,-1.1562 0.668376,-0.2759 1.423088,-0.4063 2.25,-0.4063 0.668373,0 1.282475,0.1057 1.84375,0.3125 0.561261,0.2028 1.030464,0.4898 1.4375,0.875 0.411302,0.3812 0.741662,0.8548 0.96875,1.4063 0.201318,0.4854 0.289662,1.028 0.3125,1.625 0.0056,-0.091 0.03125,-0.1906 0.03125,-0.2813 -10e-6,-0.6894 -0.116682,-1.2962 -0.34375,-1.8437 -0.227088,-0.5515 -0.557448,-1.0251 -0.96875,-1.4063 -0.407036,-0.3852 -0.876239,-0.6722 -1.4375,-0.875 -0.561275,-0.2068 -1.175377,-0.3125 -1.84375,-0.3125 z m -0.15625,2.4063 c -0.419887,0 -0.786531,0.081 -1.125,0.2187 -0.338479,0.1378 -0.6350729,0.3151 -0.8749999,0.5625 -0.2356511,0.2473 -0.4027189,0.5656 -0.5312501,0.9063 -0.1242543,0.3406 -0.1875032,0.7155 -0.1875,1.125 -7e-7,0.076 -0.00427,0.1456 0,0.2187 0.022414,-0.3004 0.092593,-0.5836 0.1875,-0.8437 0.1285312,-0.3407 0.295599,-0.659 0.5312501,-0.9063 0.239927,-0.2474 0.5365209,-0.4247 0.8749999,-0.5625 0.338469,-0.1379 0.705113,-0.2187 1.125,-0.2187 0.192796,0 0.400941,0.017 0.59375,0.031 0.192795,0.017 0.386829,0.034 0.5625,0.063 0.175657,0.028 0.32307,0.058 0.46875,0.094 0.138188,0.029 0.249213,0.064 0.34375,0.094 l 0.03125,-0.5 c -0.09855,-0.032 -0.225051,-0.062 -0.375,-0.094 -0.14568,-0.036 -0.293093,-0.066 -0.46875,-0.094 -0.175671,-0.028 -0.369705,-0.045 -0.5625,-0.063 -0.192809,-0.014 -0.400954,-0.031 -0.59375,-0.031 z m 0.9375,1.4062 -0.0625,1.0625 c -0.01714,0.2798 -0.06931,0.5148 -0.125,0.75 -0.05571,0.2312 -0.142894,0.4548 -0.25,0.625 -0.107119,0.1663 -0.239162,0.282 -0.40625,0.375 -0.167101,0.089 -0.358109,0.125 -0.59375,0.125 -0.364187,0 -0.656496,-0.1045 -0.875,-0.3437 -0.167606,-0.1905 -0.244776,-0.5035 -0.28125,-0.875 -0.0041,0.065 -0.03125,0.1215 -0.03125,0.1875 -4e-6,0.5393 0.09827,0.9441 0.3125,1.1875 0.218504,0.2392 0.510813,0.3437 0.875,0.3437 0.235641,0 0.426649,-0.036 0.59375,-0.125 0.167088,-0.093 0.299131,-0.2087 0.40625,-0.375 0.107106,-0.1702 0.194294,-0.3938 0.25,-0.625 0.05569,-0.2352 0.107856,-0.4702 0.125,-0.75 l 0.09375,-1.5625 c -0.0084,0 -0.02262,0 -0.03125,0 z m 2.84375,0.875 c -0.0103,0.2222 0.0059,0.451 -0.03125,0.6563 -0.05142,0.2839 -0.147182,0.5079 -0.25,0.7187 -0.09855,0.2109 -0.225053,0.4056 -0.375,0.5313 -0.149966,0.1214 -0.302922,0.1562 -0.5,0.1562 -0.09855,0 -0.21825,0 -0.3125,-0.031 -0.08998,-0.032 -0.14592,-0.075 -0.21875,-0.1563 -0.07284,-0.081 -0.14038,-0.2058 -0.1875,-0.3437 -0.04036,-0.1299 -0.06016,-0.3018 -0.0625,-0.5 -0.0043,0.09 0.0044,0.162 0,0.2187 l 0,0.125 0,0.094 0,0.031 c -7e-6,0.2149 0.01965,0.3935 0.0625,0.5313 0.04712,0.1379 0.114656,0.2626 0.1875,0.3437 0.07283,0.081 0.128768,0.1238 0.21875,0.1563 0.09425,0.028 0.213949,0.031 0.3125,0.031 0.197078,0 0.350034,-0.035 0.5,-0.1562 0.149947,-0.1257 0.276447,-0.3204 0.375,-0.5313 0.102818,-0.2108 0.198577,-0.4348 0.25,-0.7187 0.0514,-0.2838 0.06249,-0.59 0.0625,-0.9063 -2e-6,-0.089 -0.02686,-0.1642 -0.03125,-0.25 z M 7,1040.9559 c -0.00345,0.086 -0.03125,0.162 -0.03125,0.25 -1.6e-6,0.6123 0.082903,1.1506 0.25,1.625 0.1713775,0.4745 0.4243765,0.8944 0.75,1.2187 0.3299029,0.3245 0.7345996,0.5525 1.21875,0.7188 0.488428,0.1663 1.026426,0.25 1.65625,0.25 0.261349,0 0.528459,0 0.78125,-0.031 0.257062,-0.028 0.514346,-0.077 0.75,-0.125 0.239925,-0.049 0.442017,-0.095 0.65625,-0.1562 0.214216,-0.065 0.440758,-0.1185 0.625,-0.1875 l 0,-0.5 c -0.184242,0.069 -0.410784,0.1225 -0.625,0.1875 -0.214233,0.061 -0.416325,0.1072 -0.65625,0.1562 -0.235654,0.048 -0.492938,0.097 -0.75,0.125 -0.252791,0.028 -0.519901,0.031 -0.78125,0.031 -0.629824,0 -1.167822,-0.084 -1.65625,-0.25 -0.4841504,-0.1663 -0.8888471,-0.3943 -1.21875,-0.7188 -0.3256235,-0.3243 -0.5786225,-0.7442 -0.75,-1.2187 -0.1431349,-0.4064 -0.1982255,-0.8675 -0.21875,-1.375 z"
       id="path3809"
       inkscape:connector-curvature="0" />
  </g>
</svg>
