<?xml version="1.0" encoding="UTF-8" standalone="no"?>
<!-- Created with Inkscape (http://www.inkscape.org/) -->

<svg
   xmlns:dc="http://purl.org/dc/elements/1.1/"
   xmlns:cc="http://creativecommons.org/ns#"
   xmlns:rdf="http://www.w3.org/1999/02/22-rdf-syntax-ns#"
   xmlns:svg="http://www.w3.org/2000/svg"
   xmlns="http://www.w3.org/2000/svg"
   xmlns:xlink="http://www.w3.org/1999/xlink"
   xmlns:sodipodi="http://sodipodi.sourceforge.net/DTD/sodipodi-0.dtd"
   xmlns:inkscape="http://www.inkscape.org/namespaces/inkscape"
   width="22"
   height="22"
   id="svg3147"
   version="1.1"
   inkscape:version="0.48.3.1 r9886"
   sodipodi:docname="terminator.svg">
  <defs
     id="defs3149">
    <linearGradient
       id="linearGradient3797">
      <stop
         style="stop-color:#323232;stop-opacity:1;"
         offset="0"
         id="stop3799" />
      <stop
         style="stop-color:#000000;stop-opacity:1;"
         offset="1"
         id="stop3801" />
    </linearGradient>
    <linearGradient
       id="linearGradient3789">
      <stop
         style="stop-color:#0e6eab;stop-opacity:1;"
         offset="0"
         id="stop3791" />
      <stop
         style="stop-color:#0a1e38;stop-opacity:1;"
         offset="1"
         id="stop3793" />
    </linearGradient>
    <linearGradient
       id="linearGradient3779">
      <stop
         style="stop-color:#969696;stop-opacity:1;"
         offset="0"
         id="stop3781" />
      <stop
         style="stop-color:#d2d2d2;stop-opacity:1;"
         offset="1"
         id="stop3783" />
    </linearGradient>
    <linearGradient
       id="linearGradient3771">
      <stop
         style="stop-color:#f5f5f5;stop-opacity:1;"
         offset="0"
         id="stop3773" />
      <stop
         style="stop-color:#bebebe;stop-opacity:1;"
         offset="1"
         id="stop3775" />
    </linearGradient>
    <linearGradient
       id="linearGradient4536">
      <stop
         style="stop-color:#ffffff;stop-opacity:1;"
         offset="0"
         id="stop4538" />
      <stop
         id="stop4546"
         offset="0.08220192"
         style="stop-color:#ffffff;stop-opacity:0.15686275;" />
      <stop
         id="stop4544"
         offset="0.936414"
         style="stop-color:#ffffff;stop-opacity:0.23529412;" />
      <stop
         style="stop-color:#ffffff;stop-opacity:0.39215687;"
         offset="1"
         id="stop4540" />
    </linearGradient>
    <radialGradient
       inkscape:collect="always"
       xlink:href="#linearGradient3688-166-749"
       id="radialGradient3132"
       gradientUnits="userSpaceOnUse"
       gradientTransform="matrix(2.003784,0,0,1.4,27.98813,-17.4)"
       cx="4.9929786"
       cy="43.5"
       fx="4.9929786"
       fy="43.5"
       r="2.5" />
    <linearGradient
       id="linearGradient3688-166-749">
      <stop
         id="stop2883"
         style="stop-color:#181818;stop-opacity:1"
         offset="0" />
      <stop
         id="stop2885"
         style="stop-color:#181818;stop-opacity:0"
         offset="1" />
    </linearGradient>
    <radialGradient
       inkscape:collect="always"
       xlink:href="#linearGradient3688-464-309"
       id="radialGradient3134"
       gradientUnits="userSpaceOnUse"
       gradientTransform="matrix(2.003784,0,0,1.4,-20.01187,-104.4)"
       cx="4.9929786"
       cy="43.5"
       fx="4.9929786"
       fy="43.5"
       r="2.5" />
    <linearGradient
       id="linearGradient3688-464-309">
      <stop
         id="stop2889"
         style="stop-color:#181818;stop-opacity:1"
         offset="0" />
      <stop
         id="stop2891"
         style="stop-color:#181818;stop-opacity:0"
         offset="1" />
    </linearGradient>
    <linearGradient
       inkscape:collect="always"
       xlink:href="#linearGradient3702-501-757"
       id="linearGradient3136"
       gradientUnits="userSpaceOnUse"
       x1="25.058096"
       y1="47.027729"
       x2="25.058096"
       y2="39.999443" />
    <linearGradient
       id="linearGradient3702-501-757">
      <stop
         id="stop2895"
         style="stop-color:#181818;stop-opacity:0"
         offset="0" />
      <stop
         id="stop2897"
         style="stop-color:#181818;stop-opacity:1"
         offset="0.5" />
      <stop
         id="stop2899"
         style="stop-color:#181818;stop-opacity:0"
         offset="1" />
    </linearGradient>
    <linearGradient
       inkscape:collect="always"
       xlink:href="#linearGradient4536"
       id="linearGradient4542"
       x1="16.243242"
       y1="1010.3351"
       x2="16.243242"
       y2="1028.3159"
       gradientUnits="userSpaceOnUse"
       gradientTransform="translate(-3,22.00001)" />
    <radialGradient
       inkscape:collect="always"
       xlink:href="#linearGradient3771"
       id="radialGradient3777"
       cx="12.072066"
       cy="1034.5964"
       fx="12.072066"
       fy="1034.5964"
       r="10"
       gradientUnits="userSpaceOnUse"
       gradientTransform="matrix(4.7972266e-6,1.629053,-1.2671792,3.7315826e-6,1322.091,1015.9265)" />
    <linearGradient
       inkscape:collect="always"
       xlink:href="#linearGradient3779"
       id="linearGradient3785"
       x1="7.2252254"
       y1="1050.1648"
       x2="7.2252254"
       y2="1030.4883"
       gradientUnits="userSpaceOnUse"
       gradientTransform="translate(-1,0.9999926)" />
    <radialGradient
       inkscape:collect="always"
       xlink:href="#linearGradient3789"
       id="radialGradient3795"
       cx="14.234252"
       cy="1035.8217"
       fx="14.234252"
       fy="1035.8217"
       r="8"
       gradientUnits="userSpaceOnUse"
       gradientTransform="matrix(1.3722856e-6,1.7657658,-1.6128391,1.2534368e-6,1683.8479,1011.6856)" />
    <linearGradient
       inkscape:collect="always"
       xlink:href="#linearGradient3797"
       id="linearGradient3803"
       x1="8.1081085"
       y1="1032.5063"
       x2="8.1081085"
       y2="1048.2982"
       gradientUnits="userSpaceOnUse"
       gradientTransform="translate(-1.0000002,0.9998139)" />
  </defs>
  <sodipodi:namedview
     id="base"
     pagecolor="#ffffff"
     bordercolor="#666666"
     borderopacity="1.0"
     inkscape:pageopacity="0.0"
     inkscape:pageshadow="2"
     inkscape:zoom="13.875"
     inkscape:cx="9.0102291"
     inkscape:cy="11.685658"
     inkscape:document-units="px"
     inkscape:current-layer="layer1"
     showgrid="false"
     inkscape:window-width="1280"
     inkscape:window-height="751"
     inkscape:window-x="0"
     inkscape:window-y="24"
     inkscape:window-maximized="1" />
  <metadata
     id="metadata3152">
    <rdf:RDF>
      <cc:Work
         rdf:about="">
        <dc:format>image/svg+xml</dc:format>
        <dc:type
           rdf:resource="http://purl.org/dc/dcmitype/StillImage" />
        <dc:title></dc:title>
      </cc:Work>
    </rdf:RDF>
  </metadata>
  <g
     inkscape:label="Livello 1"
     inkscape:groupmode="layer"
     id="layer1"
     transform="translate(0,-1030.3622)">
    <rect
       style="fill:url(#radialGradient3777);fill-opacity:1;stroke:url(#linearGradient3785);stroke-opacity:1"
       id="rect3163"
       width="19"
       height="19"
       x="1.4999999"
       y="1031.8622"
       rx="1.5"
       ry="1.5" />
    <rect
       style="opacity:0.5;fill:none;stroke:url(#linearGradient4542);stroke-opacity:1"
       id="rect4534"
       width="17"
       height="17"
       x="2.5000005"
       y="1032.8622"
       rx="0.5"
       ry="0.5" />
    <rect
       style="fill:url(#radialGradient3795);fill-opacity:1;stroke:url(#linearGradient3803);stroke-opacity:1"
       id="rect3787"
       width="15"
       height="15"
       x="3.500001"
       y="1033.8622"
       rx="0.5"
       ry="0.5" />
    <rect
       ry="0.1"
       rx="0.1"
       y="1034.3622"
       x="4.0000014"
       height="14"
       width="14"
       id="rect3805"
       style="opacity:0.1;fill:none;stroke:#000000;stroke-width:2;stroke-miterlimit:4;stroke-opacity:1;stroke-dasharray:none" />
    <rect
       style="opacity:0.15;fill:none;stroke:#000000;stroke-width:1;stroke-miterlimit:4;stroke-opacity:1;stroke-dasharray:none"
       id="rect3807"
       width="15"
       height="15"
       x="3.500001"
       y="1033.8622"
       rx="0.5"
       ry="0.5" />
    <path
       id="path3851"
       d="m 7,1037.3622 0,1 1,0 0,-1 -1,0 z m 1,1 0,1 1,0 0,-1 -1,0 z m 1,1 0,1 1,0 0,-1 -1,0 z m 0,1 -1,0 0,1 1,0 0,-1 z m -1,1 -1,0 0,1 1,0 0,-1 z m 3,1 0,1 1,0 1,0 1,0 0,-1 -1,0 -1,0 -1,0 z"
       style="opacity:0.05;fill:#000000;fill-opacity:1;stroke:#000000;stroke-width:3;stroke-linejoin:round;stroke-miterlimit:4;stroke-opacity:1;stroke-dasharray:none"
       inkscape:connector-curvature="0" />
    <path
       style="opacity:0.09999994;fill:#000000;fill-opacity:1;stroke:#000000;stroke-width:2;stroke-linejoin:round;stroke-miterlimit:4;stroke-opacity:1;stroke-dasharray:none"
       d="m 7,1037.3622 0,1 1,0 0,-1 -1,0 z m 1,1 0,1 1,0 0,-1 -1,0 z m 1,1 0,1 1,0 0,-1 -1,0 z m 0,1 -1,0 0,1 1,0 0,-1 z m -1,1 -1,0 0,1 1,0 0,-1 z m 3,1 0,1 1,0 1,0 1,0 0,-1 -1,0 -1,0 -1,0 z"
       id="path3849"
       inkscape:connector-curvature="0" />
    <path
       id="path3847"
       d="m 7,1037.3622 0,1 1,0 0,-1 -1,0 z m 1,1 0,1 1,0 0,-1 -1,0 z m 1,1 0,1 1,0 0,-1 -1,0 z m 0,1 -1,0 0,1 1,0 0,-1 z m -1,1 -1,0 0,1 1,0 0,-1 z m 3,1 0,1 1,0 1,0 1,0 0,-1 -1,0 -1,0 -1,0 z"
       style="opacity:0.15;fill:#000000;fill-opacity:1;stroke:#000000;stroke-linejoin:round;stroke-opacity:1"
       inkscape:connector-curvature="0" />
    <path
       style="fill:#ffffff;fill-opacity:1;stroke:none"
       d="m 7,1037.3622 0,1 1,0 0,-1 -1,0 z m 1,1 0,1 1,0 0,-1 -1,0 z m 1,1 0,1 1,0 0,-1 -1,0 z m 0,1 -1,0 0,1 1,0 0,-1 z m -1,1 -1,0 0,1 1,0 0,-1 z m 3,1 0,1 1,0 1,0 1,0 0,-1 -1,0 -1,0 -1,0 z"
       id="rect3809"
       inkscape:connector-curvature="0" />
  </g>
</svg>
