<?xml version="1.0" encoding="UTF-8" standalone="no"?>
<!-- Created with Inkscape (http://www.inkscape.org/) -->

<svg
   xmlns:dc="http://purl.org/dc/elements/1.1/"
   xmlns:cc="http://creativecommons.org/ns#"
   xmlns:rdf="http://www.w3.org/1999/02/22-rdf-syntax-ns#"
   xmlns:svg="http://www.w3.org/2000/svg"
   xmlns="http://www.w3.org/2000/svg"
   xmlns:xlink="http://www.w3.org/1999/xlink"
   xmlns:sodipodi="http://sodipodi.sourceforge.net/DTD/sodipodi-0.dtd"
   xmlns:inkscape="http://www.inkscape.org/namespaces/inkscape"
   width="22"
   height="22"
   id="svg3147"
   version="1.1"
   inkscape:version="0.48.4 r9939"
   sodipodi:docname="thunderbird.svg">
  <defs
     id="defs3149">
    <linearGradient
       id="linearGradient4029">
      <stop
         style="stop-color:#3c9bdd;stop-opacity:1;"
         offset="0"
         id="stop4031" />
      <stop
         style="stop-color:#143ed1;stop-opacity:1;"
         offset="1"
         id="stop4033" />
    </linearGradient>
    <linearGradient
       id="linearGradient4021">
      <stop
         style="stop-color:#3acfe9;stop-opacity:1;"
         offset="0"
         id="stop4023" />
      <stop
         style="stop-color:#145cc5;stop-opacity:1;"
         offset="1"
         id="stop4025" />
    </linearGradient>
    <linearGradient
       id="linearGradient3781">
      <stop
         style="stop-color:#d2d2d2;stop-opacity:1;"
         offset="0"
         id="stop3783" />
      <stop
         style="stop-color:#b4b4b4;stop-opacity:1;"
         offset="1"
         id="stop3785" />
    </linearGradient>
    <linearGradient
       id="linearGradient3771">
      <stop
         style="stop-color:#f5f5f5;stop-opacity:1;"
         offset="0"
         id="stop3773" />
      <stop
         style="stop-color:#dcdcdc;stop-opacity:1;"
         offset="1"
         id="stop3775" />
    </linearGradient>
    <linearGradient
       id="linearGradient4536">
      <stop
         style="stop-color:#ffffff;stop-opacity:1;"
         offset="0"
         id="stop4538" />
      <stop
         id="stop4546"
         offset="0.08220192"
         style="stop-color:#ffffff;stop-opacity:0.15686275;" />
      <stop
         id="stop4544"
         offset="0.936414"
         style="stop-color:#ffffff;stop-opacity:0.23529412;" />
      <stop
         style="stop-color:#ffffff;stop-opacity:0.39215687;"
         offset="1"
         id="stop4540" />
    </linearGradient>
    <radialGradient
       inkscape:collect="always"
       xlink:href="#linearGradient3688-166-749"
       id="radialGradient3132"
       gradientUnits="userSpaceOnUse"
       gradientTransform="matrix(2.003784,0,0,1.4,27.98813,-17.4)"
       cx="4.9929786"
       cy="43.5"
       fx="4.9929786"
       fy="43.5"
       r="2.5" />
    <linearGradient
       id="linearGradient3688-166-749">
      <stop
         id="stop2883"
         style="stop-color:#181818;stop-opacity:1"
         offset="0" />
      <stop
         id="stop2885"
         style="stop-color:#181818;stop-opacity:0"
         offset="1" />
    </linearGradient>
    <radialGradient
       inkscape:collect="always"
       xlink:href="#linearGradient3688-464-309"
       id="radialGradient3134"
       gradientUnits="userSpaceOnUse"
       gradientTransform="matrix(2.003784,0,0,1.4,-20.01187,-104.4)"
       cx="4.9929786"
       cy="43.5"
       fx="4.9929786"
       fy="43.5"
       r="2.5" />
    <linearGradient
       id="linearGradient3688-464-309">
      <stop
         id="stop2889"
         style="stop-color:#181818;stop-opacity:1"
         offset="0" />
      <stop
         id="stop2891"
         style="stop-color:#181818;stop-opacity:0"
         offset="1" />
    </linearGradient>
    <linearGradient
       inkscape:collect="always"
       xlink:href="#linearGradient3702-501-757"
       id="linearGradient3136"
       gradientUnits="userSpaceOnUse"
       x1="25.058096"
       y1="47.027729"
       x2="25.058096"
       y2="39.999443" />
    <linearGradient
       id="linearGradient3702-501-757">
      <stop
         id="stop2895"
         style="stop-color:#181818;stop-opacity:0"
         offset="0" />
      <stop
         id="stop2897"
         style="stop-color:#181818;stop-opacity:1"
         offset="0.5" />
      <stop
         id="stop2899"
         style="stop-color:#181818;stop-opacity:0"
         offset="1" />
    </linearGradient>
    <linearGradient
       inkscape:collect="always"
       xlink:href="#linearGradient4536"
       id="linearGradient4542"
       x1="16.243242"
       y1="1010.3351"
       x2="16.243242"
       y2="1028.3159"
       gradientUnits="userSpaceOnUse"
       gradientTransform="translate(-3,22)" />
    <radialGradient
       inkscape:collect="always"
       xlink:href="#linearGradient3771"
       id="radialGradient4013"
       gradientUnits="userSpaceOnUse"
       gradientTransform="matrix(-9.8585446e-7,1.9684111,-1.6320642,-8.1739926e-7,1698.7907,1011.5246)"
       cx="12.000021"
       cy="1034.1448"
       fx="12.000021"
       fy="1034.1448"
       r="10" />
    <linearGradient
       inkscape:collect="always"
       xlink:href="#linearGradient3781"
       id="linearGradient4015"
       gradientUnits="userSpaceOnUse"
       x1="4.9558339"
       y1="1030.5774"
       x2="4.9558339"
       y2="1050.1472"
       gradientTransform="translate(-1,1)" />
    <radialGradient
       inkscape:collect="always"
       xlink:href="#linearGradient4021"
       id="radialGradient4027"
       cx="11.999987"
       cy="1036.4703"
       fx="11.999987"
       fy="1036.4703"
       r="6"
       gradientUnits="userSpaceOnUse"
       gradientTransform="matrix(-4.6877646e-6,1.8259468,-1.6727158,-4.2943737e-6,1744.7204,1015.5635)" />
    <linearGradient
       inkscape:collect="always"
       xlink:href="#linearGradient4029"
       id="linearGradient4035"
       x1="7.8738737"
       y1="1034.3802"
       x2="7.8738737"
       y2="1046.3387"
       gradientUnits="userSpaceOnUse"
       gradientTransform="translate(-1,1)" />
    <radialGradient
       inkscape:collect="always"
       xlink:href="#linearGradient4244"
       id="radialGradient4242"
       cx="36.068764"
       cy="14.034444"
       fx="36.068764"
       fy="14.034444"
       r="20.109375"
       gradientTransform="matrix(-3.8759169e-8,1.3192934,-1.6700345,-4.9063498e-8,60.506771,932.22106)"
       gradientUnits="userSpaceOnUse" />
    <linearGradient
       id="linearGradient4244">
      <stop
         id="stop4246"
         offset="0"
         style="stop-color:#ffffff;stop-opacity:1;" />
      <stop
         id="stop4248"
         offset="1"
         style="stop-color:#f0f0f0;stop-opacity:1;" />
    </linearGradient>
    <radialGradient
       r="20.109375"
       fy="14.034444"
       fx="36.068764"
       cy="14.034444"
       cx="36.068764"
       gradientTransform="matrix(0,0.32981923,-0.41750341,-1.2265721e-8,15.876569,1025.0774)"
       gradientUnits="userSpaceOnUse"
       id="radialGradient3846"
       xlink:href="#linearGradient4244"
       inkscape:collect="always" />
  </defs>
  <sodipodi:namedview
     id="base"
     pagecolor="#ffffff"
     bordercolor="#666666"
     borderopacity="1.0"
     inkscape:pageopacity="0.0"
     inkscape:pageshadow="2"
     inkscape:zoom="6.9375"
     inkscape:cx="8.7777394"
     inkscape:cy="2.3302343"
     inkscape:document-units="px"
     inkscape:current-layer="layer1"
     showgrid="false"
     inkscape:window-width="1280"
     inkscape:window-height="744"
     inkscape:window-x="0"
     inkscape:window-y="24"
     inkscape:window-maximized="1" />
  <metadata
     id="metadata3152">
    <rdf:RDF>
      <cc:Work
         rdf:about="">
        <dc:format>image/svg+xml</dc:format>
        <dc:type
           rdf:resource="http://purl.org/dc/dcmitype/StillImage" />
        <dc:title></dc:title>
      </cc:Work>
    </rdf:RDF>
  </metadata>
  <g
     inkscape:label="Livello 1"
     inkscape:groupmode="layer"
     id="layer1"
     transform="translate(0,-1030.3622)">
    <path
       style="fill:url(#radialGradient4013);fill-opacity:1;stroke:url(#linearGradient4015);stroke-opacity:1"
       d="m 3,1031.8622 c -0.831,0 -1.5,0.669 -1.5,1.5 l 0,3 c 0.5522847,0 1,0.4477 1,1 0,0.5523 -0.4477153,1 -1,1 l 0,2 c 0.5522847,0 1,0.4477 1,1 0,0.5523 -0.4477153,1 -1,1 l 0,2 c 0.5522847,0 1,0.4477 1,1 0,0.5523 -0.4477153,1 -1,1 l 0,3 c 0,0.831 0.669,1.5 1.5,1.5 l 3,0 c 0,-0.5523 0.4477153,-1 1,-1 0.5522847,0 1,0.4477 1,1 l 2,0 c 0,-0.5523 0.447715,-1 1,-1 0.552285,0 1,0.4477 1,1 l 2,0 c 0,-0.5523 0.447715,-1 1,-1 0.552285,0 1,0.4477 1,1 l 3,0 c 0.831,0 1.5,-0.669 1.5,-1.5 l 0,-3 c -0.552285,0 -1,-0.4477 -1,-1 0,-0.5523 0.447715,-1 1,-1 l 0,-2 c -0.552285,0 -1,-0.4477 -1,-1 0,-0.5523 0.447715,-1 1,-1 l 0,-2 c -0.552285,0 -1,-0.4477 -1,-1 0,-0.5523 0.447715,-1 1,-1 l 0,-3 c 0,-0.831 -0.669,-1.5 -1.5,-1.5 l -3,0 c 0,0.5523 -0.447715,1 -1,1 -0.552285,0 -1,-0.4477 -1,-1 l -2,0 c 0,0.5523 -0.447715,1 -1,1 -0.552285,0 -1,-0.4477 -1,-1 l -2,0 c 0,0.5523 -0.4477153,1 -1,1 -0.5522847,0 -1,-0.4477 -1,-1 l -3,0 z"
       id="rect3163"
       inkscape:connector-curvature="0" />
    <path
       style="opacity:0.50000006;fill:none;stroke:url(#linearGradient4542);stroke-opacity:1"
       d="m 3,1032.8622 c -0.277,0 -0.5,0.223 -0.5,0.5 l 0,3 c 0.552285,0 1,0.4477 1,1 0,0.5523 -0.447715,1 -1,1 l 0,2 c 0.552285,0 1,0.4477 1,1 0,0.5523 -0.447715,1 -1,1 l 0,2 c 0.552285,0 1,0.4477 1,1 0,0.5523 -0.447715,1 -1,1 l 0,3 c 0,0.277 0.223,0.5 0.5,0.5 l 3,0 c 0,-0.5523 0.447715,-1 1,-1 0.552285,0 1,0.4477 1,1 l 2,0 c 0,-0.5523 0.447715,-1 1,-1 0.552285,0 1,0.4477 1,1 l 2,0 c 0,-0.5523 0.447715,-1 1,-1 0.552285,0 1,0.4477 1,1 l 3,0 c 0.277,0 0.5,-0.223 0.5,-0.5 l 0,-3 c -0.552285,0 -1,-0.4477 -1,-1 0,-0.5523 0.447715,-1 1,-1 l 0,-2 c -0.552285,0 -1,-0.4477 -1,-1 0,-0.5523 0.447715,-1 1,-1 l 0,-2 c -0.552285,0 -1,-0.4477 -1,-1 0,-0.5523 0.447715,-1 1,-1 l 0,-3 c 0,-0.277 -0.223,-0.5 -0.5,-0.5 l -3,0 c 0,0.5523 -0.447715,1 -1,1 -0.552285,0 -1,-0.4477 -1,-1 l -2,0 c 0,0.5523 -0.447715,1 -1,1 -0.552285,0 -1,-0.4477 -1,-1 l -2,0 c 0,0.5523 -0.447715,1 -1,1 -0.552285,0 -1,-0.4477 -1,-1 l -3,0 z"
       id="rect4534"
       inkscape:connector-curvature="0" />
    <rect
       style="fill:url(#radialGradient4027);fill-opacity:1;stroke:url(#linearGradient4035);stroke-opacity:1"
       id="rect4019"
       width="11"
       height="11"
       x="5.500001"
       y="1035.8619" />
    <path
       style="opacity:0.05;fill:#000000;fill-opacity:1;stroke:none"
       d="m 6,1037.3625 0,0.125 0,2.3985 c 0.451101,0.4431 1.06765,0.7187 1.749978,0.7187 0.710409,0 1.349526,-0.2977 1.804665,-0.7734 0.245842,0.1317 0.52971,0.2031 0.828115,0.2031 0.15357,0 0.303386,-0.018 0.445307,-0.055 0.339911,0.8113 1.143457,1.3828 2.078099,1.3828 1.242632,0 2.249972,-1.0073 2.249972,-2.25 0,-0.01 7.7e-5,-0.016 0,-0.024 0.526417,-0.2328 0.898426,-0.7623 0.898426,-1.375 0,-0.121 -0.0198,-0.2388 -0.04687,-0.3515 l -9.882689,0 -0.124998,0 z"
       id="path4058"
       inkscape:connector-curvature="0" />
    <path
       inkscape:connector-curvature="0"
       id="path4054"
       d="m 6,1036.8625 0,0.125 0,2.3985 c 0.451101,0.4431 1.06765,0.7187 1.749978,0.7187 0.710409,0 1.349526,-0.2977 1.804665,-0.7734 0.245842,0.1317 0.52971,0.2031 0.828115,0.2031 0.15357,0 0.303386,-0.018 0.445307,-0.055 0.339911,0.8113 1.143457,1.3828 2.078099,1.3828 1.242632,0 2.249972,-1.0073 2.249972,-2.25 0,-0.01 7.7e-5,-0.016 0,-0.024 0.526417,-0.2328 0.898426,-0.7623 0.898426,-1.375 0,-0.121 -0.0198,-0.2388 -0.04687,-0.3515 l -9.882689,0 -0.124998,0 z"
       style="opacity:0.1;fill:#000000;fill-opacity:1;stroke:none" />
    <path
       style="fill:url(#radialGradient3846);fill-opacity:1;stroke:none"
       d="m 6,1036.3625 0,0.125 0,2.3985 c 0.451101,0.4431 1.06765,0.7187 1.749978,0.7187 0.710409,0 1.349526,-0.2977 1.804665,-0.7734 0.245842,0.1317 0.52971,0.2031 0.828115,0.2031 0.15357,0 0.303386,-0.018 0.445307,-0.055 0.339911,0.8113 1.143457,1.3828 2.078099,1.3828 1.242632,0 2.249972,-1.0073 2.249972,-2.25 0,-0.01 7.7e-5,-0.016 0,-0.024 0.526417,-0.2328 0.898426,-0.7623 0.898426,-1.375 0,-0.121 -0.0198,-0.2388 -0.04687,-0.3515 l -9.882689,0 -0.124998,0 z"
       id="path4218"
       inkscape:connector-curvature="0" />
  </g>
</svg>
