<?xml version="1.0" encoding="UTF-8" standalone="no"?>
<!-- Created with Inkscape (http://www.inkscape.org/) -->

<svg
   xmlns:dc="http://purl.org/dc/elements/1.1/"
   xmlns:cc="http://creativecommons.org/ns#"
   xmlns:rdf="http://www.w3.org/1999/02/22-rdf-syntax-ns#"
   xmlns:svg="http://www.w3.org/2000/svg"
   xmlns="http://www.w3.org/2000/svg"
   xmlns:xlink="http://www.w3.org/1999/xlink"
   xmlns:sodipodi="http://sodipodi.sourceforge.net/DTD/sodipodi-0.dtd"
   xmlns:inkscape="http://www.inkscape.org/namespaces/inkscape"
   width="22"
   height="22"
   id="svg3147"
   version="1.1"
   inkscape:version="0.48.3.1 r9886"
   sodipodi:docname="web-browser.svg">
  <defs
     id="defs3149">
    <linearGradient
       id="linearGradient3786">
      <stop
         style="stop-color:#80ddfa;stop-opacity:1;"
         offset="0"
         id="stop3788" />
      <stop
         style="stop-color:#1176b3;stop-opacity:1;"
         offset="1"
         id="stop3790" />
    </linearGradient>
    <linearGradient
       id="linearGradient3778">
      <stop
         style="stop-color:#0e7896;stop-opacity:1;"
         offset="0"
         id="stop3780" />
      <stop
         style="stop-color:#368caa;stop-opacity:1;"
         offset="1"
         id="stop3782" />
    </linearGradient>
    <linearGradient
       id="linearGradient4536">
      <stop
         style="stop-color:#ffffff;stop-opacity:1;"
         offset="0"
         id="stop4538" />
      <stop
         id="stop4546"
         offset="0.08220192"
         style="stop-color:#ffffff;stop-opacity:0.15686275;" />
      <stop
         id="stop4544"
         offset="0.936414"
         style="stop-color:#ffffff;stop-opacity:0.23529412;" />
      <stop
         style="stop-color:#ffffff;stop-opacity:0.39215687;"
         offset="1"
         id="stop4540" />
    </linearGradient>
    <radialGradient
       inkscape:collect="always"
       xlink:href="#linearGradient3688-166-749"
       id="radialGradient3132"
       gradientUnits="userSpaceOnUse"
       gradientTransform="matrix(2.003784,0,0,1.4,27.98813,-17.4)"
       cx="4.9929786"
       cy="43.5"
       fx="4.9929786"
       fy="43.5"
       r="2.5" />
    <linearGradient
       id="linearGradient3688-166-749">
      <stop
         id="stop2883"
         style="stop-color:#181818;stop-opacity:1"
         offset="0" />
      <stop
         id="stop2885"
         style="stop-color:#181818;stop-opacity:0"
         offset="1" />
    </linearGradient>
    <radialGradient
       inkscape:collect="always"
       xlink:href="#linearGradient3688-464-309"
       id="radialGradient3134"
       gradientUnits="userSpaceOnUse"
       gradientTransform="matrix(2.003784,0,0,1.4,-20.01187,-104.4)"
       cx="4.9929786"
       cy="43.5"
       fx="4.9929786"
       fy="43.5"
       r="2.5" />
    <linearGradient
       id="linearGradient3688-464-309">
      <stop
         id="stop2889"
         style="stop-color:#181818;stop-opacity:1"
         offset="0" />
      <stop
         id="stop2891"
         style="stop-color:#181818;stop-opacity:0"
         offset="1" />
    </linearGradient>
    <linearGradient
       inkscape:collect="always"
       xlink:href="#linearGradient3702-501-757"
       id="linearGradient3136"
       gradientUnits="userSpaceOnUse"
       x1="25.058096"
       y1="47.027729"
       x2="25.058096"
       y2="39.999443" />
    <linearGradient
       id="linearGradient3702-501-757">
      <stop
         id="stop2895"
         style="stop-color:#181818;stop-opacity:0"
         offset="0" />
      <stop
         id="stop2897"
         style="stop-color:#181818;stop-opacity:1"
         offset="0.5" />
      <stop
         id="stop2899"
         style="stop-color:#181818;stop-opacity:0"
         offset="1" />
    </linearGradient>
    <linearGradient
       inkscape:collect="always"
       xlink:href="#linearGradient4536"
       id="linearGradient4542"
       x1="16.243242"
       y1="1010.3351"
       x2="16.243242"
       y2="1028.3159"
       gradientUnits="userSpaceOnUse"
       gradientTransform="translate(-3,21.999951)" />
    <linearGradient
       inkscape:collect="always"
       xlink:href="#linearGradient3778"
       id="linearGradient3784"
       x1="6.8648648"
       y1="1050.0928"
       x2="6.8648648"
       y2="1030.5604"
       gradientUnits="userSpaceOnUse"
       gradientTransform="translate(-1,0.9999334)" />
    <radialGradient
       inkscape:collect="always"
       xlink:href="#linearGradient3786"
       id="radialGradient3792"
       cx="12.36035"
       cy="1035.101"
       fx="12.36035"
       fy="1035.101"
       r="10"
       gradientUnits="userSpaceOnUse"
       gradientTransform="matrix(-2.526659e-6,1.7241059,-1.3388163,-1.9620212e-6,1397.1704,1014.7922)" />
  </defs>
  <sodipodi:namedview
     id="base"
     pagecolor="#ffffff"
     bordercolor="#666666"
     borderopacity="1.0"
     inkscape:pageopacity="0.0"
     inkscape:pageshadow="2"
     inkscape:zoom="13.875"
     inkscape:cx="9.5328674"
     inkscape:cy="13.467026"
     inkscape:document-units="px"
     inkscape:current-layer="layer1"
     showgrid="false"
     inkscape:window-width="1280"
     inkscape:window-height="751"
     inkscape:window-x="0"
     inkscape:window-y="24"
     inkscape:window-maximized="1" />
  <metadata
     id="metadata3152">
    <rdf:RDF>
      <cc:Work
         rdf:about="">
        <dc:format>image/svg+xml</dc:format>
        <dc:type
           rdf:resource="http://purl.org/dc/dcmitype/StillImage" />
        <dc:title></dc:title>
      </cc:Work>
    </rdf:RDF>
  </metadata>
  <g
     inkscape:label="Livello 1"
     inkscape:groupmode="layer"
     id="layer1"
     transform="translate(0,-1030.3622)">
    <rect
       style="fill:url(#radialGradient3792);fill-opacity:1;stroke:url(#linearGradient3784);stroke-opacity:1"
       id="rect3163"
       width="19"
       height="19"
       x="1.4999999"
       y="1031.8622"
       rx="1.5"
       ry="1.5" />
    <path
       inkscape:connector-curvature="0"
       d="m 2.4736887,1032.4142 c -0.262422,0 -0.473688,0.226 -0.473688,0.5066 l 0,1.3933 0.177633,-0.2374 0.133223,0.06 0.266444,0 0.222044,-0.2376 0.266445,-0.1266 0.02961,-0.1742 -0.162831,-0.1583 -0.148023,-0.044 -0.08878,-0.2217 0.192434,-0.1266 0.296055,0.1741 0.103632,-0.1267 -0.162833,-0.094 0.340464,-0.475 -0.0296,-0.111 -0.962168,0 z m 3.108552,0 0,0.015 0.05922,0.094 0.074,-0.1109 -0.133222,0 z m 3.123356,0 -0.133222,0.2375 -0.04444,0.1267 0.251647,0.077 0.04444,-0.1741 0.074,-0.2375 0.05922,-0.03 -0.251647,0 z m 1.8355343,0 0,0.1264 0.296047,0.1268 -0.148024,0.1268 -0.310855,-0.1268 -0.133223,0.1268 -0.192434,-0.2376 -0.04444,0.076 0.222043,0.7125 0.04444,0.03 0.148031,-0.076 0.074,0.044 0,0.1265 -0.133222,-0.044 -0.08878,0.06 0.05922,0.1266 -0.04444,0.3326 -0.281254,0.03 -0.01478,-0.1109 0.162833,-0.093 0.02956,-0.301 -0.177633,-0.2533 -0.074,-0.4434 -0.281253,-0.06 -0.02957,0.1584 0.05922,0.075 -0.133223,0.1109 0.05922,0.3008 0.162829,0.075 0.04444,0.2218 -0.177629,-0.1267 -0.444081,-0.076 -0.05922,0.1584 -0.3552603,0.1267 -0.05922,-0.093 -0.473688,0.2849 0,0.1742 -0.192433,0.03 0.05922,-0.1267 0,-0.1426 -0.177633,-0.075 -0.118422,0.06 0.08878,0.2057 0.074,0.1268 0,0.1108 -0.133222,-0.03 -0.02961,-0.015 -0.133222,0.1582 0.074,0.1266 -0.310855,0 0.103631,0.1267 -0.02962,0.06 -0.162825,0 -0.118422,-0.076 -0.02957,-0.2532 -0.192439,-0.077 0,-0.095 0.399676,0.077 0.222035,0.03 0.08878,-0.1583 -0.08878,-0.1581 -0.577302,-0.2375 -0.207234,0.044 -0.074,0.06 0.02956,0.1424 0.08878,0.015 -0.02956,0.2376 0.266445,0.6653 -0.192434,0.3324 -0.01478,0.06 0.103632,0.077 -0.08878,0.06 -0.05922,0 0.01478,0.2851 0.074,0.1267 0,0.1107 0.103617,0.015 0.162831,0.06 0.1628321,0.2533 0.01478,0.06 -0.05922,0.095 0.118423,-0.015 0.11842,0.044 0.1776311,0.2375 0.3996719,0.044 -0.01478,0.3011 -0.14803,0.1268 0.02958,0.044 -0.133223,0.1585 -0.02959,0.1425 0.074,0.1268 0.266453,0.1108 0.103626,-0.076 0.7105332,0.2848 0.02956,-0.075 -0.1480242,-0.1426 0,-0.1898 -0.08878,-0.03 0.01478,-0.1584 0.148024,-0.19 -0.266448,-0.2056 0.02958,-0.2851 0.2812532,-0.2058 0.3256571,0.015 0.05922,0.111 0.3404569,0.015 0.236844,-0.1424 -0.118422,-0.1427 0.01478,-0.2851 0.65132,-0.3324 0.488487,0.2375 0.162828,-0.1585 0.488489,0.4908 0.370066,-0.03 0.133223,0.1267 0.340458,0.045 0.236842,-0.3325 0.296056,0.1426 0.148022,0.015 0.162835,-0.1425 -0.148029,-0.097 0.118423,-0.2058 0.340462,0.1268 0.074,0.1585 0.148025,0 0.08878,-0.06 0.251645,-0.015 0.02956,0.076 0.281252,0.015 0.192437,-0.2218 0.399668,0.044 0.118422,-0.044 0.02957,-0.2377 -0.118422,-0.2846 0.118422,-0.111 0.384869,0 0.355261,0.4592 0.458884,0.2849 0.133223,0 0.02957,-0.1266 0.162828,-0.1109 0.01478,0.6493 -0.148026,0 0,0.1583 0.08878,0.1109 -0.01478,0.1426 0.05922,0.03 0.02956,-0.095 0.05922,0.015 0.02961,0.03 0.17763,-0.03 0.162829,-0.5227 0.01479,-0.6331 -0.207237,-0.5225 -0.266447,-0.3483 -0.133224,0.03 0,0.1109 -0.310855,-0.1425 0.11842,-0.2693 0.103621,-0.7283 0.414474,-0.1426 0.207238,-0.1425 0.222039,0 -0.05921,0.075 0.05921,0.1111 0.192435,-0.222 0.103622,0 -0.0148,-0.1268 -0.17763,-0.029 0.118419,-0.4751 0.162831,-0.1585 0.05921,0.2375 0.133224,0.044 0.133223,-0.2221 -0.07401,-0.142 0.0296,-0.1268 0.192435,0 -0.04441,0.092 0.0148,0.3483 -0.281251,0.7442 0.0296,0.1583 -0.0148,0.2534 0.518093,0.8076 0.10362,0.03 0,-0.6494 0.10362,-0.1108 -0.10362,-0.2534 0.08881,-0.1108 -0.207237,-0.2851 -0.10362,0.015 -0.0296,-0.4749 0.281251,-0.075 0.0148,-0.1425 0.148026,-0.03 0.07401,0.075 0.10362,-0.4433 0.0296,-0.044 -8.481917,0 z m -2.0575693,0.475 0.01478,0.1741 -0.118423,0.03 0,0.075 0.074,0.1107 0.177632,0.015 0.08878,0.093 0.08878,0 0.04444,-0.1108 -0.133227,-0.1582 -0.05922,-0.206 -0.177631,-0.03 z m -5.521393,0.3324 -0.05922,0.044 0.02961,0.06 0.192433,0.096 0,-0.1584 -0.162832,-0.044 z m 3.71547,0.3168 -0.266446,0.03 -0.02961,0.1265 -0.05922,-0.03 -0.04444,-0.06 -0.118417,0 -0.01478,0.1426 -0.05922,0.03 -0.04444,-0.075 -0.26645,0.2375 0.05922,0.06 -0.103629,0.044 -0.22204,0.475 -0.08878,0.06 0.01478,0.044 0.074,0.044 -0.01478,0.075 -0.133222,0 -0.04444,-0.045 -0.08878,0.1109 -0.04444,0.03 -0.01478,0.1106 -0.04444,0.03 -0.133224,0.015 -0.05922,0.2059 0.04444,0.3324 0.04444,0.1585 0.05922,0.044 0.118422,0 0.177633,-0.1899 0.05922,-0.1109 0.02957,0.1741 0.103631,-0.2215 0.01478,-0.6017 0.08878,-0.06 0.02959,-0.3325 0.28125,-0.4275 0.133223,-0.044 0.05922,-0.075 0.207238,0.044 0.08878,0.06 0.04444,-0.1902 0.162829,-0.094 0.103609,0.1742 0.074,-0.044 -0.01478,-0.06 -0.04444,-0.03 0.01478,-0.077 0.02956,0 0,-0.044 -0.16283,-0.044 z m -0.01478,0.1741 -0.118421,0.097 -0.04444,0.2058 -0.133222,-0.075 -0.177634,-0.044 -0.04444,0.044 0.074,0.06 0.118421,0 0.103631,0.1742 0.01478,0.2692 0.08878,0.03 0.04444,0.093 -0.04444,0.06 -0.236839,0.285 -0.04444,0.1426 0.05922,0.2058 0.177632,0.1425 0.236839,-0.1267 0.192437,-0.029 0.177629,-0.3008 -0.133223,-0.3484 -0.118422,-0.3167 0.01478,-0.2058 -0.074,-0.015 -0.02957,-0.1583 -0.103621,-0.1901 z m 12.3602093,0.2059 0.0296,0.06 0.08882,0.06 0.0296,-0.029 -0.08881,-0.092 -0.05921,0 z m -12.8931083,0.044 -0.133222,0.044 -0.266446,0.4116 -0.02959,0.3483 -0.08878,0.044 -0.01478,0.6175 -0.133223,0.2375 0.162825,0.2851 0.04444,0.2058 0.074,0 0.05922,-0.1108 0.148028,-0.06 0,-0.3167 0.08878,-0.094 0.074,-0.093 0.01478,-0.076 -0.17763,-0.1424 0,-0.1743 0.08878,-0.1742 0.074,-0.015 0.133224,-0.1901 0,-0.1268 0.177632,-0.1424 -0.01478,-0.2534 -0.074,-0.1583 -0.133226,0 -0.074,-0.06 z m 13.1003453,0 0,0.06 0.118421,0.029 0,-0.044 -0.118421,-0.044 z m 0.592106,0.2375 0.04441,0.095 0.07401,-0.015 0.0148,-0.06 -0.133223,-0.015 z m -17.0970562,0.2059 -0.103632,0.06 -0.074,0.077 0,0.045 0.103632,0.015 0,0.075 -0.04444,0.044 0.01478,0.03 0.103632,0 0,0.1425 0.148023,0.015 0.103632,0.06 0.103626,0 0.177631,-0.095 0.133225,-0.19 0,-0.1267 -0.08878,-0.077 -0.05922,-0.06 -0.04444,0.03 -0.04444,0.06 -0.04444,-0.015 -0.05922,-0.06 -0.074,0.015 -0.08878,0.078 -0.074,0.075 -0.02956,-0.03 0,-0.076 0.02956,-0.03 -0.01478,-0.03 -0.074,-0.044 z m 14.3881712,0.2532 0,0.2375 0.281249,0.4751 0.103631,0.3958 0.177632,0.3642 0.07401,0.03 0.05921,-0.06 0.0296,-0.075 -0.266448,-0.3006 0.01479,-0.1584 0.05921,-0.015 0.0148,-0.092 -0.503291,-0.76 -0.04443,-0.029 z m 1.509871,0.3642 -0.04441,0.06 0.0148,0.094 0.0296,0 0.07401,-0.1425 -0.07401,-0.015 z m 0,0.2218 -0.07401,0.015 0,0.1583 0.04441,0.015 0.0296,-0.044 0,-0.1426 z m -3.315793,0.1107 -0.08878,0.092 0.11842,0.2694 -0.04444,0.269 -0.133223,0.06 -0.08878,-0.015 0,0.2533 0.08878,0.03 0.148024,-0.075 0.192433,0.1108 0,0.094 -0.148024,0 -0.103631,0.2691 -0.103632,0 -0.355258,0.5068 -0.384871,0.174 -0.25165,0.03 -0.177624,-0.1426 -0.236844,0.1426 -0.266446,-0.076 -0.074,-0.1901 -0.444081,-0.029 -0.236837,-0.4118 -0.103621,0 -0.08878,-0.1899 -0.08878,-0.015 -0.133223,0.3324 -0.162829,0 -0.192434,0.4274 0.162829,0.206 -0.325657,0.4749 -0.162831,-0.015 -0.118421,0.1425 0.0296,0.095 0.133223,0 0.05922,0.1583 0.133222,0.029 0.399672,0.5384 0,0.285 0.192435,0.1268 0.207237,-0.03 0.266447,0.1582 0.32566,0.094 0.148027,-0.015 0.177631,-0.015 0.370065,-0.2533 0.118421,0.015 0.04444,0.1109 0.103621,0.03 0.133224,0.2216 -0.08878,0.2217 0.05922,0.1425 0.148027,0.06 0.02959,0.1742 0.177633,0.015 0.02958,-0.076 0.26645,-0.1583 0.162826,0.015 0.192435,0.2218 0.133224,-0.044 0.08878,0 0.02956,0.1107 0.074,0.015 0.08878,-0.1427 0.370067,-0.1424 0.325657,-0.4275 0.103631,-0.4118 0,-0.2691 -0.14803,-0.03 0.08878,-0.096 -0.01478,-0.1583 -0.355259,-0.3799 0,-0.1742 0.103616,-0.1426 0.103622,-0.045 0,-0.1109 -0.251644,0 -0.04444,0.1426 -0.118422,-0.03 -0.148024,-0.1585 0.08878,-0.269 0.133223,-0.1425 0.118422,0.015 -0.01478,0.2217 0.05922,0.06 0.148026,-0.174 0.05922,0 -0.01478,-0.1427 0.14803,-0.1742 0.103616,0 0.074,-0.2215 0.074,-0.03 0,-0.1424 -0.074,-0.076 0,-0.2058 0.133227,-0.015 0,-0.5541 -0.10363,0.06 -0.02961,0.1426 -0.162824,0 -0.488489,-0.2852 -0.340461,-0.4432 -0.355261,-0.015 z m -8.6447452,0.1109 -0.133224,0.096 0,0.06 0.074,0.075 0.266446,0.044 0,-0.2692 -0.207235,-0.015 z m -2.4572461,0.1741 -0.1480229,0.1108 -0.08878,0.3009 0.08878,-0.015 -0.01478,0.1742 0.04444,0.044 0.133224,0 0.01478,0.2217 -0.103632,0.015 -0.01478,0.1267 -0.08878,0.1267 0.133223,0.015 0.04444,0.03 -0.281253,0.1582 0.103622,0.044 0.281251,-0.1265 0.177631,0.015 0.08878,-0.044 0.04444,-0.044 -0.04444,-0.03 0,-0.044 0.074,-0.029 0,-0.075 -0.04444,-0.097 -0.103632,-0.044 -0.074,-0.1581 -0.074,-0.1741 -0.0296,-0.1587 0.0296,-0.06 0,-0.06 -0.148032,0 -0.02957,-0.044 0.074,-0.111 -0.04444,-0.044 z m 2.2056011,0 -0.04444,0.03 0.02956,0.03 0.05922,0 0.02961,-0.03 -0.02961,-0.03 -0.04444,0 z m -0.251644,0.099 -0.074,0.06 0.02958,0.094 0.074,-0.06 -0.02957,-0.092 z m 0.458879,0 0.01478,0.1583 0.222044,0.1427 0.1036259,-0.03 -0.01478,-0.111 -0.074,-0.1107 -0.251645,-0.044 z m -1.258223,0.044 -0.148029,0.19 0,0.1107 0.05922,0.1902 0.1184201,-0.015 -0.01478,-0.1582 0.074,-0.097 0,-0.06 -0.05922,-0.1423 -0.02957,-0.015 z m 1.03618,0 -0.08878,0.1267 0,0.06 0.02956,0.015 0.05922,0 0.103631,-0.092 0.01478,-0.029 -0.05922,-0.06 -0.05922,-0.015 z m 4.1447462,0.03 -0.621711,0.3327 -0.01478,0.2215 0.148023,0.1901 -0.281249,0.1583 -0.3700639,0 -0.074,-0.1265 -0.2812501,-0.015 -0.2812512,0.1901 0,0.2532 0.2516472,0.2218 0.148026,-0.077 0.1628281,0 0.01478,0.2693 -0.103632,0 -0.074,0.1424 0.1036171,0.1742 0.1480299,0.075 0.01478,0.097 0.04444,-0.015 0.05922,-0.06 0.074,0.015 0.04444,0.096 0.1036279,0 0,-0.111 -0.074,-0.2056 -0.02956,-0.1586 0.192434,-0.076 0.251645,0.029 0.148027,0.1742 0.355262,-0.03 0.192433,0.2848 0.236846,0.015 0.05922,-0.1109 0.074,-0.015 0.01478,-0.1266 0.11842,0 0.074,0.076 0.05922,-0.1586 0.547697,0.075 0.08878,-0.1266 -0.148025,-0.2059 0.207236,-0.4909 0.162831,0.015 0.11842,-0.3006 -0.236842,-0.03 -0.133223,-0.1267 -0.355264,0.044 -0.473683,-0.4909 -0.16283,0.1584 -0.503291,-0.2535 z m 7.963824,0.06 -0.07401,0.044 -0.04441,0.097 0,0.06 0.05921,-0.03 0.05921,-0.1266 0,-0.045 z m -11.9753412,0.03 -0.103602,0.1108 -0.08878,0 0,0.1423 -0.05922,0.1111 0.207236,0 0.04444,-0.015 0.05922,0.075 0.133224,-0.015 0.11842,-0.1583 0,-0.1109 -0.236842,-0.1424 -0.074,0 z m 6.8388232,0.015 -0.103632,0.1426 0.148032,0.1109 -0.207245,0.2059 -0.177629,-0.045 -0.251646,-0.1267 -0.222037,0.3009 0.05922,0.1583 0.118422,0 0.236843,0.4276 0.458882,0.03 0.05922,0.1898 0.236844,0.075 0.251645,-0.1426 0.192433,0.1426 0.236843,-0.03 0.35526,-0.1743 0.370066,-0.4908 0.08878,-0.015 0.118417,-0.2693 0.118422,0 0,-0.044 -0.162825,-0.076 -0.148031,0.06 -0.118421,-0.015 0.01478,-0.3007 -0.281254,-0.03 -0.192435,0.2217 -0.325656,-0.015 -0.02961,-0.075 -0.192433,0 -0.103616,0.075 -0.177633,0 -0.08878,-0.1742 -0.281248,-0.1109 z m -6.3947442,0.111 -0.103622,0.03 0,0.1109 -0.133223,0.19 -0.133223,0 0.05922,0.095 -0.02957,0.075 0,0.044 0.02957,0.075 0.103616,-0.06 0.1480299,0 0.103616,0.044 0.236843,0 0.074,-0.1899 0.04444,-0.077 0,-0.029 -0.148024,-0.2375 -0.14803,-0.06 -0.103617,-0.015 z m -1.465465,0.06 -0.04444,0.044 0,0.06 0.103631,0.015 0,-0.075 -0.02957,-0.044 -0.02961,0 z m 12.7894892,0.029 -0.103619,0.1582 0.0148,0.06 0.04441,-0.015 0.118421,-0.1582 -0.07401,-0.044 z m -14.4769932,0.044 -0.05922,0.1423 -0.133222,0 0,0.1268 0.0296,0.076 -0.148032,0.111 0,0.03 0.074,0.044 0.08878,0 0.296049,-0.1108 0.02959,-0.2376 -0.08878,0.03 -0.103626,-0.094 0.01478,-0.1266 z m 0.148033,0 -0.118422,0.015 -0.01478,0.1109 0.08878,0.06 0.074,-0.03 0.04444,-0.06 -0.074,-0.092 z m 2.220393,0.03 -0.074,0.015 -0.162832,0.06 -0.133223,0.1108 0.01478,0.2693 0.05922,0.1107 0.177632,0.094 0.162832,0.1267 0.103632,0.029 0.103625,-0.029 0.02962,0 0.074,0.029 0.04444,-0.029 0.05922,-0.1109 0.01478,-0.06 0,-0.076 -0.02958,-0.044 -0.01478,-0.077 -0.01478,-0.095 0.02959,-0.06 -0.103631,-0.1743 -0.074,0.015 -0.281252,-0.015 -0.01478,-0.015 0.02958,-0.06 z m 11.5756722,0.044 -0.05921,0.045 0.02961,0.1108 0.05921,0.044 -0.0148,0.1742 -0.05921,0.03 -0.04441,0.1109 0.148026,0.2216 0.08881,-0.029 0.0148,-0.06 -0.10362,-0.096 0.05921,-0.076 0.07401,0 0.04441,0.06 0.0148,-0.1267 0.133224,-0.1265 0.08881,-0.015 -0.07401,-0.1266 -0.0296,-0.045 -0.04441,0.029 -0.04441,0.06 -0.10362,-0.015 -0.103619,-0.075 -0.07401,-0.095 z m -12.3602082,0.029 -0.118421,0.015 0,0.095 -0.133224,0.03 0.04444,0.2374 -0.103605,0.044 -0.01478,0.1267 0.074,0.098 -0.01478,0.092 0.103626,0.06 0,0.1265 0.118422,0.03 0.02958,0.075 0.05922,0 0.04444,-0.06 0.118421,-0.015 0.148029,-0.06 0.01478,-0.077 -0.16283,-0.1583 -0.01478,-0.029 0.177631,-0.1107 0.10363,-0.015 -0.074,-0.1103 -0.01478,-0.2692 -0.074,-0.076 -0.08878,-0.03 -0.103632,0.045 -0.05922,0 -0.05922,-0.06 z m -0.281252,0.1584 -0.162833,0.075 0.02959,0.03 0,0.093 -0.02959,-0.015 -0.04444,-0.06 -0.08878,0.1583 0.148032,0.03 0.04444,0.06 0.02958,0 0.01478,-0.1425 0.08878,-0.029 -0.02956,-0.2058 z m 2.220398,0.06 -0.05922,0.1742 -0.281254,0 -0.08878,-0.044 -0.133223,0 -0.103632,0.06 0.02956,0.1108 -0.103606,0.2218 0,0.093 0.04444,0.03 0.296051,0.015 0.08878,-0.06 0.08878,0.029 0.118422,0.1741 -0.08878,0.1743 0.103631,0.044 0.148031,-0.1899 0.08878,0.015 0.074,0.06 -0.074,0.094 0.103632,0.1584 0.08878,0 0.04444,-0.1107 0.103616,-0.015 0.01478,-0.075 -0.192438,-0.03 0,-0.095 0.192438,0 0.192436,-0.1743 0.08878,-0.075 0.01478,-0.2692 -0.399669,-0.03 -0.148031,-0.2375 -0.11842,-0.044 -0.133225,0 z m -2.531255,0.2532 -0.02957,0.06 0.251646,0.1741 0.074,0.015 0,-0.075 -0.05922,-0.076 -0.0296,0 -0.05922,-0.06 -0.148026,-0.029 z m 1.080591,0.044 -0.103606,0.015 -0.14803,0.1108 0.14803,0.1583 0.103606,0 0.05922,0 0.08878,0.06 0.162824,-0.1426 -0.162824,-0.1267 -0.148032,-0.075 z m -1.125002,0.029 -0.074,0.03 -0.162824,0.1901 -0.05922,0 -0.05922,-0.044 -0.04444,0 -0.0296,0.1107 -0.236839,0.015 0.01478,0.044 0.148025,0.111 0.192434,0.1583 0,0.2059 -0.1036151,0.1742 0.2220351,0.1109 0.222043,0.015 0.05922,-0.078 0.133222,0 0.04444,0.03 0.148023,0 0.05922,-0.1108 -0.08878,-0.1107 0,-0.06 0.01478,-0.076 -0.04444,-0.075 -0.074,0.03 -0.01478,-0.06 0.177632,-0.2058 0,-0.1267 -0.118421,-0.06 -0.05922,-0.015 -0.266454,-0.1899 z m 11.9605442,0.075 -0.05922,0.03 -0.05922,0.2215 -0.118422,0 -0.133223,0.1585 0.01478,0.1266 0.074,0.029 0.01478,0.2376 0.133224,0.015 0.133229,-0.1582 -0.04444,-0.044 0,-0.1581 0.118422,-0.1585 -0.05922,-0.1107 0.02957,-0.044 0.02961,-0.111 -0.074,-0.03 z m -10.5098782,0.1108 -0.162832,0.1426 0.02956,0.03 0,0.029 0.281254,0 0.207233,-0.095 0,-0.094 -0.04444,0.015 -0.05922,-0.03 -0.02957,0 -0.08878,0.03 -0.133223,-0.03 z m 11.7236942,0 -0.08881,0.111 0,0.092 0.04441,0.06 0.0148,0.2377 -0.118421,0.1425 -0.05921,-0.029 -0.04441,0.1108 -0.0148,0.1109 0.04441,0.06 -0.0296,0.044 -0.07401,-0.075 -0.05921,0 -0.05921,0.03 -0.0296,0.015 -0.177633,0.2218 0.02958,0.044 0.0888,0.015 0.162828,-0.1425 0.118422,-0.015 0.103617,0.1267 0.07401,-0.03 0.02961,-0.1266 0.148026,0 0.148027,-0.19 -0.07401,-0.3168 -0.0296,-0.1582 0.07401,-0.06 -0.177632,-0.285 -0.04441,0 z m -12.1381702,0.075 -0.01478,0.092 -0.162832,0.076 -0.118422,0.015 -0.02957,0.045 0.02957,0.03 0.074,-0.015 0.074,0 0.08878,0.077 0.162824,-0.045 0.118422,-0.06 0.02961,-0.06 0,-0.06 -0.118422,-0.093 -0.133223,0 z m 1.22862,0.03 -0.05922,0.06 0.103616,0.1742 0,0.1108 0.04444,0 0.08878,-0.1743 -0.118416,-0.1582 -0.05922,-0.015 z m -0.444081,0.015 -0.207239,0.1109 -0.281246,0 -0.04444,0.076 0,0.1107 0.074,0.03 0.207235,0 0.281254,-0.2534 0,-0.06 -0.02961,-0.015 z m 0.074,0.03 -0.01478,0.06 -0.207238,0.1899 0.177633,0.2693 0.103632,0.094 0.207235,0 0.074,-0.06 0.08878,-0.015 0.05922,0.045 0.118422,-0.1424 -0.01478,-0.077 -0.118421,-0.03 -0.08878,0 0,-0.1265 -0.103632,-0.1901 -0.281246,-0.015 z m -1.435856,0.077 -0.162832,0.1742 0,0.015 0.074,-0.015 0.05922,0.075 0.08878,-0.03 0.074,0.06 0.02956,-0.015 0.08878,-0.1424 -0.02957,-0.029 -0.074,0 -0.04444,-0.096 -0.103621,0 z m 0.799337,0.094 -0.08878,0.06 -0.177633,0.03 0.02961,0.1108 0.118422,0 0.118421,-0.093 0,-0.1109 z m -0.444078,0.029 -0.08878,0.015 -0.074,0.1266 -0.05922,0.045 -0.074,-0.06 -0.08878,0.029 -0.01478,0.06 0,0.06 0.08878,0.1107 0.133225,0 0.310854,0.3801 0.192434,0.06 0.103619,0.1109 0.02959,0.2533 0.05922,-0.029 0.04444,-0.1425 0,-0.1109 0.08878,0 0,-0.06 -0.2368441,-0.1267 -0.2368409,-0.2532 -0.103618,-0.1425 -0.01478,-0.1424 0.11842,-0.029 -0.02958,-0.095 -0.074,-0.06 -0.074,0 z m 4.2631672,0.03 -0.162832,0.06 0.103632,0.3326 0,0.1266 0.05922,0 0.08878,-0.1744 0.222042,0 0.04444,0.1268 0.488488,0.3483 0.177632,0.044 0.05922,0.1267 0.103624,0 0,-0.2058 -0.103624,-0.06 0.177635,-0.2374 0.074,0 0.074,0.093 0.192434,-0.075 -0.266447,-0.1108 -0.01478,-0.044 -0.05922,0.015 -0.05922,0.1108 -0.266449,-0.015 -0.192439,-0.2848 -0.340458,0.029 -0.162831,-0.1742 -0.236838,-0.03 z m -3.4342152,0.03 -0.074,0.06 -0.02958,0 -0.02958,0.076 0.08878,0.1107 0.01478,0.094 -0.118422,0.1584 0.01478,0.044 0.05922,0.015 0.05922,-0.06 0.02961,0 0.04444,0.044 0.133223,-0.044 -0.01478,-0.2218 -0.177632,-0.285 z m -0.355265,0.029 -0.133223,0.111 -0.133223,0 -0.01478,0.096 0.05922,0.015 0.0296,-0.044 0.05922,0.044 0.02956,0.1424 0.251646,0.1267 0.0296,-0.03 -0.251644,-0.2851 0.01478,-0.044 0.251645,-0.015 0.02956,-0.077 -0.1628251,0 -0.05922,-0.03 z m 5.3881632,0.077 -0.074,0.1742 -0.08878,-0.098 -0.074,0 -0.01478,0.098 0.01478,0.06 0.310854,0.1109 -0.26645,0.1266 -0.04444,-0.03 -0.05922,0.044 0.01478,0.015 0.02956,0.015 0.192434,0 0.103621,-0.03 0.118422,-0.1584 0.162825,0.015 0.192433,-0.2851 -0.518089,-0.06 z m 5.299347,0.029 -0.118422,0.158 0.05922,0.03 0,0.044 -0.04444,0.03 0.04444,0.1109 0.103632,0.2533 0.103615,0 0.103632,-0.1424 0.01478,-0.096 -0.04444,-0.1898 -0.222038,-0.2058 z m -10.7171192,0.03 -0.01478,0.03 0.236845,0.2692 0.103632,-0.1425 -0.01478,-0.06 -0.074,-0.092 -0.236842,0 z m 1.050988,0.1267 -0.074,0.015 -0.04444,0.06 -0.236836,0 -0.08878,-0.06 0,0.1903 0.05922,0.1425 0.2368449,0 0.1036321,-0.075 0.103616,-0.044 -0.02956,-0.1267 0.02956,-0.06 -0.05922,-0.029 z m 1.258224,0.015 -0.103616,0.06 0.118422,0.1741 0.162824,0.06 0.08878,0 0.148024,-0.044 0.04444,-0.06 -0.458889,-0.1902 z m 1.6134912,0.03 -0.074,0.1742 -0.08878,0 -0.148029,0 -0.01478,0.092 -0.1628259,0 0,0.1426 0.1628259,0.1108 -0.04444,0.1582 0,0.075 0.074,0 0.08878,-0.1266 0.192433,-0.044 0.429278,0.1741 0.01478,0.1267 0.236844,0.03 0.266447,-0.3013 -0.02956,-0.092 -0.177633,-0.045 -0.503289,-0.3484 -0.0296,-0.1265 -0.192434,0 z m -6.1727072,0.015 -0.05922,0.015 -0.04444,0.1109 0.01478,0.1266 0.177634,0.015 0.02956,0.076 -0.08878,0.4751 0.01478,0.075 0.118422,0.076 0.148024,0 0.296056,-0.06 0.133224,-0.2058 0,-0.1898 0.251644,-0.2377 0.01478,-0.1108 -0.222038,0 -0.236843,-0.1268 -0.458884,0 -0.08878,-0.044 z m 1.628296,0.1267 -0.074,0.075 0,0.06 0.05922,0.044 0.01478,-0.015 0.01478,-0.093 -0.01478,-0.075 z m 5.7138222,0 -0.148025,0.1899 0.08878,0.076 0,0.2057 0.05922,0 0.08878,-0.03 0,-0.06 0.103631,-0.098 0.074,0.078 0,0.1265 0.08878,0 0.01478,-0.094 0.08878,-0.015 0.05922,0 0.02958,0.06 0.02956,0 0.01478,-0.045 -0.05922,-0.1425 -0.133225,-0.015 -0.02957,-0.075 -0.02957,0 -0.074,0.029 -0.207238,-0.015 -0.05922,-0.03 0,-0.045 0.074,-0.06 -0.01478,-0.03 -0.05922,0 z m -2.2944122,0.03 -0.04444,0.06 0.1776319,0.2375 0.05922,-0.015 0.1036313,0.1109 0.04444,-0.1901 0.1036281,0.015 -0.01478,-0.06 -0.1628264,-0.1582 -0.04444,0.093 -0.2220435,-0.093 z m -2.412828,0.015 -0.04444,0.06 0,0.1742 0.04444,0.1112 0.02957,-0.015 0.05922,-0.1106 -0.02957,-0.044 -0.01478,-0.1426 -0.04444,-0.03 z m 0.207235,0 -0.133222,0.03 0.01478,0.1108 0.02956,0.044 0.133224,-0.076 -0.04444,-0.1109 z m 1.006579,0 -0.207234,0.1585 -0.192435,0 -0.01478,0.1266 -0.207238,0 -0.08878,0.075 0,0.044 0.05922,0.044 0,0.044 -0.0296,0.06 0.0296,0.045 0.05922,-0.029 0.074,0.076 -0.01478,0.045 -0.02961,0.03 0.02961,0.044 0.192435,0.044 0.133223,-0.06 0,-0.076 0.074,0.015 0.148027,0.097 0.162828,-0.03 0.074,-0.077 0.04444,0.015 0,0.1002 0.074,0 0.04444,-0.1268 0.488487,-0.044 0.222041,-0.029 -0.05922,-0.075 0,-0.1109 0.04444,-0.045 -0.162828,-0.1424 0.01478,-0.1109 -0.08878,0 -0.148028,-0.06 -0.074,0.075 -0.296053,0 -0.177631,-0.1108 -0.177631,-0.015 z m -0.473688,0.015 -0.103626,0.045 0,0.1428 0.118421,-0.044 0.04444,-0.03 -0.01478,-0.06 -0.04444,-0.045 z m 1.613491,0.045 -0.148025,0.044 -0.01478,0.094 0.162826,0.1427 0.118422,0.03 0.05922,-0.06 -0.177633,-0.2534 z m -1.746714,0.015 -0.074,0.06 -0.251645,-0.015 -0.148023,0.097 -0.08878,0.1424 0,0.06 0.162829,0.075 0.08878,0.03 -0.04444,0.044 -0.08878,0.015 -0.01478,0.045 0.02956,0.075 0.103631,0.06 0.04444,0 0,-0.1424 0.074,-0.076 -0.192434,-0.2374 0.02957,-0.076 0.04444,0 0.074,0.044 0.04444,-0.015 0,-0.08 0.207238,0 0,-0.1264 z m -3.330595,0.044 -0.01478,0.3327 -0.074,0.06 0.01478,0.03 0.04444,0.075 -0.02958,0.1108 0.04444,0.015 0.118422,-0.015 -0.01478,-0.092 0.074,-0.4589 -0.01478,-0.06 -0.148028,0 z m 13.9144912,0.06 -0.103625,0.1107 0,0.1108 0.02959,0.03 0.133226,-0.1267 -0.0148,-0.1107 -0.04442,-0.015 z m -12.2121863,0.015 -0.08878,0.044 0.01478,0.2063 0.074,0.015 0.05922,-0.06 0,-0.1898 -0.05922,-0.015 z m 5.9210633,0.06 -0.074,0.076 0,0.06 -0.118422,0.044 -0.207236,0 -0.281253,0.3012 -0.251645,-0.015 0.05922,0.475 0.148028,0.03 0.01478,0.094 -0.103632,0.092 0.192433,0.1584 0.370069,-0.1427 0.02958,-0.1742 0.236844,-0.1581 0.08878,-0.3642 0.074,-0.076 -0.074,-0.1267 0.236841,-0.1424 -0.02957,-0.045 -0.11842,0 0,0.1109 -0.148025,0 0,-0.1423 -0.04444,-0.06 z m -2.294414,0.03 -0.04444,0.015 -0.074,0.092 -0.148026,-0.03 -0.04444,0.045 0.01478,0.075 0.04444,0.092 0.207238,0.2219 -0.02958,0.097 -0.04444,0 -0.01478,0.096 0.118422,0.1424 0.103632,0.015 0.2072341,0.3008 0.103632,0.015 0.1036059,0.06 0,0.1425 0.355264,0.2217 0.133223,0 0.074,-0.076 0.103621,0 0.05922,0.1428 0.384868,0.06 0.01478,-0.1583 0.133222,-0.044 0,-0.044 -0.103616,-0.1581 -0.222042,-0.1903 0.118422,-0.1109 -0.01478,-0.044 -0.148024,-0.03 -0.05922,-0.5384 0,-0.111 -0.414477,-0.1738 -0.177633,0.044 -0.08878,0.1267 -0.08878,0 -0.02959,0.015 -0.1924329,-0.015 -0.2516451,-0.1898 -0.08878,-0.1108 z m 8.274683,0.015 -0.05922,0.06 0.01479,0.092 0.05922,0 0.02958,0.2062 0.04443,0.045 0.07401,-0.075 0.02961,-0.1266 -0.0888,-0.1426 -0.103619,-0.06 z m -12.4934342,0.03 -0.05922,0.029 0.01478,0.044 0.074,0 0.04444,-0.029 -0.074,-0.044 z m 6.9424402,0.015 -0.04444,0.06 -0.02958,0 -0.207242,0.142 0.05922,0.1267 -0.074,0.08 -0.08878,0.3801 -0.236842,0.1579 -0.02958,0.1744 -0.384872,0.1427 0.103629,0.1423 -0.01478,0.076 -0.118422,0.06 -0.01478,0.1267 0.148027,0 0.04444,-0.044 0.281254,0 0.251646,0.2378 0.02956,-0.1111 0.177633,0 0,-0.1422 -0.177633,-0.2063 0.02958,-0.093 0.207238,-0.015 0.251644,-0.5859 -0.148028,-0.1266 -0.04444,-0.2057 0.355261,-0.03 -0.207236,-0.3164 -0.118421,-0.03 z m -5.8618492,0.1905 -0.177633,0.03 0.01478,0.045 0.162832,0.077 0.01478,0.03 0.04444,0.015 0,-0.1744 -0.05922,-0.029 z m -3.774672,0.075 -0.01478,0.044 0.02959,0.03 0.074,-0.044 -0.08878,-0.03 z m 6.661187,0 -0.207236,0.03 -0.05922,0.3005 -0.236844,0.2057 0.01478,0.099 0.2368441,0.015 0.3700669,0.3163 0.2072362,0 0,-0.075 0.074,-0.075 0.1036081,0.06 0.01478,-0.015 -0.1924351,-0.2852 -0.1036181,-0.015 -0.133226,-0.1744 0.02959,-0.1267 0.04444,0 0.01478,-0.06 -0.177633,-0.1906 z m -3.271383,0.03 -0.192433,0.075 0.05922,0.2849 -0.074,0.045 0.01478,0.1266 0.133223,0.1424 0,0.1426 0.02956,0.044 0.05922,-0.015 0,-0.1423 0.04444,0 0.103632,-0.1742 -0.133222,-0.06 0,-0.03 0.02957,-0.06 0,-0.1422 -0.02957,-0.015 0,-0.075 0.02957,-0.044 0,-0.044 -0.074,-0.044 z m 3.034538,0 -0.45888,0.044 -0.05922,0.1108 -0.08878,0 -0.01478,0.1001 0.103616,0.045 0,0.2694 0.103631,0 0.08878,-0.075 0.04444,-0.015 0.236844,-0.1904 0.04444,-0.2845 z m -3.419405,0.03 -0.621712,0.1267 -0.133222,0.1109 0.08878,0.4595 -0.251646,0.015 -0.148023,0.2532 -0.355267,0.076 0,0.1899 1.169414,0.95 0.192434,0.015 0.666114,-0.5543 -0.074,-0.076 -0.1184211,-0.015 -0.074,-0.1424 0,-0.5545 -0.04444,-0.045 0,-0.1428 -0.133224,-0.1426 -0.01478,-0.1583 0.05922,-0.029 -0.02957,-0.1746 -0.02961,-0.092 -0.148024,-0.06 z m 6.9720422,0.044 -0.340458,0.029 0.04444,0.1582 0.162825,0.1427 -0.281247,0.6175 -0.192434,0.015 -0.02961,0.06 0.192433,0.19 -0.01478,0.1902 -0.192433,-0.015 -0.01478,0.092 0.148025,0 0.01478,0.06 -0.118421,0.06 0.074,0.1586 0.133223,0.044 0.08878,-0.077 0.04444,-0.1108 0.04444,-0.029 0.05922,0.06 -0.01478,0.1582 -0.04444,0.076 0.01478,0.1267 0.592103,1.33 0.177633,-0.095 0.08878,-0.38 0,-0.4751 0.577305,-0.6492 0,-0.1583 0.103606,-0.045 0,-0.19 -0.118416,-0.2534 0.074,-0.1427 0.148023,0.1585 0.207234,0 0,0.099 -0.05922,0.06 0.01478,0.044 0.103628,0 0.01478,0.1268 0.04444,0 0.074,-0.1426 0.04444,-0.4116 0.133223,-0.1108 0,-0.1426 -0.04444,-0.1108 -0.08878,0 -0.340457,0.2374 0.02956,0.1585 -0.236844,0 -0.08878,-0.1108 -0.04444,0 0.01478,0.1582 -0.503291,-0.044 -0.325656,-0.1424 -0.01478,-0.1902 -0.207237,-0.1425 0,-0.2849 -0.14803,-0.1743 z m -4.2927622,0.1107 -0.103632,0.044 -0.103632,0.015 0,0.06 0.04444,0.03 0.074,0.015 0.133224,-0.1426 -0.04444,-0.029 z m -1.850334,0.015 -0.05922,0.015 0,0.06 0.05922,0.03 0.02956,-0.03 -0.02956,-0.076 z m 0.888156,0 -0.02956,0.044 0.04444,0.015 0.02958,0.044 0.162831,0 0.04444,-0.06 -0.02959,-0.015 -0.04444,0.015 -0.08878,0 -0.02958,-0.044 -0.05922,0 z m -2.916116,0.076 -0.08878,0.19 -0.192434,0.096 -0.148023,0.4591 -0.310855,0.1899 -0.429278,0.7601 0.414477,-0.015 0.01478,-0.2217 0.118422,0 0,-0.3008 0.370066,0 0,-0.3958 0.355259,-0.077 0.162832,-0.2532 0.22204,-0.015 -0.074,-0.412 -0.41447,0 z m 3.996713,0 0,0.075 -0.0296,0.1109 0.103632,0.015 0,-0.1742 -0.074,-0.03 z m -5.0477031,0.1583 -0.04444,0.044 0.04444,0.044 0.05922,-0.03 -0.05922,-0.06 z m 5.0032951,0.06 -0.04444,0.19 0.074,0.2375 0.074,-0.3483 0,-0.06 -0.103626,-0.015 z m 0.355265,0.015 -0.1036321,0.075 -0.1184219,0.015 -0.08878,0.3323 0,0.044 0.133223,0 0.162824,-0.1583 0,-0.045 -0.05922,-0.077 0.118422,-0.094 -0.01478,-0.092 -0.02956,0 z m -2.516454,0.015 -0.1184211,0.2058 -0.02957,0 -0.01478,0.1426 -0.05922,0 0,0.5382 0.05922,0.1268 0.133222,0.015 0.074,0.1107 0.310855,0.075 0.074,-0.044 0.754934,0.4116 0.118422,0.015 -0.01478,-1.4409 -0.162831,-0.03 -0.08878,-0.111 -0.207235,0 -0.103612,0.095 0,0.045 0.05922,0.06 0.01478,0.06 -0.148024,0.076 -0.281252,-0.1424 -0.074,-0.1267 -0.29605,-0.093 z m 2.590467,0.092 -0.103632,0.095 0.04444,0.044 0,0.075 -0.177633,0.1741 -0.148024,0 0.02957,0.1109 0.503288,0.6491 0,0.1741 0.04444,0.075 0.133223,0.076 0.207236,0.3484 0.148032,-0.1426 0.2368363,0.1584 0.207242,-0.206 0.3700659,-0.1267 0.266445,-0.1582 0.04444,-0.2217 -0.04444,-0.015 -0.399669,-0.029 -0.02963,-0.1742 -0.08878,-0.076 -0.2516449,-0.3798 -0.1776331,-0.06 -0.01478,-0.06 -0.2220432,0.015 -0.370068,-0.3326 -0.207234,-0.015 z m 4.3519732,0 -0.17763,0.044 0.01478,0.1584 0.296048,0.1425 0.473688,0.044 -0.01478,-0.1267 -0.325657,-0.094 -0.266453,-0.1742 z m -5.1365172,0.029 -0.118422,0.093 -0.08878,0 -0.192433,-0.06 -0.08878,0 0.01478,1.1719 0.932567,0.015 0.103616,-0.1267 -0.01478,-0.19 -0.340458,-0.4591 -0.04444,-0.1425 0.01478,-0.095 0.05922,0.015 0.074,0.2532 0.05922,0.03 0.02956,-0.03 -0.01478,-0.1108 -0.02956,-0.076 -0.074,-0.2375 -0.01478,0 -0.11842,0 -0.103632,-0.044 -0.04444,0 z m 6.6019842,0.075 0,0.1584 -0.133222,0.093 -0.04444,0.4117 -0.08878,0.1584 -0.01478,0.19 -0.05922,0.03 0.251647,0.2534 0.05922,0.1267 0.02962,0.1582 0.02956,0.045 0.08878,0 0.05922,-0.1266 0.02957,-0.044 0.103631,0.2057 0.01478,0.2217 0.05922,0.015 0.074,0.1424 -0.074,0.111 0.103627,0.1741 0.02959,-0.092 0,-0.2218 -0.133223,-0.2216 -0.01478,-0.044 0.04444,-0.045 0,-0.1425 -0.192434,-0.2693 0.02959,-0.1741 0.251645,-0.1109 0.05922,-0.1107 -0.207243,-0.03 -0.02956,-0.1902 -0.148024,-0.06 -0.05922,-0.1583 0.08878,-0.2217 -0.133222,-0.1899 -0.074,-0.03 z m -4.929282,0.06 -0.05922,0.06 0,0.1266 0.1332221,0.044 0,-0.1901 -0.074,-0.044 z m 4.396384,0.06 -0.222035,0.029 0.04444,0.075 0.192434,0 -0.01478,-0.1109 z m 3.138161,0.029 -0.133226,0.1109 0,0.2056 0.103622,0.1268 0.02956,-0.015 0,-0.4275 z m -13.9884982,0.1582 -0.05922,0.044 0.074,0.06 0.04444,-0.094 -0.05922,-0.015 z m 10.6283022,0.03 -0.04444,0.1001 0.118421,0.2532 0,0.1903 0.02957,0.044 0.14803,0.015 0.074,-0.096 0.05922,0.044 0.01478,0.111 0.05922,-0.029 0,-0.1427 -0.04444,-0.015 -0.02957,-0.1266 -0.103631,0 -0.01478,-0.075 0.05922,-0.076 0,-0.044 -0.177633,0 -0.148026,-0.1424 z m -10.2138352,0.015 -0.074,0.045 0.02962,0.03 0.04444,-0.075 z m -0.236842,0.015 -0.074,0.015 0.04444,0.06 0.05922,0 -0.02957,-0.076 z m 6.7500102,0.1582 -0.05922,0.044 -0.01478,0.1426 0.05922,0.044 0.04444,0 0.01478,-0.19 -0.04444,-0.044 z m 0.503294,0.015 -0.118421,0.03 -0.133224,0.2059 -0.251649,0.015 0.0296,0.1425 0.355266,0.03 0.02956,-0.2851 0.05922,-0.03 0.02956,-0.111 z m -6.4687622,0.015 0,0.1585 -0.370067,0 0,0.3007 -0.118422,0 -0.01478,0.2217 -0.444078,0.015 0.074,0.1108 -0.01478,0.4751 0.118422,-0.076 0.08878,-0.015 0.118422,0.03 0.118422,0.2058 0.133222,-0.095 0.606912,0 -0.148031,-1.0766 0.148031,0 -0.296056,-0.2534 z m 11.2796232,0.06 -0.133229,0.077 0.04444,0.1897 0.177633,0.03 0.04444,0.1425 -0.05922,0.045 0,0.03 0.429276,0.4434 0.01478,0.1267 -0.02959,0.3957 -0.29605,0.2377 0.04444,0.06 0.01478,0.075 0.103628,0.015 0.148028,-0.19 0.133225,-0.044 0.05922,-0.1898 -0.02959,-0.3328 -0.133225,-0.2058 -0.148024,-0.111 -0.177633,-0.3323 0.133223,-0.2377 -0.192434,-0.2216 -0.148024,-0.015 z m -4.825668,0.06 -0.05922,0.029 -0.01478,0.2532 0.05922,0.03 -0.04444,0.2533 -0.281247,0.1585 0.148024,0.2691 0.177631,0 0.39967,-0.6333 0,-0.095 -0.325656,-0.19 -0.05922,-0.075 z m 4.662838,0.029 -0.074,0.044 -0.074,0.2377 0.11842,0.1584 -0.02958,0.19 0.02958,0 0.207237,-0.096 0.266445,0.3168 0,0.2057 0.05922,0.045 0.148026,-0.1265 -0.01478,-0.1111 -0.429276,-0.4275 0,-0.06 0.05922,-0.044 -0.02957,-0.1108 -0.177633,-0.03 -0.05922,-0.1902 z m -10.9391592,0.1266 0.148024,1.0767 -0.621713,0 -0.118421,0.075 0.133229,0.19 -0.01478,0.06 0.207242,-0.015 0.074,0.2055 0.266445,0 0.074,-0.2216 0.384869,-0.3009 0.50329,-0.045 0.02961,-0.3642 -0.103632,-0.015 -0.799346,-0.6492 -0.162824,0 z m 1.865136,0.1108 -0.666121,0.5701 -0.103633,-0.015 -0.02957,0.3799 -0.340461,0.044 0.192438,0.3167 0.08878,-0.015 0.08878,-0.1267 0.148032,-0.029 0.148024,0.094 0.310855,0.015 0.251645,-0.1108 0.08878,-0.076 0.01478,-0.1108 0.177633,-0.1901 0.04444,-0.4116 -0.118422,-0.2534 -0.296053,-0.075 z m 0.41447,0.03 -0.08878,0.044 0.118422,0.2374 -0.04444,0.4434 -0.177633,0.1741 0,0.1267 -0.08878,0.075 0.118421,0.096 0.08878,0.015 0,0.2849 -0.05922,0.044 -0.01478,0.044 0.05922,0.029 0.074,0.1583 0.118423,0.015 0,-0.044 0.192433,0.015 0,-0.094 0.266446,-0.2692 0.162832,0 -0.08878,-0.19 0,-0.2218 0.133223,-0.1266 0,-0.4275 -0.769738,-0.4433 z m 9.5625102,0.015 -0.08878,0.03 -0.074,0.075 0.05922,0.1108 0.074,0 0.08878,-0.075 0.01478,-0.1107 -0.074,-0.03 z m -7.5937552,0.015 -0.133223,0.1427 -0.947369,0 0.01478,0.2534 -0.08878,0 -0.01478,0.4589 -0.133222,0.1268 0,0.19 0.08878,0.2058 0.118422,0.06 -0.01478,0.1268 -0.04444,0.03 0.444079,0.4909 0.251648,0.015 0.0296,0.045 0.355266,0.015 0,-0.077 0.02956,-0.06 0.118422,-0.015 -0.148024,-0.2215 -0.103631,0 -0.02961,-0.1583 0.08878,-0.045 0.251644,-0.5699 0,-0.3167 0.162825,-0.19 -0.2960509,-0.5069 z m 6.4983642,0 -0.236845,0.096 -0.01478,0.1582 0.192433,0.2534 0,0.1744 -0.04444,0.044 0.01478,0.015 0.133224,0.2217 0,0.2533 -0.05922,0.1109 -0.01478,0.076 -0.04444,0.093 0.02959,0.1109 0.118424,0.1108 0.103628,0 0.08878,0.1425 0.103628,0 0.01478,-0.044 -0.192436,-0.2061 -0.118419,-0.2057 0.01478,-0.4909 0.02958,-0.044 0.074,0 0,0.1107 0.162829,0.1267 0.05922,-0.03 0,-0.096 -0.074,-0.029 -0.01478,-0.095 0.08878,-0.1423 0.04444,0 0.074,0.03 0.074,0.015 0,-0.1901 -0.222038,-0.269 -0.0296,-0.015 -0.192435,0.092 -0.04444,-0.015 0,-0.2059 -0.118421,-0.1583 z m 2.235199,0.096 -0.08878,0.06 -0.01478,0.2375 0.148029,0.301 0.05922,0.044 0.05922,-0.044 0.103618,0.015 0.02959,0.095 0.074,0.015 0.04443,-0.06 -0.05922,-0.06 -0.05922,-0.06 -0.11842,-0.015 -0.074,-0.1109 0.074,-0.1265 0.01478,-0.1109 -0.05922,-0.1425 -0.133223,-0.03 z m -7.07567,0.3165 -0.3552579,0.1267 -0.207242,0.2058 -0.2368363,-0.1427 -0.13323,0.1268 0.05922,0.1743 0,0.1583 0.05922,0.076 0.05922,0.044 0.8881632,-0.3957 0.01478,-0.1109 -0.148031,-0.2692 z m -0.8141452,0.7283 -0.05922,-0.029 -0.074,0.096 -0.01478,0.1423 0.133223,0 0.01478,-0.2057 z m -0.532893,-0.6016 -0.148031,0.1743 0.01478,0.2215 0.266445,0 0.251646,0.2375 0.05922,-0.075 -0.340466,-0.2693 -0.074,-0.2533 -0.02956,-0.03 z m 6.6463872,0.1899 -0.02957,0.015 -0.074,0.1267 0.01478,0.06 0.074,0.03 -0.01478,0.1266 -0.04444,0.03 0.148024,0.1741 0.281254,-0.2216 0.01478,-0.3483 -0.133222,0.1108 -0.074,-0.044 -0.103632,-0.015 -0.05922,-0.045 z m -12.0641592,0.03 -0.074,0.015 -0.148023,0.1108 -0.02962,0.06 -0.01478,0.06 0.05922,0.029 0.177633,0 0.118422,-0.029 0,0.06 0,0.077 0.103605,0.044 0.02961,0.03 0.133222,0 0.01478,-0.06 -0.133222,-0.1742 -0.148023,-0.2058 -0.08878,-0.03 z m 13.8996902,0 0.02958,0.111 0.04444,0.029 0.02957,-0.045 -0.05922,-0.075 -0.04444,-0.015 z m -14.8026462,0.015 -0.05922,0.044 0.04444,0.044 0.05922,-0.03 -0.04444,-0.06 z m 0.177631,0.094 -0.04444,0.029 0.02956,0.06 0.074,-0.03 -0.05922,-0.06 z m 15.0986982,0 -0.08879,0.015 0.074,0.096 0.02958,0.098 0.05921,0 -0.01479,-0.1584 -0.05921,-0.044 z m -12.8338932,0.044 -0.133222,0.015 -0.384877,0.3007 -0.05922,0.2059 0.04444,0.06 0.162832,-0.015 0.04444,-0.1108 0.192436,-0.015 0.148023,0.044 0.192434,-0.1582 -0.207235,-0.3327 z m 12.5230372,0.044 -0.01478,0.1901 0.074,0.075 0.01478,0.1267 0.074,0.015 0.02961,-0.076 -0.04443,-0.044 -0.01479,-0.2375 -0.118422,-0.044 z m -14.8914622,0.015 -0.05922,0.044 0.05922,0.075 0.05922,-0.015 -0.05922,-0.1109 z m 6.113495,0 -0.266454,0.6333 -0.08878,0.015 0.01478,0.1267 0.103631,0 0.162831,0.2534 0.08878,0.029 0.207235,0.19 0.118422,0 0.4736892,-0.1582 0.3404571,-0.3959 -0.177632,0 -0.2960473,-0.19 -0.01478,-0.1109 -0.192435,0 0.01478,-0.19 -0.222044,-0.2057 -0.266445,0 z m -5.225339,0.06 -0.074,0.03 -0.177634,0.015 0,0.03 0.251645,0 0.01478,-0.045 -0.01478,-0.03 z m 14.1809392,0 0,0.1742 0.04443,0.06 0.05921,-0.075 -0.01479,-0.1584 -0.0888,0 z m -0.473689,0.015 -0.02956,0.06 -0.01478,0.076 -0.177633,0.2218 0.01478,0.06 0.074,-0.015 0.222043,-0.2691 -0.08878,-0.1426 z m -11.6792822,0.03 -0.118421,0.03 -0.05922,0.1107 0,0.301 -0.103632,0.1425 0,0.2217 0.148024,0.015 0.162833,0.2058 0.08878,0.015 0.05922,-0.03 0.103632,-0.015 0.02956,-0.1426 0.14803,-0.099 0.148024,-0.015 0.266446,-0.5226 -0.01478,-0.1266 -0.118422,-0.094 -0.251644,0.1109 -0.325656,0 -0.162832,-0.111 z m 4.9292762,0 -0.08878,0.03 -0.08878,0.015 0.08878,0.097 0.103632,-0.077 0.02957,-0.015 -0.04444,-0.044 z m -7.2088892,0.06 0.04444,0.1266 0.01478,-0.076 0.310855,0.03 -0.133222,-0.06 -0.236845,-0.015 z m 3.167771,0.044 0,0.1268 -0.266453,0.5381 -0.162825,0.015 -0.118421,0.075 -0.02957,0.1427 0.118418,0.1108 -0.01478,0.174 0.651321,-0.015 0.04444,-0.06 -0.177632,-0.2058 -0.02956,-0.076 0.11842,-0.2376 -0.074,-0.1583 -0.074,-0.03 0,-0.075 0.074,-0.06 0.01478,-0.2374 -0.074,-0.015 z m -3.078957,0.03 -0.02956,0.097 0.05922,0.1108 0.133222,-0.1425 0,-0.03 -0.162825,-0.029 z m 6.8240272,0 -0.14803,0.076 0.02961,0.1428 -0.02961,0.1421 -0.08878,0.076 -0.3700661,0.4276 -0.2664452,0.075 -0.118424,0.1585 0.01478,0.3799 0.08878,0.06 0.7993433,-0.9026 0.148031,-0.4591 0,-0.1426 -0.05922,-0.044 z m 7.697374,0 0.01479,0.1267 -0.118421,0.097 -0.103632,0.015 -0.118418,0.1266 0.01478,0.045 0.08879,-0.03 0.074,-0.044 0.05921,0.1582 0.10363,0.077 0.04442,-0.015 0.04442,-0.044 -0.0888,-0.075 0.04442,-0.045 0.05921,0.045 0.04442,-0.06 -0.04442,-0.076 0,-0.19 -0.118421,-0.093 z m -14.3289602,0.015 0,0.076 -0.148032,0.1267 0.103632,0.1897 0.148022,-0.1423 0.148033,0 0.11842,0.1741 0.103625,0.075 0.04444,-0.092 0.02957,-0.015 0,-0.1741 -0.05922,-0.2215 -0.222036,0.03 -0.266446,-0.03 z m 1.702304,0 -0.162832,0.1267 0.074,0.1427 0,0.3957 0.074,0 0,-0.2376 0.103631,-0.1581 0,-0.2535 -0.08878,-0.015 z m 4.7516492,0.06 -0.370066,0.1427 -0.04444,0 -0.1480242,-0.1112 0,0.1112 0.2812463,0.174 0.207243,0.015 0.074,-0.06 0.02956,-0.1266 -0.02956,-0.1427 z m -5.1365162,0.075 -0.177635,0.015 -0.05922,0.4117 0.04444,0.098 0.103606,0.1741 0.05922,0 0.162833,-0.092 -0.01478,-0.5542 -0.11842,-0.044 z m 0.192433,0.015 -0.02961,0.03 0,0.5385 0.103632,-0.06 0,-0.3961 -0.074,-0.1076 z m 2.116779,0 -0.236843,0.2535 -0.01478,0.1107 -0.192435,-0.015 0,0.044 -0.133228,-0.015 -0.118416,0.2375 0.02958,0.06 0.162831,0.19 0.074,-0.075 0.103616,0 0.02959,-0.096 0.103606,-0.06 0.222043,0.1582 0.118422,-0.1427 0.488489,0.03 -0.44408,-0.5071 0.05922,-0.03 0,-0.098 -0.103621,-0.045 -0.148029,0 z m 6.1430962,0.03 -0.05922,0.029 0.01478,0.093 0,0.075 -0.04444,0.015 0.01478,0.1741 0.08878,0.044 0.118421,-0.075 -0.0296,-0.1901 0.01478,-0.06 -0.118419,-0.1107 z m -9.1036332,0.015 -0.08878,0.015 0.01478,0.2059 -0.04444,0.015 -0.05922,0.096 0.133224,0.1583 0.01478,0.2532 0.162826,-0.1266 0.192433,-0.03 0.192437,0.044 -0.103617,-0.1742 -0.02961,-0.094 0.02961,-0.3009 -0.177633,0.015 -0.074,-0.075 -0.162834,0 z m -0.429276,0.077 -0.133224,0.015 -0.133222,0.1109 0.207235,0.2059 0.148031,-0.19 -0.08878,-0.1426 z m 13.2335702,0.1107 -0.118422,0.2218 0.04444,0.1266 -0.074,0.1109 -0.118422,-0.044 -0.310855,0.2533 0.01478,0.1267 -0.148023,0 0.118421,0.1266 0.41447,-0.1424 0.08878,-0.3484 0.192435,-0.015 0.162824,-0.1424 -0.222035,-0.1741 -0.04444,-0.095 z m -13.1151492,0.06 -0.148023,0.1901 0.399668,0.2851 -0.01478,-0.2218 -0.118422,-0.1424 -0.118422,-0.111 z m 11.2648212,0.044 0.074,0.1742 0.01478,0.2218 0.08878,0.1741 0.236844,0.1425 0.08878,0.015 -0.01478,-0.1582 -0.074,-0.206 -0.118422,-0.2532 0,0.044 -0.148023,-0.015 -0.08878,-0.1426 -0.05922,0 z m -0.384874,0.075 0,0.093 0.251645,0.4433 0.05922,0 0.518098,0.9184 0.207235,0.03 0.103631,-0.3326 -0.162831,-0.1109 -0.02956,-0.1741 -0.94737,-0.8709 z m 2.101979,0.06 -0.103632,0.1426 0.074,0.03 0.05922,-0.075 -0.02956,-0.093 z m -4.514806,0.06 0.01478,0.095 0.05922,0.03 0.01478,-0.094 -0.08878,-0.03 z m -3.7006612,0.075 -0.13323,0.015 -0.01478,0.03 0,0.093 0.103632,0.2058 -0.118422,0.2533 -0.01478,0.075 0.577301,0.3958 0.177635,-0.3007 -0.08878,-0.077 0,-0.4118 0.118422,-0.1266 -0.192437,0.06 -0.133225,0 -0.222036,-0.1899 -0.05922,-0.03 z m -1.687505,0.03 -0.08878,0.06 -0.04444,0.507 -0.148023,0.1107 -0.04444,0.1107 0.01478,0.1585 -0.266447,0.2217 -0.05922,-0.029 0.01478,0.029 -0.08878,0.075 0.384867,0 0.074,0.1108 0,0.076 0.02961,0.03 0.177632,0 0.05922,-0.1109 0.074,0 0.02956,0.03 0.103632,0 0.02956,0.3959 0.192435,0 0,0.03 0.488487,0.2374 0.01478,0.044 0.103631,0 -0.01478,-0.1741 -0.177633,-0.095 0.01478,-0.1268 0.074,-0.1899 0.177632,0 -0.148026,-0.5542 0,-0.2374 0.236841,-0.4119 0.01478,-0.06 -0.04444,-0.015 0,-0.1108 -0.04444,0 -0.04444,-0.06 -0.740133,-0.044 -0.133224,0.1425 -0.22204,-0.1582 z m 10.1102062,0.015 -0.133222,0.015 -0.08878,0.3325 -0.458882,0.1742 -0.133227,-0.1742 -0.074,0.015 0.118423,0.5066 0.192433,0.03 0.251645,0.097 0,0.1107 0.103632,-0.029 0.177633,-0.2374 0,-0.206 0.08878,-0.2058 0.103632,0.03 -0.118422,-0.2851 -0.02958,-0.174 z m -4.633226,0.075 -0.01478,0.1267 0.04444,0.03 0.04444,-0.076 -0.074,-0.078 z m -4.2483622,0.03 -0.01478,0.077 0.04444,0.044 0,0.075 -0.177633,0.2692 0.118422,0.1109 0.05922,-0.044 0.192433,-0.03 0.02956,0 0.01478,-0.077 0.103631,-0.2375 -0.08878,-0.19 -0.281254,0 z m -2.383223,0.015 -0.02957,0.075 0.05922,0.03 0.04444,-0.044 -0.01478,-0.06 -0.05922,0 z m 0.917765,0.015 -0.118422,0.1742 -0.296054,0.015 0,0.044 0.177633,0.015 0,0.4748 -0.148024,0 -0.08878,-0.075 -0.074,0.045 -0.01478,0.015 0.04444,0.015 0.01478,0.1111 -0.103632,0.075 0.01478,0.045 0.118421,-0.076 0.04444,0 0.01478,0.044 0.074,0.03 0.222042,-0.2058 0,-0.1426 0.04444,-0.1107 0.148025,-0.1268 0.02957,-0.3799 -0.103628,0 z m 11.3980372,0.1109 -0.07401,0.1741 0.103622,0.1584 0.04441,0 0.04441,-0.1107 0.0296,-0.03 -0.05921,-0.044 -0.05921,-0.03 -0.0296,-0.1109 z m -0.236843,0.029 -0.133224,0.1267 -0.08879,0 -0.133224,-0.076 -0.103631,0.015 -0.103631,0.1741 -0.074,0.3324 -0.02956,0.1267 0.074,0.1109 -0.04444,0.1583 0,0.03 0.118422,0 0.04444,-0.4117 0.04444,0.015 0.05922,0.3642 0.074,0.03 0.05922,-0.1586 -0.05922,-0.2532 -0.05922,-0.093 0.177629,-0.1266 -0.04443,-0.06 -0.162831,0.1108 -0.04443,0 -0.074,-0.1267 0.02958,-0.044 0.133224,-0.076 0.192433,0.06 0.05921,0 0.162828,-0.1426 -0.07401,-0.076 z m -11.9309352,0.044 0,0.06 0.162832,0 0,-0.06 -0.162832,0 z m 0.192433,0 0,0.092 -0.207235,0 -0.133222,0.2535 0.296054,0.3482 0.074,-0.06 0,-0.06 -0.04444,-0.03 0,-0.044 0.103622,-0.076 0.103628,0.094 0.11842,0 0,-0.4117 -0.177626,-0.015 0,-0.076 -0.13323,0 z m 6.2911282,0 -0.02957,0.044 0.04444,0.03 0.05922,-0.03 -0.074,-0.044 z m -6.7796092,0.03 0.02956,0.06 0.02961,0.015 0.02957,-0.044 -0.02957,-0.03 -0.05922,0 z m -0.04444,0.1266 -0.0296,0.015 0,0.044 0.0296,0.015 0.02958,-0.044 -0.02958,-0.029 z m 13.1447492,0.1109 -0.148026,0.015 -0.08882,0.075 0.02961,0.075 0.162829,0.03 0,0.029 -0.10362,0.093 0.05921,0.19 0.04441,0 0.04441,-0.19 0.08882,0 0.0296,0.19 0.399672,0.3483 0,0.2692 0.148026,0.1585 0.05921,0 0.0148,-0.966 -0.236842,-0.1742 -0.22204,0.1584 -0.07401,0.044 -0.133224,-0.075 0,-0.285 -0.07401,0 z m -10.7319222,0.015 -0.05922,0.094 0,0.1108 0.162828,0 0,-0.1108 -0.10361,-0.094 z m 0.384874,0.015 -0.177633,0.045 -0.074,0.044 0,0.1107 -0.04444,0.1743 -0.04444,0.044 -0.074,0.015 0.133222,0.4432 0.192435,0.111 0.148026,0 0,0.03 -0.118418,0 0.05922,0.285 -0.04444,0.206 0.118422,0.1424 0,0.1583 0.01478,0.06 0.148024,-0.1744 -0.01478,-0.2215 -0.074,-0.06 0,-0.03 -0.04444,-0.1744 0.60691,-0.075 -0.133223,-0.3008 -0.01478,-0.285 0.04444,-0.1426 -0.6069021,-0.4116 z m 0.148023,1.3937 0.103632,0.075 0.02956,0.2534 -0.207233,0.2218 -0.04444,-0.1268 0,-0.1583 -0.103631,-0.1267 -0.296051,0.1426 0.266448,0.1424 0.01478,0.4117 -0.177632,0.285 0,0.3325 0.103631,0.098 0.222038,-0.1585 0.04444,-0.2216 0,-0.3642 0.370067,-0.3324 0.05922,0 0.236843,-0.2218 -0.04444,-0.4749 -0.592104,0.076 0.01478,0.1426 z m 9.7697492,-1.1876 -0.148027,0.029 -0.04441,0.045 0.04441,0.06 0.08881,-0.029 0.05921,-0.045 0.08881,0.076 0.04441,-0.029 -0.07401,-0.094 -0.05921,-0.015 z m -10.2138272,0.015 -0.148024,0.015 0,0.076 0.02957,0.094 0.04444,0 0.04444,-0.03 0.02958,-0.1583 z m 11.4128412,0.096 -0.0148,0.9501 0.133224,0 0.162829,-0.2217 0.148026,0.015 0.08881,0.076 0.02961,0.2692 0.281251,0.1742 0.07401,-0.029 0,-0.1109 -0.22204,-0.2059 -0.118422,-0.2851 0.08881,-0.044 -0.05921,-0.1425 -0.148026,-0.015 -0.0296,-0.1582 -0.355264,-0.2692 -0.05921,0 z m -8.837181,0.03 -0.05922,0.044 0.04444,0.077 0.074,0 -0.05922,-0.1267 z m -4.4407942,0.075 -0.08878,0.076 0.05922,0.096 0.074,-0.096 -0.01478,-0.076 -0.02959,0 z m 4.4704022,0.1268 -0.04444,0.044 0.02956,0.06 0.05922,0.015 0.01478,-0.1267 -0.05922,0 z m -4.1003362,0.077 -0.384867,0.015 0.118422,0.4909 0,0.1585 -0.177632,0.2057 -0.02961,0.3483 0.695726,0 0.2220389,0.098 0.192434,-0.03 -0.103606,-0.1425 0,-0.4275 0.2072361,-0.015 0,-0.1583 -0.1776341,0 -0.02956,-0.3959 -0.074,0 -0.04444,-0.03 -0.04444,0 -0.04444,0.1266 -0.222038,0 -0.05922,-0.06 0.01478,-0.078 -0.05922,-0.092 z m 9.2664562,0.06 -0.103616,0.075 0.02956,0.06 0.310855,0.075 0.162829,0.029 0.074,0.075 0.177628,0.015 0.08878,0.075 0.074,-0.03 0.074,-0.06 -0.133222,-0.06 -0.103632,-0.1109 -0.310856,-0.076 -0.340459,-0.076 z m -5.506585,0.015 -0.01478,0.044 0.05922,0.044 0.04444,-0.044 -0.08878,-0.044 z m 10.051,0.033 -0.133224,0.029 0.0148,0.076 0.118421,-0.015 0,-0.095 z m -12.3454122,0.1424 -0.162824,0.015 -0.074,0.1901 0,0.076 0.192434,0.094 0.01478,0.206 -0.1628321,0.015 -0.04444,-0.06 -0.444082,-0.2058 -0.01478,0.1582 -0.207235,0 0,0.3642 0.103632,0.1583 0.177628,0.015 0.074,0.044 0.177627,0 0.16283,-0.2533 0.458879,-0.206 0.04444,-0.1898 -0.05922,-0.2852 -0.236844,-0.1423 z m 8.9852082,0.111 0.01478,0.076 0.074,0.03 0.04444,-0.044 -0.04444,-0.06 -0.08878,0 z m -0.133222,0.044 -0.08878,0.044 0.04444,0.044 0.118419,-0.044 -0.074,-0.044 z m 0.399667,0 -0.04444,0.029 -0.01478,0.044 0.16283,0.015 0.118421,-0.076 -0.074,-0.015 -0.103622,0.029 -0.04444,-0.029 z m 0.488491,0.044 -0.192435,0.1741 0.01479,0.044 0.08879,-0.015 0.0888,-0.094 0.177632,-0.03 -0.02959,-0.06 -0.148026,-0.015 z m -8.348689,0.111 0.01478,0.06 0.074,0.015 0.02959,-0.077 -0.11842,0 z m 7.786187,0 -0.103616,0.015 0.103616,0.075 0.05922,0 -0.05922,-0.094 z m -7.253295,0.06 -0.074,0.2058 -0.1332229,0.2534 -0.2368431,0.015 -0.08878,0.1267 0.01478,0.38 -0.1480232,0.1901 0.01478,0.3009 0.1184222,0.1425 0.148024,-0.015 0.1480241,-0.1107 -0.02958,-0.1742 0.3256579,-0.6176 -0.05922,-0.075 0.05922,-0.1583 0.074,0.029 0.0296,-0.06 -0.074,-0.301 -0.04444,-0.1266 -0.04444,0 z m -0.3256579,0.044 -0.1036311,0.015 0.02961,0.06 0.04444,0 0.02957,-0.075 z m 8.9407999,0.2849 -0.370067,0.1108 -0.103617,0.3167 -0.162828,0.044 -0.01479,-0.2217 -0.695723,0.4436 0.01478,0.158 -0.103622,0.1584 -0.251644,0 -0.562501,0.2535 -0.192435,0.554 -0.01478,0.9976 -0.148027,0.1109 0,0.097 0.192438,0.1423 0.473681,-0.093 0.251645,0 0.08878,-0.1426 0.547698,-0.1108 0.38487,0.1267 -0.02959,0.1584 0.05921,0.174 0.296052,-0.06 0.0148,0.094 -0.207239,0.1426 0.07401,0.06 0.133224,-0.06 -0.0296,0.4749 0.266447,0.2216 0.162829,-0.06 0.07401,0.075 0.458882,-0.06 0.414474,-0.7441 0.16283,-0.03 0.310855,-0.6175 0.07401,-0.5383 -0.192434,-0.2533 0.07401,-0.06 -0.148027,-0.5224 -0.177632,-0.1268 0.0296,-0.6967 -0.148026,-0.1267 -0.04441,-0.38 -0.07401,0 -0.266448,0.9185 -0.133224,0.015 -0.325658,-0.3484 0.177632,-0.5225 -0.340461,-0.06 z m -10.6135012,0.096 -0.103629,0.044 -0.16283,0.2376 -0.207234,0 0,0.044 0.340458,0.3959 0.251644,0.075 0.162833,-0.2854 -0.01478,-0.3799 -0.266452,-0.1422 z m -1.879935,0.1898 0.02961,0.206 0.222035,0.3484 -0.04444,0.1899 0,0.094 0.177632,0.4594 0.118422,0.015 0.074,0.075 0.177632,0 0.04444,-0.5227 0,-0.3323 0.103632,-0.015 0.04444,-0.3642 0.281254,0 0.08878,-0.092 -0.162825,0 -0.222043,0.03 -0.251644,-0.094 -0.680922,0 z m 1.347044,0.075 -0.103632,0.096 -0.266445,0.015 -0.04444,0.3484 -0.103631,0.03 0,0.3167 0.074,0.03 -0.01478,0.2374 0.08878,0.015 0.177632,-0.1903 0.222041,0.029 0.05922,-0.1587 0.281249,-0.2849 -0.34046,-0.4116 0,-0.06 -0.02959,-0.015 z m 3.2861832,0.3328 -0.04444,0.075 0,0.075 0.11842,-0.092 -0.074,-0.06 z m -0.192433,0.1266 -0.08878,0.015 0,0.06 0.04444,0.015 0.08878,-0.029 -0.04444,-0.06 z m -2.6792812,0.044 -0.296048,0.2854 -0.05922,0.1741 -0.236844,-0.03 -0.192434,0.1896 -0.118422,-0.015 0.01478,-0.2532 -0.04444,-0.015 -0.04444,0.5067 -0.222038,0 -0.05922,-0.076 -0.103621,0 0.08878,0.2693 0.16283,0.1741 -0.118422,0.1424 0.074,0.1743 0.177632,0.06 0.133222,-0.1267 0.399672,0.015 0.02961,-0.044 0.162829,-0.029 0.592106,-0.6334 0,-0.19 -0.05922,0.092 -0.08878,0 -0.118421,-0.1108 0.05922,-0.1586 0.103631,-0.015 -0.01478,-0.3164 -0.222041,-0.06 z m 0.236843,0.4121 -0.08878,0.015 -0.02961,0.1107 0.05922,0.06 0.08878,0 0.074,-0.1107 -0.103632,-0.075 z m -0.370066,0.3163 0.04444,0 0.08878,0.094 0,0.1268 -0.103617,0.044 0,0.044 -0.162833,0 -0.05922,-0.1267 0.05922,-0.093 0.133223,-0.092 z m 0,0.03 -0.118422,0.092 -0.02956,0.06 0.02956,0.075 0.118422,0.015 0,-0.03 0.103632,-0.044 0.01478,-0.075 -0.074,-0.092 -0.04444,0 z m 10.7763302,2.8656 -0.05921,0.2693 0.0148,0.206 0.192434,-0.015 0.22204,-0.3642 -0.370064,-0.072 z m -7.416129,0.1267 0,0.1746 0.222044,0.044 0.04444,-0.1418 -0.074,0.029 -0.103629,0.015 -0.02957,-0.1268 -0.05922,0 z m 9.310868,0.9979 -0.148027,0.06 0.02961,0.1113 0.118421,0.06 0,-0.2374 z"
       id="kalimantan"
       style="opacity:0.25;fill:#000000;fill-opacity:1" />
    <rect
       style="opacity:0.3;fill:none;stroke:url(#linearGradient4542);stroke-opacity:1"
       id="rect4534"
       width="17"
       height="17"
       x="2.5000005"
       y="1032.8622"
       rx="0.5"
       ry="0.5" />
    <path
       id="path3806"
       d="m 11,1034.362 -2.09375,3.5 C 7.2026792,1038.659 6,1040.357 6,1042.362 c 0,2.7614 2.2385763,5 5,5 2.761424,0 5,-2.2386 5,-5 0,-2.005 -1.202679,-3.703 -2.90625,-4.5 L 11,1034.362 z m 0,5 c 1.656854,0 3,1.3431 3,3 0,1.6569 -1.343146,3 -3,3 -1.6568539,0 -3,-1.3431 -3,-3 0,-1.6569 1.3431461,-3 3,-3 z"
       style="opacity:0.05;fill:none;stroke:#000000;stroke-width:3;stroke-linejoin:round;stroke-miterlimit:4;stroke-opacity:1;stroke-dasharray:none"
       inkscape:connector-curvature="0" />
    <path
       style="opacity:0.1;fill:none;stroke:#000000;stroke-width:2;stroke-linejoin:round;stroke-miterlimit:4;stroke-opacity:1;stroke-dasharray:none"
       d="m 11,1034.362 -2.09375,3.5 C 7.2026792,1038.659 6,1040.357 6,1042.362 c 0,2.7614 2.2385763,5 5,5 2.761424,0 5,-2.2386 5,-5 0,-2.005 -1.202679,-3.703 -2.90625,-4.5 L 11,1034.362 z m 0,5 c 1.656854,0 3,1.3431 3,3 0,1.6569 -1.343146,3 -3,3 -1.6568539,0 -3,-1.3431 -3,-3 0,-1.6569 1.3431461,-3 3,-3 z"
       id="path3804"
       inkscape:connector-curvature="0" />
    <path
       id="path3802"
       d="m 11,1034.362 -2.09375,3.5 C 7.2026792,1038.659 6,1040.357 6,1042.362 c 0,2.7614 2.2385763,5 5,5 2.761424,0 5,-2.2386 5,-5 0,-2.005 -1.202679,-3.703 -2.90625,-4.5 L 11,1034.362 z m 0,5 c 1.656854,0 3,1.3431 3,3 0,1.6569 -1.343146,3 -3,3 -1.6568539,0 -3,-1.3431 -3,-3 0,-1.6569 1.3431461,-3 3,-3 z"
       style="opacity:0.15;fill:none;stroke:#000000;stroke-linejoin:round;stroke-opacity:1"
       inkscape:connector-curvature="0" />
    <path
       style="fill:#ffffff;fill-opacity:1;stroke:none"
       d="m 11,1034.362 -2.09375,3.5 C 7.2026792,1038.659 6,1040.357 6,1042.362 c 0,2.7614 2.2385763,5 5,5 2.761424,0 5,-2.2386 5,-5 0,-2.005 -1.202679,-3.703 -2.90625,-4.5 L 11,1034.362 z m 0,5 c 1.656854,0 3,1.3431 3,3 0,1.6569 -1.343146,3 -3,3 -1.6568539,0 -3,-1.3431 -3,-3 0,-1.6569 1.3431461,-3 3,-3 z"
       id="path3794"
       inkscape:connector-curvature="0" />
  </g>
</svg>
