<?xml version="1.0" encoding="UTF-8" standalone="no"?>
<!-- Created with Inkscape (http://www.inkscape.org/) -->

<svg
   xmlns:dc="http://purl.org/dc/elements/1.1/"
   xmlns:cc="http://creativecommons.org/ns#"
   xmlns:rdf="http://www.w3.org/1999/02/22-rdf-syntax-ns#"
   xmlns:svg="http://www.w3.org/2000/svg"
   xmlns="http://www.w3.org/2000/svg"
   xmlns:xlink="http://www.w3.org/1999/xlink"
   xmlns:sodipodi="http://sodipodi.sourceforge.net/DTD/sodipodi-0.dtd"
   xmlns:inkscape="http://www.inkscape.org/namespaces/inkscape"
   width="48"
   height="48"
   id="svg3147"
   version="1.1"
   inkscape:version="0.48.3.1 r9886"
   sodipodi:docname="camera3.svg">
  <defs
     id="defs3149">
    <linearGradient
       id="linearGradient3834">
      <stop
         style="stop-color:#9619dc;stop-opacity:1;"
         offset="0"
         id="stop3836" />
      <stop
         style="stop-color:#9619dc;stop-opacity:0.09803922;"
         offset="1"
         id="stop3838" />
    </linearGradient>
    <linearGradient
       id="linearGradient3820">
      <stop
         id="stop3822"
         offset="0"
         style="stop-color:#9619dc;stop-opacity:1;" />
      <stop
         id="stop3824"
         offset="1"
         style="stop-color:#141414;stop-opacity:1;" />
    </linearGradient>
    <linearGradient
       id="linearGradient3804">
      <stop
         style="stop-color:#ffffff;stop-opacity:1;"
         offset="0"
         id="stop3806" />
      <stop
         style="stop-color:#ffffff;stop-opacity:0;"
         offset="1"
         id="stop3808" />
    </linearGradient>
    <linearGradient
       id="linearGradient3794">
      <stop
         style="stop-color:#141414;stop-opacity:1;"
         offset="0"
         id="stop3796" />
      <stop
         style="stop-color:#505050;stop-opacity:1;"
         offset="1"
         id="stop3798" />
    </linearGradient>
    <linearGradient
       id="linearGradient3784">
      <stop
         style="stop-color:#646464;stop-opacity:1;"
         offset="0"
         id="stop3786" />
      <stop
         style="stop-color:#969696;stop-opacity:1;"
         offset="1"
         id="stop3788" />
    </linearGradient>
    <linearGradient
       id="linearGradient3776">
      <stop
         style="stop-color:#e6e6e6;stop-opacity:1;"
         offset="0"
         id="stop3778" />
      <stop
         style="stop-color:#b4b4b4;stop-opacity:1;"
         offset="1"
         id="stop3780" />
    </linearGradient>
    <linearGradient
       id="linearGradient4536">
      <stop
         style="stop-color:#ffffff;stop-opacity:1;"
         offset="0"
         id="stop4538" />
      <stop
         id="stop4546"
         offset="0.04410084"
         style="stop-color:#ffffff;stop-opacity:0.15686275;" />
      <stop
         id="stop4544"
         offset="0.96063954"
         style="stop-color:#ffffff;stop-opacity:0.23529412;" />
      <stop
         style="stop-color:#ffffff;stop-opacity:0.39215687;"
         offset="1"
         id="stop4540" />
    </linearGradient>
    <radialGradient
       inkscape:collect="always"
       xlink:href="#linearGradient3688-166-749"
       id="radialGradient3132"
       gradientUnits="userSpaceOnUse"
       gradientTransform="matrix(2.003784,0,0,1.4,27.98813,-17.4)"
       cx="4.9929786"
       cy="43.5"
       fx="4.9929786"
       fy="43.5"
       r="2.5" />
    <linearGradient
       id="linearGradient3688-166-749">
      <stop
         id="stop2883"
         style="stop-color:#181818;stop-opacity:1"
         offset="0" />
      <stop
         id="stop2885"
         style="stop-color:#181818;stop-opacity:0"
         offset="1" />
    </linearGradient>
    <radialGradient
       inkscape:collect="always"
       xlink:href="#linearGradient3688-464-309"
       id="radialGradient3134"
       gradientUnits="userSpaceOnUse"
       gradientTransform="matrix(2.003784,0,0,1.4,-20.01187,-104.4)"
       cx="4.9929786"
       cy="43.5"
       fx="4.9929786"
       fy="43.5"
       r="2.5" />
    <linearGradient
       id="linearGradient3688-464-309">
      <stop
         id="stop2889"
         style="stop-color:#181818;stop-opacity:1"
         offset="0" />
      <stop
         id="stop2891"
         style="stop-color:#181818;stop-opacity:0"
         offset="1" />
    </linearGradient>
    <linearGradient
       inkscape:collect="always"
       xlink:href="#linearGradient3702-501-757"
       id="linearGradient3136"
       gradientUnits="userSpaceOnUse"
       x1="25.058096"
       y1="47.027729"
       x2="25.058096"
       y2="39.999443" />
    <linearGradient
       id="linearGradient3702-501-757">
      <stop
         id="stop2895"
         style="stop-color:#181818;stop-opacity:0"
         offset="0" />
      <stop
         id="stop2897"
         style="stop-color:#181818;stop-opacity:1"
         offset="0.5" />
      <stop
         id="stop2899"
         style="stop-color:#181818;stop-opacity:0"
         offset="1" />
    </linearGradient>
    <linearGradient
       inkscape:collect="always"
       xlink:href="#linearGradient4536"
       id="linearGradient4542"
       x1="23.522522"
       y1="1010.4793"
       x2="23.522522"
       y2="1048.1082"
       gradientUnits="userSpaceOnUse" />
    <radialGradient
       inkscape:collect="always"
       xlink:href="#linearGradient3776"
       id="radialGradient3782"
       cx="24.144142"
       cy="1015.9567"
       fx="24.144142"
       fy="1015.9567"
       r="20"
       gradientUnits="userSpaceOnUse"
       gradientTransform="matrix(1.9936737e-6,2.0202762,-1.5838002,1.5629451e-6,1633.2166,967.17736)" />
    <linearGradient
       inkscape:collect="always"
       xlink:href="#linearGradient3784"
       id="linearGradient3790"
       x1="10.990991"
       y1="1049.0137"
       x2="10.990991"
       y2="1009.4703"
       gradientUnits="userSpaceOnUse" />
    <linearGradient
       inkscape:collect="always"
       xlink:href="#linearGradient3794"
       id="linearGradient3800"
       x1="24.925249"
       y1="14.858536"
       x2="24.925249"
       y2="35.428387"
       gradientUnits="userSpaceOnUse" />
    <linearGradient
       inkscape:collect="always"
       xlink:href="#linearGradient3794"
       id="linearGradient3814"
       gradientUnits="userSpaceOnUse"
       x1="-25.107794"
       y1="27.685268"
       x2="-25.107794"
       y2="11.893191" />
    <radialGradient
       inkscape:collect="always"
       xlink:href="#linearGradient3820"
       id="radialGradient3826"
       cx="-25.441441"
       cy="19.81982"
       fx="-25.441441"
       fy="19.81982"
       r="7.8558559"
       gradientUnits="userSpaceOnUse" />
    <radialGradient
       inkscape:collect="always"
       xlink:href="#linearGradient3834"
       id="radialGradient3840"
       cx="-25.441441"
       cy="19.81982"
       fx="-25.441441"
       fy="19.81982"
       r="7.8558559"
       gradientUnits="userSpaceOnUse" />
    <radialGradient
       inkscape:collect="always"
       xlink:href="#linearGradient3804"
       id="radialGradient3844"
       gradientUnits="userSpaceOnUse"
       cx="-25.441441"
       cy="19.81982"
       fx="-25.441441"
       fy="19.81982"
       r="7.8558559" />
    <linearGradient
       inkscape:collect="always"
       xlink:href="#linearGradient3804"
       id="linearGradient3856"
       x1="-25.512213"
       y1="27.75412"
       x2="-25.512213"
       y2="11.751645"
       gradientUnits="userSpaceOnUse" />
    <linearGradient
       inkscape:collect="always"
       xlink:href="#linearGradient3804"
       id="linearGradient3860"
       gradientUnits="userSpaceOnUse"
       x1="19.876308"
       y1="35.428291"
       x2="19.876308"
       y2="14.709947" />
    <linearGradient
       inkscape:collect="always"
       xlink:href="#linearGradient3804"
       id="linearGradient3904"
       x1="-17.500656"
       y1="27.689768"
       x2="-24.567039"
       y2="20.623384"
       gradientUnits="userSpaceOnUse" />
  </defs>
  <sodipodi:namedview
     id="base"
     pagecolor="#ffffff"
     bordercolor="#666666"
     borderopacity="1.0"
     inkscape:pageopacity="0.0"
     inkscape:pageshadow="2"
     inkscape:zoom="6.9375"
     inkscape:cx="22.508191"
     inkscape:cy="20.598236"
     inkscape:document-units="px"
     inkscape:current-layer="layer1"
     showgrid="false"
     inkscape:window-width="1280"
     inkscape:window-height="751"
     inkscape:window-x="0"
     inkscape:window-y="24"
     inkscape:window-maximized="1" />
  <metadata
     id="metadata3152">
    <rdf:RDF>
      <cc:Work
         rdf:about="">
        <dc:format>image/svg+xml</dc:format>
        <dc:type
           rdf:resource="http://purl.org/dc/dcmitype/StillImage" />
        <dc:title />
      </cc:Work>
    </rdf:RDF>
  </metadata>
  <g
     inkscape:label="Livello 1"
     inkscape:groupmode="layer"
     id="layer1"
     transform="translate(0,-1004.3622)">
    <g
       style="display:inline"
       id="g2036"
       transform="matrix(1.1,0,0,0.4444449,-2.4000022,1029.4733)">
      <g
         style="opacity:0.4"
         id="g3712"
         transform="matrix(1.052632,0,0,1.285713,-1.263158,-13.42854)">
        <rect
           style="fill:url(#radialGradient3132);fill-opacity:1;stroke:none"
           id="rect2801"
           y="40"
           x="38"
           height="7"
           width="5" />
        <rect
           style="fill:url(#radialGradient3134);fill-opacity:1;stroke:none"
           id="rect3696"
           transform="scale(-1,-1)"
           y="-47"
           x="-10"
           height="7"
           width="5" />
        <rect
           style="fill:url(#linearGradient3136);fill-opacity:1;stroke:none"
           id="rect3700"
           y="40"
           x="10"
           height="7.0000005"
           width="28" />
      </g>
    </g>
    <rect
       style="fill:url(#radialGradient3782);fill-opacity:1;stroke:url(#linearGradient3790);stroke-opacity:1"
       id="rect3163"
       width="39"
       height="39"
       x="4.5"
       y="1009.8622"
       rx="2"
       ry="2" />
    <rect
       style="fill:none;fill-opacity:1;stroke:url(#linearGradient4542);stroke-opacity:1;opacity:0.3"
       id="rect4534"
       width="37"
       height="37"
       x="5.5"
       y="1010.8622"
       rx="1"
       ry="1" />
    <path
       transform="matrix(1.1562501,0,0,1.1562501,-5.0000029,1001.3622)"
       d="m 35.459459,25.081081 c 0,5.73182 -4.646558,10.378378 -10.378378,10.378378 -5.731819,0 -10.378378,-4.646558 -10.378378,-10.378378 0,-5.731819 4.646559,-10.378378 10.378378,-10.378378 5.73182,0 10.378378,4.646559 10.378378,10.378378 z"
       sodipodi:ry="10.378378"
       sodipodi:rx="10.378378"
       sodipodi:cy="25.081081"
       sodipodi:cx="25.081081"
       id="path3858"
       style="fill:url(#linearGradient3860);fill-opacity:1;stroke:none;opacity:0.50000000000000000"
       sodipodi:type="arc" />
    <path
       sodipodi:type="arc"
       style="opacity:1;fill:url(#linearGradient3800);fill-opacity:1;stroke:none"
       id="path3792"
       sodipodi:cx="25.081081"
       sodipodi:cy="25.081081"
       sodipodi:rx="10.378378"
       sodipodi:ry="10.378378"
       d="m 35.459459,25.081081 c 0,5.73182 -4.646558,10.378378 -10.378378,10.378378 -5.731819,0 -10.378378,-4.646558 -10.378378,-10.378378 0,-5.731819 4.646559,-10.378378 10.378378,-10.378378 5.73182,0 10.378378,4.646559 10.378378,10.378378 z"
       transform="matrix(1.1562501,0,0,1.1562501,-5.0000029,1000.3622)" />
    <path
       transform="matrix(0.89105504,0,0,0.89105504,46.669724,1011.7017)"
       d="m -17.585585,19.81982 c 0,4.33867 -3.517186,7.855856 -7.855856,7.855856 -4.338669,0 -7.855856,-3.517186 -7.855856,-7.855856 0,-4.338669 3.517187,-7.855856 7.855856,-7.855856 4.33867,0 7.855856,3.517187 7.855856,7.855856 z"
       sodipodi:ry="7.8558559"
       sodipodi:rx="7.8558559"
       sodipodi:cy="19.81982"
       sodipodi:cx="-25.441441"
       id="path3812"
       style="fill:url(#linearGradient3814);fill-opacity:1;stroke:none"
       sodipodi:type="arc" />
    <path
       sodipodi:type="arc"
       style="fill:url(#radialGradient3826);fill-opacity:1;stroke:none"
       id="path3816"
       sodipodi:cx="-25.441441"
       sodipodi:cy="19.81982"
       sodipodi:rx="7.8558559"
       sodipodi:ry="7.8558559"
       d="m -17.585585,19.81982 c 0,4.33867 -3.517186,7.855856 -7.855856,7.855856 -4.338669,0 -7.855856,-3.517186 -7.855856,-7.855856 0,-4.338669 3.517187,-7.855856 7.855856,-7.855856 4.33867,0 7.855856,3.517187 7.855856,7.855856 z"
       transform="matrix(0.76376147,0,0,0.76376147,43.431192,1014.2246)" />
    <path
       transform="matrix(0.38188073,0,0,0.38188073,33.715596,1021.7934)"
       d="m -17.585585,19.81982 c 0,4.33867 -3.517186,7.855856 -7.855856,7.855856 -4.338669,0 -7.855856,-3.517186 -7.855856,-7.855856 0,-4.338669 3.517187,-7.855856 7.855856,-7.855856 4.33867,0 7.855856,3.517187 7.855856,7.855856 z"
       sodipodi:ry="7.8558559"
       sodipodi:rx="7.8558559"
       sodipodi:cy="19.81982"
       sodipodi:cx="-25.441441"
       id="path3828"
       style="fill:#000000;fill-opacity:1;stroke:none"
       sodipodi:type="arc" />
    <path
       sodipodi:type="arc"
       style="fill:url(#radialGradient3840);fill-opacity:1;stroke:none"
       id="path3832"
       sodipodi:cx="-25.441441"
       sodipodi:cy="19.81982"
       sodipodi:rx="7.8558559"
       sodipodi:ry="7.8558559"
       d="m -17.585585,19.81982 c 0,4.33867 -3.517186,7.855856 -7.855856,7.855856 -4.338669,0 -7.855856,-3.517186 -7.855856,-7.855856 0,-4.338669 3.517187,-7.855856 7.855856,-7.855856 4.33867,0 7.855856,3.517187 7.855856,7.855856 z"
       transform="matrix(0.25458714,0,0,0.25458714,30.477064,1024.3163)" />
    <path
       transform="matrix(0.25458714,0,0,0.25458714,30.477064,1024.3163)"
       d="m -17.585585,19.81982 a 7.8558559,7.8558559 0 1 1 -15.711712,0 7.8558559,7.8558559 0 1 1 15.711712,0 z"
       sodipodi:ry="7.8558559"
       sodipodi:rx="7.8558559"
       sodipodi:cy="19.81982"
       sodipodi:cx="-25.441441"
       id="path3842"
       style="opacity:0.2;fill:url(#radialGradient3844);fill-opacity:1;stroke:none"
       sodipodi:type="arc" />
    <path
       style="opacity:0.4;fill:#ffffff;fill-opacity:1;stroke:none"
       d="M 19.65625 22.5 C 19.510714 22.752077 19.412053 23.007731 19.3125 23.28125 L 20.25 23.625 C 20.329642 23.406185 20.414821 23.201661 20.53125 23 L 19.65625 22.5 z "
       transform="translate(0,1004.3622)"
       id="path3881" />
    <path
       style="opacity:0.3;fill:#ffffff;fill-opacity:1;stroke:none"
       d="M 22.28125 20.3125 C 21.456498 20.612685 20.720414 21.108906 20.15625 21.78125 L 20.9375 22.4375 C 21.388831 21.899625 21.965198 21.490148 22.625 21.25 L 22.28125 20.3125 z "
       transform="translate(0,1004.3622)"
       id="path3887" />
    <path
       transform="matrix(0.63646788,0,0,0.63646788,40.19266,1016.7475)"
       style="fill:url(#linearGradient3904);fill-opacity:1;stroke:none;opacity:0.4"
       d="m -17.585585,19.81982 c 0,4.33867 -3.517186,7.855856 -7.855856,7.855856 -0.601829,0 -0.608652,-0.03513 -0.608652,-0.495414 0,-2.169335 0.879297,-4.133299 2.300927,-5.554929 1.421631,-1.42163 3.385594,-2.300927 5.554929,-2.300927 0.460284,0 0.608652,-0.02149 0.608652,0.495414 z"
       id="path3893"
       inkscape:connector-curvature="0"
       sodipodi:nodetypes="ssssss" />
  </g>
</svg>
