<?xml version="1.0" encoding="UTF-8" standalone="no"?>
<!-- Created with Inkscape (http://www.inkscape.org/) -->

<svg
   xmlns:dc="http://purl.org/dc/elements/1.1/"
   xmlns:cc="http://creativecommons.org/ns#"
   xmlns:rdf="http://www.w3.org/1999/02/22-rdf-syntax-ns#"
   xmlns:svg="http://www.w3.org/2000/svg"
   xmlns="http://www.w3.org/2000/svg"
   xmlns:xlink="http://www.w3.org/1999/xlink"
   xmlns:sodipodi="http://sodipodi.sourceforge.net/DTD/sodipodi-0.dtd"
   xmlns:inkscape="http://www.inkscape.org/namespaces/inkscape"
   width="24"
   height="24"
   id="svg3147"
   version="1.1"
   inkscape:version="0.48.3.1 r9886"
   sodipodi:docname="text-html.svg">
  <defs
     id="defs3149">
    <linearGradient
       id="linearGradient3800">
      <stop
         style="stop-color:#000000;stop-opacity:0;"
         offset="0"
         id="stop3802" />
      <stop
         id="stop3808"
         offset="0.5"
         style="stop-color:#000000;stop-opacity:1;" />
      <stop
         style="stop-color:#000000;stop-opacity:0;"
         offset="1"
         id="stop3804" />
    </linearGradient>
    <linearGradient
       id="linearGradient3779">
      <stop
         style="stop-color:#a0a0a0;stop-opacity:1;"
         offset="0"
         id="stop3781" />
      <stop
         style="stop-color:#787878;stop-opacity:1;"
         offset="1"
         id="stop3783" />
    </linearGradient>
    <linearGradient
       id="linearGradient3771">
      <stop
         style="stop-color:#f9f9f9;stop-opacity:1;"
         offset="0"
         id="stop3773" />
      <stop
         style="stop-color:#c9c9c9;stop-opacity:1;"
         offset="1"
         id="stop3775" />
    </linearGradient>
    <linearGradient
       id="linearGradient4536">
      <stop
         style="stop-color:#ffffff;stop-opacity:1;"
         offset="0"
         id="stop4538" />
      <stop
         id="stop4546"
         offset="0.06216056"
         style="stop-color:#ffffff;stop-opacity:0.15686275;" />
      <stop
         id="stop4544"
         offset="0.936414"
         style="stop-color:#ffffff;stop-opacity:0.23529412;" />
      <stop
         style="stop-color:#ffffff;stop-opacity:0.39215687;"
         offset="1"
         id="stop4540" />
    </linearGradient>
    <radialGradient
       inkscape:collect="always"
       xlink:href="#linearGradient3688-166-749"
       id="radialGradient3132"
       gradientUnits="userSpaceOnUse"
       gradientTransform="matrix(2.003784,0,0,1.4,27.98813,-17.4)"
       cx="4.9929786"
       cy="43.5"
       fx="4.9929786"
       fy="43.5"
       r="2.5" />
    <linearGradient
       id="linearGradient3688-166-749">
      <stop
         id="stop2883"
         style="stop-color:#181818;stop-opacity:1"
         offset="0" />
      <stop
         id="stop2885"
         style="stop-color:#181818;stop-opacity:0"
         offset="1" />
    </linearGradient>
    <radialGradient
       inkscape:collect="always"
       xlink:href="#linearGradient3688-464-309"
       id="radialGradient3134"
       gradientUnits="userSpaceOnUse"
       gradientTransform="matrix(2.003784,0,0,1.4,-20.01187,-104.4)"
       cx="4.9929786"
       cy="43.5"
       fx="4.9929786"
       fy="43.5"
       r="2.5" />
    <linearGradient
       id="linearGradient3688-464-309">
      <stop
         id="stop2889"
         style="stop-color:#181818;stop-opacity:1"
         offset="0" />
      <stop
         id="stop2891"
         style="stop-color:#181818;stop-opacity:0"
         offset="1" />
    </linearGradient>
    <linearGradient
       inkscape:collect="always"
       xlink:href="#linearGradient3702-501-757"
       id="linearGradient3136"
       gradientUnits="userSpaceOnUse"
       x1="25.058096"
       y1="47.027729"
       x2="25.058096"
       y2="39.999443" />
    <linearGradient
       id="linearGradient3702-501-757">
      <stop
         id="stop2895"
         style="stop-color:#181818;stop-opacity:0"
         offset="0" />
      <stop
         id="stop2897"
         style="stop-color:#181818;stop-opacity:1"
         offset="0.5" />
      <stop
         id="stop2899"
         style="stop-color:#181818;stop-opacity:0"
         offset="1" />
    </linearGradient>
    <linearGradient
       inkscape:collect="always"
       xlink:href="#linearGradient4536"
       id="linearGradient4542"
       x1="23.522522"
       y1="1010.4793"
       x2="23.522522"
       y2="1028.3296"
       gradientUnits="userSpaceOnUse"
       gradientTransform="translate(-2,21.000017)" />
    <radialGradient
       inkscape:collect="always"
       xlink:href="#linearGradient3771"
       id="radialGradient3777"
       cx="12.144153"
       cy="1034.4523"
       fx="12.144153"
       fy="1034.4523"
       r="10"
       gradientUnits="userSpaceOnUse"
       gradientTransform="matrix(0,2.4875843,-1.9589388,0,2038.5729,1004.2426)" />
    <linearGradient
       inkscape:collect="always"
       xlink:href="#linearGradient3779"
       id="linearGradient3785"
       x1="4.6666665"
       y1="1030.4163"
       x2="4.6666665"
       y2="1050.3022"
       gradientUnits="userSpaceOnUse" />
    <linearGradient
       inkscape:collect="always"
       xlink:href="#linearGradient3800"
       id="linearGradient3806"
       x1="4.21875"
       y1="12.078125"
       x2="19.78125"
       y2="12.078125"
       gradientUnits="userSpaceOnUse"
       gradientTransform="matrix(1.0281124,0,0,0.99610275,-0.3373494,1028.3311)" />
    <linearGradient
       inkscape:collect="always"
       xlink:href="#linearGradient3779-5"
       id="linearGradient3797"
       x1="11.648649"
       y1="20.72072"
       x2="11.648649"
       y2="2.3416269"
       gradientUnits="userSpaceOnUse" />
    <linearGradient
       id="linearGradient3779-5">
      <stop
         style="stop-color:#234bb6;stop-opacity:1;"
         offset="0"
         id="stop3781-6" />
      <stop
         style="stop-color:#4b81c6;stop-opacity:1;"
         offset="1"
         id="stop3783-5" />
    </linearGradient>
  </defs>
  <sodipodi:namedview
     id="base"
     pagecolor="#ffffff"
     bordercolor="#666666"
     borderopacity="1.0"
     inkscape:pageopacity="0.0"
     inkscape:pageshadow="2"
     inkscape:zoom="13.875"
     inkscape:cx="6.0646569"
     inkscape:cy="10.800724"
     inkscape:document-units="px"
     inkscape:current-layer="layer1"
     showgrid="false"
     inkscape:window-width="1280"
     inkscape:window-height="751"
     inkscape:window-x="0"
     inkscape:window-y="24"
     inkscape:window-maximized="1" />
  <metadata
     id="metadata3152">
    <rdf:RDF>
      <cc:Work
         rdf:about="">
        <dc:format>image/svg+xml</dc:format>
        <dc:type
           rdf:resource="http://purl.org/dc/dcmitype/StillImage" />
        <dc:title />
      </cc:Work>
    </rdf:RDF>
  </metadata>
  <g
     inkscape:label="Livello 1"
     inkscape:groupmode="layer"
     id="layer1"
     transform="translate(0,-1028.3622)">
    <rect
       style="fill:url(#radialGradient3777);fill-opacity:1;stroke:url(#linearGradient3785);stroke-opacity:1"
       id="rect3163"
       width="19"
       height="19"
       x="2.5"
       y="1030.8622"
       rx="1.5"
       ry="1.5" />
    <path
       inkscape:connector-curvature="0"
       d="m 4.4999999,1031.362 0.0625,0.031 -0.03125,0.063 -0.1875,0.031 0.125,0.2188 0.21875,0.031 0.25,-0.125 -0.15625,-0.25 -0.28125,0 z m 0.625,0 0.15625,0.094 0.375,-0.094 -0.53125,0 z m 0.53125,0 0.03125,0.125 -0.3125,0.1563 -0.1875,-0.1563 -0.1875,0.031 0.1875,0.2187 -0.09375,0.063 -0.125,-0.125 -0.09375,0.063 0.09375,0.1563 0.125,0 -0.03125,0.1562 -0.125,0 -0.125,-0.1562 -0.125,0 0,0.094 -0.1875,0.031 0.0625,0.094 0.21875,0.063 0.21875,0.031 0.1875,0.125 0.15625,-0.094 -0.125,-0.125 0.15625,0 0.09375,-0.094 0.25,-0.031 0,-0.063 -0.125,-0.094 0,-0.094 0.375,0.063 0.5312502,-0.1875 -0.21875,-0.063 0.0625,-0.063 0.40625,0 0.0625,-0.094 -0.09375,-0.031 -1.0625002,0 z m 12.3750001,0 0,0.031 0.09375,0 0.03125,-0.031 -0.125,0 z m 0.25,0 0.03125,0.031 0.125,-0.031 -0.15625,0 z m 0.3125,0 0.0625,0.125 0.09375,-0.125 -0.15625,0 z m -14.7187501,0.031 c -0.068015,0.01 -0.1246089,0.04 -0.1875,0.063 l 0.15625,0.125 0.0625,0 0,-0.1563 -0.03125,-0.031 z m 0.25,0 -0.125,0.031 0.0625,0.063 -0.0625,0.125 0.0625,0.094 0.1875,-0.094 0,-0.094 -0.125,-0.125 z m 4.2812502,0.031 -0.21875,0.031 -0.03125,0.125 0.21875,0.063 -0.21875,0.1562 -0.15625,-0.1872 -0.21875,-0.063 -0.03125,0.1875 -0.25,0 -0.0625,-0.1875 -0.34375,-0.063 -0.1875,0.094 -0.03125,0.125 -0.21875,-0.031 -0.15625,0.063 0,0.1563 0,0.063 -0.25,0.063 -0.1250002,-0.094 -0.09375,0.1563 0.1250002,0.125 0.25,-0.031 0.03125,0.094 -0.1875,0.094 -0.1875002,-0.094 -0.0625,0.094 0.09375,0.094 -0.03125,0.094 0.1250002,0.1875 0.1875,-0.063 0.21875,-0.031 0.25,0.2812 0.15625,0.4375 -0.125,0.2813 0.1875,-0.031 0.09375,0.063 0,0.1563 -0.21875,0 0.125,0.125 0.15625,0.031 -0.34375,0.4688 -0.03125,0.2812 0.0625,0.2188 -0.0625,0.1562 0.09375,0.2813 0.1875,0.1875 0.0625,0 0.09375,-0.031 0.03125,0.1563 0.0625,0.125 0.125,-0.031 0.125,-0.375 0.3125,-0.375 0.46875,-0.1875 0.28125,-0.375 0.15625,0.063 0.28125,0 0.21875,-0.25 0.28125,-0.094 0.03125,-0.1875 -0.15625,-0.1563 -0.15625,-0.063 -0.09375,-0.2187 0.1875,-0.094 0.3125,0.1563 0.125,-0.125 -0.1875,-0.094 0.3749999,-0.4687 -0.0625,-0.2188 -0.1874999,0 0.0625,-0.1875 0.2187499,-0.094 0.4375,-0.375 -0.125,-0.1563 -0.4999999,0.063 -0.25,0.25 0.15625,-0.3437 -0.15625,-0.031 -0.09375,0.1563 -0.15625,-0.094 -0.375,0.031 0.09375,-0.1563 0.625,-0.031 -0.15625,-0.2188 -0.65625,-0.125 -0.28125,0.063 0,0.125 -0.28125,-0.094 0.03125,-0.094 z m 10.4374999,0.031 -0.09375,0.2187 0.09375,0.094 -0.5625,0.2812 -0.46875,0.375 -0.28125,0.4063 0,0.1562 0.28125,0.125 -0.15625,0.125 -0.3125,-0.125 -0.125,0.125 -0.21875,-0.25 -0.03125,0.094 0.21875,0.6875 0.0625,0.031 0.15625,-0.063 0.0625,0.031 0,0.1562 -0.125,-0.063 -0.09375,0.063 0.0625,0.125 -0.0625,0.3438 -0.28125,0 -0.03125,-0.094 0.1875,-0.094 0.03125,-0.3125 -0.1875,-0.25 -0.09375,-0.4375 -0.28125,-0.063 -0.03125,0.1562 0.03125,0.094 -0.125,0.094 0.0625,0.3125 0.1875,0.063 0.03125,0.2188 -0.1875,-0.125 -0.46875,-0.063 -0.0625,0.1562 -0.375,0.125 -0.0625,-0.094 -0.5,0.2812 0,0.1875 -0.1875,0 0.0625,-0.125 0,-0.125 -0.1875,-0.094 -0.15625,0.063 0.125,0.2187 0.0625,0.125 0,0.094 -0.125,-0.031 -0.03125,0 -0.15625,0.1563 0.09375,0.125 -0.34375,0 0.125,0.125 -0.03125,0.063 -0.1875,0 -0.125,-0.094 -0.03125,-0.25 -0.1875,-0.063 0,-0.094 0.40625,0.063 0.25,0.031 0.09375,-0.1562 -0.09375,-0.1563 -0.625,-0.2187 -0.21875,0.031 0,-0.063 -0.0625,-0.031 0,-0.094 0.0625,0 0,-0.031 -0.1875,-0.063 -0.28125,0.031 -0.03125,0.125 -0.0625,-0.031 -0.03125,-0.063 -0.125,0 -0.03125,0.1562 -0.0625,0.031 -0.03125,-0.094 -0.28125,0.25 0.0625,0.063 -0.125,0.031 -0.21875,0.5 -0.09375,0.031 0,0.063 0.09375,0.031 -0.03125,0.094 -0.125,0 -0.0625,-0.063 -0.09375,0.125 -0.0625,0.031 0,0.094 -0.0625,0.031 -0.125,0.031 -0.0625,0.1875 0.0625,0.3438 0.03125,0.1562 0.0625,0.031 0.125,0 0.1875,-0.1875 0.0625,-0.094 0.03125,0.1563 0.125,-0.2188 0,-0.5937 0.09375,-0.063 0.03125,-0.3125 0.3125,-0.4063 0,-0.031 0.125,-0.031 0.0625,-0.094 0.21875,0.063 0.09375,0.063 0.0625,-0.1875 0.15625,-0.094 0,0.031 0.125,0.125 0,0.031 0.03125,0.1563 0.09375,0 -0.03125,0.25 0.28125,0.6562 -0.21875,0.3125 0,0.063 0.09375,0.094 -0.09375,0.063 -0.0625,0 0.03125,0.2812 0.0625,0.125 0,0.094 0.125,0.031 -0.125,0 -0.09375,0.031 0,0.094 -0.03125,0 0,-0.125 -0.25,-0.125 -0.09375,0 -0.09375,0.125 -0.125,0 0.03125,0.125 -0.0625,0.094 0.1875,0 0.0625,0 0.0625,0.063 0.15625,0 0,0.031 -0.125,0 0.03125,0.094 0,0.094 0,0.063 0.03125,0.063 0.09375,-0.063 0.15625,0 0.09375,0.031 0.28125,0 0.0625,-0.1875 0.0625,-0.063 0,-0.031 -0.15625,-0.25 0.1875,0.2188 0,0.094 -0.0625,0.094 0.125,-0.031 0.125,0.063 0,0.031 0.1875,0.1875 0.40625,0.063 0.03125,0 -0.03125,0.2812 -0.03125,0 0.03125,-0.2812 -0.4375,-0.031 -0.15625,-0.2187 -0.125,-0.063 -0.125,0.031 -0.0625,0.1563 -0.3125,0 -0.09375,-0.063 -0.125,0 -0.125,0.063 0,0.063 0.03125,0.063 -0.09375,0.2187 0,0.094 0,0.031 0.03125,0 0.3125,0 0.09375,-0.063 0.09375,0.031 0.125,0.1875 -0.09375,0.1562 0.125,0.031 0.15625,-0.1563 0.09375,0 0.0625,0.063 -0.0625,0.094 0.09375,0.1562 0.09375,0 0.0625,-0.094 0.09375,-0.031 0,-0.094 -0.1875,-0.031 0,-0.063 0.1875,0 0.21875,-0.1875 -0.03125,0.063 0.03125,0.063 -0.125,0.1563 -0.0625,0.125 0.09375,0.125 0.28125,0.094 0.125,-0.063 0.75,0.2813 0,0.063 -0.21875,-0.094 -0.0625,0.063 0.1875,0.25 -0.03125,0 -0.1875,-0.25 -0.125,0.063 -0.03125,0.094 0.15625,0.125 0.15625,0.031 0,0.031 -0.15625,-0.031 -0.1875,-0.125 0.03125,-0.125 -0.09375,0 -0.15625,-0.063 -0.09375,0.094 -0.3125,-0.031 -0.1875,-0.094 -0.1875,0 0,-0.031 -0.21875,0.1563 -0.1875,0.031 -0.03125,0.094 -0.21875,0 -0.09375,0.094 0,0.031 0.0625,0.063 0,0.031 -0.03125,0.063 0.03125,0.063 0.0625,-0.031 0.09375,0.063 -0.03125,0.063 -0.03125,0.031 0.03125,0.063 0.21875,0.031 0.125,-0.063 0,-0.094 0.0625,0.031 0.1875,0.094 0.15625,-0.031 0.09375,-0.094 0.03125,0.031 0,0.094 0,0.125 0.09375,0.031 0,0.2812 0.09375,0 0.125,-0.094 0.03125,0 0.25,-0.2188 0.0625,-0.25 -0.5,0.031 -0.0625,0.125 -0.03125,-0.031 0.0625,-0.125 0.53125,-0.063 0.21875,-0.031 -0.0625,-0.063 0,-0.094 0.03125,0 0,0.063 0.0625,0.094 0,0.031 0.21875,0.1875 -0.03125,0.094 -0.0625,0 0,0.094 0.125,0.1563 0.09375,0 0.21875,0.3125 0.125,0 0.09375,0.063 0,0.1562 0.375,0.2188 0.15625,0 0.0625,-0.094 0.125,0 0.0625,0.1563 0.40625,0.063 0,-0.1563 0.125,-0.063 0.03125,-0.031 -0.125,-0.1563 -0.1875,-0.1875 0.09375,-0.125 -0.03125,-0.031 -0.15625,-0.031 -0.0625,-0.5312 0,-0.125 -0.4375,-0.1563 -0.1875,0.031 -0.09375,0.125 -0.09375,0 -0.03125,0.031 -0.21875,-0.031 -0.25,-0.1875 0,-0.031 0.0625,-0.1875 0.125,0.031 -0.03125,-0.063 -0.1875,-0.1563 0,-0.031 -0.15625,-0.1563 0,-0.1875 -0.09375,-0.031 0,-0.1563 0.15625,-0.1875 -0.28125,-0.1875 0.03125,-0.3125 0.28125,-0.1875 0.375,0.031 0.03125,0.094 0.375,0.031 0.25,-0.1563 -0.125,-0.1562 0.03125,-0.25 0.03125,0 -0.03125,0.25 0.15625,0.1562 -0.3125,0.1875 -0.375,-0.031 0,-0.031 -0.0625,-0.063 -0.3125,-0.031 -0.28125,0.1875 0,0.25 0.21875,0.2187 0.03125,0 0.15625,-0.063 0.1875,-0.031 0,0.2812 -0.09375,0 -0.09375,0.125 0.125,0.1875 0.15625,0.063 0,0.125 0.0625,-0.031 0.03125,-0.063 0.09375,0.031 0.0625,0.063 0.09375,0 0,-0.094 -0.0625,-0.1875 -0.03125,-0.1875 0.1875,-0.063 0.25,0.031 0.1875,0.1563 0.375,-0.031 0.1875,0.3125 0.25,0 0.0625,-0.125 0.09375,0 0,-0.125 0.125,0 0.09375,0.063 0.0625,-0.1562 0.5625,0.094 0.09375,-0.125 -0.15625,-0.2187 0.21875,-0.4688 0.1875,0 0.125,-0.2812 -0.25,-0.031 -0.15625,-0.125 -0.375,0.031 -0.5,-0.4688 -0.1875,0.1563 -0.53125,-0.25 0.03125,-0.031 0.5,0.25 0.1875,-0.1562 0.5,0.4687 0.40625,-0.031 0.125,0.125 0.25,0.063 0.03125,0 0.09375,0 0.25,-0.3438 0.28125,0.125 0.1875,0.031 0.15625,-0.125 -0.15625,-0.094 0.125,-0.2187 0.375,0.125 0.0625,0.1562 0.09375,0 0,-4.1875 c 0,-0.2126 -0.07524,-0.4008 -0.1875,-0.5625 l -0.125,0 0.0625,0.25 -0.1875,0.094 -0.15625,-0.1563 -0.625,0.125 -0.25,0.2188 0,0.125 -0.15625,0.031 -0.03125,-0.1562 0.5,-0.4375 0,-0.2813 -0.3125,-0.094 -0.4375,0.125 -0.15625,-0.1875 -0.09375,0 z m 2.0625,5.0937 -0.09375,-0.125 -0.3125,-0.094 -0.09375,0.125 0.15625,0.125 -0.21875,0.1875 -0.1875,-0.031 -0.28125,-0.125 -0.21875,0.2813 0.0625,0.1562 0.125,0 0.25,0.4375 0.46875,0.031 0.0625,0.1875 0.25,0.063 0.125,-0.063 0,-1.0938 -0.09375,-0.031 0,-0.031 z m -1.375,0.3438 -0.15625,0.3437 -0.1875,0 -0.1875,0.4063 0.1875,0.2187 -0.34375,0.4688 -0.1875,-0.031 0,-0.031 0.15625,0.031 0.21875,-0.2812 -0.5625,-0.063 -0.0625,0.1562 -0.09375,-0.094 -0.09375,0 0,0.094 0,0.063 0.34375,0.125 -0.3125,0.125 -0.03125,-0.031 0,-0.031 -0.03125,-0.031 -0.0625,0 0,-0.031 0.0625,0 0.09375,0.063 0.1875,-0.063 -0.28125,-0.094 0,-0.063 -0.0625,0.031 -0.0625,0.094 -0.28125,0 0,-0.031 -0.21875,-0.25 -0.34375,0.031 -0.1875,-0.1875 -0.25,-0.031 -0.15625,0.063 0.09375,0.3438 0,0.125 0.0625,0 0.09375,-0.1875 0.25,0 0.03125,0.125 0.5,0.3437 0.21875,0.063 0.03125,0.125 0.125,0 0,-0.2187 0.03125,0 0,0.2187 0.0625,0 0.09375,-0.031 0,-0.063 0.03125,0 0,0.094 -0.125,0.031 -0.21875,0 -0.28125,0.2812 -0.28125,0 0.0625,0.4688 0.15625,0.031 0,0.063 0.03125,0.031 -0.125,0.094 0.21875,0.1563 0.375,-0.1563 0.03125,-0.1562 0.25,-0.1563 0.09375,-0.3437 0.03125,0 -0.09375,0.375 -0.25,0.1562 -0.03125,0.1563 -0.40625,0.1562 0.125,0.1563 -0.03125,0.063 -0.125,0.063 0,0.125 0.15625,0 0.03125,-0.063 0.3125,0 0.25,0.25 0.03125,-0.125 0.1875,0 0,-0.125 0.03125,0 0,0.1562 -0.1875,0 -0.03125,0.094 0.15625,0 0,0.063 -0.09375,0.063 0.0625,0.1562 0.15625,0.031 0.09375,-0.063 0.03125,-0.125 0.0625,0 0.0625,0.063 -0.03125,0.1562 -0.03125,0.063 0,0.125 0.625,1.3125 0.1875,-0.094 0.09375,-0.375 0,-0.4688 0.59375,-0.6562 0,-0.125 0.125,-0.063 0,-0.1875 -0.125,-0.25 0.0625,-0.125 0.03125,0.031 0.15625,0.094 0.1875,0.031 0.03125,0 0,0.094 -0.09375,0.063 0.03125,0.031 0.125,0 0,0.1563 -0.03125,-0.125 -0.125,0 0,-0.063 0,-0.031 0.0625,-0.094 0,-0.031 -0.1875,0 -0.15625,-0.125 -0.0625,0.094 0.125,0.25 0,0.1875 0.03125,0.031 0.15625,0 0.09375,-0.063 0.0625,0.031 0,0.125 0.0625,-0.031 0,-0.1562 0.03125,-0.063 0,-0.7813 -0.25,0.1563 0,0.094 0.03125,0.063 -0.25,0 -0.09375,-0.125 -0.03125,0 0,0.1563 -0.53125,-0.031 -0.34375,-0.1562 0,-0.1875 -0.21875,-0.125 -0.03125,-0.2813 -0.125,-0.1875 -0.375,0.031 0.0625,0.1562 0.125,0.125 0.03125,0 -0.28125,0.625 -0.21875,0 -0.03125,0.094 -0.03125,0 0.03125,-0.125 0.21875,0 0.28125,-0.5938 -0.15625,-0.094 -0.0625,-0.2188 0.375,-0.031 -0.21875,-0.3125 -0.125,-0.031 -0.03125,0 -0.0625,-0.1562 -0.125,-0.031 0.15625,0 0.0625,0.1563 0.125,0.031 0,0.031 0.4375,0.5 0,0.2812 0.1875,0.125 0.21875,-0.031 0.28125,0.1562 0.34375,0.094 0.15625,-0.031 0.1875,0 0.28125,-0.1875 0,-1.9062 -0.125,0.063 -0.28125,-0.094 -0.0625,-0.1875 -0.46875,-0.031 -0.25,-0.4063 -0.09375,0 -0.09375,-0.1875 -0.09375,-0.031 z m 1.21875,3.0937 -0.03125,-0.094 -0.25,0.031 0.0625,0.063 0.21875,0 z m -4.96875,-0.7187 0,-0.031 0.03125,0 0,-0.063 -0.15625,-0.1875 -0.21875,0.031 -0.0625,0.3125 -0.25,0.2187 0,0.094 0.25,0 0.40625,0.3125 0.21875,0 0,-0.063 0.03125,0 0,0.125 0.125,0.063 0,-0.1875 -0.09375,-0.063 0,-0.031 0.125,0.063 -0.21875,-0.3125 -0.09375,0 -0.125,-0.1875 0.03125,-0.094 z m 0.375,0.8125 -0.15625,-0.031 0,-0.063 -0.25,0 -0.375,-0.3125 -0.21875,0 -0.125,0.063 0.0625,0.063 0,0.094 -0.1875,0.1562 -0.15625,0 0,0.094 -0.03125,-0.094 -0.03125,-0.094 -0.0625,-0.2188 -0.03125,0 -0.125,0 -0.09375,-0.063 -0.0625,0 -0.125,0.094 -0.09375,0 -0.1875,-0.031 -0.09375,0 0,1.1563 1,0 0.09375,-0.125 0,-0.1875 -0.375,-0.4375 -0.03125,-0.1563 0,-0.094 0.0625,0 0.0625,0.25 0.09375,0.031 0.03125,0 0.53125,0.625 0,0.1875 0.0625,0.063 0.15625,0.063 0.21875,0.375 0.0625,0.1875 0,0.1563 0,0.031 -0.0625,0.125 -0.03125,0.125 0.15625,0 0,-0.1875 0.0625,0.031 0.9375,-0.4063 0.03125,-0.094 0,-0.031 -0.15625,-0.25 -0.375,0.125 0,-0.031 0.375,-0.125 0.28125,-0.1563 0.0625,-0.1875 -0.0625,-0.031 -0.40625,-0.031 -0.03125,-0.1875 0,-0.031 0.0625,0 0,-0.1875 -0.03125,-0.031 -0.0625,0.031 -0.03125,0.1562 -0.03125,0 -0.28125,-0.375 -0.03125,-0.031 z m 0.40625,0.4687 0.0625,0.1563 0.375,0.031 0.03125,-0.2812 0,0.2812 0.0625,0.031 -0.0625,0.25 -0.28125,0.1562 0.125,0.25 0.21875,0 0.40625,-0.625 0,-0.094 -0.34375,-0.1875 -0.0625,-0.094 0,-0.125 -0.09375,0.031 -0.15625,0.2187 -0.28125,0 z m -1.75,0.3438 0,0.031 -1,0 0.03125,0.25 -0.09375,0 -0.03125,0.4375 -0.03125,0 0,-0.4375 -0.03125,-0.031 0.125,0 0,-1.4063 -0.1875,-0.031 -0.09375,-0.125 -0.21875,0 -0.09375,0.094 0,0.063 0.0625,0.063 0,0.063 -0.15625,0.063 -0.28125,-0.125 -0.09375,-0.125 -0.3125,-0.094 -0.125,0.1562 0,0.031 -0.03125,0 0,0.125 -0.03125,0 -0.03125,0.031 0,0.5313 0.0625,0.094 0.125,0.031 0.09375,0.125 0.3125,0.063 0.09375,-0.031 -0.09375,0.063 0.125,0.2188 -0.03125,0.4375 -0.1875,0.1875 0,0.125 -0.09375,0.063 0.125,0.094 0.0625,0.031 0.03125,0 0,0.25 -0.03125,0 0,-0.25 -0.0625,0 0,0.125 -0.28125,0.5312 -0.03125,0 -0.15625,0.031 -0.125,0.063 -0.03125,0.125 0.125,0.125 0,0.1875 0.21875,0 0,0.094 -0.21875,0 -0.15625,0.25 0.3125,0.3438 0.09375,-0.063 0,-0.063 -0.03125,-0.031 -0.03125,0 0,-0.063 0.125,-0.063 0.09375,0.094 0.125,0 0,-0.4063 -0.15625,-0.031 -0.03125,0 0,-0.063 0.03125,0 0.3125,-0.031 0,0.031 -0.3125,0 0,0.063 0.1875,0 0,0.5 -0.15625,-0.031 -0.09375,-0.063 -0.09375,0.031 0,0.031 0.0625,0 0,0.125 -0.09375,0.063 0,0.063 0.125,-0.094 0.0625,0 0,0.063 0.03125,0.031 0.0625,0 0.21875,-0.2187 0,-0.125 0.0625,-0.125 0.125,-0.125 0.0625,-0.375 -0.125,0 0,-0.031 0.125,0 0.03125,-0.063 0,-0.031 0.09375,-0.063 0.21875,0.1562 0.15625,-0.125 0.5,0 0.0625,0.031 0.21875,0.031 -0.78125,-0.031 -0.125,0.125 -0.03125,-0.031 -0.21875,-0.125 -0.09375,0.063 -0.0625,0.5 -0.125,0.125 -0.0625,0.094 0,0.1562 -0.25,0.2188 -0.0625,-0.031 0,0.031 -0.03125,0 0,-0.063 -0.03125,-0.031 -0.03125,0 -0.09375,0.094 0.0625,0.094 0.03125,0 0.40625,-0.031 0.09375,0.125 0,0.094 0.03125,0 0.1875,0 0.0625,-0.094 0.0625,0 0.03125,0.031 0.125,0 0.03125,0.375 0.1875,0.031 0,0.031 0.5,0.2188 0.03125,0.063 0.125,0 -0.03125,-0.1875 -0.15625,-0.094 -0.03125,0 0,-0.125 0.09375,-0.1875 0.1875,0 -0.09375,-0.4062 0,-0.031 0.0625,0 0.03125,-0.031 0.03125,-0.1563 -0.15625,0 0,0.094 -0.03125,-0.031 0,-0.2187 0.25,-0.4063 0,-0.063 -0.03125,0 0,-0.125 0.03125,0 0,0.094 0.0625,0.031 -0.03125,0.094 -0.15625,0.25 0.09375,0.125 0.09375,-0.063 0.1875,-0.031 0.03125,0 0.03125,-0.063 0.09375,-0.25 -0.09375,-0.1875 0,-0.094 0.03125,0 0,0.094 0.09375,0.1875 -0.09375,0.25 -0.03125,0.094 0.625,0.375 0.1875,-0.3125 0.03125,0 0.84375,-0.9063 0.15625,-0.4375 0,-0.1562 -0.0625,-0.031 -0.15625,0.063 0.03125,0.1563 -0.03125,0.125 -0.03125,0 0.03125,-0.125 -0.03125,-0.1563 -0.40625,0.1563 -0.03125,0 -0.15625,-0.125 0,0.094 0.3125,0.1875 0.21875,0.031 0,0.031 -0.03125,0.031 -0.21875,-0.031 -0.28125,-0.1875 0,-0.063 -0.03125,-0.031 -0.1875,0 0,-0.1875 -0.25,-0.2188 -0.25,0 -0.28125,0.625 -0.03125,0 0.25,-0.5937 0,-0.2813 0.15625,-0.2187 -0.28125,-0.4688 -0.15625,0.094 z m -0.28125,2.625 -0.125,-0.094 -0.0625,0.094 0,0.125 0.15625,0 0.03125,-0.094 0,-0.031 z m -0.15625,0.375 0.15625,0.4375 0.1875,0.094 0.15625,0 0,0.063 -0.125,-0.031 0.0625,0.2812 -0.03125,0.2188 0.125,0.125 -0.03125,0.1562 0.03125,0.063 0.15625,-0.1562 0,-0.2188 0.03125,0 0,0.25 -0.1875,0.1875 -0.0625,-0.094 0,-0.1563 -0.125,-0.125 -0.28125,0.125 0.25,0.1563 0.03125,0 0,0.4062 -0.1875,0.2813 0,0.3125 0.125,0.094 0.21875,-0.1562 0.0625,-0.2188 0,-0.375 0.375,-0.3125 0.0625,0 0.25,-0.2187 -0.03125,-0.4688 -0.625,0.063 0,0.1563 -0.03125,-0.1875 0.625,-0.094 -0.125,-0.2812 -0.03125,-0.2813 0.0625,-0.125 -0.65625,-0.4062 -0.1875,0.031 -0.0625,0.063 0,0.125 -0.0625,0.1563 -0.03125,0.063 -0.09375,0 z m 0.3125,1.375 -0.3125,-0.125 -0.09375,0.031 -0.15625,0.25 -0.21875,0 0,0.031 0.34375,0.4062 0.25,0.063 0.1875,-0.2812 0,-0.375 z m -0.46875,-0.6563 0.21875,0.094 0,0.2187 -0.15625,0 0,-0.031 -0.0625,-0.031 -0.46875,-0.2187 0,0.1562 -0.21875,0.031 -0.03125,0.3437 0,-0.375 0.21875,-0.031 0,-0.1563 -0.1875,0 -0.03125,-0.375 -0.09375,0 -0.03125,-0.031 -0.0625,0 -0.0625,0.094 -0.21875,0 -0.0625,-0.031 0.03125,-0.094 -0.0625,-0.094 -0.4375,0 0.15625,0.5 0,0.1562 -0.21875,0.2188 -0.03125,0.3125 0.71875,0.031 -0.71875,0 0,0.031 0.03125,0.1875 0.25,0.3437 -0.0625,0.1875 0,0.094 0.1875,0.4687 0.125,0 0,0.031 0.09375,0.063 0.1875,0 0.03125,-0.5313 0,-0.3125 0.125,-0.031 0.03125,-0.3438 0.28125,-0.031 0.125,-0.063 -0.1875,-0.031 -0.03125,0 -0.09375,-0.1562 0.125,0.125 0.1875,0.031 0.09375,0.031 0.1875,0 0.15625,-0.25 0.5,-0.2188 0.03125,-0.1875 -0.0625,-0.25 -0.25,-0.1562 -0.15625,0.031 -0.09375,0.1563 0,0.094 z m -0.40625,0.7813 -0.09375,0.094 -0.28125,0.031 -0.03125,0.3437 -0.125,0.031 0,0.3125 0.09375,0.031 -0.03125,0.2188 0.09375,0.031 0.1875,-0.1875 0.25,0.031 0.0625,-0.1563 0.28125,-0.2812 -0.34375,-0.4063 0,-0.063 -0.0625,-0.031 z m -0.875,1.25 -0.09375,0 0.09375,0.2812 0.15625,0.1563 -0.125,0.1562 0.09375,0.1875 0.1875,0.063 0.125,-0.125 0.4375,0 0.03125,-0.031 0.15625,-0.031 0.625,-0.625 0,-0.2187 -0.0625,0.063 0,0.031 -0.09375,0 -0.125,-0.094 0.03125,-0.031 0.03125,-0.125 0.09375,-0.031 0,-0.3125 -0.21875,-0.031 -0.3125,0.2813 -0.0625,0.1562 -0.25,-0.031 -0.21875,0.1875 -0.125,-0.031 0,-0.2187 -0.03125,-0.031 -0.03125,0.5 -0.25,0 -0.0625,-0.094 z m 1.4375,-0.2188 0.09375,0.094 0.09375,0 0.0625,-0.125 -0.09375,-0.094 -0.09375,0.031 -0.0625,0.094 z m -2.25,-3.7187 0.125,-0.094 0.15625,0 0.28125,-0.5312 0,-0.125 -0.125,-0.094 -0.28125,0.094 -0.34375,0 -0.15625,-0.094 -0.125,0.031 -0.0625,0.094 0,0.3125 -0.125,0.1563 0,0.2187 0.15625,0 0.1875,0.1875 0.09375,0.031 0.0625,-0.031 0.09375,0 0.03125,-0.1562 0.03125,0 z m 0.34375,-2 -0.03125,0 -0.6875,0.5625 -0.125,0 -0.03125,0.375 -0.375,0.031 0.21875,0.3125 -0.03125,0.031 -0.21875,-0.3438 -0.125,0.031 -0.40625,0.2812 -0.0625,0.2188 -0.0625,0 -0.1875,0 -0.0625,0 0,0.1875 -0.03125,0 0,0.031 -0.0625,0.094 0.125,0.1562 0.03125,0.25 0.15625,-0.125 0.21875,-0.031 0.1875,0.031 -0.0625,-0.125 -0.03125,-0.031 -0.03125,-0.094 0.03125,-0.2812 0.03125,-0.125 0.03125,0 -0.0625,0.4062 0.03125,0.125 0.125,0.1563 0.0625,0 0.15625,-0.094 0,-0.5312 -0.125,-0.063 0.15625,0.031 0,0.5313 0.125,-0.063 -0.03125,-0.375 -0.0625,-0.125 0.03125,-0.031 0.0625,0.1563 0.03125,0.375 0.0625,0 0,-0.2188 0.125,-0.1562 -0.03125,-0.25 -0.0625,0 0,-0.031 0.0625,0 0.09375,-0.125 0.15625,-0.031 0.15625,0.094 0.34375,0 0.25,-0.094 0.09375,-0.094 0.03125,-0.094 0.15625,-0.1875 0.0625,-0.4063 -0.125,-0.25 -0.28125,-0.094 z m -2.21875,1.6875 0,-0.1875 0,-0.031 -0.09375,-0.1875 -0.2187499,0.031 -0.28125,0 0,0.063 -0.15625,0.125 0.125,0.1875 0.21875,0.2187 L 10,1042.4242 l -0.09375,-0.1562 -0.125,0 0.15625,-0.031 0.125,0.1875 0.09375,0.063 0.0625,-0.094 0.03125,0 z m -0.1875,0.031 -0.03125,0 -0.1562499,0.2188 0.4374999,0.2812 -0.03125,-0.2187 -0.125,-0.1563 -0.09375,-0.125 z m -0.1249999,-0.4062 0,-0.063 -0.125,-0.1875 0,-0.031 -0.15625,-0.1562 -0.09375,-0.063 -0.0625,0.031 -0.15625,0.094 -0.03125,0.063 -0.03125,0.063 0.0625,0.031 0.1875,0 0.125,-0.031 0,0.063 0,0.094 -0.03125,0 -0.25,0 0.03125,0.125 0.03125,-0.094 0.3125,0.031 0.03125,0 0.15625,0.031 z m -0.125,-0.2813 0.03125,0 0.125,-0.094 0.6249999,-0.031 -0.15625,-1.0625 0.15625,0 -0.3125,-0.2187 0,0.1562 -0.3749999,0 0,0.2813 -0.03125,0 0,-0.3125 0.3749999,0 0,-0.375 0.375,-0.094 0.15625,-0.25 0.25,-0.031 -0.0625,-0.4063 -0.46875,0 -0.0625,0.1875 -0.21875,0.094 -0.15625,0.4687 -0.3124999,0.1875 -0.46875,0.75 0.4375,0 0.03125,-0.2187 0.03125,0 -0.03125,0.2187 -0.03125,0 -0.4375,0.031 0.09375,0.094 -0.03125,0.4688 0.125,-0.063 0.09375,-0.031 0.125,0.031 0.125,0.2187 z m 0.7812499,-1.1875 0.0625,0.031 0.84375,0.6562 -0.84375,-0.625 0,-0.031 -0.1875,0.031 0.15625,1.0625 -0.6562499,0 -0.125,0.063 0.125,0.1875 0,0.063 0.1874999,0 0.03125,0 0.0625,0.1875 0.28125,0 0.03125,0 0.0625,-0.2187 0.40625,-0.2813 0.53125,-0.063 0.03125,-0.3437 -0.0625,-0.031 0.1875,0 0.71875,-0.5312 -0.09375,-0.094 -0.125,-0.031 -0.0625,-0.125 0,-0.5313 0,-0.031 0.0625,0 0,-0.1563 0.0625,0 0.09375,-0.1875 -0.125,-0.031 0,-0.063 0.03125,-0.063 0,-0.125 -0.03125,-0.031 0,-0.063 0.03125,-0.031 0,-0.063 -0.09375,-0.063 0,0.031 -0.1875,0.063 0.03125,0.2813 -0.03125,0 -0.03125,0.063 0.03125,0.125 0.125,0.125 0,0.1562 -0.03125,0 0,-0.125 -0.125,-0.1562 -0.03125,-0.1563 0.0625,-0.031 -0.03125,-0.1563 -0.03125,-0.125 -0.15625,-0.031 -0.65625,0.125 -0.125,0.094 0.09375,0.4688 -0.28125,0 -0.15625,0.25 -0.375,0.094 0,0.1875 0.3125,0.25 z m 4.03125,-0.8125 0.09375,0.2188 0.09375,-0.3438 0,-0.063 -0.09375,-0.031 -0.03125,0 -0.0625,0.2187 z m 0.09375,-0.2187 0.09375,0 0,-0.1563 -0.09375,-0.031 0.03125,0.063 -0.03125,0.125 z m 0.3125,0.2187 0.09375,-0.094 -0.03125,-0.094 -0.03125,0 -0.09375,0.094 -0.125,0 -0.09375,0.3437 0,0.031 0.125,0 0.1875,-0.1563 0,-0.031 -0.0625,-0.094 0.03125,0 z m -1.65625,-2.1875 -0.03125,0 -0.21875,0.094 -0.3125,0 -0.03125,0.094 0,0.094 0.0625,0.031 0.21875,0 0.3125,-0.25 0,-0.063 z m 0.0625,-0.4062 -0.03125,-0.063 -0.03125,-0.063 0,-0.094 0,-0.063 -0.09375,-0.1562 -0.0625,0 -0.3125,-0.031 0,-0.063 -0.0625,0 -0.15625,0.063 -0.15625,0.125 0,0.25 0.09375,0.125 0.15625,0.094 -0.15625,-0.063 -0.125,0 -0.15625,0.125 -0.03125,0 0,-0.031 0.1875,-0.094 0.09375,-0.031 -0.09375,-0.094 0,-0.2813 -0.09375,-0.063 -0.09375,-0.031 -0.09375,0.063 -0.0625,-0.031 -0.0625,-0.063 -0.125,0.031 0,0.094 -0.125,0.031 0.03125,0.2187 -0.03125,0 -0.0625,0.063 -0.03125,0.125 0.09375,0.094 -0.03125,0.094 -0.03125,0 -0.0625,0 -0.28125,-0.1875 -0.09375,0.031 -0.1875,0.1875 -0.03125,0 -0.0625,-0.063 -0.0625,0 -0.03125,0.125 -0.25,0 0,0.063 0.1875,0.094 0.1875,0.1875 0,0.1875 -0.09375,0.1875 0.21875,0.094 0.21875,0 0.09375,-0.063 0.125,0 0.0625,0.031 0.125,0 0.09375,-0.125 -0.09375,-0.094 0,-0.063 0,-0.094 -0.03125,-0.063 -0.09375,0.031 0,-0.063 0.15625,-0.2188 0,-0.125 0.03125,0 0.03125,0.125 0.125,0.031 0.03125,0.063 0.0625,0 0.03125,-0.063 0.125,0 0.15625,-0.063 0,-0.094 0.03125,0 0,0.094 -0.03125,0 -0.125,0.094 -0.125,0 -0.03125,0.031 0,0.063 0.09375,-0.031 0.09375,0 0.0625,0.063 0.1875,-0.031 0.125,-0.063 0.03125,-0.063 0,-0.063 0.03125,0 0,0.031 0.3125,0 0.21875,-0.094 0,-0.094 -0.0625,0.031 -0.0625,-0.031 -0.03125,0 -0.09375,0.031 -0.125,-0.031 -0.1875,0.125 0.15625,-0.1562 0.03125,0 0.125,0.031 0.09375,-0.031 0.03125,0 0.0625,0.031 0.0625,-0.031 0.0625,-0.125 0.03125,-0.063 0,-0.063 z m -1.625,0.7187 0.0625,0.031 0.09375,-0.031 0.09375,0.063 0,0.031 -0.09375,-0.063 -0.09375,0.031 0,0.063 0,0.063 0.09375,0.125 0.125,0 0.34375,0.3438 0.1875,0.063 0.125,0.125 0.03125,0.25 0.0625,-0.031 0.03125,-0.1562 0,-0.094 0.09375,0 0,-0.063 -0.25,-0.125 -0.25,-0.25 -0.09375,-0.1562 -0.03125,-0.125 0.125,-0.031 -0.03125,-0.094 -0.09375,-0.063 -0.0625,0 -0.09375,0.031 -0.09375,0.094 0.0625,-0.125 0,-0.031 -0.09375,0 -0.03125,-0.063 -0.125,-0.031 -0.15625,0.1875 0.0625,0 0,0.031 z m -0.8125,0.375 -0.03125,0 -0.5,0 -0.09375,-0.031 -0.0625,0 -0.03125,0.125 0,0.125 0.1875,0 0.03125,0.094 -0.09375,0.4688 0,0.063 0.15625,0.094 0.15625,0 0.28125,-0.094 0.15625,-0.1875 0,-0.1875 0.28125,-0.2188 0,-0.125 -0.21875,0 L 11,1038.237 z m -0.59375,0.8438 -0.03125,-0.063 0.09375,-0.4688 -0.03125,-0.063 -0.15625,0 0,0.3438 -0.09375,0.063 0.03125,0.031 0.03125,0.094 -0.03125,0.094 0.0625,0 0.125,0 0,-0.031 z m 1.4375,-2.0313 -0.03125,-0.2187 -0.1875,0.094 0.03125,0.031 0,0.094 -0.03125,-0.031 -0.03125,-0.063 -0.09375,0.1562 0.15625,0.031 0.03125,0.063 0.03125,0 0.03125,-0.125 0.09375,-0.031 z m -0.15625,0.1563 -0.0625,-0.031 -0.15625,-0.031 -0.03125,0.063 0.28125,0.1875 0.0625,0 0,-0.063 -0.0625,-0.094 -0.03125,0 0,-0.031 z m 1.59375,-0.9063 0,-0.031 -0.0625,-0.094 -0.0625,0 -0.125,0.125 0,0.063 0.0625,0.031 0.0625,0 0.09375,-0.094 0.03125,0 z m 0.34375,0.125 0.125,-0.031 -0.03125,-0.094 -0.0625,-0.125 -0.28125,-0.031 0.03125,0.125 0.21875,0.1562 z m 0.09375,-0.75 0.1875,-0.3125 -0.15625,-0.3437 -0.125,-0.3125 0.03125,-0.2188 -0.09375,0 -0.03125,-0.1562 -0.09375,-0.1875 -0.125,0.094 -0.0625,0.1875 -0.03125,-0.031 -0.09375,-0.031 -0.1875,-0.063 -0.0625,0.063 0.09375,0.063 0.125,0 0,0.031 0.09375,0.125 0.03125,0.2812 0.0625,0.031 0.0625,0.094 -0.0625,0.063 -0.25,0.2813 -0.03125,0.125 0.0625,0.2187 0.1875,0.125 0.25,-0.094 0.21875,-0.031 z m -0.625,-1.2187 -0.15625,0 -0.0625,-0.063 -0.15625,0.031 -0.28125,0.4063 -0.03125,0.3437 -0.09375,0.063 0,0.5938 -0.15625,0.25 0.1875,0.2812 0.03125,0.1875 0.09375,0 0.03125,-0.094 0.1875,-0.063 0,-0.3125 0.09375,-0.094 0.0625,-0.094 0.03125,-0.094 -0.1875,-0.125 0,-0.1875 0.09375,-0.1562 0.0625,-0.031 0.15625,-0.1875 0,-0.125 0.1875,-0.125 -0.03125,-0.2812 -0.0625,-0.125 z m 2.625,-2.8438 -0.0625,0.094 0.03125,0.031 0.03125,0.094 0.09375,-0.063 0,-0.063 0,-0.063 -0.09375,-0.031 z m -0.625,0.125 -0.03125,0.031 0,0.094 0.0625,0.031 0.09375,0 0.0625,-0.063 0,-0.063 -0.0625,0 -0.0625,0 -0.0625,-0.031 z m 0.40625,0 -0.0625,0.031 0.03125,0.094 0.09375,0.031 0.0625,-0.031 -0.03125,-0.094 -0.09375,-0.031 z m -11.4687501,0.094 -0.09375,0.031 0.03125,0.125 0.15625,0.125 0,0.094 -0.03125,0.031 0.03125,0.1875 0.65625,0.2188 0.15625,0.063 0.1875,-0.1563 -0.21875,-0.1875 -0.1875,0.063 -0.28125,-0.031 -0.09375,-0.094 -0.03125,-0.2812 -0.15625,-0.094 -0.125,-0.094 z m 10.7500001,0 -0.09375,0.063 -0.09375,0 -0.03125,0.063 0,0.094 0.0625,0.063 0.09375,0 0.09375,-0.063 0,-0.094 0.0625,-0.094 -0.09375,-0.031 z m -11.6250001,0.031 c -0.023511,0.039 -0.044498,0.082 -0.0625,0.125 l 0.09375,-0.063 -0.03125,-0.063 z m 0.5625,0.031 -0.1875,0.031 -0.125,0.094 0.21875,0 -0.0625,0.1562 0.0625,0.063 0.03125,0 0.15625,-0.2187 -0.09375,-0.125 z m 8.8437501,0.25 -0.09375,0.125 0.0625,0.094 0.125,0 0.0625,0.063 0.125,0.094 0.1875,-0.094 0.125,-0.125 -0.0625,-0.063 -0.09375,-0.063 -0.09375,0.063 -0.0625,-0.063 -0.0625,0 -0.03125,0.125 -0.09375,-0.094 0,-0.063 -0.09375,0 z m -8.7187501,0.063 -0.0625,0.094 0.1875,0.063 0.0625,-0.063 -0.1875,-0.094 z m 8.5937501,0.1562 -0.15625,0.063 -0.25,0 -0.03125,0.1566 0.15625,0.125 0.0625,0 0.0625,-0.1563 0.09375,0.063 -0.0625,0.094 -0.03125,0.1562 0.0625,0.094 0.15625,-0.2188 0.15625,-0.2187 -0.0625,-0.063 -0.09375,-0.031 -0.0625,-0.063 z m 3.78125,0 -0.03125,0.094 -0.15625,0.125 -0.3125,0.063 -0.28125,0.4375 -0.03125,0.125 0.25,0.094 0.0625,-0.1875 0.0625,-0.2187 0.21875,-0.125 0.15625,-0.125 0.125,-0.063 0.0625,0 0,-0.1875 -0.125,-0.031 z m -12.8437501,0.063 -0.0625,0.1563 -0.125,-0.063 -0.0625,0.094 0.125,0.1875 0,0.1563 0.28125,-0.1563 0,-0.2187 0.09375,-0.094 -0.09375,-0.063 -0.15625,0 z m 0.46875,0.063 -0.1875,0.1563 0.0625,0.1875 0.09375,0 0.0625,-0.094 0.0625,0.063 0.09375,0 0.21875,-0.1875 -0.40625,-0.125 z m 9.0000001,0.125 -0.09375,0.094 -0.09375,0.063 0.0625,0.063 0.0625,0.031 0.125,-0.063 0.03125,-0.063 -0.03125,-0.094 -0.0625,-0.031 z m -8.4375001,0.094 -0.21875,0.094 -0.125,0.1563 0.03125,0.4375 0.375,0.031 0.34375,0.1563 0.25,0.2812 0.1875,0 -0.0625,0.2813 -0.15625,0.2812 -0.1875,0.063 -0.15625,0 -0.0625,-0.063 -0.09375,0.125 0.03125,0.1563 0.15625,0 0.1875,-0.094 0.125,0.4063 0.40625,0.25 0.25,-0.3438 -0.21875,-0.375 0.125,-0.125 0.1875,0.2813 0.3125,-0.2813 -0.0625,-0.125 -0.21875,0.063 -0.15625,-0.4062 0.15625,-0.25 -0.28125,-0.3125 -0.15625,0.125 -0.15625,-0.3438 -0.34375,0.031 -0.0625,-0.4063 -0.28125,0.1875 -0.03125,0.2188 -0.125,0 0,-0.1875 0.21875,-0.3125 -0.1875,0 z m 0.5625,0.1562 -0.0625,0.094 0.0625,0.094 0.28125,0.031 -0.1875,-0.1875 -0.09375,-0.031 z m -1.3125,0.063 -0.21875,0.125 -0.03125,0.125 0.09375,0.1563 0,0.2187 -0.1875,0.1563 -0.09375,0.125 0,-0.125 0.15625,-0.2813 -0.0625,-0.1562 -0.1875,0.094 0,0.1875 -0.09375,0.125 -0.03125,0 0,1.1563 0.3125,-0.2813 0.3125,-0.063 0.09375,-0.1562 -0.03125,-0.125 0.34375,-0.063 0.21875,0.094 0.21875,-0.125 0.0625,-0.4062 -0.1875,-0.2188 -0.25,0.375 -0.1875,-0.031 0.125,-0.2188 -0.09375,-0.063 -0.15625,0.1563 -0.03125,-0.6875 -0.09375,-0.094 z m 11.6875001,0.4063 0,0.1562 -0.09375,0.063 0,0.063 0.0625,0.094 0.1875,0.031 0.09375,0.094 0.09375,0 0.0625,-0.125 -0.15625,-0.1563 -0.0625,-0.1875 -0.1875,-0.031 z m -5.8124999,0.3125 -0.0625,0.063 0.03125,0.063 0.1875,0.094 0,-0.1562 -0.15625,-0.063 z m -2.625,0.2812 -0.09375,0.031 -0.03125,0.063 0.09375,0.094 0.0625,0 0.03125,-0.094 -0.0625,-0.094 z m -2.9687502,0.3438 -0.15625,0.2187 -0.03125,0.2188 0.15625,-0.094 0.15625,0 0.125,0.125 0.125,-0.094 -0.375,-0.375 z m 5.3437502,0.5625 -0.125,0.063 -0.0625,0.094 0,0.031 0.09375,0 0,0.094 -0.03125,0.031 0,0.031 0.125,0.031 0,0.125 0.15625,0.031 0.09375,0.031 0.09375,0 0.1875,-0.094 0.15625,-0.1875 0,-0.125 -0.09375,-0.063 -0.0625,-0.063 -0.03125,0.031 -0.0625,0.063 -0.0625,-0.031 -0.03125,-0.063 -0.09375,0.031 -0.09375,0.063 -0.0625,0.094 -0.03125,-0.031 0,-0.094 0.03125,0 -0.03125,-0.063 -0.0625,-0.031 z m -4.7812502,0.125 -0.28125,0.625 -0.03125,0.3125 -0.125,0.25 -0.21875,0 -0.03125,0.375 -0.15625,0.2187 -0.125,-0.094 0.03125,-0.125 0.09375,-0.4375 -0.4375,-0.1875 -0.21875,-0.2194 0,1.75 0.03125,0.063 0.15625,0.125 -0.1875,0.2813 0,0.1875 0.5,-0.1563 0.375,-0.2812 0.46875,0 0.03125,-0.1563 0.03125,0 0.15625,-0.094 0.0625,0.031 0.03125,0.3438 0.21875,-0.094 -0.1875,0.2188 0.03125,0.094 0.15625,0 0.09375,-0.1562 0.25,0 0.125,-0.2188 -0.09375,0 -0.0625,0.063 -0.09375,0.031 -0.125,-0.063 0,-0.1875 0.0625,-0.2188 -0.0625,-0.063 -0.25,0.063 -0.1875,0.031 0.3125,-0.25 0.21875,0 0.375,0.094 0.1875,-0.1875 0.375,-0.094 0,-0.2188 -0.34375,-0.4375 -0.125,-0.6875 -0.375,0.2813 -0.15625,-0.093 0.09375,-0.2812 -0.1875,-0.2813 -0.40625,-0.1562 z m -0.09375,2.5312 0,0.1875 -0.5,0.031 -0.375,0.25 -0.53125,0.1875 0,1.125 0.1875,-0.1563 0.28125,-0.063 -0.03125,-0.2812 0.40625,-0.4688 0.40625,-0.063 -0.0625,-0.2187 0.40625,-0.25 0,-0.3125 -0.03125,0 -0.15625,0.031 z m -1.375,0 -0.03125,0 0,0.3125 0.125,-0.1875 -0.09375,-0.125 z m 10.3750001,-1.625 0,0.031 -0.125,0.063 0,0.063 0.09375,0.094 0.28125,0.031 -0.03125,-0.25 -0.21875,-0.031 z m -2.59375,0.1875 -0.15625,0.125 -0.0625,0.2813 0.0625,-0.031 0,0.1875 0.0625,0.031 0.125,0.031 0.03125,0.2188 -0.125,0 -0.03125,0.125 -0.0625,0.125 0.125,0 0.03125,0.031 -0.28125,0.1563 0.125,0.063 0.28125,-0.125 0.1875,0 0.09375,-0.031 0.0625,-0.063 -0.0625,-0.031 0,-0.031 0.09375,-0.031 0,-0.094 -0.0625,-0.063 -0.09375,-0.063 -0.09375,-0.1562 -0.09375,-0.1875 0,-0.1563 0.03125,-0.031 0,-0.094 -0.15625,0 -0.03125,-0.031 0.0625,-0.094 -0.0625,-0.063 z m 2.34375,0 -0.03125,0.031 0.03125,0.031 0.0625,0 0.03125,-0.031 -0.03125,-0.031 -0.0625,0 z m -0.25,0.094 -0.09375,0.063 0.03125,0.094 0.09375,-0.063 -0.03125,-0.094 z m -0.84375,0.031 -0.15625,0.1875 0,0.125 0.0625,0.1875 0.125,-0.031 -0.03125,-0.1563 0.09375,-0.094 0,-0.063 -0.0625,-0.1563 -0.03125,0 z m 0.125,0.3125 -0.03125,0.063 0,0.063 0.125,0 0,-0.094 -0.03125,-0.031 -0.0625,0 z m -1.59375,0.063 -0.15625,0.031 0,0.125 0.09375,0.031 0.09375,0 0.03125,-0.063 -0.0625,-0.125 z m -0.15625,0.1563 -0.03125,0 0.03125,-0.125 -0.0625,0.125 -0.15625,0 0,0.125 0.03125,0.094 -0.15625,0.094 0,0.031 0.09375,0.063 0.09375,0 0.3125,-0.125 0.03125,-0.2187 -0.09375,0 -0.09375,-0.063 z m -4.5312501,0.25 -0.40625,0.375 0.0625,0.094 0.5,0.1875 0.0625,-0.125 -0.03125,-0.2187 -0.1875,0.031 -0.09375,-0.094 0.15625,-0.1563 -0.0625,-0.094 z m 7.9062501,0.5625 -0.0625,0.063 0.125,0.1875 0,0.094 0.03125,0 0.09375,-0.1562 -0.125,-0.1563 -0.0625,-0.031 z m -0.375,0.063 -0.03125,0.063 -0.21875,0.1875 0.1875,0.25 0.125,0.094 0.21875,0 0.0625,-0.031 0,-0.031 0.09375,0 0.0625,0.031 0.125,-0.125 0,-0.094 -0.15625,-0.031 -0.0625,0 0,-0.125 -0.125,-0.1563 -0.28125,-0.031 z m 0.34375,0.5625 -0.03125,0.063 -0.25,0 -0.09375,-0.063 0,0.1875 0.0625,0.1562 0.25,0 0.09375,-0.094 0.125,-0.031 -0.03125,-0.125 0.03125,-0.063 -0.0625,-0.031 -0.09375,0 z m -0.3125,0.3437 -0.03125,0 -0.125,0.094 -0.09375,0.1562 0,0.031 0.15625,0.094 0.09375,0.031 -0.03125,0.063 -0.125,0 0,0.063 0.03125,0.063 0.125,0.063 0.03125,0 0,-0.125 0.09375,-0.094 -0.21875,-0.25 0.03125,-0.063 0.0625,0 0.0625,0.063 0.03125,-0.031 0.03125,-0.063 0.21875,0 0,-0.125 -0.09375,0.063 -0.25,-0.031 z m -0.03125,0 -0.0625,-0.125 -0.125,0.063 0,0.094 0.03125,0.031 0.15625,-0.063 z m -0.6875,-0.75 -0.09375,0.063 -0.1875,0.031 0.03125,0.125 0.125,0 0.125,-0.094 0,-0.125 z m 0,0.125 -0.09375,0.125 -0.15625,0 0,0.094 0.0625,0 0.03125,-0.031 0.03125,0.031 0.0625,0.1562 0.25,0.125 0.03125,-0.031 -0.28125,-0.2813 0.03125,-0.063 0.28125,0 0.03125,-0.094 -0.1875,0 -0.0625,-0.031 -0.03125,0 z m 0.40625,0 -0.0625,0.031 -0.03125,0 -0.03125,0.094 0.09375,0.094 0,0.094 -0.03125,0 0,-0.063 -0.09375,-0.094 -0.25,0 0,0.031 0.25,0.25 0,0.031 0.03125,0.063 0.0625,0 0,0.031 0,0.1875 0.0625,0.094 0.03125,0 0.0625,-0.125 -0.03125,-0.031 0,-0.125 0,-0.031 0.15625,-0.063 -0.03125,-0.2188 -0.1875,-0.25 z m 2.03125,0.2813 -0.09375,0.063 0.125,0.1875 0.15625,0.063 0.09375,0 0.15625,-0.063 0.0625,-0.063 -0.5,-0.1875 z m 1.71875,0.031 -0.09375,0.1875 -0.09375,0 -0.15625,0 -0.03125,0.094 -0.15625,0 0,0.125 0.1875,0.125 -0.0625,0.1562 0,0.063 0.0625,0 0.09375,-0.125 0.21875,-0.031 0.46875,0.1562 0,0.125 0.25,0.031 0.28125,-0.2813 -0.03125,-0.094 -0.1875,-0.063 -0.53125,-0.3438 -0.03125,-0.125 -0.1875,0 z m -4.8125,0.1563 -0.0625,0.063 0,0.063 0.03125,0.063 0.03125,0 0.03125,-0.125 -0.03125,-0.063 z m 1.84375,0.063 -0.09375,0.031 0,0.1563 0.125,-0.063 0.03125,-0.031 0,-0.063 -0.0625,-0.031 z m 4.1875,0.031 0.03125,0 0,0.031 0.0625,0 0.1875,0.031 0.125,-0.031 0,0.031 -0.03125,0 -0.09375,0.031 -0.21875,-0.031 -0.03125,-0.031 -0.03125,0 0,-0.031 z m -6.03125,0.1563 -0.09375,0.031 0,0.2188 0.09375,0 0.0625,-0.063 0,-0.1875 -0.0625,0 z m 6.25,0.063 0.0625,0.031 0,0.125 0.09375,0 0.03125,-0.063 0,-0.031 0.09375,0 0.0625,0 0.03125,0.063 0.03125,0 0,0.031 -0.03125,0 -0.21875,0.125 0.0625,0.125 -0.03125,0 -0.09375,-0.125 0.25,-0.1562 -0.03125,-0.031 -0.125,0 0,0.094 -0.15625,0 0,-0.125 -0.03125,-0.063 z m -10.0312499,0.031 -0.0625,0.063 0.0625,0.031 0.09375,-0.031 -0.09375,-0.063 z m -0.28125,0.031 -0.03125,0.063 0.09375,0.063 0,-0.094 -0.0625,-0.031 z m 3.3749999,0.031 0,0.063 0.09375,0 0.03125,-0.031 -0.0625,-0.031 -0.0625,0 z m -3.0312499,0.094 -0.03125,0.094 0.03125,0.063 0.0625,-0.063 -0.0625,-0.094 z m 4.2187499,0.094 -0.1875,0.031 0,0.063 0.1875,0.063 0.03125,0.031 0.03125,0.031 0,-0.1875 -0.0625,-0.031 z m -3.9687499,0.094 -0.03125,0.031 0.03125,0.031 0.09375,-0.031 -0.09375,-0.031 z m 5.9999999,0.1875 -0.125,0.063 -0.09375,0.031 0,0.063 0.03125,0.031 0.09375,0 0.125,-0.1563 -0.03125,-0.031 z m -1.96875,0.031 -0.0625,0.031 0,0.063 0.0625,0 0.03125,0 -0.03125,-0.094 z m 0.9375,0 -0.03125,0.031 0.03125,0.031 0.0625,0.031 0.15625,0 0.03125,-0.063 -0.0625,0 -0.09375,0 -0.03125,-0.031 -0.0625,0 z m -4.1874999,0.2188 -0.03125,0.063 0.03125,0.063 0.0625,-0.031 -0.0625,-0.094 z m 10.3437499,0.2187 -0.1875,0.031 0,0.1562 0.3125,0.1563 0.5,0.031 0,-0.125 -0.34375,-0.094 -0.28125,-0.1563 z m -16.7500001,0.404 0,0.063 0.03125,0.063 0.0625,0.031 0.03125,-0.094 -0.0625,-0.063 -0.0625,0 z m 6.2812502,0 -0.0625,0.031 0.0625,0.063 0.0625,-0.094 -0.0625,0 z m 0.40625,0.031 -0.0625,0.063 0.03125,0.031 0.03125,-0.094 z m -0.3125,0.031 0.0625,0.063 0.0625,0 -0.03125,-0.063 -0.09375,0 z m -6.2812502,0.125 -0.03125,0.031 0.03125,0.125 0.09375,0.031 0,-0.063 -0.03125,-0.031 -0.0625,-0.094 z m -0.09375,0.2192 0,0.125 0.03125,-0.063 -0.03125,-0.062 z m 0.15625,0.063 0,0.031 0.0625,0.094 0.03125,-0.063 -0.03125,-0.063 -0.0625,0 z M 21,1040.7683 l -0.0625,0.031 0.0625,0.063 0,-0.094 z m -18.0000001,0.031 0,0.2188 0.15625,-0.063 0.0625,-0.063 -0.09375,-0.031 -0.125,-0.063 z m 0.34375,0.1563 -0.0625,0.063 0.09375,0.031 0,0.094 -0.15625,0.031 0,0.094 0.0625,0 0.03125,-0.063 0.15625,0.031 0.03125,0 0.03125,0.063 0.03125,-0.063 0.125,-0.031 0.125,0.031 0,-0.094 -0.1875,-0.125 -0.03125,0 -0.09375,-0.031 -0.15625,-0.031 z m 0.6875,0.1875 -0.09375,0.063 0.0625,0.031 0.125,0.031 0,-0.094 -0.09375,-0.031 z m 0.3125,0.125 -0.0625,0.031 0.03125,0.063 0.03125,-0.063 0,-0.031 z m 10.9375001,0.031 -0.15625,0.1875 0,0.2188 0.3125,0 0.25,0.2187 0.0625,-0.063 -0.34375,-0.2812 -0.09375,-0.25 -0.03125,-0.031 z m -10.8437501,0.031 -0.03125,0.063 0.03125,0.063 0.0625,-0.031 -0.0625,-0.094 z m 11.4375001,0 0.25,0.1562 0,0.031 -0.25,-0.1563 0,-0.031 z m -11.3125001,0.1875 -0.0625,0.063 0.03125,0.063 0.0625,-0.031 -0.03125,-0.094 z m 4.0625002,0.031 -0.09375,0.031 0.0625,0.063 0.0625,-0.031 -0.03125,-0.063 z m 0.1875,0.094 -0.0625,0.031 0.03125,0.063 0.09375,-0.031 -0.0625,-0.063 z m -4.2500002,0.031 -0.03125,0.063 0.03125,0.063 0.0625,-0.031 -0.0625,-0.094 z m 9.0000001,0.063 0.03125,0 0,0.1875 0.0625,0.1875 0,0.031 -0.15625,0 -0.28125,0.25 0,0.125 -0.1875,-0.031 -0.03125,0.063 -0.125,-0.031 -0.03125,0.031 -0.09375,0.2188 0.03125,0.063 0.1875,0.1875 -0.03125,0.031 -0.1875,-0.2187 -0.03125,-0.063 0.125,-0.2188 -0.09375,-0.1562 -0.03125,-0.063 -0.03125,0 0,-0.063 0.03125,0 0,0.063 0.0625,0.031 0.09375,0.1563 0.09375,0 0.03125,-0.031 0.03125,0 0.15625,0 0,-0.094 0.03125,0 0.25,-0.2813 0.1875,0 -0.09375,-0.1562 0,-0.2188 z m -4.8749999,0.031 -0.0625,0.031 0.0625,0.094 0.0625,-0.031 -0.0625,-0.094 z m 0.9375,0.031 -0.0625,0.031 -0.1875,0.031 -0.03125,0.031 0.28125,0 0,-0.031 0,-0.063 z m -5.0625002,0.031 -0.0625,0.031 0.03125,0.063 0.0625,-0.031 -0.03125,-0.063 z m 12.4062501,0.031 -0.09375,0.031 -0.09375,0 0.09375,0.094 0.125,-0.063 -0.03125,-0.063 z m -13.5937501,0.033 -0.375,0.3125 0,1.25 0.03125,0 0,0.031 0.1875,0.2188 0.1875,0.031 0.0625,0 0,0.1875 -0.03125,0 -0.21875,0.1563 -0.0625,0.25 0.1875,0.2187 0.03125,-0.031 0.15625,-0.063 0.09375,0.2187 0.34375,-0.1562 0.125,0 0.09375,0.3125 0.46875,0.1562 0.0625,0.25 0.21875,0.031 0.09375,0.2187 -0.0625,0.2188 0.0625,0.125 0,0.1562 0.21875,-0.031 0.21875,0.2812 -0.03125,0.1563 0.03125,0.063 0.09375,0.063 -0.03125,0.031 -0.25,0.4063 0.5,0.2812 0.25,-0.4687 0,-0.375 0.4687502,-0.2813 0.25,0 0.1875,-0.3437 0.03125,-0.6563 -0.0625,-0.1562 0.46875,-0.4375 0,-0.4688 -0.625,-0.3437 -0.7812502,-0.2188 -0.375,-0.031 0.09375,-0.2188 -0.03125,-0.3125 -0.0625,-0.031 -0.125,0.2187 -0.03125,0 0.125,-0.25 -0.25,-0.125 -0.03125,0.094 0,0.25 0.125,0.094 0,0.031 -0.15625,-0.063 -0.53125,0.1875 -0.1875,-0.25 0.03125,-0.2188 -0.09375,0.063 0.0625,-0.094 -0.03125,-0.1563 0.03125,-0.031 0.0625,0.1875 -0.03125,0.25 0.15625,0.1875 0.25,-0.094 0,-0.125 -0.15625,-0.1562 0.03125,-0.063 0.09375,-0.1563 -0.28125,-0.25 -0.03125,0.031 -0.125,-0.094 -0.15625,-0.2187 -0.28125,0.063 -0.28125,-0.094 -0.15625,-0.1562 -0.125,0.1562 -0.03125,0.1563 -0.125,-0.031 0,-0.094 -0.09375,0.125 0.09375,0.25 0.40625,0.1562 0.03125,0 0.03125,0.5313 0.125,0.1562 0.15625,0 0,0.031 -0.15625,0 0,-0.031 -0.15625,-0.125 -0.15625,0 -0.03125,0.1875 0.09375,0.125 -0.03125,0.031 -0.09375,-0.125 0.03125,-0.2188 0.03125,0 0.15625,-0.031 -0.03125,-0.5313 -0.4375,-0.125 -0.09375,-0.2812 0.25,-0.375 -0.09375,0 z m 2.15625,4.6562 -0.0625,-0.094 -0.15625,0.2187 -0.28125,0.031 -0.03125,-0.1557 0.0625,-0.1562 -0.1875,-0.125 -0.21875,0 -0.1875,-0.1875 -0.3125,0 -0.125,0.125 0,0.063 0.03125,0.031 -0.125,0.125 -0.125,0.6875 0.1875,0.5 -0.09375,0.4375 0.28125,1.1563 0,0.1562 0.59375,0 -0.15625,-0.125 0.15625,-0.5 -0.0625,-0.1875 0.25,-0.094 -0.0625,-0.25 0.15625,0 0.15625,-0.063 0.1875,-0.3125 -0.21875,-0.2813 -0.03125,-0.4687 0.03125,0 0.03125,0.4687 0.25,0.063 0.3125,-0.3125 -0.53125,-0.3125 0,-0.031 0.28125,-0.4063 z m -1.5,-0.2812 -0.03125,-0.063 -0.09375,0 -0.25,-0.5938 0.03125,-0.031 0.03125,-0.125 0.03125,-0.375 -0.0625,-0.25 -0.1875,-0.3125 -0.09375,0.031 -0.0625,0.063 -0.21875,-0.25 0.0625,-0.3125 0.25,-0.1562 -0.03125,-0.1563 -0.25,0 -0.125,-0.25 -0.03125,0 0,1.75 0.625,0.4063 0,0.031 0.125,2.875 0.21875,0.125 -0.03125,0.5313 -0.125,0.031 -0.03125,0.063 c 0.075724,0.018 0.1372794,0.063 0.21875,0.063 l 0.15625,0 0,-0.1562 -0.28125,-1.1875 0.09375,-0.375 -0.1875,-0.5313 0.125,-0.6875 0.125,-0.1562 z m -0.34375,-0.6875 0.25,0.5625 0.0625,0.031 0.15625,-0.1562 0.0625,0.031 0.28125,0 0.09375,-0.3125 0.34375,-0.031 0.0625,-0.1875 -0.09375,-0.2188 -0.1875,-0.031 0,-0.031 -0.09375,-0.2187 -0.46875,-0.1563 -0.09375,-0.2812 -0.09375,0 -0.3125,0.125 0.0625,0.125 0.0625,0.2187 -0.03125,0.4375 -0.0625,0.094 z m 0.8125,-3.625 -0.03125,0.063 0.0625,0 0,-0.031 -0.03125,-0.032 z m 4.9687502,0.031 -0.03125,0.094 0.03125,0.094 0.15625,-0.125 0,-0.031 -0.15625,-0.031 z m -4.9062502,0.094 -0.03125,0.031 -0.0625,0.031 0,0.031 0.09375,0.094 0.03125,-0.063 0.03125,-0.063 -0.03125,-0.063 -0.03125,0 z m 9.1875001,0.094 0.0625,0.031 -0.03125,0.125 -0.03125,0.031 -0.0625,-0.031 0.0625,-0.063 0,-0.094 z m 6.21875,0 -0.0625,0.031 0,0.094 0.03125,0.094 -0.0625,0 0.03125,0.1562 0.09375,0.063 0.125,-0.063 -0.03125,-0.1875 0,-0.063 -0.125,-0.125 z m -5.21875,0.2188 0.03125,0 0,0.125 0.125,0 0.15625,0.25 -0.03125,0 -0.15625,-0.2188 -0.09375,0 0,-0.031 -0.03125,-0.125 z m 4.21875,0.2812 0.03125,0.125 0.0625,0 0,-0.063 -0.09375,-0.063 z m -14.0000001,0.031 -0.09375,0.125 0,0.063 0.125,0.125 0,0.1562 0.21875,-0.094 0,-0.25 0.0625,-0.094 0,-0.031 -0.09375,0 -0.125,0.063 -0.09375,-0.063 z m 14.0937501,0.1875 0,0.125 0.03125,0.031 0.0625,-0.094 -0.09375,-0.063 z m -6.9375,0.031 -0.0625,0.031 -0.03125,0.063 0.0625,0.031 0.0625,-0.031 -0.03125,-0.094 z m 3.5625,0 0.0625,0 -0.125,0.1563 0,0.375 -0.03125,0 0,-0.4063 0.09375,-0.125 z m -11.5312501,0.031 0.03125,0 0,0.094 0.15625,0.094 -0.15625,0.125 0.09375,-0.125 -0.125,-0.063 0,-0.125 z m 14.9062501,0.1875 -0.03125,0.031 0.0625,0.063 0.03125,-0.063 -0.0625,-0.031 z m -7.15625,0.031 0.03125,0.063 0.03125,0 0.03125,-0.031 -0.03125,-0.031 -0.0625,0 z m 0.3125,0 0,0.031 0.1875,0 -0.03125,-0.031 -0.15625,0 z m -0.34375,0.125 -0.0625,0.031 0.03125,0.031 0.03125,0.031 0.03125,-0.063 -0.03125,-0.031 z m 5.34375,0.5 -0.0625,0.031 0.0625,0.094 0.0625,0 -0.0625,-0.125 z m 0.03125,0.1875 0,0.031 -0.03125,0.031 0.03125,0.063 0.0625,0 0,-0.094 -0.0625,-0.031 z m -0.34375,0.1563 -0.03125,0.063 0.0625,0.031 0.0625,-0.031 -0.09375,-0.063 z m -0.96875,0.5 0.03125,0.063 0.0625,0.031 0.03125,-0.094 -0.125,0 z m 0.5625,0.063 -0.0625,0.2187 -0.15625,0.2188 -0.25,0.031 -0.09375,0.125 0,0.375 -0.125,0.1875 0,0.2813 0.125,0.1562 0.15625,0 0.15625,-0.125 -0.03125,-0.1875 0.34375,-0.5937 -0.0625,-0.094 0.0625,-0.125 0.09375,0 0,-0.031 -0.0625,-0.3125 -0.03125,-0.125 -0.0625,0 z m -0.4375,0.063 0.03125,0.063 0.03125,0 0.03125,-0.063 -0.09375,0 z m -11.1250001,0.9687 -0.3125,0.031 -0.09375,0.3125 0.15625,0.1562 0.1875,0 0.25,0.1563 -0.09375,0.1562 0.03125,0.094 0.21875,0 0.125,-0.1875 0.03125,-0.1875 -0.1875,-0.25 -0.25,0.031 0,-0.2187 -0.0625,-0.094 z m 12.3750001,0 -0.0625,0.063 0,0.094 0.125,-0.094 -0.0625,-0.063 z m -0.3125,0.125 0,0.094 0.0625,0 0.09375,-0.031 -0.0625,-0.063 -0.09375,0 z m -2.875,0.75 0.0625,0 0.09375,0.094 0,0.125 -0.03125,0 -0.09375,0.063 0,0.031 -0.15625,0 0,-0.031 -0.0625,-0.094 0.03125,-0.094 0.15625,-0.094 z m -0.125,0.2813 0.125,0 0,-0.031 0.125,-0.031 0,-0.094 -0.0625,-0.063 -0.0625,0 0,-0.031 -0.125,0.094 -0.03125,0.063 0.03125,0.094 z m -10.2187501,1.7812 -0.03125,0.063 0,0.125 0.0625,0.031 0.03125,-0.1875 -0.0625,-0.031 z"
       id="kalimantan"
       style="fill:#000000;fill-opacity:1;opacity:0.2" />
    <rect
       style="opacity:0.5;fill:none;stroke:url(#linearGradient4542);stroke-opacity:1"
       id="rect4534"
       width="17"
       height="17"
       x="3.5"
       y="1031.8622"
       rx="0.5"
       ry="0.5" />
    <rect
       style="fill:#787878;fill-opacity:1;stroke:none"
       id="rect3016"
       width="6"
       height="1"
       x="5.000001"
       y="1034.3622" />
    <rect
       y="1034.3622"
       x="11.999998"
       height="1"
       width="3.0000019"
       id="rect3786"
       style="fill:#787878;fill-opacity:1;stroke:none" />
    <rect
       style="fill:#787878;fill-opacity:1;stroke:none"
       id="rect3788"
       width="3.0000019"
       height="1"
       x="15.999998"
       y="1034.3622" />
    <rect
       y="1036.3622"
       x="5.000001"
       height="1"
       width="3.0000019"
       id="rect3790"
       style="fill:#787878;fill-opacity:1;stroke:none" />
    <rect
       style="fill:#787878;fill-opacity:1;stroke:none"
       id="rect3792"
       width="4.000001"
       height="1"
       x="8.999999"
       y="1036.3622" />
    <rect
       y="1036.3622"
       x="13.999991"
       height="1"
       width="2.0000029"
       id="rect3794"
       style="fill:#787878;fill-opacity:1;stroke:none" />
    <rect
       style="fill:#787878;fill-opacity:1;stroke:none"
       id="rect3796"
       width="5.000001"
       height="1"
       x="5.000001"
       y="1038.3622" />
    <rect
       y="1038.3622"
       x="10.999994"
       height="1"
       width="1.0000026"
       id="rect3798"
       style="fill:#787878;fill-opacity:1;stroke:none" />
    <rect
       style="fill:#787878;fill-opacity:1;stroke:none"
       id="rect3800"
       width="4.000001"
       height="1"
       x="12.999994"
       y="1038.3622" />
    <rect
       y="1040.3622"
       x="5.000001"
       height="1"
       width="3.0000024"
       id="rect3802"
       style="fill:#787878;fill-opacity:1;stroke:none" />
    <rect
       style="fill:#787878;fill-opacity:1;stroke:none"
       id="rect3804"
       width="5.9999986"
       height="1"
       x="8.9999981"
       y="1040.3622" />
    <rect
       style="fill:#787878;fill-opacity:1;stroke:none"
       id="rect3808"
       width="2.0000005"
       height="1"
       x="5.000001"
       y="1042.3622" />
    <rect
       y="1042.3622"
       x="7.9999957"
       height="1"
       width="4.000001"
       id="rect3810"
       style="fill:#787878;fill-opacity:1;stroke:none" />
    <rect
       style="fill:#787878;fill-opacity:1;stroke:none"
       id="rect3812"
       width="2.0000029"
       height="1"
       x="12.999996"
       y="1042.3622" />
    <rect
       y="1044.3622"
       x="5.000001"
       height="1"
       width="6"
       id="rect3814"
       style="fill:#787878;fill-opacity:1;stroke:none" />
    <rect
       style="fill:#787878;fill-opacity:1;stroke:none"
       id="rect3816"
       width="1.0000026"
       height="1"
       x="11.999998"
       y="1044.3622" />
    <rect
       y="1044.3622"
       x="13.999999"
       height="1"
       width="3.0000019"
       id="rect3818"
       style="fill:#787878;fill-opacity:1;stroke:none" />
    <rect
       style="fill:#787878;fill-opacity:1;stroke:none"
       id="rect3820"
       width="5.000001"
       height="1"
       x="5.000001"
       y="1046.3622" />
    <rect
       y="1046.3622"
       x="10.999994"
       height="1"
       width="4.000001"
       id="rect3822"
       style="fill:#787878;fill-opacity:1;stroke:none" />
    <rect
       style="fill:#787878;fill-opacity:1;stroke:none"
       id="rect3826"
       width="2.0000029"
       height="1"
       x="16.999987"
       y="1036.3622" />
    <rect
       style="fill:#787878;fill-opacity:1;stroke:none"
       id="rect3828"
       width="1.0000026"
       height="1"
       x="17.99999"
       y="1038.3622" />
    <rect
       y="1042.3622"
       x="15.999992"
       height="1"
       width="3.0000019"
       id="rect3830"
       style="fill:#787878;fill-opacity:1;stroke:none" />
    <rect
       y="1044.3622"
       x="17.999998"
       height="1"
       width="1.0000026"
       id="rect3832"
       style="fill:#787878;fill-opacity:1;stroke:none" />
  </g>
</svg>
