<?xml version="1.0" encoding="UTF-8" standalone="no"?>
<!-- Created with Inkscape (http://www.inkscape.org/) -->

<svg
   xmlns:dc="http://purl.org/dc/elements/1.1/"
   xmlns:cc="http://creativecommons.org/ns#"
   xmlns:rdf="http://www.w3.org/1999/02/22-rdf-syntax-ns#"
   xmlns:svg="http://www.w3.org/2000/svg"
   xmlns="http://www.w3.org/2000/svg"
   xmlns:xlink="http://www.w3.org/1999/xlink"
   xmlns:sodipodi="http://sodipodi.sourceforge.net/DTD/sodipodi-0.dtd"
   xmlns:inkscape="http://www.inkscape.org/namespaces/inkscape"
   width="16"
   height="16"
   id="svg2"
   version="1.1"
   inkscape:version="0.48.3.1 r9886"
   sodipodi:docname="folder-remote.svg">
  <defs
     id="defs4">
    <linearGradient
       id="linearGradient3792">
      <stop
         style="stop-color:#fff0c8;stop-opacity:1;"
         offset="0"
         id="stop3794" />
      <stop
         style="stop-color:#f0d78c;stop-opacity:1;"
         offset="1"
         id="stop3796" />
    </linearGradient>
    <linearGradient
       id="linearGradient3784">
      <stop
         style="stop-color:#bea55a;stop-opacity:1;"
         offset="0"
         id="stop3786" />
      <stop
         style="stop-color:#832000;stop-opacity:1;"
         offset="1"
         id="stop3788" />
    </linearGradient>
    <linearGradient
       id="linearGradient3755">
      <stop
         style="stop-color:#b06121;stop-opacity:1;"
         offset="0"
         id="stop3757" />
      <stop
         style="stop-color:#973404;stop-opacity:1;"
         offset="1"
         id="stop3759" />
    </linearGradient>
    <radialGradient
       inkscape:collect="always"
       xlink:href="#linearGradient3755"
       id="radialGradient3761"
       cx="8.178565"
       cy="1038.8264"
       fx="8.178565"
       fy="1038.8264"
       r="8"
       gradientUnits="userSpaceOnUse"
       gradientTransform="matrix(-1.9999328e-6,1.6093796,-1.3913414,-1.7289826e-6,1453.5408,1025.6658)" />
    <linearGradient
       inkscape:collect="always"
       xlink:href="#linearGradient3784"
       id="linearGradient3790"
       x1="2.3839283"
       y1="15.910306"
       x2="2.3839283"
       y2="2.125"
       gradientUnits="userSpaceOnUse" />
    <radialGradient
       inkscape:collect="always"
       xlink:href="#linearGradient3792"
       id="radialGradient3798"
       cx="8"
       cy="1.7040817"
       fx="8"
       fy="1.7040817"
       r="8"
       gradientTransform="matrix(2.3415727e-8,1.5792888,-1.3214286,1.9592497e-8,10.251822,-10.018239)"
       gradientUnits="userSpaceOnUse" />
    <linearGradient
       y2="38.877823"
       x2="24.115286"
       y1="4.7285786"
       x1="24.115286"
       gradientTransform="matrix(1.04,0,0,1.0178571,-0.9599995,1004.8601)"
       gradientUnits="userSpaceOnUse"
       id="linearGradient3204"
       xlink:href="#linearGradient4556"
       inkscape:collect="always" />
    <linearGradient
       id="linearGradient4556">
      <stop
         style="stop-color:#b06121;stop-opacity:1;"
         offset="0"
         id="stop4558" />
      <stop
         style="stop-color:#973404;stop-opacity:1;"
         offset="1"
         id="stop4560" />
    </linearGradient>
    <linearGradient
       y2="38.877823"
       x2="24.115286"
       y1="4.7285786"
       x1="24.115286"
       gradientTransform="matrix(0.40000008,0,0,0.39581348,-1.59999,1035.0002)"
       gradientUnits="userSpaceOnUse"
       id="linearGradient3047"
       xlink:href="#linearGradient4556"
       inkscape:collect="always" />
    <linearGradient
       inkscape:collect="always"
       xlink:href="#linearGradient3755"
       id="linearGradient3827"
       x1="7.9207206"
       y1="0.082882881"
       x2="7.9207206"
       y2="13.992195"
       gradientUnits="userSpaceOnUse"
       gradientTransform="translate(0,1036.3622)" />
  </defs>
  <sodipodi:namedview
     id="base"
     pagecolor="#ffffff"
     bordercolor="#666666"
     borderopacity="1.0"
     inkscape:pageopacity="0.0"
     inkscape:pageshadow="2"
     inkscape:zoom="17.34375"
     inkscape:cx="2.2361923"
     inkscape:cy="2.5894753"
     inkscape:document-units="px"
     inkscape:current-layer="layer1"
     showgrid="false"
     inkscape:window-width="1280"
     inkscape:window-height="756"
     inkscape:window-x="0"
     inkscape:window-y="24"
     inkscape:window-maximized="1" />
  <metadata
     id="metadata7">
    <rdf:RDF>
      <cc:Work
         rdf:about="">
        <dc:format>image/svg+xml</dc:format>
        <dc:type
           rdf:resource="http://purl.org/dc/dcmitype/StillImage" />
        <dc:title />
      </cc:Work>
    </rdf:RDF>
  </metadata>
  <g
     inkscape:label="Livello 1"
     inkscape:groupmode="layer"
     id="layer1"
     transform="translate(0,-1036.3622)">
    <rect
       style="opacity:1;fill:url(#radialGradient3761);fill-opacity:1;stroke:#832000;stroke-opacity:1"
       id="rect3753"
       width="15"
       height="15"
       x="0.5"
       y="1036.8622"
       rx="1"
       ry="1" />
    <path
       style="fill:url(#radialGradient3798);fill-opacity:1;stroke:url(#linearGradient3790);stroke-opacity:1"
       d="M 1.5 2.5 C 0.946 2.5 0.5 2.946 0.5 3.5 L 0.5 6.5 L 0.5 14.5 C 0.5 15.054 0.946 15.5 1.5 15.5 L 14.5 15.5 C 15.054 15.5 15.5 15.054 15.5 14.5 L 15.5 5.5 C 15.5 4.946 15.054 4.5 14.5 4.5 L 13.5 4.5 L 10.5 4.5 L 8.5 4.5 C 7.946 4.5 7.5 4.054 7.5 3.5 C 7.5 2.946 7.054 2.5 6.5 2.5 L 1.5 2.5 z "
       transform="translate(0,1036.3622)"
       id="rect3770" />
    <path
       inkscape:connector-curvature="0"
       id="path3004"
       d="m 4,1043.3622 0,2 c 3.3137088,0 6,2.6863 6,6 l 2,0 c 0,-4.4183 -3.5817219,-8 -8,-8 z m 0,3 0,2 c 1.6568543,0 3,1.3431 3,3 l 2,0 c 0,-2.7614 -2.2385763,-5 -5,-5 z m 0,3 0,2 2,0 c 0,-1.1046 -0.8954305,-2 -2,-2 z"
       style="opacity:0.3;fill:#ffffff;fill-opacity:1;stroke:none" />
    <path
       style="fill:url(#linearGradient3827);fill-opacity:1;stroke:none"
       d="m 4,1042.3622 0,2 c 3.3137088,0 6,2.6863 6,6 l 2,0 c 0,-4.4183 -3.5817219,-8 -8,-8 z m 0,3 0,2 c 1.6568543,0 3,1.3431 3,3 l 2,0 c 0,-2.7614 -2.2385763,-5 -5,-5 z m 0,3 0,2 2,0 c 0,-1.1046 -0.8954305,-2 -2,-2 z"
       id="path3003"
       inkscape:connector-curvature="0" />
  </g>
</svg>
