<?xml version="1.0" encoding="UTF-8" standalone="no"?>
<!-- Created with Inkscape (http://www.inkscape.org/) -->

<svg
   xmlns:dc="http://purl.org/dc/elements/1.1/"
   xmlns:cc="http://creativecommons.org/ns#"
   xmlns:rdf="http://www.w3.org/1999/02/22-rdf-syntax-ns#"
   xmlns:svg="http://www.w3.org/2000/svg"
   xmlns="http://www.w3.org/2000/svg"
   xmlns:xlink="http://www.w3.org/1999/xlink"
   xmlns:sodipodi="http://sodipodi.sourceforge.net/DTD/sodipodi-0.dtd"
   xmlns:inkscape="http://www.inkscape.org/namespaces/inkscape"
   width="16"
   height="16"
   id="svg3028"
   version="1.1"
   inkscape:version="0.48.3.1 r9886"
   sodipodi:docname="Nuovo documento 1">
  <defs
     id="defs3030">
    <linearGradient
       inkscape:collect="always"
       xlink:href="#linearGradient4556"
       id="linearGradient3848"
       x1="23.90991"
       y1="1009.645"
       x2="23.90991"
       y2="1046.1143"
       gradientUnits="userSpaceOnUse" />
    <linearGradient
       id="linearGradient4556">
      <stop
         style="stop-color:#505050;stop-opacity:1;"
         offset="0"
         id="stop4558" />
      <stop
         style="stop-color:#141414;stop-opacity:1;"
         offset="1"
         id="stop4560" />
    </linearGradient>
    <linearGradient
       gradientTransform="matrix(0.79999998,0,0,0.76190476,-8.3999997,-781.22832)"
       y2="1046.1143"
       x2="23.90991"
       y1="1025.5542"
       x1="23.90991"
       gradientUnits="userSpaceOnUse"
       id="linearGradient3053"
       xlink:href="#linearGradient4556"
       inkscape:collect="always" />
  </defs>
  <sodipodi:namedview
     id="base"
     pagecolor="#ffffff"
     bordercolor="#666666"
     borderopacity="1.0"
     inkscape:pageopacity="0.0"
     inkscape:pageshadow="2"
     inkscape:zoom="7.9195959"
     inkscape:cx="1.9034355"
     inkscape:cy="23.277992"
     inkscape:document-units="px"
     inkscape:current-layer="layer1"
     showgrid="false"
     inkscape:window-width="1280"
     inkscape:window-height="756"
     inkscape:window-x="0"
     inkscape:window-y="24"
     inkscape:window-maximized="1" />
  <metadata
     id="metadata3033">
    <rdf:RDF>
      <cc:Work
         rdf:about="">
        <dc:format>image/svg+xml</dc:format>
        <dc:type
           rdf:resource="http://purl.org/dc/dcmitype/StillImage" />
        <dc:title></dc:title>
      </cc:Work>
    </rdf:RDF>
  </metadata>
  <g
     inkscape:label="Livello 1"
     inkscape:groupmode="layer"
     id="layer1"
     transform="translate(0,-1036.3622)">
    <path
       style="fill:url(#linearGradient3053);fill-opacity:1;fill-rule:nonzero;stroke:none"
       d="M 7.96875 0 C 6.0038672 0 4.4375 1.46275 4.4375 3.28125 C 4.4107 3.58765 4.39573 3.8903 4.40625 4.1875 C 4.24005 4.1875 3.8125 4.31035 3.8125 4.46875 L 3.8125 6.1875 C 3.8125 6.3457 4.24005 6.46875 4.40625 6.46875 L 4.59375 6.46875 C 4.8953756 7.67395 5.5769295 8.6968 6.4375 9.25 C 6.362887 9.34 6.2648556 9.4139 6.1875 9.5 L 5.59375 9.5 C 5.2613503 9.5 5 9.7459 5 10.0625 L 5 10.625 C 4.1587868 11.2551 3.170408 11.7053 2 12 L 1 12.3125 C 0.46936424 12.4717 -1.42488e-17 12.7585 0 13.3125 L 0 16 L 2 16 L 14 16 L 16 16 L 16 13.3125 C 16 12.7585 15.530636 12.4717 15 12.3125 L 14 12 C 12.884128 11.6741 11.890622 11.135 11 10.4375 L 11 10.0625 C 11 9.7459 10.738649 9.5 10.40625 9.5 L 9.96875 9.5 C 9.87439 9.401 9.7790093 9.2917 9.6875 9.1875 C 10.517382 8.6288 11.119488 7.65065 11.40625 6.46875 L 11.59375 6.46875 C 11.75995 6.46875 12.1875 6.3457 12.1875 6.1875 L 12.1875 4.46875 C 12.1875 4.31035 11.75995 4.1875 11.59375 4.1875 C 11.58995 3.9392 11.57788 3.6783 11.53125 3.375 C 11.53125 0.9372 9.5629135 0.0449 7.96875 0 z "
       transform="translate(0,1036.3622)"
       id="path3290" />
  </g>
</svg>
