<?xml version="1.0" encoding="UTF-8" standalone="no"?>
<!-- Created with Inkscape (http://www.inkscape.org/) -->

<svg
   xmlns:dc="http://purl.org/dc/elements/1.1/"
   xmlns:cc="http://creativecommons.org/ns#"
   xmlns:rdf="http://www.w3.org/1999/02/22-rdf-syntax-ns#"
   xmlns:svg="http://www.w3.org/2000/svg"
   xmlns="http://www.w3.org/2000/svg"
   xmlns:xlink="http://www.w3.org/1999/xlink"
   xmlns:sodipodi="http://sodipodi.sourceforge.net/DTD/sodipodi-0.dtd"
   xmlns:inkscape="http://www.inkscape.org/namespaces/inkscape"
   width="16"
   height="16"
   id="svg2"
   version="1.1"
   inkscape:version="0.48.3.1 r9886"
   sodipodi:docname="folder-recent.svg">
  <defs
     id="defs4">
    <linearGradient
       id="linearGradient3792">
      <stop
         style="stop-color:#fff0c8;stop-opacity:1;"
         offset="0"
         id="stop3794" />
      <stop
         style="stop-color:#f0d78c;stop-opacity:1;"
         offset="1"
         id="stop3796" />
    </linearGradient>
    <linearGradient
       id="linearGradient3784">
      <stop
         style="stop-color:#bea55a;stop-opacity:1;"
         offset="0"
         id="stop3786" />
      <stop
         style="stop-color:#832000;stop-opacity:1;"
         offset="1"
         id="stop3788" />
    </linearGradient>
    <linearGradient
       id="linearGradient3755">
      <stop
         style="stop-color:#b06121;stop-opacity:1;"
         offset="0"
         id="stop3757" />
      <stop
         style="stop-color:#973404;stop-opacity:1;"
         offset="1"
         id="stop3759" />
    </linearGradient>
    <radialGradient
       inkscape:collect="always"
       xlink:href="#linearGradient3755"
       id="radialGradient3761"
       cx="8.178565"
       cy="1038.8264"
       fx="8.178565"
       fy="1038.8264"
       r="8"
       gradientUnits="userSpaceOnUse"
       gradientTransform="matrix(-1.9999328e-6,1.6093796,-1.3913414,-1.7289826e-6,1453.5408,1025.6658)" />
    <linearGradient
       inkscape:collect="always"
       xlink:href="#linearGradient3784"
       id="linearGradient3790"
       x1="2.3839283"
       y1="15.910306"
       x2="2.3839283"
       y2="2.125"
       gradientUnits="userSpaceOnUse" />
    <radialGradient
       inkscape:collect="always"
       xlink:href="#linearGradient3792"
       id="radialGradient3798"
       cx="8"
       cy="1.7040817"
       fx="8"
       fy="1.7040817"
       r="8"
       gradientTransform="matrix(2.3415727e-8,1.5792888,-1.3214286,1.9592497e-8,10.251822,-10.018239)"
       gradientUnits="userSpaceOnUse" />
    <linearGradient
       inkscape:collect="always"
       xlink:href="#linearGradient3814"
       id="linearGradient3813"
       x1="47.496201"
       y1="964.64258"
       x2="47.496201"
       y2="1030.6268"
       gradientUnits="userSpaceOnUse"
       gradientTransform="translate(0,-956.36218)" />
    <linearGradient
       id="linearGradient3814">
      <stop
         style="stop-color:#b06121;stop-opacity:1;"
         offset="0"
         id="stop3816" />
      <stop
         style="stop-color:#973404;stop-opacity:1;"
         offset="1"
         id="stop3818" />
    </linearGradient>
    <linearGradient
       y2="1030.6268"
       x2="47.496201"
       y1="964.64258"
       x1="47.496201"
       gradientTransform="matrix(0.21052576,0,0,0.21052576,-17.650351,833.38188)"
       gradientUnits="userSpaceOnUse"
       id="linearGradient3049"
       xlink:href="#linearGradient3814"
       inkscape:collect="always" />
    <linearGradient
       inkscape:collect="always"
       xlink:href="#linearGradient3755"
       id="linearGradient3829"
       x1="8.1339283"
       y1="0.17857143"
       x2="8.1339283"
       y2="13.842463"
       gradientUnits="userSpaceOnUse" />
  </defs>
  <sodipodi:namedview
     id="base"
     pagecolor="#ffffff"
     bordercolor="#666666"
     borderopacity="1.0"
     inkscape:pageopacity="0.0"
     inkscape:pageshadow="2"
     inkscape:zoom="11.2"
     inkscape:cx="6.3715124"
     inkscape:cy="6.5379889"
     inkscape:document-units="px"
     inkscape:current-layer="layer1"
     showgrid="false"
     inkscape:window-width="1280"
     inkscape:window-height="756"
     inkscape:window-x="0"
     inkscape:window-y="24"
     inkscape:window-maximized="1" />
  <metadata
     id="metadata7">
    <rdf:RDF>
      <cc:Work
         rdf:about="">
        <dc:format>image/svg+xml</dc:format>
        <dc:type
           rdf:resource="http://purl.org/dc/dcmitype/StillImage" />
        <dc:title />
      </cc:Work>
    </rdf:RDF>
  </metadata>
  <g
     inkscape:label="Livello 1"
     inkscape:groupmode="layer"
     id="layer1"
     transform="translate(0,-1036.3622)">
    <rect
       style="opacity:1;fill:url(#radialGradient3761);fill-opacity:1;stroke:#832000;stroke-opacity:1"
       id="rect3753"
       width="15"
       height="15"
       x="0.5"
       y="1036.8622"
       rx="1"
       ry="1" />
    <path
       style="fill:url(#radialGradient3798);fill-opacity:1;stroke:url(#linearGradient3790);stroke-opacity:1"
       d="M 1.5 2.5 C 0.946 2.5 0.5 2.946 0.5 3.5 L 0.5 6.5 L 0.5 14.5 C 0.5 15.054 0.946 15.5 1.5 15.5 L 14.5 15.5 C 15.054 15.5 15.5 15.054 15.5 14.5 L 15.5 5.5 C 15.5 4.946 15.054 4.5 14.5 4.5 L 13.5 4.5 L 10.5 4.5 L 8.5 4.5 C 7.946 4.5 7.5 4.054 7.5 3.5 C 7.5 2.946 7.054 2.5 6.5 2.5 L 1.5 2.5 z "
       transform="translate(0,1036.3622)"
       id="rect3770" />
    <path
       id="path3831"
       d="m 8,1043.3622 c -2.209139,0 -3.9999999,1.7909 -4,4 l -1.3125,0 2,3 2,-3 -1.1875,0 c 1e-7,-1.3807 1.1192882,-2.5 2.5,-2.5 1.3807118,0 2.5,1.1193 2.5,2.5 0,1.3807 -1.1192883,2.5 -2.5,2.5 l 0,1.5 c 2.209139,0 4,-1.7909 4,-4 0,-2.2091 -1.790861,-4 -4,-4 z m -0.25,2.5 0,1.5 0,0.5 0.5,0 1,0 0,-0.5 -1,0 0,-1.5 -0.5,0 z"
       style="fill:#ffffff;fill-opacity:1;stroke:none;opacity:0.3"
       inkscape:connector-curvature="0" />
    <path
       style="opacity:1;fill:url(#linearGradient3829);fill-opacity:1.0;stroke:none"
       d="M 8 6 C 5.790861 5.9999999 4.0000001 7.790861 4 10 L 2.6875 10 L 4.6875 13 L 6.6875 10 L 5.5 10 C 5.5000001 8.6192882 6.6192882 7.4999999 8 7.5 C 9.3807118 7.5000001 10.5 8.6192882 10.5 10 C 10.5 11.380712 9.3807117 12.5 8 12.5 L 8 14 C 10.209139 14 12 12.209139 12 10 C 12 7.790861 10.209139 6.0000001 8 6 z M 7.75 8.5 L 7.75 10 L 7.75 10.5 L 8.25 10.5 L 9.25 10.5 L 9.25 10 L 8.25 10 L 8.25 8.5 L 7.75 8.5 z "
       transform="translate(0,1036.3622)"
       id="path3032" />
  </g>
</svg>
