<?xml version="1.0" encoding="UTF-8" standalone="no"?>
<!-- Created with Inkscape (http://www.inkscape.org/) -->

<svg
   xmlns:dc="http://purl.org/dc/elements/1.1/"
   xmlns:cc="http://creativecommons.org/ns#"
   xmlns:rdf="http://www.w3.org/1999/02/22-rdf-syntax-ns#"
   xmlns:svg="http://www.w3.org/2000/svg"
   xmlns="http://www.w3.org/2000/svg"
   xmlns:xlink="http://www.w3.org/1999/xlink"
   xmlns:sodipodi="http://sodipodi.sourceforge.net/DTD/sodipodi-0.dtd"
   xmlns:inkscape="http://www.inkscape.org/namespaces/inkscape"
   width="16"
   height="16"
   id="svg2"
   version="1.1"
   inkscape:version="0.48.3.1 r9886"
   sodipodi:docname="folder.svg">
  <defs
     id="defs4">
    <linearGradient
       id="linearGradient3792">
      <stop
         style="stop-color:#fff0c8;stop-opacity:1;"
         offset="0"
         id="stop3794" />
      <stop
         style="stop-color:#f0d78c;stop-opacity:1;"
         offset="1"
         id="stop3796" />
    </linearGradient>
    <linearGradient
       id="linearGradient3784">
      <stop
         style="stop-color:#bea55a;stop-opacity:1;"
         offset="0"
         id="stop3786" />
      <stop
         style="stop-color:#832000;stop-opacity:1;"
         offset="1"
         id="stop3788" />
    </linearGradient>
    <linearGradient
       id="linearGradient3755">
      <stop
         style="stop-color:#b06121;stop-opacity:1;"
         offset="0"
         id="stop3757" />
      <stop
         style="stop-color:#973404;stop-opacity:1;"
         offset="1"
         id="stop3759" />
    </linearGradient>
    <radialGradient
       inkscape:collect="always"
       xlink:href="#linearGradient3755"
       id="radialGradient3761"
       cx="8.178565"
       cy="1038.8264"
       fx="8.178565"
       fy="1038.8264"
       r="8"
       gradientUnits="userSpaceOnUse"
       gradientTransform="matrix(-1.9999328e-6,1.6093796,-1.3913414,-1.7289826e-6,1453.5408,1025.6658)" />
    <linearGradient
       inkscape:collect="always"
       xlink:href="#linearGradient3784"
       id="linearGradient3790"
       x1="2.3839283"
       y1="15.910306"
       x2="2.3839283"
       y2="2.125"
       gradientUnits="userSpaceOnUse" />
    <radialGradient
       inkscape:collect="always"
       xlink:href="#linearGradient3792"
       id="radialGradient3798"
       cx="8"
       cy="1.7040817"
       fx="8"
       fy="1.7040817"
       r="8"
       gradientTransform="matrix(2.3415727e-8,1.5792888,-1.3214286,1.9592497e-8,10.251822,-10.018239)"
       gradientUnits="userSpaceOnUse" />
    <linearGradient
       inkscape:collect="always"
       xlink:href="#linearGradient3755"
       id="linearGradient3799"
       x1="7.6088209"
       y1="0.087878153"
       x2="7.6088209"
       y2="12.984023"
       gradientUnits="userSpaceOnUse" />
  </defs>
  <sodipodi:namedview
     id="base"
     pagecolor="#ffffff"
     bordercolor="#666666"
     borderopacity="1.0"
     inkscape:pageopacity="0.0"
     inkscape:pageshadow="2"
     inkscape:zoom="7.919596"
     inkscape:cx="8.6258307"
     inkscape:cy="-3.7926224"
     inkscape:document-units="px"
     inkscape:current-layer="layer1"
     showgrid="false"
     inkscape:window-width="1280"
     inkscape:window-height="756"
     inkscape:window-x="0"
     inkscape:window-y="24"
     inkscape:window-maximized="1" />
  <metadata
     id="metadata7">
    <rdf:RDF>
      <cc:Work
         rdf:about="">
        <dc:format>image/svg+xml</dc:format>
        <dc:type
           rdf:resource="http://purl.org/dc/dcmitype/StillImage" />
        <dc:title></dc:title>
      </cc:Work>
    </rdf:RDF>
  </metadata>
  <g
     inkscape:label="Livello 1"
     inkscape:groupmode="layer"
     id="layer1"
     transform="translate(0,-1036.3622)">
    <rect
       style="opacity:1;fill:url(#radialGradient3761);fill-opacity:1;stroke:#832000;stroke-opacity:1"
       id="rect3753"
       width="15"
       height="15"
       x="0.5"
       y="1036.8622"
       rx="1"
       ry="1" />
    <path
       style="fill:url(#radialGradient3798);fill-opacity:1;stroke:url(#linearGradient3790);stroke-opacity:1"
       d="M 1.5 2.5 C 0.946 2.5 0.5 2.946 0.5 3.5 L 0.5 6.5 L 0.5 14.5 C 0.5 15.054 0.946 15.5 1.5 15.5 L 14.5 15.5 C 15.054 15.5 15.5 15.054 15.5 14.5 L 15.5 5.5 C 15.5 4.946 15.054 4.5 14.5 4.5 L 13.5 4.5 L 10.5 4.5 L 8.5 4.5 C 7.946 4.5 7.5 4.054 7.5 3.5 C 7.5 2.946 7.054 2.5 6.5 2.5 L 1.5 2.5 z "
       transform="translate(0,1036.3622)"
       id="rect3770" />
    <path
       id="path3801"
       d="m 6,1044.3622 c -1.6568542,0 -3,1.3431 -3,3 0,1.6569 1.3431458,3 3,3 1.6568542,0 3,-1.3431 3,-3 0,-1.6569 -1.3431458,-3 -3,-3 z m 3,3 0,0.5 c 0,0.277 0.223,0.5 0.5,0.5 l 3,0 c 0.277,0 0.5,-0.223 0.5,-0.5 l 0,-1 c 0,-0.277 -0.223,-0.5 -0.5,-0.5 l -3,0 c -0.277,0 -0.5,0.223 -0.5,0.5 l 0,0.5 z m -3,-2 c 1.1045693,0 2,0.8954 2,2 0,1.1046 -0.8954307,2 -2,2 -1.1045693,0 -2,-0.8954 -2,-2 0,-1.1046 0.8954307,-2 2,-2 z"
       style="fill:#ffffff;fill-opacity:1;stroke:none;opacity:0.29999999999999999"
       inkscape:connector-curvature="0" />
    <path
       style="opacity:1;fill:url(#linearGradient3799);fill-opacity:1;stroke:none"
       d="M 6 7 C 4.3431458 7 3 8.3431458 3 10 C 3 11.656854 4.3431458 13 6 13 C 7.6568542 13 9 11.656854 9 10 C 9 8.3431458 7.6568542 7 6 7 z M 9 10 L 9 10.5 C 9 10.777 9.223 11 9.5 11 L 12.5 11 C 12.777 11 13 10.777 13 10.5 L 13 9.5 C 13 9.223 12.777 9 12.5 9 L 9.5 9 C 9.223 9 9 9.223 9 9.5 L 9 10 z M 6 8 C 7.1045693 8 8 8.8954307 8 10 C 8 11.104569 7.1045693 12 6 12 C 4.8954307 12 4 11.104569 4 10 C 4 8.8954307 4.8954307 8 6 8 z "
       transform="translate(0,1036.3622)"
       id="path3013" />
  </g>
</svg>
