<?xml version="1.0" encoding="UTF-8" standalone="no"?>
<!-- Created with Inkscape (http://www.inkscape.org/) -->

<svg
   xmlns:dc="http://purl.org/dc/elements/1.1/"
   xmlns:cc="http://creativecommons.org/ns#"
   xmlns:rdf="http://www.w3.org/1999/02/22-rdf-syntax-ns#"
   xmlns:svg="http://www.w3.org/2000/svg"
   xmlns="http://www.w3.org/2000/svg"
   xmlns:xlink="http://www.w3.org/1999/xlink"
   xmlns:sodipodi="http://sodipodi.sourceforge.net/DTD/sodipodi-0.dtd"
   xmlns:inkscape="http://www.inkscape.org/namespaces/inkscape"
   width="16"
   height="16"
   id="svg2"
   version="1.1"
   inkscape:version="0.48.1 r9760"
   sodipodi:docname="folder-music.svg">
  <defs
     id="defs4">
    <linearGradient
       id="linearGradient3764">
      <stop
         style="stop-color:#505050;stop-opacity:1;"
         offset="0"
         id="stop3766" />
      <stop
         style="stop-color:#141414;stop-opacity:1;"
         offset="1"
         id="stop3768" />
    </linearGradient>
    <linearGradient
       inkscape:collect="always"
       xlink:href="#linearGradient3764"
       id="linearGradient3770"
       x1="7.5558391"
       y1="2.191623"
       x2="7.5558391"
       y2="14.061751"
       gradientUnits="userSpaceOnUse"
       gradientTransform="matrix(1.4545455,0,0,1.3333333,-22.354527,1031.0438)" />
    <linearGradient
       inkscape:collect="always"
       xlink:href="#linearGradient3764"
       id="linearGradient3769"
       x1="9.280776"
       y1="-0.01808577"
       x2="9.280776"
       y2="15.830159"
       gradientUnits="userSpaceOnUse"
       gradientTransform="translate(18.372149,1032.3847)" />
    <linearGradient
       inkscape:collect="always"
       xlink:href="#linearGradient3764"
       id="linearGradient3773"
       x1="9.5535717"
       y1="0.053571481"
       x2="9.5535717"
       y2="15.946439"
       gradientUnits="userSpaceOnUse" />
  </defs>
  <sodipodi:namedview
     id="base"
     pagecolor="#ffffff"
     bordercolor="#666666"
     borderopacity="1.0"
     inkscape:pageopacity="0.0"
     inkscape:pageshadow="2"
     inkscape:zoom="11.2"
     inkscape:cx="6.0771802"
     inkscape:cy="-0.17282627"
     inkscape:document-units="px"
     inkscape:current-layer="layer1"
     showgrid="false"
     inkscape:window-width="1230"
     inkscape:window-height="776"
     inkscape:window-x="50"
     inkscape:window-y="24"
     inkscape:window-maximized="1" />
  <metadata
     id="metadata7">
    <rdf:RDF>
      <cc:Work
         rdf:about="">
        <dc:format>image/svg+xml</dc:format>
        <dc:type
           rdf:resource="http://purl.org/dc/dcmitype/StillImage" />
        <dc:title></dc:title>
      </cc:Work>
    </rdf:RDF>
  </metadata>
  <g
     inkscape:label="Livello 1"
     inkscape:groupmode="layer"
     id="layer1"
     transform="translate(0,-1036.3622)">
    <path
       style="fill:url(#linearGradient3773);fill-opacity:1;fill-rule:nonzero;stroke:none"
       d="M 5 0 L 5 4 L 5 9.25 C 4.5461771 9.0964079 4.0355538 9 3.5 9 C 1.5670034 9 -8.6986162e-17 10.119288 0 11.5 C 0 12.880712 1.5670034 14 3.5 14 C 5.4329966 14 7 12.880712 7 11.5 L 7 4 L 14 4 L 14 11.25 C 13.546177 11.096408 13.035554 11 12.5 11 C 10.567003 11 9 12.119288 9 13.5 C 9 14.880712 10.567003 16 12.5 16 C 14.432997 16 16 14.880712 16 13.5 L 16 4 L 16 2 L 16 0 L 7 0 L 5 0 z "
       transform="translate(0,1036.3622)"
       id="path2988" />
  </g>
</svg>
