<?xml version="1.0" encoding="UTF-8" standalone="no"?>
<!-- Created with Inkscape (http://www.inkscape.org/) -->

<svg
   xmlns:dc="http://purl.org/dc/elements/1.1/"
   xmlns:cc="http://creativecommons.org/ns#"
   xmlns:rdf="http://www.w3.org/1999/02/22-rdf-syntax-ns#"
   xmlns:svg="http://www.w3.org/2000/svg"
   xmlns="http://www.w3.org/2000/svg"
   xmlns:xlink="http://www.w3.org/1999/xlink"
   xmlns:sodipodi="http://sodipodi.sourceforge.net/DTD/sodipodi-0.dtd"
   xmlns:inkscape="http://www.inkscape.org/namespaces/inkscape"
   width="22"
   height="22"
   id="svg3147"
   version="1.1"
   inkscape:version="0.48.3.1 r9886"
   sodipodi:docname="application-pdf.svg">
  <defs
     id="defs3149">
    <linearGradient
       id="linearGradient3786">
      <stop
         style="stop-color:#de220c;stop-opacity:1;"
         offset="0"
         id="stop3788" />
      <stop
         style="stop-color:#960000;stop-opacity:1;"
         offset="1"
         id="stop3790" />
    </linearGradient>
    <linearGradient
       id="linearGradient3778">
      <stop
         style="stop-color:#640000;stop-opacity:1;"
         offset="0"
         id="stop3780" />
      <stop
         style="stop-color:#c80000;stop-opacity:1;"
         offset="1"
         id="stop3782" />
    </linearGradient>
    <linearGradient
       id="linearGradient4536">
      <stop
         style="stop-color:#ffffff;stop-opacity:1;"
         offset="0"
         id="stop4538" />
      <stop
         id="stop4546"
         offset="0.06216056"
         style="stop-color:#ffffff;stop-opacity:0.15686275;" />
      <stop
         id="stop4544"
         offset="0.936414"
         style="stop-color:#ffffff;stop-opacity:0.23529412;" />
      <stop
         style="stop-color:#ffffff;stop-opacity:0.39215687;"
         offset="1"
         id="stop4540" />
    </linearGradient>
    <radialGradient
       inkscape:collect="always"
       xlink:href="#linearGradient3688-166-749"
       id="radialGradient3132"
       gradientUnits="userSpaceOnUse"
       gradientTransform="matrix(2.003784,0,0,1.4,27.98813,-17.4)"
       cx="4.9929786"
       cy="43.5"
       fx="4.9929786"
       fy="43.5"
       r="2.5" />
    <linearGradient
       id="linearGradient3688-166-749">
      <stop
         id="stop2883"
         style="stop-color:#181818;stop-opacity:1"
         offset="0" />
      <stop
         id="stop2885"
         style="stop-color:#181818;stop-opacity:0"
         offset="1" />
    </linearGradient>
    <radialGradient
       inkscape:collect="always"
       xlink:href="#linearGradient3688-464-309"
       id="radialGradient3134"
       gradientUnits="userSpaceOnUse"
       gradientTransform="matrix(2.003784,0,0,1.4,-20.01187,-104.4)"
       cx="4.9929786"
       cy="43.5"
       fx="4.9929786"
       fy="43.5"
       r="2.5" />
    <linearGradient
       id="linearGradient3688-464-309">
      <stop
         id="stop2889"
         style="stop-color:#181818;stop-opacity:1"
         offset="0" />
      <stop
         id="stop2891"
         style="stop-color:#181818;stop-opacity:0"
         offset="1" />
    </linearGradient>
    <linearGradient
       inkscape:collect="always"
       xlink:href="#linearGradient3702-501-757"
       id="linearGradient3136"
       gradientUnits="userSpaceOnUse"
       x1="25.058096"
       y1="47.027729"
       x2="25.058096"
       y2="39.999443" />
    <linearGradient
       id="linearGradient3702-501-757">
      <stop
         id="stop2895"
         style="stop-color:#181818;stop-opacity:0"
         offset="0" />
      <stop
         id="stop2897"
         style="stop-color:#181818;stop-opacity:1"
         offset="0.5" />
      <stop
         id="stop2899"
         style="stop-color:#181818;stop-opacity:0"
         offset="1" />
    </linearGradient>
    <linearGradient
       inkscape:collect="always"
       xlink:href="#linearGradient4536"
       id="linearGradient4542"
       x1="23.522522"
       y1="1010.4793"
       x2="23.522522"
       y2="1028.3296"
       gradientUnits="userSpaceOnUse"
       gradientTransform="translate(-2.9999878,21.999317)" />
    <linearGradient
       inkscape:collect="always"
       xlink:href="#linearGradient3778"
       id="linearGradient3784"
       x1="6.5045047"
       y1="1050.1648"
       x2="6.5045047"
       y2="1030.4163"
       gradientUnits="userSpaceOnUse"
       gradientTransform="translate(-0.99998786,0.99930104)" />
    <radialGradient
       inkscape:collect="always"
       xlink:href="#linearGradient3786"
       id="radialGradient3792"
       cx="12.000014"
       cy="1034.0199"
       fx="12.000014"
       fy="1034.0199"
       r="10"
       gradientUnits="userSpaceOnUse"
       gradientTransform="matrix(2.5068922e-6,1.722531,-1.4324506,2.0847226e-6,1492.1824,1014.3466)" />
  </defs>
  <sodipodi:namedview
     id="base"
     pagecolor="#ffffff"
     bordercolor="#666666"
     borderopacity="1.0"
     inkscape:pageopacity="0.0"
     inkscape:pageshadow="2"
     inkscape:zoom="13.875"
     inkscape:cx="8.6849322"
     inkscape:cy="10.000737"
     inkscape:document-units="px"
     inkscape:current-layer="layer1"
     showgrid="false"
     inkscape:window-width="1280"
     inkscape:window-height="749"
     inkscape:window-x="0"
     inkscape:window-y="24"
     inkscape:window-maximized="1" />
  <metadata
     id="metadata3152">
    <rdf:RDF>
      <cc:Work
         rdf:about="">
        <dc:format>image/svg+xml</dc:format>
        <dc:type
           rdf:resource="http://purl.org/dc/dcmitype/StillImage" />
        <dc:title></dc:title>
      </cc:Work>
    </rdf:RDF>
  </metadata>
  <g
     inkscape:label="Livello 1"
     inkscape:groupmode="layer"
     id="layer1"
     transform="translate(0,-1030.3622)">
    <rect
       style="fill:url(#radialGradient3792);fill-opacity:1;stroke:url(#linearGradient3784);stroke-width:1;stroke-opacity:1"
       id="rect3163"
       width="19"
       height="19"
       x="1.5000125"
       y="1031.8613"
       rx="1.5"
       ry="1.5" />
    <rect
       style="opacity:0.3;fill:none;stroke:url(#linearGradient4542);stroke-width:1;stroke-opacity:1"
       id="rect4534"
       width="17"
       height="17"
       x="2.5000131"
       y="1032.8613"
       rx="0.5"
       ry="0.5" />
    <path
       inkscape:connector-curvature="0"
       style="opacity:0.1;fill:#000000;fill-opacity:1;stroke:#000000;stroke-width:2;stroke-linejoin:round;stroke-miterlimit:4;stroke-opacity:1;stroke-dasharray:none"
       d="m 5.4194079,1032.3622 c -0.059825,0.225 -0.1275715,0.4635 -0.207237,0.7402 -0.64064,2.2219 -1.8032776,5.2208 -3.2121709,8.4822 l 0,7.6375 0.754934,-1.5098 c 1.4747546,-2.9452 3.1264295,-6.7099 3.6710533,-8.3777 0.5446184,-1.6692 1.0775608,-3.2 1.1842108,-3.3902 0.1066587,-0.1893 0.8168183,0.736 1.5690794,2.0428 1.9644875,3.4123 5.0246995,6.9618 7.3421065,8.5265 1.565421,1.0565 1.797039,1.3615 1.09539,1.3615 -1.044757,0 -6.983137,1.4507 -10.2730236,2.487 l 9.2960536,0 c 0.05475,-0.01 0.107987,-0.021 0.162825,-0.031 l 3.182565,-0.5335 c 0.0091,-0.049 0.01483,-0.097 0.01483,-0.1475 l 0,-4.3523 c -3.684524,-2.3212 -7.825857,-7.3175 -10.050984,-12.2711 -0.107166,-0.2388 -0.212414,-0.4562 -0.296056,-0.6661 l -4.2335517,0 z"
       id="path3796" />
    <path
       id="path3794"
       d="m 5.4194079,1032.3622 c -0.059825,0.225 -0.1275715,0.4635 -0.207237,0.7402 -0.64064,2.2219 -1.8032776,5.2208 -3.2121709,8.4822 l 0,7.6375 0.754934,-1.5098 c 1.4747546,-2.9452 3.1264295,-6.7099 3.6710533,-8.3777 0.5446184,-1.6692 1.0775608,-3.2 1.1842108,-3.3902 0.1066587,-0.1893 0.8168183,0.736 1.5690794,2.0428 1.9644875,3.4123 5.0246995,6.9618 7.3421065,8.5265 1.565421,1.0565 1.797039,1.3615 1.09539,1.3615 -1.044757,0 -6.983137,1.4507 -10.2730236,2.487 l 9.2960536,0 c 0.05475,-0.01 0.107987,-0.021 0.162825,-0.031 l 3.182565,-0.5335 c 0.0091,-0.049 0.01483,-0.097 0.01483,-0.1475 l 0,-4.3523 c -3.684524,-2.3212 -7.825857,-7.3175 -10.050984,-12.2711 -0.107166,-0.2388 -0.212414,-0.4562 -0.296056,-0.6661 l -4.2335517,0 z"
       style="opacity:0.15;fill:#000000;fill-opacity:1;stroke:#000000;stroke-width:1;stroke-linejoin:round;stroke-opacity:1"
       inkscape:connector-curvature="0" />
    <path
       inkscape:connector-curvature="0"
       style="fill:#ffffff;fill-opacity:1;stroke:none"
       d="m 5.4194079,1032.3622 c -0.059825,0.225 -0.1275715,0.4635 -0.207237,0.7402 -0.64064,2.2219 -1.8032776,5.2208 -3.2121709,8.4822 l 0,7.6375 0.754934,-1.5098 c 1.4747546,-2.9452 3.1264295,-6.7099 3.6710533,-8.3777 0.5446184,-1.6692 1.0775608,-3.2 1.1842108,-3.3902 0.1066587,-0.1893 0.8168183,0.736 1.5690794,2.0428 1.9644875,3.4123 5.0246995,6.9618 7.3421065,8.5265 1.565421,1.0565 1.797039,1.3615 1.09539,1.3615 -1.044757,0 -6.983137,1.4507 -10.2730236,2.487 l 9.2960536,0 c 0.05475,-0.01 0.107987,-0.021 0.162825,-0.031 l 3.182565,-0.5335 c 0.0091,-0.049 0.01483,-0.097 0.01483,-0.1475 l 0,-4.3523 c -3.684524,-2.3212 -7.825857,-7.3175 -10.050984,-12.2711 -0.107166,-0.2388 -0.212414,-0.4562 -0.296056,-0.6661 l -4.2335517,0 z"
       id="path2830" />
  </g>
</svg>
