<?xml version="1.0" encoding="UTF-8" standalone="no"?>
<!-- Created with Inkscape (http://www.inkscape.org/) -->

<svg
   xmlns:dc="http://purl.org/dc/elements/1.1/"
   xmlns:cc="http://creativecommons.org/ns#"
   xmlns:rdf="http://www.w3.org/1999/02/22-rdf-syntax-ns#"
   xmlns:svg="http://www.w3.org/2000/svg"
   xmlns="http://www.w3.org/2000/svg"
   xmlns:xlink="http://www.w3.org/1999/xlink"
   xmlns:sodipodi="http://sodipodi.sourceforge.net/DTD/sodipodi-0.dtd"
   xmlns:inkscape="http://www.inkscape.org/namespaces/inkscape"
   width="22"
   height="22"
   id="svg3147"
   version="1.1"
   inkscape:version="0.48.3.1 r9886"
   sodipodi:docname="audio-x-generic.svg">
  <defs
     id="defs3149">
    <linearGradient
       id="linearGradient3843">
      <stop
         style="stop-color:#ffea3e;stop-opacity:1;"
         offset="0"
         id="stop3845" />
      <stop
         id="stop3853"
         offset="0.34493423"
         style="stop-color:#e4301b;stop-opacity:1;" />
      <stop
         id="stop3851"
         offset="0.68353951"
         style="stop-color:#852cbf;stop-opacity:1;" />
      <stop
         style="stop-color:#13215d;stop-opacity:1;"
         offset="1"
         id="stop3847" />
    </linearGradient>
    <linearGradient
       id="linearGradient3834">
      <stop
         style="stop-color:#787878;stop-opacity:1;"
         offset="0"
         id="stop3836" />
      <stop
         style="stop-color:#a0a0a0;stop-opacity:1;"
         offset="1"
         id="stop3838" />
    </linearGradient>
    <linearGradient
       id="linearGradient3826">
      <stop
         style="stop-color:#fafafa;stop-opacity:1;"
         offset="0"
         id="stop3828" />
      <stop
         style="stop-color:#c8c8c8;stop-opacity:1;"
         offset="1"
         id="stop3830" />
    </linearGradient>
    <linearGradient
       id="linearGradient4536">
      <stop
         style="stop-color:#ffffff;stop-opacity:1;"
         offset="0"
         id="stop4538" />
      <stop
         id="stop4546"
         offset="0.06216056"
         style="stop-color:#ffffff;stop-opacity:0.15686275;" />
      <stop
         id="stop4544"
         offset="0.936414"
         style="stop-color:#ffffff;stop-opacity:0.23529412;" />
      <stop
         style="stop-color:#ffffff;stop-opacity:0.39215687;"
         offset="1"
         id="stop4540" />
    </linearGradient>
    <radialGradient
       inkscape:collect="always"
       xlink:href="#linearGradient3688-166-749"
       id="radialGradient3132"
       gradientUnits="userSpaceOnUse"
       gradientTransform="matrix(2.003784,0,0,1.4,27.98813,-17.4)"
       cx="4.9929786"
       cy="43.5"
       fx="4.9929786"
       fy="43.5"
       r="2.5" />
    <linearGradient
       id="linearGradient3688-166-749">
      <stop
         id="stop2883"
         style="stop-color:#181818;stop-opacity:1"
         offset="0" />
      <stop
         id="stop2885"
         style="stop-color:#181818;stop-opacity:0"
         offset="1" />
    </linearGradient>
    <radialGradient
       inkscape:collect="always"
       xlink:href="#linearGradient3688-464-309"
       id="radialGradient3134"
       gradientUnits="userSpaceOnUse"
       gradientTransform="matrix(2.003784,0,0,1.4,-20.01187,-104.4)"
       cx="4.9929786"
       cy="43.5"
       fx="4.9929786"
       fy="43.5"
       r="2.5" />
    <linearGradient
       id="linearGradient3688-464-309">
      <stop
         id="stop2889"
         style="stop-color:#181818;stop-opacity:1"
         offset="0" />
      <stop
         id="stop2891"
         style="stop-color:#181818;stop-opacity:0"
         offset="1" />
    </linearGradient>
    <linearGradient
       inkscape:collect="always"
       xlink:href="#linearGradient3702-501-757"
       id="linearGradient3136"
       gradientUnits="userSpaceOnUse"
       x1="25.058096"
       y1="47.027729"
       x2="25.058096"
       y2="39.999443" />
    <linearGradient
       id="linearGradient3702-501-757">
      <stop
         id="stop2895"
         style="stop-color:#181818;stop-opacity:0"
         offset="0" />
      <stop
         id="stop2897"
         style="stop-color:#181818;stop-opacity:1"
         offset="0.5" />
      <stop
         id="stop2899"
         style="stop-color:#181818;stop-opacity:0"
         offset="1" />
    </linearGradient>
    <linearGradient
       inkscape:collect="always"
       xlink:href="#linearGradient4536"
       id="linearGradient4542"
       x1="23.522522"
       y1="1010.4793"
       x2="23.522522"
       y2="1028.3296"
       gradientUnits="userSpaceOnUse"
       gradientTransform="translate(-3,21.999982)" />
    <linearGradient
       inkscape:collect="always"
       xlink:href="#linearGradient3990"
       id="linearGradient4940"
       gradientUnits="userSpaceOnUse"
       gradientTransform="translate(0,3.9999999)"
       x1="23"
       y1="12.75"
       x2="23"
       y2="30.875431" />
    <linearGradient
       id="linearGradient3990">
      <stop
         offset="0"
         style="stop-color:#505050;stop-opacity:1;"
         id="stop3992" />
      <stop
         offset="1"
         style="stop-color:#141414;stop-opacity:1;"
         id="stop3994" />
    </linearGradient>
    <linearGradient
       y2="30.875431"
       x2="23"
       y1="12.75"
       x1="23"
       gradientTransform="matrix(0.5263158,0,0,0.5,-0.8421055,1029.8622)"
       gradientUnits="userSpaceOnUse"
       id="linearGradient3311"
       xlink:href="#linearGradient3990"
       inkscape:collect="always" />
    <radialGradient
       inkscape:collect="always"
       xlink:href="#linearGradient3826"
       id="radialGradient3832"
       cx="12.050944"
       cy="1034.1448"
       fx="12.050944"
       fy="1034.1448"
       r="10"
       gradientUnits="userSpaceOnUse"
       gradientTransform="matrix(7.7611059e-6,1.7108348,-1.2242357,5.5536764e-6,1277.0877,1014.5218)" />
    <linearGradient
       inkscape:collect="always"
       xlink:href="#linearGradient3834"
       id="linearGradient3840"
       x1="6.7621675"
       y1="1050.2311"
       x2="6.7621675"
       y2="1030.4755"
       gradientUnits="userSpaceOnUse"
       gradientTransform="translate(-1,0.99996484)" />
    <linearGradient
       inkscape:collect="always"
       xlink:href="#linearGradient3843"
       id="linearGradient3849"
       x1="8.8221989"
       y1="3.8969386"
       x2="8.8221989"
       y2="20.001558"
       gradientUnits="userSpaceOnUse" />
    <linearGradient
       inkscape:collect="always"
       xlink:href="#linearGradient3843"
       id="linearGradient3857"
       gradientUnits="userSpaceOnUse"
       x1="8.8221989"
       y1="3.8969386"
       x2="8.8221989"
       y2="20.001558"
       gradientTransform="translate(0,1028.3622)" />
    <linearGradient
       inkscape:collect="always"
       xlink:href="#linearGradient3843"
       id="linearGradient3898"
       gradientUnits="userSpaceOnUse"
       x1="8.8221989"
       y1="3.8969386"
       x2="8.8221989"
       y2="20.001558" />
    <linearGradient
       inkscape:collect="always"
       xlink:href="#linearGradient3843"
       id="linearGradient3901"
       gradientUnits="userSpaceOnUse"
       x1="8.8221989"
       y1="3.8969386"
       x2="8.8221989"
       y2="20.001558" />
    <linearGradient
       inkscape:collect="always"
       xlink:href="#linearGradient3843"
       id="linearGradient3904"
       gradientUnits="userSpaceOnUse"
       x1="8.8221989"
       y1="4.967154"
       x2="8.8221989"
       y2="20.001558"
       gradientTransform="translate(-1,1029.3621)" />
    <linearGradient
       inkscape:collect="always"
       xlink:href="#linearGradient3990"
       id="linearGradient3906"
       gradientUnits="userSpaceOnUse"
       gradientTransform="matrix(0.5263158,0,0,0.5,-1.8421055,1030.8621)"
       x1="23"
       y1="12.75"
       x2="23"
       y2="30.875431" />
    <linearGradient
       inkscape:collect="always"
       xlink:href="#linearGradient3843"
       id="linearGradient3908"
       gradientUnits="userSpaceOnUse"
       x1="8.8221989"
       y1="3.8969386"
       x2="8.8221989"
       y2="20.001558"
       gradientTransform="translate(-1,1029.3621)" />
  </defs>
  <sodipodi:namedview
     id="base"
     pagecolor="#ffffff"
     bordercolor="#666666"
     borderopacity="1.0"
     inkscape:pageopacity="0.0"
     inkscape:pageshadow="2"
     inkscape:zoom="9.8111066"
     inkscape:cx="3.4146576"
     inkscape:cy="5.3480884"
     inkscape:document-units="px"
     inkscape:current-layer="layer1"
     showgrid="false"
     inkscape:window-width="1280"
     inkscape:window-height="749"
     inkscape:window-x="0"
     inkscape:window-y="24"
     inkscape:window-maximized="1" />
  <metadata
     id="metadata3152">
    <rdf:RDF>
      <cc:Work
         rdf:about="">
        <dc:format>image/svg+xml</dc:format>
        <dc:type
           rdf:resource="http://purl.org/dc/dcmitype/StillImage" />
        <dc:title></dc:title>
      </cc:Work>
    </rdf:RDF>
  </metadata>
  <g
     inkscape:label="Livello 1"
     inkscape:groupmode="layer"
     id="layer1"
     transform="translate(0,-1030.3622)">
    <rect
       style="fill:url(#radialGradient3832);fill-opacity:1;stroke:url(#linearGradient3840);stroke-opacity:1"
       id="rect3163"
       width="19"
       height="19"
       x="1.4999999"
       y="1031.8621"
       rx="1.5"
       ry="1.5" />
    <rect
       style="opacity:0.3;fill:none;stroke:url(#linearGradient4542);stroke-opacity:1"
       id="rect4534"
       width="17"
       height="17"
       x="2.5000005"
       y="1032.8621"
       rx="0.5"
       ry="0.5" />
    <path
       style="opacity:0.2;fill:url(#linearGradient3908);fill-opacity:1;stroke:none"
       d="m 4,1033.3621 0,1 4,0 0,-1 -4,0 z m 5,0 0,1 4,0 0,-1 -4,0 z m 5,0 0,1 4,0 0,-1 -4,0 z m -10,2 0,2 3.15625,0 0,-1 0.84375,0 0,-1 -4,0 z m 5,0 0,1 4,0 0,-1 -4,0 z m 5,0 0,1 1,0 1,0 0,1 2,0 0,-2 -4,0 z m -10,3 0,2 3.15625,0 0,-1 0,-1 -3.15625,0 z m 12,0 0,0.5 0,1.5 2,0 0,-2 -2,0 z m -12,3 0,2 0.09375,0 c 0.1446555,-0.5687 0.4893533,-1.0557 0.9375,-1.375 0.5767453,-0.4109 1.288608,-0.625 2.0625,-0.625 l -3.09375,0 z m 6.21875,0 0,2 0.21875,0 c 0.112099,-0.1377 0.231002,-0.2724 0.375,-0.375 0.576744,-0.4109 1.319858,-0.625 2.09375,-0.625 0.01078,0 0.0205,-10e-5 0.03125,0 l 0,-1 -2.71875,0 z m 5.78125,0 0,2 2,0 0,-2 -2,0 z m -12,3 0,2 3.09375,0 c -0.7738634,0 -1.4857383,-0.2141 -2.0625,-0.625 -0.4547844,-0.324 -0.7976355,-0.7951 -0.9375,-1.375 l -0.09375,0 z m 3.09375,2 0.90625,0 0,-0.094 c -0.2919987,0.068 -0.5955668,0.094 -0.90625,0.094 z m 8.90625,-2 0,0.5 c 0,0.579 -0.238809,1.105 -0.59375,1.5 l 2.59375,0 0,-2 -2,0 z m -6.1875,0.6563 c -0.179067,0.269 -0.3717999,0.5383 -0.625,0.7187 -0.05937,0.042 -0.12475,0.087 -0.1875,0.125 l 0,0.5 1.375,0 c -0.311654,-0.3595 -0.520412,-0.8347 -0.5625,-1.3437 z M 4,1047.3621 l 0,2 4,0 0,-2 -4,0 z m 5,0 0,2 4,0 0,-2 -0.09375,0 -3.90625,0 z m 5,0 0,2 4,0 0,-2 -4,0 z"
       id="rect3020"
       inkscape:connector-curvature="0" />
    <path
       style="fill:url(#linearGradient3904);fill-opacity:1;stroke:none"
       d="m 4,1035.3621 0,2 3.15625,0 0,-1 0.84375,0 0,-1 -4,0 z m 0,3 0,2 3.15625,0 0,-1 0,-1 -3.15625,0 z m 12,0 0,0.5 0,1.5 2,0 0,-2 -2,0 z m -12,3 0,2 0.09375,0 c 0.1446555,-0.5687 0.4893533,-1.0557 0.9375,-1.375 0.5767453,-0.4109 1.288608,-0.625 2.0625,-0.625 l -3.09375,0 z m 12,0 0,2 2,0 0,-2 -2,0 z m -12,3 0,2 3.09375,0 c -0.7738634,0 -1.4857383,-0.2141 -2.0625,-0.625 -0.4547844,-0.324 -0.7976355,-0.7951 -0.9375,-1.375 l -0.09375,0 z m 3.09375,2 0.90625,0 0,-0.094 c -0.2919987,0.068 -0.5955668,0.094 -0.90625,0.094 z m 8.90625,-2 0,0.5 c 0,0.579 -0.238809,1.105 -0.59375,1.5 l 2.59375,0 0,-2 -2,0 z m -6.1875,0.6563 c -0.179067,0.269 -0.3717999,0.5383 -0.625,0.7187 -0.05937,0.042 -0.12475,0.087 -0.1875,0.125 l 0,0.5 1.375,0 c -0.311654,-0.3595 -0.520412,-0.8347 -0.5625,-1.3437 z M 4,1047.3621 l 0,2 4,0 0,-2 -4,0 z m 5,0 0,2 4,0 0,-2 -0.09375,0 -3.90625,0 z m 5,0 0,2 4,0 0,-2 -4,0 z"
       id="path3855"
       inkscape:connector-curvature="0" />
    <path
       style="fill:url(#linearGradient3906);fill-opacity:1;fill-rule:nonzero;stroke:none"
       d="m 8.157895,1037.3621 0,2 0,3.2032 c -0.309389,-0.1274 -0.669663,-0.2032 -1.05263,-0.2032 -1.162705,0 -2.105265,0.6716 -2.105265,1.5 0,0.8285 0.94256,1.5 2.105265,1.5 1.162704,0 2.1052601,-0.6715 2.1052601,-1.5 l 0,-4.5 4.7368449,0 0,4.2032 c -0.309389,-0.1274 -0.669663,-0.2032 -1.052635,-0.2032 -1.162705,0 -2.10526,0.6716 -2.10526,1.5 0,0.8285 0.942555,1.5 2.10526,1.5 1.162704,0 2.105265,-0.6715 2.105265,-1.5 l 0,-6 0,-1.5 -6.842105,0 z"
       id="path4060"
       inkscape:connector-curvature="0" />
  </g>
</svg>
