<?xml version="1.0" encoding="UTF-8" standalone="no"?>
<!-- Created with Inkscape (http://www.inkscape.org/) -->

<svg
   xmlns:dc="http://purl.org/dc/elements/1.1/"
   xmlns:cc="http://creativecommons.org/ns#"
   xmlns:rdf="http://www.w3.org/1999/02/22-rdf-syntax-ns#"
   xmlns:svg="http://www.w3.org/2000/svg"
   xmlns="http://www.w3.org/2000/svg"
   xmlns:xlink="http://www.w3.org/1999/xlink"
   xmlns:sodipodi="http://sodipodi.sourceforge.net/DTD/sodipodi-0.dtd"
   xmlns:inkscape="http://www.inkscape.org/namespaces/inkscape"
   width="24"
   height="24"
   id="svg3313"
   version="1.1"
   inkscape:version="0.48.4 r9939"
   sodipodi:docname="emblem-symbolic-linkAA.svg">
  <defs
     id="defs3315">
    <linearGradient
       id="linearGradient3816">
      <stop
         style="stop-color:#505050;stop-opacity:1;"
         offset="0"
         id="stop3818" />
      <stop
         style="stop-color:#141414;stop-opacity:1;"
         offset="1"
         id="stop3820" />
    </linearGradient>
    <linearGradient
       id="linearGradient3784">
      <stop
         style="stop-color:#f5f5f5;stop-opacity:1;"
         offset="0"
         id="stop3786" />
      <stop
         style="stop-color:#dcdcdc;stop-opacity:1;"
         offset="1"
         id="stop3788" />
    </linearGradient>
    <linearGradient
       id="linearGradient3808">
      <stop
         style="stop-color:#141414;stop-opacity:1;"
         offset="0"
         id="stop3810" />
      <stop
         style="stop-color:#505050;stop-opacity:1;"
         offset="1"
         id="stop3812" />
    </linearGradient>
    <linearGradient
       id="linearGradient3785">
      <stop
         id="stop3787"
         offset="0"
         style="stop-color:#ffffff;stop-opacity:1;" />
      <stop
         style="stop-color:#ffffff;stop-opacity:0.15686275;"
         offset="0.0674145"
         id="stop3789" />
      <stop
         style="stop-color:#ffffff;stop-opacity:0.23529412;"
         offset="0.93653786"
         id="stop3791" />
      <stop
         id="stop3793"
         offset="1"
         style="stop-color:#ffffff;stop-opacity:0.39215687;" />
    </linearGradient>
    <linearGradient
       id="linearGradient3771">
      <stop
         style="stop-color:#969696;stop-opacity:1;"
         offset="0"
         id="stop3773" />
      <stop
         style="stop-color:#c8c8c8;stop-opacity:1;"
         offset="1"
         id="stop3775" />
    </linearGradient>
    <linearGradient
       id="linearGradient3765">
      <stop
         style="stop-color:#ffffff;stop-opacity:1;"
         offset="0"
         id="stop3767" />
      <stop
         style="stop-color:#c8c8c8;stop-opacity:1;"
         offset="1"
         id="stop3769" />
    </linearGradient>
    <linearGradient
       id="linearGradient3762">
      <stop
         style="stop-color:#ffffff;stop-opacity:1;"
         offset="0"
         id="stop3764" />
      <stop
         id="stop3772"
         offset="0.07806493"
         style="stop-color:#ffffff;stop-opacity:0.15686275;" />
      <stop
         id="stop3770"
         offset="0.92322481"
         style="stop-color:#ffffff;stop-opacity:0.23529412;" />
      <stop
         style="stop-color:#ffffff;stop-opacity:0.39215687;"
         offset="1"
         id="stop3766" />
    </linearGradient>
    <linearGradient
       id="linearGradient4104">
      <stop
         style="stop-color:#505050;stop-opacity:1;"
         offset="0"
         id="stop4106" />
      <stop
         style="stop-color:#505050;stop-opacity:0;"
         offset="1"
         id="stop4108" />
    </linearGradient>
    <linearGradient
       id="linearGradient4094">
      <stop
         style="stop-color:#f0f0f0;stop-opacity:1;"
         offset="0"
         id="stop4096" />
      <stop
         style="stop-color:#b4b4b4;stop-opacity:1;"
         offset="1"
         id="stop4098" />
    </linearGradient>
    <linearGradient
       inkscape:collect="always"
       xlink:href="#linearGradient4104"
       id="linearGradient4110"
       x1="11.283465"
       y1="1041.0803"
       x2="5.5892611"
       y2="1046.7695"
       gradientUnits="userSpaceOnUse"
       gradientTransform="matrix(0.51542086,0.49866346,-0.51542086,0.49866346,541.82346,534.5743)" />
    <linearGradient
       inkscape:collect="always"
       xlink:href="#linearGradient3762"
       id="linearGradient3768"
       x1="11.659024"
       y1="1032.3223"
       x2="11.659024"
       y2="1048.3195"
       gradientUnits="userSpaceOnUse" />
    <radialGradient
       inkscape:collect="always"
       xlink:href="#linearGradient3765"
       id="radialGradient3769"
       cx="12.000017"
       cy="1033.4225"
       fx="12.000017"
       fy="1033.4225"
       r="9"
       gradientUnits="userSpaceOnUse"
       gradientTransform="matrix(-4.9647787e-6,1.8811128,-1.6394544,-4.3269751e-6,1706.2492,1010.8536)" />
    <linearGradient
       inkscape:collect="always"
       xlink:href="#linearGradient3771"
       id="linearGradient3777"
       x1="6.1313138"
       y1="1049.2483"
       x2="6.1313138"
       y2="1031.5315"
       gradientUnits="userSpaceOnUse" />
    <linearGradient
       inkscape:collect="always"
       xlink:href="#linearGradient3785"
       id="linearGradient3783"
       gradientUnits="userSpaceOnUse"
       x1="3.8463008"
       y1="1031.3068"
       x2="3.8463008"
       y2="1047.1991"
       gradientTransform="translate(1,1)" />
    <radialGradient
       inkscape:collect="always"
       xlink:href="#linearGradient3816"
       id="radialGradient3790"
       cx="12.073135"
       cy="1033.291"
       fx="12.073135"
       fy="1033.291"
       r="12"
       gradientUnits="userSpaceOnUse"
       gradientTransform="matrix(3.128597e-6,1.5252432,-1.0430379,2.1394917e-6,1089.6672,1015.5077)" />
    <radialGradient
       inkscape:collect="always"
       xlink:href="#linearGradient3816"
       id="radialGradient3825"
       cx="11.96875"
       cy="6.3125"
       fx="11.96875"
       fy="6.3125"
       r="8"
       gradientTransform="matrix(-2.8906251e-8,0.88840355,-1.1955423,-3.8899716e-8,19.515611,-1.4768298)"
       gradientUnits="userSpaceOnUse" />
    <linearGradient
       inkscape:collect="always"
       xlink:href="#linearGradient3816"
       id="linearGradient3894"
       x1="4.5632629"
       y1="1030.3745"
       x2="4.5632629"
       y2="1050.1923"
       gradientUnits="userSpaceOnUse" />
  </defs>
  <sodipodi:namedview
     id="base"
     pagecolor="#ffffff"
     bordercolor="#666666"
     borderopacity="1.0"
     inkscape:pageopacity="0.0"
     inkscape:pageshadow="2"
     inkscape:zoom="11.313709"
     inkscape:cx="4.9340305"
     inkscape:cy="5.5158681"
     inkscape:document-units="px"
     inkscape:current-layer="layer1"
     showgrid="false"
     showguides="true"
     inkscape:guide-bbox="true"
     inkscape:window-width="1280"
     inkscape:window-height="748"
     inkscape:window-x="0"
     inkscape:window-y="26"
     inkscape:window-maximized="1" />
  <metadata
     id="metadata3318">
    <rdf:RDF>
      <cc:Work
         rdf:about="">
        <dc:format>image/svg+xml</dc:format>
        <dc:type
           rdf:resource="http://purl.org/dc/dcmitype/StillImage" />
        <dc:title></dc:title>
      </cc:Work>
    </rdf:RDF>
  </metadata>
  <g
     inkscape:label="Livello 1"
     inkscape:groupmode="layer"
     id="layer1"
     transform="translate(0,-1028.3622)">
    <path
       style="opacity:0.01;fill:#000000;fill-opacity:1;stroke:#000000;stroke-opacity:1;stroke-width:4.00000010000000028;stroke-miterlimit:4;stroke-dasharray:none"
       d="M 7,8 C 5.343146,8 4,9.3431 4,11 l 0,2 c 0,1.6569 1.343146,3 3,3 l 1,0 0,-2 -1,0 C 6.447715,14 6,13.5523 6,13 l 0,-2 c 0,-0.5523 0.447715,-1 1,-1 l 5,0 c 0.552285,0 1,0.4477 1,1 l 0,2 2,0 0,-2 C 15,9.3431 13.656854,8 12,8 z m 9,0 0,2 1,0 c 0.552285,0 1,0.4477 1,1 l 0,2 c 0,0.5523 -0.447715,1 -1,1 l -5,0 c -0.552285,0 -1,-0.4477 -1,-1 l 0,-2 -2,0 0,2 c 0,1.6569 1.343146,3 3,3 l 5,0 c 1.656854,0 3,-1.3431 3,-3 l 0,-2 C 20,9.3431 18.656854,8 17,8 z"
       transform="translate(0,1028.3622)"
       id="path3796"
       inkscape:connector-curvature="0"
       sodipodi:nodetypes="ssssccssssssccsssccssssssccssssssc" />
    <path
       style="opacity:0.05;fill:#ffffff;fill-opacity:1;stroke:#ffffff;stroke-opacity:1;stroke-width:4;stroke-miterlimit:4;stroke-dasharray:none"
       d="M 7,8 C 5.343146,8 4,9.3431 4,11 l 0,2 c 0,1.6569 1.343146,3 3,3 l 1,0 0,-2 -1,0 C 6.447715,14 6,13.5523 6,13 l 0,-2 c 0,-0.5523 0.447715,-1 1,-1 l 5,0 c 0.552285,0 1,0.4477 1,1 l 0,2 2,0 0,-2 C 15,9.3431 13.656854,8 12,8 z m 9,0 0,2 1,0 c 0.552285,0 1,0.4477 1,1 l 0,2 c 0,0.5523 -0.447715,1 -1,1 l -5,0 c -0.552285,0 -1,-0.4477 -1,-1 l 0,-2 -2,0 0,2 c 0,1.6569 1.343146,3 3,3 l 5,0 c 1.656854,0 3,-1.3431 3,-3 l 0,-2 C 20,9.3431 18.656854,8 17,8 z"
       transform="translate(0,1028.3622)"
       id="path3910"
       inkscape:connector-curvature="0"
       sodipodi:nodetypes="ssssccssssssccsssccssssssccssssssc" />
    <path
       sodipodi:nodetypes="ssssccssssssccsssccssssssccssssssc"
       inkscape:connector-curvature="0"
       id="path3908"
       transform="translate(0,1028.3622)"
       d="M 7,8 C 5.343146,8 4,9.3431 4,11 l 0,2 c 0,1.6569 1.343146,3 3,3 l 1,0 0,-2 -1,0 C 6.447715,14 6,13.5523 6,13 l 0,-2 c 0,-0.5523 0.447715,-1 1,-1 l 5,0 c 0.552285,0 1,0.4477 1,1 l 0,2 2,0 0,-2 C 15,9.3431 13.656854,8 12,8 z m 9,0 0,2 1,0 c 0.552285,0 1,0.4477 1,1 l 0,2 c 0,0.5523 -0.447715,1 -1,1 l -5,0 c -0.552285,0 -1,-0.4477 -1,-1 l 0,-2 -2,0 0,2 c 0,1.6569 1.343146,3 3,3 l 5,0 c 1.656854,0 3,-1.3431 3,-3 l 0,-2 C 20,9.3431 18.656854,8 17,8 z"
       style="opacity:0.09999989;fill:#ffffff;fill-opacity:1;stroke:#ffffff;stroke-opacity:1;stroke-width:3;stroke-miterlimit:4;stroke-dasharray:none" />
    <path
       sodipodi:nodetypes="ssssccssssssccsssccssssssccssssssc"
       inkscape:connector-curvature="0"
       id="path3794"
       transform="translate(0,1028.3622)"
       d="M 7,8 C 5.343146,8 4,9.3431 4,11 l 0,2 c 0,1.6569 1.343146,3 3,3 l 1,0 0,-2 -1,0 C 6.447715,14 6,13.5523 6,13 l 0,-2 c 0,-0.5523 0.447715,-1 1,-1 l 5,0 c 0.552285,0 1,0.4477 1,1 l 0,2 2,0 0,-2 C 15,9.3431 13.656854,8 12,8 z m 9,0 0,2 1,0 c 0.552285,0 1,0.4477 1,1 l 0,2 c 0,0.5523 -0.447715,1 -1,1 l -5,0 c -0.552285,0 -1,-0.4477 -1,-1 l 0,-2 -2,0 0,2 c 0,1.6569 1.343146,3 3,3 l 5,0 c 1.656854,0 3,-1.3431 3,-3 l 0,-2 C 20,9.3431 18.656854,8 17,8 z"
       style="opacity:0.05;fill:#000000;fill-opacity:1;stroke:#000000;stroke-opacity:1;stroke-width:2.99999990000000016;stroke-miterlimit:4;stroke-dasharray:none" />
    <path
       style="opacity:0.09999989;fill:#000000;fill-opacity:1;stroke:#000000;stroke-opacity:1;stroke-width:2;stroke-miterlimit:4;stroke-dasharray:none"
       d="M 7,8 C 5.343146,8 4,9.3431 4,11 l 0,2 c 0,1.6569 1.343146,3 3,3 l 1,0 0,-2 -1,0 C 6.447715,14 6,13.5523 6,13 l 0,-2 c 0,-0.5523 0.447715,-1 1,-1 l 5,0 c 0.552285,0 1,0.4477 1,1 l 0,2 2,0 0,-2 C 15,9.3431 13.656854,8 12,8 z m 9,0 0,2 1,0 c 0.552285,0 1,0.4477 1,1 l 0,2 c 0,0.5523 -0.447715,1 -1,1 l -5,0 c -0.552285,0 -1,-0.4477 -1,-1 l 0,-2 -2,0 0,2 c 0,1.6569 1.343146,3 3,3 l 5,0 c 1.656854,0 3,-1.3431 3,-3 l 0,-2 C 20,9.3431 18.656854,8 17,8 z"
       transform="translate(0,1028.3622)"
       id="path3906"
       inkscape:connector-curvature="0"
       sodipodi:nodetypes="ssssccssssssccsssccssssssccssssssc" />
    <path
       sodipodi:nodetypes="ssssccssssssccsssccssssssccssssssc"
       inkscape:connector-curvature="0"
       id="path3904"
       transform="translate(0,1028.3622)"
       d="M 7,8 C 5.343146,8 4,9.3431 4,11 l 0,2 c 0,1.6569 1.343146,3 3,3 l 1,0 0,-2 -1,0 C 6.447715,14 6,13.5523 6,13 l 0,-2 c 0,-0.5523 0.447715,-1 1,-1 l 5,0 c 0.552285,0 1,0.4477 1,1 l 0,2 2,0 0,-2 C 15,9.3431 13.656854,8 12,8 z m 9,0 0,2 1,0 c 0.552285,0 1,0.4477 1,1 l 0,2 c 0,0.5523 -0.447715,1 -1,1 l -5,0 c -0.552285,0 -1,-0.4477 -1,-1 l 0,-2 -2,0 0,2 c 0,1.6569 1.343146,3 3,3 l 5,0 c 1.656854,0 3,-1.3431 3,-3 l 0,-2 C 20,9.3431 18.656854,8 17,8 z"
       style="opacity:0.15;fill:#000000;fill-opacity:1;stroke:#000000;stroke-opacity:1" />
    <path
       style="opacity:1;fill:#ffffff;fill-opacity:1;stroke:none"
       d="M 7,8 C 5.343146,8 4,9.3431 4,11 l 0,2 c 0,1.6569 1.343146,3 3,3 l 1,0 0,-2 -1,0 C 6.447715,14 6,13.5523 6,13 l 0,-2 c 0,-0.5523 0.447715,-1 1,-1 l 5,0 c 0.552285,0 1,0.4477 1,1 l 0,2 2,0 0,-2 C 15,9.3431 13.656854,8 12,8 z m 9,0 0,2 1,0 c 0.552285,0 1,0.4477 1,1 l 0,2 c 0,0.5523 -0.447715,1 -1,1 l -5,0 c -0.552285,0 -1,-0.4477 -1,-1 l 0,-2 -2,0 0,2 c 0,1.6569 1.343146,3 3,3 l 5,0 c 1.656854,0 3,-1.3431 3,-3 l 0,-2 C 20,9.3431 18.656854,8 17,8 z"
       transform="translate(0,1028.3622)"
       id="path3831"
       inkscape:connector-curvature="0"
       sodipodi:nodetypes="ssssccssssssccsssccssssssccssssssc" />
  </g>
</svg>
