<?xml version="1.0" encoding="UTF-8" standalone="no"?>
<!-- Created with Inkscape (http://www.inkscape.org/) -->

<svg
   xmlns:dc="http://purl.org/dc/elements/1.1/"
   xmlns:cc="http://creativecommons.org/ns#"
   xmlns:rdf="http://www.w3.org/1999/02/22-rdf-syntax-ns#"
   xmlns:svg="http://www.w3.org/2000/svg"
   xmlns="http://www.w3.org/2000/svg"
   xmlns:xlink="http://www.w3.org/1999/xlink"
   xmlns:sodipodi="http://sodipodi.sourceforge.net/DTD/sodipodi-0.dtd"
   xmlns:inkscape="http://www.inkscape.org/namespaces/inkscape"
   width="22"
   height="22"
   id="svg3147"
   version="1.1"
   inkscape:version="0.48.3.1 r9886"
   sodipodi:docname="folder-saved-search.svg">
  <defs
     id="defs3149">
    <linearGradient
       id="linearGradient3858">
      <stop
         id="stop3860"
         offset="0"
         style="stop-color:#ffffff;stop-opacity:1;" />
      <stop
         style="stop-color:#ffffff;stop-opacity:0.15686275;"
         offset="0.07346445"
         id="stop3862" />
      <stop
         style="stop-color:#ffffff;stop-opacity:0.23529412;"
         offset="0.936414"
         id="stop3864" />
      <stop
         id="stop3866"
         offset="1"
         style="stop-color:#ffffff;stop-opacity:0.39215687;" />
    </linearGradient>
    <linearGradient
       id="linearGradient3811">
      <stop
         style="stop-color:#fff0c8;stop-opacity:1;"
         offset="0"
         id="stop3813" />
      <stop
         style="stop-color:#f0d78c;stop-opacity:1;"
         offset="1"
         id="stop3815" />
    </linearGradient>
    <linearGradient
       id="linearGradient3803">
      <stop
         style="stop-color:#bea55a;stop-opacity:1;"
         offset="0"
         id="stop3805" />
      <stop
         style="stop-color:#832000;stop-opacity:1;"
         offset="1"
         id="stop3807" />
    </linearGradient>
    <linearGradient
       id="linearGradient3795">
      <stop
         style="stop-color:#b06121;stop-opacity:1;"
         offset="0"
         id="stop3797" />
      <stop
         style="stop-color:#973404;stop-opacity:1;"
         offset="1"
         id="stop3799" />
    </linearGradient>
    <linearGradient
       id="linearGradient4536">
      <stop
         style="stop-color:#ffffff;stop-opacity:1;"
         offset="0"
         id="stop4538" />
      <stop
         id="stop4546"
         offset="0.06216056"
         style="stop-color:#ffffff;stop-opacity:0.15686275;" />
      <stop
         id="stop4544"
         offset="0.936414"
         style="stop-color:#ffffff;stop-opacity:0.23529412;" />
      <stop
         style="stop-color:#ffffff;stop-opacity:0.39215687;"
         offset="1"
         id="stop4540" />
    </linearGradient>
    <radialGradient
       inkscape:collect="always"
       xlink:href="#linearGradient3688-166-749"
       id="radialGradient3132"
       gradientUnits="userSpaceOnUse"
       gradientTransform="matrix(2.003784,0,0,1.4,27.98813,-17.4)"
       cx="4.9929786"
       cy="43.5"
       fx="4.9929786"
       fy="43.5"
       r="2.5" />
    <linearGradient
       id="linearGradient3688-166-749">
      <stop
         id="stop2883"
         style="stop-color:#181818;stop-opacity:1"
         offset="0" />
      <stop
         id="stop2885"
         style="stop-color:#181818;stop-opacity:0"
         offset="1" />
    </linearGradient>
    <radialGradient
       inkscape:collect="always"
       xlink:href="#linearGradient3688-464-309"
       id="radialGradient3134"
       gradientUnits="userSpaceOnUse"
       gradientTransform="matrix(2.003784,0,0,1.4,-20.01187,-104.4)"
       cx="4.9929786"
       cy="43.5"
       fx="4.9929786"
       fy="43.5"
       r="2.5" />
    <linearGradient
       id="linearGradient3688-464-309">
      <stop
         id="stop2889"
         style="stop-color:#181818;stop-opacity:1"
         offset="0" />
      <stop
         id="stop2891"
         style="stop-color:#181818;stop-opacity:0"
         offset="1" />
    </linearGradient>
    <linearGradient
       inkscape:collect="always"
       xlink:href="#linearGradient3702-501-757"
       id="linearGradient3136"
       gradientUnits="userSpaceOnUse"
       x1="25.058096"
       y1="47.027729"
       x2="25.058096"
       y2="39.999443" />
    <linearGradient
       id="linearGradient3702-501-757">
      <stop
         id="stop2895"
         style="stop-color:#181818;stop-opacity:0"
         offset="0" />
      <stop
         id="stop2897"
         style="stop-color:#181818;stop-opacity:1"
         offset="0.5" />
      <stop
         id="stop2899"
         style="stop-color:#181818;stop-opacity:0"
         offset="1" />
    </linearGradient>
    <linearGradient
       inkscape:collect="always"
       xlink:href="#linearGradient4536"
       id="linearGradient4542"
       x1="23.522522"
       y1="1010.4793"
       x2="23.522522"
       y2="1028.3296"
       gradientUnits="userSpaceOnUse"
       gradientTransform="translate(-2.9999998,21.999871)" />
    <radialGradient
       inkscape:collect="always"
       xlink:href="#linearGradient3795"
       id="radialGradient3801"
       cx="11.833833"
       cy="1032.2253"
       fx="11.833833"
       fy="1032.2253"
       r="10"
       gradientUnits="userSpaceOnUse"
       gradientTransform="matrix(-5.0073014e-6,1.5215217,-1.1075482,-3.6449232e-6,1154.5576,1014.9058)" />
    <linearGradient
       inkscape:collect="always"
       xlink:href="#linearGradient3803"
       id="linearGradient3809"
       x1="6.8669329"
       y1="22.025593"
       x2="6.8669329"
       y2="3.990603"
       gradientUnits="userSpaceOnUse"
       gradientTransform="translate(-0.99999989,1029.3621)" />
    <radialGradient
       inkscape:collect="always"
       xlink:href="#linearGradient3811"
       id="radialGradient3817"
       cx="12"
       cy="6.2616057"
       fx="12"
       fy="6.2616057"
       r="10"
       gradientTransform="matrix(2.9295082e-8,1.5933712,-1.1142296,2.0485783e-8,17.976866,1017.1772)"
       gradientUnits="userSpaceOnUse" />
    <linearGradient
       inkscape:collect="always"
       xlink:href="#linearGradient3858"
       id="linearGradient3842"
       gradientUnits="userSpaceOnUse"
       x1="6.8669329"
       y1="20.949205"
       x2="6.8669329"
       y2="5.0095506"
       gradientTransform="translate(-0.99999989,1029.3621)" />
    <linearGradient
       inkscape:collect="always"
       xlink:href="#linearGradient3814"
       id="linearGradient3835"
       gradientUnits="userSpaceOnUse"
       x1="29.384521"
       y1="964.68323"
       x2="29.384521"
       y2="1033.1281"
       gradientTransform="translate(0,-956.36218)" />
    <linearGradient
       id="linearGradient3814">
      <stop
         style="stop-color:#b06121;stop-opacity:1;"
         offset="0"
         id="stop3816" />
      <stop
         style="stop-color:#973404;stop-opacity:1;"
         offset="1"
         id="stop3818" />
    </linearGradient>
    <linearGradient
       y2="1019.4958"
       x2="13.172378"
       y1="967.74603"
       x1="64.616051"
       gradientTransform="matrix(0.16569926,-0.16569926,0.16471923,0.16471923,-181.2859,879.70274)"
       gradientUnits="userSpaceOnUse"
       id="linearGradient3050"
       xlink:href="#linearGradient3814"
       inkscape:collect="always" />
    <linearGradient
       inkscape:collect="always"
       xlink:href="#linearGradient3814"
       id="linearGradient3816"
       x1="11.990991"
       y1="1030.6865"
       x2="11.990991"
       y2="1046.327"
       gradientUnits="userSpaceOnUse"
       gradientTransform="translate(-0.99999988,0.99985055)" />
    <radialGradient
       inkscape:collect="always"
       xlink:href="#linearGradient3811"
       id="radialGradient3822"
       gradientUnits="userSpaceOnUse"
       gradientTransform="matrix(2.9295082e-8,1.5933712,-1.1142296,2.0485783e-8,17.976866,1017.1772)"
       cx="12"
       cy="6.2616057"
       fx="12"
       fy="6.2616057"
       r="10" />
  </defs>
  <sodipodi:namedview
     id="base"
     pagecolor="#ffffff"
     bordercolor="#666666"
     borderopacity="1.0"
     inkscape:pageopacity="0.0"
     inkscape:pageshadow="2"
     inkscape:zoom="13.875"
     inkscape:cx="8.7474297"
     inkscape:cy="6.0711779"
     inkscape:document-units="px"
     inkscape:current-layer="layer1"
     showgrid="false"
     inkscape:window-width="1280"
     inkscape:window-height="756"
     inkscape:window-x="0"
     inkscape:window-y="24"
     inkscape:window-maximized="1"
     showguides="true"
     inkscape:guide-bbox="true" />
  <metadata
     id="metadata3152">
    <rdf:RDF>
      <cc:Work
         rdf:about="">
        <dc:format>image/svg+xml</dc:format>
        <dc:type
           rdf:resource="http://purl.org/dc/dcmitype/StillImage" />
        <dc:title></dc:title>
      </cc:Work>
    </rdf:RDF>
  </metadata>
  <g
     inkscape:label="Livello 1"
     inkscape:groupmode="layer"
     id="layer1"
     transform="translate(0,-1030.3622)">
    <rect
       style="fill:url(#radialGradient3801);fill-opacity:1;stroke:#832000;stroke-width:1.00000012;stroke-opacity:1"
       id="rect3163"
       width="19"
       height="19.000004"
       x="1.5"
       y="1031.8621"
       rx="1.5"
       ry="1.5000002" />
    <rect
       style="opacity:0.3;fill:none;stroke:url(#linearGradient4542);stroke-width:1.00000012;stroke-opacity:1"
       id="rect4534"
       width="17"
       height="17.000002"
       x="2.5000002"
       y="1032.8621"
       rx="0.5"
       ry="0.50000006" />
    <path
       style="fill:url(#radialGradient3822);fill-opacity:1;stroke:url(#linearGradient3809);stroke-width:1.00000012;stroke-opacity:1"
       d="m 3.0000001,1033.8622 c -0.8309999,0 -1.4999999,0.669 -1.4999999,1.5 l 0,2 0,1 0,11 c 0,0.831 0.669,1.5 1.4999999,1.5 l 15.9999999,0 c 0.831,0 1.5,-0.669 1.5,-1.5 l 0,-11 c 0,-0.831 -0.669525,-1.4705 -1.5,-1.5 l -4,0 -2.5,0 c -1.245022,0 -1.5,-0.8743 -1.5,-1.5 0,-0.6654 -0.683774,-1.5 -1.5,-1.5 z"
       id="rect3003"
       inkscape:connector-curvature="0"
       sodipodi:nodetypes="ssccsssssscccss" />
    <path
       sodipodi:nodetypes="ssccsssssscccss"
       inkscape:connector-curvature="0"
       id="path3840"
       d="m 3.5000002,1034.8622 c -0.8310001,0 -1,0.169 -1,1 l 0,2.5 0,1 0,9.5 c 0,0.831 0.1689999,1 1,1 l 14.9999998,0 c 0.831,0 1,-0.169 1,-1 l 0,-10 c 0,-0.831 -0.169,-1 -1,-1 l -3.5,0 -2.8,0 c -0.99277,0 -2.1,-0.6041 -2.1,-1.5 0,-0.6293 -0.08377,-1.5 -0.9,-1.5 z"
       style="opacity:0.5;fill:url(#radialGradient3817);fill-opacity:1;stroke:url(#linearGradient3842);stroke-width:1.00000012;stroke-opacity:1" />
    <path
       inkscape:connector-curvature="0"
       id="path3818"
       d="m 8.0000002,1040.3622 c -2.2091391,0 -4.0000001,1.7909 -4.0000001,4 0,2.2091 1.790861,4 4.0000001,4 2.0390188,0 3.6904338,-1.528 3.9374998,-3.5 l 1.0625,0 c 0,0.277 0.223,0.5 0.5,0.5 l 4,0 c 0.277,0 0.5,-0.223 0.5,-0.5 l 0,-1 c 0,-0.277 -0.223,-0.5 -0.5,-0.5 l -4,0 c -0.277,0 -0.5,0.223 -0.5,0.5 l -1.0625,0 c -0.247066,-1.972 -1.898481,-3.5 -3.9374998,-3.5 z m 0,1 c 1.6568538,0 2.9999998,1.3431 2.9999998,3 0,1.6569 -1.343146,3 -2.9999998,3 -1.6568543,0 -3.0000001,-1.3431 -3.0000001,-3 0,-1.6569 1.3431458,-3 3.0000001,-3 z"
       style="opacity:0.3;fill:#ffffff;fill-opacity:1;stroke:none" />
    <path
       style="fill:url(#linearGradient3816);fill-opacity:1;stroke:none"
       d="m 8.0000002,1039.3622 c -2.2091391,0 -4.0000001,1.7909 -4.0000001,4 0,2.2091 1.790861,4 4.0000001,4 2.0390188,0 3.6904338,-1.528 3.9374998,-3.5 l 1.0625,0 c 0,0.277 0.223,0.5 0.5,0.5 l 4,0 c 0.277,0 0.5,-0.223 0.5,-0.5 l 0,-1 c 0,-0.277 -0.223,-0.5 -0.5,-0.5 l -4,0 c -0.277,0 -0.5,0.223 -0.5,0.5 l -1.0625,0 c -0.247066,-1.972 -1.898481,-3.5 -3.9374998,-3.5 z m 0,1 c 1.6568538,0 2.9999998,1.3431 2.9999998,3 0,1.6569 -1.343146,3 -2.9999998,3 -1.6568543,0 -3.0000001,-1.3431 -3.0000001,-3 0,-1.6569 1.3431458,-3 3.0000001,-3 z"
       id="path3029"
       inkscape:connector-curvature="0" />
  </g>
</svg>
