<?xml version="1.0" encoding="UTF-8" standalone="no"?>
<!-- Created with Inkscape (http://www.inkscape.org/) -->

<svg
   xmlns:dc="http://purl.org/dc/elements/1.1/"
   xmlns:cc="http://creativecommons.org/ns#"
   xmlns:rdf="http://www.w3.org/1999/02/22-rdf-syntax-ns#"
   xmlns:svg="http://www.w3.org/2000/svg"
   xmlns="http://www.w3.org/2000/svg"
   xmlns:xlink="http://www.w3.org/1999/xlink"
   xmlns:sodipodi="http://sodipodi.sourceforge.net/DTD/sodipodi-0.dtd"
   xmlns:inkscape="http://www.inkscape.org/namespaces/inkscape"
   width="22"
   height="22"
   id="svg3147"
   version="1.1"
   inkscape:version="0.48.3.1 r9886"
   sodipodi:docname="folder-pictures.svg">
  <defs
     id="defs3149">
    <linearGradient
       id="linearGradient3858">
      <stop
         id="stop3860"
         offset="0"
         style="stop-color:#ffffff;stop-opacity:1;" />
      <stop
         style="stop-color:#ffffff;stop-opacity:0.15686275;"
         offset="0.07346445"
         id="stop3862" />
      <stop
         style="stop-color:#ffffff;stop-opacity:0.23529412;"
         offset="0.936414"
         id="stop3864" />
      <stop
         id="stop3866"
         offset="1"
         style="stop-color:#ffffff;stop-opacity:0.39215687;" />
    </linearGradient>
    <linearGradient
       id="linearGradient3811">
      <stop
         style="stop-color:#fff0c8;stop-opacity:1;"
         offset="0"
         id="stop3813" />
      <stop
         style="stop-color:#f0d78c;stop-opacity:1;"
         offset="1"
         id="stop3815" />
    </linearGradient>
    <linearGradient
       id="linearGradient3803">
      <stop
         style="stop-color:#bea55a;stop-opacity:1;"
         offset="0"
         id="stop3805" />
      <stop
         style="stop-color:#832000;stop-opacity:1;"
         offset="1"
         id="stop3807" />
    </linearGradient>
    <linearGradient
       id="linearGradient3795">
      <stop
         style="stop-color:#b06121;stop-opacity:1;"
         offset="0"
         id="stop3797" />
      <stop
         style="stop-color:#973404;stop-opacity:1;"
         offset="1"
         id="stop3799" />
    </linearGradient>
    <linearGradient
       id="linearGradient4536">
      <stop
         style="stop-color:#ffffff;stop-opacity:1;"
         offset="0"
         id="stop4538" />
      <stop
         id="stop4546"
         offset="0.06216056"
         style="stop-color:#ffffff;stop-opacity:0.15686275;" />
      <stop
         id="stop4544"
         offset="0.936414"
         style="stop-color:#ffffff;stop-opacity:0.23529412;" />
      <stop
         style="stop-color:#ffffff;stop-opacity:0.39215687;"
         offset="1"
         id="stop4540" />
    </linearGradient>
    <radialGradient
       inkscape:collect="always"
       xlink:href="#linearGradient3688-166-749"
       id="radialGradient3132"
       gradientUnits="userSpaceOnUse"
       gradientTransform="matrix(2.003784,0,0,1.4,27.98813,-17.4)"
       cx="4.9929786"
       cy="43.5"
       fx="4.9929786"
       fy="43.5"
       r="2.5" />
    <linearGradient
       id="linearGradient3688-166-749">
      <stop
         id="stop2883"
         style="stop-color:#181818;stop-opacity:1"
         offset="0" />
      <stop
         id="stop2885"
         style="stop-color:#181818;stop-opacity:0"
         offset="1" />
    </linearGradient>
    <radialGradient
       inkscape:collect="always"
       xlink:href="#linearGradient3688-464-309"
       id="radialGradient3134"
       gradientUnits="userSpaceOnUse"
       gradientTransform="matrix(2.003784,0,0,1.4,-20.01187,-104.4)"
       cx="4.9929786"
       cy="43.5"
       fx="4.9929786"
       fy="43.5"
       r="2.5" />
    <linearGradient
       id="linearGradient3688-464-309">
      <stop
         id="stop2889"
         style="stop-color:#181818;stop-opacity:1"
         offset="0" />
      <stop
         id="stop2891"
         style="stop-color:#181818;stop-opacity:0"
         offset="1" />
    </linearGradient>
    <linearGradient
       inkscape:collect="always"
       xlink:href="#linearGradient3702-501-757"
       id="linearGradient3136"
       gradientUnits="userSpaceOnUse"
       x1="25.058096"
       y1="47.027729"
       x2="25.058096"
       y2="39.999443" />
    <linearGradient
       id="linearGradient3702-501-757">
      <stop
         id="stop2895"
         style="stop-color:#181818;stop-opacity:0"
         offset="0" />
      <stop
         id="stop2897"
         style="stop-color:#181818;stop-opacity:1"
         offset="0.5" />
      <stop
         id="stop2899"
         style="stop-color:#181818;stop-opacity:0"
         offset="1" />
    </linearGradient>
    <linearGradient
       inkscape:collect="always"
       xlink:href="#linearGradient4536"
       id="linearGradient4542"
       x1="23.522522"
       y1="1010.4793"
       x2="23.522522"
       y2="1028.3296"
       gradientUnits="userSpaceOnUse"
       gradientTransform="matrix(1.0000001,0,0,0.99999502,-3.0000018,22.005144)" />
    <radialGradient
       inkscape:collect="always"
       xlink:href="#linearGradient3795"
       id="radialGradient3801"
       cx="11.833833"
       cy="1032.2253"
       fx="11.833833"
       fy="1032.2253"
       r="10"
       gradientUnits="userSpaceOnUse"
       gradientTransform="matrix(-5.0073019e-6,1.5215138,-1.1075483,-3.6449044e-6,1154.5577,1014.9059)" />
    <linearGradient
       inkscape:collect="always"
       xlink:href="#linearGradient3803"
       id="linearGradient3809"
       x1="6.8669329"
       y1="22.025593"
       x2="6.8669329"
       y2="3.990603"
       gradientUnits="userSpaceOnUse"
       gradientTransform="matrix(1.0000001,0,0,0.99999502,-1.0000015,1029.3622)" />
    <radialGradient
       inkscape:collect="always"
       xlink:href="#linearGradient3811"
       id="radialGradient3817"
       cx="12"
       cy="6.2616057"
       fx="12"
       fy="6.2616057"
       r="10"
       gradientTransform="matrix(2.9295085e-8,1.593363,-1.1142297,2.0485677e-8,17.976867,1017.1773)"
       gradientUnits="userSpaceOnUse" />
    <linearGradient
       inkscape:collect="always"
       xlink:href="#linearGradient3858"
       id="linearGradient3842"
       gradientUnits="userSpaceOnUse"
       x1="6.8669329"
       y1="20.949205"
       x2="6.8669329"
       y2="5.0095506"
       gradientTransform="matrix(1.0000001,0,0,0.99999502,-1.0000015,1029.3622)" />
    <linearGradient
       inkscape:collect="always"
       xlink:href="#linearGradient3814"
       id="linearGradient4125"
       gradientUnits="userSpaceOnUse"
       gradientTransform="matrix(1.84,0,0,1.8,3.84,962.41816)"
       x1="24.51577"
       y1="1.2360127"
       x2="24.51577"
       y2="39.595493" />
    <linearGradient
       id="linearGradient3814">
      <stop
         style="stop-color:#b06121;stop-opacity:1;"
         offset="0"
         id="stop3816" />
      <stop
         style="stop-color:#973404;stop-opacity:1;"
         offset="1"
         id="stop3818" />
    </linearGradient>
    <linearGradient
       y2="39.595493"
       x2="24.51577"
       y1="1.2360127"
       x1="24.51577"
       gradientTransform="matrix(0.48,0,0,0.45,0.48,1029.3762)"
       gradientUnits="userSpaceOnUse"
       id="linearGradient3071"
       xlink:href="#linearGradient3814"
       inkscape:collect="always" />
    <linearGradient
       inkscape:collect="always"
       xlink:href="#linearGradient3814"
       id="linearGradient3806"
       gradientUnits="userSpaceOnUse"
       gradientTransform="matrix(0.48,0,0,0.45,0.48,1.014)"
       x1="24.51577"
       y1="1.2360127"
       x2="24.51577"
       y2="39.595493" />
    <linearGradient
       inkscape:collect="always"
       xlink:href="#linearGradient3814"
       id="linearGradient3810"
       gradientUnits="userSpaceOnUse"
       gradientTransform="matrix(0.48000008,0,0,0.44999777,-0.52000147,1030.3763)"
       x1="24.51577"
       y1="1.2360127"
       x2="24.51577"
       y2="39.595493" />
    <radialGradient
       inkscape:collect="always"
       xlink:href="#linearGradient3811"
       id="radialGradient3803"
       gradientUnits="userSpaceOnUse"
       gradientTransform="matrix(2.9295085e-8,1.593363,-1.1142297,2.0485677e-8,17.976867,1017.1773)"
       cx="12"
       cy="6.2616057"
       fx="12"
       fy="6.2616057"
       r="10" />
  </defs>
  <sodipodi:namedview
     id="base"
     pagecolor="#ffffff"
     bordercolor="#666666"
     borderopacity="1.0"
     inkscape:pageopacity="0.0"
     inkscape:pageshadow="2"
     inkscape:zoom="17.166667"
     inkscape:cx="6.6063608"
     inkscape:cy="8.619054"
     inkscape:document-units="px"
     inkscape:current-layer="layer1"
     showgrid="false"
     inkscape:window-width="1280"
     inkscape:window-height="756"
     inkscape:window-x="0"
     inkscape:window-y="24"
     inkscape:window-maximized="1" />
  <metadata
     id="metadata3152">
    <rdf:RDF>
      <cc:Work
         rdf:about="">
        <dc:format>image/svg+xml</dc:format>
        <dc:type
           rdf:resource="http://purl.org/dc/dcmitype/StillImage" />
        <dc:title></dc:title>
      </cc:Work>
    </rdf:RDF>
  </metadata>
  <g
     inkscape:label="Livello 1"
     inkscape:groupmode="layer"
     id="layer1"
     transform="translate(0,-1030.3622)">
    <rect
       style="fill:url(#radialGradient3801);fill-opacity:1;stroke:#832000;stroke-width:0.99999762;stroke-opacity:1"
       id="rect3163"
       width="19.000002"
       height="18.999907"
       x="1.499999"
       y="1031.8621"
       rx="1.5000001"
       ry="1.4999925" />
    <rect
       style="opacity:0.3;fill:none;stroke:url(#linearGradient4542);stroke-width:0.99999762;stroke-opacity:1"
       id="rect4534"
       width="17.000002"
       height="16.999916"
       x="2.5"
       y="1032.8621"
       rx="0.50000006"
       ry="0.4999975" />
    <path
       style="fill:url(#radialGradient3803);fill-opacity:1;stroke:url(#linearGradient3809);stroke-width:0.99999762;stroke-opacity:1"
       d="m 2.9999989,1033.8622 c -0.831,0 -1.5000001,0.669 -1.5000001,1.5 l 0,2 0,1 0,11 c 0,0.831 0.6690001,1.5 1.5000001,1.5 l 16.0000021,0 c 0.831,0 1.5,-0.669 1.5,-1.5 l 0,-11 c 0,-0.831 -0.669525,-1.4705 -1.5,-1.5 l -4.000001,0 -2.5,0 c -1.245022,0 -1.5,-0.8743 -1.5,-1.5 0,-0.6654 -0.683774,-1.5 -1.5,-1.5 z"
       id="rect3003"
       inkscape:connector-curvature="0"
       sodipodi:nodetypes="ssccsssssscccss" />
    <path
       sodipodi:nodetypes="ssccsssssscccss"
       inkscape:connector-curvature="0"
       id="path3840"
       d="m 3.4999992,1034.8622 c -0.8310003,0 -1.0000003,0.169 -1.0000003,1 l 0,2.5 0,1 0,9.5 c 0,0.831 0.169,1 1.0000003,1 l 15.0000018,0 c 0.831,0 1,-0.169 1,-1 l 0,-10 c 0,-0.831 -0.169,-1 -1,-1 l -3.500001,0 -2.8,0 c -0.99277,0 -2.1,-0.6041 -2.1,-1.5 0,-0.6293 -0.08377,-1.5 -0.9,-1.5 z"
       style="opacity:0.5;fill:url(#radialGradient3817);fill-opacity:1;stroke:url(#linearGradient3842);stroke-width:0.99999762;stroke-opacity:1" />
    <path
       id="path3031"
       d="m 8.9999998,1039.3622 c -0.5247206,0 -1.0604533,0.5365 -1.0000001,1 l 0,1 -2.0937504,0 c -0.4986,0 -0.90625,0.5326 -0.90625,1 l 0,6 c 0,0.4675 0.40765,1 0.90625,1 l 10.1875017,0 c 0.4986,0 0.90625,-0.5325 0.90625,-1 l 0,-6 c 0,-0.4674 -0.415636,-1.022 -0.90625,-1 l -2.093751,0 0,-1 c 0,-0.4674 -0.5014,-1 -1,-1 l -4.0000002,0 z m 2.0000002,3 c 1.656854,0 3,1.3431 3,3 0,1.6569 -1.343146,3 -3,3 -1.656854,0 -3.0000003,-1.3431 -3.0000003,-3 0,-1.6569 1.3431463,-3 3.0000003,-3 z m 0,1 c -1.104569,0 -2.0000002,0.8954 -2.0000002,2 0,1.1046 0.8954312,2 2.0000002,2 1.104569,0 2,-0.8954 2,-2 0,-1.1046 -0.895431,-2 -2,-2 z"
       style="opacity:0.3;fill:#ffffff;fill-opacity:1;fill-rule:nonzero;stroke:none"
       inkscape:connector-curvature="0" />
    <path
       style="fill:url(#linearGradient3810);fill-opacity:1;fill-rule:nonzero;stroke:none"
       d="m 8.9999998,1038.3622 c -0.5247206,0 -1.0604533,0.5365 -1.0000001,1 l 0,1 -2.0937504,0 c -0.4986,0 -0.90625,0.5326 -0.90625,1 l 0,6 c 0,0.4675 0.40765,1 0.90625,1 l 10.1875017,0 c 0.4986,0 0.90625,-0.5325 0.90625,-1 l 0,-6 c 0,-0.4674 -0.415636,-1.022 -0.90625,-1 l -2.093751,0 0,-1 c 0,-0.4674 -0.5014,-1 -1,-1 l -4.0000002,0 z m 2.0000002,3 c 1.656854,0 3,1.3431 3,3 0,1.6569 -1.343146,3 -3,3 -1.656854,0 -3.0000003,-1.3431 -3.0000003,-3 0,-1.6569 1.3431463,-3 3.0000003,-3 z m 0,1 c -1.104569,0 -2.0000002,0.8954 -2.0000002,2 0,1.1046 0.8954312,2 2.0000002,2 1.104569,0 2,-0.8954 2,-2 0,-1.1046 -0.895431,-2 -2,-2 z"
       id="rect3180"
       inkscape:connector-curvature="0" />
  </g>
</svg>
