<?xml version="1.0" encoding="UTF-8" standalone="no"?>
<!-- Created with Inkscape (http://www.inkscape.org/) -->

<svg
   xmlns:dc="http://purl.org/dc/elements/1.1/"
   xmlns:cc="http://creativecommons.org/ns#"
   xmlns:rdf="http://www.w3.org/1999/02/22-rdf-syntax-ns#"
   xmlns:svg="http://www.w3.org/2000/svg"
   xmlns="http://www.w3.org/2000/svg"
   xmlns:xlink="http://www.w3.org/1999/xlink"
   xmlns:sodipodi="http://sodipodi.sourceforge.net/DTD/sodipodi-0.dtd"
   xmlns:inkscape="http://www.inkscape.org/namespaces/inkscape"
   width="24"
   height="24"
   id="svg3147"
   version="1.1"
   inkscape:version="0.48.3.1 r9886"
   sodipodi:docname="folder-pictures.svg">
  <defs
     id="defs3149">
    <linearGradient
       id="linearGradient3858">
      <stop
         id="stop3860"
         offset="0"
         style="stop-color:#ffffff;stop-opacity:1;" />
      <stop
         style="stop-color:#ffffff;stop-opacity:0.15686275;"
         offset="0.07346445"
         id="stop3862" />
      <stop
         style="stop-color:#ffffff;stop-opacity:0.23529412;"
         offset="0.936414"
         id="stop3864" />
      <stop
         id="stop3866"
         offset="1"
         style="stop-color:#ffffff;stop-opacity:0.39215687;" />
    </linearGradient>
    <linearGradient
       id="linearGradient3811">
      <stop
         style="stop-color:#fff0c8;stop-opacity:1;"
         offset="0"
         id="stop3813" />
      <stop
         style="stop-color:#f0d78c;stop-opacity:1;"
         offset="1"
         id="stop3815" />
    </linearGradient>
    <linearGradient
       id="linearGradient3803">
      <stop
         style="stop-color:#bea55a;stop-opacity:1;"
         offset="0"
         id="stop3805" />
      <stop
         style="stop-color:#832000;stop-opacity:1;"
         offset="1"
         id="stop3807" />
    </linearGradient>
    <linearGradient
       id="linearGradient3795">
      <stop
         style="stop-color:#b06121;stop-opacity:1;"
         offset="0"
         id="stop3797" />
      <stop
         style="stop-color:#973404;stop-opacity:1;"
         offset="1"
         id="stop3799" />
    </linearGradient>
    <linearGradient
       id="linearGradient4536">
      <stop
         style="stop-color:#ffffff;stop-opacity:1;"
         offset="0"
         id="stop4538" />
      <stop
         id="stop4546"
         offset="0.06216056"
         style="stop-color:#ffffff;stop-opacity:0.15686275;" />
      <stop
         id="stop4544"
         offset="0.936414"
         style="stop-color:#ffffff;stop-opacity:0.23529412;" />
      <stop
         style="stop-color:#ffffff;stop-opacity:0.39215687;"
         offset="1"
         id="stop4540" />
    </linearGradient>
    <radialGradient
       inkscape:collect="always"
       xlink:href="#linearGradient3688-166-749"
       id="radialGradient3132"
       gradientUnits="userSpaceOnUse"
       gradientTransform="matrix(2.003784,0,0,1.4,27.98813,-17.4)"
       cx="4.9929786"
       cy="43.5"
       fx="4.9929786"
       fy="43.5"
       r="2.5" />
    <linearGradient
       id="linearGradient3688-166-749">
      <stop
         id="stop2883"
         style="stop-color:#181818;stop-opacity:1"
         offset="0" />
      <stop
         id="stop2885"
         style="stop-color:#181818;stop-opacity:0"
         offset="1" />
    </linearGradient>
    <radialGradient
       inkscape:collect="always"
       xlink:href="#linearGradient3688-464-309"
       id="radialGradient3134"
       gradientUnits="userSpaceOnUse"
       gradientTransform="matrix(2.003784,0,0,1.4,-20.01187,-104.4)"
       cx="4.9929786"
       cy="43.5"
       fx="4.9929786"
       fy="43.5"
       r="2.5" />
    <linearGradient
       id="linearGradient3688-464-309">
      <stop
         id="stop2889"
         style="stop-color:#181818;stop-opacity:1"
         offset="0" />
      <stop
         id="stop2891"
         style="stop-color:#181818;stop-opacity:0"
         offset="1" />
    </linearGradient>
    <linearGradient
       inkscape:collect="always"
       xlink:href="#linearGradient3702-501-757"
       id="linearGradient3136"
       gradientUnits="userSpaceOnUse"
       x1="25.058096"
       y1="47.027729"
       x2="25.058096"
       y2="39.999443" />
    <linearGradient
       id="linearGradient3702-501-757">
      <stop
         id="stop2895"
         style="stop-color:#181818;stop-opacity:0"
         offset="0" />
      <stop
         id="stop2897"
         style="stop-color:#181818;stop-opacity:1"
         offset="0.5" />
      <stop
         id="stop2899"
         style="stop-color:#181818;stop-opacity:0"
         offset="1" />
    </linearGradient>
    <linearGradient
       inkscape:collect="always"
       xlink:href="#linearGradient4536"
       id="linearGradient4542"
       x1="23.522522"
       y1="1010.4793"
       x2="23.522522"
       y2="1028.3296"
       gradientUnits="userSpaceOnUse"
       gradientTransform="translate(-2,21.000017)" />
    <radialGradient
       inkscape:collect="always"
       xlink:href="#linearGradient3795"
       id="radialGradient3801"
       cx="11.833833"
       cy="1032.2253"
       fx="11.833833"
       fy="1032.2253"
       r="10"
       gradientUnits="userSpaceOnUse"
       gradientTransform="matrix(-5.0073014e-6,1.5215214,-1.1075482,-3.6449226e-6,1155.5576,1013.9058)" />
    <linearGradient
       inkscape:collect="always"
       xlink:href="#linearGradient3803"
       id="linearGradient3809"
       x1="6.8669329"
       y1="22.025593"
       x2="6.8669329"
       y2="3.990603"
       gradientUnits="userSpaceOnUse" />
    <radialGradient
       inkscape:collect="always"
       xlink:href="#linearGradient3811"
       id="radialGradient3817"
       cx="12"
       cy="6.2616057"
       fx="12"
       fy="6.2616057"
       r="10"
       gradientTransform="matrix(2.9295082e-8,1.593371,-1.1142296,2.048578e-8,18.976866,-12.185007)"
       gradientUnits="userSpaceOnUse" />
    <linearGradient
       inkscape:collect="always"
       xlink:href="#linearGradient3858"
       id="linearGradient3842"
       gradientUnits="userSpaceOnUse"
       x1="6.8669329"
       y1="20.949205"
       x2="6.8669329"
       y2="5.0095506" />
    <linearGradient
       inkscape:collect="always"
       xlink:href="#linearGradient3814"
       id="linearGradient4125"
       gradientUnits="userSpaceOnUse"
       gradientTransform="matrix(1.84,0,0,1.8,3.84,962.41816)"
       x1="24.51577"
       y1="1.2360127"
       x2="24.51577"
       y2="39.595493" />
    <linearGradient
       id="linearGradient3814">
      <stop
         style="stop-color:#b06121;stop-opacity:1;"
         offset="0"
         id="stop3816" />
      <stop
         style="stop-color:#973404;stop-opacity:1;"
         offset="1"
         id="stop3818" />
    </linearGradient>
    <linearGradient
       y2="39.595493"
       x2="24.51577"
       y1="1.2360127"
       x1="24.51577"
       gradientTransform="matrix(0.48,0,0,0.45,0.48,1029.3762)"
       gradientUnits="userSpaceOnUse"
       id="linearGradient3071"
       xlink:href="#linearGradient3814"
       inkscape:collect="always" />
    <linearGradient
       inkscape:collect="always"
       xlink:href="#linearGradient3814"
       id="linearGradient3806"
       gradientUnits="userSpaceOnUse"
       gradientTransform="matrix(0.48,0,0,0.45,0.48,1.014)"
       x1="24.51577"
       y1="1.2360127"
       x2="24.51577"
       y2="39.595493" />
    <linearGradient
       inkscape:collect="always"
       xlink:href="#linearGradient3814"
       id="linearGradient3810"
       gradientUnits="userSpaceOnUse"
       gradientTransform="matrix(0.48,0,0,0.45,0.48,1.014)"
       x1="24.51577"
       y1="1.2360127"
       x2="24.51577"
       y2="39.595493" />
  </defs>
  <sodipodi:namedview
     id="base"
     pagecolor="#ffffff"
     bordercolor="#666666"
     borderopacity="1.0"
     inkscape:pageopacity="0.0"
     inkscape:pageshadow="2"
     inkscape:zoom="17.166667"
     inkscape:cx="6.6063608"
     inkscape:cy="3.9588599"
     inkscape:document-units="px"
     inkscape:current-layer="layer1"
     showgrid="false"
     inkscape:window-width="1280"
     inkscape:window-height="756"
     inkscape:window-x="0"
     inkscape:window-y="24"
     inkscape:window-maximized="1" />
  <metadata
     id="metadata3152">
    <rdf:RDF>
      <cc:Work
         rdf:about="">
        <dc:format>image/svg+xml</dc:format>
        <dc:type
           rdf:resource="http://purl.org/dc/dcmitype/StillImage" />
        <dc:title />
      </cc:Work>
    </rdf:RDF>
  </metadata>
  <g
     inkscape:label="Livello 1"
     inkscape:groupmode="layer"
     id="layer1"
     transform="translate(0,-1028.3622)">
    <rect
       style="fill:url(#radialGradient3801);fill-opacity:1;stroke:#832000;stroke-opacity:1"
       id="rect3163"
       width="19"
       height="19"
       x="2.5"
       y="1030.8622"
       rx="1.5"
       ry="1.5" />
    <rect
       style="opacity:0.3;fill:none;stroke:url(#linearGradient4542);stroke-opacity:1"
       id="rect4534"
       width="17"
       height="17"
       x="3.5"
       y="1031.8622"
       rx="0.5"
       ry="0.5" />
    <path
       style="fill:url(#radialGradient3817);fill-opacity:1;stroke:url(#linearGradient3809);stroke-opacity:1"
       d="M 4,4.5 C 3.169,4.5 2.5,5.169 2.5,6 l 0,2 0,1 0,11 c 0,0.831 0.669,1.5 1.5,1.5 l 16,0 c 0.831,0 1.5,-0.669 1.5,-1.5 l 0,-11 C 21.5,8.169 20.830475,7.529528 20,7.5 l -4,0 -2.5,0 C 12.254978,7.5 12,6.6256718 12,6 12,5.3346158 11.316226,4.5 10.5,4.5 z"
       id="rect3003"
       inkscape:connector-curvature="0"
       sodipodi:nodetypes="ssccsssssscccss"
       transform="translate(0,1028.3622)" />
    <path
       sodipodi:nodetypes="ssccsssssscccss"
       inkscape:connector-curvature="0"
       id="path3840"
       d="m 4.5,5.5 c -0.831,0 -1,0.169 -1,1 l 0,2.5 0,1 0,9.5 c 0,0.831 0.169,1 1,1 l 15,0 c 0.831,0 1,-0.169 1,-1 l 0,-10 c 0,-0.831 -0.169,-1 -1,-1 l -3.5,0 -2.8,0 C 12.20723,8.5 11.1,7.8959421 11.1,7 11.1,6.3706518 11.016226,5.5 10.2,5.5 z"
       style="opacity:0.5;fill:url(#radialGradient3817);fill-opacity:1;stroke:url(#linearGradient3842);stroke-opacity:1"
       transform="translate(0,1028.3622)" />
    <path
       id="path3031"
       d="m 10,1038.3622 c -0.5247206,0 -1.0604532,0.5365 -1,1 l 0,1 -2.09375,0 c -0.4986,0 -0.90625,0.5326 -0.90625,1 l 0,6 c 0,0.4675 0.40765,1 0.90625,1 l 10.1875,0 c 0.4986,0 0.90625,-0.5325 0.90625,-1 l 0,-6 c 0,-0.4674 -0.415636,-1.022 -0.90625,-1 l -2.09375,0 0,-1 c 0,-0.4674 -0.5014,-1 -1,-1 l -4,0 z m 2,3 c 1.656854,0 3,1.3431 3,3 0,1.6569 -1.343146,3 -3,3 -1.656854,0 -3,-1.3431 -3,-3 0,-1.6569 1.343146,-3 3,-3 z m 0,1 c -1.104569,0 -2,0.8954 -2,2 0,1.1046 0.895431,2 2,2 1.104569,0 2,-0.8954 2,-2 0,-1.1046 -0.895431,-2 -2,-2 z"
       style="fill:#ffffff;fill-opacity:1;fill-rule:nonzero;stroke:none;opacity:0.29999999999999999"
       inkscape:connector-curvature="0" />
    <path
       style="fill:url(#linearGradient3810);fill-opacity:1;fill-rule:nonzero;stroke:none"
       d="M 10 9 C 9.4752794 9 8.9395468 9.5365 9 10 L 9 11 L 6.90625 11 C 6.40765 11 6 11.5326 6 12 L 6 18 C 6 18.4675 6.40765 19 6.90625 19 L 17.09375 19 C 17.59235 19 18 18.4675 18 18 L 18 12 C 18 11.5326 17.584364 10.978 17.09375 11 L 15 11 L 15 10 C 15 9.5326 14.4986 9 14 9 L 10 9 z M 12 12 C 13.656854 12 15 13.343146 15 15 C 15 16.656854 13.656854 18 12 18 C 10.343146 18 9 16.656854 9 15 C 9 13.343146 10.343146 12 12 12 z M 12 13 C 10.895431 13 10 13.895431 10 15 C 10 16.104569 10.895431 17 12 17 C 13.104569 17 14 16.104569 14 15 C 14 13.895431 13.104569 13 12 13 z "
       transform="translate(0,1028.3622)"
       id="rect3180" />
  </g>
</svg>
