<?xml version="1.0" encoding="UTF-8" standalone="no"?>
<!-- Created with Inkscape (http://www.inkscape.org/) -->

<svg
   xmlns:dc="http://purl.org/dc/elements/1.1/"
   xmlns:cc="http://creativecommons.org/ns#"
   xmlns:rdf="http://www.w3.org/1999/02/22-rdf-syntax-ns#"
   xmlns:svg="http://www.w3.org/2000/svg"
   xmlns="http://www.w3.org/2000/svg"
   xmlns:xlink="http://www.w3.org/1999/xlink"
   xmlns:sodipodi="http://sodipodi.sourceforge.net/DTD/sodipodi-0.dtd"
   xmlns:inkscape="http://www.inkscape.org/namespaces/inkscape"
   width="24"
   height="24"
   id="svg3147"
   version="1.1"
   inkscape:version="0.48.3.1 r9886"
   sodipodi:docname="stock_text-monospaced.svg">
  <defs
     id="defs3149">
    <linearGradient
       id="linearGradient3779">
      <stop
         style="stop-color:#333333;stop-opacity:1;"
         offset="0"
         id="stop3781" />
      <stop
         style="stop-color:#969696;stop-opacity:1;"
         offset="1"
         id="stop3783" />
    </linearGradient>
    <linearGradient
       id="linearGradient3771">
      <stop
         style="stop-color:#c8c8c8;stop-opacity:1;"
         offset="0"
         id="stop3773" />
      <stop
         style="stop-color:#646464;stop-opacity:1;"
         offset="1"
         id="stop3775" />
    </linearGradient>
    <linearGradient
       id="linearGradient4536">
      <stop
         style="stop-color:#ffffff;stop-opacity:1;"
         offset="0"
         id="stop4538" />
      <stop
         id="stop4546"
         offset="0.06216056"
         style="stop-color:#ffffff;stop-opacity:0.15686275;" />
      <stop
         id="stop4544"
         offset="0.936414"
         style="stop-color:#ffffff;stop-opacity:0.23529412;" />
      <stop
         style="stop-color:#ffffff;stop-opacity:0.39215687;"
         offset="1"
         id="stop4540" />
    </linearGradient>
    <radialGradient
       inkscape:collect="always"
       xlink:href="#linearGradient3688-166-749"
       id="radialGradient3132"
       gradientUnits="userSpaceOnUse"
       gradientTransform="matrix(2.003784,0,0,1.4,27.98813,-17.4)"
       cx="4.9929786"
       cy="43.5"
       fx="4.9929786"
       fy="43.5"
       r="2.5" />
    <linearGradient
       id="linearGradient3688-166-749">
      <stop
         id="stop2883"
         style="stop-color:#181818;stop-opacity:1"
         offset="0" />
      <stop
         id="stop2885"
         style="stop-color:#181818;stop-opacity:0"
         offset="1" />
    </linearGradient>
    <radialGradient
       inkscape:collect="always"
       xlink:href="#linearGradient3688-464-309"
       id="radialGradient3134"
       gradientUnits="userSpaceOnUse"
       gradientTransform="matrix(2.003784,0,0,1.4,-20.01187,-104.4)"
       cx="4.9929786"
       cy="43.5"
       fx="4.9929786"
       fy="43.5"
       r="2.5" />
    <linearGradient
       id="linearGradient3688-464-309">
      <stop
         id="stop2889"
         style="stop-color:#181818;stop-opacity:1"
         offset="0" />
      <stop
         id="stop2891"
         style="stop-color:#181818;stop-opacity:0"
         offset="1" />
    </linearGradient>
    <linearGradient
       inkscape:collect="always"
       xlink:href="#linearGradient3702-501-757"
       id="linearGradient3136"
       gradientUnits="userSpaceOnUse"
       x1="25.058096"
       y1="47.027729"
       x2="25.058096"
       y2="39.999443" />
    <linearGradient
       id="linearGradient3702-501-757">
      <stop
         id="stop2895"
         style="stop-color:#181818;stop-opacity:0"
         offset="0" />
      <stop
         id="stop2897"
         style="stop-color:#181818;stop-opacity:1"
         offset="0.5" />
      <stop
         id="stop2899"
         style="stop-color:#181818;stop-opacity:0"
         offset="1" />
    </linearGradient>
    <linearGradient
       inkscape:collect="always"
       xlink:href="#linearGradient4536"
       id="linearGradient4542"
       x1="14.801802"
       y1="1010.4072"
       x2="14.801802"
       y2="1028.1376"
       gradientUnits="userSpaceOnUse"
       gradientTransform="translate(-2,21.000034)" />
  </defs>
  <sodipodi:namedview
     id="base"
     pagecolor="#ffffff"
     bordercolor="#666666"
     borderopacity="1.0"
     inkscape:pageopacity="0.0"
     inkscape:pageshadow="2"
     inkscape:zoom="13.875"
     inkscape:cx="0.15498693"
     inkscape:cy="6.8187501"
     inkscape:document-units="px"
     inkscape:current-layer="layer1"
     showgrid="false"
     inkscape:window-width="1280"
     inkscape:window-height="751"
     inkscape:window-x="0"
     inkscape:window-y="24"
     inkscape:window-maximized="1" />
  <metadata
     id="metadata3152">
    <rdf:RDF>
      <cc:Work
         rdf:about="">
        <dc:format>image/svg+xml</dc:format>
        <dc:type
           rdf:resource="http://purl.org/dc/dcmitype/StillImage" />
        <dc:title />
      </cc:Work>
    </rdf:RDF>
  </metadata>
  <g
     inkscape:label="Livello 1"
     inkscape:groupmode="layer"
     id="layer1"
     transform="translate(0,-1028.3622)">
    <rect
       style="fill:#505050;fill-opacity:1;stroke:#333333;stroke-opacity:1"
       id="rect3163"
       width="19"
       height="19"
       x="2.5"
       y="1030.8622"
       rx="1"
       ry="1" />
    <path
       id="path3810"
       transform="translate(0,1028.3622)"
       d="M 5.0625 8 L 5 10.1875 L 5.625 10.1875 L 5.71875 9.46875 C 5.731084 9.34475 5.722242 9.25425 5.75 9.15625 C 5.7808395 9.05775 5.847653 8.97225 5.90625 8.90625 C 5.9679297 8.83655 6.029394 8.786 6.125 8.75 C 6.220604 8.713 6.3581327 8.6875 6.5 8.6875 L 7.25 8.6875 L 7.25 14.6875 C 7.249998 14.848 7.24342 14.9675 7.21875 15.0625 C 7.1940757 15.1573 7.168174 15.23025 7.125 15.28125 C 7.0818213 15.33215 7.027345 15.357 6.96875 15.375 C 6.9101512 15.387 6.820931 15.40625 6.75 15.40625 L 6.375 15.40625 L 6.375 16 L 9.625 16 L 9.625 15.40625 L 9.25 15.40625 C 9.1821465 15.40625 9.121093 15.39 9.0625 15.375 C 9.003899 15.3571 8.921256 15.33225 8.875 15.28125 C 8.8318198 15.23015 8.805918 15.1575 8.78125 15.0625 C 8.756575 14.9676 8.7499961 14.848 8.75 14.6875 L 8.75 8.6875 L 9.5 8.6875 C 9.6418612 8.6875 9.77939 8.713 9.875 8.75 C 9.9706002 8.7865 10.03515 8.83725 10.09375 8.90625 C 10.155426 8.97185 10.19099 9.05725 10.21875 9.15625 C 10.24959 9.25475 10.26891 9.34475 10.28125 9.46875 L 10.375 10.1875 L 11 10.1875 L 10.96875 8 L 5.0625 8 z M 13.0625 8 L 13 10.1875 L 13.625 10.1875 L 13.71875 9.46875 C 13.73109 9.34475 13.72224 9.25425 13.75 9.15625 C 13.780839 9.05775 13.84765 8.97225 13.90625 8.90625 C 13.96793 8.83655 14.02939 8.786 14.125 8.75 C 14.220603 8.713 14.358132 8.6875 14.5 8.6875 L 15.25 8.6875 L 15.25 14.6875 C 15.25 14.848 15.24342 14.9675 15.21875 15.0625 C 15.194078 15.1573 15.16818 15.23025 15.125 15.28125 C 15.081821 15.33215 15.02735 15.357 14.96875 15.375 C 14.910152 15.387 14.82093 15.40625 14.75 15.40625 L 14.375 15.40625 L 14.375 16 L 17.625 16 L 17.625 15.40625 L 17.25 15.40625 C 17.182147 15.40625 17.12109 15.39 17.0625 15.375 C 17.003904 15.3571 16.92126 15.33225 16.875 15.28125 C 16.831827 15.23015 16.80592 15.1575 16.78125 15.0625 C 16.75657 14.9676 16.749995 14.848 16.75 14.6875 L 16.75 8.6875 L 17.5 8.6875 C 17.641861 8.6875 17.77939 8.713 17.875 8.75 C 17.970601 8.7865 18.03514 8.83725 18.09375 8.90625 C 18.155426 8.97185 18.19099 9.05725 18.21875 9.15625 C 18.24959 9.25475 18.26891 9.34475 18.28125 9.46875 L 18.375 10.1875 L 19 10.1875 L 18.96875 8 L 13.0625 8 z "
       style="font-size:10.30402373999999988px;font-style:normal;font-variant:normal;font-weight:bold;font-stretch:normal;line-height:125%;letter-spacing:0px;word-spacing:0px;fill:#000000;fill-opacity:1;stroke:#000000;font-family:Droid Serif;-inkscape-font-specification:Droid Serif Bold;stroke-opacity:1;stroke-linejoin:round;opacity:0.05;stroke-width:3;stroke-miterlimit:4;stroke-dasharray:none" />
    <path
       style="font-size:10.30402373999999988px;font-style:normal;font-variant:normal;font-weight:bold;font-stretch:normal;line-height:125%;letter-spacing:0px;word-spacing:0px;fill:#000000;fill-opacity:1;stroke:#000000;font-family:Droid Serif;-inkscape-font-specification:Droid Serif Bold;stroke-opacity:1;stroke-linejoin:round;opacity:0.09999995;stroke-width:2.00000009999999984;stroke-miterlimit:4;stroke-dasharray:none"
       d="M 5.0625 8 L 5 10.1875 L 5.625 10.1875 L 5.71875 9.46875 C 5.731084 9.34475 5.722242 9.25425 5.75 9.15625 C 5.7808395 9.05775 5.847653 8.97225 5.90625 8.90625 C 5.9679297 8.83655 6.029394 8.786 6.125 8.75 C 6.220604 8.713 6.3581327 8.6875 6.5 8.6875 L 7.25 8.6875 L 7.25 14.6875 C 7.249998 14.848 7.24342 14.9675 7.21875 15.0625 C 7.1940757 15.1573 7.168174 15.23025 7.125 15.28125 C 7.0818213 15.33215 7.027345 15.357 6.96875 15.375 C 6.9101512 15.387 6.820931 15.40625 6.75 15.40625 L 6.375 15.40625 L 6.375 16 L 9.625 16 L 9.625 15.40625 L 9.25 15.40625 C 9.1821465 15.40625 9.121093 15.39 9.0625 15.375 C 9.003899 15.3571 8.921256 15.33225 8.875 15.28125 C 8.8318198 15.23015 8.805918 15.1575 8.78125 15.0625 C 8.756575 14.9676 8.7499961 14.848 8.75 14.6875 L 8.75 8.6875 L 9.5 8.6875 C 9.6418612 8.6875 9.77939 8.713 9.875 8.75 C 9.9706002 8.7865 10.03515 8.83725 10.09375 8.90625 C 10.155426 8.97185 10.19099 9.05725 10.21875 9.15625 C 10.24959 9.25475 10.26891 9.34475 10.28125 9.46875 L 10.375 10.1875 L 11 10.1875 L 10.96875 8 L 5.0625 8 z M 13.0625 8 L 13 10.1875 L 13.625 10.1875 L 13.71875 9.46875 C 13.73109 9.34475 13.72224 9.25425 13.75 9.15625 C 13.780839 9.05775 13.84765 8.97225 13.90625 8.90625 C 13.96793 8.83655 14.02939 8.786 14.125 8.75 C 14.220603 8.713 14.358132 8.6875 14.5 8.6875 L 15.25 8.6875 L 15.25 14.6875 C 15.25 14.848 15.24342 14.9675 15.21875 15.0625 C 15.194078 15.1573 15.16818 15.23025 15.125 15.28125 C 15.081821 15.33215 15.02735 15.357 14.96875 15.375 C 14.910152 15.387 14.82093 15.40625 14.75 15.40625 L 14.375 15.40625 L 14.375 16 L 17.625 16 L 17.625 15.40625 L 17.25 15.40625 C 17.182147 15.40625 17.12109 15.39 17.0625 15.375 C 17.003904 15.3571 16.92126 15.33225 16.875 15.28125 C 16.831827 15.23015 16.80592 15.1575 16.78125 15.0625 C 16.75657 14.9676 16.749995 14.848 16.75 14.6875 L 16.75 8.6875 L 17.5 8.6875 C 17.641861 8.6875 17.77939 8.713 17.875 8.75 C 17.970601 8.7865 18.03514 8.83725 18.09375 8.90625 C 18.155426 8.97185 18.19099 9.05725 18.21875 9.15625 C 18.24959 9.25475 18.26891 9.34475 18.28125 9.46875 L 18.375 10.1875 L 19 10.1875 L 18.96875 8 L 13.0625 8 z "
       transform="translate(0,1028.3622)"
       id="path3808" />
    <path
       id="path3806"
       transform="translate(0,1028.3622)"
       d="M 5.0625 8 L 5 10.1875 L 5.625 10.1875 L 5.71875 9.46875 C 5.731084 9.34475 5.722242 9.25425 5.75 9.15625 C 5.7808395 9.05775 5.847653 8.97225 5.90625 8.90625 C 5.9679297 8.83655 6.029394 8.786 6.125 8.75 C 6.220604 8.713 6.3581327 8.6875 6.5 8.6875 L 7.25 8.6875 L 7.25 14.6875 C 7.249998 14.848 7.24342 14.9675 7.21875 15.0625 C 7.1940757 15.1573 7.168174 15.23025 7.125 15.28125 C 7.0818213 15.33215 7.027345 15.357 6.96875 15.375 C 6.9101512 15.387 6.820931 15.40625 6.75 15.40625 L 6.375 15.40625 L 6.375 16 L 9.625 16 L 9.625 15.40625 L 9.25 15.40625 C 9.1821465 15.40625 9.121093 15.39 9.0625 15.375 C 9.003899 15.3571 8.921256 15.33225 8.875 15.28125 C 8.8318198 15.23015 8.805918 15.1575 8.78125 15.0625 C 8.756575 14.9676 8.7499961 14.848 8.75 14.6875 L 8.75 8.6875 L 9.5 8.6875 C 9.6418612 8.6875 9.77939 8.713 9.875 8.75 C 9.9706002 8.7865 10.03515 8.83725 10.09375 8.90625 C 10.155426 8.97185 10.19099 9.05725 10.21875 9.15625 C 10.24959 9.25475 10.26891 9.34475 10.28125 9.46875 L 10.375 10.1875 L 11 10.1875 L 10.96875 8 L 5.0625 8 z M 13.0625 8 L 13 10.1875 L 13.625 10.1875 L 13.71875 9.46875 C 13.73109 9.34475 13.72224 9.25425 13.75 9.15625 C 13.780839 9.05775 13.84765 8.97225 13.90625 8.90625 C 13.96793 8.83655 14.02939 8.786 14.125 8.75 C 14.220603 8.713 14.358132 8.6875 14.5 8.6875 L 15.25 8.6875 L 15.25 14.6875 C 15.25 14.848 15.24342 14.9675 15.21875 15.0625 C 15.194078 15.1573 15.16818 15.23025 15.125 15.28125 C 15.081821 15.33215 15.02735 15.357 14.96875 15.375 C 14.910152 15.387 14.82093 15.40625 14.75 15.40625 L 14.375 15.40625 L 14.375 16 L 17.625 16 L 17.625 15.40625 L 17.25 15.40625 C 17.182147 15.40625 17.12109 15.39 17.0625 15.375 C 17.003904 15.3571 16.92126 15.33225 16.875 15.28125 C 16.831827 15.23015 16.80592 15.1575 16.78125 15.0625 C 16.75657 14.9676 16.749995 14.848 16.75 14.6875 L 16.75 8.6875 L 17.5 8.6875 C 17.641861 8.6875 17.77939 8.713 17.875 8.75 C 17.970601 8.7865 18.03514 8.83725 18.09375 8.90625 C 18.155426 8.97185 18.19099 9.05725 18.21875 9.15625 C 18.24959 9.25475 18.26891 9.34475 18.28125 9.46875 L 18.375 10.1875 L 19 10.1875 L 18.96875 8 L 13.0625 8 z "
       style="font-size:10.30402373999999988px;font-style:normal;font-variant:normal;font-weight:bold;font-stretch:normal;line-height:125%;letter-spacing:0px;word-spacing:0px;fill:#000000;fill-opacity:1;stroke:#000000;font-family:Droid Serif;-inkscape-font-specification:Droid Serif Bold;stroke-opacity:1;stroke-linejoin:round;opacity:0.15" />
    <path
       style="font-size:10.30402373999999988px;font-style:normal;font-variant:normal;font-weight:bold;font-stretch:normal;line-height:125%;letter-spacing:0px;word-spacing:0px;fill:#ffffff;fill-opacity:1;stroke:none;font-family:Droid Serif;-inkscape-font-specification:Droid Serif Bold"
       d="M 5.0625 8 L 5 10.1875 L 5.625 10.1875 L 5.71875 9.46875 C 5.731084 9.34475 5.722242 9.25425 5.75 9.15625 C 5.7808395 9.05775 5.847653 8.97225 5.90625 8.90625 C 5.9679297 8.83655 6.029394 8.786 6.125 8.75 C 6.220604 8.713 6.3581327 8.6875 6.5 8.6875 L 7.25 8.6875 L 7.25 14.6875 C 7.249998 14.848 7.24342 14.9675 7.21875 15.0625 C 7.1940757 15.1573 7.168174 15.23025 7.125 15.28125 C 7.0818213 15.33215 7.027345 15.357 6.96875 15.375 C 6.9101512 15.387 6.820931 15.40625 6.75 15.40625 L 6.375 15.40625 L 6.375 16 L 9.625 16 L 9.625 15.40625 L 9.25 15.40625 C 9.1821465 15.40625 9.121093 15.39 9.0625 15.375 C 9.003899 15.3571 8.921256 15.33225 8.875 15.28125 C 8.8318198 15.23015 8.805918 15.1575 8.78125 15.0625 C 8.756575 14.9676 8.7499961 14.848 8.75 14.6875 L 8.75 8.6875 L 9.5 8.6875 C 9.6418612 8.6875 9.77939 8.713 9.875 8.75 C 9.9706002 8.7865 10.03515 8.83725 10.09375 8.90625 C 10.155426 8.97185 10.19099 9.05725 10.21875 9.15625 C 10.24959 9.25475 10.26891 9.34475 10.28125 9.46875 L 10.375 10.1875 L 11 10.1875 L 10.96875 8 L 5.0625 8 z M 13.0625 8 L 13 10.1875 L 13.625 10.1875 L 13.71875 9.46875 C 13.73109 9.34475 13.72224 9.25425 13.75 9.15625 C 13.780839 9.05775 13.84765 8.97225 13.90625 8.90625 C 13.96793 8.83655 14.02939 8.786 14.125 8.75 C 14.220603 8.713 14.358132 8.6875 14.5 8.6875 L 15.25 8.6875 L 15.25 14.6875 C 15.25 14.848 15.24342 14.9675 15.21875 15.0625 C 15.194078 15.1573 15.16818 15.23025 15.125 15.28125 C 15.081821 15.33215 15.02735 15.357 14.96875 15.375 C 14.910152 15.387 14.82093 15.40625 14.75 15.40625 L 14.375 15.40625 L 14.375 16 L 17.625 16 L 17.625 15.40625 L 17.25 15.40625 C 17.182147 15.40625 17.12109 15.39 17.0625 15.375 C 17.003904 15.3571 16.92126 15.33225 16.875 15.28125 C 16.831827 15.23015 16.80592 15.1575 16.78125 15.0625 C 16.75657 14.9676 16.749995 14.848 16.75 14.6875 L 16.75 8.6875 L 17.5 8.6875 C 17.641861 8.6875 17.77939 8.713 17.875 8.75 C 17.970601 8.7865 18.03514 8.83725 18.09375 8.90625 C 18.155426 8.97185 18.19099 9.05725 18.21875 9.15625 C 18.24959 9.25475 18.26891 9.34475 18.28125 9.46875 L 18.375 10.1875 L 19 10.1875 L 18.96875 8 L 13.0625 8 z "
       transform="translate(0,1028.3622)"
       id="path3020" />
  </g>
</svg>
