<?xml version="1.0" encoding="UTF-8" standalone="no"?>
<!-- Created with Inkscape (http://www.inkscape.org/) -->

<svg
   xmlns:dc="http://purl.org/dc/elements/1.1/"
   xmlns:cc="http://creativecommons.org/ns#"
   xmlns:rdf="http://www.w3.org/1999/02/22-rdf-syntax-ns#"
   xmlns:svg="http://www.w3.org/2000/svg"
   xmlns="http://www.w3.org/2000/svg"
   xmlns:xlink="http://www.w3.org/1999/xlink"
   xmlns:sodipodi="http://sodipodi.sourceforge.net/DTD/sodipodi-0.dtd"
   xmlns:inkscape="http://www.inkscape.org/namespaces/inkscape"
   width="24"
   height="24"
   id="svg3147"
   version="1.1"
   inkscape:version="0.48.3.1 r9886"
   sodipodi:docname="temp-action.svg">
  <defs
     id="defs3149">
    <linearGradient
       id="linearGradient3779">
      <stop
         style="stop-color:#333333;stop-opacity:1;"
         offset="0"
         id="stop3781" />
      <stop
         style="stop-color:#969696;stop-opacity:1;"
         offset="1"
         id="stop3783" />
    </linearGradient>
    <linearGradient
       id="linearGradient3771">
      <stop
         style="stop-color:#c8c8c8;stop-opacity:1;"
         offset="0"
         id="stop3773" />
      <stop
         style="stop-color:#646464;stop-opacity:1;"
         offset="1"
         id="stop3775" />
    </linearGradient>
    <linearGradient
       id="linearGradient4536">
      <stop
         style="stop-color:#ffffff;stop-opacity:1;"
         offset="0"
         id="stop4538" />
      <stop
         id="stop4546"
         offset="0.06216056"
         style="stop-color:#ffffff;stop-opacity:0.15686275;" />
      <stop
         id="stop4544"
         offset="0.936414"
         style="stop-color:#ffffff;stop-opacity:0.23529412;" />
      <stop
         style="stop-color:#ffffff;stop-opacity:0.39215687;"
         offset="1"
         id="stop4540" />
    </linearGradient>
    <radialGradient
       inkscape:collect="always"
       xlink:href="#linearGradient3688-166-749"
       id="radialGradient3132"
       gradientUnits="userSpaceOnUse"
       gradientTransform="matrix(2.003784,0,0,1.4,27.98813,-17.4)"
       cx="4.9929786"
       cy="43.5"
       fx="4.9929786"
       fy="43.5"
       r="2.5" />
    <linearGradient
       id="linearGradient3688-166-749">
      <stop
         id="stop2883"
         style="stop-color:#181818;stop-opacity:1"
         offset="0" />
      <stop
         id="stop2885"
         style="stop-color:#181818;stop-opacity:0"
         offset="1" />
    </linearGradient>
    <radialGradient
       inkscape:collect="always"
       xlink:href="#linearGradient3688-464-309"
       id="radialGradient3134"
       gradientUnits="userSpaceOnUse"
       gradientTransform="matrix(2.003784,0,0,1.4,-20.01187,-104.4)"
       cx="4.9929786"
       cy="43.5"
       fx="4.9929786"
       fy="43.5"
       r="2.5" />
    <linearGradient
       id="linearGradient3688-464-309">
      <stop
         id="stop2889"
         style="stop-color:#181818;stop-opacity:1"
         offset="0" />
      <stop
         id="stop2891"
         style="stop-color:#181818;stop-opacity:0"
         offset="1" />
    </linearGradient>
    <linearGradient
       inkscape:collect="always"
       xlink:href="#linearGradient3702-501-757"
       id="linearGradient3136"
       gradientUnits="userSpaceOnUse"
       x1="25.058096"
       y1="47.027729"
       x2="25.058096"
       y2="39.999443" />
    <linearGradient
       id="linearGradient3702-501-757">
      <stop
         id="stop2895"
         style="stop-color:#181818;stop-opacity:0"
         offset="0" />
      <stop
         id="stop2897"
         style="stop-color:#181818;stop-opacity:1"
         offset="0.5" />
      <stop
         id="stop2899"
         style="stop-color:#181818;stop-opacity:0"
         offset="1" />
    </linearGradient>
    <linearGradient
       inkscape:collect="always"
       xlink:href="#linearGradient4536"
       id="linearGradient4542"
       x1="14.801802"
       y1="1010.4072"
       x2="14.801802"
       y2="1028.1376"
       gradientUnits="userSpaceOnUse"
       gradientTransform="translate(-2,21.000034)" />
    <radialGradient
       inkscape:collect="always"
       xlink:href="#linearGradient3771"
       id="radialGradient3777"
       cx="8.4395084"
       cy="1038.224"
       fx="8.4395084"
       fy="1038.224"
       r="8"
       gradientUnits="userSpaceOnUse"
       gradientTransform="matrix(-1.8033154e-7,2.3063239,-1.7388621,-1.3596168e-7,1817.1303,1014.2854)" />
    <linearGradient
       inkscape:collect="always"
       xlink:href="#linearGradient3779"
       id="linearGradient3785"
       x1="4.8288288"
       y1="1056.1926"
       x2="4.8288288"
       y2="1036.2902"
       gradientUnits="userSpaceOnUse"
       gradientTransform="translate(2,-5.9999826)" />
  </defs>
  <sodipodi:namedview
     id="base"
     pagecolor="#ffffff"
     bordercolor="#666666"
     borderopacity="1.0"
     inkscape:pageopacity="0.0"
     inkscape:pageshadow="2"
     inkscape:zoom="13.875"
     inkscape:cx="12.317807"
     inkscape:cy="6.2908713"
     inkscape:document-units="px"
     inkscape:current-layer="layer1"
     showgrid="false"
     inkscape:window-width="1280"
     inkscape:window-height="749"
     inkscape:window-x="0"
     inkscape:window-y="24"
     inkscape:window-maximized="1" />
  <metadata
     id="metadata3152">
    <rdf:RDF>
      <cc:Work
         rdf:about="">
        <dc:format>image/svg+xml</dc:format>
        <dc:type
           rdf:resource="http://purl.org/dc/dcmitype/StillImage" />
        <dc:title></dc:title>
      </cc:Work>
    </rdf:RDF>
  </metadata>
  <g
     inkscape:label="Livello 1"
     inkscape:groupmode="layer"
     id="layer1"
     transform="translate(0,-1028.3622)">
    <rect
       style="fill:url(#radialGradient3777);fill-opacity:1;stroke:url(#linearGradient3785);stroke-opacity:1"
       id="rect3163"
       width="19"
       height="19"
       x="2.5"
       y="1030.8622"
       rx="1"
       ry="1" />
    <rect
       style="opacity:0.29999999999999999;fill:none;stroke:url(#linearGradient4542);stroke-opacity:1"
       id="rect4534"
       width="17"
       height="17"
       x="3.5"
       y="1031.8622"
       rx="0.1"
       ry="0.1" />
    <path
       id="path3812"
       transform="translate(0,1028.3622)"
       d="M 11 5 L 11 7.09375 C 10.358525 7.2250148 9.7763299 7.4924544 9.25 7.84375 L 9.21875 7.84375 L 7.75 6.34375 L 6.34375 7.75 L 7.84375 9.21875 L 7.84375 9.25 C 7.4924544 9.7763299 7.2250148 10.358525 7.09375 11 L 5 11 L 5 13 L 7.09375 13 C 7.2250148 13.641475 7.4924544 14.22367 7.84375 14.75 C 7.848953 14.757795 7.8385045 14.773486 7.84375 14.78125 L 6.34375 16.25 L 7.75 17.65625 L 9.21875 16.15625 L 9.25 16.15625 C 9.7763299 16.507546 10.358525 16.774985 11 16.90625 L 11 19 L 13 19 L 13 16.90625 C 13.641475 16.774985 14.22367 16.507546 14.75 16.15625 L 14.78125 16.15625 L 16.25 17.65625 L 17.65625 16.25 L 16.15625 14.78125 C 16.161496 14.773486 16.151047 14.757795 16.15625 14.75 C 16.507546 14.22367 16.774985 13.641475 16.90625 13 L 19 13 L 19 11 L 16.90625 11 C 16.774985 10.358525 16.507546 9.7763299 16.15625 9.25 C 16.151047 9.2422047 16.161496 9.2265144 16.15625 9.21875 L 17.65625 7.75 L 16.25 6.34375 L 14.78125 7.84375 C 14.773486 7.8385045 14.757795 7.848953 14.75 7.84375 C 14.22367 7.4924544 13.641475 7.2250148 13 7.09375 L 13 5 L 11 5 z M 12 9 C 13.656854 9 15 10.343146 15 12 C 15 13.656854 13.656854 15 12 15 C 10.343146 15 9 13.656854 9 12 C 9 10.343146 10.343146 9 12 9 z "
       style="opacity:0.05;fill:#000000;fill-opacity:1;stroke:#000000;stroke-opacity:1;stroke-linejoin:round;stroke-width:2.99999990000000016;stroke-miterlimit:4;stroke-dasharray:none" />
    <path
       style="opacity:0.09999995;fill:#000000;fill-opacity:1;stroke:#000000;stroke-opacity:1;stroke-linejoin:round;stroke-width:2.00000009999999984;stroke-miterlimit:4;stroke-dasharray:none"
       d="M 11 5 L 11 7.09375 C 10.358525 7.2250148 9.7763299 7.4924544 9.25 7.84375 L 9.21875 7.84375 L 7.75 6.34375 L 6.34375 7.75 L 7.84375 9.21875 L 7.84375 9.25 C 7.4924544 9.7763299 7.2250148 10.358525 7.09375 11 L 5 11 L 5 13 L 7.09375 13 C 7.2250148 13.641475 7.4924544 14.22367 7.84375 14.75 C 7.848953 14.757795 7.8385045 14.773486 7.84375 14.78125 L 6.34375 16.25 L 7.75 17.65625 L 9.21875 16.15625 L 9.25 16.15625 C 9.7763299 16.507546 10.358525 16.774985 11 16.90625 L 11 19 L 13 19 L 13 16.90625 C 13.641475 16.774985 14.22367 16.507546 14.75 16.15625 L 14.78125 16.15625 L 16.25 17.65625 L 17.65625 16.25 L 16.15625 14.78125 C 16.161496 14.773486 16.151047 14.757795 16.15625 14.75 C 16.507546 14.22367 16.774985 13.641475 16.90625 13 L 19 13 L 19 11 L 16.90625 11 C 16.774985 10.358525 16.507546 9.7763299 16.15625 9.25 C 16.151047 9.2422047 16.161496 9.2265144 16.15625 9.21875 L 17.65625 7.75 L 16.25 6.34375 L 14.78125 7.84375 C 14.773486 7.8385045 14.757795 7.848953 14.75 7.84375 C 14.22367 7.4924544 13.641475 7.2250148 13 7.09375 L 13 5 L 11 5 z M 12 9 C 13.656854 9 15 10.343146 15 12 C 15 13.656854 13.656854 15 12 15 C 10.343146 15 9 13.656854 9 12 C 9 10.343146 10.343146 9 12 9 z "
       transform="translate(0,1028.3622)"
       id="path3810" />
    <path
       id="path3808"
       transform="translate(0,1028.3622)"
       d="M 11 5 L 11 7.09375 C 10.358525 7.2250148 9.7763299 7.4924544 9.25 7.84375 L 9.21875 7.84375 L 7.75 6.34375 L 6.34375 7.75 L 7.84375 9.21875 L 7.84375 9.25 C 7.4924544 9.7763299 7.2250148 10.358525 7.09375 11 L 5 11 L 5 13 L 7.09375 13 C 7.2250148 13.641475 7.4924544 14.22367 7.84375 14.75 C 7.848953 14.757795 7.8385045 14.773486 7.84375 14.78125 L 6.34375 16.25 L 7.75 17.65625 L 9.21875 16.15625 L 9.25 16.15625 C 9.7763299 16.507546 10.358525 16.774985 11 16.90625 L 11 19 L 13 19 L 13 16.90625 C 13.641475 16.774985 14.22367 16.507546 14.75 16.15625 L 14.78125 16.15625 L 16.25 17.65625 L 17.65625 16.25 L 16.15625 14.78125 C 16.161496 14.773486 16.151047 14.757795 16.15625 14.75 C 16.507546 14.22367 16.774985 13.641475 16.90625 13 L 19 13 L 19 11 L 16.90625 11 C 16.774985 10.358525 16.507546 9.7763299 16.15625 9.25 C 16.151047 9.2422047 16.161496 9.2265144 16.15625 9.21875 L 17.65625 7.75 L 16.25 6.34375 L 14.78125 7.84375 C 14.773486 7.8385045 14.757795 7.848953 14.75 7.84375 C 14.22367 7.4924544 13.641475 7.2250148 13 7.09375 L 13 5 L 11 5 z M 12 9 C 13.656854 9 15 10.343146 15 12 C 15 13.656854 13.656854 15 12 15 C 10.343146 15 9 13.656854 9 12 C 9 10.343146 10.343146 9 12 9 z "
       style="opacity:0.15;fill:#000000;fill-opacity:1;stroke:#000000;stroke-opacity:1;stroke-linejoin:round" />
    <path
       style="opacity:1;fill:#ffffff;fill-opacity:1;stroke:none"
       d="M 11 5 L 11 7.09375 C 10.358525 7.2250148 9.7763299 7.4924544 9.25 7.84375 L 9.21875 7.84375 L 7.75 6.34375 L 6.34375 7.75 L 7.84375 9.21875 L 7.84375 9.25 C 7.4924544 9.7763299 7.2250148 10.358525 7.09375 11 L 5 11 L 5 13 L 7.09375 13 C 7.2250148 13.641475 7.4924544 14.22367 7.84375 14.75 C 7.848953 14.757795 7.8385045 14.773486 7.84375 14.78125 L 6.34375 16.25 L 7.75 17.65625 L 9.21875 16.15625 L 9.25 16.15625 C 9.7763299 16.507546 10.358525 16.774985 11 16.90625 L 11 19 L 13 19 L 13 16.90625 C 13.641475 16.774985 14.22367 16.507546 14.75 16.15625 L 14.78125 16.15625 L 16.25 17.65625 L 17.65625 16.25 L 16.15625 14.78125 C 16.161496 14.773486 16.151047 14.757795 16.15625 14.75 C 16.507546 14.22367 16.774985 13.641475 16.90625 13 L 19 13 L 19 11 L 16.90625 11 C 16.774985 10.358525 16.507546 9.7763299 16.15625 9.25 C 16.151047 9.2422047 16.161496 9.2265144 16.15625 9.21875 L 17.65625 7.75 L 16.25 6.34375 L 14.78125 7.84375 C 14.773486 7.8385045 14.757795 7.848953 14.75 7.84375 C 14.22367 7.4924544 13.641475 7.2250148 13 7.09375 L 13 5 L 11 5 z M 12 9 C 13.656854 9 15 10.343146 15 12 C 15 13.656854 13.656854 15 12 15 C 10.343146 15 9 13.656854 9 12 C 9 10.343146 10.343146 9 12 9 z "
       transform="translate(0,1028.3622)"
       id="rect3019" />
  </g>
</svg>
