<?xml version="1.0" encoding="UTF-8" standalone="no"?>
<!-- Created with Inkscape (http://www.inkscape.org/) -->

<svg
   xmlns:dc="http://purl.org/dc/elements/1.1/"
   xmlns:cc="http://creativecommons.org/ns#"
   xmlns:rdf="http://www.w3.org/1999/02/22-rdf-syntax-ns#"
   xmlns:svg="http://www.w3.org/2000/svg"
   xmlns="http://www.w3.org/2000/svg"
   xmlns:xlink="http://www.w3.org/1999/xlink"
   xmlns:sodipodi="http://sodipodi.sourceforge.net/DTD/sodipodi-0.dtd"
   xmlns:inkscape="http://www.inkscape.org/namespaces/inkscape"
   width="24"
   height="24"
   id="svg3147"
   version="1.1"
   inkscape:version="0.48.4 r9939"
   sodipodi:docname="template24-22.svg">
  <defs
     id="defs3149">
    <linearGradient
       id="linearGradient3779">
      <stop
         style="stop-color:#c8c8c8;stop-opacity:1;"
         offset="0"
         id="stop3781" />
      <stop
         style="stop-color:#969696;stop-opacity:1;"
         offset="1"
         id="stop3783" />
    </linearGradient>
    <linearGradient
       id="linearGradient3771">
      <stop
         style="stop-color:#e6e6e6;stop-opacity:1;"
         offset="0"
         id="stop3773" />
      <stop
         style="stop-color:#f5f5f5;stop-opacity:1;"
         offset="1"
         id="stop3775" />
    </linearGradient>
    <linearGradient
       id="linearGradient4536">
      <stop
         style="stop-color:#ffffff;stop-opacity:1;"
         offset="0"
         id="stop4538" />
      <stop
         id="stop4546"
         offset="0.08220192"
         style="stop-color:#ffffff;stop-opacity:0.15686275;" />
      <stop
         id="stop4544"
         offset="0.936414"
         style="stop-color:#ffffff;stop-opacity:0.23529412;" />
      <stop
         style="stop-color:#ffffff;stop-opacity:0.39215687;"
         offset="1"
         id="stop4540" />
    </linearGradient>
    <radialGradient
       inkscape:collect="always"
       xlink:href="#linearGradient3688-166-749"
       id="radialGradient3132"
       gradientUnits="userSpaceOnUse"
       gradientTransform="matrix(2.003784,0,0,1.4,27.98813,-17.4)"
       cx="4.9929786"
       cy="43.5"
       fx="4.9929786"
       fy="43.5"
       r="2.5" />
    <linearGradient
       id="linearGradient3688-166-749">
      <stop
         id="stop2883"
         style="stop-color:#181818;stop-opacity:1"
         offset="0" />
      <stop
         id="stop2885"
         style="stop-color:#181818;stop-opacity:0"
         offset="1" />
    </linearGradient>
    <radialGradient
       inkscape:collect="always"
       xlink:href="#linearGradient3688-464-309"
       id="radialGradient3134"
       gradientUnits="userSpaceOnUse"
       gradientTransform="matrix(2.003784,0,0,1.4,-20.01187,-104.4)"
       cx="4.9929786"
       cy="43.5"
       fx="4.9929786"
       fy="43.5"
       r="2.5" />
    <linearGradient
       id="linearGradient3688-464-309">
      <stop
         id="stop2889"
         style="stop-color:#181818;stop-opacity:1"
         offset="0" />
      <stop
         id="stop2891"
         style="stop-color:#181818;stop-opacity:0"
         offset="1" />
    </linearGradient>
    <linearGradient
       inkscape:collect="always"
       xlink:href="#linearGradient3702-501-757"
       id="linearGradient3136"
       gradientUnits="userSpaceOnUse"
       x1="25.058096"
       y1="47.027729"
       x2="25.058096"
       y2="39.999443" />
    <linearGradient
       id="linearGradient3702-501-757">
      <stop
         id="stop2895"
         style="stop-color:#181818;stop-opacity:0"
         offset="0" />
      <stop
         id="stop2897"
         style="stop-color:#181818;stop-opacity:1"
         offset="0.5" />
      <stop
         id="stop2899"
         style="stop-color:#181818;stop-opacity:0"
         offset="1" />
    </linearGradient>
    <linearGradient
       inkscape:collect="always"
       xlink:href="#linearGradient4536"
       id="linearGradient4542"
       x1="16.243242"
       y1="1010.3351"
       x2="16.243242"
       y2="1026.3346"
       gradientUnits="userSpaceOnUse"
       gradientTransform="translate(-2,21.000017)" />
    <linearGradient
       inkscape:collect="always"
       xlink:href="#linearGradient3771"
       id="linearGradient3777"
       x1="11.945946"
       y1="1030.4883"
       x2="11.945946"
       y2="1050.0215"
       gradientUnits="userSpaceOnUse" />
    <linearGradient
       inkscape:collect="always"
       xlink:href="#linearGradient3779"
       id="linearGradient3785"
       x1="6.7567568"
       y1="1030.4883"
       x2="6.7567568"
       y2="1050.0201"
       gradientUnits="userSpaceOnUse" />
  </defs>
  <sodipodi:namedview
     id="base"
     pagecolor="#ffffff"
     bordercolor="#666666"
     borderopacity="1.0"
     inkscape:pageopacity="0.0"
     inkscape:pageshadow="2"
     inkscape:zoom="9.8111066"
     inkscape:cx="8.6707571"
     inkscape:cy="11.856347"
     inkscape:document-units="px"
     inkscape:current-layer="layer1"
     showgrid="false"
     inkscape:window-width="1280"
     inkscape:window-height="750"
     inkscape:window-x="0"
     inkscape:window-y="26"
     inkscape:window-maximized="1" />
  <metadata
     id="metadata3152">
    <rdf:RDF>
      <cc:Work
         rdf:about="">
        <dc:format>image/svg+xml</dc:format>
        <dc:type
           rdf:resource="http://purl.org/dc/dcmitype/StillImage" />
        <dc:title></dc:title>
      </cc:Work>
    </rdf:RDF>
  </metadata>
  <g
     inkscape:label="Livello 1"
     inkscape:groupmode="layer"
     id="layer1"
     transform="translate(0,-1028.3622)">
    <rect
       style="fill:url(#linearGradient3777);fill-opacity:1;stroke:url(#linearGradient3785);stroke-opacity:1"
       id="rect3163"
       width="19"
       height="19"
       x="2.5"
       y="1030.8622"
       rx="1.5"
       ry="1.5" />
    <path
       style="fill:#b4b4b4;fill-opacity:1;stroke:none"
       d="M 3 18 L 3 20 C 3 20.554 3.446 21 4 21 L 20 21 C 20.554 21 21 20.554 21 20 L 21 18 C 21 18.554 20.554 19 20 19 L 4 19 C 3.446 19 3 18.554 3 18 z "
       transform="translate(0,1028.3622)"
       id="rect3787" />
    <rect
       style="opacity:0.50000005999999997;fill:none;stroke:url(#linearGradient4542);stroke-opacity:1"
       id="rect4534"
       width="17"
       height="15"
       x="3.5"
       y="1031.8622"
       rx="0.5"
       ry="0.5" />
    <g
       id="g3799"
       style="font-size:12.80484294999999939px;font-style:normal;font-variant:normal;font-weight:normal;font-stretch:normal;line-height:125%;letter-spacing:0px;word-spacing:0px;fill:#ffffff;fill-opacity:1;stroke:none;font-family:Droid Sans;-inkscape-font-specification:Sans"
       transform="matrix(1.0278888,0,0,0.9728679,0,-0.5007027)">
      <path
         style="fill:#ffffff;fill-opacity:1"
         inkscape:connector-curvature="0"
         id="path3801"
         d="m 16.538754,1068.8077 c -10e-6,0.2584 -0.02085,0.5189 -0.06252,0.7815 -0.03752,0.2585 -0.09588,0.5065 -0.175066,0.7441 -0.07504,0.2334 -0.172992,0.4522 -0.293862,0.6565 -0.11672,0.2 -0.254272,0.3751 -0.412656,0.5252 -0.158402,0.15 -0.339721,0.2688 -0.543955,0.3564 -0.200085,0.083 -0.421001,0.125 -0.662751,0.125 -0.187579,0 -0.358477,-0.031 -0.512694,-0.094 -0.150064,-0.063 -0.27928,-0.1459 -0.387647,-0.2501 -0.108381,-0.1042 -0.197998,-0.223 -0.268851,-0.3564 -0.0667,-0.1375 -0.11255,-0.2792 -0.137552,-0.4251 l -0.02501,0 c -0.07503,0.1542 -0.16882,0.3001 -0.281356,0.4376 -0.112549,0.1376 -0.243849,0.2585 -0.393899,0.3627 -0.145895,0.1 -0.312624,0.1792 -0.500189,0.2376 -0.183409,0.058 -0.385568,0.088 -0.60648,0.088 -0.320959,0 -0.606484,-0.058 -0.856574,-0.1751 -0.24593,-0.1167 -0.4543419,-0.2792 -0.6252361,-0.4876 -0.1709014,-0.2126 -0.3022009,-0.4669 -0.3938989,-0.7628 -0.087536,-0.296 -0.1313028,-0.6232 -0.1312997,-0.9817 -3.1e-6,-0.4209 0.060436,-0.8065 0.1813186,-1.1566 0.1250438,-0.3502 0.302194,-0.6524 0.531451,-0.9066 0.2334171,-0.2543 0.5147741,-0.4523 0.8440691,-0.594 0.329286,-0.1417 0.698175,-0.2126 1.106669,-0.2126 0.187565,0 0.375135,0.01 0.562713,0.025 0.187564,0.017 0.366798,0.04 0.537703,0.069 0.170891,0.029 0.3272,0.063 0.468927,0.1 0.145881,0.033 0.26676,0.067 0.362637,0.1001 l -0.143804,2.601 c -0.0042,0.092 -0.0083,0.1667 -0.0125,0.225 -7e-6,0.054 -7e-6,0.098 0,0.1313 -7e-6,0.033 -7e-6,0.058 0,0.075 -7e-6,0.017 -7e-6,0.031 0,0.044 -7e-6,0.2209 0.02083,0.4023 0.06252,0.544 0.04584,0.1417 0.104198,0.2543 0.175066,0.3376 0.07085,0.083 0.150049,0.1417 0.23759,0.1751 0.09169,0.029 0.185479,0.044 0.281356,0.044 0.191731,0 0.360545,-0.063 0.506442,-0.1875 0.145879,-0.1292 0.266758,-0.3022 0.362637,-0.519 0.100029,-0.2167 0.175057,-0.471 0.225085,-0.7628 0.05001,-0.2917 0.07502,-0.6002 0.07503,-0.9253 -1e-5,-0.5919 -0.08963,-1.1171 -0.268852,-1.5756 -0.179244,-0.4627 -0.427254,-0.8524 -0.744031,-1.1692 -0.316795,-0.3168 -0.694021,-0.5565 -1.131679,-0.719 -0.433504,-0.1667 -0.906599,-0.2501 -1.419286,-0.2501 -0.704439,0 -1.325506,0.1167 -1.863205,0.3501 -0.5377069,0.2293 -0.9899608,0.5523 -1.3567631,0.9691 -0.3626395,0.4127 -0.6377433,0.9045 -0.8253122,1.4756 -0.1875726,0.5669 -0.281358,1.1879 -0.2813564,1.8632 -1.6e-6,0.6294 0.081279,1.1879 0.2438422,1.6756 0.1667277,0.4877 0.4084856,0.8983 0.7252743,1.2317 0.3209519,0.3335 0.7169346,0.5857 1.1879493,0.7566 0.4751759,0.1709 1.0191309,0.2563 1.6318669,0.2563 0.254258,0 0.504352,-0.015 0.750284,-0.044 0.250088,-0.029 0.489762,-0.069 0.719022,-0.1188 0.233415,-0.05 0.454331,-0.1063 0.662751,-0.1688 0.208404,-0.067 0.402227,-0.1355 0.58147,-0.2064 l 0,0.8816 c -0.358477,0.1584 -0.762796,0.2834 -1.212959,0.3752 -0.450177,0.092 -0.946197,0.1375 -1.488063,0.1375 -0.74612,0 -1.413038,-0.1063 -2.0007566,-0.3189 -0.5835569,-0.2125 -1.0795774,-0.521 -1.4880628,-0.9253 -0.4043212,-0.4085 -0.7127708,-0.9045 -0.92535,-1.4881 -0.2125812,-0.5877 -0.3188713,-1.2546 -0.3188706,-2.0007 -7e-7,-0.7837 0.1229623,-1.5131 0.3688895,-2.1884 0.245925,-0.6794 0.5960571,-1.2671 1.0503973,-1.7631 0.4585042,-0.496 1.0107958,-0.8858 1.6568766,-1.1692 0.6502416,-0.2835 1.3775996,-0.4252 2.1820756,-0.4252 0.650239,0 1.248381,0.1063 1.794428,0.3189 0.546032,0.2084 1.017043,0.5106 1.413035,0.9066 0.400142,0.3918 0.710675,0.8711 0.931602,1.438 0.220907,0.5627 0.331365,1.1984 0.331375,1.907 m -6.271121,0.8066 c -4e-6,0.5543 0.104201,0.9566 0.312618,1.2067 0.212576,0.2459 0.496016,0.3688 0.850322,0.3688 0.229247,0 0.425155,-0.046 0.587722,-0.1375 0.162555,-0.096 0.295939,-0.2293 0.400151,-0.4002 0.1042,-0.175 0.183396,-0.3813 0.23759,-0.6189 0.05418,-0.2418 0.08961,-0.5065 0.10629,-0.7941 l 0.08753,-1.5818 c -0.116717,-0.033 -0.256353,-0.063 -0.418908,-0.088 -0.1584,-0.029 -0.325129,-0.044 -0.500189,-0.044 -0.308456,0 -0.568971,0.06 -0.781546,0.1813 -0.208417,0.1209 -0.379315,0.2793 -0.512694,0.4752 -0.12922,0.1959 -0.223005,0.4189 -0.281356,0.669 -0.05836,0.2501 -0.08754,0.5043 -0.08753,0.7628" />
    </g>
    <g
       transform="matrix(1.0278888,0,0,0.9728679,0,-1.0007027)"
       style="font-size:12.80484294999999939px;font-style:normal;font-variant:normal;font-weight:normal;font-stretch:normal;line-height:125%;letter-spacing:0px;word-spacing:0px;fill:#c8c8c8;fill-opacity:1;stroke:none;font-family:Droid Sans;-inkscape-font-specification:Sans"
       id="text3792">
      <path
         d="m 16.538754,1068.8077 c -10e-6,0.2584 -0.02085,0.5189 -0.06252,0.7815 -0.03752,0.2585 -0.09588,0.5065 -0.175066,0.7441 -0.07504,0.2334 -0.172992,0.4522 -0.293862,0.6565 -0.11672,0.2 -0.254272,0.3751 -0.412656,0.5252 -0.158402,0.15 -0.339721,0.2688 -0.543955,0.3564 -0.200085,0.083 -0.421001,0.125 -0.662751,0.125 -0.187579,0 -0.358477,-0.031 -0.512694,-0.094 -0.150064,-0.063 -0.27928,-0.1459 -0.387647,-0.2501 -0.108381,-0.1042 -0.197998,-0.223 -0.268851,-0.3564 -0.0667,-0.1375 -0.11255,-0.2792 -0.137552,-0.4251 l -0.02501,0 c -0.07503,0.1542 -0.16882,0.3001 -0.281356,0.4376 -0.112549,0.1376 -0.243849,0.2585 -0.393899,0.3627 -0.145895,0.1 -0.312624,0.1792 -0.500189,0.2376 -0.183409,0.058 -0.385568,0.088 -0.60648,0.088 -0.320959,0 -0.606484,-0.058 -0.856574,-0.1751 -0.24593,-0.1167 -0.4543419,-0.2792 -0.6252361,-0.4876 -0.1709014,-0.2126 -0.3022009,-0.4669 -0.3938989,-0.7628 -0.087536,-0.296 -0.1313028,-0.6232 -0.1312997,-0.9817 -3.1e-6,-0.4209 0.060436,-0.8065 0.1813186,-1.1566 0.1250438,-0.3502 0.302194,-0.6524 0.531451,-0.9066 0.2334171,-0.2543 0.5147741,-0.4523 0.8440691,-0.594 0.329286,-0.1417 0.698175,-0.2126 1.106669,-0.2126 0.187565,0 0.375135,0.01 0.562713,0.025 0.187564,0.017 0.366798,0.04 0.537703,0.069 0.170891,0.029 0.3272,0.063 0.468927,0.1 0.145881,0.033 0.26676,0.067 0.362637,0.1001 l -0.143804,2.601 c -0.0042,0.092 -0.0083,0.1667 -0.0125,0.225 -7e-6,0.054 -7e-6,0.098 0,0.1313 -7e-6,0.033 -7e-6,0.058 0,0.075 -7e-6,0.017 -7e-6,0.031 0,0.044 -7e-6,0.2209 0.02083,0.4023 0.06252,0.544 0.04584,0.1417 0.104198,0.2543 0.175066,0.3376 0.07085,0.083 0.150049,0.1417 0.23759,0.1751 0.09169,0.029 0.185479,0.044 0.281356,0.044 0.191731,0 0.360545,-0.063 0.506442,-0.1875 0.145879,-0.1292 0.266758,-0.3022 0.362637,-0.519 0.100029,-0.2167 0.175057,-0.471 0.225085,-0.7628 0.05001,-0.2917 0.07502,-0.6002 0.07503,-0.9253 -1e-5,-0.5919 -0.08963,-1.1171 -0.268852,-1.5756 -0.179244,-0.4627 -0.427254,-0.8524 -0.744031,-1.1692 -0.316795,-0.3168 -0.694021,-0.5565 -1.131679,-0.719 -0.433504,-0.1667 -0.906599,-0.2501 -1.419286,-0.2501 -0.704439,0 -1.325506,0.1167 -1.863205,0.3501 -0.5377069,0.2293 -0.9899608,0.5523 -1.3567631,0.9691 -0.3626395,0.4127 -0.6377433,0.9045 -0.8253122,1.4756 -0.1875726,0.5669 -0.281358,1.1879 -0.2813564,1.8632 -1.6e-6,0.6294 0.081279,1.1879 0.2438422,1.6756 0.1667277,0.4877 0.4084856,0.8983 0.7252743,1.2317 0.3209519,0.3335 0.7169346,0.5857 1.1879493,0.7566 0.4751759,0.1709 1.0191309,0.2563 1.6318669,0.2563 0.254258,0 0.504352,-0.015 0.750284,-0.044 0.250088,-0.029 0.489762,-0.069 0.719022,-0.1188 0.233415,-0.05 0.454331,-0.1063 0.662751,-0.1688 0.208404,-0.067 0.402227,-0.1355 0.58147,-0.2064 l 0,0.8816 c -0.358477,0.1584 -0.762796,0.2834 -1.212959,0.3752 -0.450177,0.092 -0.946197,0.1375 -1.488063,0.1375 -0.74612,0 -1.413038,-0.1063 -2.0007566,-0.3189 -0.5835569,-0.2125 -1.0795774,-0.521 -1.4880628,-0.9253 -0.4043212,-0.4085 -0.7127708,-0.9045 -0.92535,-1.4881 -0.2125812,-0.5877 -0.3188713,-1.2546 -0.3188706,-2.0007 -7e-7,-0.7837 0.1229623,-1.5131 0.3688895,-2.1884 0.245925,-0.6794 0.5960571,-1.2671 1.0503973,-1.7631 0.4585042,-0.496 1.0107958,-0.8858 1.6568766,-1.1692 0.6502416,-0.2835 1.3775996,-0.4252 2.1820756,-0.4252 0.650239,0 1.248381,0.1063 1.794428,0.3189 0.546032,0.2084 1.017043,0.5106 1.413035,0.9066 0.400142,0.3918 0.710675,0.8711 0.931602,1.438 0.220907,0.5627 0.331365,1.1984 0.331375,1.907 m -6.271121,0.8066 c -4e-6,0.5543 0.104201,0.9566 0.312618,1.2067 0.212576,0.2459 0.496016,0.3688 0.850322,0.3688 0.229247,0 0.425155,-0.046 0.587722,-0.1375 0.162555,-0.096 0.295939,-0.2293 0.400151,-0.4002 0.1042,-0.175 0.183396,-0.3813 0.23759,-0.6189 0.05418,-0.2418 0.08961,-0.5065 0.10629,-0.7941 l 0.08753,-1.5818 c -0.116717,-0.033 -0.256353,-0.063 -0.418908,-0.088 -0.1584,-0.029 -0.325129,-0.044 -0.500189,-0.044 -0.308456,0 -0.568971,0.06 -0.781546,0.1813 -0.208417,0.1209 -0.379315,0.2793 -0.512694,0.4752 -0.12922,0.1959 -0.223005,0.4189 -0.281356,0.669 -0.05836,0.2501 -0.08754,0.5043 -0.08753,0.7628"
         id="path3797"
         inkscape:connector-curvature="0"
         style="fill:#c8c8c8;fill-opacity:1" />
    </g>
    <path
       style="font-size:12.80484294999999939px;font-style:normal;font-variant:normal;font-weight:normal;font-stretch:normal;line-height:125%;letter-spacing:0px;word-spacing:0px;fill:#000000;fill-opacity:1;stroke:none;font-family:Droid Sans;-inkscape-font-specification:Sans;opacity:0.2"
       d="M 12.40625 6 C 11.579338 6 10.824626 6.13035 10.15625 6.40625 C 9.4921506 6.68195 8.9400413 7.08 8.46875 7.5625 C 8.0017388 8.0451 7.6277836 8.62025 7.375 9.28125 C 7.1222142 9.93825 6.9999992 10.64385 7 11.40625 C 6.9999999 11.494508 7.0280199 11.570271 7.03125 11.65625 C 7.0562911 10.989312 7.1503984 10.364998 7.375 9.78125 C 7.6277836 9.12025 8.0017388 8.5451 8.46875 8.0625 C 8.9400413 7.58 9.4921506 7.18195 10.15625 6.90625 C 10.824626 6.63035 11.579338 6.5 12.40625 6.5 C 13.074623 6.5 13.688725 6.6057 14.25 6.8125 C 14.811261 7.0153 15.280464 7.3023 15.6875 7.6875 C 16.098802 8.0687 16.429162 8.54225 16.65625 9.09375 C 16.857568 9.5791624 16.945912 10.121805 16.96875 10.71875 C 16.974331 10.627497 16.999996 10.528228 17 10.4375 C 16.99999 9.7481 16.883318 9.14125 16.65625 8.59375 C 16.429162 8.04225 16.098802 7.5687 15.6875 7.1875 C 15.280464 6.8023 14.811261 6.5153 14.25 6.3125 C 13.688725 6.1057 13.074623 6 12.40625 6 z M 12.25 8.40625 C 11.830113 8.40625 11.463469 8.4871 11.125 8.625 C 10.786521 8.7628 10.489927 8.9401 10.25 9.1875 C 10.014349 9.4348 9.8472812 9.75305 9.71875 10.09375 C 9.5944957 10.43435 9.5312468 10.80925 9.53125 11.21875 C 9.5312493 11.294753 9.5269784 11.364391 9.53125 11.4375 C 9.5536636 11.137135 9.6238431 10.853904 9.71875 10.59375 C 9.8472812 10.25305 10.014349 9.9348 10.25 9.6875 C 10.489927 9.4401 10.786521 9.2628 11.125 9.125 C 11.463469 8.9871 11.830113 8.90625 12.25 8.90625 C 12.442796 8.90625 12.650941 8.9235 12.84375 8.9375 C 13.036545 8.9545 13.230579 8.972 13.40625 9 C 13.581907 9.028 13.72932 9.05775 13.875 9.09375 C 14.013188 9.1232402 14.124213 9.1578766 14.21875 9.1875 L 14.25 8.6875 C 14.151449 8.6555 14.024949 8.62575 13.875 8.59375 C 13.72932 8.55775 13.581907 8.528 13.40625 8.5 C 13.230579 8.472 13.036545 8.4545 12.84375 8.4375 C 12.650941 8.4235 12.442796 8.40625 12.25 8.40625 z M 13.1875 9.8125 L 13.125 10.875 C 13.107856 11.1548 13.05569 11.3898 13 11.625 C 12.944294 11.8562 12.857106 12.0798 12.75 12.25 C 12.642881 12.4163 12.510838 12.532 12.34375 12.625 C 12.176649 12.7137 11.985641 12.75 11.75 12.75 C 11.385813 12.75 11.093504 12.64545 10.875 12.40625 C 10.707394 12.215823 10.630224 11.902783 10.59375 11.53125 C 10.589631 11.59659 10.562497 11.652836 10.5625 11.71875 C 10.562496 12.25805 10.66077 12.66285 10.875 12.90625 C 11.093504 13.14545 11.385813 13.25 11.75 13.25 C 11.985641 13.25 12.176649 13.2137 12.34375 13.125 C 12.510838 13.032 12.642881 12.9163 12.75 12.75 C 12.857106 12.5798 12.944294 12.3562 13 12.125 C 13.05569 11.8898 13.107856 11.6548 13.125 11.375 L 13.21875 9.8125 C 13.210352 9.81026 13.196129 9.8147103 13.1875 9.8125 z M 16.03125 10.6875 C 16.020951 10.909716 16.037166 11.138541 16 11.34375 C 15.948577 11.62765 15.852818 11.8517 15.75 12.0625 C 15.651447 12.2734 15.524947 12.46805 15.375 12.59375 C 15.225034 12.71515 15.072078 12.75 14.875 12.75 C 14.776449 12.75 14.65675 12.74675 14.5625 12.71875 C 14.472518 12.68625 14.41658 12.6435 14.34375 12.5625 C 14.270906 12.4814 14.20337 12.35665 14.15625 12.21875 C 14.115886 12.088945 14.096085 11.916983 14.09375 11.71875 C 14.08945 11.80875 14.0981 11.8808 14.09375 11.9375 L 14.09375 12.0625 L 14.09375 12.15625 L 14.09375 12.1875 C 14.093743 12.4024 14.1134 12.58095 14.15625 12.71875 C 14.20337 12.85665 14.270906 12.9814 14.34375 13.0625 C 14.41658 13.1435 14.472518 13.18625 14.5625 13.21875 C 14.65675 13.24675 14.776449 13.25 14.875 13.25 C 15.072078 13.25 15.225034 13.21515 15.375 13.09375 C 15.524947 12.96805 15.651447 12.7734 15.75 12.5625 C 15.852818 12.3517 15.948577 12.12765 16 11.84375 C 16.0514 11.55995 16.06249 11.2538 16.0625 10.9375 C 16.062498 10.84859 16.035644 10.77332 16.03125 10.6875 z M 8 11.59375 C 7.996546 11.679795 7.9687498 11.755811 7.96875 11.84375 C 7.9687484 12.45605 8.0516533 12.99435 8.21875 13.46875 C 8.3901275 13.94325 8.6431265 14.3632 8.96875 14.6875 C 9.2986529 15.012 9.7033496 15.23995 10.1875 15.40625 C 10.675928 15.57255 11.213926 15.65625 11.84375 15.65625 C 12.105099 15.65625 12.372209 15.653 12.625 15.625 C 12.882062 15.597 13.139346 15.5485 13.375 15.5 C 13.614925 15.451 13.817017 15.40455 14.03125 15.34375 C 14.245466 15.27875 14.472008 15.22525 14.65625 15.15625 L 14.65625 14.65625 C 14.472008 14.72525 14.245466 14.77875 14.03125 14.84375 C 13.817017 14.90455 13.614925 14.951 13.375 15 C 13.139346 15.0485 12.882062 15.097 12.625 15.125 C 12.372209 15.153 12.105099 15.15625 11.84375 15.15625 C 11.213926 15.15625 10.675928 15.07255 10.1875 14.90625 C 9.7033496 14.73995 9.2986529 14.512 8.96875 14.1875 C 8.6431265 13.8632 8.3901275 13.44325 8.21875 12.96875 C 8.0756151 12.562379 8.0205245 12.101317 8 11.59375 z "
       transform="translate(0,1028.3622)"
       id="path3809" />
  </g>
</svg>
