<?xml version="1.0" encoding="UTF-8" standalone="no"?>
<!-- Created with Inkscape (http://www.inkscape.org/) -->

<svg
   xmlns:dc="http://purl.org/dc/elements/1.1/"
   xmlns:cc="http://creativecommons.org/ns#"
   xmlns:rdf="http://www.w3.org/1999/02/22-rdf-syntax-ns#"
   xmlns:svg="http://www.w3.org/2000/svg"
   xmlns="http://www.w3.org/2000/svg"
   xmlns:xlink="http://www.w3.org/1999/xlink"
   xmlns:sodipodi="http://sodipodi.sourceforge.net/DTD/sodipodi-0.dtd"
   xmlns:inkscape="http://www.inkscape.org/namespaces/inkscape"
   width="24"
   height="24"
   id="svg3147"
   version="1.1"
   inkscape:version="0.48.3.1 r9886"
   sodipodi:docname="user-desktop.svg">
  <defs
     id="defs3149">
    <linearGradient
       id="linearGradient3779">
      <stop
         style="stop-color:#002d4b;stop-opacity:1;"
         offset="0"
         id="stop3781" />
      <stop
         style="stop-color:#326eaa;stop-opacity:1;"
         offset="1"
         id="stop3783" />
    </linearGradient>
    <linearGradient
       id="linearGradient3771">
      <stop
         style="stop-color:#8cb6f0;stop-opacity:1;"
         offset="0"
         id="stop3773" />
      <stop
         style="stop-color:#1e5a82;stop-opacity:1;"
         offset="1"
         id="stop3775" />
    </linearGradient>
    <linearGradient
       id="linearGradient4536">
      <stop
         style="stop-color:#ffffff;stop-opacity:1;"
         offset="0"
         id="stop4538" />
      <stop
         id="stop4546"
         offset="0.06216056"
         style="stop-color:#ffffff;stop-opacity:0.15686275;" />
      <stop
         id="stop4544"
         offset="0.936414"
         style="stop-color:#ffffff;stop-opacity:0.23529412;" />
      <stop
         style="stop-color:#ffffff;stop-opacity:0.39215687;"
         offset="1"
         id="stop4540" />
    </linearGradient>
    <radialGradient
       inkscape:collect="always"
       xlink:href="#linearGradient3688-166-749"
       id="radialGradient3132"
       gradientUnits="userSpaceOnUse"
       gradientTransform="matrix(2.003784,0,0,1.4,27.98813,-17.4)"
       cx="4.9929786"
       cy="43.5"
       fx="4.9929786"
       fy="43.5"
       r="2.5" />
    <linearGradient
       id="linearGradient3688-166-749">
      <stop
         id="stop2883"
         style="stop-color:#181818;stop-opacity:1"
         offset="0" />
      <stop
         id="stop2885"
         style="stop-color:#181818;stop-opacity:0"
         offset="1" />
    </linearGradient>
    <radialGradient
       inkscape:collect="always"
       xlink:href="#linearGradient3688-464-309"
       id="radialGradient3134"
       gradientUnits="userSpaceOnUse"
       gradientTransform="matrix(2.003784,0,0,1.4,-20.01187,-104.4)"
       cx="4.9929786"
       cy="43.5"
       fx="4.9929786"
       fy="43.5"
       r="2.5" />
    <linearGradient
       id="linearGradient3688-464-309">
      <stop
         id="stop2889"
         style="stop-color:#181818;stop-opacity:1"
         offset="0" />
      <stop
         id="stop2891"
         style="stop-color:#181818;stop-opacity:0"
         offset="1" />
    </linearGradient>
    <linearGradient
       inkscape:collect="always"
       xlink:href="#linearGradient3702-501-757"
       id="linearGradient3136"
       gradientUnits="userSpaceOnUse"
       x1="25.058096"
       y1="47.027729"
       x2="25.058096"
       y2="39.999443" />
    <linearGradient
       id="linearGradient3702-501-757">
      <stop
         id="stop2895"
         style="stop-color:#181818;stop-opacity:0"
         offset="0" />
      <stop
         id="stop2897"
         style="stop-color:#181818;stop-opacity:1"
         offset="0.5" />
      <stop
         id="stop2899"
         style="stop-color:#181818;stop-opacity:0"
         offset="1" />
    </linearGradient>
    <linearGradient
       inkscape:collect="always"
       xlink:href="#linearGradient4536"
       id="linearGradient4542"
       x1="23.522522"
       y1="1010.4793"
       x2="23.522522"
       y2="1028.3296"
       gradientUnits="userSpaceOnUse"
       gradientTransform="translate(-2,21.000017)" />
    <radialGradient
       inkscape:collect="always"
       xlink:href="#linearGradient3771"
       id="radialGradient3777"
       cx="12.288268"
       cy="1034.3081"
       fx="12.288268"
       fy="1034.3081"
       r="10"
       gradientUnits="userSpaceOnUse"
       gradientTransform="matrix(-4.80271e-6,2.035804,-1.3676435,-3.2264378e-6,1426.8532,1009.2949)" />
    <linearGradient
       inkscape:collect="always"
       xlink:href="#linearGradient3779"
       id="linearGradient3785"
       x1="7.0090089"
       y1="1050.1696"
       x2="7.0090089"
       y2="1030.5604"
       gradientUnits="userSpaceOnUse" />
    <linearGradient
       gradientTransform="matrix(1.25,0,0,1.25,2,1029.8622)"
       y2="13.992195"
       x2="7.9207206"
       y1="0.082882881"
       x1="7.9207206"
       gradientUnits="userSpaceOnUse"
       id="linearGradient3018"
       xlink:href="#linearGradient3755"
       inkscape:collect="always" />
    <linearGradient
       id="linearGradient3755">
      <stop
         style="stop-color:#b06121;stop-opacity:1;"
         offset="0"
         id="stop3757" />
      <stop
         style="stop-color:#973404;stop-opacity:1;"
         offset="1"
         id="stop3759" />
    </linearGradient>
  </defs>
  <sodipodi:namedview
     id="base"
     pagecolor="#ffffff"
     bordercolor="#666666"
     borderopacity="1.0"
     inkscape:pageopacity="0.0"
     inkscape:pageshadow="2"
     inkscape:zoom="9.8111066"
     inkscape:cx="4.780035"
     inkscape:cy="7.0285081"
     inkscape:document-units="px"
     inkscape:current-layer="layer1"
     showgrid="false"
     inkscape:window-width="1280"
     inkscape:window-height="751"
     inkscape:window-x="0"
     inkscape:window-y="24"
     inkscape:window-maximized="1" />
  <metadata
     id="metadata3152">
    <rdf:RDF>
      <cc:Work
         rdf:about="">
        <dc:format>image/svg+xml</dc:format>
        <dc:type
           rdf:resource="http://purl.org/dc/dcmitype/StillImage" />
        <dc:title></dc:title>
      </cc:Work>
    </rdf:RDF>
  </metadata>
  <g
     inkscape:label="Livello 1"
     inkscape:groupmode="layer"
     id="layer1"
     transform="translate(0,-1028.3622)">
    <rect
       style="fill:url(#radialGradient3777);fill-opacity:1;stroke:url(#linearGradient3785);stroke-opacity:1"
       id="rect3163"
       width="19"
       height="19"
       x="2.5"
       y="1030.8622"
       rx="1.5"
       ry="1.5" />
    <rect
       style="opacity:0.3;fill:none;stroke:url(#linearGradient4542);stroke-opacity:1"
       id="rect4534"
       width="17"
       height="17"
       x="3.5"
       y="1031.8622"
       rx="0.5"
       ry="0.5" />
    <path
       style="opacity:0.5;fill:#000000;fill-opacity:1;stroke:none"
       d="m 4,1030.3622 16,0 c 1.108,0 2,0.892 2,2 l 0,2 -20,0 0,-2 c 0,-1.108 0.892,-2 2,-2 z"
       id="rect3787"
       inkscape:connector-curvature="0"
       sodipodi:nodetypes="sssccss" />
    <path
       style="opacity:0.5;fill:#000000;fill-opacity:1;stroke:none"
       d="m 6,1046.3624 12,0 c 0.554,0 1,0.446 1,1 l 0,2.9998 -14,0 0,-2.9998 c 0,-0.554 0.446,-1 1,-1 z"
       id="rect3791"
       inkscape:connector-curvature="0"
       sodipodi:nodetypes="sssccss" />
    <path
       id="path3872"
       d="m 7.0000002,1035.3622 0,2.5 c 4.1421428,0 7.4999998,3.3575 7.4999998,7.5 l 2.5,0 c 0,-5.5234 -4.47715,-10 -9.9999998,-10 z m 0,3.75 0,2.5 c 2.0710671,0 3.7499998,1.6787 3.7499998,3.75 l 2.5,0 c 0,-3.4521 -2.798221,-6.25 -6.2499998,-6.25 z m 0,3.75 0,2.5 2.5000001,0 c 0,-1.3809 -1.1192879,-2.5 -2.5000001,-2.5 z"
       style="fill:#000000;fill-opacity:1;stroke:#000000;stroke-opacity:1;stroke-linejoin:round;opacity:0.05;stroke-width:3;stroke-miterlimit:4;stroke-dasharray:none"
       inkscape:connector-curvature="0" />
    <path
       inkscape:connector-curvature="0"
       style="fill:#000000;fill-opacity:1;stroke:#000000;stroke-opacity:1;stroke-linejoin:round;opacity:0.09999995;stroke-width:1.99999997999999990;stroke-miterlimit:4;stroke-dasharray:none"
       d="m 7.0000002,1035.3622 0,2.5 c 4.1421428,0 7.4999998,3.3575 7.4999998,7.5 l 2.5,0 c 0,-5.5234 -4.47715,-10 -9.9999998,-10 z m 0,3.75 0,2.5 c 2.0710671,0 3.7499998,1.6787 3.7499998,3.75 l 2.5,0 c 0,-3.4521 -2.798221,-6.25 -6.2499998,-6.25 z m 0,3.75 0,2.5 2.5000001,0 c 0,-1.3809 -1.1192879,-2.5 -2.5000001,-2.5 z"
       id="path3870" />
    <path
       id="path3868"
       d="m 7.0000002,1035.3622 0,2.5 c 4.1421428,0 7.4999998,3.3575 7.4999998,7.5 l 2.5,0 c 0,-5.5234 -4.47715,-10 -9.9999998,-10 z m 0,3.75 0,2.5 c 2.0710671,0 3.7499998,1.6787 3.7499998,3.75 l 2.5,0 c 0,-3.4521 -2.798221,-6.25 -6.2499998,-6.25 z m 0,3.75 0,2.5 2.5000001,0 c 0,-1.3809 -1.1192879,-2.5 -2.5000001,-2.5 z"
       style="fill:#000000;fill-opacity:1;stroke:#000000;stroke-opacity:1;stroke-linejoin:round;opacity:0.15"
       inkscape:connector-curvature="0" />
    <path
       inkscape:connector-curvature="0"
       style="fill:#ffffff;fill-opacity:1;stroke:none"
       d="m 7.0000002,1035.3622 0,2.5 c 4.1421428,0 7.4999998,3.3575 7.4999998,7.5 l 2.5,0 c 0,-5.5234 -4.47715,-10 -9.9999998,-10 z m 0,3.75 0,2.5 c 2.0710671,0 3.7499998,1.6787 3.7499998,3.75 l 2.5,0 c 0,-3.4521 -2.798221,-6.25 -6.2499998,-6.25 z m 0,3.75 0,2.5 2.5000001,0 c 0,-1.3809 -1.1192879,-2.5 -2.5000001,-2.5 z"
       id="path3003" />
  </g>
</svg>
