<?xml version="1.0" encoding="UTF-8" standalone="no"?>
<!-- Created with Inkscape (http://www.inkscape.org/) -->

<svg
   xmlns:dc="http://purl.org/dc/elements/1.1/"
   xmlns:cc="http://creativecommons.org/ns#"
   xmlns:rdf="http://www.w3.org/1999/02/22-rdf-syntax-ns#"
   xmlns:svg="http://www.w3.org/2000/svg"
   xmlns="http://www.w3.org/2000/svg"
   xmlns:xlink="http://www.w3.org/1999/xlink"
   xmlns:sodipodi="http://sodipodi.sourceforge.net/DTD/sodipodi-0.dtd"
   xmlns:inkscape="http://www.inkscape.org/namespaces/inkscape"
   width="24"
   height="24"
   id="svg3147"
   version="1.1"
   inkscape:version="0.48.4 r9939"
   sodipodi:docname="template24-22.svg">
  <defs
     id="defs3149">
    <linearGradient
       inkscape:collect="always"
       id="linearGradient3837">
      <stop
         style="stop-color:#ffffb9;stop-opacity:1;"
         offset="0"
         id="stop3839" />
      <stop
         style="stop-color:#ffffb9;stop-opacity:0;"
         offset="1"
         id="stop3841" />
    </linearGradient>
    <linearGradient
       id="linearGradient3794">
      <stop
         style="stop-color:#a01900;stop-opacity:1;"
         offset="0"
         id="stop3796" />
      <stop
         style="stop-color:#771900;stop-opacity:1;"
         offset="1"
         id="stop3798" />
    </linearGradient>
    <linearGradient
       id="linearGradient3786">
      <stop
         style="stop-color:#ed2721;stop-opacity:1;"
         offset="0"
         id="stop3788" />
      <stop
         style="stop-color:#8c0e04;stop-opacity:1;"
         offset="1"
         id="stop3790" />
    </linearGradient>
    <linearGradient
       id="linearGradient4536">
      <stop
         style="stop-color:#ffffff;stop-opacity:1;"
         offset="0"
         id="stop4538" />
      <stop
         id="stop4546"
         offset="0.08220192"
         style="stop-color:#ffffff;stop-opacity:0.15686275;" />
      <stop
         id="stop4544"
         offset="0.936414"
         style="stop-color:#ffffff;stop-opacity:0.23529412;" />
      <stop
         style="stop-color:#ffffff;stop-opacity:0.39215687;"
         offset="1"
         id="stop4540" />
    </linearGradient>
    <radialGradient
       inkscape:collect="always"
       xlink:href="#linearGradient3688-166-749"
       id="radialGradient3132"
       gradientUnits="userSpaceOnUse"
       gradientTransform="matrix(2.003784,0,0,1.4,27.98813,-17.4)"
       cx="4.9929786"
       cy="43.5"
       fx="4.9929786"
       fy="43.5"
       r="2.5" />
    <linearGradient
       id="linearGradient3688-166-749">
      <stop
         id="stop2883"
         style="stop-color:#181818;stop-opacity:1"
         offset="0" />
      <stop
         id="stop2885"
         style="stop-color:#181818;stop-opacity:0"
         offset="1" />
    </linearGradient>
    <radialGradient
       inkscape:collect="always"
       xlink:href="#linearGradient3688-464-309"
       id="radialGradient3134"
       gradientUnits="userSpaceOnUse"
       gradientTransform="matrix(2.003784,0,0,1.4,-20.01187,-104.4)"
       cx="4.9929786"
       cy="43.5"
       fx="4.9929786"
       fy="43.5"
       r="2.5" />
    <linearGradient
       id="linearGradient3688-464-309">
      <stop
         id="stop2889"
         style="stop-color:#181818;stop-opacity:1"
         offset="0" />
      <stop
         id="stop2891"
         style="stop-color:#181818;stop-opacity:0"
         offset="1" />
    </linearGradient>
    <linearGradient
       inkscape:collect="always"
       xlink:href="#linearGradient3702-501-757"
       id="linearGradient3136"
       gradientUnits="userSpaceOnUse"
       x1="25.058096"
       y1="47.027729"
       x2="25.058096"
       y2="39.999443" />
    <linearGradient
       id="linearGradient3702-501-757">
      <stop
         id="stop2895"
         style="stop-color:#181818;stop-opacity:0"
         offset="0" />
      <stop
         id="stop2897"
         style="stop-color:#181818;stop-opacity:1"
         offset="0.5" />
      <stop
         id="stop2899"
         style="stop-color:#181818;stop-opacity:0"
         offset="1" />
    </linearGradient>
    <linearGradient
       inkscape:collect="always"
       xlink:href="#linearGradient4536"
       id="linearGradient4542"
       x1="16.243242"
       y1="1010.3351"
       x2="16.243242"
       y2="1028.3159"
       gradientUnits="userSpaceOnUse"
       gradientTransform="translate(-2,21.000017)" />
    <radialGradient
       inkscape:collect="always"
       xlink:href="#linearGradient3786"
       id="radialGradient3792"
       cx="12.144151"
       cy="1034.5964"
       fx="12.144151"
       fy="1034.5964"
       r="10"
       gradientUnits="userSpaceOnUse"
       gradientTransform="matrix(-1.8071631e-6,1.715339,-1.4901598,-1.5699298e-6,1553.8582,1013.7667)" />
    <linearGradient
       inkscape:collect="always"
       xlink:href="#linearGradient3794"
       id="linearGradient3800"
       x1="5.6756759"
       y1="1030.4163"
       x2="5.6756759"
       y2="1050.2635"
       gradientUnits="userSpaceOnUse" />
    <radialGradient
       inkscape:collect="always"
       xlink:href="#linearGradient3837"
       id="radialGradient3843"
       cx="11.999999"
       cy="12.0055"
       fx="11.999999"
       fy="12.0055"
       r="5.917199"
       gradientTransform="matrix(1,0,0,0.99907913,0,0.01105556)"
       gradientUnits="userSpaceOnUse" />
  </defs>
  <sodipodi:namedview
     id="base"
     pagecolor="#ffffff"
     bordercolor="#666666"
     borderopacity="1.0"
     inkscape:pageopacity="0.0"
     inkscape:pageshadow="2"
     inkscape:zoom="9.8111066"
     inkscape:cx="11.037991"
     inkscape:cy="-0.57951769"
     inkscape:document-units="px"
     inkscape:current-layer="layer1"
     showgrid="false"
     inkscape:window-width="1280"
     inkscape:window-height="748"
     inkscape:window-x="0"
     inkscape:window-y="26"
     inkscape:window-maximized="1" />
  <metadata
     id="metadata3152">
    <rdf:RDF>
      <cc:Work
         rdf:about="">
        <dc:format>image/svg+xml</dc:format>
        <dc:type
           rdf:resource="http://purl.org/dc/dcmitype/StillImage" />
        <dc:title></dc:title>
      </cc:Work>
    </rdf:RDF>
  </metadata>
  <g
     inkscape:label="Livello 1"
     inkscape:groupmode="layer"
     id="layer1"
     transform="translate(0,-1028.3622)">
    <rect
       style="fill:url(#radialGradient3792);fill-opacity:1;stroke:url(#linearGradient3800);stroke-opacity:1"
       id="rect3163"
       width="19"
       height="19"
       x="2.5"
       y="1030.8622"
       rx="1.5"
       ry="1.5" />
    <rect
       style="opacity:0.2;fill:none;stroke:url(#linearGradient4542);stroke-opacity:1"
       id="rect4534"
       width="17"
       height="17"
       x="3.5"
       y="1031.8622"
       rx="0.5"
       ry="0.5" />
    <path
       style="fill:#000000;fill-opacity:1;stroke:#000000;stroke-opacity:1;opacity:0.01;stroke-width:3;stroke-miterlimit:4;stroke-dasharray:none"
       d="M 12 6.09375 C 11.936095 6.09375 11.861467 6.10725 11.8125 6.15625 L 9.34375 8.65625 C 9.245816 8.75425 9.245816 8.9021 9.34375 9 L 11.8125 11.46875 C 11.91043 11.56675 12.089566 11.56675 12.1875 11.46875 L 14.65625 9 C 14.75418 8.902 14.75418 8.75425 14.65625 8.65625 L 12.1875 6.15625 C 12.138535 6.10725 12.063905 6.09375 12 6.09375 z M 8.8125 9.28125 C 8.7485951 9.28125 8.7052171 9.29475 8.65625 9.34375 L 6.15625 11.8125 C 6.058316 11.9105 6.058316 12.0895 6.15625 12.1875 L 8.65625 14.65625 C 8.754184 14.75425 8.9020657 14.75425 9 14.65625 L 11.46875 12.1875 C 11.56668 12.0895 11.56668 11.9104 11.46875 11.8125 L 9 9.34375 C 8.951033 9.29475 8.8764049 9.28125 8.8125 9.28125 z M 15.1875 9.28125 C 15.123595 9.28125 15.048967 9.29475 15 9.34375 L 12.53125 11.8125 C 12.43332 11.9105 12.43332 12.0895 12.53125 12.1875 L 15 14.65625 C 15.09793 14.75425 15.245816 14.75425 15.34375 14.65625 L 17.84375 12.1875 C 17.94168 12.0895 17.94168 11.9104 17.84375 11.8125 L 15.34375 9.34375 C 15.294785 9.29475 15.251405 9.28125 15.1875 9.28125 z M 12 12.46875 C 11.936095 12.46875 11.861467 12.48225 11.8125 12.53125 L 9.34375 15 C 9.245816 15.098 9.245816 15.24585 9.34375 15.34375 L 11.8125 17.84375 C 11.91043 17.94175 12.089566 17.94175 12.1875 17.84375 L 14.65625 15.34375 C 14.75418 15.24575 14.75418 15.0979 14.65625 15 L 12.1875 12.53125 C 12.138535 12.48225 12.063905 12.46875 12 12.46875 z "
       transform="translate(0,1028.3622)"
       id="path3830" />
    <path
       id="path3828"
       transform="translate(0,1028.3622)"
       d="M 12 6.09375 C 11.936095 6.09375 11.861467 6.10725 11.8125 6.15625 L 9.34375 8.65625 C 9.245816 8.75425 9.245816 8.9021 9.34375 9 L 11.8125 11.46875 C 11.91043 11.56675 12.089566 11.56675 12.1875 11.46875 L 14.65625 9 C 14.75418 8.902 14.75418 8.75425 14.65625 8.65625 L 12.1875 6.15625 C 12.138535 6.10725 12.063905 6.09375 12 6.09375 z M 8.8125 9.28125 C 8.7485951 9.28125 8.7052171 9.29475 8.65625 9.34375 L 6.15625 11.8125 C 6.058316 11.9105 6.058316 12.0895 6.15625 12.1875 L 8.65625 14.65625 C 8.754184 14.75425 8.9020657 14.75425 9 14.65625 L 11.46875 12.1875 C 11.56668 12.0895 11.56668 11.9104 11.46875 11.8125 L 9 9.34375 C 8.951033 9.29475 8.8764049 9.28125 8.8125 9.28125 z M 15.1875 9.28125 C 15.123595 9.28125 15.048967 9.29475 15 9.34375 L 12.53125 11.8125 C 12.43332 11.9105 12.43332 12.0895 12.53125 12.1875 L 15 14.65625 C 15.09793 14.75425 15.245816 14.75425 15.34375 14.65625 L 17.84375 12.1875 C 17.94168 12.0895 17.94168 11.9104 17.84375 11.8125 L 15.34375 9.34375 C 15.294785 9.29475 15.251405 9.28125 15.1875 9.28125 z M 12 12.46875 C 11.936095 12.46875 11.861467 12.48225 11.8125 12.53125 L 9.34375 15 C 9.245816 15.098 9.245816 15.24585 9.34375 15.34375 L 11.8125 17.84375 C 11.91043 17.94175 12.089566 17.94175 12.1875 17.84375 L 14.65625 15.34375 C 14.75418 15.24575 14.75418 15.0979 14.65625 15 L 12.1875 12.53125 C 12.138535 12.48225 12.063905 12.46875 12 12.46875 z "
       style="fill:#000000;fill-opacity:1;stroke:#000000;stroke-opacity:1;opacity:0.04999995;stroke-width:1.99999997999999990;stroke-miterlimit:4;stroke-dasharray:none" />
    <path
       style="fill:#000000;fill-opacity:1;stroke:#000000;stroke-opacity:1;opacity:0.1"
       d="M 12 6.09375 C 11.936095 6.09375 11.861467 6.10725 11.8125 6.15625 L 9.34375 8.65625 C 9.245816 8.75425 9.245816 8.9021 9.34375 9 L 11.8125 11.46875 C 11.91043 11.56675 12.089566 11.56675 12.1875 11.46875 L 14.65625 9 C 14.75418 8.902 14.75418 8.75425 14.65625 8.65625 L 12.1875 6.15625 C 12.138535 6.10725 12.063905 6.09375 12 6.09375 z M 8.8125 9.28125 C 8.7485951 9.28125 8.7052171 9.29475 8.65625 9.34375 L 6.15625 11.8125 C 6.058316 11.9105 6.058316 12.0895 6.15625 12.1875 L 8.65625 14.65625 C 8.754184 14.75425 8.9020657 14.75425 9 14.65625 L 11.46875 12.1875 C 11.56668 12.0895 11.56668 11.9104 11.46875 11.8125 L 9 9.34375 C 8.951033 9.29475 8.8764049 9.28125 8.8125 9.28125 z M 15.1875 9.28125 C 15.123595 9.28125 15.048967 9.29475 15 9.34375 L 12.53125 11.8125 C 12.43332 11.9105 12.43332 12.0895 12.53125 12.1875 L 15 14.65625 C 15.09793 14.75425 15.245816 14.75425 15.34375 14.65625 L 17.84375 12.1875 C 17.94168 12.0895 17.94168 11.9104 17.84375 11.8125 L 15.34375 9.34375 C 15.294785 9.29475 15.251405 9.28125 15.1875 9.28125 z M 12 12.46875 C 11.936095 12.46875 11.861467 12.48225 11.8125 12.53125 L 9.34375 15 C 9.245816 15.098 9.245816 15.24585 9.34375 15.34375 L 11.8125 17.84375 C 11.91043 17.94175 12.089566 17.94175 12.1875 17.84375 L 14.65625 15.34375 C 14.75418 15.24575 14.75418 15.0979 14.65625 15 L 12.1875 12.53125 C 12.138535 12.48225 12.063905 12.46875 12 12.46875 z "
       transform="translate(0,1028.3622)"
       id="path3815" />
    <g
       transform="matrix(0.25,0,0,0.25,0,789.27164)"
       id="g3835">
      <path
         sodipodi:nodetypes="ccccccccc"
         inkscape:connector-curvature="0"
         id="rect3031"
         d="m 37.393398,1016.383 c -0.391737,0.3917 -0.391737,1.0225 0,1.4142 l 9.899495,9.8995 c 0.391737,0.3917 1.022477,0.3917 1.414214,0 l 9.899495,-9.8995 c 0.391737,-0.3917 0.391737,-1.0225 0,-1.4142 l -9.899495,-9.8995 c -0.391737,-0.3917 -1.022477,-0.3917 -1.414214,0 z"
         style="fill:#f7f31a;fill-opacity:1;stroke:none" />
      <path
         sodipodi:nodetypes="ccccccccc"
         style="fill:#89ff27;fill-opacity:1;stroke:none"
         d="m 50.12132,1003.6551 c -0.391737,0.3917 -0.391737,1.0224 0,1.4142 l 9.899495,9.8995 c 0.391737,0.3917 1.022477,0.3917 1.414214,0 l 9.899495,-9.8995 c 0.391737,-0.3918 0.391737,-1.0225 0,-1.4142 l -9.899495,-9.8994 c -0.391737,-0.3918 -1.022477,-0.3918 -1.414214,0 z"
         id="path3810"
         inkscape:connector-curvature="0" />
      <path
         sodipodi:nodetypes="ccccccccc"
         inkscape:connector-curvature="0"
         id="path3812"
         d="m 37.393398,990.9272 c -0.391737,0.3918 -0.391737,1.0225 0,1.4142 l 9.899495,9.8995 c 0.391737,0.3917 1.022477,0.3917 1.414214,0 l 9.899495,-9.8995 c 0.391737,-0.3917 0.391737,-1.0224 0,-1.4142 l -9.899495,-9.89946 c -0.391737,-0.39179 -1.022477,-0.39179 -1.414214,0 z"
         style="fill:#e92312;fill-opacity:1;stroke:none" />
      <path
         sodipodi:nodetypes="ccccccccc"
         style="fill:#3ac2ee;fill-opacity:1;stroke:none"
         d="m 24.665476,1003.6551 c -0.391737,0.3917 -0.391737,1.0224 0,1.4142 l 9.899495,9.8995 c 0.391737,0.3917 1.022477,0.3917 1.414214,0 l 9.899495,-9.8995 c 0.391737,-0.3918 0.391737,-1.0225 0,-1.4142 l -9.899495,-9.8995 c -0.391737,-0.3917 -1.022477,-0.3917 -1.414214,0 z"
         id="path3814"
         inkscape:connector-curvature="0" />
    </g>
    <path
       style="fill:url(#radialGradient3843);fill-opacity:1;stroke:none;opacity:0.4"
       d="M 12 6.09375 C 11.936095 6.09375 11.861467 6.10725 11.8125 6.15625 L 9.34375 8.65625 C 9.245816 8.75425 9.245816 8.9021 9.34375 9 L 11.8125 11.46875 C 11.91043 11.56675 12.089566 11.56675 12.1875 11.46875 L 14.65625 9 C 14.75418 8.902 14.75418 8.75425 14.65625 8.65625 L 12.1875 6.15625 C 12.138535 6.10725 12.063905 6.09375 12 6.09375 z M 8.8125 9.28125 C 8.7485951 9.28125 8.7052171 9.29475 8.65625 9.34375 L 6.15625 11.8125 C 6.058316 11.9105 6.058316 12.0895 6.15625 12.1875 L 8.65625 14.65625 C 8.754184 14.75425 8.9020657 14.75425 9 14.65625 L 11.46875 12.1875 C 11.56668 12.0895 11.56668 11.9104 11.46875 11.8125 L 9 9.34375 C 8.951033 9.29475 8.8764049 9.28125 8.8125 9.28125 z M 15.1875 9.28125 C 15.123595 9.28125 15.048967 9.29475 15 9.34375 L 12.53125 11.8125 C 12.43332 11.9105 12.43332 12.0895 12.53125 12.1875 L 15 14.65625 C 15.09793 14.75425 15.245816 14.75425 15.34375 14.65625 L 17.84375 12.1875 C 17.94168 12.0895 17.94168 11.9104 17.84375 11.8125 L 15.34375 9.34375 C 15.294785 9.29475 15.251405 9.28125 15.1875 9.28125 z M 12 12.46875 C 11.936095 12.46875 11.861467 12.48225 11.8125 12.53125 L 9.34375 15 C 9.245816 15.098 9.245816 15.24585 9.34375 15.34375 L 11.8125 17.84375 C 11.91043 17.94175 12.089566 17.94175 12.1875 17.84375 L 14.65625 15.34375 C 14.75418 15.24575 14.75418 15.0979 14.65625 15 L 12.1875 12.53125 C 12.138535 12.48225 12.063905 12.46875 12 12.46875 z "
       transform="translate(0,1028.3622)"
       id="path3804" />
  </g>
</svg>
