<?xml version="1.0" encoding="UTF-8" standalone="no"?>
<!-- Created with Inkscape (http://www.inkscape.org/) -->

<svg
   xmlns:dc="http://purl.org/dc/elements/1.1/"
   xmlns:cc="http://creativecommons.org/ns#"
   xmlns:rdf="http://www.w3.org/1999/02/22-rdf-syntax-ns#"
   xmlns:svg="http://www.w3.org/2000/svg"
   xmlns="http://www.w3.org/2000/svg"
   xmlns:xlink="http://www.w3.org/1999/xlink"
   xmlns:sodipodi="http://sodipodi.sourceforge.net/DTD/sodipodi-0.dtd"
   xmlns:inkscape="http://www.inkscape.org/namespaces/inkscape"
   width="48"
   height="48"
   id="svg3147"
   version="1.1"
   inkscape:version="0.48.3.1 r9886"
   sodipodi:docname="folder-documents.svg">
  <defs
     id="defs3149">
    <linearGradient
       id="linearGradient4601">
      <stop
         style="stop-color:#fff0c8;stop-opacity:1;"
         offset="0"
         id="stop4603" />
      <stop
         style="stop-color:#f0d78c;stop-opacity:1;"
         offset="1"
         id="stop4605" />
    </linearGradient>
    <linearGradient
       id="linearGradient4593">
      <stop
         style="stop-color:#bea55a;stop-opacity:1;"
         offset="0"
         id="stop4595" />
      <stop
         style="stop-color:#832000;stop-opacity:1;"
         offset="1"
         id="stop4597" />
    </linearGradient>
    <linearGradient
       id="linearGradient4556">
      <stop
         style="stop-color:#b06121;stop-opacity:1;"
         offset="0"
         id="stop4558" />
      <stop
         style="stop-color:#973404;stop-opacity:1;"
         offset="1"
         id="stop4560" />
    </linearGradient>
    <linearGradient
       id="linearGradient4536">
      <stop
         style="stop-color:#ffffff;stop-opacity:1;"
         offset="0"
         id="stop4538" />
      <stop
         id="stop4546"
         offset="0.04410084"
         style="stop-color:#ffffff;stop-opacity:0.15686275;" />
      <stop
         id="stop4544"
         offset="0.96063954"
         style="stop-color:#ffffff;stop-opacity:0.23529412;" />
      <stop
         style="stop-color:#ffffff;stop-opacity:0.39215687;"
         offset="1"
         id="stop4540" />
    </linearGradient>
    <radialGradient
       inkscape:collect="always"
       xlink:href="#linearGradient3688-166-749"
       id="radialGradient3132"
       gradientUnits="userSpaceOnUse"
       gradientTransform="matrix(2.003784,0,0,1.4,27.98813,-17.4)"
       cx="4.9929786"
       cy="43.5"
       fx="4.9929786"
       fy="43.5"
       r="2.5" />
    <linearGradient
       id="linearGradient3688-166-749">
      <stop
         id="stop2883"
         style="stop-color:#181818;stop-opacity:1"
         offset="0" />
      <stop
         id="stop2885"
         style="stop-color:#181818;stop-opacity:0"
         offset="1" />
    </linearGradient>
    <radialGradient
       inkscape:collect="always"
       xlink:href="#linearGradient3688-464-309"
       id="radialGradient3134"
       gradientUnits="userSpaceOnUse"
       gradientTransform="matrix(2.003784,0,0,1.4,-20.01187,-104.4)"
       cx="4.9929786"
       cy="43.5"
       fx="4.9929786"
       fy="43.5"
       r="2.5" />
    <linearGradient
       id="linearGradient3688-464-309">
      <stop
         id="stop2889"
         style="stop-color:#181818;stop-opacity:1"
         offset="0" />
      <stop
         id="stop2891"
         style="stop-color:#181818;stop-opacity:0"
         offset="1" />
    </linearGradient>
    <linearGradient
       inkscape:collect="always"
       xlink:href="#linearGradient3702-501-757"
       id="linearGradient3136"
       gradientUnits="userSpaceOnUse"
       x1="25.058096"
       y1="47.027729"
       x2="25.058096"
       y2="39.999443" />
    <linearGradient
       id="linearGradient3702-501-757">
      <stop
         id="stop2895"
         style="stop-color:#181818;stop-opacity:0"
         offset="0" />
      <stop
         id="stop2897"
         style="stop-color:#181818;stop-opacity:1"
         offset="0.5" />
      <stop
         id="stop2899"
         style="stop-color:#181818;stop-opacity:0"
         offset="1" />
    </linearGradient>
    <linearGradient
       inkscape:collect="always"
       xlink:href="#linearGradient4536"
       id="linearGradient4542"
       x1="23.522522"
       y1="1010.4793"
       x2="23.522522"
       y2="1048.1082"
       gradientUnits="userSpaceOnUse" />
    <radialGradient
       inkscape:collect="always"
       xlink:href="#linearGradient4556"
       id="radialGradient4562"
       cx="24.144146"
       cy="1013.5062"
       fx="24.144146"
       fy="1013.5062"
       r="20"
       gradientUnits="userSpaceOnUse"
       gradientTransform="matrix(-1.2431823e-7,1.8811027,-1.4540719,-9.6096638e-8,1497.8551,968.08877)" />
    <linearGradient
       inkscape:collect="always"
       xlink:href="#linearGradient4593"
       id="linearGradient4599"
       x1="12.576576"
       y1="44.3009"
       x2="12.576576"
       y2="8.9819822"
       gradientUnits="userSpaceOnUse" />
    <radialGradient
       inkscape:collect="always"
       xlink:href="#linearGradient4601"
       id="radialGradient4607"
       cx="24.144144"
       cy="10.983984"
       fx="24.144144"
       fy="10.983984"
       r="20"
       gradientTransform="matrix(3.8220377e-8,1.2983492,-1.1666667,3.4343951e-8,36.958791,-18.761944)"
       gradientUnits="userSpaceOnUse" />
    <linearGradient
       inkscape:collect="always"
       xlink:href="#linearGradient4536"
       id="linearGradient4617"
       x1="22.633078"
       y1="10.182325"
       x2="22.633078"
       y2="43.919704"
       gradientUnits="userSpaceOnUse" />
    <linearGradient
       inkscape:collect="always"
       xlink:href="#linearGradient3990"
       id="linearGradient3957"
       x1="24.115286"
       y1="20.956081"
       x2="24.115286"
       y2="38.877823"
       gradientUnits="userSpaceOnUse"
       gradientTransform="matrix(1.04,0,0,1.0178571,-0.96,-0.50212367)" />
    <linearGradient
       id="linearGradient3990">
      <stop
         offset="0"
         style="stop-color:#aa5f00;stop-opacity:1;"
         id="stop3992" />
      <stop
         offset="1"
         style="stop-color:#641e00;stop-opacity:1;"
         id="stop3994" />
    </linearGradient>
    <linearGradient
       y2="38.877823"
       x2="24.115286"
       y1="4.7285786"
       x1="24.115286"
       gradientTransform="matrix(1.04,0,0,1.0178571,-0.9599995,1004.8601)"
       gradientUnits="userSpaceOnUse"
       id="linearGradient3204"
       xlink:href="#linearGradient4556"
       inkscape:collect="always" />
  </defs>
  <sodipodi:namedview
     id="base"
     pagecolor="#ffffff"
     bordercolor="#666666"
     borderopacity="1.0"
     inkscape:pageopacity="0.0"
     inkscape:pageshadow="2"
     inkscape:zoom="4.9055533"
     inkscape:cx="14.54577"
     inkscape:cy="25.557672"
     inkscape:document-units="px"
     inkscape:current-layer="layer1"
     showgrid="false"
     inkscape:window-width="1280"
     inkscape:window-height="756"
     inkscape:window-x="0"
     inkscape:window-y="24"
     inkscape:window-maximized="1" />
  <metadata
     id="metadata3152">
    <rdf:RDF>
      <cc:Work
         rdf:about="">
        <dc:format>image/svg+xml</dc:format>
        <dc:type
           rdf:resource="http://purl.org/dc/dcmitype/StillImage" />
        <dc:title></dc:title>
      </cc:Work>
    </rdf:RDF>
  </metadata>
  <g
     inkscape:label="Livello 1"
     inkscape:groupmode="layer"
     id="layer1"
     transform="translate(0,-1004.3622)">
    <g
       style="display:inline"
       id="g2036"
       transform="matrix(1.1,0,0,0.4444449,-2.4000022,1029.4733)">
      <g
         style="opacity:0.4"
         id="g3712"
         transform="matrix(1.052632,0,0,1.285713,-1.263158,-13.42854)">
        <rect
           style="fill:url(#radialGradient3132);fill-opacity:1;stroke:none"
           id="rect2801"
           y="40"
           x="38"
           height="7"
           width="5" />
        <rect
           style="fill:url(#radialGradient3134);fill-opacity:1;stroke:none"
           id="rect3696"
           transform="scale(-1,-1)"
           y="-47"
           x="-10"
           height="7"
           width="5" />
        <rect
           style="fill:url(#linearGradient3136);fill-opacity:1;stroke:none"
           id="rect3700"
           y="40"
           x="10"
           height="7.0000005"
           width="28" />
      </g>
    </g>
    <rect
       style="fill:url(#radialGradient4562);fill-opacity:1;stroke:#832000;stroke-opacity:1"
       id="rect3163"
       width="39"
       height="39"
       x="4.5"
       y="1009.8622"
       rx="2"
       ry="2" />
    <rect
       style="fill:none;fill-opacity:1;stroke:url(#linearGradient4542);stroke-opacity:1;opacity:0.3"
       id="rect4534"
       width="37"
       height="37"
       x="5.5"
       y="1010.8622"
       rx="1"
       ry="1" />
    <path
       inkscape:connector-curvature="0"
       style="opacity:0.1;fill:#000000;fill-opacity:1;stroke:#000000;stroke-width:1;stroke-opacity:1"
       d="m 6.5,1011.8622 c -1.108,0 -2,0.892 -2,2 l 0,6 0,25 c 0,1.108 0.892,2 2,2 l 35,0 c 1.108,0 2,-0.892 2,-2 l 0,-25 c 0,-1.108 -0.892,-2 -2,-2 l -3,0 -6,0 -8,0 c -1.108,0 -2,-0.892 -2,-2 l 0,-2 c 0,-1.108 -0.892,-2 -2,-2 l -14,0 z"
       id="path4625" />
    <path
       id="path4619"
       d="m 6.5,1012.8622 c -1.108,0 -2,0.892 -2,2 l 0,6 0,25 c 0,1.108 0.892,2 2,2 l 35,0 c 1.108,0 2,-0.892 2,-2 l 0,-25 c 0,-1.108 -0.892,-2 -2,-2 l -3,0 -6,0 -8,0 c -1.108,0 -2,-0.892 -2,-2 l 0,-2 c 0,-1.108 -0.892,-2 -2,-2 l -14,0 z"
       style="fill:#000000;fill-opacity:1;stroke:#000000;stroke-width:1;stroke-opacity:1;opacity:0.15"
       inkscape:connector-curvature="0" />
    <path
       style="fill:url(#radialGradient4607);fill-opacity:1;stroke:url(#linearGradient4599);stroke-opacity:1"
       d="M 6.5 9.5 C 5.392 9.5 4.5 10.392 4.5 11.5 L 4.5 17.5 L 4.5 42.5 C 4.5 43.608 5.392 44.5 6.5 44.5 L 41.5 44.5 C 42.608 44.5 43.5 43.608 43.5 42.5 L 43.5 17.5 C 43.5 16.392 42.608 15.5 41.5 15.5 L 38.5 15.5 L 32.5 15.5 L 24.5 15.5 C 23.392 15.5 22.5 14.608 22.5 13.5 L 22.5 11.5 C 22.5 10.392 21.608 9.5 20.5 9.5 L 6.5 9.5 z "
       transform="translate(0,1004.3622)"
       id="rect4583" />
    <path
       id="path4609"
       transform="translate(0,1004.3622)"
       d="m 7,10.5 c -1.108,0 -1.5,0.392 -1.5,1.5 l 0,6.5 0,23.5 c 0,1.108 0.392,1.5 1.5,1.5 l 34,0 c 1.108,0 1.5,-0.392 1.5,-1.5 l 0,-24 c 0,-1.108 -0.392,-1.5 -1.5,-1.5 l -3.5,0 -5,0 -8.5,0 c -1.108,0 -2.5,-1.392 -2.5,-2.5 l 0,-2 c 0,-1.108 -0.392,-1.5 -1.5,-1.5 z"
       style="fill:none;fill-opacity:1;stroke:url(#linearGradient4617);stroke-opacity:1;opacity:0.5"
       inkscape:connector-curvature="0"
       sodipodi:nodetypes="sscssssssccsssss" />
    <path
       inkscape:connector-curvature="0"
       id="path3850"
       d="m 24,1027.3622 c -4.706815,0 -9.408821,1.7621 -13,5.2768 l 3.092631,3.0268 c 5.472273,-5.3558 14.342465,-5.3558 19.814738,0 L 37,1032.639 c -3.591179,-3.5147 -8.293185,-5.2768 -13,-5.2768 z m 0,6.8571 c -2.913743,0 -5.823204,1.0921 -8.046316,3.2679 l 3.092632,3.0268 c 2.736136,-2.6779 7.171232,-2.6779 9.907368,0 l 3.092632,-3.0268 C 29.823204,1035.3114 26.913743,1034.2193 24,1034.2193 z m 0,6.8572 c -1.120671,0 -2.237589,0.4221 -3.092631,1.2589 L 24,1045.3622 l 3.092631,-3.0268 c -0.855042,-0.8368 -1.97196,-1.2589 -3.092631,-1.2589 z"
       style="fill:#ffffff;fill-opacity:1;fill-rule:nonzero;stroke:none;opacity:0.3" />
    <path
       style="fill:url(#linearGradient3204);fill-opacity:1;fill-rule:nonzero;stroke:none"
       d="m 24,1026.3622 c -4.706815,0 -9.408821,1.7621 -13,5.2768 l 3.092631,3.0268 c 5.472273,-5.3558 14.342465,-5.3558 19.814738,0 L 37,1031.639 c -3.591179,-3.5147 -8.293185,-5.2768 -13,-5.2768 z m 0,6.8571 c -2.913743,0 -5.823204,1.0921 -8.046316,3.2679 l 3.092632,3.0268 c 2.736136,-2.6779 7.171232,-2.6779 9.907368,0 l 3.092632,-3.0268 C 29.823204,1034.3114 26.913743,1033.2193 24,1033.2193 z m 0,6.8572 c -1.120671,0 -2.237589,0.4221 -3.092631,1.2589 L 24,1044.3622 l 3.092631,-3.0268 c -0.855042,-0.8368 -1.97196,-1.2589 -3.092631,-1.2589 z"
       id="path4015"
       inkscape:connector-curvature="0" />
  </g>
</svg>
