<?xml version="1.0" encoding="UTF-8" standalone="no"?>
<!-- Created with Inkscape (http://www.inkscape.org/) -->

<svg
   xmlns:dc="http://purl.org/dc/elements/1.1/"
   xmlns:cc="http://creativecommons.org/ns#"
   xmlns:rdf="http://www.w3.org/1999/02/22-rdf-syntax-ns#"
   xmlns:svg="http://www.w3.org/2000/svg"
   xmlns="http://www.w3.org/2000/svg"
   xmlns:xlink="http://www.w3.org/1999/xlink"
   xmlns:sodipodi="http://sodipodi.sourceforge.net/DTD/sodipodi-0.dtd"
   xmlns:inkscape="http://www.inkscape.org/namespaces/inkscape"
   width="24"
   height="24"
   id="svg3147"
   version="1.1"
   inkscape:version="0.48.3.1 r9886"
   sodipodi:docname="format-text-underline.svg">
  <defs
     id="defs3149">
    <linearGradient
       id="linearGradient3779">
      <stop
         style="stop-color:#333333;stop-opacity:1;"
         offset="0"
         id="stop3781" />
      <stop
         style="stop-color:#969696;stop-opacity:1;"
         offset="1"
         id="stop3783" />
    </linearGradient>
    <linearGradient
       id="linearGradient3771">
      <stop
         style="stop-color:#c8c8c8;stop-opacity:1;"
         offset="0"
         id="stop3773" />
      <stop
         style="stop-color:#646464;stop-opacity:1;"
         offset="1"
         id="stop3775" />
    </linearGradient>
    <linearGradient
       id="linearGradient4536">
      <stop
         style="stop-color:#ffffff;stop-opacity:1;"
         offset="0"
         id="stop4538" />
      <stop
         id="stop4546"
         offset="0.06216056"
         style="stop-color:#ffffff;stop-opacity:0.15686275;" />
      <stop
         id="stop4544"
         offset="0.936414"
         style="stop-color:#ffffff;stop-opacity:0.23529412;" />
      <stop
         style="stop-color:#ffffff;stop-opacity:0.39215687;"
         offset="1"
         id="stop4540" />
    </linearGradient>
    <radialGradient
       inkscape:collect="always"
       xlink:href="#linearGradient3688-166-749"
       id="radialGradient3132"
       gradientUnits="userSpaceOnUse"
       gradientTransform="matrix(2.003784,0,0,1.4,27.98813,-17.4)"
       cx="4.9929786"
       cy="43.5"
       fx="4.9929786"
       fy="43.5"
       r="2.5" />
    <linearGradient
       id="linearGradient3688-166-749">
      <stop
         id="stop2883"
         style="stop-color:#181818;stop-opacity:1"
         offset="0" />
      <stop
         id="stop2885"
         style="stop-color:#181818;stop-opacity:0"
         offset="1" />
    </linearGradient>
    <radialGradient
       inkscape:collect="always"
       xlink:href="#linearGradient3688-464-309"
       id="radialGradient3134"
       gradientUnits="userSpaceOnUse"
       gradientTransform="matrix(2.003784,0,0,1.4,-20.01187,-104.4)"
       cx="4.9929786"
       cy="43.5"
       fx="4.9929786"
       fy="43.5"
       r="2.5" />
    <linearGradient
       id="linearGradient3688-464-309">
      <stop
         id="stop2889"
         style="stop-color:#181818;stop-opacity:1"
         offset="0" />
      <stop
         id="stop2891"
         style="stop-color:#181818;stop-opacity:0"
         offset="1" />
    </linearGradient>
    <linearGradient
       inkscape:collect="always"
       xlink:href="#linearGradient3702-501-757"
       id="linearGradient3136"
       gradientUnits="userSpaceOnUse"
       x1="25.058096"
       y1="47.027729"
       x2="25.058096"
       y2="39.999443" />
    <linearGradient
       id="linearGradient3702-501-757">
      <stop
         id="stop2895"
         style="stop-color:#181818;stop-opacity:0"
         offset="0" />
      <stop
         id="stop2897"
         style="stop-color:#181818;stop-opacity:1"
         offset="0.5" />
      <stop
         id="stop2899"
         style="stop-color:#181818;stop-opacity:0"
         offset="1" />
    </linearGradient>
    <linearGradient
       inkscape:collect="always"
       xlink:href="#linearGradient4536"
       id="linearGradient4542"
       x1="14.801802"
       y1="1010.4072"
       x2="14.801802"
       y2="1028.1376"
       gradientUnits="userSpaceOnUse"
       gradientTransform="translate(-1.9999998,20.999895)" />
  </defs>
  <sodipodi:namedview
     id="base"
     pagecolor="#ffffff"
     bordercolor="#666666"
     borderopacity="1.0"
     inkscape:pageopacity="0.0"
     inkscape:pageshadow="2"
     inkscape:zoom="16"
     inkscape:cx="2.2557891"
     inkscape:cy="10.220172"
     inkscape:document-units="px"
     inkscape:current-layer="layer1"
     showgrid="false"
     inkscape:window-width="1280"
     inkscape:window-height="751"
     inkscape:window-x="0"
     inkscape:window-y="24"
     inkscape:window-maximized="1" />
  <metadata
     id="metadata3152">
    <rdf:RDF>
      <cc:Work
         rdf:about="">
        <dc:format>image/svg+xml</dc:format>
        <dc:type
           rdf:resource="http://purl.org/dc/dcmitype/StillImage" />
        <dc:title />
      </cc:Work>
    </rdf:RDF>
  </metadata>
  <g
     inkscape:label="Livello 1"
     inkscape:groupmode="layer"
     id="layer1"
     transform="translate(0,-1028.3622)">
    <rect
       style="fill:#505050;fill-opacity:1;stroke:#333333;stroke-opacity:1"
       id="rect3163"
       width="19"
       height="19"
       x="2.5"
       y="1030.8622"
       rx="1"
       ry="1" />
    <path
       id="path3950"
       d="m 12.1875,1034.362 c -0.642575,0 -1.259015,0.086 -1.84375,0.25 -0.5847414,0.164 -1.11825,0.3594 -1.5937498,0.5938 l 0.625,1.2187 c 0.4240937,-0.1992 0.8562718,-0.3906 1.3124998,-0.5312 0.462647,-0.1406 0.966662,-0.2188 1.5,-0.2188 0.334131,0 0.617966,0.055 0.875,0.125 0.263448,0.07 0.48275,0.1797 0.65625,0.3438 0.179913,0.1581 0.316283,0.3613 0.40625,0.625 0.09638,0.2636 0.156243,0.6075 0.15625,1 l 0,0.5937 -1.78125,0.063 c -1.51647,0.047 -2.6608711,0.3282 -3.4062498,0.8438 -0.738957,0.5155 -1.0937509,1.258 -1.09375,2.2187 -9e-7,0.4921 0.064532,0.918 0.21875,1.2813 0.1542156,0.3573 0.386369,0.666 0.65625,0.9062 0.2763031,0.2343 0.5960569,0.3887 0.96875,0.5 0.3726878,0.1172 0.7753728,0.1875 1.2187498,0.1875 0.404815,0 0.754062,-0.035 1.0625,-0.094 0.308428,-0.059 0.593142,-0.1583 0.84375,-0.2813 0.250596,-0.123 0.475445,-0.25 0.6875,-0.4375 0.212041,-0.1933 0.444195,-0.4239 0.65625,-0.6875 l 0.0625,0 0.375,1.3125 1.25,0 0,-6.5937 c -9e-6,-0.5741 -0.06454,-1.0646 -0.21875,-1.4688 -0.154225,-0.4042 -0.403899,-0.7422 -0.71875,-1 -0.308441,-0.2636 -0.70558,-0.4453 -1.1875,-0.5625 -0.475508,-0.123 -1.032084,-0.1875 -1.6875,-0.1875 z m 2.0625,5.0938 0,0.875 c -7e-6,0.4628 -0.07739,0.8731 -0.21875,1.2187 -0.134947,0.3398 -0.31833,0.6153 -0.5625,0.8438 -0.244183,0.2226 -0.540869,0.3886 -0.875,0.5 -0.334142,0.1113 -0.670537,0.1875 -1.0625,0.1875 -0.507634,0 -0.935144,-0.1231 -1.25,-0.375 -0.3084364,-0.252 -0.4687525,-0.6486 -0.4687498,-1.1875 -2.7e-6,-0.2988 0.053436,-0.5782 0.15625,-0.8125 0.1028088,-0.2402 0.2686718,-0.4298 0.4999998,-0.5938 0.237747,-0.1699 0.545528,-0.3125 0.9375,-0.4062 0.391963,-0.094 0.890432,-0.1641 1.46875,-0.1875 l 1.375,-0.063 z m -7.2499998,5.9062 0,1 9.9999998,0 0,-1 -9.9999998,0 z"
       style="font-size:18.84797668px;font-style:normal;font-variant:normal;font-weight:normal;font-stretch:normal;line-height:125%;letter-spacing:0px;word-spacing:0px;opacity:0.05;fill:#000000;fill-opacity:1;stroke:#000000;stroke-width:3;stroke-linejoin:round;stroke-miterlimit:4;stroke-opacity:1;stroke-dasharray:none;font-family:Droid Sans;-inkscape-font-specification:Droid Sans"
       inkscape:connector-curvature="0" />
    <path
       style="font-size:18.84797668px;font-style:normal;font-variant:normal;font-weight:normal;font-stretch:normal;line-height:125%;letter-spacing:0px;word-spacing:0px;opacity:0.09999994;fill:#000000;fill-opacity:1;stroke:#000000;stroke-width:2;stroke-linejoin:round;stroke-miterlimit:4;stroke-opacity:1;stroke-dasharray:none;font-family:Droid Sans;-inkscape-font-specification:Droid Sans"
       d="m 12.1875,1034.362 c -0.642575,0 -1.259015,0.086 -1.84375,0.25 -0.5847414,0.164 -1.11825,0.3594 -1.5937498,0.5938 l 0.625,1.2187 c 0.4240937,-0.1992 0.8562718,-0.3906 1.3124998,-0.5312 0.462647,-0.1406 0.966662,-0.2188 1.5,-0.2188 0.334131,0 0.617966,0.055 0.875,0.125 0.263448,0.07 0.48275,0.1797 0.65625,0.3438 0.179913,0.1581 0.316283,0.3613 0.40625,0.625 0.09638,0.2636 0.156243,0.6075 0.15625,1 l 0,0.5937 -1.78125,0.063 c -1.51647,0.047 -2.6608711,0.3282 -3.4062498,0.8438 -0.738957,0.5155 -1.0937509,1.258 -1.09375,2.2187 -9e-7,0.4921 0.064532,0.918 0.21875,1.2813 0.1542156,0.3573 0.386369,0.666 0.65625,0.9062 0.2763031,0.2343 0.5960569,0.3887 0.96875,0.5 0.3726878,0.1172 0.7753728,0.1875 1.2187498,0.1875 0.404815,0 0.754062,-0.035 1.0625,-0.094 0.308428,-0.059 0.593142,-0.1583 0.84375,-0.2813 0.250596,-0.123 0.475445,-0.25 0.6875,-0.4375 0.212041,-0.1933 0.444195,-0.4239 0.65625,-0.6875 l 0.0625,0 0.375,1.3125 1.25,0 0,-6.5937 c -9e-6,-0.5741 -0.06454,-1.0646 -0.21875,-1.4688 -0.154225,-0.4042 -0.403899,-0.7422 -0.71875,-1 -0.308441,-0.2636 -0.70558,-0.4453 -1.1875,-0.5625 -0.475508,-0.123 -1.032084,-0.1875 -1.6875,-0.1875 z m 2.0625,5.0938 0,0.875 c -7e-6,0.4628 -0.07739,0.8731 -0.21875,1.2187 -0.134947,0.3398 -0.31833,0.6153 -0.5625,0.8438 -0.244183,0.2226 -0.540869,0.3886 -0.875,0.5 -0.334142,0.1113 -0.670537,0.1875 -1.0625,0.1875 -0.507634,0 -0.935144,-0.1231 -1.25,-0.375 -0.3084364,-0.252 -0.4687525,-0.6486 -0.4687498,-1.1875 -2.7e-6,-0.2988 0.053436,-0.5782 0.15625,-0.8125 0.1028088,-0.2402 0.2686718,-0.4298 0.4999998,-0.5938 0.237747,-0.1699 0.545528,-0.3125 0.9375,-0.4062 0.391963,-0.094 0.890432,-0.1641 1.46875,-0.1875 l 1.375,-0.063 z m -7.2499998,5.9062 0,1 9.9999998,0 0,-1 -9.9999998,0 z"
       id="path3948"
       inkscape:connector-curvature="0" />
    <path
       id="path3946"
       d="m 12.1875,1034.362 c -0.642575,0 -1.259015,0.086 -1.84375,0.25 -0.5847414,0.164 -1.11825,0.3594 -1.5937498,0.5938 l 0.625,1.2187 c 0.4240937,-0.1992 0.8562718,-0.3906 1.3124998,-0.5312 0.462647,-0.1406 0.966662,-0.2188 1.5,-0.2188 0.334131,0 0.617966,0.055 0.875,0.125 0.263448,0.07 0.48275,0.1797 0.65625,0.3438 0.179913,0.1581 0.316283,0.3613 0.40625,0.625 0.09638,0.2636 0.156243,0.6075 0.15625,1 l 0,0.5937 -1.78125,0.063 c -1.51647,0.047 -2.6608711,0.3282 -3.4062498,0.8438 -0.738957,0.5155 -1.0937509,1.258 -1.09375,2.2187 -9e-7,0.4921 0.064532,0.918 0.21875,1.2813 0.1542156,0.3573 0.386369,0.666 0.65625,0.9062 0.2763031,0.2343 0.5960569,0.3887 0.96875,0.5 0.3726878,0.1172 0.7753728,0.1875 1.2187498,0.1875 0.404815,0 0.754062,-0.035 1.0625,-0.094 0.308428,-0.059 0.593142,-0.1583 0.84375,-0.2813 0.250596,-0.123 0.475445,-0.25 0.6875,-0.4375 0.212041,-0.1933 0.444195,-0.4239 0.65625,-0.6875 l 0.0625,0 0.375,1.3125 1.25,0 0,-6.5937 c -9e-6,-0.5741 -0.06454,-1.0646 -0.21875,-1.4688 -0.154225,-0.4042 -0.403899,-0.7422 -0.71875,-1 -0.308441,-0.2636 -0.70558,-0.4453 -1.1875,-0.5625 -0.475508,-0.123 -1.032084,-0.1875 -1.6875,-0.1875 z m 2.0625,5.0938 0,0.875 c -7e-6,0.4628 -0.07739,0.8731 -0.21875,1.2187 -0.134947,0.3398 -0.31833,0.6153 -0.5625,0.8438 -0.244183,0.2226 -0.540869,0.3886 -0.875,0.5 -0.334142,0.1113 -0.670537,0.1875 -1.0625,0.1875 -0.507634,0 -0.935144,-0.1231 -1.25,-0.375 -0.3084364,-0.252 -0.4687525,-0.6486 -0.4687498,-1.1875 -2.7e-6,-0.2988 0.053436,-0.5782 0.15625,-0.8125 0.1028088,-0.2402 0.2686718,-0.4298 0.4999998,-0.5938 0.237747,-0.1699 0.545528,-0.3125 0.9375,-0.4062 0.391963,-0.094 0.890432,-0.1641 1.46875,-0.1875 l 1.375,-0.063 z m -7.2499998,5.9062 0,1 9.9999998,0 0,-1 -9.9999998,0 z"
       style="font-size:18.84797668px;font-style:normal;font-variant:normal;font-weight:normal;font-stretch:normal;line-height:125%;letter-spacing:0px;word-spacing:0px;opacity:0.15;fill:#000000;fill-opacity:1;stroke:#000000;stroke-linejoin:round;stroke-opacity:1;font-family:Droid Sans;-inkscape-font-specification:Droid Sans"
       inkscape:connector-curvature="0" />
    <path
       style="font-size:18.84797668px;font-style:normal;font-variant:normal;font-weight:normal;font-stretch:normal;line-height:125%;letter-spacing:0px;word-spacing:0px;fill:#ffffff;fill-opacity:1;stroke:none;font-family:Droid Sans;-inkscape-font-specification:Droid Sans"
       d="m 12.1875,1034.362 c -0.642575,0 -1.259015,0.086 -1.84375,0.25 -0.5847414,0.164 -1.11825,0.3594 -1.5937498,0.5938 l 0.625,1.2187 c 0.4240937,-0.1992 0.8562718,-0.3906 1.3124998,-0.5312 0.462647,-0.1406 0.966662,-0.2188 1.5,-0.2188 0.334131,0 0.617966,0.055 0.875,0.125 0.263448,0.07 0.48275,0.1797 0.65625,0.3438 0.179913,0.1581 0.316283,0.3613 0.40625,0.625 0.09638,0.2636 0.156243,0.6075 0.15625,1 l 0,0.5937 -1.78125,0.063 c -1.51647,0.047 -2.6608711,0.3282 -3.4062498,0.8438 -0.738957,0.5155 -1.0937509,1.258 -1.09375,2.2187 -9e-7,0.4921 0.064532,0.918 0.21875,1.2813 0.1542156,0.3573 0.386369,0.666 0.65625,0.9062 0.2763031,0.2343 0.5960569,0.3887 0.96875,0.5 0.3726878,0.1172 0.7753728,0.1875 1.2187498,0.1875 0.404815,0 0.754062,-0.035 1.0625,-0.094 0.308428,-0.059 0.593142,-0.1583 0.84375,-0.2813 0.250596,-0.123 0.475445,-0.25 0.6875,-0.4375 0.212041,-0.1933 0.444195,-0.4239 0.65625,-0.6875 l 0.0625,0 0.375,1.3125 1.25,0 0,-6.5937 c -9e-6,-0.5741 -0.06454,-1.0646 -0.21875,-1.4688 -0.154225,-0.4042 -0.403899,-0.7422 -0.71875,-1 -0.308441,-0.2636 -0.70558,-0.4453 -1.1875,-0.5625 -0.475508,-0.123 -1.032084,-0.1875 -1.6875,-0.1875 z m 2.0625,5.0938 0,0.875 c -7e-6,0.4628 -0.07739,0.8731 -0.21875,1.2187 -0.134947,0.3398 -0.31833,0.6153 -0.5625,0.8438 -0.244183,0.2226 -0.540869,0.3886 -0.875,0.5 -0.334142,0.1113 -0.670537,0.1875 -1.0625,0.1875 -0.507634,0 -0.935144,-0.1231 -1.25,-0.375 -0.3084364,-0.252 -0.4687525,-0.6486 -0.4687498,-1.1875 -2.7e-6,-0.2988 0.053436,-0.5782 0.15625,-0.8125 0.1028088,-0.2402 0.2686718,-0.4298 0.4999998,-0.5938 0.237747,-0.1699 0.545528,-0.3125 0.9375,-0.4062 0.391963,-0.094 0.890432,-0.1641 1.46875,-0.1875 l 1.375,-0.063 z m -7.2499998,5.9062 0,1 9.9999998,0 0,-1 -9.9999998,0 z"
       id="text3836"
       inkscape:connector-curvature="0" />
  </g>
</svg>
