<?xml version="1.0" encoding="UTF-8" standalone="no"?>
<!-- Created with Inkscape (http://www.inkscape.org/) -->

<svg
   xmlns:dc="http://purl.org/dc/elements/1.1/"
   xmlns:cc="http://creativecommons.org/ns#"
   xmlns:rdf="http://www.w3.org/1999/02/22-rdf-syntax-ns#"
   xmlns:svg="http://www.w3.org/2000/svg"
   xmlns="http://www.w3.org/2000/svg"
   xmlns:sodipodi="http://sodipodi.sourceforge.net/DTD/sodipodi-0.dtd"
   xmlns:inkscape="http://www.inkscape.org/namespaces/inkscape"
   width="24"
   height="24"
   id="svg3752"
   version="1.1"
   inkscape:version="0.48.3.1 r9886"
   sodipodi:docname="media-playlist-shuffle.svg">
  <defs
     id="defs3754" />
  <sodipodi:namedview
     id="base"
     pagecolor="#ffffff"
     bordercolor="#666666"
     borderopacity="1.0"
     inkscape:pageopacity="0.0"
     inkscape:pageshadow="2"
     inkscape:zoom="15.839192"
     inkscape:cx="9.8624098"
     inkscape:cy="12.226156"
     inkscape:document-units="px"
     inkscape:current-layer="layer1"
     showgrid="false"
     inkscape:window-width="1280"
     inkscape:window-height="751"
     inkscape:window-x="0"
     inkscape:window-y="24"
     inkscape:window-maximized="1" />
  <metadata
     id="metadata3757">
    <rdf:RDF>
      <cc:Work
         rdf:about="">
        <dc:format>image/svg+xml</dc:format>
        <dc:type
           rdf:resource="http://purl.org/dc/dcmitype/StillImage" />
        <dc:title></dc:title>
      </cc:Work>
    </rdf:RDF>
  </metadata>
  <g
     inkscape:label="Livello 1"
     inkscape:groupmode="layer"
     id="layer1"
     transform="translate(0,-1028.3622)">
    <path
       id="path4352"
       transform="translate(0,1028.3622)"
       d="M 16 6 L 16 8 L 13 8 C 10.790861 8 9 9.7909 9 12 L 9 13 C 9 14.1045 8.10457 15 7 15 L 4 15 L 4 17 L 7 17 C 9.209139 17 11 15.2091 11 13 L 11 12 C 11 10.8955 11.89543 10 13 10 L 16 10 L 16 12 L 20 9 L 16 6 z M 4 8 L 4 10 L 7 10 C 7.2910929 10 7.5630179 10.075679 7.8125 10.1875 C 8.0395739 9.546437 8.3787705 8.9776093 8.8125 8.46875 C 8.2661709 8.18881 7.656058 8 7 8 L 4 8 z M 16 13 L 16 15 L 13 15 C 12.708907 15 12.436982 14.924321 12.1875 14.8125 C 11.960558 15.464387 11.6275 16.046284 11.1875 16.5625 C 11.730595 16.83824 12.349219 17 13 17 L 16 17 L 16 19 L 20 16 L 16 13 z "
       style="opacity:0.2;fill:#ffffff;fill-opacity:1;stroke:#ffffff;stroke-opacity:1;stroke-linejoin:round" />
    <path
       style="opacity:1;fill:#333333;fill-opacity:1;stroke:none"
       d="M 16 6 L 16 8 L 13 8 C 10.790861 8 9 9.7909 9 12 L 9 13 C 9 14.1045 8.10457 15 7 15 L 4 15 L 4 17 L 7 17 C 9.209139 17 11 15.2091 11 13 L 11 12 C 11 10.8955 11.89543 10 13 10 L 16 10 L 16 12 L 20 9 L 16 6 z M 4 8 L 4 10 L 7 10 C 7.2910929 10 7.5630179 10.075679 7.8125 10.1875 C 8.0395739 9.546437 8.3787705 8.9776093 8.8125 8.46875 C 8.2661709 8.18881 7.656058 8 7 8 L 4 8 z M 16 13 L 16 15 L 13 15 C 12.708907 15 12.436982 14.924321 12.1875 14.8125 C 11.960558 15.464387 11.6275 16.046284 11.1875 16.5625 C 11.730595 16.83824 12.349219 17 13 17 L 16 17 L 16 19 L 20 16 L 16 13 z "
       transform="translate(0,1028.3622)"
       id="path3760" />
  </g>
</svg>
