<?xml version="1.0" encoding="UTF-8" standalone="no"?>
<!-- Created with Inkscape (http://www.inkscape.org/) -->

<svg
   xmlns:dc="http://purl.org/dc/elements/1.1/"
   xmlns:cc="http://creativecommons.org/ns#"
   xmlns:rdf="http://www.w3.org/1999/02/22-rdf-syntax-ns#"
   xmlns:svg="http://www.w3.org/2000/svg"
   xmlns="http://www.w3.org/2000/svg"
   xmlns:xlink="http://www.w3.org/1999/xlink"
   xmlns:sodipodi="http://sodipodi.sourceforge.net/DTD/sodipodi-0.dtd"
   xmlns:inkscape="http://www.inkscape.org/namespaces/inkscape"
   width="24"
   height="24"
   id="svg3147"
   version="1.1"
   inkscape:version="0.48.3.1 r9886"
   sodipodi:docname="stock_timezone.svg">
  <defs
     id="defs3149">
    <linearGradient
       id="linearGradient3779">
      <stop
         style="stop-color:#234bb6;stop-opacity:1;"
         offset="0"
         id="stop3781" />
      <stop
         style="stop-color:#4b81c6;stop-opacity:1;"
         offset="1"
         id="stop3783" />
    </linearGradient>
    <linearGradient
       id="linearGradient3771">
      <stop
         style="stop-color:#b4e4ef;stop-opacity:1;"
         offset="0"
         id="stop3773" />
      <stop
         style="stop-color:#3ba9e0;stop-opacity:1;"
         offset="1"
         id="stop3775" />
    </linearGradient>
    <linearGradient
       id="linearGradient4536">
      <stop
         style="stop-color:#ffffff;stop-opacity:1;"
         offset="0"
         id="stop4538" />
      <stop
         id="stop4546"
         offset="0.06216056"
         style="stop-color:#ffffff;stop-opacity:0.15686275;" />
      <stop
         id="stop4544"
         offset="0.936414"
         style="stop-color:#ffffff;stop-opacity:0.23529412;" />
      <stop
         style="stop-color:#ffffff;stop-opacity:0.39215687;"
         offset="1"
         id="stop4540" />
    </linearGradient>
    <radialGradient
       inkscape:collect="always"
       xlink:href="#linearGradient3688-166-749"
       id="radialGradient3132"
       gradientUnits="userSpaceOnUse"
       gradientTransform="matrix(2.003784,0,0,1.4,27.98813,-17.4)"
       cx="4.9929786"
       cy="43.5"
       fx="4.9929786"
       fy="43.5"
       r="2.5" />
    <linearGradient
       id="linearGradient3688-166-749">
      <stop
         id="stop2883"
         style="stop-color:#181818;stop-opacity:1"
         offset="0" />
      <stop
         id="stop2885"
         style="stop-color:#181818;stop-opacity:0"
         offset="1" />
    </linearGradient>
    <radialGradient
       inkscape:collect="always"
       xlink:href="#linearGradient3688-464-309"
       id="radialGradient3134"
       gradientUnits="userSpaceOnUse"
       gradientTransform="matrix(2.003784,0,0,1.4,-20.01187,-104.4)"
       cx="4.9929786"
       cy="43.5"
       fx="4.9929786"
       fy="43.5"
       r="2.5" />
    <linearGradient
       id="linearGradient3688-464-309">
      <stop
         id="stop2889"
         style="stop-color:#181818;stop-opacity:1"
         offset="0" />
      <stop
         id="stop2891"
         style="stop-color:#181818;stop-opacity:0"
         offset="1" />
    </linearGradient>
    <linearGradient
       inkscape:collect="always"
       xlink:href="#linearGradient3702-501-757"
       id="linearGradient3136"
       gradientUnits="userSpaceOnUse"
       x1="25.058096"
       y1="47.027729"
       x2="25.058096"
       y2="39.999443" />
    <linearGradient
       id="linearGradient3702-501-757">
      <stop
         id="stop2895"
         style="stop-color:#181818;stop-opacity:0"
         offset="0" />
      <stop
         id="stop2897"
         style="stop-color:#181818;stop-opacity:1"
         offset="0.5" />
      <stop
         id="stop2899"
         style="stop-color:#181818;stop-opacity:0"
         offset="1" />
    </linearGradient>
    <linearGradient
       inkscape:collect="always"
       xlink:href="#linearGradient4536"
       id="linearGradient4542"
       x1="14.801802"
       y1="1010.4072"
       x2="14.801802"
       y2="1028.1376"
       gradientUnits="userSpaceOnUse"
       gradientTransform="translate(-2,21.000034)" />
    <radialGradient
       inkscape:collect="always"
       xlink:href="#linearGradient3771"
       id="radialGradient3777"
       cx="8.4395084"
       cy="1038.224"
       fx="8.4395084"
       fy="1038.224"
       r="8"
       gradientUnits="userSpaceOnUse"
       gradientTransform="matrix(-2.8140091e-6,2.099136,-1.5406902,-2.0653813e-6,1611.3835,1016.0359)" />
    <linearGradient
       inkscape:collect="always"
       xlink:href="#linearGradient3779"
       id="linearGradient3785"
       x1="4.8288288"
       y1="1056.1926"
       x2="4.8288288"
       y2="1036.2902"
       gradientUnits="userSpaceOnUse"
       gradientTransform="translate(2,-5.9999826)" />
    <radialGradient
       inkscape:collect="always"
       xlink:href="#linearGradient3771"
       id="radialGradient3788"
       gradientUnits="userSpaceOnUse"
       gradientTransform="matrix(-1.8033154e-7,2.3063239,-1.7388621,-1.3596168e-7,1817.6303,1014.7854)"
       cx="8.4395084"
       cy="1038.224"
       fx="8.4395084"
       fy="1038.224"
       r="8" />
    <linearGradient
       inkscape:collect="always"
       xlink:href="#linearGradient3779"
       id="linearGradient3797"
       x1="11.648649"
       y1="20.72072"
       x2="11.648649"
       y2="2.3416269"
       gradientUnits="userSpaceOnUse" />
  </defs>
  <sodipodi:namedview
     id="base"
     pagecolor="#ffffff"
     bordercolor="#666666"
     borderopacity="1.0"
     inkscape:pageopacity="0.0"
     inkscape:pageshadow="2"
     inkscape:zoom="13.875"
     inkscape:cx="7.174634"
     inkscape:cy="8.8605883"
     inkscape:document-units="px"
     inkscape:current-layer="layer1"
     showgrid="false"
     inkscape:window-width="1280"
     inkscape:window-height="749"
     inkscape:window-x="0"
     inkscape:window-y="24"
     inkscape:window-maximized="1" />
  <metadata
     id="metadata3152">
    <rdf:RDF>
      <cc:Work
         rdf:about="">
        <dc:format>image/svg+xml</dc:format>
        <dc:type
           rdf:resource="http://purl.org/dc/dcmitype/StillImage" />
        <dc:title />
      </cc:Work>
    </rdf:RDF>
  </metadata>
  <g
     inkscape:label="Livello 1"
     inkscape:groupmode="layer"
     id="layer1"
     transform="translate(0,-1028.3622)">
    <rect
       style="fill:url(#radialGradient3777);fill-opacity:1;stroke:url(#linearGradient3785);stroke-opacity:1"
       id="rect3163"
       width="19"
       height="19"
       x="2.5"
       y="1030.8622"
       rx="1"
       ry="1" />
    <path
       d="M 4.5 3 L 4.5625 3.03125 L 4.53125 3.09375 L 4.34375 3.125 L 4.46875 3.34375 L 4.6875 3.375 L 4.9375 3.25 L 4.78125 3 L 4.5 3 z M 5.125 3 L 5.28125 3.09375 L 5.65625 3 L 5.125 3 z M 5.65625 3 L 5.6875 3.125 L 5.375 3.28125 L 5.1875 3.125 L 5 3.15625 L 5.1875 3.375 L 5.09375 3.4375 L 4.96875 3.3125 L 4.875 3.375 L 4.96875 3.53125 L 5.09375 3.53125 L 5.0625 3.6875 L 4.9375 3.6875 L 4.8125 3.53125 L 4.6875 3.53125 L 4.6875 3.625 L 4.5 3.65625 L 4.5625 3.75 L 4.78125 3.8125 L 5 3.84375 L 5.1875 3.96875 L 5.34375 3.875 L 5.21875 3.75 L 5.375 3.75 L 5.46875 3.65625 L 5.71875 3.625 L 5.71875 3.5625 L 5.59375 3.46875 L 5.59375 3.375 L 5.96875 3.4375 L 6.5 3.25 L 6.28125 3.1875 L 6.34375 3.125 L 6.75 3.125 L 6.8125 3.03125 L 6.71875 3 L 5.65625 3 z M 18.03125 3 L 18.03125 3.03125 L 18.125 3.03125 L 18.15625 3 L 18.03125 3 z M 18.28125 3 L 18.3125 3.03125 L 18.4375 3 L 18.28125 3 z M 18.59375 3 L 18.65625 3.125 L 18.75 3 L 18.59375 3 z M 3.875 3.03125 C 3.8069854 3.0404247 3.7503911 3.0717007 3.6875 3.09375 L 3.84375 3.21875 L 3.90625 3.21875 L 3.90625 3.0625 L 3.875 3.03125 z M 4.125 3.03125 L 4 3.0625 L 4.0625 3.125 L 4 3.25 L 4.0625 3.34375 L 4.25 3.25 L 4.25 3.15625 L 4.125 3.03125 z M 8.40625 3.0625 L 8.1875 3.09375 L 8.15625 3.21875 L 8.375 3.28125 L 8.15625 3.4375 L 8 3.25 L 7.78125 3.1875 L 7.75 3.375 L 7.5 3.375 L 7.4375 3.1875 L 7.09375 3.125 L 6.90625 3.21875 L 6.875 3.34375 L 6.65625 3.3125 L 6.5 3.375 L 6.5 3.53125 L 6.5 3.59375 L 6.25 3.65625 L 6.125 3.5625 L 6.03125 3.71875 L 6.15625 3.84375 L 6.40625 3.8125 L 6.4375 3.90625 L 6.25 4 L 6.0625 3.90625 L 6 4 L 6.09375 4.09375 L 6.0625 4.1875 L 6.1875 4.375 L 6.375 4.3125 L 6.59375 4.28125 L 6.84375 4.5625 L 7 5 L 6.875 5.28125 L 7.0625 5.25 L 7.15625 5.3125 L 7.15625 5.46875 L 6.9375 5.46875 L 7.0625 5.59375 L 7.21875 5.625 L 6.875 6.09375 L 6.84375 6.375 L 6.90625 6.59375 L 6.84375 6.75 L 6.9375 7.03125 L 7.125 7.21875 L 7.1875 7.21875 L 7.28125 7.1875 L 7.3125 7.34375 L 7.375 7.46875 L 7.5 7.4375 L 7.625 7.0625 L 7.9375 6.6875 L 8.40625 6.5 L 8.6875 6.125 L 8.84375 6.1875 L 9.125 6.1875 L 9.34375 5.9375 L 9.625 5.84375 L 9.65625 5.65625 L 9.5 5.5 L 9.34375 5.4375 L 9.25 5.21875 L 9.4375 5.125 L 9.75 5.28125 L 9.875 5.15625 L 9.6875 5.0625 L 10.0625 4.59375 L 10 4.375 L 9.8125 4.375 L 9.875 4.1875 L 10.09375 4.09375 L 10.53125 3.71875 L 10.40625 3.5625 L 9.90625 3.625 L 9.65625 3.875 L 9.8125 3.53125 L 9.65625 3.5 L 9.5625 3.65625 L 9.40625 3.5625 L 9.03125 3.59375 L 9.125 3.4375 L 9.75 3.40625 L 9.59375 3.1875 L 8.9375 3.0625 L 8.65625 3.125 L 8.65625 3.25 L 8.375 3.15625 L 8.40625 3.0625 z M 18.84375 3.09375 L 18.75 3.3125 L 18.84375 3.40625 L 18.28125 3.6875 L 17.8125 4.0625 L 17.53125 4.46875 L 17.53125 4.625 L 17.8125 4.75 L 17.65625 4.875 L 17.34375 4.75 L 17.21875 4.875 L 17 4.625 L 16.96875 4.71875 L 17.1875 5.40625 L 17.25 5.4375 L 17.40625 5.375 L 17.46875 5.40625 L 17.46875 5.5625 L 17.34375 5.5 L 17.25 5.5625 L 17.3125 5.6875 L 17.25 6.03125 L 16.96875 6.03125 L 16.9375 5.9375 L 17.125 5.84375 L 17.15625 5.53125 L 16.96875 5.28125 L 16.875 4.84375 L 16.59375 4.78125 L 16.5625 4.9375 L 16.59375 5.03125 L 16.46875 5.125 L 16.53125 5.4375 L 16.71875 5.5 L 16.75 5.71875 L 16.5625 5.59375 L 16.09375 5.53125 L 16.03125 5.6875 L 15.65625 5.8125 L 15.59375 5.71875 L 15.09375 6 L 15.09375 6.1875 L 14.90625 6.1875 L 14.96875 6.0625 L 14.96875 5.9375 L 14.78125 5.84375 L 14.625 5.90625 L 14.75 6.125 L 14.8125 6.25 L 14.8125 6.34375 L 14.6875 6.3125 L 14.65625 6.3125 L 14.5 6.46875 L 14.59375 6.59375 L 14.25 6.59375 L 14.375 6.71875 L 14.34375 6.78125 L 14.15625 6.78125 L 14.03125 6.6875 L 14 6.4375 L 13.8125 6.375 L 13.8125 6.28125 L 14.21875 6.34375 L 14.46875 6.375 L 14.5625 6.21875 L 14.46875 6.0625 L 13.84375 5.84375 L 13.625 5.875 L 13.625 5.8125 L 13.5625 5.78125 L 13.5625 5.6875 L 13.625 5.6875 L 13.625 5.65625 L 13.4375 5.59375 L 13.15625 5.625 L 13.125 5.75 L 13.0625 5.71875 L 13.03125 5.65625 L 12.90625 5.65625 L 12.875 5.8125 L 12.8125 5.84375 L 12.78125 5.75 L 12.5 6 L 12.5625 6.0625 L 12.4375 6.09375 L 12.21875 6.59375 L 12.125 6.625 L 12.125 6.6875 L 12.21875 6.71875 L 12.1875 6.8125 L 12.0625 6.8125 L 12 6.75 L 11.90625 6.875 L 11.84375 6.90625 L 11.84375 7 L 11.78125 7.03125 L 11.65625 7.0625 L 11.59375 7.25 L 11.65625 7.59375 L 11.6875 7.75 L 11.75 7.78125 L 11.875 7.78125 L 12.0625 7.59375 L 12.125 7.5 L 12.15625 7.65625 L 12.28125 7.4375 L 12.28125 6.84375 L 12.375 6.78125 L 12.40625 6.46875 L 12.71875 6.0625 L 12.71875 6.03125 L 12.84375 6 L 12.90625 5.90625 L 13.125 5.96875 L 13.21875 6.03125 L 13.28125 5.84375 L 13.4375 5.75 L 13.4375 5.78125 L 13.5625 5.90625 L 13.5625 5.9375 L 13.59375 6.09375 L 13.6875 6.09375 L 13.65625 6.34375 L 13.9375 7 L 13.71875 7.3125 L 13.71875 7.375 L 13.8125 7.46875 L 13.71875 7.53125 L 13.65625 7.53125 L 13.6875 7.8125 L 13.75 7.9375 L 13.75 8.03125 L 13.875 8.0625 L 13.75 8.0625 L 13.65625 8.09375 L 13.65625 8.1875 L 13.625 8.1875 L 13.625 8.0625 L 13.375 7.9375 L 13.28125 7.9375 L 13.1875 8.0625 L 13.0625 8.0625 L 13.09375 8.1875 L 13.03125 8.28125 L 13.21875 8.28125 L 13.28125 8.28125 L 13.34375 8.34375 L 13.5 8.34375 L 13.5 8.375 L 13.375 8.375 L 13.40625 8.46875 L 13.40625 8.5625 L 13.40625 8.625 L 13.4375 8.6875 L 13.53125 8.625 L 13.6875 8.625 L 13.78125 8.65625 L 14.0625 8.65625 L 14.125 8.46875 L 14.1875 8.40625 L 14.1875 8.375 L 14.03125 8.125 L 14.21875 8.34375 L 14.21875 8.4375 L 14.15625 8.53125 L 14.28125 8.5 L 14.40625 8.5625 L 14.40625 8.59375 L 14.59375 8.78125 L 15 8.84375 L 15.03125 8.84375 L 15 9.125 L 14.96875 9.125 L 15 8.84375 L 14.5625 8.8125 L 14.40625 8.59375 L 14.28125 8.53125 L 14.15625 8.5625 L 14.09375 8.71875 L 13.78125 8.71875 L 13.6875 8.65625 L 13.5625 8.65625 L 13.4375 8.71875 L 13.4375 8.78125 L 13.46875 8.84375 L 13.375 9.0625 L 13.375 9.15625 L 13.375 9.1875 L 13.40625 9.1875 L 13.71875 9.1875 L 13.8125 9.125 L 13.90625 9.15625 L 14.03125 9.34375 L 13.9375 9.5 L 14.0625 9.53125 L 14.21875 9.375 L 14.3125 9.375 L 14.375 9.4375 L 14.3125 9.53125 L 14.40625 9.6875 L 14.5 9.6875 L 14.5625 9.59375 L 14.65625 9.5625 L 14.65625 9.46875 L 14.46875 9.4375 L 14.46875 9.375 L 14.65625 9.375 L 14.875 9.1875 L 14.84375 9.25 L 14.875 9.3125 L 14.75 9.46875 L 14.6875 9.59375 L 14.78125 9.71875 L 15.0625 9.8125 L 15.1875 9.75 L 15.9375 10.03125 L 15.9375 10.09375 L 15.71875 10 L 15.65625 10.0625 L 15.84375 10.3125 L 15.8125 10.3125 L 15.625 10.0625 L 15.5 10.125 L 15.46875 10.21875 L 15.625 10.34375 L 15.78125 10.375 L 15.78125 10.40625 L 15.625 10.375 L 15.4375 10.25 L 15.46875 10.125 L 15.375 10.125 L 15.21875 10.0625 L 15.125 10.15625 L 14.8125 10.125 L 14.625 10.03125 L 14.4375 10.03125 L 14.4375 10 L 14.21875 10.15625 L 14.03125 10.1875 L 14 10.28125 L 13.78125 10.28125 L 13.6875 10.375 L 13.6875 10.40625 L 13.75 10.46875 L 13.75 10.5 L 13.71875 10.5625 L 13.75 10.625 L 13.8125 10.59375 L 13.90625 10.65625 L 13.875 10.71875 L 13.84375 10.75 L 13.875 10.8125 L 14.09375 10.84375 L 14.21875 10.78125 L 14.21875 10.6875 L 14.28125 10.71875 L 14.46875 10.8125 L 14.625 10.78125 L 14.71875 10.6875 L 14.75 10.71875 L 14.75 10.8125 L 14.75 10.9375 L 14.84375 10.96875 L 14.84375 11.25 L 14.9375 11.25 L 15.0625 11.15625 L 15.09375 11.15625 L 15.34375 10.9375 L 15.40625 10.6875 L 14.90625 10.71875 L 14.84375 10.84375 L 14.8125 10.8125 L 14.875 10.6875 L 15.40625 10.625 L 15.625 10.59375 L 15.5625 10.53125 L 15.5625 10.4375 L 15.59375 10.4375 L 15.59375 10.5 L 15.65625 10.59375 L 15.65625 10.625 L 15.875 10.8125 L 15.84375 10.90625 L 15.78125 10.90625 L 15.78125 11 L 15.90625 11.15625 L 16 11.15625 L 16.21875 11.46875 L 16.34375 11.46875 L 16.4375 11.53125 L 16.4375 11.6875 L 16.8125 11.90625 L 16.96875 11.90625 L 17.03125 11.8125 L 17.15625 11.8125 L 17.21875 11.96875 L 17.625 12.03125 L 17.625 11.875 L 17.75 11.8125 L 17.78125 11.78125 L 17.65625 11.625 L 17.46875 11.4375 L 17.5625 11.3125 L 17.53125 11.28125 L 17.375 11.25 L 17.3125 10.71875 L 17.3125 10.59375 L 16.875 10.4375 L 16.6875 10.46875 L 16.59375 10.59375 L 16.5 10.59375 L 16.46875 10.625 L 16.25 10.59375 L 16 10.40625 L 16 10.375 L 16.0625 10.1875 L 16.1875 10.21875 L 16.15625 10.15625 L 15.96875 10 L 15.96875 9.96875 L 15.8125 9.8125 L 15.8125 9.625 L 15.71875 9.59375 L 15.71875 9.4375 L 15.875 9.25 L 15.59375 9.0625 L 15.625 8.75 L 15.90625 8.5625 L 16.28125 8.59375 L 16.3125 8.6875 L 16.6875 8.71875 L 16.9375 8.5625 L 16.8125 8.40625 L 16.84375 8.15625 L 16.875 8.15625 L 16.84375 8.40625 L 17 8.5625 L 16.6875 8.75 L 16.3125 8.71875 L 16.3125 8.6875 L 16.25 8.625 L 15.9375 8.59375 L 15.65625 8.78125 L 15.65625 9.03125 L 15.875 9.25 L 15.90625 9.25 L 16.0625 9.1875 L 16.25 9.15625 L 16.25 9.4375 L 16.15625 9.4375 L 16.0625 9.5625 L 16.1875 9.75 L 16.34375 9.8125 L 16.34375 9.9375 L 16.40625 9.90625 L 16.4375 9.84375 L 16.53125 9.875 L 16.59375 9.9375 L 16.6875 9.9375 L 16.6875 9.84375 L 16.625 9.65625 L 16.59375 9.46875 L 16.78125 9.40625 L 17.03125 9.4375 L 17.21875 9.59375 L 17.59375 9.5625 L 17.78125 9.875 L 18.03125 9.875 L 18.09375 9.75 L 18.1875 9.75 L 18.1875 9.625 L 18.3125 9.625 L 18.40625 9.6875 L 18.46875 9.53125 L 19.03125 9.625 L 19.125 9.5 L 18.96875 9.28125 L 19.1875 8.8125 L 19.375 8.8125 L 19.5 8.53125 L 19.25 8.5 L 19.09375 8.375 L 18.71875 8.40625 L 18.21875 7.9375 L 18.03125 8.09375 L 17.5 7.84375 L 17.53125 7.8125 L 18.03125 8.0625 L 18.21875 7.90625 L 18.71875 8.375 L 19.125 8.34375 L 19.25 8.46875 L 19.5 8.53125 L 19.53125 8.53125 L 19.625 8.53125 L 19.875 8.1875 L 20.15625 8.3125 L 20.34375 8.34375 L 20.5 8.21875 L 20.34375 8.125 L 20.46875 7.90625 L 20.84375 8.03125 L 20.90625 8.1875 L 21 8.1875 L 21 4 C 21 3.7873981 20.924763 3.5991891 20.8125 3.4375 L 20.6875 3.4375 L 20.75 3.6875 L 20.5625 3.78125 L 20.40625 3.625 L 19.78125 3.75 L 19.53125 3.96875 L 19.53125 4.09375 L 19.375 4.125 L 19.34375 3.96875 L 19.84375 3.53125 L 19.84375 3.25 L 19.53125 3.15625 L 19.09375 3.28125 L 18.9375 3.09375 L 18.84375 3.09375 z M 20.90625 8.1875 L 20.8125 8.0625 L 20.5 7.96875 L 20.40625 8.09375 L 20.5625 8.21875 L 20.34375 8.40625 L 20.15625 8.375 L 19.875 8.25 L 19.65625 8.53125 L 19.71875 8.6875 L 19.84375 8.6875 L 20.09375 9.125 L 20.5625 9.15625 L 20.625 9.34375 L 20.875 9.40625 L 21 9.34375 L 21 8.25 L 20.90625 8.21875 L 20.90625 8.1875 z M 19.53125 8.53125 L 19.375 8.875 L 19.1875 8.875 L 19 9.28125 L 19.1875 9.5 L 18.84375 9.96875 L 18.65625 9.9375 L 18.65625 9.90625 L 18.8125 9.9375 L 19.03125 9.65625 L 18.46875 9.59375 L 18.40625 9.75 L 18.3125 9.65625 L 18.21875 9.65625 L 18.21875 9.75 L 18.21875 9.8125 L 18.5625 9.9375 L 18.25 10.0625 L 18.21875 10.03125 L 18.21875 10 L 18.1875 9.96875 L 18.125 9.96875 L 18.125 9.9375 L 18.1875 9.9375 L 18.28125 10 L 18.46875 9.9375 L 18.1875 9.84375 L 18.1875 9.78125 L 18.125 9.8125 L 18.0625 9.90625 L 17.78125 9.90625 L 17.78125 9.875 L 17.5625 9.625 L 17.21875 9.65625 L 17.03125 9.46875 L 16.78125 9.4375 L 16.625 9.5 L 16.71875 9.84375 L 16.71875 9.96875 L 16.78125 9.96875 L 16.875 9.78125 L 17.125 9.78125 L 17.15625 9.90625 L 17.65625 10.25 L 17.875 10.3125 L 17.90625 10.4375 L 18.03125 10.4375 L 18.03125 10.21875 L 18.0625 10.21875 L 18.0625 10.4375 L 18.125 10.4375 L 18.21875 10.40625 L 18.21875 10.34375 L 18.25 10.34375 L 18.25 10.4375 L 18.125 10.46875 L 17.90625 10.46875 L 17.625 10.75 L 17.34375 10.75 L 17.40625 11.21875 L 17.5625 11.25 L 17.5625 11.3125 L 17.59375 11.34375 L 17.46875 11.4375 L 17.6875 11.59375 L 18.0625 11.4375 L 18.09375 11.28125 L 18.34375 11.125 L 18.4375 10.78125 L 18.46875 10.78125 L 18.375 11.15625 L 18.125 11.3125 L 18.09375 11.46875 L 17.6875 11.625 L 17.8125 11.78125 L 17.78125 11.84375 L 17.65625 11.90625 L 17.65625 12.03125 L 17.8125 12.03125 L 17.84375 11.96875 L 18.15625 11.96875 L 18.40625 12.21875 L 18.4375 12.09375 L 18.625 12.09375 L 18.625 11.96875 L 18.65625 11.96875 L 18.65625 12.125 L 18.46875 12.125 L 18.4375 12.21875 L 18.59375 12.21875 L 18.59375 12.28125 L 18.5 12.34375 L 18.5625 12.5 L 18.71875 12.53125 L 18.8125 12.46875 L 18.84375 12.34375 L 18.90625 12.34375 L 18.96875 12.40625 L 18.9375 12.5625 L 18.90625 12.625 L 18.90625 12.75 L 19.53125 14.0625 L 19.71875 13.96875 L 19.8125 13.59375 L 19.8125 13.125 L 20.40625 12.46875 L 20.40625 12.34375 L 20.53125 12.28125 L 20.53125 12.09375 L 20.40625 11.84375 L 20.46875 11.71875 L 20.5 11.75 L 20.65625 11.84375 L 20.84375 11.875 L 20.875 11.875 L 20.875 11.96875 L 20.78125 12.03125 L 20.8125 12.0625 L 20.9375 12.0625 L 20.9375 12.21875 L 20.90625 12.09375 L 20.78125 12.09375 L 20.78125 12.03125 L 20.78125 12 L 20.84375 11.90625 L 20.84375 11.875 L 20.65625 11.875 L 20.5 11.75 L 20.4375 11.84375 L 20.5625 12.09375 L 20.5625 12.28125 L 20.59375 12.3125 L 20.75 12.3125 L 20.84375 12.25 L 20.90625 12.28125 L 20.90625 12.40625 L 20.96875 12.375 L 20.96875 12.21875 L 21 12.15625 L 21 11.375 L 20.75 11.53125 L 20.75 11.625 L 20.78125 11.6875 L 20.53125 11.6875 L 20.4375 11.5625 L 20.40625 11.5625 L 20.40625 11.71875 L 19.875 11.6875 L 19.53125 11.53125 L 19.53125 11.34375 L 19.3125 11.21875 L 19.28125 10.9375 L 19.15625 10.75 L 18.78125 10.78125 L 18.84375 10.9375 L 18.96875 11.0625 L 19 11.0625 L 18.71875 11.6875 L 18.5 11.6875 L 18.46875 11.78125 L 18.4375 11.78125 L 18.46875 11.65625 L 18.6875 11.65625 L 18.96875 11.0625 L 18.8125 10.96875 L 18.75 10.75 L 19.125 10.71875 L 18.90625 10.40625 L 18.78125 10.375 L 18.75 10.375 L 18.6875 10.21875 L 18.5625 10.1875 L 18.71875 10.1875 L 18.78125 10.34375 L 18.90625 10.375 L 18.90625 10.40625 L 19.34375 10.90625 L 19.34375 11.1875 L 19.53125 11.3125 L 19.75 11.28125 L 20.03125 11.4375 L 20.375 11.53125 L 20.53125 11.5 L 20.71875 11.5 L 21 11.3125 L 21 9.40625 L 20.875 9.46875 L 20.59375 9.375 L 20.53125 9.1875 L 20.0625 9.15625 L 19.8125 8.75 L 19.71875 8.75 L 19.625 8.5625 L 19.53125 8.53125 z M 20.75 11.625 L 20.71875 11.53125 L 20.46875 11.5625 L 20.53125 11.625 L 20.75 11.625 z M 15.78125 10.90625 L 15.78125 10.875 L 15.8125 10.875 L 15.8125 10.8125 L 15.65625 10.625 L 15.4375 10.65625 L 15.375 10.96875 L 15.125 11.1875 L 15.125 11.28125 L 15.375 11.28125 L 15.78125 11.59375 L 16 11.59375 L 16 11.53125 L 16.03125 11.53125 L 16.03125 11.65625 L 16.15625 11.71875 L 16.15625 11.53125 L 16.0625 11.46875 L 16.0625 11.4375 L 16.1875 11.5 L 15.96875 11.1875 L 15.875 11.1875 L 15.75 11 L 15.78125 10.90625 z M 16.15625 11.71875 L 16 11.6875 L 16 11.625 L 15.75 11.625 L 15.375 11.3125 L 15.15625 11.3125 L 15.03125 11.375 L 15.09375 11.4375 L 15.09375 11.53125 L 14.90625 11.6875 L 14.75 11.6875 L 14.75 11.78125 L 14.71875 11.6875 L 14.6875 11.59375 L 14.625 11.375 L 14.59375 11.375 L 14.46875 11.375 L 14.375 11.3125 L 14.3125 11.3125 L 14.1875 11.40625 L 14.09375 11.40625 L 13.90625 11.375 L 13.8125 11.375 L 13.8125 12.53125 L 14.8125 12.53125 L 14.90625 12.40625 L 14.90625 12.21875 L 14.53125 11.78125 L 14.5 11.625 L 14.5 11.53125 L 14.5625 11.53125 L 14.625 11.78125 L 14.71875 11.8125 L 14.75 11.8125 L 15.28125 12.4375 L 15.28125 12.625 L 15.34375 12.6875 L 15.5 12.75 L 15.71875 13.125 L 15.78125 13.3125 L 15.78125 13.46875 L 15.78125 13.5 L 15.71875 13.625 L 15.6875 13.75 L 15.84375 13.75 L 15.84375 13.5625 L 15.90625 13.59375 L 16.84375 13.1875 L 16.875 13.09375 L 16.875 13.0625 L 16.71875 12.8125 L 16.34375 12.9375 L 16.34375 12.90625 L 16.71875 12.78125 L 17 12.625 L 17.0625 12.4375 L 17 12.40625 L 16.59375 12.375 L 16.5625 12.1875 L 16.5625 12.15625 L 16.625 12.15625 L 16.625 11.96875 L 16.59375 11.9375 L 16.53125 11.96875 L 16.5 12.125 L 16.46875 12.125 L 16.1875 11.75 L 16.15625 11.71875 z M 16.5625 12.1875 L 16.625 12.34375 L 17 12.375 L 17.03125 12.09375 L 17.03125 12.375 L 17.09375 12.40625 L 17.03125 12.65625 L 16.75 12.8125 L 16.875 13.0625 L 17.09375 13.0625 L 17.5 12.4375 L 17.5 12.34375 L 17.15625 12.15625 L 17.09375 12.0625 L 17.09375 11.9375 L 17 11.96875 L 16.84375 12.1875 L 16.5625 12.1875 z M 14.8125 12.53125 L 14.8125 12.5625 L 13.8125 12.5625 L 13.84375 12.8125 L 13.75 12.8125 L 13.71875 13.25 L 13.6875 13.25 L 13.6875 12.8125 L 13.65625 12.78125 L 13.78125 12.78125 L 13.78125 11.375 L 13.59375 11.34375 L 13.5 11.21875 L 13.28125 11.21875 L 13.1875 11.3125 L 13.1875 11.375 L 13.25 11.4375 L 13.25 11.5 L 13.09375 11.5625 L 12.8125 11.4375 L 12.71875 11.3125 L 12.40625 11.21875 L 12.28125 11.375 L 12.28125 11.40625 L 12.25 11.40625 L 12.25 11.53125 L 12.21875 11.53125 L 12.1875 11.5625 L 12.1875 12.09375 L 12.25 12.1875 L 12.375 12.21875 L 12.46875 12.34375 L 12.78125 12.40625 L 12.875 12.375 L 12.78125 12.4375 L 12.90625 12.65625 L 12.875 13.09375 L 12.6875 13.28125 L 12.6875 13.40625 L 12.59375 13.46875 L 12.71875 13.5625 L 12.78125 13.59375 L 12.8125 13.59375 L 12.8125 13.84375 L 12.78125 13.84375 L 12.78125 13.59375 L 12.71875 13.59375 L 12.71875 13.71875 L 12.4375 14.25 L 12.40625 14.25 L 12.25 14.28125 L 12.125 14.34375 L 12.09375 14.46875 L 12.21875 14.59375 L 12.21875 14.78125 L 12.4375 14.78125 L 12.4375 14.875 L 12.21875 14.875 L 12.0625 15.125 L 12.375 15.46875 L 12.46875 15.40625 L 12.46875 15.34375 L 12.4375 15.3125 L 12.40625 15.3125 L 12.40625 15.25 L 12.53125 15.1875 L 12.625 15.28125 L 12.75 15.28125 L 12.75 14.875 L 12.59375 14.84375 L 12.5625 14.84375 L 12.5625 14.78125 L 12.59375 14.78125 L 12.90625 14.75 L 12.90625 14.78125 L 12.59375 14.78125 L 12.59375 14.84375 L 12.78125 14.84375 L 12.78125 15.34375 L 12.625 15.3125 L 12.53125 15.25 L 12.4375 15.28125 L 12.4375 15.3125 L 12.5 15.3125 L 12.5 15.4375 L 12.40625 15.5 L 12.40625 15.5625 L 12.53125 15.46875 L 12.59375 15.46875 L 12.59375 15.53125 L 12.625 15.5625 L 12.6875 15.5625 L 12.90625 15.34375 L 12.90625 15.21875 L 12.96875 15.09375 L 13.09375 14.96875 L 13.15625 14.59375 L 13.03125 14.59375 L 13.03125 14.5625 L 13.15625 14.5625 L 13.1875 14.5 L 13.1875 14.46875 L 13.28125 14.40625 L 13.5 14.5625 L 13.65625 14.4375 L 14.15625 14.4375 L 14.21875 14.46875 L 14.4375 14.5 L 13.65625 14.46875 L 13.53125 14.59375 L 13.5 14.5625 L 13.28125 14.4375 L 13.1875 14.5 L 13.125 15 L 13 15.125 L 12.9375 15.21875 L 12.9375 15.375 L 12.6875 15.59375 L 12.625 15.5625 L 12.625 15.59375 L 12.59375 15.59375 L 12.59375 15.53125 L 12.5625 15.5 L 12.53125 15.5 L 12.4375 15.59375 L 12.5 15.6875 L 12.53125 15.6875 L 12.9375 15.65625 L 13.03125 15.78125 L 13.03125 15.875 L 13.0625 15.875 L 13.25 15.875 L 13.3125 15.78125 L 13.375 15.78125 L 13.40625 15.8125 L 13.53125 15.8125 L 13.5625 16.1875 L 13.75 16.21875 L 13.75 16.25 L 14.25 16.46875 L 14.28125 16.53125 L 14.40625 16.53125 L 14.375 16.34375 L 14.21875 16.25 L 14.1875 16.25 L 14.1875 16.125 L 14.28125 15.9375 L 14.46875 15.9375 L 14.375 15.53125 L 14.375 15.5 L 14.4375 15.5 L 14.46875 15.46875 L 14.5 15.3125 L 14.34375 15.3125 L 14.34375 15.40625 L 14.3125 15.375 L 14.3125 15.15625 L 14.5625 14.75 L 14.5625 14.6875 L 14.53125 14.6875 L 14.53125 14.5625 L 14.5625 14.5625 L 14.5625 14.65625 L 14.625 14.6875 L 14.59375 14.78125 L 14.4375 15.03125 L 14.53125 15.15625 L 14.625 15.09375 L 14.8125 15.0625 L 14.84375 15.0625 L 14.875 15 L 14.96875 14.75 L 14.875 14.5625 L 14.875 14.46875 L 14.90625 14.46875 L 14.90625 14.5625 L 15 14.75 L 14.90625 15 L 14.875 15.09375 L 15.5 15.46875 L 15.6875 15.15625 L 15.71875 15.15625 L 16.5625 14.25 L 16.71875 13.8125 L 16.71875 13.65625 L 16.65625 13.625 L 16.5 13.6875 L 16.53125 13.84375 L 16.5 13.96875 L 16.46875 13.96875 L 16.5 13.84375 L 16.46875 13.6875 L 16.0625 13.84375 L 16.03125 13.84375 L 15.875 13.71875 L 15.875 13.8125 L 16.1875 14 L 16.40625 14.03125 L 16.40625 14.0625 L 16.375 14.09375 L 16.15625 14.0625 L 15.875 13.875 L 15.875 13.8125 L 15.84375 13.78125 L 15.65625 13.78125 L 15.65625 13.59375 L 15.40625 13.375 L 15.15625 13.375 L 14.875 14 L 14.84375 14 L 15.09375 13.40625 L 15.09375 13.125 L 15.25 12.90625 L 14.96875 12.4375 L 14.8125 12.53125 z M 14.53125 15.15625 L 14.40625 15.0625 L 14.34375 15.15625 L 14.34375 15.28125 L 14.5 15.28125 L 14.53125 15.1875 L 14.53125 15.15625 z M 14.375 15.53125 L 14.53125 15.96875 L 14.71875 16.0625 L 14.875 16.0625 L 14.875 16.125 L 14.75 16.09375 L 14.8125 16.375 L 14.78125 16.59375 L 14.90625 16.71875 L 14.875 16.875 L 14.90625 16.9375 L 15.0625 16.78125 L 15.0625 16.5625 L 15.09375 16.5625 L 15.09375 16.8125 L 14.90625 17 L 14.84375 16.90625 L 14.84375 16.75 L 14.71875 16.625 L 14.4375 16.75 L 14.6875 16.90625 L 14.71875 16.90625 L 14.71875 17.3125 L 14.53125 17.59375 L 14.53125 17.90625 L 14.65625 18 L 14.875 17.84375 L 14.9375 17.625 L 14.9375 17.25 L 15.3125 16.9375 L 15.375 16.9375 L 15.625 16.71875 L 15.59375 16.25 L 14.96875 16.3125 L 14.96875 16.46875 L 14.9375 16.28125 L 15.5625 16.1875 L 15.4375 15.90625 L 15.40625 15.625 L 15.46875 15.5 L 14.8125 15.09375 L 14.625 15.125 L 14.5625 15.1875 L 14.5625 15.3125 L 14.5 15.46875 L 14.46875 15.53125 L 14.375 15.53125 z M 14.6875 16.90625 L 14.375 16.78125 L 14.28125 16.8125 L 14.125 17.0625 L 13.90625 17.0625 L 13.90625 17.09375 L 14.25 17.5 L 14.5 17.5625 L 14.6875 17.28125 L 14.6875 16.90625 z M 14.21875 16.25 L 14.4375 16.34375 L 14.4375 16.5625 L 14.28125 16.5625 L 14.28125 16.53125 L 14.21875 16.5 L 13.75 16.28125 L 13.75 16.4375 L 13.53125 16.46875 L 13.5 16.8125 L 13.5 16.4375 L 13.71875 16.40625 L 13.71875 16.25 L 13.53125 16.25 L 13.5 15.875 L 13.40625 15.875 L 13.375 15.84375 L 13.3125 15.84375 L 13.25 15.9375 L 13.03125 15.9375 L 12.96875 15.90625 L 13 15.8125 L 12.9375 15.71875 L 12.5 15.71875 L 12.65625 16.21875 L 12.65625 16.375 L 12.4375 16.59375 L 12.40625 16.90625 L 13.125 16.9375 L 12.40625 16.9375 L 12.40625 16.96875 L 12.4375 17.15625 L 12.6875 17.5 L 12.625 17.6875 L 12.625 17.78125 L 12.8125 18.25 L 12.9375 18.25 L 12.9375 18.28125 L 13.03125 18.34375 L 13.21875 18.34375 L 13.25 17.8125 L 13.25 17.5 L 13.375 17.46875 L 13.40625 17.125 L 13.6875 17.09375 L 13.8125 17.03125 L 13.625 17 L 13.59375 17 L 13.5 16.84375 L 13.625 16.96875 L 13.8125 17 L 13.90625 17.03125 L 14.09375 17.03125 L 14.25 16.78125 L 14.75 16.5625 L 14.78125 16.375 L 14.71875 16.125 L 14.46875 15.96875 L 14.3125 16 L 14.21875 16.15625 L 14.21875 16.25 z M 13.8125 17.03125 L 13.71875 17.125 L 13.4375 17.15625 L 13.40625 17.5 L 13.28125 17.53125 L 13.28125 17.84375 L 13.375 17.875 L 13.34375 18.09375 L 13.4375 18.125 L 13.625 17.9375 L 13.875 17.96875 L 13.9375 17.8125 L 14.21875 17.53125 L 13.875 17.125 L 13.875 17.0625 L 13.8125 17.03125 z M 12.9375 18.28125 L 12.84375 18.28125 L 12.9375 18.5625 L 13.09375 18.71875 L 12.96875 18.875 L 13.0625 19.0625 L 13.25 19.125 L 13.375 19 L 13.8125 19 L 13.84375 18.96875 L 14 18.9375 L 14.625 18.3125 L 14.625 18.09375 L 14.5625 18.15625 L 14.5625 18.1875 L 14.46875 18.1875 L 14.34375 18.09375 L 14.375 18.0625 L 14.40625 17.9375 L 14.5 17.90625 L 14.5 17.59375 L 14.28125 17.5625 L 13.96875 17.84375 L 13.90625 18 L 13.65625 17.96875 L 13.4375 18.15625 L 13.3125 18.125 L 13.3125 17.90625 L 13.28125 17.875 L 13.25 18.375 L 13 18.375 L 12.9375 18.28125 z M 14.375 18.0625 L 14.46875 18.15625 L 14.5625 18.15625 L 14.625 18.03125 L 14.53125 17.9375 L 14.4375 17.96875 L 14.375 18.0625 z M 12.125 14.34375 L 12.25 14.25 L 12.40625 14.25 L 12.6875 13.71875 L 12.6875 13.59375 L 12.5625 13.5 L 12.28125 13.59375 L 11.9375 13.59375 L 11.78125 13.5 L 11.65625 13.53125 L 11.59375 13.625 L 11.59375 13.9375 L 11.46875 14.09375 L 11.46875 14.3125 L 11.625 14.3125 L 11.8125 14.5 L 11.90625 14.53125 L 11.96875 14.5 L 12.0625 14.5 L 12.09375 14.34375 L 12.125 14.34375 z M 12.46875 12.34375 L 12.4375 12.34375 L 11.75 12.90625 L 11.625 12.90625 L 11.59375 13.28125 L 11.21875 13.3125 L 11.4375 13.625 L 11.40625 13.65625 L 11.1875 13.3125 L 11.0625 13.34375 L 10.65625 13.625 L 10.59375 13.84375 L 10.53125 13.84375 L 10.34375 13.84375 L 10.28125 13.84375 L 10.28125 14.03125 L 10.25 14.03125 L 10.25 14.0625 L 10.1875 14.15625 L 10.3125 14.3125 L 10.34375 14.5625 L 10.5 14.4375 L 10.71875 14.40625 L 10.90625 14.4375 L 10.84375 14.3125 L 10.8125 14.28125 L 10.78125 14.1875 L 10.8125 13.90625 L 10.84375 13.78125 L 10.875 13.78125 L 10.8125 14.1875 L 10.84375 14.3125 L 10.96875 14.46875 L 11.03125 14.46875 L 11.1875 14.375 L 11.1875 13.84375 L 11.0625 13.78125 L 11.21875 13.8125 L 11.21875 14.34375 L 11.34375 14.28125 L 11.3125 13.90625 L 11.25 13.78125 L 11.28125 13.75 L 11.34375 13.90625 L 11.375 14.28125 L 11.4375 14.28125 L 11.4375 14.0625 L 11.5625 13.90625 L 11.53125 13.65625 L 11.46875 13.65625 L 11.46875 13.625 L 11.53125 13.625 L 11.625 13.5 L 11.78125 13.46875 L 11.9375 13.5625 L 12.28125 13.5625 L 12.53125 13.46875 L 12.625 13.375 L 12.65625 13.28125 L 12.8125 13.09375 L 12.875 12.6875 L 12.75 12.4375 L 12.46875 12.34375 z M 10.25 14.03125 L 10.25 13.84375 L 10.25 13.8125 L 10.15625 13.625 L 9.9375 13.65625 L 9.65625 13.65625 L 9.65625 13.71875 L 9.5 13.84375 L 9.625 14.03125 L 9.84375 14.25 L 10 14.0625 L 9.90625 13.90625 L 9.78125 13.90625 L 9.9375 13.875 L 10.0625 14.0625 L 10.15625 14.125 L 10.21875 14.03125 L 10.25 14.03125 z M 10.0625 14.0625 L 10.03125 14.0625 L 9.875 14.28125 L 10.3125 14.5625 L 10.28125 14.34375 L 10.15625 14.1875 L 10.0625 14.0625 z M 9.9375 13.65625 L 9.9375 13.59375 L 9.8125 13.40625 L 9.8125 13.375 L 9.65625 13.21875 L 9.5625 13.15625 L 9.5 13.1875 L 9.34375 13.28125 L 9.3125 13.34375 L 9.28125 13.40625 L 9.34375 13.4375 L 9.53125 13.4375 L 9.65625 13.40625 L 9.65625 13.46875 L 9.65625 13.5625 L 9.625 13.5625 L 9.375 13.5625 L 9.40625 13.6875 L 9.4375 13.59375 L 9.75 13.625 L 9.78125 13.625 L 9.9375 13.65625 z M 9.8125 13.375 L 9.84375 13.375 L 9.96875 13.28125 L 10.59375 13.25 L 10.4375 12.1875 L 10.59375 12.1875 L 10.28125 11.96875 L 10.28125 12.125 L 9.90625 12.125 L 9.90625 12.40625 L 9.875 12.40625 L 9.875 12.09375 L 10.25 12.09375 L 10.25 11.71875 L 10.625 11.625 L 10.78125 11.375 L 11.03125 11.34375 L 10.96875 10.9375 L 10.5 10.9375 L 10.4375 11.125 L 10.21875 11.21875 L 10.0625 11.6875 L 9.75 11.875 L 9.28125 12.625 L 9.71875 12.625 L 9.75 12.40625 L 9.78125 12.40625 L 9.75 12.625 L 9.71875 12.625 L 9.28125 12.65625 L 9.375 12.75 L 9.34375 13.21875 L 9.46875 13.15625 L 9.5625 13.125 L 9.6875 13.15625 L 9.8125 13.375 z M 10.59375 12.1875 L 10.65625 12.21875 L 11.5 12.875 L 10.65625 12.25 L 10.65625 12.21875 L 10.46875 12.25 L 10.625 13.3125 L 9.96875 13.3125 L 9.84375 13.375 L 9.96875 13.5625 L 9.96875 13.625 L 10.15625 13.625 L 10.1875 13.625 L 10.25 13.8125 L 10.53125 13.8125 L 10.5625 13.8125 L 10.625 13.59375 L 11.03125 13.3125 L 11.5625 13.25 L 11.59375 12.90625 L 11.53125 12.875 L 11.71875 12.875 L 12.4375 12.34375 L 12.34375 12.25 L 12.21875 12.21875 L 12.15625 12.09375 L 12.15625 11.5625 L 12.15625 11.53125 L 12.21875 11.53125 L 12.21875 11.375 L 12.28125 11.375 L 12.375 11.1875 L 12.25 11.15625 L 12.25 11.09375 L 12.28125 11.03125 L 12.28125 10.90625 L 12.25 10.875 L 12.25 10.8125 L 12.28125 10.78125 L 12.28125 10.71875 L 12.1875 10.65625 L 12.1875 10.6875 L 12 10.75 L 12.03125 11.03125 L 12 11.03125 L 11.96875 11.09375 L 12 11.21875 L 12.125 11.34375 L 12.125 11.5 L 12.09375 11.5 L 12.09375 11.375 L 11.96875 11.21875 L 11.9375 11.0625 L 12 11.03125 L 11.96875 10.875 L 11.9375 10.75 L 11.78125 10.71875 L 11.125 10.84375 L 11 10.9375 L 11.09375 11.40625 L 10.8125 11.40625 L 10.65625 11.65625 L 10.28125 11.75 L 10.28125 11.9375 L 10.59375 12.1875 z M 14.625 11.375 L 14.71875 11.59375 L 14.8125 11.25 L 14.8125 11.1875 L 14.71875 11.15625 L 14.6875 11.15625 L 14.625 11.375 z M 14.71875 11.15625 L 14.8125 11.15625 L 14.8125 11 L 14.71875 10.96875 L 14.75 11.03125 L 14.71875 11.15625 z M 15.03125 11.375 L 15.125 11.28125 L 15.09375 11.1875 L 15.0625 11.1875 L 14.96875 11.28125 L 14.84375 11.28125 L 14.75 11.625 L 14.75 11.65625 L 14.875 11.65625 L 15.0625 11.5 L 15.0625 11.46875 L 15 11.375 L 15.03125 11.375 z M 13.375 9.1875 L 13.34375 9.1875 L 13.125 9.28125 L 12.8125 9.28125 L 12.78125 9.375 L 12.78125 9.46875 L 12.84375 9.5 L 13.0625 9.5 L 13.375 9.25 L 13.375 9.1875 z M 13.4375 8.78125 L 13.40625 8.71875 L 13.375 8.65625 L 13.375 8.5625 L 13.375 8.5 L 13.28125 8.34375 L 13.21875 8.34375 L 12.90625 8.3125 L 12.90625 8.25 L 12.84375 8.25 L 12.6875 8.3125 L 12.53125 8.4375 L 12.53125 8.6875 L 12.625 8.8125 L 12.78125 8.90625 L 12.625 8.84375 L 12.5 8.84375 L 12.34375 8.96875 L 12.3125 8.96875 L 12.3125 8.9375 L 12.5 8.84375 L 12.59375 8.8125 L 12.5 8.71875 L 12.5 8.4375 L 12.40625 8.375 L 12.3125 8.34375 L 12.21875 8.40625 L 12.15625 8.375 L 12.09375 8.3125 L 11.96875 8.34375 L 11.96875 8.4375 L 11.84375 8.46875 L 11.875 8.6875 L 11.84375 8.6875 L 11.78125 8.75 L 11.75 8.875 L 11.84375 8.96875 L 11.8125 9.0625 L 11.78125 9.0625 L 11.71875 9.0625 L 11.4375 8.875 L 11.34375 8.90625 L 11.15625 9.09375 L 11.125 9.09375 L 11.0625 9.03125 L 11 9.03125 L 10.96875 9.15625 L 10.71875 9.15625 L 10.71875 9.21875 L 10.90625 9.3125 L 11.09375 9.5 L 11.09375 9.6875 L 11 9.875 L 11.21875 9.96875 L 11.4375 9.96875 L 11.53125 9.90625 L 11.65625 9.90625 L 11.71875 9.9375 L 11.84375 9.9375 L 11.9375 9.8125 L 11.84375 9.71875 L 11.84375 9.65625 L 11.84375 9.5625 L 11.8125 9.5 L 11.71875 9.53125 L 11.71875 9.46875 L 11.875 9.25 L 11.875 9.125 L 11.90625 9.125 L 11.9375 9.25 L 12.0625 9.28125 L 12.09375 9.34375 L 12.15625 9.34375 L 12.1875 9.28125 L 12.3125 9.28125 L 12.46875 9.21875 L 12.46875 9.125 L 12.5 9.125 L 12.5 9.21875 L 12.46875 9.21875 L 12.34375 9.3125 L 12.21875 9.3125 L 12.1875 9.34375 L 12.1875 9.40625 L 12.28125 9.375 L 12.375 9.375 L 12.4375 9.4375 L 12.625 9.40625 L 12.75 9.34375 L 12.78125 9.28125 L 12.78125 9.21875 L 12.8125 9.21875 L 12.8125 9.25 L 13.125 9.25 L 13.34375 9.15625 L 13.34375 9.0625 L 13.28125 9.09375 L 13.21875 9.0625 L 13.1875 9.0625 L 13.09375 9.09375 L 12.96875 9.0625 L 12.78125 9.1875 L 12.9375 9.03125 L 12.96875 9.03125 L 13.09375 9.0625 L 13.1875 9.03125 L 13.21875 9.03125 L 13.28125 9.0625 L 13.34375 9.03125 L 13.40625 8.90625 L 13.4375 8.84375 L 13.4375 8.78125 z M 11.8125 9.5 L 11.875 9.53125 L 11.96875 9.5 L 12.0625 9.5625 L 12.0625 9.59375 L 11.96875 9.53125 L 11.875 9.5625 L 11.875 9.625 L 11.875 9.6875 L 11.96875 9.8125 L 12.09375 9.8125 L 12.4375 10.15625 L 12.625 10.21875 L 12.75 10.34375 L 12.78125 10.59375 L 12.84375 10.5625 L 12.875 10.40625 L 12.875 10.3125 L 12.96875 10.3125 L 12.96875 10.25 L 12.71875 10.125 L 12.46875 9.875 L 12.375 9.71875 L 12.34375 9.59375 L 12.46875 9.5625 L 12.4375 9.46875 L 12.34375 9.40625 L 12.28125 9.40625 L 12.1875 9.4375 L 12.09375 9.53125 L 12.15625 9.40625 L 12.15625 9.375 L 12.0625 9.375 L 12.03125 9.3125 L 11.90625 9.28125 L 11.75 9.46875 L 11.8125 9.46875 L 11.8125 9.5 z M 11 9.875 L 10.96875 9.875 L 10.46875 9.875 L 10.375 9.84375 L 10.3125 9.84375 L 10.28125 9.96875 L 10.28125 10.09375 L 10.46875 10.09375 L 10.5 10.1875 L 10.40625 10.65625 L 10.40625 10.71875 L 10.5625 10.8125 L 10.71875 10.8125 L 11 10.71875 L 11.15625 10.53125 L 11.15625 10.34375 L 11.4375 10.125 L 11.4375 10 L 11.21875 10 L 11 9.875 z M 10.40625 10.71875 L 10.375 10.65625 L 10.46875 10.1875 L 10.4375 10.125 L 10.28125 10.125 L 10.28125 10.46875 L 10.1875 10.53125 L 10.21875 10.5625 L 10.25 10.65625 L 10.21875 10.75 L 10.28125 10.75 L 10.40625 10.75 L 10.40625 10.71875 z M 11.84375 8.6875 L 11.8125 8.46875 L 11.625 8.5625 L 11.65625 8.59375 L 11.65625 8.6875 L 11.625 8.65625 L 11.59375 8.59375 L 11.5 8.75 L 11.65625 8.78125 L 11.6875 8.84375 L 11.71875 8.84375 L 11.75 8.71875 L 11.84375 8.6875 z M 11.6875 8.84375 L 11.625 8.8125 L 11.46875 8.78125 L 11.4375 8.84375 L 11.71875 9.03125 L 11.78125 9.03125 L 11.78125 8.96875 L 11.71875 8.875 L 11.6875 8.875 L 11.6875 8.84375 z M 13.28125 7.9375 L 13.28125 7.90625 L 13.21875 7.8125 L 13.15625 7.8125 L 13.03125 7.9375 L 13.03125 8 L 13.09375 8.03125 L 13.15625 8.03125 L 13.25 7.9375 L 13.28125 7.9375 z M 13.625 8.0625 L 13.75 8.03125 L 13.71875 7.9375 L 13.65625 7.8125 L 13.375 7.78125 L 13.40625 7.90625 L 13.625 8.0625 z M 13.71875 7.3125 L 13.90625 7 L 13.75 6.65625 L 13.625 6.34375 L 13.65625 6.125 L 13.5625 6.125 L 13.53125 5.96875 L 13.4375 5.78125 L 13.3125 5.875 L 13.25 6.0625 L 13.21875 6.03125 L 13.125 6 L 12.9375 5.9375 L 12.875 6 L 12.96875 6.0625 L 13.09375 6.0625 L 13.09375 6.09375 L 13.1875 6.21875 L 13.21875 6.5 L 13.28125 6.53125 L 13.34375 6.625 L 13.28125 6.6875 L 13.03125 6.96875 L 13 7.09375 L 13.0625 7.3125 L 13.25 7.4375 L 13.5 7.34375 L 13.71875 7.3125 z M 13.09375 6.09375 L 12.9375 6.09375 L 12.875 6.03125 L 12.71875 6.0625 L 12.4375 6.46875 L 12.40625 6.8125 L 12.3125 6.875 L 12.3125 7.46875 L 12.15625 7.71875 L 12.34375 8 L 12.375 8.1875 L 12.46875 8.1875 L 12.5 8.09375 L 12.6875 8.03125 L 12.6875 7.71875 L 12.78125 7.625 L 12.84375 7.53125 L 12.875 7.4375 L 12.6875 7.3125 L 12.6875 7.125 L 12.78125 6.96875 L 12.84375 6.9375 L 13 6.75 L 13 6.625 L 13.1875 6.5 L 13.15625 6.21875 L 13.09375 6.09375 z M 15.71875 3.25 L 15.65625 3.34375 L 15.6875 3.375 L 15.71875 3.46875 L 15.8125 3.40625 L 15.8125 3.34375 L 15.8125 3.28125 L 15.71875 3.25 z M 15.09375 3.375 L 15.0625 3.40625 L 15.0625 3.5 L 15.125 3.53125 L 15.21875 3.53125 L 15.28125 3.46875 L 15.28125 3.40625 L 15.21875 3.40625 L 15.15625 3.40625 L 15.09375 3.375 z M 15.5 3.375 L 15.4375 3.40625 L 15.46875 3.5 L 15.5625 3.53125 L 15.625 3.5 L 15.59375 3.40625 L 15.5 3.375 z M 4.03125 3.46875 L 3.9375 3.5 L 3.96875 3.625 L 4.125 3.75 L 4.125 3.84375 L 4.09375 3.875 L 4.125 4.0625 L 4.78125 4.28125 L 4.9375 4.34375 L 5.125 4.1875 L 4.90625 4 L 4.71875 4.0625 L 4.4375 4.03125 L 4.34375 3.9375 L 4.3125 3.65625 L 4.15625 3.5625 L 4.03125 3.46875 z M 14.78125 3.46875 L 14.6875 3.53125 L 14.59375 3.53125 L 14.5625 3.59375 L 14.5625 3.6875 L 14.625 3.75 L 14.71875 3.75 L 14.8125 3.6875 L 14.8125 3.59375 L 14.875 3.5 L 14.78125 3.46875 z M 3.15625 3.5 C 3.132739 3.5394012 3.1117516 3.5822978 3.09375 3.625 L 3.1875 3.5625 L 3.15625 3.5 z M 3.71875 3.53125 L 3.53125 3.5625 L 3.40625 3.65625 L 3.625 3.65625 L 3.5625 3.8125 L 3.625 3.875 L 3.65625 3.875 L 3.8125 3.65625 L 3.71875 3.53125 z M 12.5625 3.78125 L 12.46875 3.90625 L 12.53125 4 L 12.65625 4 L 12.71875 4.0625 L 12.84375 4.15625 L 13.03125 4.0625 L 13.15625 3.9375 L 13.09375 3.875 L 13 3.8125 L 12.90625 3.875 L 12.84375 3.8125 L 12.78125 3.8125 L 12.75 3.9375 L 12.65625 3.84375 L 12.65625 3.78125 L 12.5625 3.78125 z M 3.84375 3.84375 L 3.78125 3.9375 L 3.96875 4 L 4.03125 3.9375 L 3.84375 3.84375 z M 12.4375 4 L 12.28125 4.0625 L 12.03125 4.0625 L 12 4.21875 L 12.15625 4.34375 L 12.21875 4.34375 L 12.28125 4.1875 L 12.375 4.25 L 12.3125 4.34375 L 12.28125 4.5 L 12.34375 4.59375 L 12.5 4.375 L 12.65625 4.15625 L 12.59375 4.09375 L 12.5 4.0625 L 12.4375 4 z M 16.21875 4 L 16.1875 4.09375 L 16.03125 4.21875 L 15.71875 4.28125 L 15.4375 4.71875 L 15.40625 4.84375 L 15.65625 4.9375 L 15.71875 4.75 L 15.78125 4.53125 L 16 4.40625 L 16.15625 4.28125 L 16.28125 4.21875 L 16.34375 4.21875 L 16.34375 4.03125 L 16.21875 4 z M 3.375 4.0625 L 3.3125 4.21875 L 3.1875 4.15625 L 3.125 4.25 L 3.25 4.4375 L 3.25 4.59375 L 3.53125 4.4375 L 3.53125 4.21875 L 3.625 4.125 L 3.53125 4.0625 L 3.375 4.0625 z M 3.84375 4.125 L 3.65625 4.28125 L 3.71875 4.46875 L 3.8125 4.46875 L 3.875 4.375 L 3.9375 4.4375 L 4.03125 4.4375 L 4.25 4.25 L 3.84375 4.125 z M 12.84375 4.25 L 12.75 4.34375 L 12.65625 4.40625 L 12.71875 4.46875 L 12.78125 4.5 L 12.90625 4.4375 L 12.9375 4.375 L 12.90625 4.28125 L 12.84375 4.25 z M 4.40625 4.34375 L 4.1875 4.4375 L 4.0625 4.59375 L 4.09375 5.03125 L 4.46875 5.0625 L 4.8125 5.21875 L 5.0625 5.5 L 5.25 5.5 L 5.1875 5.78125 L 5.03125 6.0625 L 4.84375 6.125 L 4.6875 6.125 L 4.625 6.0625 L 4.53125 6.1875 L 4.5625 6.34375 L 4.71875 6.34375 L 4.90625 6.25 L 5.03125 6.65625 L 5.4375 6.90625 L 5.6875 6.5625 L 5.46875 6.1875 L 5.59375 6.0625 L 5.78125 6.34375 L 6.09375 6.0625 L 6.03125 5.9375 L 5.8125 6 L 5.65625 5.59375 L 5.8125 5.34375 L 5.53125 5.03125 L 5.375 5.15625 L 5.21875 4.8125 L 4.875 4.84375 L 4.8125 4.4375 L 4.53125 4.625 L 4.5 4.84375 L 4.375 4.84375 L 4.375 4.65625 L 4.59375 4.34375 L 4.40625 4.34375 z M 4.96875 4.5 L 4.90625 4.59375 L 4.96875 4.6875 L 5.25 4.71875 L 5.0625 4.53125 L 4.96875 4.5 z M 3.65625 4.5625 L 3.4375 4.6875 L 3.40625 4.8125 L 3.5 4.96875 L 3.5 5.1875 L 3.3125 5.34375 L 3.21875 5.46875 L 3.21875 5.34375 L 3.375 5.0625 L 3.3125 4.90625 L 3.125 5 L 3.125 5.1875 L 3.03125 5.3125 L 3 5.3125 L 3 6.46875 L 3.3125 6.1875 L 3.625 6.125 L 3.71875 5.96875 L 3.6875 5.84375 L 4.03125 5.78125 L 4.25 5.875 L 4.46875 5.75 L 4.53125 5.34375 L 4.34375 5.125 L 4.09375 5.5 L 3.90625 5.46875 L 4.03125 5.25 L 3.9375 5.1875 L 3.78125 5.34375 L 3.75 4.65625 L 3.65625 4.5625 z M 15.34375 4.96875 L 15.34375 5.125 L 15.25 5.1875 L 15.25 5.25 L 15.3125 5.34375 L 15.5 5.375 L 15.59375 5.46875 L 15.6875 5.46875 L 15.75 5.34375 L 15.59375 5.1875 L 15.53125 5 L 15.34375 4.96875 z M 9.53125 5.28125 L 9.46875 5.34375 L 9.5 5.40625 L 9.6875 5.5 L 9.6875 5.34375 L 9.53125 5.28125 z M 6.90625 5.5625 L 6.8125 5.59375 L 6.78125 5.65625 L 6.875 5.75 L 6.9375 5.75 L 6.96875 5.65625 L 6.90625 5.5625 z M 3.9375 5.90625 L 3.78125 6.125 L 3.75 6.34375 L 3.90625 6.25 L 4.0625 6.25 L 4.1875 6.375 L 4.3125 6.28125 L 3.9375 5.90625 z M 9.28125 6.46875 L 9.15625 6.53125 L 9.09375 6.625 L 9.09375 6.65625 L 9.1875 6.65625 L 9.1875 6.75 L 9.15625 6.78125 L 9.15625 6.8125 L 9.28125 6.84375 L 9.28125 6.96875 L 9.4375 7 L 9.53125 7.03125 L 9.625 7.03125 L 9.8125 6.9375 L 9.96875 6.75 L 9.96875 6.625 L 9.875 6.5625 L 9.8125 6.5 L 9.78125 6.53125 L 9.71875 6.59375 L 9.65625 6.5625 L 9.625 6.5 L 9.53125 6.53125 L 9.4375 6.59375 L 9.375 6.6875 L 9.34375 6.65625 L 9.34375 6.5625 L 9.375 6.5625 L 9.34375 6.5 L 9.28125 6.46875 z M 4.5 6.59375 L 4.21875 7.21875 L 4.1875 7.53125 L 4.0625 7.78125 L 3.84375 7.78125 L 3.8125 8.15625 L 3.65625 8.375 L 3.53125 8.28125 L 3.5625 8.15625 L 3.65625 7.71875 L 3.21875 7.53125 L 3 7.3125 L 3 9.0625 L 3.03125 9.125 L 3.1875 9.25 L 3 9.53125 L 3 9.71875 L 3.5 9.5625 L 3.875 9.28125 L 4.34375 9.28125 L 4.375 9.125 L 4.40625 9.125 L 4.5625 9.03125 L 4.625 9.0625 L 4.65625 9.40625 L 4.875 9.3125 L 4.6875 9.53125 L 4.71875 9.625 L 4.875 9.625 L 4.96875 9.46875 L 5.21875 9.46875 L 5.34375 9.25 L 5.25 9.25 L 5.1875 9.3125 L 5.09375 9.34375 L 4.96875 9.28125 L 4.96875 9.09375 L 5.03125 8.875 L 4.96875 8.8125 L 4.71875 8.875 L 4.53125 8.90625 L 4.84375 8.65625 L 5.0625 8.65625 L 5.4375 8.75 L 5.625 8.5625 L 6 8.46875 L 6 8.25 L 5.65625 7.8125 L 5.53125 7.125 L 5.15625 7.40625 L 5 7.3125 L 5.09375 7.03125 L 4.90625 6.75 L 4.5 6.59375 z M 4.40625 9.125 L 4.40625 9.3125 L 3.90625 9.34375 L 3.53125 9.59375 L 3 9.78125 L 3 10.90625 L 3.1875 10.75 L 3.46875 10.6875 L 3.4375 10.40625 L 3.84375 9.9375 L 4.25 9.875 L 4.1875 9.65625 L 4.59375 9.40625 L 4.59375 9.09375 L 4.5625 9.09375 L 4.40625 9.125 z M 3.03125 9.125 L 3 9.125 L 3 9.4375 L 3.125 9.25 L 3.03125 9.125 z M 13.40625 7.5 L 13.40625 7.53125 L 13.28125 7.59375 L 13.28125 7.65625 L 13.375 7.75 L 13.65625 7.78125 L 13.625 7.53125 L 13.40625 7.5 z M 10.8125 7.6875 L 10.65625 7.8125 L 10.59375 8.09375 L 10.65625 8.0625 L 10.65625 8.25 L 10.71875 8.28125 L 10.84375 8.3125 L 10.875 8.53125 L 10.75 8.53125 L 10.71875 8.65625 L 10.65625 8.78125 L 10.78125 8.78125 L 10.8125 8.8125 L 10.53125 8.96875 L 10.65625 9.03125 L 10.9375 8.90625 L 11.125 8.90625 L 11.21875 8.875 L 11.28125 8.8125 L 11.21875 8.78125 L 11.21875 8.75 L 11.3125 8.71875 L 11.3125 8.625 L 11.25 8.5625 L 11.15625 8.5 L 11.0625 8.34375 L 10.96875 8.15625 L 10.96875 8 L 11 7.96875 L 11 7.875 L 10.84375 7.875 L 10.8125 7.84375 L 10.875 7.75 L 10.8125 7.6875 z M 13.15625 7.6875 L 13.125 7.71875 L 13.15625 7.75 L 13.21875 7.75 L 13.25 7.71875 L 13.21875 7.6875 L 13.15625 7.6875 z M 12.90625 7.78125 L 12.8125 7.84375 L 12.84375 7.9375 L 12.9375 7.875 L 12.90625 7.78125 z M 12.0625 7.8125 L 11.90625 8 L 11.90625 8.125 L 11.96875 8.3125 L 12.09375 8.28125 L 12.0625 8.125 L 12.15625 8.03125 L 12.15625 7.96875 L 12.09375 7.8125 L 12.0625 7.8125 z M 12.1875 8.125 L 12.15625 8.1875 L 12.15625 8.25 L 12.28125 8.25 L 12.28125 8.15625 L 12.25 8.125 L 12.1875 8.125 z M 10.59375 8.1875 L 10.4375 8.21875 L 10.4375 8.34375 L 10.53125 8.375 L 10.625 8.375 L 10.65625 8.3125 L 10.59375 8.1875 z M 10.4375 8.34375 L 10.40625 8.34375 L 10.4375 8.21875 L 10.375 8.34375 L 10.21875 8.34375 L 10.21875 8.46875 L 10.25 8.5625 L 10.09375 8.65625 L 10.09375 8.6875 L 10.1875 8.75 L 10.28125 8.75 L 10.59375 8.625 L 10.625 8.40625 L 10.53125 8.40625 L 10.4375 8.34375 z M 5.90625 8.59375 L 5.5 8.96875 L 5.5625 9.0625 L 6.0625 9.25 L 6.125 9.125 L 6.09375 8.90625 L 5.90625 8.9375 L 5.8125 8.84375 L 5.96875 8.6875 L 5.90625 8.59375 z M 13.8125 9.15625 L 13.75 9.21875 L 13.875 9.40625 L 13.875 9.5 L 13.90625 9.5 L 14 9.34375 L 13.875 9.1875 L 13.8125 9.15625 z M 13.4375 9.21875 L 13.40625 9.28125 L 13.1875 9.46875 L 13.375 9.71875 L 13.5 9.8125 L 13.71875 9.8125 L 13.78125 9.78125 L 13.78125 9.75 L 13.875 9.75 L 13.9375 9.78125 L 14.0625 9.65625 L 14.0625 9.5625 L 13.90625 9.53125 L 13.84375 9.53125 L 13.84375 9.40625 L 13.71875 9.25 L 13.4375 9.21875 z M 13.78125 9.78125 L 13.75 9.84375 L 13.5 9.84375 L 13.40625 9.78125 L 13.40625 9.96875 L 13.46875 10.125 L 13.71875 10.125 L 13.8125 10.03125 L 13.9375 10 L 13.90625 9.875 L 13.9375 9.8125 L 13.875 9.78125 L 13.78125 9.78125 z M 13.46875 10.125 L 13.4375 10.125 L 13.3125 10.21875 L 13.21875 10.375 L 13.21875 10.40625 L 13.375 10.5 L 13.46875 10.53125 L 13.4375 10.59375 L 13.3125 10.59375 L 13.3125 10.65625 L 13.34375 10.71875 L 13.46875 10.78125 L 13.5 10.78125 L 13.5 10.65625 L 13.59375 10.5625 L 13.375 10.3125 L 13.40625 10.25 L 13.46875 10.25 L 13.53125 10.3125 L 13.5625 10.28125 L 13.59375 10.21875 L 13.8125 10.21875 L 13.8125 10.09375 L 13.71875 10.15625 L 13.46875 10.125 z M 13.4375 10.125 L 13.375 10 L 13.25 10.0625 L 13.25 10.15625 L 13.28125 10.1875 L 13.4375 10.125 z M 12.75 9.375 L 12.65625 9.4375 L 12.46875 9.46875 L 12.5 9.59375 L 12.625 9.59375 L 12.75 9.5 L 12.75 9.375 z M 12.75 9.5 L 12.65625 9.625 L 12.5 9.625 L 12.5 9.71875 L 12.5625 9.71875 L 12.59375 9.6875 L 12.625 9.71875 L 12.6875 9.875 L 12.9375 10 L 12.96875 9.96875 L 12.6875 9.6875 L 12.71875 9.625 L 13 9.625 L 13.03125 9.53125 L 12.84375 9.53125 L 12.78125 9.5 L 12.75 9.5 z M 13.15625 9.5 L 13.09375 9.53125 L 13.0625 9.53125 L 13.03125 9.625 L 13.125 9.71875 L 13.125 9.8125 L 13.09375 9.8125 L 13.09375 9.75 L 13 9.65625 L 12.75 9.65625 L 12.75 9.6875 L 13 9.9375 L 13 9.96875 L 13.03125 10.03125 L 13.09375 10.03125 L 13.09375 10.0625 L 13.09375 10.25 L 13.15625 10.34375 L 13.1875 10.34375 L 13.25 10.21875 L 13.21875 10.1875 L 13.21875 10.0625 L 13.21875 10.03125 L 13.375 9.96875 L 13.34375 9.75 L 13.15625 9.5 z M 15.1875 9.78125 L 15.09375 9.84375 L 15.21875 10.03125 L 15.375 10.09375 L 15.46875 10.09375 L 15.625 10.03125 L 15.6875 9.96875 L 15.1875 9.78125 z M 16.90625 9.8125 L 16.8125 10 L 16.71875 10 L 16.5625 10 L 16.53125 10.09375 L 16.375 10.09375 L 16.375 10.21875 L 16.5625 10.34375 L 16.5 10.5 L 16.5 10.5625 L 16.5625 10.5625 L 16.65625 10.4375 L 16.875 10.40625 L 17.34375 10.5625 L 17.34375 10.6875 L 17.59375 10.71875 L 17.875 10.4375 L 17.84375 10.34375 L 17.65625 10.28125 L 17.125 9.9375 L 17.09375 9.8125 L 16.90625 9.8125 z M 12.09375 9.96875 L 12.03125 10.03125 L 12.03125 10.09375 L 12.0625 10.15625 L 12.09375 10.15625 L 12.125 10.03125 L 12.09375 9.96875 z M 13.9375 10.03125 L 13.84375 10.0625 L 13.84375 10.21875 L 13.96875 10.15625 L 14 10.125 L 14 10.0625 L 13.9375 10.03125 z M 18.125 10.0625 L 18.15625 10.0625 L 18.15625 10.09375 L 18.21875 10.09375 L 18.40625 10.125 L 18.53125 10.09375 L 18.53125 10.125 L 18.5 10.125 L 18.40625 10.15625 L 18.1875 10.125 L 18.15625 10.09375 L 18.125 10.09375 L 18.125 10.0625 z M 12.09375 10.21875 L 12 10.25 L 12 10.46875 L 12.09375 10.46875 L 12.15625 10.40625 L 12.15625 10.21875 L 12.09375 10.21875 z M 18.34375 10.28125 L 18.40625 10.3125 L 18.40625 10.4375 L 18.5 10.4375 L 18.53125 10.375 L 18.53125 10.34375 L 18.625 10.34375 L 18.6875 10.34375 L 18.71875 10.40625 L 18.75 10.40625 L 18.75 10.4375 L 18.71875 10.4375 L 18.5 10.5625 L 18.5625 10.6875 L 18.53125 10.6875 L 18.4375 10.5625 L 18.6875 10.40625 L 18.65625 10.375 L 18.53125 10.375 L 18.53125 10.46875 L 18.375 10.46875 L 18.375 10.34375 L 18.34375 10.28125 z M 8.3125 10.3125 L 8.25 10.375 L 8.3125 10.40625 L 8.40625 10.375 L 8.3125 10.3125 z M 8.03125 10.34375 L 8 10.40625 L 8.09375 10.46875 L 8.09375 10.375 L 8.03125 10.34375 z M 11.40625 10.375 L 11.40625 10.4375 L 11.5 10.4375 L 11.53125 10.40625 L 11.46875 10.375 L 11.40625 10.375 z M 8.375 10.46875 L 8.34375 10.5625 L 8.375 10.625 L 8.4375 10.5625 L 8.375 10.46875 z M 12.59375 10.5625 L 12.40625 10.59375 L 12.40625 10.65625 L 12.59375 10.71875 L 12.625 10.75 L 12.65625 10.78125 L 12.65625 10.59375 L 12.59375 10.5625 z M 8.625 10.65625 L 8.59375 10.6875 L 8.625 10.71875 L 8.71875 10.6875 L 8.625 10.65625 z M 14.625 10.84375 L 14.5 10.90625 L 14.40625 10.9375 L 14.40625 11 L 14.4375 11.03125 L 14.53125 11.03125 L 14.65625 10.875 L 14.625 10.84375 z M 12.65625 10.875 L 12.59375 10.90625 L 12.59375 10.96875 L 12.65625 10.96875 L 12.6875 10.96875 L 12.65625 10.875 z M 13.59375 10.875 L 13.5625 10.90625 L 13.59375 10.9375 L 13.65625 10.96875 L 13.8125 10.96875 L 13.84375 10.90625 L 13.78125 10.90625 L 13.6875 10.90625 L 13.65625 10.875 L 13.59375 10.875 z M 9.40625 11.09375 L 9.375 11.15625 L 9.40625 11.21875 L 9.46875 11.1875 L 9.40625 11.09375 z M 19.75 11.3125 L 19.5625 11.34375 L 19.5625 11.5 L 19.875 11.65625 L 20.375 11.6875 L 20.375 11.5625 L 20.03125 11.46875 L 19.75 11.3125 z M 3 11.71875 L 3 11.78125 L 3.03125 11.84375 L 3.09375 11.875 L 3.125 11.78125 L 3.0625 11.71875 L 3 11.71875 z M 9.28125 11.71875 L 9.21875 11.75 L 9.28125 11.8125 L 9.34375 11.71875 L 9.28125 11.71875 z M 9.6875 11.75 L 9.625 11.8125 L 9.65625 11.84375 L 9.6875 11.75 z M 9.375 11.78125 L 9.4375 11.84375 L 9.5 11.84375 L 9.46875 11.78125 L 9.375 11.78125 z M 3.09375 11.90625 L 3.0625 11.9375 L 3.09375 12.0625 L 3.1875 12.09375 L 3.1875 12.03125 L 3.15625 12 L 3.09375 11.90625 z M 3 12.125 L 3 12.25 L 3.03125 12.1875 L 3 12.125 z M 3.15625 12.1875 L 3.15625 12.21875 L 3.21875 12.3125 L 3.25 12.25 L 3.21875 12.1875 L 3.15625 12.1875 z M 21 12.40625 L 20.9375 12.4375 L 21 12.5 L 21 12.40625 z M 3 12.4375 L 3 12.65625 L 3.15625 12.59375 L 3.21875 12.53125 L 3.125 12.5 L 3 12.4375 z M 3.34375 12.59375 L 3.28125 12.65625 L 3.375 12.6875 L 3.375 12.78125 L 3.21875 12.8125 L 3.21875 12.90625 L 3.28125 12.90625 L 3.3125 12.84375 L 3.46875 12.875 L 3.5 12.875 L 3.53125 12.9375 L 3.5625 12.875 L 3.6875 12.84375 L 3.8125 12.875 L 3.8125 12.78125 L 3.625 12.65625 L 3.59375 12.65625 L 3.5 12.625 L 3.34375 12.59375 z M 4.03125 12.78125 L 3.9375 12.84375 L 4 12.875 L 4.125 12.90625 L 4.125 12.8125 L 4.03125 12.78125 z M 4.34375 12.90625 L 4.28125 12.9375 L 4.3125 13 L 4.34375 12.9375 L 4.34375 12.90625 z M 15.28125 12.9375 L 15.125 13.125 L 15.125 13.34375 L 15.4375 13.34375 L 15.6875 13.5625 L 15.75 13.5 L 15.40625 13.21875 L 15.3125 12.96875 L 15.28125 12.9375 z M 4.4375 12.96875 L 4.40625 13.03125 L 4.4375 13.09375 L 4.5 13.0625 L 4.4375 12.96875 z M 15.875 12.96875 L 16.125 13.125 L 16.125 13.15625 L 15.875 13 L 15.875 12.96875 z M 4.5625 13.15625 L 4.5 13.21875 L 4.53125 13.28125 L 4.59375 13.25 L 4.5625 13.15625 z M 8.625 13.1875 L 8.53125 13.21875 L 8.59375 13.28125 L 8.65625 13.25 L 8.625 13.1875 z M 8.8125 13.28125 L 8.75 13.3125 L 8.78125 13.375 L 8.875 13.34375 L 8.8125 13.28125 z M 4.5625 13.3125 L 4.53125 13.375 L 4.5625 13.4375 L 4.625 13.40625 L 4.5625 13.3125 z M 13.5625 13.375 L 13.59375 13.375 L 13.59375 13.5625 L 13.65625 13.75 L 13.65625 13.78125 L 13.5 13.78125 L 13.21875 14.03125 L 13.21875 14.15625 L 13.03125 14.125 L 13 14.1875 L 12.875 14.15625 L 12.84375 14.1875 L 12.75 14.40625 L 12.78125 14.46875 L 12.96875 14.65625 L 12.9375 14.6875 L 12.75 14.46875 L 12.71875 14.40625 L 12.84375 14.1875 L 12.75 14.03125 L 12.71875 13.96875 L 12.6875 13.96875 L 12.6875 13.90625 L 12.71875 13.90625 L 12.71875 13.96875 L 12.78125 14 L 12.875 14.15625 L 12.96875 14.15625 L 13 14.125 L 13.03125 14.125 L 13.1875 14.125 L 13.1875 14.03125 L 13.21875 14.03125 L 13.46875 13.75 L 13.65625 13.75 L 13.5625 13.59375 L 13.5625 13.375 z M 8.6875 13.40625 L 8.625 13.4375 L 8.6875 13.53125 L 8.75 13.5 L 8.6875 13.40625 z M 9.625 13.4375 L 9.5625 13.46875 L 9.375 13.5 L 9.34375 13.53125 L 9.625 13.53125 L 9.625 13.5 L 9.625 13.4375 z M 4.5625 13.46875 L 4.5 13.5 L 4.53125 13.5625 L 4.59375 13.53125 L 4.5625 13.46875 z M 16.96875 13.5 L 16.875 13.53125 L 16.78125 13.53125 L 16.875 13.625 L 17 13.5625 L 16.96875 13.5 z M 3.375 13.53125 L 3 13.84375 L 3 15.09375 L 3.03125 15.09375 L 3.03125 15.125 L 3.21875 15.34375 L 3.40625 15.375 L 3.46875 15.375 L 3.46875 15.5625 L 3.4375 15.5625 L 3.21875 15.71875 L 3.15625 15.96875 L 3.34375 16.1875 L 3.375 16.15625 L 3.53125 16.09375 L 3.625 16.3125 L 3.96875 16.15625 L 4.09375 16.15625 L 4.1875 16.46875 L 4.65625 16.625 L 4.71875 16.875 L 4.9375 16.90625 L 5.03125 17.125 L 4.96875 17.34375 L 5.03125 17.46875 L 5.03125 17.625 L 5.25 17.59375 L 5.46875 17.875 L 5.4375 18.03125 L 5.46875 18.09375 L 5.5625 18.15625 L 5.53125 18.1875 L 5.28125 18.59375 L 5.78125 18.875 L 6.03125 18.40625 L 6.03125 18.03125 L 6.5 17.75 L 6.75 17.75 L 6.9375 17.40625 L 6.96875 16.75 L 6.90625 16.59375 L 7.375 16.15625 L 7.375 15.6875 L 6.75 15.34375 L 5.96875 15.125 L 5.59375 15.09375 L 5.6875 14.875 L 5.65625 14.5625 L 5.59375 14.53125 L 5.46875 14.75 L 5.4375 14.75 L 5.5625 14.5 L 5.3125 14.375 L 5.28125 14.46875 L 5.28125 14.71875 L 5.40625 14.8125 L 5.40625 14.84375 L 5.25 14.78125 L 4.71875 14.96875 L 4.53125 14.71875 L 4.5625 14.5 L 4.46875 14.5625 L 4.53125 14.46875 L 4.5 14.3125 L 4.53125 14.28125 L 4.59375 14.46875 L 4.5625 14.71875 L 4.71875 14.90625 L 4.96875 14.8125 L 4.96875 14.6875 L 4.8125 14.53125 L 4.84375 14.46875 L 4.9375 14.3125 L 4.65625 14.0625 L 4.625 14.09375 L 4.5 14 L 4.34375 13.78125 L 4.0625 13.84375 L 3.78125 13.75 L 3.625 13.59375 L 3.5 13.75 L 3.46875 13.90625 L 3.34375 13.875 L 3.34375 13.78125 L 3.25 13.90625 L 3.34375 14.15625 L 3.75 14.3125 L 3.78125 14.3125 L 3.8125 14.84375 L 3.9375 15 L 4.09375 15 L 4.09375 15.03125 L 3.9375 15.03125 L 3.9375 15 L 3.78125 14.875 L 3.625 14.875 L 3.59375 15.0625 L 3.6875 15.1875 L 3.65625 15.21875 L 3.5625 15.09375 L 3.59375 14.875 L 3.625 14.875 L 3.78125 14.84375 L 3.75 14.3125 L 3.3125 14.1875 L 3.21875 13.90625 L 3.46875 13.53125 L 3.375 13.53125 z M 5.53125 18.1875 L 5.46875 18.09375 L 5.3125 18.3125 L 5.03125 18.34375 L 5 18.1875 L 5.0625 18.03125 L 4.875 17.90625 L 4.65625 17.90625 L 4.46875 17.71875 L 4.15625 17.71875 L 4.03125 17.84375 L 4.03125 17.90625 L 4.0625 17.9375 L 3.9375 18.0625 L 3.8125 18.75 L 4 19.25 L 3.90625 19.6875 L 4.1875 20.84375 L 4.1875 21 L 4.78125 21 L 4.625 20.875 L 4.78125 20.375 L 4.71875 20.1875 L 4.96875 20.09375 L 4.90625 19.84375 L 5.0625 19.84375 L 5.21875 19.78125 L 5.40625 19.46875 L 5.1875 19.1875 L 5.15625 18.71875 L 5.1875 18.71875 L 5.21875 19.1875 L 5.46875 19.25 L 5.78125 18.9375 L 5.25 18.625 L 5.25 18.59375 L 5.53125 18.1875 z M 4.03125 17.90625 L 4 17.84375 L 3.90625 17.84375 L 3.65625 17.25 L 3.6875 17.21875 L 3.71875 17.09375 L 3.75 16.71875 L 3.6875 16.46875 L 3.5 16.15625 L 3.40625 16.1875 L 3.34375 16.25 L 3.125 16 L 3.1875 15.6875 L 3.4375 15.53125 L 3.40625 15.375 L 3.15625 15.375 L 3.03125 15.125 L 3 15.125 L 3 16.875 L 3.625 17.28125 L 3.625 17.3125 L 3.75 20.1875 L 3.96875 20.3125 L 3.9375 20.84375 L 3.8125 20.875 L 3.78125 20.9375 C 3.8569744 20.955716 3.9185294 21 4 21 L 4.15625 21 L 4.15625 20.84375 L 3.875 19.65625 L 3.96875 19.28125 L 3.78125 18.75 L 3.90625 18.0625 L 4.03125 17.90625 z M 3.6875 17.21875 L 3.9375 17.78125 L 4 17.8125 L 4.15625 17.65625 L 4.21875 17.6875 L 4.5 17.6875 L 4.59375 17.375 L 4.9375 17.34375 L 5 17.15625 L 4.90625 16.9375 L 4.71875 16.90625 L 4.71875 16.875 L 4.625 16.65625 L 4.15625 16.5 L 4.0625 16.21875 L 3.96875 16.21875 L 3.65625 16.34375 L 3.71875 16.46875 L 3.78125 16.6875 L 3.75 17.125 L 3.6875 17.21875 z M 4.5 13.59375 L 4.46875 13.65625 L 4.53125 13.65625 L 4.53125 13.625 L 4.5 13.59375 z M 9.46875 13.625 L 9.4375 13.71875 L 9.46875 13.8125 L 9.625 13.6875 L 9.625 13.65625 L 9.46875 13.625 z M 4.5625 13.71875 L 4.53125 13.75 L 4.46875 13.78125 L 4.46875 13.8125 L 4.5625 13.90625 L 4.59375 13.84375 L 4.625 13.78125 L 4.59375 13.71875 L 4.5625 13.71875 z M 13.75 13.8125 L 13.8125 13.84375 L 13.78125 13.96875 L 13.75 14 L 13.6875 13.96875 L 13.75 13.90625 L 13.75 13.8125 z M 19.96875 13.8125 L 19.90625 13.84375 L 19.90625 13.9375 L 19.9375 14.03125 L 19.875 14.03125 L 19.90625 14.1875 L 20 14.25 L 20.125 14.1875 L 20.09375 14 L 20.09375 13.9375 L 19.96875 13.8125 z M 14.75 14.03125 L 14.78125 14.03125 L 14.78125 14.15625 L 14.90625 14.15625 L 15.0625 14.40625 L 15.03125 14.40625 L 14.875 14.1875 L 14.78125 14.1875 L 14.78125 14.15625 L 14.75 14.03125 z M 18.96875 14.3125 L 19 14.4375 L 19.0625 14.4375 L 19.0625 14.375 L 18.96875 14.3125 z M 4.96875 14.34375 L 4.875 14.46875 L 4.875 14.53125 L 5 14.65625 L 5 14.8125 L 5.21875 14.71875 L 5.21875 14.46875 L 5.28125 14.375 L 5.28125 14.34375 L 5.1875 14.34375 L 5.0625 14.40625 L 4.96875 14.34375 z M 19.0625 14.53125 L 19.0625 14.65625 L 19.09375 14.6875 L 19.15625 14.59375 L 19.0625 14.53125 z M 12.125 14.5625 L 12.0625 14.59375 L 12.03125 14.65625 L 12.09375 14.6875 L 12.15625 14.65625 L 12.125 14.5625 z M 15.6875 14.5625 L 15.75 14.5625 L 15.625 14.71875 L 15.625 15.09375 L 15.59375 15.09375 L 15.59375 14.6875 L 15.6875 14.5625 z M 4.15625 14.59375 L 4.1875 14.59375 L 4.1875 14.6875 L 4.34375 14.78125 L 4.1875 14.90625 L 4.28125 14.78125 L 4.15625 14.71875 L 4.15625 14.59375 z M 19.0625 14.78125 L 19.03125 14.8125 L 19.09375 14.875 L 19.125 14.8125 L 19.0625 14.78125 z M 11.90625 14.8125 L 11.9375 14.875 L 11.96875 14.875 L 12 14.84375 L 11.96875 14.8125 L 11.90625 14.8125 z M 12.21875 14.8125 L 12.21875 14.84375 L 12.40625 14.84375 L 12.375 14.8125 L 12.21875 14.8125 z M 11.875 14.9375 L 11.8125 14.96875 L 11.84375 15 L 11.875 15.03125 L 11.90625 14.96875 L 11.875 14.9375 z M 17.21875 15.4375 L 17.15625 15.46875 L 17.21875 15.5625 L 17.28125 15.5625 L 17.21875 15.4375 z M 17.25 15.625 L 17.25 15.65625 L 17.21875 15.6875 L 17.25 15.75 L 17.3125 15.75 L 17.3125 15.65625 L 17.25 15.625 z M 16.90625 15.78125 L 16.875 15.84375 L 16.9375 15.875 L 17 15.84375 L 16.90625 15.78125 z M 15.9375 16.28125 L 15.96875 16.34375 L 16.03125 16.375 L 16.0625 16.28125 L 15.9375 16.28125 z M 16.5 16.34375 L 16.4375 16.5625 L 16.28125 16.78125 L 16.03125 16.8125 L 15.9375 16.9375 L 15.9375 17.3125 L 15.8125 17.5 L 15.8125 17.78125 L 15.9375 17.9375 L 16.09375 17.9375 L 16.25 17.8125 L 16.21875 17.625 L 16.5625 17.03125 L 16.5 16.9375 L 16.5625 16.8125 L 16.65625 16.8125 L 16.65625 16.78125 L 16.59375 16.46875 L 16.5625 16.34375 L 16.5 16.34375 z M 16.0625 16.40625 L 16.09375 16.46875 L 16.125 16.46875 L 16.15625 16.40625 L 16.0625 16.40625 z M 4.9375 17.375 L 4.625 17.40625 L 4.53125 17.71875 L 4.6875 17.875 L 4.875 17.875 L 5.125 18.03125 L 5.03125 18.1875 L 5.0625 18.28125 L 5.28125 18.28125 L 5.40625 18.09375 L 5.4375 17.90625 L 5.25 17.65625 L 5 17.6875 L 5 17.46875 L 4.9375 17.375 z M 17.3125 17.375 L 17.25 17.4375 L 17.25 17.53125 L 17.375 17.4375 L 17.3125 17.375 z M 17 17.5 L 17 17.59375 L 17.0625 17.59375 L 17.15625 17.5625 L 17.09375 17.5 L 17 17.5 z M 14.125 18.25 L 14.1875 18.25 L 14.28125 18.34375 L 14.28125 18.46875 L 14.25 18.46875 L 14.15625 18.53125 L 14.15625 18.5625 L 14 18.5625 L 14 18.53125 L 13.9375 18.4375 L 13.96875 18.34375 L 14.125 18.25 z M 14 18.53125 L 14.125 18.53125 L 14.125 18.5 L 14.25 18.46875 L 14.25 18.375 L 14.1875 18.3125 L 14.125 18.3125 L 14.125 18.28125 L 14 18.375 L 13.96875 18.4375 L 14 18.53125 z M 3.78125 20.3125 L 3.75 20.375 L 3.75 20.5 L 3.8125 20.53125 L 3.84375 20.34375 L 3.78125 20.3125 z "
       transform="translate(0,1028.3622)"
       id="kalimantan"
       style="fill:url(#linearGradient3797);fill-opacity:1" />
    <rect
       style="opacity:0.5;fill:none;stroke:url(#linearGradient4542);stroke-opacity:1"
       id="rect4534"
       width="17"
       height="17"
       x="3.5"
       y="1031.8622"
       rx="0.1"
       ry="0.1" />
  </g>
</svg>
