<?xml version="1.0" encoding="UTF-8" standalone="no"?>
<!-- Created with Inkscape (http://www.inkscape.org/) -->

<svg
   xmlns:dc="http://purl.org/dc/elements/1.1/"
   xmlns:cc="http://creativecommons.org/ns#"
   xmlns:rdf="http://www.w3.org/1999/02/22-rdf-syntax-ns#"
   xmlns:svg="http://www.w3.org/2000/svg"
   xmlns="http://www.w3.org/2000/svg"
   xmlns:xlink="http://www.w3.org/1999/xlink"
   xmlns:sodipodi="http://sodipodi.sourceforge.net/DTD/sodipodi-0.dtd"
   xmlns:inkscape="http://www.inkscape.org/namespaces/inkscape"
   width="24"
   height="24"
   id="svg3147"
   version="1.1"
   inkscape:version="0.48.3.1 r9886"
   sodipodi:docname="stock_insert-table.svg">
  <defs
     id="defs3149">
    <linearGradient
       id="linearGradient3779">
      <stop
         style="stop-color:#787878;stop-opacity:1;"
         offset="0"
         id="stop3781" />
      <stop
         style="stop-color:#b4b4b4;stop-opacity:1;"
         offset="1"
         id="stop3783" />
    </linearGradient>
    <linearGradient
       id="linearGradient3771">
      <stop
         style="stop-color:#ebebeb;stop-opacity:1;"
         offset="0"
         id="stop3773" />
      <stop
         style="stop-color:#c8c8c8;stop-opacity:1;"
         offset="1"
         id="stop3775" />
    </linearGradient>
    <linearGradient
       id="linearGradient4536">
      <stop
         style="stop-color:#ffffff;stop-opacity:1;"
         offset="0"
         id="stop4538" />
      <stop
         id="stop4546"
         offset="0.08045261"
         style="stop-color:#ffffff;stop-opacity:0.15686275;" />
      <stop
         id="stop4544"
         offset="0.936414"
         style="stop-color:#ffffff;stop-opacity:0.23529412;" />
      <stop
         style="stop-color:#ffffff;stop-opacity:0.39215687;"
         offset="1"
         id="stop4540" />
    </linearGradient>
    <radialGradient
       inkscape:collect="always"
       xlink:href="#linearGradient3688-166-749"
       id="radialGradient3132"
       gradientUnits="userSpaceOnUse"
       gradientTransform="matrix(2.003784,0,0,1.4,27.98813,-17.4)"
       cx="4.9929786"
       cy="43.5"
       fx="4.9929786"
       fy="43.5"
       r="2.5" />
    <linearGradient
       id="linearGradient3688-166-749">
      <stop
         id="stop2883"
         style="stop-color:#181818;stop-opacity:1"
         offset="0" />
      <stop
         id="stop2885"
         style="stop-color:#181818;stop-opacity:0"
         offset="1" />
    </linearGradient>
    <radialGradient
       inkscape:collect="always"
       xlink:href="#linearGradient3688-464-309"
       id="radialGradient3134"
       gradientUnits="userSpaceOnUse"
       gradientTransform="matrix(2.003784,0,0,1.4,-20.01187,-104.4)"
       cx="4.9929786"
       cy="43.5"
       fx="4.9929786"
       fy="43.5"
       r="2.5" />
    <linearGradient
       id="linearGradient3688-464-309">
      <stop
         id="stop2889"
         style="stop-color:#181818;stop-opacity:1"
         offset="0" />
      <stop
         id="stop2891"
         style="stop-color:#181818;stop-opacity:0"
         offset="1" />
    </linearGradient>
    <linearGradient
       inkscape:collect="always"
       xlink:href="#linearGradient3702-501-757"
       id="linearGradient3136"
       gradientUnits="userSpaceOnUse"
       x1="25.058096"
       y1="47.027729"
       x2="25.058096"
       y2="39.999443" />
    <linearGradient
       id="linearGradient3702-501-757">
      <stop
         id="stop2895"
         style="stop-color:#181818;stop-opacity:0"
         offset="0" />
      <stop
         id="stop2897"
         style="stop-color:#181818;stop-opacity:1"
         offset="0.5" />
      <stop
         id="stop2899"
         style="stop-color:#181818;stop-opacity:0"
         offset="1" />
    </linearGradient>
    <linearGradient
       inkscape:collect="always"
       xlink:href="#linearGradient4536"
       id="linearGradient4542"
       x1="14.801802"
       y1="1010.4072"
       x2="14.801802"
       y2="1028.1376"
       gradientUnits="userSpaceOnUse"
       gradientTransform="translate(-2,21.000034)" />
    <radialGradient
       inkscape:collect="always"
       xlink:href="#linearGradient3771"
       id="radialGradient3777"
       cx="8.4395084"
       cy="1038.224"
       fx="8.4395084"
       fy="1038.224"
       r="8"
       gradientUnits="userSpaceOnUse"
       gradientTransform="matrix(-1.8033154e-7,2.3063239,-1.7388621,-1.3596168e-7,1817.1303,1014.2854)" />
    <linearGradient
       inkscape:collect="always"
       xlink:href="#linearGradient3779"
       id="linearGradient3785"
       x1="4.8288288"
       y1="1056.1926"
       x2="4.8288288"
       y2="1036.2902"
       gradientUnits="userSpaceOnUse"
       gradientTransform="translate(2,-5.9999826)" />
    <linearGradient
       inkscape:collect="always"
       xlink:href="#linearGradient3779"
       id="linearGradient3810"
       x1="12.567568"
       y1="20.824764"
       x2="12.567568"
       y2="3.1351349"
       gradientUnits="userSpaceOnUse"
       gradientTransform="matrix(-1,0,0,1,24,1028.3622)" />
  </defs>
  <sodipodi:namedview
     id="base"
     pagecolor="#ffffff"
     bordercolor="#666666"
     borderopacity="1.0"
     inkscape:pageopacity="0.0"
     inkscape:pageshadow="2"
     inkscape:zoom="13.875"
     inkscape:cx="8.6772652"
     inkscape:cy="10.158837"
     inkscape:document-units="px"
     inkscape:current-layer="layer1"
     showgrid="false"
     inkscape:window-width="1280"
     inkscape:window-height="751"
     inkscape:window-x="0"
     inkscape:window-y="24"
     inkscape:window-maximized="1" />
  <metadata
     id="metadata3152">
    <rdf:RDF>
      <cc:Work
         rdf:about="">
        <dc:format>image/svg+xml</dc:format>
        <dc:type
           rdf:resource="http://purl.org/dc/dcmitype/StillImage" />
        <dc:title />
      </cc:Work>
    </rdf:RDF>
  </metadata>
  <g
     inkscape:label="Livello 1"
     inkscape:groupmode="layer"
     id="layer1"
     transform="translate(0,-1028.3622)">
    <rect
       style="fill:url(#radialGradient3777);fill-opacity:1;stroke:url(#linearGradient3785);stroke-opacity:1"
       id="rect3163"
       width="19"
       height="19"
       x="2.5"
       y="1030.8622"
       rx="1"
       ry="1" />
    <path
       style="fill:#bebebe;fill-opacity:1;stroke:none;opacity:1"
       d="m 3.5,1031.3622 17,0 c 0.277,0 0.5,0.223 0.5,0.5 l 0,2.5 -8.75,0 -7.25,0 0,15 -1.5,0 c -0.277,0 -0.5,-0.223 -0.5,-0.5 l 0,-16 0,-1 c 0,-0.277 0.223,-0.5 0.5,-0.5 z"
       id="rect3014"
       inkscape:connector-curvature="0"
       sodipodi:nodetypes="ssscccccscss" />
    <path
       style="opacity:0.3;fill:#ffffff;fill-opacity:1;stroke:none"
       d="m 21,1034.8622 0,1 -18,0 0,-1 18,0 z m 0,4 0,1 -18,0 0,-1 18,0 z m 0,4 0,1 -18,0 0,-1 18,0 z m 0,4 0,1 -18,0 0,-1 18,0 z"
       id="rect3795"
       inkscape:connector-curvature="0" />
    <path
       style="fill:url(#linearGradient3810);fill-opacity:1;stroke:none"
       d="m 18,1031.3622 0,3 3,0 0,1 -3,0 0,3 3,0 0,1 -3,0 0,3 3,0 0,1 -3,0 0,3 3,0 0,1 -3,0 0,2 -1,0 0,-2 -3,0 0,2 -1,0 0,-2 -3,0 0,2 -1,0 0,-2 -3,0 0,2 -1,0 0,-2 -2,0 0,-1 2,0 0,-3 -2,0 0,-1 2,0 0,-3 -2,0 0,-1 2,0 0,-3 -2,0 0,-1 2,0 0,-3 1,0 0,3 3,0 0,-3 1,0 0,3 3,0 0,-3 1,0 0,3 3,0 0,-3 1,0 z m -1,4 -3,0 0,3 3,0 0,-3 z m -4,0 -3,0 0,3 3,0 0,-3 z m -4,0 -3,0 0,3 3,0 0,-3 z m 8,4 -3,0 0,3 3,0 0,-3 z m -4,0 -3,0 0,3 3,0 0,-3 z m -4,0 -3,0 0,3 3,0 0,-3 z m 8,4 -3,0 0,3 3,0 0,-3 z m -4,0 -3,0 0,3 3,0 0,-3 z m -4,0 -3,0 0,3 3,0 0,-3 z"
       id="rect3779"
       inkscape:connector-curvature="0" />
    <rect
       style="opacity:0.45000000000000001;fill:none;stroke:url(#linearGradient4542);stroke-opacity:1"
       id="rect4534"
       width="17"
       height="17"
       x="3.5"
       y="1031.8622"
       rx="0.1"
       ry="0.1" />
  </g>
</svg>
