<?xml version="1.0" encoding="UTF-8" standalone="no"?>
<!-- Created with Inkscape (http://www.inkscape.org/) -->

<svg
   xmlns:dc="http://purl.org/dc/elements/1.1/"
   xmlns:cc="http://creativecommons.org/ns#"
   xmlns:rdf="http://www.w3.org/1999/02/22-rdf-syntax-ns#"
   xmlns:svg="http://www.w3.org/2000/svg"
   xmlns="http://www.w3.org/2000/svg"
   xmlns:xlink="http://www.w3.org/1999/xlink"
   xmlns:sodipodi="http://sodipodi.sourceforge.net/DTD/sodipodi-0.dtd"
   xmlns:inkscape="http://www.inkscape.org/namespaces/inkscape"
   width="24"
   height="24"
   id="svg3147"
   version="1.1"
   inkscape:version="0.48.3.1 r9886"
   sodipodi:docname="temp-action.svg">
  <defs
     id="defs3149">
    <linearGradient
       id="linearGradient3779">
      <stop
         style="stop-color:#333333;stop-opacity:1;"
         offset="0"
         id="stop3781" />
      <stop
         style="stop-color:#969696;stop-opacity:1;"
         offset="1"
         id="stop3783" />
    </linearGradient>
    <linearGradient
       id="linearGradient3771">
      <stop
         style="stop-color:#c8c8c8;stop-opacity:1;"
         offset="0"
         id="stop3773" />
      <stop
         style="stop-color:#646464;stop-opacity:1;"
         offset="1"
         id="stop3775" />
    </linearGradient>
    <linearGradient
       id="linearGradient4536">
      <stop
         style="stop-color:#ffffff;stop-opacity:1;"
         offset="0"
         id="stop4538" />
      <stop
         id="stop4546"
         offset="0.06216056"
         style="stop-color:#ffffff;stop-opacity:0.15686275;" />
      <stop
         id="stop4544"
         offset="0.936414"
         style="stop-color:#ffffff;stop-opacity:0.23529412;" />
      <stop
         style="stop-color:#ffffff;stop-opacity:0.39215687;"
         offset="1"
         id="stop4540" />
    </linearGradient>
    <radialGradient
       inkscape:collect="always"
       xlink:href="#linearGradient3688-166-749"
       id="radialGradient3132"
       gradientUnits="userSpaceOnUse"
       gradientTransform="matrix(2.003784,0,0,1.4,27.98813,-17.4)"
       cx="4.9929786"
       cy="43.5"
       fx="4.9929786"
       fy="43.5"
       r="2.5" />
    <linearGradient
       id="linearGradient3688-166-749">
      <stop
         id="stop2883"
         style="stop-color:#181818;stop-opacity:1"
         offset="0" />
      <stop
         id="stop2885"
         style="stop-color:#181818;stop-opacity:0"
         offset="1" />
    </linearGradient>
    <radialGradient
       inkscape:collect="always"
       xlink:href="#linearGradient3688-464-309"
       id="radialGradient3134"
       gradientUnits="userSpaceOnUse"
       gradientTransform="matrix(2.003784,0,0,1.4,-20.01187,-104.4)"
       cx="4.9929786"
       cy="43.5"
       fx="4.9929786"
       fy="43.5"
       r="2.5" />
    <linearGradient
       id="linearGradient3688-464-309">
      <stop
         id="stop2889"
         style="stop-color:#181818;stop-opacity:1"
         offset="0" />
      <stop
         id="stop2891"
         style="stop-color:#181818;stop-opacity:0"
         offset="1" />
    </linearGradient>
    <linearGradient
       inkscape:collect="always"
       xlink:href="#linearGradient3702-501-757"
       id="linearGradient3136"
       gradientUnits="userSpaceOnUse"
       x1="25.058096"
       y1="47.027729"
       x2="25.058096"
       y2="39.999443" />
    <linearGradient
       id="linearGradient3702-501-757">
      <stop
         id="stop2895"
         style="stop-color:#181818;stop-opacity:0"
         offset="0" />
      <stop
         id="stop2897"
         style="stop-color:#181818;stop-opacity:1"
         offset="0.5" />
      <stop
         id="stop2899"
         style="stop-color:#181818;stop-opacity:0"
         offset="1" />
    </linearGradient>
    <linearGradient
       inkscape:collect="always"
       xlink:href="#linearGradient4536"
       id="linearGradient4542"
       x1="14.801802"
       y1="1010.4072"
       x2="14.801802"
       y2="1028.1376"
       gradientUnits="userSpaceOnUse"
       gradientTransform="translate(-2,21.000034)" />
    <linearGradient
       inkscape:collect="always"
       xlink:href="#linearGradient3779"
       id="linearGradient3785"
       x1="2.6413288"
       y1="1036.4426"
       x2="2.6413288"
       y2="1052.3384"
       gradientUnits="userSpaceOnUse"
       gradientTransform="translate(4.0000002,-4.000011)" />
    <linearGradient
       inkscape:collect="always"
       xlink:href="#linearGradient3771"
       id="linearGradient3792"
       x1="11.25"
       y1="1045.3788"
       x2="11.25"
       y2="1031.4872"
       gradientUnits="userSpaceOnUse"
       gradientTransform="translate(2.0000002,1.9999714)" />
  </defs>
  <sodipodi:namedview
     id="base"
     pagecolor="#ffffff"
     bordercolor="#666666"
     borderopacity="1.0"
     inkscape:pageopacity="0.0"
     inkscape:pageshadow="2"
     inkscape:zoom="16"
     inkscape:cx="11.364848"
     inkscape:cy="8.6475114"
     inkscape:document-units="px"
     inkscape:current-layer="layer1"
     showgrid="false"
     inkscape:window-width="1280"
     inkscape:window-height="749"
     inkscape:window-x="0"
     inkscape:window-y="24"
     inkscape:window-maximized="1" />
  <metadata
     id="metadata3152">
    <rdf:RDF>
      <cc:Work
         rdf:about="">
        <dc:format>image/svg+xml</dc:format>
        <dc:type
           rdf:resource="http://purl.org/dc/dcmitype/StillImage" />
        <dc:title></dc:title>
      </cc:Work>
    </rdf:RDF>
  </metadata>
  <g
     inkscape:label="Livello 1"
     inkscape:groupmode="layer"
     id="layer1"
     transform="translate(0,-1028.3622)">
    <rect
       style="fill:url(#linearGradient3792);fill-opacity:1;stroke:url(#linearGradient3785);stroke-opacity:1"
       id="rect3163"
       width="15"
       height="15"
       x="4.4999995"
       y="1032.8621"
       rx="1"
       ry="1" />
    <path
       sodipodi:nodetypes="sccccccccccccccccccccs"
       inkscape:connector-curvature="0"
       style="fill:#000000;fill-opacity:1;fill-rule:nonzero;stroke:#000000;stroke-opacity:1;stroke-linejoin:round;opacity:0.05;stroke-width:2.99999990000000016;stroke-miterlimit:4;stroke-dasharray:none"
       d="m 9.5312497,1035.9872 c 0.1278096,0 0.2458155,0.027 0.34375,0.125 L 12,1038.2372 l 2.125,-2.125 c 0.195869,-0.1959 0.522881,-0.1959 0.71875,0 l 1.40625,1.4063 c 0.195868,0.1958 0.195868,0.5228 0,0.7187 l -2.125,2.125 2.125,2.125 c 0.195868,0.1959 0.195868,0.523 0,0.7188 l -1.40625,1.4062 c -0.195869,0.1959 -0.522881,0.1959 -0.71875,0 l -2.125,-2.125 -2.1250003,2.125 c -0.195869,0.1959 -0.522882,0.1959 -0.71875,0 l -1.40625,-1.4062 c -0.195868,-0.1958 -0.195868,-0.5229 0,-0.7188 l 2.125,-2.125 -2.125,-2.125 c -0.195868,-0.1959 -0.195868,-0.5229 0,-0.7187 l 1.40625,-1.4063 c 0.097934,-0.098 0.2471904,-0.125 0.375,-0.125 z"
       id="path3790" />
    <path
       id="path3788"
       d="m 9.5312497,1035.9872 c 0.1278096,0 0.2458155,0.027 0.34375,0.125 L 12,1038.2372 l 2.125,-2.125 c 0.195869,-0.1959 0.522881,-0.1959 0.71875,0 l 1.40625,1.4063 c 0.195868,0.1958 0.195868,0.5228 0,0.7187 l -2.125,2.125 2.125,2.125 c 0.195868,0.1959 0.195868,0.523 0,0.7188 l -1.40625,1.4062 c -0.195869,0.1959 -0.522881,0.1959 -0.71875,0 l -2.125,-2.125 -2.1250003,2.125 c -0.195869,0.1959 -0.522882,0.1959 -0.71875,0 l -1.40625,-1.4062 c -0.195868,-0.1958 -0.195868,-0.5229 0,-0.7188 l 2.125,-2.125 -2.125,-2.125 c -0.195868,-0.1959 -0.195868,-0.5229 0,-0.7187 l 1.40625,-1.4063 c 0.097934,-0.098 0.2471904,-0.125 0.375,-0.125 z"
       style="fill:#000000;fill-opacity:1;fill-rule:nonzero;stroke:#000000;stroke-opacity:1;stroke-linejoin:round;opacity:0.09999993;stroke-width:2;stroke-miterlimit:4;stroke-dasharray:none"
       inkscape:connector-curvature="0"
       sodipodi:nodetypes="sccccccccccccccccccccs" />
    <path
       sodipodi:nodetypes="sccccccccccccccccccccs"
       inkscape:connector-curvature="0"
       style="fill:#000000;fill-opacity:1;fill-rule:nonzero;stroke:#000000;stroke-opacity:1;stroke-linejoin:round;opacity:0.15"
       d="m 9.5312497,1035.9872 c 0.1278096,0 0.2458155,0.027 0.34375,0.125 L 12,1038.2372 l 2.125,-2.125 c 0.195869,-0.1959 0.522881,-0.1959 0.71875,0 l 1.40625,1.4063 c 0.195868,0.1958 0.195868,0.5228 0,0.7187 l -2.125,2.125 2.125,2.125 c 0.195868,0.1959 0.195868,0.523 0,0.7188 l -1.40625,1.4062 c -0.195869,0.1959 -0.522881,0.1959 -0.71875,0 l -2.125,-2.125 -2.1250003,2.125 c -0.195869,0.1959 -0.522882,0.1959 -0.71875,0 l -1.40625,-1.4062 c -0.195868,-0.1958 -0.195868,-0.5229 0,-0.7188 l 2.125,-2.125 -2.125,-2.125 c -0.195868,-0.1959 -0.195868,-0.5229 0,-0.7187 l 1.40625,-1.4063 c 0.097934,-0.098 0.2471904,-0.125 0.375,-0.125 z"
       id="path3018" />
    <path
       id="path2987"
       d="m 9.5312497,1035.9872 c 0.1278096,0 0.2458155,0.027 0.34375,0.125 L 12,1038.2372 l 2.125,-2.125 c 0.195869,-0.1959 0.522881,-0.1959 0.71875,0 l 1.40625,1.4063 c 0.195868,0.1958 0.195868,0.5228 0,0.7187 l -2.125,2.125 2.125,2.125 c 0.195868,0.1959 0.195868,0.523 0,0.7188 l -1.40625,1.4062 c -0.195869,0.1959 -0.522881,0.1959 -0.71875,0 l -2.125,-2.125 -2.1250003,2.125 c -0.195869,0.1959 -0.522882,0.1959 -0.71875,0 l -1.40625,-1.4062 c -0.195868,-0.1958 -0.195868,-0.5229 0,-0.7188 l 2.125,-2.125 -2.125,-2.125 c -0.195868,-0.1959 -0.195868,-0.5229 0,-0.7187 l 1.40625,-1.4063 c 0.097934,-0.098 0.2471904,-0.125 0.375,-0.125 z"
       style="fill:#ffffff;fill-opacity:1;fill-rule:nonzero;stroke:none"
       inkscape:connector-curvature="0"
       sodipodi:nodetypes="sccccccccccccccccccccs" />
  </g>
</svg>
