<?xml version="1.0" encoding="UTF-8" standalone="no"?>
<!-- Created with Inkscape (http://www.inkscape.org/) -->

<svg
   xmlns:dc="http://purl.org/dc/elements/1.1/"
   xmlns:cc="http://creativecommons.org/ns#"
   xmlns:rdf="http://www.w3.org/1999/02/22-rdf-syntax-ns#"
   xmlns:svg="http://www.w3.org/2000/svg"
   xmlns="http://www.w3.org/2000/svg"
   xmlns:xlink="http://www.w3.org/1999/xlink"
   xmlns:sodipodi="http://sodipodi.sourceforge.net/DTD/sodipodi-0.dtd"
   xmlns:inkscape="http://www.inkscape.org/namespaces/inkscape"
   width="24"
   height="24"
   id="svg3147"
   version="1.1"
   inkscape:version="0.48.3.1 r9886"
   sodipodi:docname="zoom-in.svg">
  <defs
     id="defs3149">
    <linearGradient
       id="linearGradient3779">
      <stop
         style="stop-color:#333333;stop-opacity:1;"
         offset="0"
         id="stop3781" />
      <stop
         style="stop-color:#969696;stop-opacity:1;"
         offset="1"
         id="stop3783" />
    </linearGradient>
    <linearGradient
       id="linearGradient3771">
      <stop
         style="stop-color:#c8c8c8;stop-opacity:1;"
         offset="0"
         id="stop3773" />
      <stop
         style="stop-color:#646464;stop-opacity:1;"
         offset="1"
         id="stop3775" />
    </linearGradient>
    <linearGradient
       id="linearGradient4536">
      <stop
         style="stop-color:#ffffff;stop-opacity:1;"
         offset="0"
         id="stop4538" />
      <stop
         id="stop4546"
         offset="0.06216056"
         style="stop-color:#ffffff;stop-opacity:0.15686275;" />
      <stop
         id="stop4544"
         offset="0.936414"
         style="stop-color:#ffffff;stop-opacity:0.23529412;" />
      <stop
         style="stop-color:#ffffff;stop-opacity:0.39215687;"
         offset="1"
         id="stop4540" />
    </linearGradient>
    <radialGradient
       inkscape:collect="always"
       xlink:href="#linearGradient3688-166-749"
       id="radialGradient3132"
       gradientUnits="userSpaceOnUse"
       gradientTransform="matrix(2.003784,0,0,1.4,27.98813,-17.4)"
       cx="4.9929786"
       cy="43.5"
       fx="4.9929786"
       fy="43.5"
       r="2.5" />
    <linearGradient
       id="linearGradient3688-166-749">
      <stop
         id="stop2883"
         style="stop-color:#181818;stop-opacity:1"
         offset="0" />
      <stop
         id="stop2885"
         style="stop-color:#181818;stop-opacity:0"
         offset="1" />
    </linearGradient>
    <radialGradient
       inkscape:collect="always"
       xlink:href="#linearGradient3688-464-309"
       id="radialGradient3134"
       gradientUnits="userSpaceOnUse"
       gradientTransform="matrix(2.003784,0,0,1.4,-20.01187,-104.4)"
       cx="4.9929786"
       cy="43.5"
       fx="4.9929786"
       fy="43.5"
       r="2.5" />
    <linearGradient
       id="linearGradient3688-464-309">
      <stop
         id="stop2889"
         style="stop-color:#181818;stop-opacity:1"
         offset="0" />
      <stop
         id="stop2891"
         style="stop-color:#181818;stop-opacity:0"
         offset="1" />
    </linearGradient>
    <linearGradient
       inkscape:collect="always"
       xlink:href="#linearGradient3702-501-757"
       id="linearGradient3136"
       gradientUnits="userSpaceOnUse"
       x1="25.058096"
       y1="47.027729"
       x2="25.058096"
       y2="39.999443" />
    <linearGradient
       id="linearGradient3702-501-757">
      <stop
         id="stop2895"
         style="stop-color:#181818;stop-opacity:0"
         offset="0" />
      <stop
         id="stop2897"
         style="stop-color:#181818;stop-opacity:1"
         offset="0.5" />
      <stop
         id="stop2899"
         style="stop-color:#181818;stop-opacity:0"
         offset="1" />
    </linearGradient>
    <linearGradient
       inkscape:collect="always"
       xlink:href="#linearGradient4536"
       id="linearGradient4542"
       x1="14.801802"
       y1="1010.4072"
       x2="14.801802"
       y2="1028.1376"
       gradientUnits="userSpaceOnUse"
       gradientTransform="translate(-2,21.000034)" />
  </defs>
  <sodipodi:namedview
     id="base"
     pagecolor="#ffffff"
     bordercolor="#666666"
     borderopacity="1.0"
     inkscape:pageopacity="0.0"
     inkscape:pageshadow="2"
     inkscape:zoom="13.875"
     inkscape:cx="-0.82135407"
     inkscape:cy="5.6200515"
     inkscape:document-units="px"
     inkscape:current-layer="layer1"
     showgrid="false"
     inkscape:window-width="1280"
     inkscape:window-height="751"
     inkscape:window-x="0"
     inkscape:window-y="24"
     inkscape:window-maximized="1" />
  <metadata
     id="metadata3152">
    <rdf:RDF>
      <cc:Work
         rdf:about="">
        <dc:format>image/svg+xml</dc:format>
        <dc:type
           rdf:resource="http://purl.org/dc/dcmitype/StillImage" />
        <dc:title />
      </cc:Work>
    </rdf:RDF>
  </metadata>
  <g
     inkscape:label="Livello 1"
     inkscape:groupmode="layer"
     id="layer1"
     transform="translate(0,-1028.3622)">
    <rect
       style="fill:#505050;fill-opacity:1;stroke:#333333;stroke-opacity:1"
       id="rect3163"
       width="19"
       height="19"
       x="2.5"
       y="1030.8622"
       rx="1"
       ry="1" />
    <path
       id="path3806"
       transform="translate(0,1028.3622)"
       d="M 11 5.09375 C 7.6862914 5.09375 5 7.77995 5 11.09375 C 5 14.40745 7.6862914 17.09375 11 17.09375 C 11.91702 17.09375 12.785212 16.8678 13.5625 16.5 L 16.53125 19.46875 C 16.922987 19.86045 17.545763 19.86045 17.9375 19.46875 L 19.375 18.0625 C 19.766737 17.6708 19.766737 17.0167 19.375 16.625 L 16.40625 13.6875 C 16.781621 12.9038 17 12.02065 17 11.09375 C 17 7.77995 14.313709 5.09375 11 5.09375 z M 11 7.09375 C 13.209139 7.09375 15 8.88455 15 11.09375 C 15 11.48515 14.91733 11.86115 14.8125 12.21875 C 14.71623 12.54705 14.576215 12.86895 14.40625 13.15625 C 14.32127 13.29985 14.226483 13.4314 14.125 13.5625 C 14.023517 13.6936 13.929201 13.8203 13.8125 13.9375 C 13.579098 14.1719 13.31783 14.36135 13.03125 14.53125 C 12.880724 14.62025 12.724812 14.71255 12.5625 14.78125 C 12.407839 14.84725 12.2585 14.8907 12.09375 14.9375 C 11.747312 15.0355 11.377763 15.09375 11 15.09375 C 8.790861 15.09375 7 13.30285 7 11.09375 C 7 8.88455 8.790861 7.09375 11 7.09375 z M 10 8 L 10 10 L 8 10 L 8 12 L 10 12 L 10 14 L 12 14 L 12 12 L 14 12 L 14 10 L 12 10 L 12 8 L 10 8 z "
       style="fill:#000000;fill-opacity:1;stroke:#000000;stroke-opacity:1;opacity:0.05;stroke-width:3;stroke-miterlimit:4;stroke-dasharray:none" />
    <path
       style="fill:#000000;fill-opacity:1;stroke:#000000;stroke-opacity:1;opacity:0.09999995;stroke-width:2;stroke-miterlimit:4;stroke-dasharray:none"
       d="M 11 5.09375 C 7.6862914 5.09375 5 7.77995 5 11.09375 C 5 14.40745 7.6862914 17.09375 11 17.09375 C 11.91702 17.09375 12.785212 16.8678 13.5625 16.5 L 16.53125 19.46875 C 16.922987 19.86045 17.545763 19.86045 17.9375 19.46875 L 19.375 18.0625 C 19.766737 17.6708 19.766737 17.0167 19.375 16.625 L 16.40625 13.6875 C 16.781621 12.9038 17 12.02065 17 11.09375 C 17 7.77995 14.313709 5.09375 11 5.09375 z M 11 7.09375 C 13.209139 7.09375 15 8.88455 15 11.09375 C 15 11.48515 14.91733 11.86115 14.8125 12.21875 C 14.71623 12.54705 14.576215 12.86895 14.40625 13.15625 C 14.32127 13.29985 14.226483 13.4314 14.125 13.5625 C 14.023517 13.6936 13.929201 13.8203 13.8125 13.9375 C 13.579098 14.1719 13.31783 14.36135 13.03125 14.53125 C 12.880724 14.62025 12.724812 14.71255 12.5625 14.78125 C 12.407839 14.84725 12.2585 14.8907 12.09375 14.9375 C 11.747312 15.0355 11.377763 15.09375 11 15.09375 C 8.790861 15.09375 7 13.30285 7 11.09375 C 7 8.88455 8.790861 7.09375 11 7.09375 z M 10 8 L 10 10 L 8 10 L 8 12 L 10 12 L 10 14 L 12 14 L 12 12 L 14 12 L 14 10 L 12 10 L 12 8 L 10 8 z "
       transform="translate(0,1028.3622)"
       id="path3804" />
    <path
       id="path3802"
       transform="translate(0,1028.3622)"
       d="M 11 5.09375 C 7.6862914 5.09375 5 7.77995 5 11.09375 C 5 14.40745 7.6862914 17.09375 11 17.09375 C 11.91702 17.09375 12.785212 16.8678 13.5625 16.5 L 16.53125 19.46875 C 16.922987 19.86045 17.545763 19.86045 17.9375 19.46875 L 19.375 18.0625 C 19.766737 17.6708 19.766737 17.0167 19.375 16.625 L 16.40625 13.6875 C 16.781621 12.9038 17 12.02065 17 11.09375 C 17 7.77995 14.313709 5.09375 11 5.09375 z M 11 7.09375 C 13.209139 7.09375 15 8.88455 15 11.09375 C 15 11.48515 14.91733 11.86115 14.8125 12.21875 C 14.71623 12.54705 14.576215 12.86895 14.40625 13.15625 C 14.32127 13.29985 14.226483 13.4314 14.125 13.5625 C 14.023517 13.6936 13.929201 13.8203 13.8125 13.9375 C 13.579098 14.1719 13.31783 14.36135 13.03125 14.53125 C 12.880724 14.62025 12.724812 14.71255 12.5625 14.78125 C 12.407839 14.84725 12.2585 14.8907 12.09375 14.9375 C 11.747312 15.0355 11.377763 15.09375 11 15.09375 C 8.790861 15.09375 7 13.30285 7 11.09375 C 7 8.88455 8.790861 7.09375 11 7.09375 z M 10 8 L 10 10 L 8 10 L 8 12 L 10 12 L 10 14 L 12 14 L 12 12 L 14 12 L 14 10 L 12 10 L 12 8 L 10 8 z "
       style="fill:#000000;fill-opacity:1;stroke:#000000;stroke-opacity:1;opacity:0.15" />
    <path
       style="fill:#ffffff;fill-opacity:1;stroke:none"
       d="M 11 5.09375 C 7.6862914 5.09375 5 7.77995 5 11.09375 C 5 14.40745 7.6862914 17.09375 11 17.09375 C 11.91702 17.09375 12.785212 16.8678 13.5625 16.5 L 16.53125 19.46875 C 16.922987 19.86045 17.545763 19.86045 17.9375 19.46875 L 19.375 18.0625 C 19.766737 17.6708 19.766737 17.0167 19.375 16.625 L 16.40625 13.6875 C 16.781621 12.9038 17 12.02065 17 11.09375 C 17 7.77995 14.313709 5.09375 11 5.09375 z M 11 7.09375 C 13.209139 7.09375 15 8.88455 15 11.09375 C 15 11.48515 14.91733 11.86115 14.8125 12.21875 C 14.71623 12.54705 14.576215 12.86895 14.40625 13.15625 C 14.32127 13.29985 14.226483 13.4314 14.125 13.5625 C 14.023517 13.6936 13.929201 13.8203 13.8125 13.9375 C 13.579098 14.1719 13.31783 14.36135 13.03125 14.53125 C 12.880724 14.62025 12.724812 14.71255 12.5625 14.78125 C 12.407839 14.84725 12.2585 14.8907 12.09375 14.9375 C 11.747312 15.0355 11.377763 15.09375 11 15.09375 C 8.790861 15.09375 7 13.30285 7 11.09375 C 7 8.88455 8.790861 7.09375 11 7.09375 z M 10 8 L 10 10 L 8 10 L 8 12 L 10 12 L 10 14 L 12 14 L 12 12 L 14 12 L 14 10 L 12 10 L 12 8 L 10 8 z "
       transform="translate(0,1028.3622)"
       id="path3011" />
  </g>
</svg>
