<?xml version="1.0" encoding="UTF-8" standalone="no"?>
<!-- Created with Inkscape (http://www.inkscape.org/) -->

<svg
   xmlns:dc="http://purl.org/dc/elements/1.1/"
   xmlns:cc="http://creativecommons.org/ns#"
   xmlns:rdf="http://www.w3.org/1999/02/22-rdf-syntax-ns#"
   xmlns:svg="http://www.w3.org/2000/svg"
   xmlns="http://www.w3.org/2000/svg"
   xmlns:xlink="http://www.w3.org/1999/xlink"
   xmlns:sodipodi="http://sodipodi.sourceforge.net/DTD/sodipodi-0.dtd"
   xmlns:inkscape="http://www.inkscape.org/namespaces/inkscape"
   width="16"
   height="16"
   id="svg2"
   version="1.1"
   inkscape:version="0.48.3.1 r9886"
   sodipodi:docname="add-folder-to-archive.svg">
  <defs
     id="defs4">
    <linearGradient
       id="linearGradient3792">
      <stop
         style="stop-color:#fff0c8;stop-opacity:1;"
         offset="0"
         id="stop3794" />
      <stop
         style="stop-color:#f0d78c;stop-opacity:1;"
         offset="1"
         id="stop3796" />
    </linearGradient>
    <linearGradient
       id="linearGradient3784">
      <stop
         style="stop-color:#bea55a;stop-opacity:1;"
         offset="0"
         id="stop3786" />
      <stop
         style="stop-color:#832000;stop-opacity:1;"
         offset="1"
         id="stop3788" />
    </linearGradient>
    <linearGradient
       id="linearGradient3755">
      <stop
         style="stop-color:#b06121;stop-opacity:1;"
         offset="0"
         id="stop3757" />
      <stop
         style="stop-color:#973404;stop-opacity:1;"
         offset="1"
         id="stop3759" />
    </linearGradient>
    <radialGradient
       inkscape:collect="always"
       xlink:href="#linearGradient3755"
       id="radialGradient3761"
       cx="8.178565"
       cy="1038.8264"
       fx="8.178565"
       fy="1038.8264"
       r="8"
       gradientUnits="userSpaceOnUse"
       gradientTransform="matrix(-1.9999328e-6,1.6093796,-1.3913414,-1.7289826e-6,1453.5408,1025.6658)" />
    <linearGradient
       inkscape:collect="always"
       xlink:href="#linearGradient3784"
       id="linearGradient3790"
       x1="2.3839283"
       y1="15.910306"
       x2="2.3839283"
       y2="2.125"
       gradientUnits="userSpaceOnUse" />
    <radialGradient
       inkscape:collect="always"
       xlink:href="#linearGradient3792"
       id="radialGradient3798"
       cx="8"
       cy="1.7040817"
       fx="8"
       fy="1.7040817"
       r="8"
       gradientTransform="matrix(2.3415727e-8,1.5792888,-1.3214286,1.9592497e-8,10.251822,-10.018239)"
       gradientUnits="userSpaceOnUse" />
    <radialGradient
       inkscape:collect="always"
       xlink:href="#linearGradient3790-5"
       id="radialGradient3796"
       cx="11.072059"
       cy="1045.0559"
       fx="11.072059"
       fy="1045.0559"
       r="5"
       gradientUnits="userSpaceOnUse"
       gradientTransform="matrix(1.3020488e-5,1.7443014,-1.3603604,1.0154528e-5,1426.7246,1025.7323)" />
    <linearGradient
       id="linearGradient3790-5">
      <stop
         style="stop-color:#93d0e9;stop-opacity:1;"
         offset="0"
         id="stop3792" />
      <stop
         style="stop-color:#3372b1;stop-opacity:1;"
         offset="1"
         id="stop3794-6" />
    </linearGradient>
    <radialGradient
       r="5"
       fy="1045.0559"
       fx="11.072059"
       cy="1045.0559"
       cx="11.072059"
       gradientTransform="matrix(1.3020488e-5,1.7443014,-1.3603604,1.0154528e-5,1426.7246,1025.7323)"
       gradientUnits="userSpaceOnUse"
       id="radialGradient3900"
       xlink:href="#linearGradient3790-5"
       inkscape:collect="always" />
  </defs>
  <sodipodi:namedview
     id="base"
     pagecolor="#ffffff"
     bordercolor="#666666"
     borderopacity="1.0"
     inkscape:pageopacity="0.0"
     inkscape:pageshadow="2"
     inkscape:zoom="15.839192"
     inkscape:cx="12.135031"
     inkscape:cy="2.1254591"
     inkscape:document-units="px"
     inkscape:current-layer="layer1"
     showgrid="false"
     inkscape:window-width="1280"
     inkscape:window-height="756"
     inkscape:window-x="0"
     inkscape:window-y="24"
     inkscape:window-maximized="1" />
  <metadata
     id="metadata7">
    <rdf:RDF>
      <cc:Work
         rdf:about="">
        <dc:format>image/svg+xml</dc:format>
        <dc:type
           rdf:resource="http://purl.org/dc/dcmitype/StillImage" />
        <dc:title />
      </cc:Work>
    </rdf:RDF>
  </metadata>
  <g
     inkscape:label="Livello 1"
     inkscape:groupmode="layer"
     id="layer1"
     transform="translate(0,-1036.3622)">
    <rect
       style="opacity:1;fill:url(#radialGradient3761);fill-opacity:1;stroke:#832000;stroke-opacity:1"
       id="rect3753"
       width="15"
       height="15"
       x="0.5"
       y="1036.8622"
       rx="1"
       ry="1" />
    <path
       style="fill:url(#radialGradient3798);fill-opacity:1;stroke:url(#linearGradient3790);stroke-opacity:1"
       d="M 1.5 2.5 C 0.946 2.5 0.5 2.946 0.5 3.5 L 0.5 6.5 L 0.5 14.5 C 0.5 15.054 0.946 15.5 1.5 15.5 L 14.5 15.5 C 15.054 15.5 15.5 15.054 15.5 14.5 L 15.5 5.5 C 15.5 4.946 15.054 4.5 14.5 4.5 L 13.5 4.5 L 10.5 4.5 L 8.5 4.5 C 7.946 4.5 7.5 4.054 7.5 3.5 C 7.5 2.946 7.054 2.5 6.5 2.5 L 1.5 2.5 z "
       transform="translate(0,1036.3622)"
       id="rect3770" />
    <rect
       style="fill:#333333;fill-opacity:1;fill-rule:nonzero;stroke:none"
       id="rect4093"
       width="5.9999995"
       height="10"
       x="8"
       y="1041.3622" />
    <path
       inkscape:connector-curvature="0"
       style="fill:#f0f0f0;fill-opacity:1;fill-rule:nonzero;stroke:none"
       d="m 9.0000009,1045.3623 0,3 1.0000001,0 0,-1 1,0 0,-1 -1,0 0,-1 z m 3.0000001,2 0,1 -1,0 0,1 1,0 0,1 0.999999,0 0,-3 z m -3.0000001,2 0,0.9999 1.0000001,10e-5 0,-1 z"
       id="rect3313-9"
       sodipodi:nodetypes="ccccccccccccccccccccccc" />
    <path
       sodipodi:nodetypes="ccccc"
       inkscape:connector-curvature="0"
       id="path4105"
       d="m 8.000001,1041.3623 0,7 5.999999,0 0,-7 z"
       style="opacity:0.35;fill:#000000;fill-opacity:1;fill-rule:nonzero;stroke:none" />
    <path
       style="fill:#e6e6e6;fill-opacity:1;fill-rule:nonzero;stroke:none"
       d="m 9.0000009,1041.3623 0,2 1.0000001,0 0,1 -1.0000001,0 0,3 3.9999991,0 0,-3 -0.999999,0 0,-1 0.999999,0 0,-2 z m 1.0000001,4 2,0 0,1 -2,0 z"
       id="rect3314"
       inkscape:connector-curvature="0"
       sodipodi:nodetypes="cccccccccccccccccc" />
  </g>
</svg>
