<?xml version="1.0" encoding="UTF-8" standalone="no"?>
<!-- Created with Inkscape (http://www.inkscape.org/) -->

<svg
   xmlns:dc="http://purl.org/dc/elements/1.1/"
   xmlns:cc="http://creativecommons.org/ns#"
   xmlns:rdf="http://www.w3.org/1999/02/22-rdf-syntax-ns#"
   xmlns:svg="http://www.w3.org/2000/svg"
   xmlns="http://www.w3.org/2000/svg"
   xmlns:xlink="http://www.w3.org/1999/xlink"
   xmlns:sodipodi="http://sodipodi.sourceforge.net/DTD/sodipodi-0.dtd"
   xmlns:inkscape="http://www.inkscape.org/namespaces/inkscape"
   width="16"
   height="16"
   id="svg3147"
   version="1.1"
   inkscape:version="0.48.3.1 r9886"
   sodipodi:docname="format-text-underline.svg">
  <defs
     id="defs3149">
    <linearGradient
       id="linearGradient3779">
      <stop
         style="stop-color:#333333;stop-opacity:1;"
         offset="0"
         id="stop3781" />
      <stop
         style="stop-color:#969696;stop-opacity:1;"
         offset="1"
         id="stop3783" />
    </linearGradient>
    <linearGradient
       id="linearGradient3771">
      <stop
         style="stop-color:#c8c8c8;stop-opacity:1;"
         offset="0"
         id="stop3773" />
      <stop
         style="stop-color:#646464;stop-opacity:1;"
         offset="1"
         id="stop3775" />
    </linearGradient>
    <linearGradient
       id="linearGradient4536">
      <stop
         style="stop-color:#ffffff;stop-opacity:1;"
         offset="0"
         id="stop4538" />
      <stop
         id="stop4546"
         offset="0.06216056"
         style="stop-color:#ffffff;stop-opacity:0.15686275;" />
      <stop
         id="stop4544"
         offset="0.936414"
         style="stop-color:#ffffff;stop-opacity:0.23529412;" />
      <stop
         style="stop-color:#ffffff;stop-opacity:0.39215687;"
         offset="1"
         id="stop4540" />
    </linearGradient>
    <radialGradient
       inkscape:collect="always"
       xlink:href="#linearGradient3688-166-749"
       id="radialGradient3132"
       gradientUnits="userSpaceOnUse"
       gradientTransform="matrix(2.003784,0,0,1.4,27.98813,-17.4)"
       cx="4.9929786"
       cy="43.5"
       fx="4.9929786"
       fy="43.5"
       r="2.5" />
    <linearGradient
       id="linearGradient3688-166-749">
      <stop
         id="stop2883"
         style="stop-color:#181818;stop-opacity:1"
         offset="0" />
      <stop
         id="stop2885"
         style="stop-color:#181818;stop-opacity:0"
         offset="1" />
    </linearGradient>
    <radialGradient
       inkscape:collect="always"
       xlink:href="#linearGradient3688-464-309"
       id="radialGradient3134"
       gradientUnits="userSpaceOnUse"
       gradientTransform="matrix(2.003784,0,0,1.4,-20.01187,-104.4)"
       cx="4.9929786"
       cy="43.5"
       fx="4.9929786"
       fy="43.5"
       r="2.5" />
    <linearGradient
       id="linearGradient3688-464-309">
      <stop
         id="stop2889"
         style="stop-color:#181818;stop-opacity:1"
         offset="0" />
      <stop
         id="stop2891"
         style="stop-color:#181818;stop-opacity:0"
         offset="1" />
    </linearGradient>
    <linearGradient
       inkscape:collect="always"
       xlink:href="#linearGradient3702-501-757"
       id="linearGradient3136"
       gradientUnits="userSpaceOnUse"
       x1="25.058096"
       y1="47.027729"
       x2="25.058096"
       y2="39.999443" />
    <linearGradient
       id="linearGradient3702-501-757">
      <stop
         id="stop2895"
         style="stop-color:#181818;stop-opacity:0"
         offset="0" />
      <stop
         id="stop2897"
         style="stop-color:#181818;stop-opacity:1"
         offset="0.5" />
      <stop
         id="stop2899"
         style="stop-color:#181818;stop-opacity:0"
         offset="1" />
    </linearGradient>
    <linearGradient
       inkscape:collect="always"
       xlink:href="#linearGradient4536"
       id="linearGradient4542"
       x1="14.801802"
       y1="1010.4072"
       x2="14.801802"
       y2="1024.1722"
       gradientUnits="userSpaceOnUse"
       gradientTransform="translate(-4,27.000017)" />
  </defs>
  <sodipodi:namedview
     id="base"
     pagecolor="#ffffff"
     bordercolor="#666666"
     borderopacity="1.0"
     inkscape:pageopacity="0.0"
     inkscape:pageshadow="2"
     inkscape:zoom="19.622213"
     inkscape:cx="10.749061"
     inkscape:cy="6.8110674"
     inkscape:document-units="px"
     inkscape:current-layer="layer1"
     showgrid="false"
     inkscape:window-width="1280"
     inkscape:window-height="751"
     inkscape:window-x="0"
     inkscape:window-y="24"
     inkscape:window-maximized="1" />
  <metadata
     id="metadata3152">
    <rdf:RDF>
      <cc:Work
         rdf:about="">
        <dc:format>image/svg+xml</dc:format>
        <dc:type
           rdf:resource="http://purl.org/dc/dcmitype/StillImage" />
        <dc:title />
      </cc:Work>
    </rdf:RDF>
  </metadata>
  <g
     inkscape:label="Livello 1"
     inkscape:groupmode="layer"
     id="layer1"
     transform="translate(0,-1036.3622)">
    <rect
       style="fill:#505050;fill-opacity:1;stroke:#333333;stroke-opacity:1"
       id="rect3163"
       width="15"
       height="15"
       x="0.5"
       y="1036.8622"
       rx="1"
       ry="1" />
    <path
       id="path3860"
       transform="translate(0,1036.3622)"
       d="M 8.125 3 C 7.643069 3.0000079 7.1885513 3.0562834 6.75 3.1875 C 6.3114438 3.3187319 5.9191249 3.500044 5.5625 3.6875 L 6.03125 4.625 C 6.3493203 4.4656625 6.689079 4.3312345 7.03125 4.21875 C 7.3782349 4.1062787 7.7249966 4.0625068 8.125 4.0625 C 8.3755983 4.0625068 8.6197246 4.1000178 8.8125 4.15625 C 9.0100857 4.2124957 9.1511247 4.3062822 9.28125 4.4375 C 9.4161846 4.5640441 9.5262749 4.7266098 9.59375 4.9375 C 9.6660338 5.148402 9.7187446 5.4047543 9.71875 5.71875 L 9.71875 6.21875 L 8.375 6.25 C 7.2376477 6.2874972 6.4027841 6.5250849 5.84375 6.9375 C 5.2895322 7.349923 4.9999993 7.918903 5 8.6875 C 4.9999993 9.0811749 5.0718366 9.4281832 5.1875 9.71875 C 5.3031617 10.004633 5.4538392 10.245351 5.65625 10.4375 C 5.8634774 10.624964 6.0954802 10.754705 6.375 10.84375 C 6.6545157 10.937482 6.9799672 11 7.3125 11 C 7.6161112 11 7.8624212 10.984366 8.09375 10.9375 C 8.3250713 10.890634 8.530794 10.817168 8.71875 10.71875 C 8.9066972 10.620332 9.0909591 10.493721 9.25 10.34375 C 9.409031 10.189093 9.5597086 9.9921472 9.71875 9.78125 L 9.78125 9.78125 L 10.0625 10.84375 L 11 10.84375 L 11 5.5625 C 10.999993 5.1032205 10.928156 4.7296305 10.8125 4.40625 C 10.696831 4.0828824 10.548638 3.7999668 10.3125 3.59375 C 10.081169 3.3828612 9.7676903 3.2499893 9.40625 3.15625 C 9.0496188 3.0578395 8.6165619 3.0000079 8.125 3 z M 9.6875 7.09375 L 9.6875 7.78125 C 9.6874946 8.1514929 9.6372688 8.4734939 9.53125 8.75 C 9.4300401 9.0218237 9.2768776 9.2547248 9.09375 9.4375 C 8.9106129 9.6155915 8.719348 9.754706 8.46875 9.84375 C 8.2181437 9.932796 7.9189723 9.9687509 7.625 9.96875 C 7.2442742 9.9687509 6.9548919 9.8577741 6.71875 9.65625 C 6.4874225 9.4547283 6.374998 9.1499175 6.375 8.71875 C 6.374998 8.4797366 6.3916395 8.249966 6.46875 8.0625 C 6.5458562 7.870353 6.6702537 7.7249775 6.84375 7.59375 C 7.0220605 7.4578425 7.2685212 7.3562389 7.5625 7.28125 C 7.8564724 7.2062683 8.2225112 7.14375 8.65625 7.125 L 9.6875 7.09375 z M 5 12 L 5 13 L 11 13 L 11 12 L 5 12 z "
       style="font-size:14.59958076000000027px;font-style:normal;font-variant:normal;font-weight:normal;font-stretch:normal;line-height:125%;letter-spacing:0px;word-spacing:0px;fill:#000000;fill-opacity:1;stroke:#000000;font-family:Droid Sans;-inkscape-font-specification:Droid Sans;stroke-opacity:1;opacity:0.05;stroke-linejoin:round;stroke-width:3;stroke-miterlimit:4;stroke-dasharray:none" />
    <path
       style="font-size:14.59958076000000027px;font-style:normal;font-variant:normal;font-weight:normal;font-stretch:normal;line-height:125%;letter-spacing:0px;word-spacing:0px;fill:#000000;fill-opacity:1;stroke:#000000;font-family:Droid Sans;-inkscape-font-specification:Droid Sans;stroke-opacity:1;opacity:0.09999995;stroke-linejoin:round;stroke-width:2.00000009999999984;stroke-miterlimit:4;stroke-dasharray:none"
       d="M 8.125 3 C 7.643069 3.0000079 7.1885513 3.0562834 6.75 3.1875 C 6.3114438 3.3187319 5.9191249 3.500044 5.5625 3.6875 L 6.03125 4.625 C 6.3493203 4.4656625 6.689079 4.3312345 7.03125 4.21875 C 7.3782349 4.1062787 7.7249966 4.0625068 8.125 4.0625 C 8.3755983 4.0625068 8.6197246 4.1000178 8.8125 4.15625 C 9.0100857 4.2124957 9.1511247 4.3062822 9.28125 4.4375 C 9.4161846 4.5640441 9.5262749 4.7266098 9.59375 4.9375 C 9.6660338 5.148402 9.7187446 5.4047543 9.71875 5.71875 L 9.71875 6.21875 L 8.375 6.25 C 7.2376477 6.2874972 6.4027841 6.5250849 5.84375 6.9375 C 5.2895322 7.349923 4.9999993 7.918903 5 8.6875 C 4.9999993 9.0811749 5.0718366 9.4281832 5.1875 9.71875 C 5.3031617 10.004633 5.4538392 10.245351 5.65625 10.4375 C 5.8634774 10.624964 6.0954802 10.754705 6.375 10.84375 C 6.6545157 10.937482 6.9799672 11 7.3125 11 C 7.6161112 11 7.8624212 10.984366 8.09375 10.9375 C 8.3250713 10.890634 8.530794 10.817168 8.71875 10.71875 C 8.9066972 10.620332 9.0909591 10.493721 9.25 10.34375 C 9.409031 10.189093 9.5597086 9.9921472 9.71875 9.78125 L 9.78125 9.78125 L 10.0625 10.84375 L 11 10.84375 L 11 5.5625 C 10.999993 5.1032205 10.928156 4.7296305 10.8125 4.40625 C 10.696831 4.0828824 10.548638 3.7999668 10.3125 3.59375 C 10.081169 3.3828612 9.7676903 3.2499893 9.40625 3.15625 C 9.0496188 3.0578395 8.6165619 3.0000079 8.125 3 z M 9.6875 7.09375 L 9.6875 7.78125 C 9.6874946 8.1514929 9.6372688 8.4734939 9.53125 8.75 C 9.4300401 9.0218237 9.2768776 9.2547248 9.09375 9.4375 C 8.9106129 9.6155915 8.719348 9.754706 8.46875 9.84375 C 8.2181437 9.932796 7.9189723 9.9687509 7.625 9.96875 C 7.2442742 9.9687509 6.9548919 9.8577741 6.71875 9.65625 C 6.4874225 9.4547283 6.374998 9.1499175 6.375 8.71875 C 6.374998 8.4797366 6.3916395 8.249966 6.46875 8.0625 C 6.5458562 7.870353 6.6702537 7.7249775 6.84375 7.59375 C 7.0220605 7.4578425 7.2685212 7.3562389 7.5625 7.28125 C 7.8564724 7.2062683 8.2225112 7.14375 8.65625 7.125 L 9.6875 7.09375 z M 5 12 L 5 13 L 11 13 L 11 12 L 5 12 z "
       transform="translate(0,1036.3622)"
       id="path3858" />
    <path
       id="path3854"
       transform="translate(0,1036.3622)"
       d="M 8.125 3 C 7.643069 3.0000079 7.1885513 3.0562834 6.75 3.1875 C 6.3114438 3.3187319 5.9191249 3.500044 5.5625 3.6875 L 6.03125 4.625 C 6.3493203 4.4656625 6.689079 4.3312345 7.03125 4.21875 C 7.3782349 4.1062787 7.7249966 4.0625068 8.125 4.0625 C 8.3755983 4.0625068 8.6197246 4.1000178 8.8125 4.15625 C 9.0100857 4.2124957 9.1511247 4.3062822 9.28125 4.4375 C 9.4161846 4.5640441 9.5262749 4.7266098 9.59375 4.9375 C 9.6660338 5.148402 9.7187446 5.4047543 9.71875 5.71875 L 9.71875 6.21875 L 8.375 6.25 C 7.2376477 6.2874972 6.4027841 6.5250849 5.84375 6.9375 C 5.2895322 7.349923 4.9999993 7.918903 5 8.6875 C 4.9999993 9.0811749 5.0718366 9.4281832 5.1875 9.71875 C 5.3031617 10.004633 5.4538392 10.245351 5.65625 10.4375 C 5.8634774 10.624964 6.0954802 10.754705 6.375 10.84375 C 6.6545157 10.937482 6.9799672 11 7.3125 11 C 7.6161112 11 7.8624212 10.984366 8.09375 10.9375 C 8.3250713 10.890634 8.530794 10.817168 8.71875 10.71875 C 8.9066972 10.620332 9.0909591 10.493721 9.25 10.34375 C 9.409031 10.189093 9.5597086 9.9921472 9.71875 9.78125 L 9.78125 9.78125 L 10.0625 10.84375 L 11 10.84375 L 11 5.5625 C 10.999993 5.1032205 10.928156 4.7296305 10.8125 4.40625 C 10.696831 4.0828824 10.548638 3.7999668 10.3125 3.59375 C 10.081169 3.3828612 9.7676903 3.2499893 9.40625 3.15625 C 9.0496188 3.0578395 8.6165619 3.0000079 8.125 3 z M 9.6875 7.09375 L 9.6875 7.78125 C 9.6874946 8.1514929 9.6372688 8.4734939 9.53125 8.75 C 9.4300401 9.0218237 9.2768776 9.2547248 9.09375 9.4375 C 8.9106129 9.6155915 8.719348 9.754706 8.46875 9.84375 C 8.2181437 9.932796 7.9189723 9.9687509 7.625 9.96875 C 7.2442742 9.9687509 6.9548919 9.8577741 6.71875 9.65625 C 6.4874225 9.4547283 6.374998 9.1499175 6.375 8.71875 C 6.374998 8.4797366 6.3916395 8.249966 6.46875 8.0625 C 6.5458562 7.870353 6.6702537 7.7249775 6.84375 7.59375 C 7.0220605 7.4578425 7.2685212 7.3562389 7.5625 7.28125 C 7.8564724 7.2062683 8.2225112 7.14375 8.65625 7.125 L 9.6875 7.09375 z M 5 12 L 5 13 L 11 13 L 11 12 L 5 12 z "
       style="font-size:14.59958076000000027px;font-style:normal;font-variant:normal;font-weight:normal;font-stretch:normal;line-height:125%;letter-spacing:0px;word-spacing:0px;fill:#000000;fill-opacity:1;stroke:#000000;font-family:Droid Sans;-inkscape-font-specification:Droid Sans;stroke-opacity:1;opacity:0.14999999999999999;stroke-linejoin:round" />
    <path
       style="font-size:14.59958076000000027px;font-style:normal;font-variant:normal;font-weight:normal;font-stretch:normal;line-height:125%;letter-spacing:0px;word-spacing:0px;fill:#ffffff;fill-opacity:1;stroke:none;font-family:Droid Sans;-inkscape-font-specification:Droid Sans"
       d="M 8.125 3 C 7.643069 3.0000079 7.1885513 3.0562834 6.75 3.1875 C 6.3114438 3.3187319 5.9191249 3.500044 5.5625 3.6875 L 6.03125 4.625 C 6.3493203 4.4656625 6.689079 4.3312345 7.03125 4.21875 C 7.3782349 4.1062787 7.7249966 4.0625068 8.125 4.0625 C 8.3755983 4.0625068 8.6197246 4.1000178 8.8125 4.15625 C 9.0100857 4.2124957 9.1511247 4.3062822 9.28125 4.4375 C 9.4161846 4.5640441 9.5262749 4.7266098 9.59375 4.9375 C 9.6660338 5.148402 9.7187446 5.4047543 9.71875 5.71875 L 9.71875 6.21875 L 8.375 6.25 C 7.2376477 6.2874972 6.4027841 6.5250849 5.84375 6.9375 C 5.2895322 7.349923 4.9999993 7.918903 5 8.6875 C 4.9999993 9.0811749 5.0718366 9.4281832 5.1875 9.71875 C 5.3031617 10.004633 5.4538392 10.245351 5.65625 10.4375 C 5.8634774 10.624964 6.0954802 10.754705 6.375 10.84375 C 6.6545157 10.937482 6.9799672 11 7.3125 11 C 7.6161112 11 7.8624212 10.984366 8.09375 10.9375 C 8.3250713 10.890634 8.530794 10.817168 8.71875 10.71875 C 8.9066972 10.620332 9.0909591 10.493721 9.25 10.34375 C 9.409031 10.189093 9.5597086 9.9921472 9.71875 9.78125 L 9.78125 9.78125 L 10.0625 10.84375 L 11 10.84375 L 11 5.5625 C 10.999993 5.1032205 10.928156 4.7296305 10.8125 4.40625 C 10.696831 4.0828824 10.548638 3.7999668 10.3125 3.59375 C 10.081169 3.3828612 9.7676903 3.2499893 9.40625 3.15625 C 9.0496188 3.0578395 8.6165619 3.0000079 8.125 3 z M 9.6875 7.09375 L 9.6875 7.78125 C 9.6874946 8.1514929 9.6372688 8.4734939 9.53125 8.75 C 9.4300401 9.0218237 9.2768776 9.2547248 9.09375 9.4375 C 8.9106129 9.6155915 8.719348 9.754706 8.46875 9.84375 C 8.2181437 9.932796 7.9189723 9.9687509 7.625 9.96875 C 7.2442742 9.9687509 6.9548919 9.8577741 6.71875 9.65625 C 6.4874225 9.4547283 6.374998 9.1499175 6.375 8.71875 C 6.374998 8.4797366 6.3916395 8.249966 6.46875 8.0625 C 6.5458562 7.870353 6.6702537 7.7249775 6.84375 7.59375 C 7.0220605 7.4578425 7.2685212 7.3562389 7.5625 7.28125 C 7.8564724 7.2062683 8.2225112 7.14375 8.65625 7.125 L 9.6875 7.09375 z M 5 12 L 5 13 L 11 13 L 11 12 L 5 12 z "
       transform="translate(0,1036.3622)"
       id="text3011" />
  </g>
</svg>
