<?xml version="1.0" encoding="UTF-8" standalone="no"?>
<!-- Created with Inkscape (http://www.inkscape.org/) -->

<svg
   xmlns:dc="http://purl.org/dc/elements/1.1/"
   xmlns:cc="http://creativecommons.org/ns#"
   xmlns:rdf="http://www.w3.org/1999/02/22-rdf-syntax-ns#"
   xmlns:svg="http://www.w3.org/2000/svg"
   xmlns="http://www.w3.org/2000/svg"
   xmlns:xlink="http://www.w3.org/1999/xlink"
   xmlns:sodipodi="http://sodipodi.sourceforge.net/DTD/sodipodi-0.dtd"
   xmlns:inkscape="http://www.inkscape.org/namespaces/inkscape"
   width="16"
   height="16"
   id="svg3147"
   version="1.1"
   inkscape:version="0.48.3.1 r9886"
   sodipodi:docname="format-text-italic.svg">
  <defs
     id="defs3149">
    <linearGradient
       id="linearGradient3779">
      <stop
         style="stop-color:#333333;stop-opacity:1;"
         offset="0"
         id="stop3781" />
      <stop
         style="stop-color:#969696;stop-opacity:1;"
         offset="1"
         id="stop3783" />
    </linearGradient>
    <linearGradient
       id="linearGradient3771">
      <stop
         style="stop-color:#c8c8c8;stop-opacity:1;"
         offset="0"
         id="stop3773" />
      <stop
         style="stop-color:#646464;stop-opacity:1;"
         offset="1"
         id="stop3775" />
    </linearGradient>
    <linearGradient
       id="linearGradient4536">
      <stop
         style="stop-color:#ffffff;stop-opacity:1;"
         offset="0"
         id="stop4538" />
      <stop
         id="stop4546"
         offset="0.06216056"
         style="stop-color:#ffffff;stop-opacity:0.15686275;" />
      <stop
         id="stop4544"
         offset="0.936414"
         style="stop-color:#ffffff;stop-opacity:0.23529412;" />
      <stop
         style="stop-color:#ffffff;stop-opacity:0.39215687;"
         offset="1"
         id="stop4540" />
    </linearGradient>
    <radialGradient
       inkscape:collect="always"
       xlink:href="#linearGradient3688-166-749"
       id="radialGradient3132"
       gradientUnits="userSpaceOnUse"
       gradientTransform="matrix(2.003784,0,0,1.4,27.98813,-17.4)"
       cx="4.9929786"
       cy="43.5"
       fx="4.9929786"
       fy="43.5"
       r="2.5" />
    <linearGradient
       id="linearGradient3688-166-749">
      <stop
         id="stop2883"
         style="stop-color:#181818;stop-opacity:1"
         offset="0" />
      <stop
         id="stop2885"
         style="stop-color:#181818;stop-opacity:0"
         offset="1" />
    </linearGradient>
    <radialGradient
       inkscape:collect="always"
       xlink:href="#linearGradient3688-464-309"
       id="radialGradient3134"
       gradientUnits="userSpaceOnUse"
       gradientTransform="matrix(2.003784,0,0,1.4,-20.01187,-104.4)"
       cx="4.9929786"
       cy="43.5"
       fx="4.9929786"
       fy="43.5"
       r="2.5" />
    <linearGradient
       id="linearGradient3688-464-309">
      <stop
         id="stop2889"
         style="stop-color:#181818;stop-opacity:1"
         offset="0" />
      <stop
         id="stop2891"
         style="stop-color:#181818;stop-opacity:0"
         offset="1" />
    </linearGradient>
    <linearGradient
       inkscape:collect="always"
       xlink:href="#linearGradient3702-501-757"
       id="linearGradient3136"
       gradientUnits="userSpaceOnUse"
       x1="25.058096"
       y1="47.027729"
       x2="25.058096"
       y2="39.999443" />
    <linearGradient
       id="linearGradient3702-501-757">
      <stop
         id="stop2895"
         style="stop-color:#181818;stop-opacity:0"
         offset="0" />
      <stop
         id="stop2897"
         style="stop-color:#181818;stop-opacity:1"
         offset="0.5" />
      <stop
         id="stop2899"
         style="stop-color:#181818;stop-opacity:0"
         offset="1" />
    </linearGradient>
    <linearGradient
       inkscape:collect="always"
       xlink:href="#linearGradient4536"
       id="linearGradient4542"
       x1="14.801802"
       y1="1010.4072"
       x2="14.801802"
       y2="1024.1722"
       gradientUnits="userSpaceOnUse"
       gradientTransform="translate(-4,27.000017)" />
  </defs>
  <sodipodi:namedview
     id="base"
     pagecolor="#ffffff"
     bordercolor="#666666"
     borderopacity="1.0"
     inkscape:pageopacity="0.0"
     inkscape:pageshadow="2"
     inkscape:zoom="13.875"
     inkscape:cx="-0.92271852"
     inkscape:cy="1.676655"
     inkscape:document-units="px"
     inkscape:current-layer="layer1"
     showgrid="false"
     inkscape:window-width="1280"
     inkscape:window-height="751"
     inkscape:window-x="0"
     inkscape:window-y="24"
     inkscape:window-maximized="1" />
  <metadata
     id="metadata3152">
    <rdf:RDF>
      <cc:Work
         rdf:about="">
        <dc:format>image/svg+xml</dc:format>
        <dc:type
           rdf:resource="http://purl.org/dc/dcmitype/StillImage" />
        <dc:title />
      </cc:Work>
    </rdf:RDF>
  </metadata>
  <g
     inkscape:label="Livello 1"
     inkscape:groupmode="layer"
     id="layer1"
     transform="translate(0,-1036.3622)">
    <rect
       style="fill:#505050;fill-opacity:1;stroke:#333333;stroke-opacity:1"
       id="rect3163"
       width="15"
       height="15"
       x="0.5"
       y="1036.8622"
       rx="1"
       ry="1" />
    <g
       id="g3828"
       style="font-size:13.61061478000000058px;font-style:italic;font-variant:normal;font-weight:normal;font-stretch:normal;line-height:125%;letter-spacing:0px;word-spacing:0px;fill:#000000;fill-opacity:1;stroke:#000000;font-family:Droid Sans;-inkscape-font-specification:Droid Sans Italic;stroke-opacity:1;stroke-width:2.97921826000000012;stroke-miterlimit:4;stroke-dasharray:none;stroke-linejoin:round;opacity:0.05"
       transform="matrix(0.95860118,0,0,1.0577911,-0.11152558,0)">
      <path
         inkscape:connector-curvature="0"
         id="path3830"
         d="m 9.6353139,990.95331 -0.046521,-1.01016 -0.053166,0 c -0.1860876,0.19937 -0.3677395,0.37216 -0.5449562,0.51837 -0.1727955,0.14178 -0.3544474,0.25919 -0.5449563,0.35223 -0.190517,0.093 -0.3965369,0.16171 -0.6180601,0.20602 -0.2215302,0.0443 -0.4718554,0.0665 -0.7509763,0.0665 -0.3057096,0 -0.5781874,-0.0443 -0.8174344,-0.13291 -0.2392507,-0.0842 -0.4364095,-0.21488 -0.5914769,-0.3921 -0.1506395,-0.18166 -0.2525418,-0.40761 -0.3057072,-0.67788 -0.048737,-0.27469 -0.037661,-0.59812 0.033229,-0.97028 0.1462066,-0.72661 0.5139409,-1.28486 1.1032041,-1.67475 0.5892589,-0.38988 1.411123,-0.60255 2.4655948,-0.638 l 1.2294746,-0.0465 0.09304,-0.45856 c 0.06202,-0.29684 0.07974,-0.54495 0.05317,-0.74433 -0.02216,-0.19937 -0.08197,-0.35887 -0.179437,-0.4785 -0.09748,-0.12405 -0.232609,-0.21266 -0.4053945,-0.26583 -0.1683657,-0.0532 -0.3677397,-0.0797 -0.5981227,-0.0797 -0.3677391,10e-6 -0.7199666,0.0532 -1.0566835,0.1595 -0.3367243,0.10634 -0.6667991,0.23483 -0.9902254,0.38546 L 6.864014,984.16141 c 0.3633013,-0.17721 0.7598342,-0.32785 1.1895997,-0.45191 0.4297581,-0.12405 0.8661657,-0.18608 1.3092241,-0.18609 0.4519095,10e-6 0.8329352,0.0465 1.1430792,0.13957 0.310131,0.0886 0.55381,0.23261 0.731039,0.43197 0.177214,0.19495 0.287977,0.44528 0.33229,0.75098 0.0443,0.30571 0.02215,0.67566 -0.06646,1.10985 l -0.996871,4.99765 -0.870601,0 m -2.0535547,-0.84402 c 0.2702594,0 0.5294456,-0.0421 0.7775595,-0.12627 0.248106,-0.0842 0.4718479,-0.21045 0.6712266,-0.37881 0.2037999,-0.17279 0.378806,-0.38767 0.5250189,-0.64464 0.1506329,-0.2614 0.2613963,-0.56711 0.3322904,-0.91713 l 0.1262703,-0.65793 -0.9569963,0.0465 c -0.4031833,0.0177 -0.7465497,0.062 -1.0301003,0.13292 -0.2835578,0.0709 -0.5205914,0.17057 -0.7111014,0.29906 -0.1860854,0.12406 -0.332293,0.27691 -0.4386234,0.45856 -0.1063353,0.17722 -0.1816544,0.37881 -0.2259574,0.60477 -0.079752,0.40761 -0.033231,0.70667 0.1395619,0.89718 0.177219,0.19051 0.4408358,0.28577 0.7908512,0.28577"
         style="fill:#000000;fill-opacity:1;stroke:#000000;stroke-opacity:1;stroke-width:2.97921826000000012;stroke-miterlimit:4;stroke-dasharray:none;stroke-linejoin:round" />
    </g>
    <g
       transform="matrix(0.95860118,0,0,1.0577911,-0.11152558,0)"
       style="font-size:13.61061478000000058px;font-style:italic;font-variant:normal;font-weight:normal;font-stretch:normal;line-height:125%;letter-spacing:0px;word-spacing:0px;fill:#000000;fill-opacity:1;stroke:#000000;font-family:Droid Sans;-inkscape-font-specification:Droid Sans Italic;stroke-opacity:1;stroke-width:1.98614549999999990;stroke-miterlimit:4;stroke-dasharray:none;stroke-linejoin:round;opacity:0.09999995"
       id="g3824">
      <path
         style="fill:#000000;fill-opacity:1;stroke:#000000;stroke-opacity:1;stroke-width:1.98614549999999990;stroke-miterlimit:4;stroke-dasharray:none;stroke-linejoin:round"
         d="m 9.6353139,990.95331 -0.046521,-1.01016 -0.053166,0 c -0.1860876,0.19937 -0.3677395,0.37216 -0.5449562,0.51837 -0.1727955,0.14178 -0.3544474,0.25919 -0.5449563,0.35223 -0.190517,0.093 -0.3965369,0.16171 -0.6180601,0.20602 -0.2215302,0.0443 -0.4718554,0.0665 -0.7509763,0.0665 -0.3057096,0 -0.5781874,-0.0443 -0.8174344,-0.13291 -0.2392507,-0.0842 -0.4364095,-0.21488 -0.5914769,-0.3921 -0.1506395,-0.18166 -0.2525418,-0.40761 -0.3057072,-0.67788 -0.048737,-0.27469 -0.037661,-0.59812 0.033229,-0.97028 0.1462066,-0.72661 0.5139409,-1.28486 1.1032041,-1.67475 0.5892589,-0.38988 1.411123,-0.60255 2.4655948,-0.638 l 1.2294746,-0.0465 0.09304,-0.45856 c 0.06202,-0.29684 0.07974,-0.54495 0.05317,-0.74433 -0.02216,-0.19937 -0.08197,-0.35887 -0.179437,-0.4785 -0.09748,-0.12405 -0.232609,-0.21266 -0.4053945,-0.26583 -0.1683657,-0.0532 -0.3677397,-0.0797 -0.5981227,-0.0797 -0.3677391,10e-6 -0.7199666,0.0532 -1.0566835,0.1595 -0.3367243,0.10634 -0.6667991,0.23483 -0.9902254,0.38546 L 6.864014,984.16141 c 0.3633013,-0.17721 0.7598342,-0.32785 1.1895997,-0.45191 0.4297581,-0.12405 0.8661657,-0.18608 1.3092241,-0.18609 0.4519095,10e-6 0.8329352,0.0465 1.1430792,0.13957 0.310131,0.0886 0.55381,0.23261 0.731039,0.43197 0.177214,0.19495 0.287977,0.44528 0.33229,0.75098 0.0443,0.30571 0.02215,0.67566 -0.06646,1.10985 l -0.996871,4.99765 -0.870601,0 m -2.0535547,-0.84402 c 0.2702594,0 0.5294456,-0.0421 0.7775595,-0.12627 0.248106,-0.0842 0.4718479,-0.21045 0.6712266,-0.37881 0.2037999,-0.17279 0.378806,-0.38767 0.5250189,-0.64464 0.1506329,-0.2614 0.2613963,-0.56711 0.3322904,-0.91713 l 0.1262703,-0.65793 -0.9569963,0.0465 c -0.4031833,0.0177 -0.7465497,0.062 -1.0301003,0.13292 -0.2835578,0.0709 -0.5205914,0.17057 -0.7111014,0.29906 -0.1860854,0.12406 -0.332293,0.27691 -0.4386234,0.45856 -0.1063353,0.17722 -0.1816544,0.37881 -0.2259574,0.60477 -0.079752,0.40761 -0.033231,0.70667 0.1395619,0.89718 0.177219,0.19051 0.4408358,0.28577 0.7908512,0.28577"
         id="path3826"
         inkscape:connector-curvature="0" />
    </g>
    <g
       id="g3820"
       style="font-size:13.61061478000000058px;font-style:italic;font-variant:normal;font-weight:normal;font-stretch:normal;line-height:125%;letter-spacing:0px;word-spacing:0px;fill:#000000;fill-opacity:1;stroke:#000000;font-family:Droid Sans;-inkscape-font-specification:Droid Sans Italic;stroke-opacity:1;stroke-width:0.99307274999999995;stroke-miterlimit:4;stroke-dasharray:none;stroke-linejoin:round;opacity:0.15"
       transform="matrix(0.95860118,0,0,1.0577911,-0.11152558,0)">
      <path
         inkscape:connector-curvature="0"
         id="path3822"
         d="m 9.6353139,990.95331 -0.046521,-1.01016 -0.053166,0 c -0.1860876,0.19937 -0.3677395,0.37216 -0.5449562,0.51837 -0.1727955,0.14178 -0.3544474,0.25919 -0.5449563,0.35223 -0.190517,0.093 -0.3965369,0.16171 -0.6180601,0.20602 -0.2215302,0.0443 -0.4718554,0.0665 -0.7509763,0.0665 -0.3057096,0 -0.5781874,-0.0443 -0.8174344,-0.13291 -0.2392507,-0.0842 -0.4364095,-0.21488 -0.5914769,-0.3921 -0.1506395,-0.18166 -0.2525418,-0.40761 -0.3057072,-0.67788 -0.048737,-0.27469 -0.037661,-0.59812 0.033229,-0.97028 0.1462066,-0.72661 0.5139409,-1.28486 1.1032041,-1.67475 0.5892589,-0.38988 1.411123,-0.60255 2.4655948,-0.638 l 1.2294746,-0.0465 0.09304,-0.45856 c 0.06202,-0.29684 0.07974,-0.54495 0.05317,-0.74433 -0.02216,-0.19937 -0.08197,-0.35887 -0.179437,-0.4785 -0.09748,-0.12405 -0.232609,-0.21266 -0.4053945,-0.26583 -0.1683657,-0.0532 -0.3677397,-0.0797 -0.5981227,-0.0797 -0.3677391,10e-6 -0.7199666,0.0532 -1.0566835,0.1595 -0.3367243,0.10634 -0.6667991,0.23483 -0.9902254,0.38546 L 6.864014,984.16141 c 0.3633013,-0.17721 0.7598342,-0.32785 1.1895997,-0.45191 0.4297581,-0.12405 0.8661657,-0.18608 1.3092241,-0.18609 0.4519095,10e-6 0.8329352,0.0465 1.1430792,0.13957 0.310131,0.0886 0.55381,0.23261 0.731039,0.43197 0.177214,0.19495 0.287977,0.44528 0.33229,0.75098 0.0443,0.30571 0.02215,0.67566 -0.06646,1.10985 l -0.996871,4.99765 -0.870601,0 m -2.0535547,-0.84402 c 0.2702594,0 0.5294456,-0.0421 0.7775595,-0.12627 0.248106,-0.0842 0.4718479,-0.21045 0.6712266,-0.37881 0.2037999,-0.17279 0.378806,-0.38767 0.5250189,-0.64464 0.1506329,-0.2614 0.2613963,-0.56711 0.3322904,-0.91713 l 0.1262703,-0.65793 -0.9569963,0.0465 c -0.4031833,0.0177 -0.7465497,0.062 -1.0301003,0.13292 -0.2835578,0.0709 -0.5205914,0.17057 -0.7111014,0.29906 -0.1860854,0.12406 -0.332293,0.27691 -0.4386234,0.45856 -0.1063353,0.17722 -0.1816544,0.37881 -0.2259574,0.60477 -0.079752,0.40761 -0.033231,0.70667 0.1395619,0.89718 0.177219,0.19051 0.4408358,0.28577 0.7908512,0.28577"
         style="fill:#000000;fill-opacity:1;stroke:#000000;stroke-opacity:1;stroke-width:0.99307274999999995;stroke-miterlimit:4;stroke-dasharray:none;stroke-linejoin:round" />
    </g>
    <g
       transform="matrix(0.95860118,0,0,1.0577911,-0.11152558,0)"
       style="font-size:13.61061478px;font-style:italic;font-variant:normal;font-weight:normal;font-stretch:normal;line-height:125%;letter-spacing:0px;word-spacing:0px;fill:#feffff;fill-opacity:1;stroke:none;font-family:Droid Sans;-inkscape-font-specification:Droid Sans Italic"
       id="text3011">
      <path
         d="m 9.6353139,990.95331 -0.046521,-1.01016 -0.053166,0 c -0.1860876,0.19937 -0.3677395,0.37216 -0.5449562,0.51837 -0.1727955,0.14178 -0.3544474,0.25919 -0.5449563,0.35223 -0.190517,0.093 -0.3965369,0.16171 -0.6180601,0.20602 -0.2215302,0.0443 -0.4718554,0.0665 -0.7509763,0.0665 -0.3057096,0 -0.5781874,-0.0443 -0.8174344,-0.13291 -0.2392507,-0.0842 -0.4364095,-0.21488 -0.5914769,-0.3921 -0.1506395,-0.18166 -0.2525418,-0.40761 -0.3057072,-0.67788 -0.048737,-0.27469 -0.037661,-0.59812 0.033229,-0.97028 0.1462066,-0.72661 0.5139409,-1.28486 1.1032041,-1.67475 0.5892589,-0.38988 1.411123,-0.60255 2.4655948,-0.638 l 1.2294746,-0.0465 0.09304,-0.45856 c 0.06202,-0.29684 0.07974,-0.54495 0.05317,-0.74433 -0.02216,-0.19937 -0.08197,-0.35887 -0.179437,-0.4785 -0.09748,-0.12405 -0.232609,-0.21266 -0.4053945,-0.26583 -0.1683657,-0.0532 -0.3677397,-0.0797 -0.5981227,-0.0797 -0.3677391,10e-6 -0.7199666,0.0532 -1.0566835,0.1595 -0.3367243,0.10634 -0.6667991,0.23483 -0.9902254,0.38546 L 6.864014,984.16141 c 0.3633013,-0.17721 0.7598342,-0.32785 1.1895997,-0.45191 0.4297581,-0.12405 0.8661657,-0.18608 1.3092241,-0.18609 0.4519095,10e-6 0.8329352,0.0465 1.1430792,0.13957 0.310131,0.0886 0.55381,0.23261 0.731039,0.43197 0.177214,0.19495 0.287977,0.44528 0.33229,0.75098 0.0443,0.30571 0.02215,0.67566 -0.06646,1.10985 l -0.996871,4.99765 -0.870601,0 m -2.0535547,-0.84402 c 0.2702594,0 0.5294456,-0.0421 0.7775595,-0.12627 0.248106,-0.0842 0.4718479,-0.21045 0.6712266,-0.37881 0.2037999,-0.17279 0.378806,-0.38767 0.5250189,-0.64464 0.1506329,-0.2614 0.2613963,-0.56711 0.3322904,-0.91713 l 0.1262703,-0.65793 -0.9569963,0.0465 c -0.4031833,0.0177 -0.7465497,0.062 -1.0301003,0.13292 -0.2835578,0.0709 -0.5205914,0.17057 -0.7111014,0.29906 -0.1860854,0.12406 -0.332293,0.27691 -0.4386234,0.45856 -0.1063353,0.17722 -0.1816544,0.37881 -0.2259574,0.60477 -0.079752,0.40761 -0.033231,0.70667 0.1395619,0.89718 0.177219,0.19051 0.4408358,0.28577 0.7908512,0.28577"
         id="path3818"
         inkscape:connector-curvature="0" />
    </g>
  </g>
</svg>
