<?xml version="1.0" encoding="UTF-8" standalone="no"?>
<!-- Created with Inkscape (http://www.inkscape.org/) -->

<svg
   xmlns:dc="http://purl.org/dc/elements/1.1/"
   xmlns:cc="http://creativecommons.org/ns#"
   xmlns:rdf="http://www.w3.org/1999/02/22-rdf-syntax-ns#"
   xmlns:svg="http://www.w3.org/2000/svg"
   xmlns="http://www.w3.org/2000/svg"
   xmlns:xlink="http://www.w3.org/1999/xlink"
   xmlns:sodipodi="http://sodipodi.sourceforge.net/DTD/sodipodi-0.dtd"
   xmlns:inkscape="http://www.inkscape.org/namespaces/inkscape"
   width="16"
   height="16"
   id="svg3147"
   version="1.1"
   inkscape:version="0.48.3.1 r9886"
   sodipodi:docname="format-text-bold.svg">
  <defs
     id="defs3149">
    <linearGradient
       id="linearGradient3779">
      <stop
         style="stop-color:#333333;stop-opacity:1;"
         offset="0"
         id="stop3781" />
      <stop
         style="stop-color:#969696;stop-opacity:1;"
         offset="1"
         id="stop3783" />
    </linearGradient>
    <linearGradient
       id="linearGradient3771">
      <stop
         style="stop-color:#c8c8c8;stop-opacity:1;"
         offset="0"
         id="stop3773" />
      <stop
         style="stop-color:#646464;stop-opacity:1;"
         offset="1"
         id="stop3775" />
    </linearGradient>
    <linearGradient
       id="linearGradient4536">
      <stop
         style="stop-color:#ffffff;stop-opacity:1;"
         offset="0"
         id="stop4538" />
      <stop
         id="stop4546"
         offset="0.06216056"
         style="stop-color:#ffffff;stop-opacity:0.15686275;" />
      <stop
         id="stop4544"
         offset="0.936414"
         style="stop-color:#ffffff;stop-opacity:0.23529412;" />
      <stop
         style="stop-color:#ffffff;stop-opacity:0.39215687;"
         offset="1"
         id="stop4540" />
    </linearGradient>
    <radialGradient
       inkscape:collect="always"
       xlink:href="#linearGradient3688-166-749"
       id="radialGradient3132"
       gradientUnits="userSpaceOnUse"
       gradientTransform="matrix(2.003784,0,0,1.4,27.98813,-17.4)"
       cx="4.9929786"
       cy="43.5"
       fx="4.9929786"
       fy="43.5"
       r="2.5" />
    <linearGradient
       id="linearGradient3688-166-749">
      <stop
         id="stop2883"
         style="stop-color:#181818;stop-opacity:1"
         offset="0" />
      <stop
         id="stop2885"
         style="stop-color:#181818;stop-opacity:0"
         offset="1" />
    </linearGradient>
    <radialGradient
       inkscape:collect="always"
       xlink:href="#linearGradient3688-464-309"
       id="radialGradient3134"
       gradientUnits="userSpaceOnUse"
       gradientTransform="matrix(2.003784,0,0,1.4,-20.01187,-104.4)"
       cx="4.9929786"
       cy="43.5"
       fx="4.9929786"
       fy="43.5"
       r="2.5" />
    <linearGradient
       id="linearGradient3688-464-309">
      <stop
         id="stop2889"
         style="stop-color:#181818;stop-opacity:1"
         offset="0" />
      <stop
         id="stop2891"
         style="stop-color:#181818;stop-opacity:0"
         offset="1" />
    </linearGradient>
    <linearGradient
       inkscape:collect="always"
       xlink:href="#linearGradient3702-501-757"
       id="linearGradient3136"
       gradientUnits="userSpaceOnUse"
       x1="25.058096"
       y1="47.027729"
       x2="25.058096"
       y2="39.999443" />
    <linearGradient
       id="linearGradient3702-501-757">
      <stop
         id="stop2895"
         style="stop-color:#181818;stop-opacity:0"
         offset="0" />
      <stop
         id="stop2897"
         style="stop-color:#181818;stop-opacity:1"
         offset="0.5" />
      <stop
         id="stop2899"
         style="stop-color:#181818;stop-opacity:0"
         offset="1" />
    </linearGradient>
    <linearGradient
       inkscape:collect="always"
       xlink:href="#linearGradient4536"
       id="linearGradient4542"
       x1="14.801802"
       y1="1010.4072"
       x2="14.801802"
       y2="1024.1722"
       gradientUnits="userSpaceOnUse"
       gradientTransform="translate(-4,27.000017)" />
  </defs>
  <sodipodi:namedview
     id="base"
     pagecolor="#ffffff"
     bordercolor="#666666"
     borderopacity="1.0"
     inkscape:pageopacity="0.0"
     inkscape:pageshadow="2"
     inkscape:zoom="19.622213"
     inkscape:cx="7.5350959"
     inkscape:cy="4.8290747"
     inkscape:document-units="px"
     inkscape:current-layer="layer1"
     showgrid="false"
     inkscape:window-width="1280"
     inkscape:window-height="751"
     inkscape:window-x="0"
     inkscape:window-y="24"
     inkscape:window-maximized="1" />
  <metadata
     id="metadata3152">
    <rdf:RDF>
      <cc:Work
         rdf:about="">
        <dc:format>image/svg+xml</dc:format>
        <dc:type
           rdf:resource="http://purl.org/dc/dcmitype/StillImage" />
        <dc:title />
      </cc:Work>
    </rdf:RDF>
  </metadata>
  <g
     inkscape:label="Livello 1"
     inkscape:groupmode="layer"
     id="layer1"
     transform="translate(0,-1036.3622)">
    <rect
       style="fill:#505050;fill-opacity:1;stroke:#333333;stroke-opacity:1"
       id="rect3163"
       width="15"
       height="15"
       x="0.5"
       y="1036.8622"
       rx="1"
       ry="1" />
    <g
       id="g3813"
       style="font-size:13.61120415000000072px;font-style:normal;font-variant:normal;font-weight:bold;font-stretch:normal;line-height:125%;letter-spacing:0px;word-spacing:0px;fill:#000000;fill-opacity:1;stroke:#000000;font-family:Droid Sans;-inkscape-font-specification:Droid Sans Bold;stroke-opacity:1;stroke-linejoin:round;opacity:0.05;stroke-width:3.00000000999999994;stroke-miterlimit:4;stroke-dasharray:none"
       transform="matrix(0.96451463,0,0,1.0367909,0,-5.3059308e-4)">
      <path
         inkscape:connector-curvature="0"
         id="path3815"
         d="m 9.9890815,1011.0278 -0.3921196,-1.0102 -0.059815,0 c -0.1462189,0.1993 -0.2924328,0.3721 -0.4386423,0.5184 -0.1462185,0.1417 -0.3057246,0.2592 -0.4785189,0.3522 -0.1728023,0.093 -0.3677543,0.1617 -0.5848564,0.206 -0.2126783,0.044 -0.460799,0.067 -0.7443628,0.067 -0.301292,0 -0.5804278,-0.047 -0.837408,-0.1396 -0.256984,-0.098 -0.4807357,-0.2414 -0.6712557,-0.432 -0.1860917,-0.1949 -0.3323056,-0.4386 -0.4386423,-0.731 -0.1063382,-0.2969 -0.1595069,-0.6469 -0.1595063,-1.0501 -6e-7,-0.7887 0.2525508,-1.3691 0.7576549,-1.7413 0.5051014,-0.3766 1.2605402,-0.5849 2.2663187,-0.6247 l 1.183005,-0.04 0,-0.5583 c -4.8e-6,-0.3057 -0.088619,-0.5317 -0.2658438,-0.6779 -0.1772336,-0.1462 -0.4253542,-0.2193 -0.7443628,-0.2193 -0.319016,0 -0.6313822,0.047 -0.9370995,0.1396 -0.3012922,0.093 -0.6047969,0.2171 -0.9105151,0.3721 l -0.6579635,-1.3425 c 0.3721798,-0.2082 0.7842373,-0.3721 1.2361739,-0.4918 0.4519315,-0.1196 0.9260192,-0.1794 1.4222644,-0.1794 0.9260179,0 1.6349346,0.2171 2.1267506,0.6513 0.496235,0.4342 0.744356,1.0944 0.744363,1.9805 l 0,4.9514 -1.4156186,0 m -0.5981486,-3.4427 -0.6712557,0.027 c -0.2702784,0.01 -0.4984608,0.044 -0.6845478,0.1063 -0.186094,0.062 -0.3367386,0.1462 -0.4519345,0.2526 -0.1107712,0.1019 -0.1927396,0.2259 -0.2459056,0.3721 -0.048741,0.1418 -0.07311,0.3013 -0.073107,0.4786 -2.7e-6,0.3101 0.07532,0.5317 0.2259672,0.6646 0.1506418,0.1285 0.3478091,0.1927 0.5915025,0.1927 0.1860871,0 0.3588854,-0.031 0.5183955,-0.093 0.1595022,-0.067 0.2968547,-0.1618 0.4120579,-0.2858 0.1196252,-0.1285 0.2126705,-0.2836 0.2791361,-0.4652 0.066456,-0.1861 0.099687,-0.3988 0.099691,-0.6381 l 0,-0.6114"
         style="fill:#000000;fill-opacity:1;stroke:#000000;stroke-opacity:1;stroke-linejoin:round;stroke-width:3.00000000999999994;stroke-miterlimit:4;stroke-dasharray:none" />
    </g>
    <g
       transform="matrix(0.96451463,0,0,1.0367909,0,-5.3059308e-4)"
       style="font-size:13.61120415000000072px;font-style:normal;font-variant:normal;font-weight:bold;font-stretch:normal;line-height:125%;letter-spacing:0px;word-spacing:0px;fill:#000000;fill-opacity:1;stroke:#000000;font-family:Droid Sans;-inkscape-font-specification:Droid Sans Bold;stroke-opacity:1;stroke-linejoin:round;opacity:0.09999995;stroke-width:2.00000000999999994;stroke-miterlimit:4;stroke-dasharray:none"
       id="g3809">
      <path
         style="fill:#000000;fill-opacity:1;stroke:#000000;stroke-opacity:1;stroke-linejoin:round;stroke-width:2.00000000999999994;stroke-miterlimit:4;stroke-dasharray:none"
         d="m 9.9890815,1011.0278 -0.3921196,-1.0102 -0.059815,0 c -0.1462189,0.1993 -0.2924328,0.3721 -0.4386423,0.5184 -0.1462185,0.1417 -0.3057246,0.2592 -0.4785189,0.3522 -0.1728023,0.093 -0.3677543,0.1617 -0.5848564,0.206 -0.2126783,0.044 -0.460799,0.067 -0.7443628,0.067 -0.301292,0 -0.5804278,-0.047 -0.837408,-0.1396 -0.256984,-0.098 -0.4807357,-0.2414 -0.6712557,-0.432 -0.1860917,-0.1949 -0.3323056,-0.4386 -0.4386423,-0.731 -0.1063382,-0.2969 -0.1595069,-0.6469 -0.1595063,-1.0501 -6e-7,-0.7887 0.2525508,-1.3691 0.7576549,-1.7413 0.5051014,-0.3766 1.2605402,-0.5849 2.2663187,-0.6247 l 1.183005,-0.04 0,-0.5583 c -4.8e-6,-0.3057 -0.088619,-0.5317 -0.2658438,-0.6779 -0.1772336,-0.1462 -0.4253542,-0.2193 -0.7443628,-0.2193 -0.319016,0 -0.6313822,0.047 -0.9370995,0.1396 -0.3012922,0.093 -0.6047969,0.2171 -0.9105151,0.3721 l -0.6579635,-1.3425 c 0.3721798,-0.2082 0.7842373,-0.3721 1.2361739,-0.4918 0.4519315,-0.1196 0.9260192,-0.1794 1.4222644,-0.1794 0.9260179,0 1.6349346,0.2171 2.1267506,0.6513 0.496235,0.4342 0.744356,1.0944 0.744363,1.9805 l 0,4.9514 -1.4156186,0 m -0.5981486,-3.4427 -0.6712557,0.027 c -0.2702784,0.01 -0.4984608,0.044 -0.6845478,0.1063 -0.186094,0.062 -0.3367386,0.1462 -0.4519345,0.2526 -0.1107712,0.1019 -0.1927396,0.2259 -0.2459056,0.3721 -0.048741,0.1418 -0.07311,0.3013 -0.073107,0.4786 -2.7e-6,0.3101 0.07532,0.5317 0.2259672,0.6646 0.1506418,0.1285 0.3478091,0.1927 0.5915025,0.1927 0.1860871,0 0.3588854,-0.031 0.5183955,-0.093 0.1595022,-0.067 0.2968547,-0.1618 0.4120579,-0.2858 0.1196252,-0.1285 0.2126705,-0.2836 0.2791361,-0.4652 0.066456,-0.1861 0.099687,-0.3988 0.099691,-0.6381 l 0,-0.6114"
         id="path3811"
         inkscape:connector-curvature="0" />
    </g>
    <g
       id="g3805"
       style="font-size:13.61120415000000072px;font-style:normal;font-variant:normal;font-weight:bold;font-stretch:normal;line-height:125%;letter-spacing:0px;word-spacing:0px;fill:#000000;fill-opacity:1;stroke:#000000;font-family:Droid Sans;-inkscape-font-specification:Droid Sans Bold;stroke-opacity:1;stroke-linejoin:round;opacity:0.15"
       transform="matrix(0.96451463,0,0,1.0367909,0,-5.3059308e-4)">
      <path
         inkscape:connector-curvature="0"
         id="path3807"
         d="m 9.9890815,1011.0278 -0.3921196,-1.0102 -0.059815,0 c -0.1462189,0.1993 -0.2924328,0.3721 -0.4386423,0.5184 -0.1462185,0.1417 -0.3057246,0.2592 -0.4785189,0.3522 -0.1728023,0.093 -0.3677543,0.1617 -0.5848564,0.206 -0.2126783,0.044 -0.460799,0.067 -0.7443628,0.067 -0.301292,0 -0.5804278,-0.047 -0.837408,-0.1396 -0.256984,-0.098 -0.4807357,-0.2414 -0.6712557,-0.432 -0.1860917,-0.1949 -0.3323056,-0.4386 -0.4386423,-0.731 -0.1063382,-0.2969 -0.1595069,-0.6469 -0.1595063,-1.0501 -6e-7,-0.7887 0.2525508,-1.3691 0.7576549,-1.7413 0.5051014,-0.3766 1.2605402,-0.5849 2.2663187,-0.6247 l 1.183005,-0.04 0,-0.5583 c -4.8e-6,-0.3057 -0.088619,-0.5317 -0.2658438,-0.6779 -0.1772336,-0.1462 -0.4253542,-0.2193 -0.7443628,-0.2193 -0.319016,0 -0.6313822,0.047 -0.9370995,0.1396 -0.3012922,0.093 -0.6047969,0.2171 -0.9105151,0.3721 l -0.6579635,-1.3425 c 0.3721798,-0.2082 0.7842373,-0.3721 1.2361739,-0.4918 0.4519315,-0.1196 0.9260192,-0.1794 1.4222644,-0.1794 0.9260179,0 1.6349346,0.2171 2.1267506,0.6513 0.496235,0.4342 0.744356,1.0944 0.744363,1.9805 l 0,4.9514 -1.4156186,0 m -0.5981486,-3.4427 -0.6712557,0.027 c -0.2702784,0.01 -0.4984608,0.044 -0.6845478,0.1063 -0.186094,0.062 -0.3367386,0.1462 -0.4519345,0.2526 -0.1107712,0.1019 -0.1927396,0.2259 -0.2459056,0.3721 -0.048741,0.1418 -0.07311,0.3013 -0.073107,0.4786 -2.7e-6,0.3101 0.07532,0.5317 0.2259672,0.6646 0.1506418,0.1285 0.3478091,0.1927 0.5915025,0.1927 0.1860871,0 0.3588854,-0.031 0.5183955,-0.093 0.1595022,-0.067 0.2968547,-0.1618 0.4120579,-0.2858 0.1196252,-0.1285 0.2126705,-0.2836 0.2791361,-0.4652 0.066456,-0.1861 0.099687,-0.3988 0.099691,-0.6381 l 0,-0.6114"
         style="fill:#000000;fill-opacity:1;stroke:#000000;stroke-opacity:1;stroke-linejoin:round" />
    </g>
    <g
       transform="matrix(0.96451463,0,0,1.0367909,0,-5.3059308e-4)"
       style="font-size:13.61120415px;font-style:normal;font-variant:normal;font-weight:bold;font-stretch:normal;line-height:125%;letter-spacing:0px;word-spacing:0px;fill:#ffffff;fill-opacity:1;stroke:none;font-family:Droid Sans;-inkscape-font-specification:Droid Sans Bold"
       id="text3011">
      <path
         d="m 9.9890815,1011.0278 -0.3921196,-1.0102 -0.059815,0 c -0.1462189,0.1993 -0.2924328,0.3721 -0.4386423,0.5184 -0.1462185,0.1417 -0.3057246,0.2592 -0.4785189,0.3522 -0.1728023,0.093 -0.3677543,0.1617 -0.5848564,0.206 -0.2126783,0.044 -0.460799,0.067 -0.7443628,0.067 -0.301292,0 -0.5804278,-0.047 -0.837408,-0.1396 -0.256984,-0.098 -0.4807357,-0.2414 -0.6712557,-0.432 -0.1860917,-0.1949 -0.3323056,-0.4386 -0.4386423,-0.731 -0.1063382,-0.2969 -0.1595069,-0.6469 -0.1595063,-1.0501 -6e-7,-0.7887 0.2525508,-1.3691 0.7576549,-1.7413 0.5051014,-0.3766 1.2605402,-0.5849 2.2663187,-0.6247 l 1.183005,-0.04 0,-0.5583 c -4.8e-6,-0.3057 -0.088619,-0.5317 -0.2658438,-0.6779 -0.1772336,-0.1462 -0.4253542,-0.2193 -0.7443628,-0.2193 -0.319016,0 -0.6313822,0.047 -0.9370995,0.1396 -0.3012922,0.093 -0.6047969,0.2171 -0.9105151,0.3721 l -0.6579635,-1.3425 c 0.3721798,-0.2082 0.7842373,-0.3721 1.2361739,-0.4918 0.4519315,-0.1196 0.9260192,-0.1794 1.4222644,-0.1794 0.9260179,0 1.6349346,0.2171 2.1267506,0.6513 0.496235,0.4342 0.744356,1.0944 0.744363,1.9805 l 0,4.9514 -1.4156186,0 m -0.5981486,-3.4427 -0.6712557,0.027 c -0.2702784,0.01 -0.4984608,0.044 -0.6845478,0.1063 -0.186094,0.062 -0.3367386,0.1462 -0.4519345,0.2526 -0.1107712,0.1019 -0.1927396,0.2259 -0.2459056,0.3721 -0.048741,0.1418 -0.07311,0.3013 -0.073107,0.4786 -2.7e-6,0.3101 0.07532,0.5317 0.2259672,0.6646 0.1506418,0.1285 0.3478091,0.1927 0.5915025,0.1927 0.1860871,0 0.3588854,-0.031 0.5183955,-0.093 0.1595022,-0.067 0.2968547,-0.1618 0.4120579,-0.2858 0.1196252,-0.1285 0.2126705,-0.2836 0.2791361,-0.4652 0.066456,-0.1861 0.099687,-0.3988 0.099691,-0.6381 l 0,-0.6114"
         id="path3803"
         inkscape:connector-curvature="0" />
    </g>
  </g>
</svg>
