<?xml version="1.0" encoding="UTF-8" standalone="no"?>
<!-- Created with Inkscape (http://www.inkscape.org/) -->

<svg
   xmlns:dc="http://purl.org/dc/elements/1.1/"
   xmlns:cc="http://creativecommons.org/ns#"
   xmlns:rdf="http://www.w3.org/1999/02/22-rdf-syntax-ns#"
   xmlns:svg="http://www.w3.org/2000/svg"
   xmlns="http://www.w3.org/2000/svg"
   xmlns:xlink="http://www.w3.org/1999/xlink"
   xmlns:sodipodi="http://sodipodi.sourceforge.net/DTD/sodipodi-0.dtd"
   xmlns:inkscape="http://www.inkscape.org/namespaces/inkscape"
   width="16"
   height="16"
   id="svg3147"
   version="1.1"
   inkscape:version="0.48.3.1 r9886"
   sodipodi:docname="stock_timezone.svg">
  <defs
     id="defs3149">
    <linearGradient
       id="linearGradient3779">
      <stop
         style="stop-color:#234bb6;stop-opacity:1;"
         offset="0"
         id="stop3781" />
      <stop
         style="stop-color:#4b81c6;stop-opacity:1;"
         offset="1"
         id="stop3783" />
    </linearGradient>
    <linearGradient
       id="linearGradient3771">
      <stop
         style="stop-color:#b4e4ef;stop-opacity:1;"
         offset="0"
         id="stop3773" />
      <stop
         style="stop-color:#3ba9e0;stop-opacity:1;"
         offset="1"
         id="stop3775" />
    </linearGradient>
    <linearGradient
       id="linearGradient4536">
      <stop
         style="stop-color:#ffffff;stop-opacity:1;"
         offset="0"
         id="stop4538" />
      <stop
         id="stop4546"
         offset="0.06216056"
         style="stop-color:#ffffff;stop-opacity:0.15686275;" />
      <stop
         id="stop4544"
         offset="0.936414"
         style="stop-color:#ffffff;stop-opacity:0.23529412;" />
      <stop
         style="stop-color:#ffffff;stop-opacity:0.39215687;"
         offset="1"
         id="stop4540" />
    </linearGradient>
    <radialGradient
       inkscape:collect="always"
       xlink:href="#linearGradient3688-166-749"
       id="radialGradient3132"
       gradientUnits="userSpaceOnUse"
       gradientTransform="matrix(2.003784,0,0,1.4,27.98813,-17.4)"
       cx="4.9929786"
       cy="43.5"
       fx="4.9929786"
       fy="43.5"
       r="2.5" />
    <linearGradient
       id="linearGradient3688-166-749">
      <stop
         id="stop2883"
         style="stop-color:#181818;stop-opacity:1"
         offset="0" />
      <stop
         id="stop2885"
         style="stop-color:#181818;stop-opacity:0"
         offset="1" />
    </linearGradient>
    <radialGradient
       inkscape:collect="always"
       xlink:href="#linearGradient3688-464-309"
       id="radialGradient3134"
       gradientUnits="userSpaceOnUse"
       gradientTransform="matrix(2.003784,0,0,1.4,-20.01187,-104.4)"
       cx="4.9929786"
       cy="43.5"
       fx="4.9929786"
       fy="43.5"
       r="2.5" />
    <linearGradient
       id="linearGradient3688-464-309">
      <stop
         id="stop2889"
         style="stop-color:#181818;stop-opacity:1"
         offset="0" />
      <stop
         id="stop2891"
         style="stop-color:#181818;stop-opacity:0"
         offset="1" />
    </linearGradient>
    <linearGradient
       inkscape:collect="always"
       xlink:href="#linearGradient3702-501-757"
       id="linearGradient3136"
       gradientUnits="userSpaceOnUse"
       x1="25.058096"
       y1="47.027729"
       x2="25.058096"
       y2="39.999443" />
    <linearGradient
       id="linearGradient3702-501-757">
      <stop
         id="stop2895"
         style="stop-color:#181818;stop-opacity:0"
         offset="0" />
      <stop
         id="stop2897"
         style="stop-color:#181818;stop-opacity:1"
         offset="0.5" />
      <stop
         id="stop2899"
         style="stop-color:#181818;stop-opacity:0"
         offset="1" />
    </linearGradient>
    <linearGradient
       inkscape:collect="always"
       xlink:href="#linearGradient4536"
       id="linearGradient4542"
       x1="14.801802"
       y1="1010.4072"
       x2="14.801802"
       y2="1024.1722"
       gradientUnits="userSpaceOnUse"
       gradientTransform="translate(-4,27.000017)" />
    <radialGradient
       inkscape:collect="always"
       xlink:href="#linearGradient3771"
       id="radialGradient3777"
       cx="8.2162399"
       cy="1039.3171"
       fx="8.2162399"
       fy="1039.3171"
       r="8"
       gradientUnits="userSpaceOnUse"
       gradientTransform="matrix(3.0451418e-6,1.9369369,-1.4505624,2.2804915e-6,1515.8106,1023.4004)" />
    <linearGradient
       inkscape:collect="always"
       xlink:href="#linearGradient3779"
       id="linearGradient3785"
       x1="4.8288288"
       y1="1052.146"
       x2="4.8288288"
       y2="1036.2902"
       gradientUnits="userSpaceOnUse" />
    <linearGradient
       inkscape:collect="always"
       xlink:href="#linearGradient3779"
       id="linearGradient3819"
       x1="6.4530039"
       y1="14.981883"
       x2="6.4530039"
       y2="1.0583754"
       gradientUnits="userSpaceOnUse" />
    <radialGradient
       inkscape:collect="always"
       xlink:href="#linearGradient3771"
       id="radialGradient3790"
       gradientUnits="userSpaceOnUse"
       gradientTransform="matrix(3.0451418e-6,1.9369369,-1.4505624,2.2804915e-6,1516.3106,1023.9004)"
       cx="8.2162399"
       cy="1039.3171"
       fx="8.2162399"
       fy="1039.3171"
       r="8" />
    <linearGradient
       inkscape:collect="always"
       xlink:href="#linearGradient3779"
       id="linearGradient3799"
       x1="6.7078171"
       y1="14.930921"
       x2="6.7078171"
       y2="1.1888437"
       gradientUnits="userSpaceOnUse" />
  </defs>
  <sodipodi:namedview
     id="base"
     pagecolor="#ffffff"
     bordercolor="#666666"
     borderopacity="1.0"
     inkscape:pageopacity="0.0"
     inkscape:pageshadow="2"
     inkscape:zoom="17.125"
     inkscape:cx="6.4361086"
     inkscape:cy="3.66715"
     inkscape:document-units="px"
     inkscape:current-layer="layer1"
     showgrid="false"
     inkscape:window-width="1280"
     inkscape:window-height="749"
     inkscape:window-x="0"
     inkscape:window-y="24"
     inkscape:window-maximized="1" />
  <metadata
     id="metadata3152">
    <rdf:RDF>
      <cc:Work
         rdf:about="">
        <dc:format>image/svg+xml</dc:format>
        <dc:type
           rdf:resource="http://purl.org/dc/dcmitype/StillImage" />
        <dc:title></dc:title>
      </cc:Work>
    </rdf:RDF>
  </metadata>
  <g
     inkscape:label="Livello 1"
     inkscape:groupmode="layer"
     id="layer1"
     transform="translate(0,-1036.3622)">
    <rect
       style="fill:url(#radialGradient3777);fill-opacity:1;stroke:url(#linearGradient3785);stroke-opacity:1"
       id="rect3163"
       width="15"
       height="15"
       x="0.5"
       y="1036.8622"
       rx="1"
       ry="1" />
    <path
       d="M 1.625 1 L 1.625 1.03125 L 1.75 1 L 1.625 1 z M 1.75 1 L 1.875 1.125 L 1.9375 1.125 L 1.9375 1 L 1.75 1 z M 2 1 L 2.0625 1.0625 L 2 1.125 L 2.03125 1.21875 L 2.1875 1.125 L 2.1875 1.0625 L 2.125 1 L 2 1 z M 2.40625 1 L 2.40625 1.03125 L 2.25 1.0625 L 2.375 1.1875 L 2.5 1.21875 L 2.71875 1.125 L 2.625 1 L 2.40625 1 z M 2.9375 1 L 2.96875 1.03125 L 3.0625 1 L 2.9375 1 z M 3.25 1 L 3.25 1.0625 L 3.03125 1.15625 L 2.875 1.0625 L 2.75 1.0625 L 2.875 1.25 L 2.8125 1.28125 L 2.71875 1.1875 L 2.65625 1.25 L 2.71875 1.34375 L 2.84375 1.34375 L 2.8125 1.46875 L 2.71875 1.46875 L 2.59375 1.34375 L 2.53125 1.34375 L 2.53125 1.40625 L 2.375 1.4375 L 2.40625 1.5 L 2.59375 1.5625 L 2.75 1.59375 L 2.875 1.6875 L 3 1.625 L 2.9375 1.53125 L 3.03125 1.53125 L 3.125 1.4375 L 3.28125 1.40625 L 3.28125 1.375 L 3.1875 1.3125 L 3.1875 1.25 L 3.46875 1.28125 L 3.875 1.125 L 3.71875 1.09375 L 3.75 1.03125 L 4.0625 1.03125 L 4.09375 1 L 3.25 1 z M 5.3125 1 L 5.15625 1.03125 L 5.125 1.125 L 5.28125 1.15625 L 5.09375 1.28125 L 5 1.15625 L 4.8125 1.09375 L 4.8125 1.21875 L 4.625 1.21875 L 4.5625 1.09375 L 4.3125 1.0625 L 4.1875 1.125 L 4.15625 1.21875 L 4 1.1875 L 3.875 1.25 L 3.875 1.34375 L 3.875 1.40625 L 3.6875 1.4375 L 3.59375 1.375 L 3.53125 1.5 L 3.625 1.59375 L 3.8125 1.5625 L 3.8125 1.625 L 3.6875 1.6875 L 3.53125 1.625 L 3.5 1.6875 L 3.5625 1.78125 L 3.53125 1.84375 L 3.65625 1.96875 L 3.78125 1.9375 L 3.9375 1.90625 L 4.125 2.125 L 4.25 2.46875 L 4.15625 2.6875 L 4.28125 2.65625 L 4.375 2.6875 L 4.375 2.8125 L 4.21875 2.8125 L 4.3125 2.90625 L 4.40625 2.9375 L 4.15625 3.28125 L 4.125 3.5 L 4.1875 3.65625 L 4.15625 3.75 L 4.21875 3.96875 L 4.34375 4.125 L 4.375 4.125 L 4.46875 4.09375 L 4.46875 4.21875 L 4.53125 4.3125 L 4.625 4.28125 L 4.71875 4 L 4.9375 3.71875 L 5.3125 3.5625 L 5.53125 3.28125 L 5.625 3.34375 L 5.84375 3.34375 L 6 3.15625 L 6.21875 3.09375 L 6.25 2.9375 L 6.125 2.84375 L 6 2.78125 L 5.9375 2.625 L 6.09375 2.53125 L 6.3125 2.65625 L 6.40625 2.5625 L 6.28125 2.5 L 6.53125 2.15625 L 6.5 2 L 6.375 1.96875 L 6.40625 1.84375 L 6.5625 1.75 L 6.90625 1.46875 L 6.8125 1.375 L 6.4375 1.40625 L 6.25 1.59375 L 6.34375 1.34375 L 6.21875 1.3125 L 6.15625 1.4375 L 6.0625 1.375 L 5.78125 1.40625 L 5.84375 1.28125 L 6.3125 1.25 L 6.1875 1.09375 L 5.6875 1 L 5.5 1.03125 L 5.5 1.125 L 5.28125 1.0625 L 5.3125 1 z M 12.96875 1 L 13 1.0625 L 13.03125 1 L 12.96875 1 z M 13.15625 1.03125 L 13.0625 1.1875 L 13.125 1.25 L 12.71875 1.46875 L 12.34375 1.75 L 12.125 2.03125 L 12.125 2.15625 L 12.375 2.25 L 12.25 2.34375 L 12 2.25 L 11.90625 2.34375 L 11.75 2.1875 L 11.71875 2.25 L 11.90625 2.78125 L 11.9375 2.78125 L 12.0625 2.71875 L 12.09375 2.78125 L 12.09375 2.875 L 12 2.8125 L 11.9375 2.875 L 11.96875 2.96875 L 11.9375 3.21875 L 11.71875 3.25 L 11.6875 3.15625 L 11.84375 3.0625 L 11.875 2.84375 L 11.71875 2.65625 L 11.65625 2.34375 L 11.4375 2.3125 L 11.40625 2.40625 L 11.46875 2.46875 L 11.375 2.5625 L 11.40625 2.78125 L 11.53125 2.84375 L 11.5625 3 L 11.4375 2.90625 L 11.0625 2.84375 L 11.03125 2.96875 L 10.75 3.0625 L 10.6875 3 L 10.34375 3.1875 L 10.3125 3.34375 L 10.1875 3.34375 L 10.21875 3.25 L 10.21875 3.15625 L 10.0625 3.09375 L 9.96875 3.125 L 10.0625 3.28125 L 10.125 3.40625 L 10.125 3.46875 L 10 3.4375 L 9.875 3.53125 L 9.9375 3.65625 L 9.6875 3.625 L 9.78125 3.75 L 9.75 3.78125 L 9.625 3.78125 L 9.53125 3.71875 L 9.5 3.53125 L 9.34375 3.46875 L 9.34375 3.40625 L 9.65625 3.46875 L 9.84375 3.46875 L 9.90625 3.375 L 9.84375 3.25 L 9.375 3.0625 L 9.21875 3.125 L 9.21875 3.09375 L 9.21875 3.0625 L 9.1875 3.03125 L 9.1875 2.96875 L 9.21875 2.96875 L 9.21875 2.9375 L 9.0625 2.90625 L 8.875 2.9375 L 8.84375 3.03125 L 8.8125 3 L 8.78125 2.9375 L 8.65625 2.9375 L 8.65625 3.0625 L 8.625 3.0625 L 8.59375 3.03125 L 8.375 3.1875 L 8.40625 3.25 L 8.34375 3.28125 L 8.15625 3.625 L 8.09375 3.6875 L 8.09375 3.71875 L 8.15625 3.75 L 8.15625 3.8125 L 8.03125 3.8125 L 8 3.78125 L 7.9375 3.84375 L 7.90625 3.875 L 7.875 3.96875 L 7.84375 3.96875 L 7.75 4 L 7.71875 4.15625 L 7.75 4.40625 L 7.78125 4.5 L 7.8125 4.5625 L 7.90625 4.5625 L 8.0625 4.40625 L 8.09375 4.3125 L 8.125 4.46875 L 8.125 4.5 L 8.25 4.6875 L 8.28125 4.84375 L 8.34375 4.84375 L 8.375 4.78125 L 8.5 4.71875 L 8.5 4.5 L 8.59375 4.4375 L 8.625 4.34375 L 8.65625 4.28125 L 8.5 4.1875 L 8.5 4.0625 L 8.59375 3.9375 L 8.65625 3.90625 L 8.75 3.78125 L 8.75 3.6875 L 8.875 3.5625 L 8.875 3.375 L 8.90625 3.375 L 8.90625 3.59375 L 8.96875 3.59375 L 9 3.6875 L 8.96875 3.71875 L 8.78125 3.9375 L 8.75 4.03125 L 8.78125 4.1875 L 8.9375 4.28125 L 9.125 4.21875 L 9.28125 4.1875 L 9.375 4.03125 L 9.3125 4.1875 L 9.28125 4.25 L 9.375 4.28125 L 9.28125 4.34375 L 9.25 4.34375 L 9.25 4.5625 L 9.21875 4.34375 L 9.0625 4.34375 L 8.96875 4.40625 L 8.96875 4.46875 L 9.03125 4.53125 L 9.03125 4.65625 L 9.21875 4.75 L 9.3125 4.75 L 9.3125 4.71875 L 9.40625 4.75 L 9.53125 4.78125 L 9.65625 4.96875 L 9.65625 5.03125 L 9.625 5.09375 L 9.71875 5.09375 L 9.59375 5.125 L 9.5625 5.25 L 9.34375 5.25 L 9.28125 5.21875 L 9.15625 5.1875 L 9.09375 5.25 L 9.09375 5.34375 L 9.0625 5.34375 L 9.0625 5.28125 L 9.03125 5.25 L 9.03125 5.1875 L 9.03125 5.125 L 9.03125 5.0625 L 9 5 L 9.03125 5 L 9.125 4.96875 L 9.21875 4.84375 L 9.21875 4.78125 L 9.03125 4.65625 L 8.96875 4.65625 L 8.96875 4.625 L 8.90625 4.59375 L 8.875 4.59375 L 8.78125 4.65625 L 8.78125 4.71875 L 8.8125 4.71875 L 8.875 4.71875 L 8.875 4.75 L 8.8125 4.75 L 8.8125 4.84375 L 8.78125 4.9375 L 8.6875 4.9375 L 8.6875 4.90625 L 8.6875 4.875 L 8.625 4.90625 L 8.5 4.9375 L 8.40625 5.03125 L 8.40625 5.21875 L 8.46875 5.3125 L 8.59375 5.375 L 8.71875 5.46875 L 8.8125 5.5 L 8.875 5.46875 L 8.90625 5.46875 L 8.96875 5.5 L 8.96875 5.53125 L 8.90625 5.5 L 8.8125 5.53125 L 8.71875 5.5 L 8.71875 5.46875 L 8.59375 5.40625 L 8.46875 5.34375 L 8.375 5.34375 L 8.4375 5.3125 L 8.375 5.25 L 8.375 5.03125 L 8.3125 4.96875 L 8.25 4.96875 L 8.15625 5 L 8.125 5 L 8.0625 4.9375 L 7.96875 4.96875 L 7.96875 5.03125 L 7.875 5.03125 L 7.90625 5.21875 L 7.875 5.21875 L 7.84375 5.0625 L 7.71875 5.125 L 7.75 5.15625 L 7.75 5.21875 L 7.71875 5.1875 L 7.6875 5.15625 L 7.625 5.28125 L 7.71875 5.28125 L 7.71875 5.3125 L 7.78125 5.34375 L 7.8125 5.25 L 7.84375 5.25 L 7.8125 5.34375 L 7.875 5.4375 L 7.875 5.5 L 7.84375 5.5 L 7.84375 5.4375 L 7.78125 5.375 L 7.75 5.375 L 7.71875 5.3125 L 7.625 5.28125 L 7.59375 5.28125 L 7.59375 5.34375 L 7.5625 5.34375 L 7.5 5.375 L 7.375 5.5 L 7.34375 5.5 L 7.28125 5.46875 L 7.25 5.5 L 7.21875 5.5625 L 7.03125 5.5625 L 7.0625 5.59375 L 7.1875 5.6875 L 7.3125 5.8125 L 7.3125 5.96875 L 7.25 6.09375 L 7.40625 6.1875 L 7.59375 6.1875 L 7.65625 6.125 L 7.75 6.125 L 7.78125 6.15625 L 7.90625 6.125 L 7.9375 6.0625 L 7.875 5.96875 L 7.875 5.90625 L 7.875 5.875 L 7.84375 5.8125 L 7.875 5.78125 L 7.90625 5.875 L 7.90625 5.9375 L 7.90625 5.96875 L 7.96875 6.0625 L 8.0625 6.0625 L 8.3125 6.3125 L 8.46875 6.375 L 8.5625 6.46875 L 8.5625 6.65625 L 8.625 6.625 L 8.65625 6.5 L 8.65625 6.4375 L 8.71875 6.4375 L 8.75 6.375 L 8.53125 6.28125 L 8.34375 6.09375 L 8.28125 6 L 8.25 5.90625 L 8.34375 5.875 L 8.3125 5.8125 L 8.28125 5.75 L 8.34375 5.78125 L 8.46875 5.75 L 8.5625 5.71875 L 8.59375 5.65625 L 8.59375 5.625 L 8.625 5.625 L 8.625 5.65625 L 8.84375 5.65625 L 9 5.5625 L 9 5.5 L 9 5.46875 L 9.0625 5.375 L 9.03125 5.5 L 9.03125 5.5625 L 9.03125 5.59375 L 9.0625 5.59375 L 9.28125 5.59375 L 9.375 5.5625 L 9.4375 5.5625 L 9.53125 5.71875 L 9.46875 5.84375 L 9.4375 5.84375 L 9.5 5.71875 L 9.40625 5.59375 L 9.375 5.5625 L 9.3125 5.625 L 9.40625 5.75 L 9.40625 5.84375 L 9.375 5.84375 L 9.375 5.75 L 9.28125 5.625 L 9.0625 5.625 L 9.0625 5.65625 L 8.90625 5.78125 L 9.03125 6 L 9.125 6.0625 L 9.28125 6.0625 L 9.34375 6.03125 L 9.40625 6 L 9.40625 6.03125 L 9.34375 6.03125 L 9.3125 6.09375 L 9.125 6.09375 L 9.03125 6.03125 L 9.0625 6.1875 L 9.09375 6.28125 L 9.28125 6.28125 L 9.375 6.21875 L 9.4375 6.1875 L 9.4375 6.09375 L 9.4375 6.03125 L 9.46875 6.03125 L 9.5625 5.9375 L 9.53125 5.875 L 9.65625 5.71875 L 9.71875 5.75 L 9.78125 5.78125 L 9.71875 5.84375 L 9.8125 5.96875 L 9.875 5.96875 L 9.90625 5.90625 L 10 5.875 L 10 5.8125 L 9.84375 5.78125 L 9.84375 5.71875 L 10 5.71875 L 10.15625 5.59375 L 10.125 5.65625 L 10.15625 5.6875 L 10.0625 5.78125 L 10.03125 5.90625 L 10.09375 6 L 10.3125 6.0625 L 10.375 6.03125 L 10.75 6.1875 L 10.78125 6.1875 L 10.75 6.25 L 10.875 6.4375 L 10.9375 6.40625 L 10.9375 6.46875 L 10.90625 6.46875 L 10.84375 6.5 L 10.84375 6.53125 L 10.71875 6.5 L 10.71875 6.46875 L 10.84375 6.5 L 10.875 6.4375 L 10.71875 6.25 L 10.625 6.28125 L 10.71875 6.21875 L 10.75 6.1875 L 10.375 6.0625 L 10.3125 6.09375 L 10.40625 6.21875 L 10.53125 6.28125 L 10.59375 6.28125 L 10.59375 6.3125 L 10.53125 6.3125 L 10.40625 6.25 L 10.34375 6.3125 L 10.125 6.3125 L 9.96875 6.21875 L 9.84375 6.21875 L 9.65625 6.34375 L 9.53125 6.34375 L 9.5 6.4375 L 9.34375 6.4375 L 9.28125 6.5 L 9.28125 6.53125 L 9.3125 6.5625 L 9.3125 6.59375 L 9.28125 6.625 L 9.3125 6.6875 L 9.375 6.65625 L 9.40625 6.71875 L 9.40625 6.75 L 9.375 6.78125 L 9.40625 6.8125 L 9.5625 6.84375 L 9.65625 6.78125 L 9.65625 6.71875 L 9.71875 6.75 L 9.84375 6.8125 L 9.96875 6.78125 L 10.03125 6.75 L 10.0625 6.75 L 10.0625 6.8125 L 10.125 6.8125 L 10.15625 6.71875 L 10.5625 6.6875 L 10.71875 6.65625 L 10.75 6.65625 L 10.90625 6.84375 L 10.875 6.90625 L 10.84375 6.90625 L 10.875 6.84375 L 10.71875 6.71875 L 10.71875 6.6875 L 10.5625 6.71875 L 10.1875 6.75 L 10.125 6.8125 L 10.125 6.84375 L 10.0625 6.84375 L 10.0625 6.9375 L 10.0625 7 L 10.03125 7.0625 L 10.09375 7.09375 L 10.125 6.96875 L 10.125 7.15625 L 10.21875 7.15625 L 10.125 7.1875 L 10.0625 7.4375 L 10.0625 7.46875 L 10.0625 7.5625 L 10.46875 8.0625 L 10.46875 8.1875 L 10.5 8.25 L 10.625 8.28125 L 10.78125 8.5625 L 10.84375 8.6875 L 10.84375 8.8125 L 10.84375 8.84375 L 10.8125 8.84375 L 10.5625 8.625 L 10.5 8.4375 L 10.46875 8.4375 L 10.34375 8.5625 L 10.34375 8.71875 L 10.5625 8.71875 L 10.5625 8.75 L 10.34375 8.75 L 10.3125 8.78125 L 10.15625 9.21875 L 10.125 9.21875 L 10.3125 8.78125 L 10.3125 8.5625 L 10.4375 8.40625 L 10.21875 8.03125 L 10.1875 8.03125 L 10.1875 7.875 L 9.90625 7.53125 L 9.875 7.4375 L 9.875 7.375 L 9.9375 7.375 L 9.96875 7.5625 L 10.03125 7.59375 L 10.0625 7.5625 L 10.03125 7.46875 L 10.03125 7.4375 L 10.03125 7.40625 L 10.09375 7.15625 L 10.09375 7.09375 L 10.03125 7.09375 L 9.96875 7.25 L 9.9375 7.25 L 9.84375 7.25 L 9.78125 7.21875 L 9.75 7.21875 L 9.65625 7.28125 L 9.5625 7.28125 L 9.4375 7.25 L 9.34375 7.25 L 9.375 8.09375 L 10.09375 8.125 L 9.375 8.125 L 9.375 8.3125 L 9.34375 8.3125 L 9.3125 7.25 L 9.1875 7.21875 L 9.125 7.15625 L 8.96875 7.15625 L 8.875 7.21875 L 8.875 7.25 L 8.9375 7.28125 L 8.9375 7.34375 L 8.8125 7.40625 L 8.59375 7.28125 L 8.53125 7.1875 L 8.3125 7.125 L 8.21875 7.25 L 8.21875 7.28125 L 8.1875 7.28125 L 8.1875 7.375 L 8.15625 7.375 L 8.15625 7.25 L 8.21875 7.25 L 8.28125 7.125 L 8.1875 7.09375 L 8.1875 7.0625 L 8.21875 7 L 8.21875 6.90625 L 8.1875 6.875 L 8.1875 6.84375 L 8.21875 6.78125 L 8.1875 6.75 L 8.15625 6.71875 L 8 6.78125 L 8 6.875 L 8.03125 7 L 8 7 L 8 6.875 L 7.96875 6.8125 L 7.84375 6.75 L 7.34375 6.84375 L 7.25 6.9375 L 7.3125 7.28125 L 7.125 7.28125 L 7 7.46875 L 6.71875 7.53125 L 6.71875 7.65625 L 6.96875 7.875 L 6.71875 7.6875 L 6.71875 7.8125 L 6.40625 7.8125 L 6.40625 7.78125 L 6.6875 7.78125 L 6.6875 7.5 L 6.96875 7.4375 L 7.09375 7.25 L 7.28125 7.25 L 7.21875 6.9375 L 6.875 6.9375 L 6.8125 7.0625 L 6.65625 7.15625 L 6.53125 7.5 L 6.3125 7.625 L 5.96875 8.1875 L 6.03125 8.28125 L 6 8.625 L 6.09375 8.5625 L 6.1875 8.5625 L 6.25 8.59375 L 6.25 8.625 L 6.15625 8.59375 L 6.125 8.59375 L 6 8.6875 L 5.96875 8.71875 L 5.96875 8.78125 L 6 8.8125 L 6.15625 8.8125 L 6.03125 8.84375 L 6.03125 8.875 L 6.21875 8.875 L 6.21875 8.84375 L 6.21875 8.8125 L 6.25 8.8125 L 6.25 8.875 L 6.3125 8.9375 L 6.34375 8.9375 L 6.46875 8.9375 L 6.65625 8.90625 L 6.6875 9.0625 L 6.90625 9.0625 L 6.96875 8.90625 L 7.28125 8.6875 L 7.4375 8.6875 L 7.59375 8.9375 L 7.65625 8.9375 L 7.71875 8.8125 L 7.84375 8.8125 L 7.96875 8.875 L 8.21875 8.875 L 8.40625 8.8125 L 8.4375 8.8125 L 8.53125 8.875 L 8.59375 8.90625 L 8.59375 8.9375 L 8.53125 8.90625 L 8.53125 9 L 8.5 8.90625 L 8.40625 8.84375 L 8.21875 8.9375 L 7.9375 8.9375 L 7.8125 8.84375 L 7.75 8.875 L 7.6875 8.9375 L 7.6875 9.1875 L 7.625 9.28125 L 7.59375 9.4375 L 7.71875 9.46875 L 7.84375 9.59375 L 7.90625 9.625 L 7.96875 9.59375 L 8.0625 9.59375 L 8.15625 9.65625 L 8.15625 9.8125 L 8.15625 9.84375 L 8.28125 9.875 L 8.28125 9.8125 L 8.3125 9.8125 L 8.3125 9.875 L 8.28125 9.875 L 8.15625 9.875 L 8.0625 10.0625 L 8.28125 10.34375 L 8.3125 10.40625 L 8.375 10.46875 L 8.40625 10.46875 L 8.71875 10.46875 L 8.78125 10.5625 L 8.75 10.59375 L 8.6875 10.5 L 8.375 10.5 L 8.46875 10.875 L 8.46875 11 L 8.34375 11.15625 L 8.3125 11.40625 L 8.3125 11.5625 L 8.5 11.84375 L 8.46875 11.96875 L 8.46875 12.03125 L 8.625 12.375 L 8.71875 12.40625 L 8.78125 12.4375 L 8.90625 12.4375 L 8.9375 12.0625 L 8.9375 11.8125 L 9.03125 11.8125 L 9.0625 11.5625 L 9.0625 11.53125 L 9.28125 11.53125 L 9.28125 11.5625 L 9.0625 11.5625 L 9.0625 11.8125 L 9.03125 11.8125 L 8.96875 11.84375 L 8.96875 12.0625 L 9.03125 12.09375 L 9 12.28125 L 9.0625 12.28125 L 9.21875 12.15625 L 9.40625 12.15625 L 9.4375 12.0625 L 9.46875 12.0625 L 9.65625 11.84375 L 9.40625 11.53125 L 9.4375 11.53125 L 9.6875 11.8125 L 9.875 11.875 L 10.03125 11.6875 L 9.90625 11.90625 L 9.90625 12.15625 L 9.8125 12.15625 L 9.875 12.125 L 9.875 11.90625 L 9.6875 11.84375 L 9.6875 11.875 L 9.46875 12.0625 L 9.40625 12.15625 L 9.40625 12.1875 L 9.25 12.1875 L 9.09375 12.3125 L 9 12.3125 L 9 12.28125 L 9 12.125 L 8.96875 12.09375 L 8.9375 12.46875 L 8.75 12.46875 L 8.71875 12.40625 L 8.625 12.40625 L 8.6875 12.625 L 8.8125 12.75 L 8.71875 12.84375 L 8.78125 12.96875 L 8.9375 13.03125 L 9.03125 12.9375 L 9.34375 12.9375 L 9.375 12.90625 L 9.5 12.90625 L 9.96875 12.4375 L 9.96875 12.28125 L 9.9375 12.34375 L 9.84375 12.34375 L 9.75 12.28125 L 9.78125 12.25 L 9.84375 12.3125 L 9.90625 12.3125 L 9.96875 12.21875 L 10.15625 12.09375 L 10.1875 11.9375 L 10.1875 11.65625 L 10.5 11.40625 L 10.53125 11.40625 L 10.71875 11.25 L 10.6875 10.90625 L 10.21875 10.96875 L 10.21875 11.0625 L 10.1875 10.9375 L 10.6875 10.875 L 10.5625 10.65625 L 10.5625 10.4375 L 10.59375 10.34375 L 10.15625 10.03125 L 10.125 10.03125 L 9.96875 10.0625 L 9.96875 10.03125 L 10.125 10.03125 L 10.15625 9.96875 L 10.21875 9.78125 L 10.15625 9.65625 L 9.9375 9.65625 L 9.9375 9.71875 L 9.9375 9.75 L 9.96875 9.75 L 9.96875 9.78125 L 9.9375 9.8125 L 9.9375 9.75 L 9.90625 9.75 L 9.90625 9.65625 L 9.875 9.65625 L 9.875 9.625 L 10.15625 9.625 L 10.15625 9.5625 L 10.1875 9.5625 L 10.1875 9.625 L 10.25 9.78125 L 10.15625 9.96875 L 10.15625 10.03125 L 10.625 10.3125 L 10.75 10.09375 L 10.78125 10.09375 L 11.4375 9.40625 L 11.53125 9.09375 L 11.53125 8.96875 L 11.5 8.9375 L 11.375 9 L 11.40625 9.09375 L 11.375 9.1875 L 11.375 9.21875 L 11.3125 9.28125 L 11.28125 9.28125 L 11.125 9.25 L 10.90625 9.125 L 10.90625 9.09375 L 10.875 9.03125 L 10.875 8.875 L 10.9375 8.90625 L 11.65625 8.625 L 11.65625 8.53125 L 11.53125 8.34375 L 11.25 8.4375 L 11.25 8.40625 L 11.5625 8.3125 L 11.65625 8.53125 L 11.8125 8.53125 L 12.125 8.0625 L 12.125 7.96875 L 11.875 7.84375 L 11.8125 7.78125 L 11.8125 7.75 L 11.84375 7.65625 L 11.75 7.6875 L 11.65625 7.84375 L 11.46875 7.84375 L 11.46875 7.6875 L 11.4375 7.65625 L 11.40625 7.6875 L 11.375 7.8125 L 11.34375 7.8125 L 11.15625 7.53125 L 11.125 7.5 L 11.125 7.34375 L 11.15625 7.34375 L 11.15625 7.3125 L 11.25 7.3125 L 11.3125 7.375 L 11.34375 7.46875 L 11.625 7.65625 L 11.71875 7.65625 L 11.78125 7.59375 L 11.875 7.59375 L 11.90625 7.6875 L 12.21875 7.75 L 12.21875 7.625 L 12.3125 7.59375 L 12.3125 7.5625 L 12.25 7.4375 L 12.0625 7.3125 L 12.09375 7.28125 L 12.25 7.40625 L 12.5625 7.3125 L 12.5625 7.1875 L 12.59375 7.1875 L 12.75 7.0625 L 12.84375 6.8125 L 12.78125 7.09375 L 12.59375 7.1875 L 12.5625 7.3125 L 12.5625 7.34375 L 12.28125 7.4375 L 12.34375 7.5625 L 12.34375 7.59375 L 12.3125 7.59375 L 12.25 7.65625 L 12.25 7.75 L 12.34375 7.75 L 12.375 7.71875 L 12.59375 7.71875 L 12.8125 7.875 L 12.84375 7.8125 L 12.84375 7.78125 L 12.96875 7.78125 L 12.96875 7.6875 L 13 7.6875 L 13 7.8125 L 12.84375 7.8125 L 12.84375 7.90625 L 12.9375 7.90625 L 12.96875 7.9375 L 12.875 8 L 12.9375 8.09375 L 13.03125 8.125 L 13.09375 8.09375 L 13.125 8 L 13.1875 7.96875 L 13.21875 8.03125 L 13.21875 8.15625 L 13.1875 8.1875 L 13.1875 8.28125 L 13.65625 9.28125 L 13.78125 9.21875 L 13.875 8.9375 L 13.875 8.59375 L 14.3125 8.09375 L 14.3125 7.96875 L 14.40625 7.9375 L 14.40625 7.8125 L 14.3125 7.625 L 14.34375 7.59375 L 14.4375 7.78125 L 14.4375 7.9375 L 14.4375 7.96875 L 14.5625 7.96875 L 14.625 7.90625 L 14.6875 7.9375 L 14.6875 8.03125 L 14.90625 8.21875 L 14.9375 8.3125 L 14.96875 8.4375 L 15 8.46875 L 15 7.28125 L 14.96875 7.28125 L 14.96875 7.375 L 14.9375 7.375 L 14.9375 7.28125 L 14.90625 7.1875 L 14.84375 7.1875 L 14.5625 7.375 L 14.53125 7.375 L 14.375 7.375 L 14.40625 7.4375 L 14.5625 7.4375 L 14.59375 7.5 L 14.40625 7.5 L 14.34375 7.40625 L 14.28125 7.40625 L 14.28125 7.375 L 14.03125 7.3125 L 13.8125 7.1875 L 13.65625 7.21875 L 13.6875 7.34375 L 13.90625 7.4375 L 14.28125 7.46875 L 14.3125 7.53125 L 13.90625 7.5 L 13.65625 7.375 L 13.625 7.25 L 13.46875 7.125 L 13.46875 6.9375 L 13.34375 6.78125 L 13.09375 6.8125 L 13.125 6.9375 L 13.09375 6.9375 L 13.0625 6.78125 L 13.34375 6.75 L 13.5 6.90625 L 13.5 7.09375 L 13.65625 7.1875 L 13.8125 7.15625 L 14.03125 7.28125 L 14.28125 7.375 L 14.40625 7.34375 L 14.53125 7.34375 L 14.84375 7.15625 L 14.9375 7.15625 L 14.96875 7.25 L 15 7.25 L 15 5.8125 L 14.875 5.71875 L 14.65625 5.8125 L 14.46875 5.75 L 14.46875 5.71875 L 14.65625 5.78125 L 14.875 5.65625 L 15 5.78125 L 15 4.84375 L 14.90625 4.84375 L 14.8125 4.90625 L 14.6875 4.90625 L 14.59375 4.78125 L 14.375 4.6875 L 14.3125 4.78125 L 14.28125 4.78125 L 14.375 4.625 L 14.625 4.71875 L 14.6875 4.84375 L 14.8125 4.84375 L 14.875 4.8125 L 15 4.78125 L 15 1.53125 L 14.84375 1.5 L 14.9375 1.28125 L 14.53125 1.28125 L 14.5625 1.46875 L 14.40625 1.53125 L 14.3125 1.4375 L 13.84375 1.5 L 13.65625 1.6875 L 13.65625 1.78125 L 13.53125 1.78125 L 13.5 1.65625 L 13.875 1.34375 L 13.875 1.125 L 13.65625 1.0625 L 13.34375 1.15625 L 13.1875 1.03125 L 13.15625 1.03125 z M 10.90625 9.09375 L 11.125 9.21875 L 11.28125 9.25 L 11.375 9.1875 L 11.375 9.09375 L 11.34375 9 L 11.0625 9.09375 L 11.03125 9.09375 L 10.90625 9.03125 L 10.90625 9.09375 z M 7.59375 9.4375 L 7.59375 9.25 L 7.65625 9.15625 L 7.65625 8.96875 L 7.59375 8.96875 L 7.46875 9.0625 L 7.5625 8.9375 L 7.40625 8.71875 L 7.28125 8.71875 L 7 8.9375 L 6.9375 9.09375 L 6.90625 9.09375 L 6.78125 9.09375 L 6.71875 9.09375 L 6.71875 9.25 L 6.6875 9.25 L 6.6875 9.125 L 6.625 8.96875 L 6.46875 8.96875 L 6.25 8.96875 L 6.25 9 L 6.21875 9 L 6.21875 8.96875 L 6.09375 8.9375 L 6.3125 8.9375 L 6.21875 8.90625 L 6.03125 8.875 L 6.03125 8.90625 L 6.0625 8.9375 L 6.0625 9 L 6.125 9.09375 L 6.21875 9.25 L 6.375 9.40625 L 6.5 9.25 L 6.53125 9.28125 L 6.40625 9.40625 L 6.71875 9.625 L 6.71875 9.46875 L 6.75 9.46875 L 6.75 9.625 L 6.875 9.5625 L 7.03125 9.53125 L 7.1875 9.5625 L 7.09375 9.4375 L 7.09375 9.375 L 7.125 9.4375 L 7.21875 9.5625 L 7.28125 9.5625 L 7.40625 9.5 L 7.40625 9.46875 L 7.375 9.09375 L 7.28125 9.0625 L 7.15625 9.0625 L 7.09375 9.34375 L 7.09375 9.15625 L 6.96875 9.15625 L 7.09375 9.125 L 7.125 9.03125 L 7.28125 9.03125 L 7.40625 9.0625 L 7.40625 9.09375 L 7.40625 9.46875 L 7.5 9.4375 L 7.5 9.125 L 7.53125 9.15625 L 7.53125 9.4375 L 7.59375 9.4375 z M 9.03125 6.03125 L 9.03125 6 L 8.875 5.8125 L 8.90625 5.78125 L 9.03125 5.625 L 9.03125 5.59375 L 9 5.59375 L 8.84375 5.65625 L 8.625 5.6875 L 8.59375 5.71875 L 8.59375 5.8125 L 8.59375 5.84375 L 8.53125 5.90625 L 8.75 5.90625 L 8.75 5.84375 L 8.78125 5.84375 L 8.78125 5.90625 L 8.84375 6 L 8.84375 6.0625 L 8.8125 6.0625 L 8.8125 6 L 8.75 5.9375 L 8.5625 5.9375 L 8.5625 5.96875 L 8.75 6.15625 L 8.75 6.1875 L 8.78125 6.21875 L 8.8125 6.21875 L 8.84375 6.1875 L 8.875 6.1875 L 8.875 6.21875 L 8.84375 6.25 L 8.84375 6.40625 L 8.875 6.46875 L 8.90625 6.46875 L 8.9375 6.375 L 8.90625 6.34375 L 8.90625 6.25 L 8.90625 6.21875 L 9.03125 6.1875 L 9.03125 6.03125 z M 8.90625 6.46875 L 8.90625 6.53125 L 9.03125 6.59375 L 9.09375 6.625 L 9.0625 6.65625 L 9 6.65625 L 9 6.6875 L 9 6.75 L 9.09375 6.78125 L 9.125 6.78125 L 9.125 6.6875 L 9.1875 6.625 L 9.03125 6.46875 L 9.0625 6.40625 L 9.09375 6.40625 L 9.15625 6.4375 L 9.1875 6.40625 L 9.1875 6.375 L 9.34375 6.375 L 9.34375 6.28125 L 9.28125 6.3125 L 9.09375 6.3125 L 9.0625 6.3125 L 8.96875 6.375 L 8.90625 6.46875 z M 9.0625 6.3125 L 9.03125 6.21875 L 8.9375 6.25 L 8.9375 6.3125 L 8.96875 6.34375 L 9.0625 6.3125 z M 8.53125 5.90625 L 8.5 5.90625 L 8.5625 5.8125 L 8.5625 5.75 L 8.5 5.78125 L 8.34375 5.8125 L 8.34375 5.875 L 8.375 5.90625 L 8.375 6 L 8.40625 6 L 8.4375 5.96875 L 8.46875 6 L 8.5 6.09375 L 8.71875 6.1875 L 8.53125 5.96875 L 8.53125 5.90625 z M 8.0625 4.9375 L 8.0625 4.8125 L 8.09375 4.75 L 8.09375 4.6875 L 8.0625 4.59375 L 8.03125 4.59375 L 7.9375 4.71875 L 7.90625 4.8125 L 7.96875 4.9375 L 8.0625 4.9375 z M 9.125 4.96875 L 9.125 5 L 9.03125 5 L 9.0625 5.0625 L 9.0625 5.125 L 9.0625 5.1875 L 9.0625 5.21875 L 9.15625 5.1875 L 9.28125 5.1875 L 9.34375 5.21875 L 9.53125 5.21875 L 9.59375 5.0625 L 9.625 5.03125 L 9.625 5 L 9.5 4.8125 L 9.40625 4.78125 L 9.3125 4.75 L 9.25 4.78125 L 9.25 4.875 L 9.125 4.96875 z M 1.25 1.09375 C 1.2130752 1.1174097 1.1856411 1.1552252 1.15625 1.1875 L 1.1875 1.25 L 1.125 1.3125 L 1.0625 1.28125 C 1.0355846 1.3323573 1.0078443 1.3777166 1 1.4375 L 1.09375 1.375 L 1.21875 1.375 L 1.28125 1.5 L 1.40625 1.375 L 1.375 1.28125 L 1.28125 1.3125 L 1.25 1.1875 L 1.3125 1.09375 L 1.25 1.09375 z M 10.8125 1.15625 L 10.75 1.1875 L 10.78125 1.25 L 10.78125 1.3125 L 10.84375 1.28125 L 10.875 1.21875 L 10.84375 1.15625 L 10.8125 1.15625 z M 10.34375 1.21875 L 10.28125 1.25 L 10.28125 1.3125 L 10.34375 1.34375 L 10.40625 1.34375 L 10.46875 1.28125 L 10.46875 1.25 L 10.40625 1.25 L 10.375 1.25 L 10.34375 1.21875 z M 10.5625 1.25 L 10.59375 1.34375 L 10.6875 1.34375 L 10.71875 1.3125 L 10.6875 1.25 L 10.625 1.25 L 10.5625 1.25 z M 1.96875 1.3125 L 1.96875 1.4375 L 2.09375 1.5 L 2.09375 1.5625 L 2.0625 1.625 L 2.09375 1.75 L 2.59375 1.90625 L 2.71875 1.9375 L 2.84375 1.84375 L 2.6875 1.71875 L 2.53125 1.75 L 2.34375 1.71875 L 2.25 1.65625 L 2.25 1.4375 L 2.125 1.375 L 2.03125 1.3125 L 1.96875 1.3125 z M 10.09375 1.3125 L 10.03125 1.375 L 9.9375 1.375 L 9.90625 1.40625 L 9.90625 1.46875 L 9.96875 1.53125 L 10.03125 1.53125 L 10.125 1.46875 L 10.125 1.40625 L 10.15625 1.34375 L 10.09375 1.3125 z M 1.78125 1.34375 L 1.65625 1.375 L 1.5625 1.4375 L 1.71875 1.46875 L 1.6875 1.5625 L 1.71875 1.625 L 1.75 1.625 L 1.875 1.4375 L 1.78125 1.34375 z M 8.4375 1.53125 L 8.34375 1.625 L 8.40625 1.6875 L 8.5 1.6875 L 8.53125 1.75 L 8.625 1.8125 L 8.78125 1.75 L 8.84375 1.65625 L 8.84375 1.59375 L 8.75 1.53125 L 8.6875 1.59375 L 8.625 1.5625 L 8.59375 1.5625 L 8.5625 1.65625 L 8.5 1.59375 L 8.46875 1.53125 L 8.4375 1.53125 z M 1.875 1.59375 L 1.84375 1.65625 L 1.96875 1.71875 L 2.03125 1.65625 L 1.875 1.59375 z M 1.0625 1.6875 L 1 1.78125 L 1 2.46875 L 1.125 2.4375 L 1.15625 2.28125 L 1.21875 2.34375 L 1.25 2.21875 L 1.15625 2.15625 L 1.15625 1.75 L 1.0625 1.6875 z M 11.15625 1.6875 L 11.15625 1.78125 L 11.03125 1.875 L 10.78125 1.9375 L 10.59375 2.25 L 10.5625 2.34375 L 10.75 2.40625 L 10.78125 2.28125 L 10.84375 2.09375 L 11 2.03125 L 11.125 1.90625 L 11.21875 1.875 L 11.28125 1.875 L 11.28125 1.75 L 11.15625 1.6875 z M 8.3125 1.71875 L 8.21875 1.75 L 8.03125 1.75 L 8 1.875 L 8.09375 1.96875 L 8.15625 1.96875 L 8.21875 1.84375 L 8.28125 1.875 L 8.25 1.96875 L 8.21875 2.09375 L 8.25 2.15625 L 8.375 2 L 8.5 1.84375 L 8.4375 1.78125 L 8.375 1.75 L 8.3125 1.71875 z M 1.53125 1.75 L 1.46875 1.875 L 1.40625 1.8125 L 1.34375 1.875 L 1.4375 2.03125 L 1.4375 2.15625 L 1.625 2.0625 L 1.625 1.875 L 1.71875 1.8125 L 1.625 1.75 L 1.53125 1.75 z M 1.875 1.8125 L 1.75 1.90625 L 1.78125 2.0625 L 1.875 2.0625 L 1.90625 1.96875 L 1.96875 2.03125 L 2.03125 2.03125 L 2.1875 1.90625 L 1.875 1.8125 z M 8.625 1.90625 L 8.5625 1.96875 L 8.5 2 L 8.53125 2.0625 L 8.59375 2.0625 L 8.6875 2.03125 L 8.71875 1.96875 L 8.6875 1.90625 L 8.625 1.90625 z M 2.3125 1.96875 L 2.125 2.03125 L 2.03125 2.15625 L 2.0625 2.5 L 2.34375 2.5 L 2.59375 2.625 L 2.78125 2.84375 L 2.9375 2.84375 L 2.90625 3.03125 L 2.75 3.25 L 2.625 3.3125 L 2.53125 3.28125 L 2.46875 3.25 L 2.40625 3.34375 L 2.4375 3.4375 L 2.53125 3.46875 L 2.65625 3.40625 L 2.78125 3.6875 L 3.0625 3.875 L 3.28125 3.625 L 3.09375 3.34375 L 3.1875 3.25 L 3.34375 3.46875 L 3.59375 3.25 L 3.53125 3.15625 L 3.375 3.21875 L 3.25 2.90625 L 3.375 2.71875 L 3.15625 2.5 L 3.03125 2.5625 L 2.90625 2.3125 L 2.65625 2.34375 L 2.59375 2.0625 L 2.40625 2.1875 L 2.375 2.34375 L 2.28125 2.34375 L 2.28125 2.21875 L 2.4375 1.96875 L 2.3125 1.96875 z M 2.71875 2.09375 L 2.6875 2.15625 L 2.71875 2.21875 L 2.9375 2.25 L 2.8125 2.09375 L 2.71875 2.09375 z M 1.75 2.15625 L 1.5625 2.21875 L 1.5625 2.3125 L 1.625 2.4375 L 1.625 2.59375 L 1.46875 2.71875 L 1.40625 2.8125 L 1.40625 2.71875 L 1.53125 2.5 L 1.46875 2.40625 L 1.34375 2.46875 L 1.34375 2.59375 L 1.28125 2.6875 L 1.15625 2.6875 L 1 2.59375 L 1 3.9375 L 1.03125 3.84375 L 1.25 3.5625 L 1.5 3.34375 L 1.71875 3.3125 L 1.78125 3.1875 L 1.75 3.09375 L 2.03125 3.03125 L 2.1875 3.125 L 2.34375 3.03125 L 2.40625 2.71875 L 2.25 2.5625 L 2.0625 2.84375 L 1.9375 2.8125 L 2.03125 2.65625 L 1.96875 2.59375 L 1.84375 2.71875 L 1.8125 2.21875 L 1.75 2.15625 z M 1 3.9375 L 1 5.28125 L 1.0625 5.28125 L 1.1875 5.40625 L 1.1875 5.4375 L 1.28125 5.53125 L 1.375 5.65625 L 1.1875 5.9375 L 1.21875 6 L 1.625 5.875 L 1.90625 5.6875 L 2.25 5.6875 L 2.28125 5.5625 L 2.3125 5.5625 L 2.3125 5.71875 L 1.9375 5.71875 L 1.65625 5.90625 L 1.21875 6.03125 L 1.21875 6 L 1.15625 5.96875 L 1.1875 5.9375 L 1.34375 5.65625 L 1.25 5.5625 L 1.1875 5.4375 L 1.03125 5.3125 L 1 5.3125 L 1 7.65625 L 1.125 7.5 L 1.0625 7.40625 L 1.03125 7.25 L 1.09375 7.03125 L 1.375 6.78125 L 1.59375 6.71875 L 1.59375 6.5 L 1.875 6.1875 L 2.1875 6.125 L 2.15625 5.9375 L 2.4375 5.78125 L 2.4375 5.53125 L 2.46875 5.53125 L 2.5 5.75 L 2.65625 5.71875 L 2.5 5.84375 L 2.53125 5.9375 L 2.65625 5.9375 L 2.71875 5.8125 L 2.90625 5.8125 L 3 5.625 L 2.9375 5.625 L 2.90625 5.71875 L 2.8125 5.71875 L 2.71875 5.65625 L 2.71875 5.53125 L 2.78125 5.375 L 2.71875 5.3125 L 2.53125 5.34375 L 2.40625 5.40625 L 2.65625 5.1875 L 2.78125 5.21875 L 3.0625 5.28125 L 3.21875 5.125 L 3.5 5.0625 L 3.5 4.90625 L 3.21875 4.59375 L 3.15625 4.0625 L 2.875 4.25 L 2.75 4.1875 L 2.8125 3.96875 L 2.6875 3.78125 L 2.375 3.65625 L 2.15625 4.125 L 2.125 4.375 L 2.0625 4.53125 L 1.875 4.5625 L 1.84375 4.84375 L 1.75 5 L 1.65625 4.9375 L 1.65625 4.84375 L 1.75 4.5 L 1.40625 4.34375 L 1.1875 4.15625 L 1.125 4 L 1 3.9375 z M 10.5 2.4375 L 10.53125 2.5625 L 10.4375 2.59375 L 10.4375 2.65625 L 10.5 2.71875 L 10.625 2.71875 L 10.6875 2.78125 L 10.78125 2.78125 L 10.8125 2.71875 L 10.6875 2.59375 L 10.65625 2.4375 L 10.5 2.4375 z M 6.125 2.6875 L 6.09375 2.71875 L 6.125 2.75 L 6.25 2.8125 L 6.28125 2.71875 L 6.125 2.6875 z M 4.1875 2.875 L 4.09375 2.90625 L 4.09375 2.96875 L 4.15625 3.03125 L 4.1875 3.03125 L 4.21875 2.9375 L 4.1875 2.875 z M 9.09375 3 L 9.15625 3.15625 L 9.0625 3.03125 L 9.09375 3 z M 8.9375 3.09375 L 8.96875 3.09375 L 8.9375 3.21875 L 8.9375 3.25 L 8.84375 3.1875 L 8.6875 3.15625 L 8.6875 3.125 L 8.84375 3.1875 L 8.9375 3.21875 L 8.9375 3.09375 z M 1.9375 3.15625 L 1.84375 3.28125 L 1.8125 3.46875 L 1.9375 3.40625 L 2.0625 3.40625 L 2.15625 3.5 L 2.21875 3.40625 L 1.9375 3.15625 z M 8.625 3.1875 L 8.65625 3.1875 L 8.65625 3.21875 L 8.53125 3.25 L 8.34375 3.5625 L 8.3125 3.8125 L 8.28125 3.8125 L 8.25 3.875 L 8.21875 4.28125 L 8.21875 3.84375 L 8.28125 3.8125 L 8.3125 3.5625 L 8.53125 3.25 L 8.53125 3.21875 L 8.625 3.1875 z M 9.15625 3.1875 L 9.1875 3.28125 L 9.25 3.28125 L 9.25 3.3125 L 9.25 3.4375 L 9.4375 3.9375 L 9.3125 3.6875 L 9.21875 3.46875 L 9.25 3.3125 L 9.1875 3.28125 L 9.15625 3.28125 L 9.15625 3.1875 z M 8.71875 3.25 L 8.8125 3.25 L 8.8125 3.28125 L 8.71875 3.28125 L 8.71875 3.25 z M 5.9375 3.5625 L 5.875 3.59375 L 5.8125 3.65625 L 5.8125 3.6875 L 5.90625 3.71875 L 5.90625 3.78125 L 5.875 3.8125 L 5.9375 3.8125 L 5.9375 3.9375 L 6.0625 3.9375 L 6.15625 4 L 6.21875 4 L 6.375 3.90625 L 6.46875 3.78125 L 6.46875 3.6875 L 6.40625 3.625 L 6.34375 3.59375 L 6.28125 3.625 L 6.25 3.625 L 6.21875 3.59375 L 6.15625 3.59375 L 6.0625 3.65625 L 6.03125 3.71875 L 6 3.6875 L 6 3.625 L 6 3.59375 L 5.9375 3.5625 z M 7.125 4.46875 L 7 4.5625 L 6.9375 4.78125 L 7 4.78125 L 7 4.875 L 7.03125 4.9375 L 7.125 4.9375 L 7.15625 5.09375 L 7.0625 5.09375 L 7.0625 5.1875 L 6.96875 5.28125 L 7.09375 5.3125 L 6.90625 5.4375 L 6.96875 5.46875 L 7.21875 5.375 L 7.34375 5.40625 L 7.4375 5.34375 L 7.46875 5.3125 L 7.40625 5.28125 L 7.46875 5.25 L 7.46875 5.1875 L 7.4375 5.125 L 7.34375 5.09375 L 7.3125 4.96875 L 7.25 4.8125 L 7.21875 4.71875 L 7.25 4.65625 L 7.25 4.625 L 7.125 4.625 L 7.09375 4.59375 L 7.15625 4.5 L 7.125 4.46875 z M 8.875 4.46875 L 8.84375 4.5 L 8.84375 4.53125 L 8.90625 4.53125 L 8.9375 4.5 L 8.90625 4.46875 L 8.875 4.46875 z M 8.65625 4.53125 L 8.625 4.59375 L 8.625 4.65625 L 8.6875 4.625 L 8.65625 4.53125 z M 12.125 4.5625 L 12.53125 4.75 L 12.53125 4.78125 L 12.125 4.59375 L 11.65625 4.84375 L 11.625 5 L 11.71875 5.125 L 11.75 5.15625 L 11.53125 5.28125 L 11.25 5.25 L 11.25 5.21875 L 11.5 5.25 L 11.71875 5.125 L 11.59375 5.03125 L 11.625 4.8125 L 12.125 4.5625 z M 8.15625 4.8125 L 8.125 4.84375 L 8.125 4.90625 L 8.21875 4.90625 L 8.21875 4.84375 L 8.1875 4.8125 L 8.15625 4.8125 z M 13.90625 4.84375 L 14.125 4.9375 L 14.25 4.96875 L 14.375 4.84375 L 14.40625 4.875 L 14.25 5.03125 L 14.09375 5 L 13.90625 4.90625 L 13.75 5.125 L 13.78125 5.21875 L 13.875 5.25 L 13.875 5.28125 L 13.78125 5.28125 L 13.71875 5.125 L 13.625 5.125 L 13.53125 5.375 L 13.40625 5.375 L 13.25 5.6875 L 13.21875 5.65625 L 13.40625 5.3125 L 13.53125 5.3125 L 13.625 5.125 L 13.625 5.09375 L 13.4375 5.09375 L 13.4375 5.0625 L 13.625 5.09375 L 13.71875 5.09375 L 13.90625 4.84375 z M 6.8125 4.875 L 6.78125 4.96875 L 6.65625 4.96875 L 6.65625 5.0625 L 6.6875 5.125 L 6.59375 5.1875 L 6.59375 5.25 L 6.625 5.28125 L 6.71875 5.28125 L 6.9375 5.1875 L 6.96875 5 L 7 4.9375 L 6.9375 4.875 L 6.84375 4.875 L 6.84375 4.96875 L 6.90625 5 L 6.875 5.03125 L 6.84375 4.96875 L 6.8125 4.96875 L 6.8125 4.875 z M 3.4375 5.125 L 3.125 5.4375 L 3.15625 5.5 L 3.53125 5.625 L 3.59375 5.53125 L 3.5625 5.40625 L 3.4375 5.40625 L 3.375 5.34375 L 3.5 5.21875 L 3.4375 5.125 z M 10.9375 5.125 L 11.1875 5.15625 L 10.9375 5.15625 L 10.75 5.28125 L 10.71875 5.46875 L 10.90625 5.65625 L 10.9375 5.65625 L 11.0625 5.59375 L 11.1875 5.59375 L 11.1875 5.78125 L 11.125 5.78125 L 11.0625 5.875 L 11.125 6 L 11.25 6.0625 L 11.25 6.15625 L 11.3125 6.125 L 11.34375 6.09375 L 11.40625 6.09375 L 11.4375 6.15625 L 11.53125 6.15625 L 11.59375 6.15625 L 11.65625 6.03125 L 11.84375 6.03125 L 11.875 6.125 L 12.25 6.40625 L 11.84375 6.15625 L 11.8125 6.0625 L 11.6875 6.0625 L 11.625 6.1875 L 11.53125 6.1875 L 11.4375 6.1875 L 11.40625 6.28125 L 11.28125 6.28125 L 11.28125 6.375 L 11.40625 6.46875 L 11.375 6.5625 L 11.375 6.625 L 11.4375 6.625 L 11.5 6.53125 L 11.65625 6.5 L 12 6.625 L 12 6.71875 L 12.1875 6.75 L 12.40625 6.53125 L 12.375 6.4375 L 12.40625 6.4375 L 12.4375 6.53125 L 12.53125 6.53125 L 12.53125 6.375 L 12.5625 6.375 L 12.5625 6.53125 L 12.59375 6.53125 L 12.65625 6.5 L 12.65625 6.46875 L 12.6875 6.46875 L 12.75 6.375 L 12.8125 6.4375 L 12.8125 6.53125 L 12.875 6.53125 L 12.875 6.46875 L 12.96875 6.46875 L 13 6.46875 L 13 6.5 L 13.03125 6.5 L 13.0625 6.5 L 13.0625 6.46875 L 13 6.34375 L 13.03125 6.34375 L 13.09375 6.46875 L 13.1875 6.5 L 13.1875 6.53125 L 13.09375 6.5 L 13.0625 6.5625 L 13.03125 6.5625 L 12.875 6.65625 L 12.84375 6.625 L 12.90625 6.5625 L 12.78125 6.5625 L 12.78125 6.46875 L 12.75 6.4375 L 12.6875 6.46875 L 12.6875 6.53125 L 12.59375 6.5625 L 12.4375 6.5625 L 12.21875 6.78125 L 12 6.78125 L 12 6.75 L 12 6.71875 L 11.96875 6.6875 L 11.65625 6.5625 L 11.53125 6.59375 L 11.4375 6.6875 L 11.375 6.6875 L 11.34375 6.6875 L 11.1875 6.6875 L 11 6.53125 L 11 6.5 L 11.03125 6.34375 L 11.125 6.375 L 11.125 6.3125 L 11 6.1875 L 10.96875 6.28125 L 10.9375 6.25 L 10.96875 6.1875 L 10.84375 6.0625 L 10.84375 5.9375 L 10.78125 5.90625 L 10.78125 5.78125 L 10.90625 5.65625 L 10.6875 5.5 L 10.71875 5.28125 L 10.75 5.28125 L 10.9375 5.125 z M 12.90625 6.5625 L 13 6.53125 L 13 6.5 L 12.90625 6.5 L 12.90625 6.5625 z M 9.9375 5.3125 L 10.25 5.3125 L 10.25 5.34375 L 10.25 5.53125 L 10.21875 5.53125 L 10.25 5.34375 L 9.9375 5.3125 z M 7.90625 5.53125 L 7.9375 5.53125 L 7.9375 5.625 L 8.03125 5.65625 L 8.0625 5.71875 L 8.125 5.71875 L 8.125 5.65625 L 8.25 5.65625 L 8.34375 5.59375 L 8.375 5.5625 L 8.375 5.53125 L 8.46875 5.53125 L 8.5 5.53125 L 8.5 5.5625 L 8.375 5.5625 L 8.375 5.625 L 8.25 5.6875 L 8.15625 5.6875 L 8.125 5.71875 L 8.125 5.75 L 8.15625 5.75 L 8.21875 5.75 L 8.15625 5.78125 L 8.09375 5.875 L 8.0625 5.875 L 8.125 5.75 L 8.03125 5.75 L 8 5.6875 L 7.9375 5.65625 L 7.8125 5.8125 L 7.78125 5.8125 L 7.78125 5.78125 L 7.90625 5.625 L 7.90625 5.53125 z M 14.0625 5.5625 L 14.40625 5.5625 L 14.40625 5.59375 L 14.0625 5.59375 L 14.0625 5.5625 z M 11.59375 5.75 L 11.78125 5.78125 L 11.78125 5.8125 L 11.59375 5.78125 L 11.46875 5.84375 L 11.53125 6.09375 L 11.46875 5.9375 L 11.4375 5.8125 L 11.59375 5.75 z M 13.34375 5.8125 L 13.375 5.84375 L 13.28125 5.90625 L 13.28125 5.9375 L 12.84375 5.875 L 12.8125 6.03125 L 12.78125 5.96875 L 12.71875 5.9375 L 12.75 5.90625 L 12.78125 5.96875 L 12.84375 5.875 L 12.84375 5.84375 L 13.28125 5.90625 L 13.34375 5.8125 z M 12.1875 5.875 L 12.1875 5.90625 L 11.90625 5.9375 L 11.90625 5.90625 L 12.1875 5.875 z M 12.65625 5.9375 L 12.65625 6.03125 L 12.625 6.03125 L 12.59375 6.0625 L 12.53125 6.125 L 12.34375 6.125 L 12.34375 6.09375 L 12.53125 6.125 L 12.5625 6.03125 L 12.625 6.03125 L 12.65625 5.9375 z M 12.65625 6.0625 L 12.90625 6.15625 L 12.84375 6.15625 L 12.65625 6.09375 L 12.65625 6.0625 z M 6.75 6.09375 L 6.6875 6.15625 L 6.71875 6.25 L 6.84375 6.28125 L 6.84375 6.3125 L 6.71875 6.3125 L 6.6875 6.5625 L 6.65625 6.59375 L 6.65625 6.625 L 6.6875 6.6875 L 6.65625 6.75 L 6.71875 6.78125 L 6.78125 6.75 L 6.78125 6.6875 L 6.84375 6.34375 L 6.875 6.34375 L 6.8125 6.6875 L 6.8125 6.75 L 6.90625 6.8125 L 7.03125 6.8125 L 7.25 6.75 L 7.375 6.59375 L 7.375 6.46875 L 7.5625 6.28125 L 7.59375 6.21875 L 7.40625 6.21875 L 7.21875 6.125 L 6.84375 6.125 L 6.78125 6.09375 L 6.75 6.09375 z M 13 6.125 L 13.125 6.15625 L 13.125 6.1875 L 13 6.15625 L 12.90625 6.28125 L 12.9375 6.34375 L 12.90625 6.34375 L 12.90625 6.28125 L 12.875 6.28125 L 12.8125 6.3125 L 12.65625 6.28125 L 12.8125 6.28125 L 12.875 6.25 L 13 6.15625 L 13 6.125 z M 8.0625 6.1875 L 8.03125 6.21875 L 8 6.28125 L 8.0625 6.3125 L 8.09375 6.25 L 8.0625 6.1875 z M 12.65625 6.1875 L 12.6875 6.21875 L 12.625 6.25 L 12.625 6.28125 L 12.59375 6.28125 L 12.59375 6.25 L 12.625 6.25 L 12.65625 6.1875 z M 9.4375 6.21875 L 9.375 6.25 L 9.375 6.375 L 9.46875 6.34375 L 9.5 6.3125 L 9.5 6.25 L 9.4375 6.21875 z M 8.0625 6.375 L 8 6.40625 L 8 6.5625 L 8.0625 6.5625 L 8.09375 6.53125 L 8.09375 6.375 L 8.0625 6.375 z M 5.03125 6.46875 L 5 6.53125 L 5.0625 6.5625 L 5.0625 6.5 L 5.03125 6.46875 z M 5.25 6.46875 L 5.1875 6.5 L 5.25 6.53125 L 5.3125 6.5 L 5.25 6.46875 z M 7.53125 6.5 L 7.5625 6.5625 L 7.625 6.5625 L 7.65625 6.53125 L 7.59375 6.5 L 7.53125 6.5 z M 5.28125 6.5625 L 5.25 6.625 L 5.28125 6.6875 L 5.3125 6.65625 L 5.28125 6.5625 z M 8.3125 6.65625 L 8.3125 6.71875 L 8.4375 6.78125 L 8.46875 6.78125 L 8.5 6.78125 L 8.5 6.65625 L 8.46875 6.65625 L 8.3125 6.65625 z M 5.46875 6.71875 L 5.4375 6.75 L 5.46875 6.78125 L 5.53125 6.71875 L 5.46875 6.71875 z M 12.875 6.71875 L 12.90625 6.75 L 12.84375 6.78125 L 12.875 6.71875 z M 10.5625 6.78125 L 10.53125 6.9375 L 10.5 6.9375 L 10.5625 6.78125 z M 12 6.8125 L 12.0625 7.125 L 12.1875 7.15625 L 12.1875 7.21875 L 12.15625 7.21875 L 12.15625 7.1875 L 12.03125 7.15625 L 12 6.8125 z M 8.5 6.875 L 8.4375 6.90625 L 8.46875 6.9375 L 8.5 6.96875 L 8.53125 6.9375 L 8.5 6.875 z M 9.1875 6.875 L 9.1875 6.90625 L 9.21875 6.9375 L 9.21875 6.96875 L 9.375 6.9375 L 9.375 6.90625 L 9.34375 6.90625 L 9.25 6.90625 L 9.25 6.875 L 9.1875 6.875 z M 9.96875 6.875 L 9.875 6.90625 L 9.8125 6.90625 L 9.8125 6.96875 L 9.84375 7 L 9.875 7 L 10 6.90625 L 9.96875 6.875 z M 10.84375 6.96875 L 10.90625 7.09375 L 11 7.09375 L 11 7.125 L 10.90625 7.125 L 10.90625 7.09375 L 10.8125 7 L 10.84375 6.96875 z M 7.96875 7.03125 L 8 7.125 L 8.09375 7.21875 L 8.09375 7.34375 L 8.125 7.375 L 8.125 7.78125 L 8.1875 7.875 L 8.28125 7.875 L 8.28125 7.90625 L 8.15625 7.90625 L 8.09375 7.8125 L 8.09375 7.40625 L 8.0625 7.34375 L 8.0625 7.25 L 7.96875 7.15625 L 7.96875 7.03125 z M 13.21875 7.03125 L 13.25 7.03125 L 13.03125 7.5 L 12.875 7.5 L 12.875 7.46875 L 13 7.46875 L 13.21875 7.03125 z M 6.0625 7.0625 L 6.03125 7.09375 L 6.0625 7.125 L 6.09375 7.09375 L 6.0625 7.0625 z M 10.3125 7.09375 L 10.34375 7.09375 L 10.34375 7.1875 L 10.53125 7.1875 L 10.8125 7.4375 L 10.53125 7.21875 L 10.34375 7.1875 L 10.3125 7.09375 z M 10.25 7.25 L 10.28125 7.25 L 10.3125 7.3125 L 10.3125 7.375 L 10.1875 7.46875 L 10.28125 7.34375 L 10.28125 7.3125 L 10.25 7.25 z M 1.25 7.5 L 1.25 7.53125 L 1.28125 7.59375 L 1.3125 7.625 L 1.34375 7.53125 L 1.3125 7.53125 L 1.25 7.5 z M 5.9375 7.5 L 5.90625 7.53125 L 5.96875 7.59375 L 6 7.5 L 5.9375 7.5 z M 6.09375 7.53125 L 6.03125 7.5625 L 6.0625 7.59375 L 6.125 7.59375 L 6.09375 7.53125 z M 6.28125 7.53125 L 6.21875 7.5625 L 6.25 7.59375 L 6.28125 7.53125 z M 14.625 7.625 L 14.65625 7.625 L 14.65625 7.6875 L 14.59375 7.75 L 14.5625 7.71875 L 14.625 7.65625 L 14.625 7.625 z M 1.28125 7.65625 L 1.3125 7.75 L 1.40625 7.78125 L 1.40625 7.75 L 1.375 7.71875 L 1.3125 7.65625 L 1.28125 7.65625 z M 1.15625 7.6875 L 1.15625 7.75 L 1.1875 7.78125 L 1.21875 7.75 L 1.1875 7.6875 L 1.15625 7.6875 z M 11.75 7.78125 L 11.78125 7.78125 L 11.75 7.96875 L 11.75 8 L 11.8125 8 L 11.78125 8.1875 L 11.75 8.1875 L 11.78125 8.03125 L 11.75 8.03125 L 11.4375 8 L 11.40625 7.875 L 11.40625 7.84375 L 11.4375 7.84375 L 11.46875 7.96875 L 11.75 7.96875 L 11.75 7.78125 z M 14.6875 7.78125 L 14.71875 7.875 L 14.75 7.875 L 14.75 8 L 14.71875 8 L 14.71875 7.875 L 14.6875 7.875 L 14.6875 7.78125 z M 1.21875 7.8125 L 1.25 7.90625 L 1.28125 7.875 L 1.25 7.8125 L 1.21875 7.8125 z M 1.375 7.84375 L 1.375 7.875 L 1.40625 7.9375 L 1.4375 7.90625 L 1.40625 7.84375 L 1.375 7.84375 z M 1 7.875 L 1 7.96875 L 1.03125 7.96875 L 1.15625 8.09375 L 1.125 8.125 L 1.15625 8.1875 L 1.25 8.21875 L 1.375 8.15625 L 1.40625 8.125 L 1.34375 8.0625 L 1 7.875 z M 6.8125 7.875 L 6.84375 7.875 L 6.96875 8.6875 L 6.46875 8.6875 L 6.375 8.75 L 6.375 8.71875 L 6.46875 8.65625 L 6.9375 8.65625 L 6.8125 7.875 z M 6.3125 8.03125 L 6.34375 8.03125 L 6.3125 8.1875 L 6.3125 8.03125 z M 8.5625 8.03125 L 8.59375 8.03125 L 8.6875 8.21875 L 8.65625 8.53125 L 8.625 8.53125 L 8.65625 8.21875 L 8.5625 8.03125 z M 1.5 8.1875 L 1.46875 8.21875 L 1.53125 8.25 L 1.53125 8.3125 L 1.40625 8.3125 L 1.40625 8.375 L 1.46875 8.375 L 1.46875 8.34375 L 1.59375 8.375 L 1.625 8.375 L 1.65625 8.40625 L 1.6875 8.375 L 1.78125 8.34375 L 1.84375 8.375 L 1.875 8.3125 L 1.71875 8.21875 L 1.6875 8.21875 L 1.625 8.1875 L 1.5 8.1875 z M 1.15625 8.28125 L 1.0625 8.3125 L 1.0625 8.34375 L 1.125 8.375 L 1.1875 8.375 L 1.21875 8.34375 L 1.15625 8.28125 z M 2.03125 8.3125 L 1.96875 8.34375 L 2 8.375 L 2.09375 8.40625 L 2.09375 8.34375 L 2.03125 8.3125 z M 9.28125 8.3125 L 9.3125 8.3125 L 9.3125 8.65625 L 9.1875 8.75 L 9.1875 8.90625 L 9.21875 9.03125 L 9.15625 8.90625 L 9.15625 8.71875 L 9.28125 8.625 L 9.28125 8.3125 z M 7.71875 8.375 L 7.6875 8.65625 L 7.65625 8.65625 L 7.71875 8.375 z M 2.21875 8.40625 L 2.21875 8.46875 L 2.28125 8.4375 L 2.28125 8.40625 L 2.25 8.40625 L 2.21875 8.40625 z M 2.3125 8.4375 L 2.3125 8.5 L 2.34375 8.53125 L 2.375 8.5 L 2.3125 8.4375 z M 10.90625 8.4375 L 11.09375 8.5625 L 11.09375 8.59375 L 10.90625 8.46875 L 10.90625 8.4375 z M 2.40625 8.59375 L 2.375 8.625 L 2.40625 8.65625 L 2.4375 8.65625 L 2.40625 8.59375 z M 5.46875 8.59375 L 5.40625 8.625 L 5.4375 8.6875 L 5.5 8.65625 L 5.46875 8.59375 z M 8.46875 8.65625 L 8.5 8.65625 L 8.5 8.75 L 8.46875 8.75 L 8.46875 8.65625 z M 5.59375 8.6875 L 5.5625 8.71875 L 5.59375 8.75 L 5.65625 8.71875 L 5.59375 8.6875 z M 2.40625 8.71875 L 2.40625 8.75 L 2.4375 8.78125 L 2.46875 8.75 L 2.40625 8.71875 z M 5.53125 8.75 L 5.46875 8.78125 L 5.53125 8.84375 L 5.5625 8.84375 L 5.53125 8.75 z M 6.375 8.78125 L 6.5 8.875 L 6.46875 8.90625 L 6.375 8.78125 z M 2.40625 8.8125 L 2.375 8.84375 L 2.40625 8.90625 L 2.46875 8.875 L 2.40625 8.8125 z M 2.40625 8.90625 L 2.375 8.90625 L 2.34375 8.9375 L 2.34375 8.96875 L 2.40625 8.96875 L 2.40625 8.9375 L 2.40625 8.90625 z M 11.71875 8.84375 L 11.65625 8.875 L 11.59375 8.875 L 11.65625 8.9375 L 11.75 8.90625 L 11.78125 8.875 L 11.71875 8.84375 z M 1.53125 8.875 L 1.15625 9.1875 L 1.09375 9.28125 L 1.09375 9.3125 L 1.0625 9.3125 L 1.0625 9.5625 L 1 9.75 L 1 10.34375 L 1.1875 10.15625 L 1.1875 10.0625 L 1.21875 10.0625 L 1.21875 10.15625 L 1 10.40625 L 1 10.9375 L 1.21875 11.34375 L 1.71875 11.65625 L 1.71875 11.6875 L 1.8125 13.84375 L 1.96875 13.90625 L 1.9375 14.34375 L 1.84375 14.375 L 1.84375 14.4375 L 1.90625 14.46875 L 2 14.53125 L 2 14.65625 L 1.9375 14.75 L 2 14.84375 L 2.09375 15 L 2.3125 15 L 2.46875 15 L 2.40625 14.84375 L 2.53125 14.65625 L 2.59375 14.46875 L 2.46875 14.34375 L 2.59375 14 L 2.53125 13.84375 L 2.71875 13.78125 L 2.6875 13.59375 L 2.8125 13.59375 L 2.90625 13.53125 L 3.0625 13.28125 L 2.90625 13.09375 L 2.875 13.09375 L 2.84375 12.71875 L 2.9375 12.65625 L 3.15625 12.34375 L 3.1875 12.34375 L 2.96875 12.65625 L 3.34375 12.875 L 3.53125 12.53125 L 3.53125 12.25 L 3.875 12.03125 L 4.0625 12.03125 L 4.21875 11.78125 L 4.21875 11.28125 L 4.1875 11.15625 L 4.53125 10.84375 L 4.53125 10.46875 L 4.0625 10.25 L 3.46875 10.0625 L 3.1875 10.03125 L 3.28125 9.875 L 3.25 9.625 L 3.1875 9.625 L 3.09375 9.78125 L 3.0625 9.84375 L 2.9375 9.8125 L 2.53125 9.9375 L 2.53125 9.90625 L 2.40625 9.78125 L 2.40625 9.59375 L 2.40625 9.5625 L 2.375 9.4375 L 2.46875 9.28125 L 2.375 9.21875 L 2.25 9.0625 L 2.0625 9.09375 L 1.8125 9.03125 L 1.71875 8.9375 L 1.625 9.03125 L 1.59375 9.15625 L 1.5 9.125 L 1.5 9.0625 L 1.4375 9.15625 L 1.5 9.34375 L 1.84375 9.4375 L 1.875 9.84375 L 1.96875 9.96875 L 2.0625 9.96875 L 2.0625 10 L 1.96875 10 L 1.96875 9.96875 L 1.84375 9.875 L 1.8125 9.46875 L 1.46875 9.375 L 1.40625 9.15625 L 1.59375 8.875 L 1.53125 8.875 z M 2.53125 9.90625 L 2.71875 9.84375 L 2.71875 9.71875 L 2.75 9.71875 L 2.75 9.84375 L 2.90625 9.75 L 2.9375 9.59375 L 2.9375 9.75 L 3.03125 9.8125 L 3.0625 9.78125 L 3.15625 9.59375 L 3 9.5 L 2.96875 9.5 L 2.96875 9.46875 L 2.875 9.46875 L 2.78125 9.53125 L 2.75 9.46875 L 2.71875 9.46875 L 2.5 9.28125 L 2.40625 9.4375 L 2.4375 9.5625 L 2.4375 9.75 L 2.53125 9.90625 z M 2.90625 13.09375 L 3.09375 13.125 L 3.34375 12.90625 L 2.9375 12.6875 L 2.875 12.75 L 2.90625 13.09375 z M 1.09375 9.28125 L 1.125 9.1875 L 1 9.125 L 1 9.21875 L 1.03125 9.28125 L 1.09375 9.28125 z M 10.75 8.90625 L 10.78125 8.90625 L 10.78125 8.9375 L 10.75 9.03125 L 10.75 8.90625 z M 2.40625 9 L 2.375 9.03125 L 2.34375 9.03125 L 2.34375 9.09375 L 2.40625 9.15625 L 2.4375 9.09375 L 2.46875 9.0625 L 2.4375 9.03125 L 2.40625 9 z M 9.09375 9.03125 L 9.125 9.03125 L 9.125 9.0625 L 8.9375 9.25 L 8.90625 9.3125 L 8.90625 9.25 L 9.09375 9.03125 z M 9.3125 9.09375 L 9.34375 9.09375 L 9.34375 9.1875 L 9.3125 9.21875 L 9.25 9.1875 L 9.3125 9.15625 L 9.3125 9.09375 z M 13.9375 9.09375 L 13.9375 9.1875 L 13.9375 9.25 L 13.90625 9.25 L 13.9375 9.375 L 14 9.40625 L 14.09375 9.34375 L 14.0625 9.21875 L 14.0625 9.15625 L 13.96875 9.09375 L 13.9375 9.09375 z M 8.53125 9.1875 L 8.59375 9.21875 L 8.65625 9.3125 L 8.75 9.34375 L 8.65625 9.34375 L 8.5625 9.5 L 8.59375 9.5625 L 8.71875 9.6875 L 8.78125 9.625 L 8.875 9.625 L 8.875 9.5625 L 8.96875 9.5 L 9.125 9.625 L 9.25 9.53125 L 9.625 9.5625 L 9.65625 9.5625 L 9.84375 9.59375 L 9.84375 9.625 L 9.25 9.59375 L 9.125 9.6875 L 8.96875 9.5625 L 8.90625 9.59375 L 8.875 9.625 L 8.875 9.6875 L 8.78125 9.6875 L 8.71875 9.75 L 8.6875 9.8125 L 8.46875 9.8125 L 8.4375 9.84375 L 8.59375 9.84375 L 8.59375 10.21875 L 8.46875 10.21875 L 8.46875 10.1875 L 8.5625 10.1875 L 8.5625 9.875 L 8.4375 9.875 L 8.4375 9.84375 L 8.40625 9.8125 L 8.46875 9.8125 L 8.65625 9.78125 L 8.71875 9.75 L 8.5625 9.59375 L 8.53125 9.53125 L 8.5625 9.5 L 8.625 9.34375 L 8.5625 9.25 L 8.53125 9.21875 L 8.53125 9.1875 z M 10.0625 9.25 L 10.09375 9.25 L 10.09375 9.3125 L 10.1875 9.3125 L 10.3125 9.5 L 10.3125 9.53125 L 10.28125 9.53125 L 10.15625 9.34375 L 10.0625 9.34375 L 10.0625 9.25 z M 8.1875 9.40625 L 8.3125 9.40625 L 8.1875 9.4375 L 8.09375 9.5 L 8.09375 9.46875 L 8.1875 9.40625 z M 13.25 9.46875 L 13.25 9.53125 L 13.28125 9.5625 L 13.3125 9.5 L 13.25 9.46875 z M 2.625 9.5625 L 2.65625 9.5625 L 2.65625 9.625 L 2.625 9.625 L 2.625 9.5625 z M 11 9.5625 L 11 9.59375 L 10.8125 9.65625 L 11 9.5625 z M 2.15625 9.625 L 2.28125 9.71875 L 2.15625 9.65625 L 2.15625 9.625 z M 13.3125 9.625 L 13.28125 9.71875 L 13.3125 9.75 L 13.34375 9.6875 L 13.3125 9.625 z M 2.09375 9.65625 L 2.125 9.65625 L 2.125 9.71875 L 2.25 9.78125 L 2.21875 9.8125 L 2.09375 9.78125 L 2.09375 9.65625 z M 8.03125 9.65625 L 8.03125 9.71875 L 8.0625 9.75 L 8.125 9.71875 L 8.09375 9.65625 L 8.03125 9.65625 z M 10.6875 9.75 L 10.71875 9.75 L 10.71875 10.03125 L 10.6875 10.03125 L 10.6875 9.75 z M 8 9.8125 L 7.9375 9.84375 L 7.9375 9.875 L 7.96875 9.875 L 8 9.84375 L 8 9.8125 z M 13.3125 9.8125 L 13.28125 9.84375 L 13.3125 9.875 L 13.34375 9.84375 L 13.3125 9.8125 z M 1.6875 9.875 L 1.71875 9.875 L 1.6875 10 L 1.78125 10.09375 L 1.75 10.125 L 1.65625 10.03125 L 1.6875 9.875 z M 7.875 9.9375 L 7.875 9.96875 L 7.90625 9.96875 L 7.90625 9.9375 L 7.875 9.9375 z M 8.84375 9.96875 L 8.75 10.0625 L 8.71875 10.125 L 8.71875 10.25 L 8.6875 10.25 L 8.6875 10.125 L 8.71875 10.03125 L 8.84375 9.96875 z M 1.28125 10.0625 L 1.40625 10.25 L 1.375 10.25 L 1.28125 10.0625 z M 9.875 10.09375 L 9.90625 10.09375 L 9.90625 10.1875 L 9.875 10.3125 L 9.84375 10.3125 L 9.875 10.1875 L 9.875 10.09375 z M 8.3125 10.1875 L 8.34375 10.1875 L 8.34375 10.21875 L 8.375 10.21875 L 8.375 10.28125 L 8.34375 10.28125 L 8.34375 10.21875 L 8.3125 10.21875 L 8.3125 10.1875 z M 1.5625 10.25 L 1.59375 10.25 L 1.59375 10.40625 L 1.5625 10.40625 L 1.40625 10.5 L 1.375 10.71875 L 1.5 10.84375 L 1.53125 10.84375 L 1.5 10.90625 L 1.34375 10.71875 L 1.375 10.5 L 1.40625 10.5 L 1.5625 10.375 L 1.5625 10.25 z M 9.75 10.25 L 9.78125 10.34375 L 9.875 10.6875 L 10.03125 10.75 L 10.15625 10.75 L 10.15625 10.78125 L 10.0625 10.78125 L 10.125 11 L 10.0625 11.15625 L 10.09375 11 L 10.03125 10.8125 L 9.875 10.6875 L 9.84375 10.6875 L 9.71875 10.28125 L 9.75 10.25 z M 11.90625 10.28125 L 11.875 10.3125 L 11.90625 10.375 L 11.96875 10.375 L 11.90625 10.28125 z M 8.40625 10.3125 L 8.4375 10.3125 L 8.46875 10.375 L 8.46875 10.40625 L 8.4375 10.40625 L 8.40625 10.34375 L 8.40625 10.3125 z M 11.9375 10.4375 L 11.90625 10.46875 L 11.9375 10.53125 L 11.96875 10.53125 L 12 10.4375 L 11.9375 10.4375 z M 8.96875 10.5625 L 9.03125 10.5625 L 9.03125 10.59375 L 9 10.59375 L 8.9375 10.65625 L 8.9375 10.6875 L 8.78125 10.6875 L 8.78125 10.65625 L 8.9375 10.65625 L 8.96875 10.5625 z M 11.6875 10.5625 L 11.65625 10.59375 L 11.71875 10.625 L 11.75 10.59375 L 11.6875 10.5625 z M 9.0625 10.59375 L 9.15625 10.59375 L 9.15625 10.875 L 9.3125 10.875 L 9.3125 10.90625 L 9.65625 11.09375 L 9.3125 10.9375 L 9.3125 11.0625 L 9.15625 11.0625 L 9.125 11.3125 L 9.125 11.03125 L 9.28125 11.03125 L 9.28125 10.90625 L 9.15625 10.90625 L 9.15625 10.875 L 9.125 10.625 L 9.0625 10.625 L 9.0625 10.59375 z M 1.65625 10.8125 L 1.71875 10.9375 L 1.96875 10.84375 L 2.0625 10.84375 L 2.0625 10.875 L 2.125 11.09375 L 2.5 11.1875 L 2.5625 11.375 L 2.6875 11.40625 L 2.78125 11.5625 L 2.71875 11.75 L 2.6875 11.71875 L 2.75 11.5625 L 2.6875 11.40625 L 2.53125 11.40625 L 2.46875 11.21875 L 2.125 11.09375 L 2.09375 11.09375 L 2.0625 10.875 L 1.96875 10.875 L 1.75 10.96875 L 1.71875 10.9375 L 1.625 10.84375 L 1.65625 10.8125 z M 9.65625 10.90625 L 9.8125 10.96875 L 9.8125 11.125 L 9.78125 11.125 L 9.78125 11 L 9.65625 10.9375 L 9.65625 10.90625 z M 10.96875 10.90625 L 10.96875 10.96875 L 11.03125 10.96875 L 11.0625 10.90625 L 10.96875 10.90625 z M 11.375 10.96875 L 11.3125 11.125 L 11.21875 11.3125 L 11.03125 11.3125 L 10.9375 11.40625 L 10.96875 11.6875 L 10.84375 11.8125 L 10.875 12.0625 L 10.96875 12.15625 L 11.0625 12.15625 L 11.1875 12.0625 L 11.15625 11.9375 L 11.4375 11.46875 L 11.375 11.40625 L 11.4375 11.3125 L 11.46875 11.3125 L 11.5 11.28125 L 11.4375 11.0625 L 11.40625 10.96875 L 11.375 10.96875 z M 11.03125 11 L 11.0625 11.0625 L 11.09375 11.0625 L 11.125 11 L 11.03125 11 z M 1.78125 11.0625 L 1.84375 11.25 L 1.8125 11.53125 L 1.75 11.625 L 1.78125 11.53125 L 1.8125 11.25 L 1.78125 11.0625 z M 10.28125 11.125 L 10.3125 11.125 L 10.34375 11.3125 L 10.1875 11.4375 L 10.3125 11.28125 L 10.28125 11.125 z M 10.15625 11.28125 L 10.15625 11.375 L 10.125 11.375 L 10.15625 11.28125 z M 9.6875 11.3125 L 9.71875 11.3125 L 9.59375 11.5 L 9.5625 11.5 L 9.6875 11.3125 z M 9.125 11.34375 L 9.21875 11.4375 L 9.34375 11.46875 L 9.21875 11.46875 L 9.1875 11.46875 L 9.03125 11.5 L 8.875 11.40625 L 9.0625 11.46875 L 9.1875 11.46875 L 9.125 11.34375 z M 10 11.375 L 10.03125 11.375 L 10.03125 11.65625 L 10 11.375 z M 11.96875 11.71875 L 11.9375 11.78125 L 11.9375 11.84375 L 12.03125 11.75 L 11.96875 11.71875 z M 2.46875 11.75 L 2.40625 11.96875 L 2.5 12.09375 L 2.65625 12.09375 L 2.84375 12.21875 L 2.8125 12.25 L 2.78125 12.34375 L 2.78125 12.40625 L 2.96875 12.40625 L 3.0625 12.28125 L 3.0625 12.125 L 2.9375 11.9375 L 3.09375 12.125 L 3.09375 12.25 L 3.09375 12.28125 L 3 12.4375 L 2.78125 12.4375 L 2.78125 12.40625 L 2.75 12.34375 L 2.8125 12.25 L 2.65625 12.125 L 2.5 12.125 L 2.5 12.09375 L 2.375 12 L 2.1875 11.96875 L 2.375 11.96875 L 2.46875 11.75 z M 2.75 11.8125 L 2.78125 11.8125 L 2.78125 11.9375 L 2.75 11.9375 L 2.75 11.8125 z M 11.75 11.8125 L 11.75 11.875 L 11.78125 11.90625 L 11.84375 11.875 L 11.8125 11.8125 L 11.75 11.8125 z M 2 12.0625 L 2.03125 12.0625 L 2.03125 12.15625 L 1.96875 12.25 L 1.875 12.75 L 2 13.15625 L 1.9375 13.46875 L 2.15625 14.34375 L 2.15625 14.84375 L 2.125 14.34375 L 1.90625 13.4375 L 1.96875 13.15625 L 1.84375 12.75 L 1.9375 12.21875 L 2 12.125 L 2 12.0625 z M 9.59375 12.40625 L 9.625 12.40625 L 9.71875 12.46875 L 9.71875 12.5625 L 9.6875 12.5625 L 9.6875 12.5 L 9.625 12.4375 L 9.59375 12.4375 L 9.5 12.46875 L 9.59375 12.40625 z M 9.5 12.59375 L 9.59375 12.625 L 9.59375 12.59375 L 9.625 12.59375 L 9.625 12.625 L 9.59375 12.625 L 9.5 12.625 L 9.5 12.59375 z M 1.84375 13.9375 L 1.8125 13.96875 L 1.8125 14.09375 L 1.875 14.09375 L 1.875 13.96875 L 1.84375 13.9375 z M 12.25 14.625 L 12.25 14.75 L 12.4375 14.8125 L 12.46875 14.6875 L 12.40625 14.71875 L 12.34375 14.71875 L 12.3125 14.625 L 12.25 14.625 z M 3.25 14.84375 L 3.21875 14.9375 L 3.15625 15 L 3.28125 14.96875 L 3.3125 14.90625 L 3.25 14.84375 z M 3.09375 14.875 L 3 14.9375 L 3.0625 15 L 3.15625 14.875 L 3.09375 14.875 z "
       transform="translate(0,1036.3622)"
       id="kalimantan"
       style="fill:url(#linearGradient3799);fill-opacity:1" />
    <rect
       style="opacity:0.5;fill:none;stroke:url(#linearGradient4542);stroke-opacity:1"
       id="rect4534"
       width="13"
       height="13"
       x="1.5"
       y="1037.8622"
       rx="0.1"
       ry="0.1" />
    <rect
       y="1045.3622"
       x="3.0000005"
       height="4"
       width="10"
       id="rect3805"
       style="fill:#234bb6;fill-opacity:1;stroke:none" />
    <rect
       style="fill:#ffffff;fill-opacity:1;stroke:none"
       id="rect3801"
       width="8"
       height="2"
       x="4"
       y="1046.3622" />
    <rect
       y="1046.3622"
       x="4"
       height="2"
       width="3"
       id="rect3803"
       style="fill:#d2d2d2;fill-opacity:1;stroke:none" />
  </g>
</svg>
