<?xml version="1.0" encoding="UTF-8" standalone="no"?>
<!-- Created with Inkscape (http://www.inkscape.org/) -->

<svg
   xmlns:dc="http://purl.org/dc/elements/1.1/"
   xmlns:cc="http://creativecommons.org/ns#"
   xmlns:rdf="http://www.w3.org/1999/02/22-rdf-syntax-ns#"
   xmlns:svg="http://www.w3.org/2000/svg"
   xmlns="http://www.w3.org/2000/svg"
   xmlns:sodipodi="http://sodipodi.sourceforge.net/DTD/sodipodi-0.dtd"
   xmlns:inkscape="http://www.inkscape.org/namespaces/inkscape"
   width="16"
   height="16"
   id="svg3839"
   version="1.1"
   inkscape:version="0.48.1 r9760"
   sodipodi:docname="system-shutdown-panel.svg">
  <defs
     id="defs3841" />
  <sodipodi:namedview
     id="base"
     pagecolor="#ffffff"
     bordercolor="#666666"
     borderopacity="1.0"
     inkscape:pageopacity="0.0"
     inkscape:pageshadow="2"
     inkscape:zoom="15.839192"
     inkscape:cx="-2.1469255"
     inkscape:cy="7.9650722"
     inkscape:document-units="px"
     inkscape:current-layer="layer1"
     showgrid="false"
     inkscape:window-width="1230"
     inkscape:window-height="776"
     inkscape:window-x="50"
     inkscape:window-y="24"
     inkscape:window-maximized="1" />
  <metadata
     id="metadata3844">
    <rdf:RDF>
      <cc:Work
         rdf:about="">
        <dc:format>image/svg+xml</dc:format>
        <dc:type
           rdf:resource="http://purl.org/dc/dcmitype/StillImage" />
      </cc:Work>
    </rdf:RDF>
  </metadata>
  <g
     inkscape:label="Livello 1"
     inkscape:groupmode="layer"
     id="layer1"
     transform="translate(0,-1036.3622)">
    <path
       style="opacity:1;fill:#505050;fill-opacity:1;fill-rule:nonzero;stroke:none"
       d="M 6 2.34375 C 3.668833 3.1669998 2 5.3870027 2 8 C 2 11.313709 4.6862914 14 8 14 C 11.313709 14 14 11.313709 14 8 C 14 5.3870027 12.331167 3.1669998 10 2.34375 L 10 4.5625 C 11.193791 5.2545851 12 6.5207915 12 8 C 12 10.209139 10.209139 12 8 12 C 5.790861 12 4 10.209139 4 8 C 4 6.5207915 4.8062088 5.2545851 6 4.5625 L 6 2.34375 z "
       transform="translate(0,1036.3622)"
       id="path3847" />
    <rect
       style="fill:#505050;fill-opacity:1;stroke:none"
       id="rect4390"
       width="2"
       height="6"
       x="7"
       y="1037.3622" />
  </g>
</svg>
