<?xml version="1.0" encoding="UTF-8" standalone="no"?>
<!-- Created with Inkscape (http://www.inkscape.org/) -->

<svg
   xmlns:dc="http://purl.org/dc/elements/1.1/"
   xmlns:cc="http://creativecommons.org/ns#"
   xmlns:rdf="http://www.w3.org/1999/02/22-rdf-syntax-ns#"
   xmlns:svg="http://www.w3.org/2000/svg"
   xmlns="http://www.w3.org/2000/svg"
   xmlns:xlink="http://www.w3.org/1999/xlink"
   xmlns:sodipodi="http://sodipodi.sourceforge.net/DTD/sodipodi-0.dtd"
   xmlns:inkscape="http://www.inkscape.org/namespaces/inkscape"
   width="16"
   height="16"
   id="svg3147"
   version="1.1"
   inkscape:version="0.48.3.1 r9886"
   sodipodi:docname="tools-check-spelling.svg">
  <defs
     id="defs3149">
    <linearGradient
       id="linearGradient3779">
      <stop
         style="stop-color:#333333;stop-opacity:1;"
         offset="0"
         id="stop3781" />
      <stop
         style="stop-color:#969696;stop-opacity:1;"
         offset="1"
         id="stop3783" />
    </linearGradient>
    <linearGradient
       id="linearGradient3771">
      <stop
         style="stop-color:#c8c8c8;stop-opacity:1;"
         offset="0"
         id="stop3773" />
      <stop
         style="stop-color:#646464;stop-opacity:1;"
         offset="1"
         id="stop3775" />
    </linearGradient>
    <linearGradient
       id="linearGradient4536">
      <stop
         style="stop-color:#ffffff;stop-opacity:1;"
         offset="0"
         id="stop4538" />
      <stop
         id="stop4546"
         offset="0.06216056"
         style="stop-color:#ffffff;stop-opacity:0.15686275;" />
      <stop
         id="stop4544"
         offset="0.936414"
         style="stop-color:#ffffff;stop-opacity:0.23529412;" />
      <stop
         style="stop-color:#ffffff;stop-opacity:0.39215687;"
         offset="1"
         id="stop4540" />
    </linearGradient>
    <radialGradient
       inkscape:collect="always"
       xlink:href="#linearGradient3688-166-749"
       id="radialGradient3132"
       gradientUnits="userSpaceOnUse"
       gradientTransform="matrix(2.003784,0,0,1.4,27.98813,-17.4)"
       cx="4.9929786"
       cy="43.5"
       fx="4.9929786"
       fy="43.5"
       r="2.5" />
    <linearGradient
       id="linearGradient3688-166-749">
      <stop
         id="stop2883"
         style="stop-color:#181818;stop-opacity:1"
         offset="0" />
      <stop
         id="stop2885"
         style="stop-color:#181818;stop-opacity:0"
         offset="1" />
    </linearGradient>
    <radialGradient
       inkscape:collect="always"
       xlink:href="#linearGradient3688-464-309"
       id="radialGradient3134"
       gradientUnits="userSpaceOnUse"
       gradientTransform="matrix(2.003784,0,0,1.4,-20.01187,-104.4)"
       cx="4.9929786"
       cy="43.5"
       fx="4.9929786"
       fy="43.5"
       r="2.5" />
    <linearGradient
       id="linearGradient3688-464-309">
      <stop
         id="stop2889"
         style="stop-color:#181818;stop-opacity:1"
         offset="0" />
      <stop
         id="stop2891"
         style="stop-color:#181818;stop-opacity:0"
         offset="1" />
    </linearGradient>
    <linearGradient
       inkscape:collect="always"
       xlink:href="#linearGradient3702-501-757"
       id="linearGradient3136"
       gradientUnits="userSpaceOnUse"
       x1="25.058096"
       y1="47.027729"
       x2="25.058096"
       y2="39.999443" />
    <linearGradient
       id="linearGradient3702-501-757">
      <stop
         id="stop2895"
         style="stop-color:#181818;stop-opacity:0"
         offset="0" />
      <stop
         id="stop2897"
         style="stop-color:#181818;stop-opacity:1"
         offset="0.5" />
      <stop
         id="stop2899"
         style="stop-color:#181818;stop-opacity:0"
         offset="1" />
    </linearGradient>
    <linearGradient
       inkscape:collect="always"
       xlink:href="#linearGradient4536"
       id="linearGradient4542"
       x1="14.801802"
       y1="1010.4072"
       x2="14.801802"
       y2="1024.1722"
       gradientUnits="userSpaceOnUse"
       gradientTransform="translate(-4,27.000017)" />
  </defs>
  <sodipodi:namedview
     id="base"
     pagecolor="#ffffff"
     bordercolor="#666666"
     borderopacity="1.0"
     inkscape:pageopacity="0.0"
     inkscape:pageshadow="2"
     inkscape:zoom="19.622213"
     inkscape:cx="-2.2907967"
     inkscape:cy="7.1196595"
     inkscape:document-units="px"
     inkscape:current-layer="layer1"
     showgrid="false"
     inkscape:window-width="1280"
     inkscape:window-height="751"
     inkscape:window-x="0"
     inkscape:window-y="24"
     inkscape:window-maximized="1" />
  <metadata
     id="metadata3152">
    <rdf:RDF>
      <cc:Work
         rdf:about="">
        <dc:format>image/svg+xml</dc:format>
        <dc:type
           rdf:resource="http://purl.org/dc/dcmitype/StillImage" />
        <dc:title />
      </cc:Work>
    </rdf:RDF>
  </metadata>
  <g
     inkscape:label="Livello 1"
     inkscape:groupmode="layer"
     id="layer1"
     transform="translate(0,-1036.3622)">
    <rect
       style="fill:#505050;fill-opacity:1;stroke:#333333;stroke-opacity:1"
       id="rect3163"
       width="15"
       height="15"
       x="0.5"
       y="1036.8622"
       rx="1"
       ry="1" />
    <path
       id="path3957"
       transform="translate(0,1036.3622)"
       d="M 5.15625 3 L 3 10 L 4.40625 10 L 4.875 8.34375 L 7.125 8.34375 L 7.59375 10 L 9 10 L 6.84375 3 L 5.15625 3 z M 6 3.96875 C 6.0150233 4.0800184 6.0576838 4.2160594 6.09375 4.375 C 6.12981 4.5339519 6.1484285 4.7160589 6.1875 4.875 C 6.2295704 5.0307725 6.2764336 5.1509188 6.3125 5.28125 C 6.3485598 5.4115906 6.3569651 5.5052838 6.375 5.5625 L 6.8125 7.09375 L 5.21875 7.09375 L 5.625 5.5625 C 5.6340131 5.5275363 5.6382158 5.4793699 5.65625 5.40625 C 5.6772841 5.3331393 5.6947052 5.2516226 5.71875 5.15625 C 5.7427893 5.0608871 5.7854499 4.9518386 5.8125 4.84375 C 5.8395445 4.7356717 5.8509551 4.63616 5.875 4.53125 C 5.9020444 4.423172 5.9194655 4.3141235 5.9375 4.21875 C 5.9585338 4.123388 5.987976 4.0386924 6 3.96875 z M 11.15625 5 C 10.837159 5.0000049 10.540596 5.0474855 10.25 5.125 C 9.9594004 5.2025241 9.6768152 5.3025635 9.4375 5.4375 L 9.875 6.3125 C 10.07158 6.2120156 10.243766 6.1227966 10.4375 6.0625 C 10.634079 6.0022111 10.85737 5.9687539 11.0625 5.96875 C 11.267626 5.9687539 11.417287 6.030258 11.53125 6.125 C 11.645207 6.2197496 11.718747 6.3643985 11.71875 6.5625 L 11.71875 6.90625 L 10.9375 6.9375 C 10.290775 6.9633427 9.8247852 7.0997103 9.5 7.34375 C 9.1752131 7.5849237 8.9999996 7.9576982 9 8.46875 C 8.9999996 8.7300202 9.0253735 8.963888 9.09375 9.15625 C 9.1621255 9.3457424 9.2553412 9.4986725 9.375 9.625 C 9.4975063 9.748457 9.6472568 9.8430861 9.8125 9.90625 C 9.9777408 9.9665428 10.150016 9.9999999 10.34375 10 C 10.526084 9.9999999 10.706996 9.9974608 10.84375 9.96875 C 10.983349 9.9400391 11.107636 9.8727929 11.21875 9.8125 C 11.329858 9.7522073 11.43723 9.6856251 11.53125 9.59375 C 11.625264 9.4990045 11.71848 9.3791995 11.8125 9.25 L 11.84375 9.25 L 12.09375 9.90625 L 13 9.90625 L 13 6.71875 C 12.999996 6.1445361 12.850334 5.7188709 12.53125 5.4375 C 12.215007 5.1561381 11.751688 5.0000049 11.15625 5 z M 11.28125 7.6875 L 11.71875 7.6875 L 11.71875 8.09375 C 11.718747 8.2487904 11.698982 8.3794158 11.65625 8.5 C 11.613512 8.6177159 11.54567 8.6979896 11.46875 8.78125 C 11.394673 8.8616415 11.290061 8.9256847 11.1875 8.96875 C 11.084933 9.0089461 10.994656 9.0312509 10.875 9.03125 C 10.718303 9.0312509 10.565614 8.9895125 10.46875 8.90625 C 10.371882 8.8201184 10.343748 8.6697274 10.34375 8.46875 C 10.343748 8.353908 10.343659 8.2793765 10.375 8.1875 C 10.409186 8.0927559 10.460023 8.0035369 10.53125 7.9375 C 10.605322 7.8685959 10.72409 7.8214473 10.84375 7.78125 C 10.963406 7.7410569 11.107458 7.6932444 11.28125 7.6875 z M 3 11 L 3 12 L 5 12 L 5 11 L 3 11 z M 6 11 L 6 12 L 8 12 L 8 11 L 6 11 z M 9 11 L 9 12 L 11 12 L 11 11 L 9 11 z M 12 11 L 12 12 L 13 12 L 13 11 L 12 11 z "
       style="font-size:8.78599452999999997px;font-style:normal;font-variant:normal;font-weight:bold;font-stretch:normal;line-height:125%;letter-spacing:0px;word-spacing:0px;fill:#000000;fill-opacity:1;stroke:#000000;font-family:Droid Sans;-inkscape-font-specification:Droid Sans Bold;stroke-opacity:1;stroke-linejoin:round;opacity:0.05;stroke-width:3;stroke-miterlimit:4;stroke-dasharray:none" />
    <path
       style="font-size:8.78599452999999997px;font-style:normal;font-variant:normal;font-weight:bold;font-stretch:normal;line-height:125%;letter-spacing:0px;word-spacing:0px;fill:#000000;fill-opacity:1;stroke:#000000;font-family:Droid Sans;-inkscape-font-specification:Droid Sans Bold;stroke-opacity:1;stroke-linejoin:round;opacity:0.09999995;stroke-width:2.00000009999999984;stroke-miterlimit:4;stroke-dasharray:none"
       d="M 5.15625 3 L 3 10 L 4.40625 10 L 4.875 8.34375 L 7.125 8.34375 L 7.59375 10 L 9 10 L 6.84375 3 L 5.15625 3 z M 6 3.96875 C 6.0150233 4.0800184 6.0576838 4.2160594 6.09375 4.375 C 6.12981 4.5339519 6.1484285 4.7160589 6.1875 4.875 C 6.2295704 5.0307725 6.2764336 5.1509188 6.3125 5.28125 C 6.3485598 5.4115906 6.3569651 5.5052838 6.375 5.5625 L 6.8125 7.09375 L 5.21875 7.09375 L 5.625 5.5625 C 5.6340131 5.5275363 5.6382158 5.4793699 5.65625 5.40625 C 5.6772841 5.3331393 5.6947052 5.2516226 5.71875 5.15625 C 5.7427893 5.0608871 5.7854499 4.9518386 5.8125 4.84375 C 5.8395445 4.7356717 5.8509551 4.63616 5.875 4.53125 C 5.9020444 4.423172 5.9194655 4.3141235 5.9375 4.21875 C 5.9585338 4.123388 5.987976 4.0386924 6 3.96875 z M 11.15625 5 C 10.837159 5.0000049 10.540596 5.0474855 10.25 5.125 C 9.9594004 5.2025241 9.6768152 5.3025635 9.4375 5.4375 L 9.875 6.3125 C 10.07158 6.2120156 10.243766 6.1227966 10.4375 6.0625 C 10.634079 6.0022111 10.85737 5.9687539 11.0625 5.96875 C 11.267626 5.9687539 11.417287 6.030258 11.53125 6.125 C 11.645207 6.2197496 11.718747 6.3643985 11.71875 6.5625 L 11.71875 6.90625 L 10.9375 6.9375 C 10.290775 6.9633427 9.8247852 7.0997103 9.5 7.34375 C 9.1752131 7.5849237 8.9999996 7.9576982 9 8.46875 C 8.9999996 8.7300202 9.0253735 8.963888 9.09375 9.15625 C 9.1621255 9.3457424 9.2553412 9.4986725 9.375 9.625 C 9.4975063 9.748457 9.6472568 9.8430861 9.8125 9.90625 C 9.9777408 9.9665428 10.150016 9.9999999 10.34375 10 C 10.526084 9.9999999 10.706996 9.9974608 10.84375 9.96875 C 10.983349 9.9400391 11.107636 9.8727929 11.21875 9.8125 C 11.329858 9.7522073 11.43723 9.6856251 11.53125 9.59375 C 11.625264 9.4990045 11.71848 9.3791995 11.8125 9.25 L 11.84375 9.25 L 12.09375 9.90625 L 13 9.90625 L 13 6.71875 C 12.999996 6.1445361 12.850334 5.7188709 12.53125 5.4375 C 12.215007 5.1561381 11.751688 5.0000049 11.15625 5 z M 11.28125 7.6875 L 11.71875 7.6875 L 11.71875 8.09375 C 11.718747 8.2487904 11.698982 8.3794158 11.65625 8.5 C 11.613512 8.6177159 11.54567 8.6979896 11.46875 8.78125 C 11.394673 8.8616415 11.290061 8.9256847 11.1875 8.96875 C 11.084933 9.0089461 10.994656 9.0312509 10.875 9.03125 C 10.718303 9.0312509 10.565614 8.9895125 10.46875 8.90625 C 10.371882 8.8201184 10.343748 8.6697274 10.34375 8.46875 C 10.343748 8.353908 10.343659 8.2793765 10.375 8.1875 C 10.409186 8.0927559 10.460023 8.0035369 10.53125 7.9375 C 10.605322 7.8685959 10.72409 7.8214473 10.84375 7.78125 C 10.963406 7.7410569 11.107458 7.6932444 11.28125 7.6875 z M 3 11 L 3 12 L 5 12 L 5 11 L 3 11 z M 6 11 L 6 12 L 8 12 L 8 11 L 6 11 z M 9 11 L 9 12 L 11 12 L 11 11 L 9 11 z M 12 11 L 12 12 L 13 12 L 13 11 L 12 11 z "
       transform="translate(0,1036.3622)"
       id="path3955" />
    <path
       id="path3953"
       transform="translate(0,1036.3622)"
       d="M 5.15625 3 L 3 10 L 4.40625 10 L 4.875 8.34375 L 7.125 8.34375 L 7.59375 10 L 9 10 L 6.84375 3 L 5.15625 3 z M 6 3.96875 C 6.0150233 4.0800184 6.0576838 4.2160594 6.09375 4.375 C 6.12981 4.5339519 6.1484285 4.7160589 6.1875 4.875 C 6.2295704 5.0307725 6.2764336 5.1509188 6.3125 5.28125 C 6.3485598 5.4115906 6.3569651 5.5052838 6.375 5.5625 L 6.8125 7.09375 L 5.21875 7.09375 L 5.625 5.5625 C 5.6340131 5.5275363 5.6382158 5.4793699 5.65625 5.40625 C 5.6772841 5.3331393 5.6947052 5.2516226 5.71875 5.15625 C 5.7427893 5.0608871 5.7854499 4.9518386 5.8125 4.84375 C 5.8395445 4.7356717 5.8509551 4.63616 5.875 4.53125 C 5.9020444 4.423172 5.9194655 4.3141235 5.9375 4.21875 C 5.9585338 4.123388 5.987976 4.0386924 6 3.96875 z M 11.15625 5 C 10.837159 5.0000049 10.540596 5.0474855 10.25 5.125 C 9.9594004 5.2025241 9.6768152 5.3025635 9.4375 5.4375 L 9.875 6.3125 C 10.07158 6.2120156 10.243766 6.1227966 10.4375 6.0625 C 10.634079 6.0022111 10.85737 5.9687539 11.0625 5.96875 C 11.267626 5.9687539 11.417287 6.030258 11.53125 6.125 C 11.645207 6.2197496 11.718747 6.3643985 11.71875 6.5625 L 11.71875 6.90625 L 10.9375 6.9375 C 10.290775 6.9633427 9.8247852 7.0997103 9.5 7.34375 C 9.1752131 7.5849237 8.9999996 7.9576982 9 8.46875 C 8.9999996 8.7300202 9.0253735 8.963888 9.09375 9.15625 C 9.1621255 9.3457424 9.2553412 9.4986725 9.375 9.625 C 9.4975063 9.748457 9.6472568 9.8430861 9.8125 9.90625 C 9.9777408 9.9665428 10.150016 9.9999999 10.34375 10 C 10.526084 9.9999999 10.706996 9.9974608 10.84375 9.96875 C 10.983349 9.9400391 11.107636 9.8727929 11.21875 9.8125 C 11.329858 9.7522073 11.43723 9.6856251 11.53125 9.59375 C 11.625264 9.4990045 11.71848 9.3791995 11.8125 9.25 L 11.84375 9.25 L 12.09375 9.90625 L 13 9.90625 L 13 6.71875 C 12.999996 6.1445361 12.850334 5.7188709 12.53125 5.4375 C 12.215007 5.1561381 11.751688 5.0000049 11.15625 5 z M 11.28125 7.6875 L 11.71875 7.6875 L 11.71875 8.09375 C 11.718747 8.2487904 11.698982 8.3794158 11.65625 8.5 C 11.613512 8.6177159 11.54567 8.6979896 11.46875 8.78125 C 11.394673 8.8616415 11.290061 8.9256847 11.1875 8.96875 C 11.084933 9.0089461 10.994656 9.0312509 10.875 9.03125 C 10.718303 9.0312509 10.565614 8.9895125 10.46875 8.90625 C 10.371882 8.8201184 10.343748 8.6697274 10.34375 8.46875 C 10.343748 8.353908 10.343659 8.2793765 10.375 8.1875 C 10.409186 8.0927559 10.460023 8.0035369 10.53125 7.9375 C 10.605322 7.8685959 10.72409 7.8214473 10.84375 7.78125 C 10.963406 7.7410569 11.107458 7.6932444 11.28125 7.6875 z M 3 11 L 3 12 L 5 12 L 5 11 L 3 11 z M 6 11 L 6 12 L 8 12 L 8 11 L 6 11 z M 9 11 L 9 12 L 11 12 L 11 11 L 9 11 z M 12 11 L 12 12 L 13 12 L 13 11 L 12 11 z "
       style="font-size:8.78599452999999997px;font-style:normal;font-variant:normal;font-weight:bold;font-stretch:normal;line-height:125%;letter-spacing:0px;word-spacing:0px;fill:#000000;fill-opacity:1;stroke:#000000;font-family:Droid Sans;-inkscape-font-specification:Droid Sans Bold;stroke-opacity:1;stroke-linejoin:round;opacity:0.15" />
    <path
       style="font-size:8.78599452999999997px;font-style:normal;font-variant:normal;font-weight:bold;font-stretch:normal;line-height:125%;letter-spacing:0px;word-spacing:0px;fill:#ffffff;fill-opacity:1;stroke:none;font-family:Droid Sans;-inkscape-font-specification:Droid Sans Bold"
       d="M 5.15625 3 L 3 10 L 4.40625 10 L 4.875 8.34375 L 7.125 8.34375 L 7.59375 10 L 9 10 L 6.84375 3 L 5.15625 3 z M 6 3.96875 C 6.0150233 4.0800184 6.0576838 4.2160594 6.09375 4.375 C 6.12981 4.5339519 6.1484285 4.7160589 6.1875 4.875 C 6.2295704 5.0307725 6.2764336 5.1509188 6.3125 5.28125 C 6.3485598 5.4115906 6.3569651 5.5052838 6.375 5.5625 L 6.8125 7.09375 L 5.21875 7.09375 L 5.625 5.5625 C 5.6340131 5.5275363 5.6382158 5.4793699 5.65625 5.40625 C 5.6772841 5.3331393 5.6947052 5.2516226 5.71875 5.15625 C 5.7427893 5.0608871 5.7854499 4.9518386 5.8125 4.84375 C 5.8395445 4.7356717 5.8509551 4.63616 5.875 4.53125 C 5.9020444 4.423172 5.9194655 4.3141235 5.9375 4.21875 C 5.9585338 4.123388 5.987976 4.0386924 6 3.96875 z M 11.15625 5 C 10.837159 5.0000049 10.540596 5.0474855 10.25 5.125 C 9.9594004 5.2025241 9.6768152 5.3025635 9.4375 5.4375 L 9.875 6.3125 C 10.07158 6.2120156 10.243766 6.1227966 10.4375 6.0625 C 10.634079 6.0022111 10.85737 5.9687539 11.0625 5.96875 C 11.267626 5.9687539 11.417287 6.030258 11.53125 6.125 C 11.645207 6.2197496 11.718747 6.3643985 11.71875 6.5625 L 11.71875 6.90625 L 10.9375 6.9375 C 10.290775 6.9633427 9.8247852 7.0997103 9.5 7.34375 C 9.1752131 7.5849237 8.9999996 7.9576982 9 8.46875 C 8.9999996 8.7300202 9.0253735 8.963888 9.09375 9.15625 C 9.1621255 9.3457424 9.2553412 9.4986725 9.375 9.625 C 9.4975063 9.748457 9.6472568 9.8430861 9.8125 9.90625 C 9.9777408 9.9665428 10.150016 9.9999999 10.34375 10 C 10.526084 9.9999999 10.706996 9.9974608 10.84375 9.96875 C 10.983349 9.9400391 11.107636 9.8727929 11.21875 9.8125 C 11.329858 9.7522073 11.43723 9.6856251 11.53125 9.59375 C 11.625264 9.4990045 11.71848 9.3791995 11.8125 9.25 L 11.84375 9.25 L 12.09375 9.90625 L 13 9.90625 L 13 6.71875 C 12.999996 6.1445361 12.850334 5.7188709 12.53125 5.4375 C 12.215007 5.1561381 11.751688 5.0000049 11.15625 5 z M 11.28125 7.6875 L 11.71875 7.6875 L 11.71875 8.09375 C 11.718747 8.2487904 11.698982 8.3794158 11.65625 8.5 C 11.613512 8.6177159 11.54567 8.6979896 11.46875 8.78125 C 11.394673 8.8616415 11.290061 8.9256847 11.1875 8.96875 C 11.084933 9.0089461 10.994656 9.0312509 10.875 9.03125 C 10.718303 9.0312509 10.565614 8.9895125 10.46875 8.90625 C 10.371882 8.8201184 10.343748 8.6697274 10.34375 8.46875 C 10.343748 8.353908 10.343659 8.2793765 10.375 8.1875 C 10.409186 8.0927559 10.460023 8.0035369 10.53125 7.9375 C 10.605322 7.8685959 10.72409 7.8214473 10.84375 7.78125 C 10.963406 7.7410569 11.107458 7.6932444 11.28125 7.6875 z M 3 11 L 3 12 L 5 12 L 5 11 L 3 11 z M 6 11 L 6 12 L 8 12 L 8 11 L 6 11 z M 9 11 L 9 12 L 11 12 L 11 11 L 9 11 z M 12 11 L 12 12 L 13 12 L 13 11 L 12 11 z "
       transform="translate(0,1036.3622)"
       id="text3011" />
  </g>
</svg>
