<?xml version="1.0" encoding="UTF-8" standalone="no"?>
<!-- Created with Inkscape (http://www.inkscape.org/) -->

<svg
   xmlns:dc="http://purl.org/dc/elements/1.1/"
   xmlns:cc="http://creativecommons.org/ns#"
   xmlns:rdf="http://www.w3.org/1999/02/22-rdf-syntax-ns#"
   xmlns:svg="http://www.w3.org/2000/svg"
   xmlns="http://www.w3.org/2000/svg"
   xmlns:sodipodi="http://sodipodi.sourceforge.net/DTD/sodipodi-0.dtd"
   xmlns:inkscape="http://www.inkscape.org/namespaces/inkscape"
   width="16"
   height="16"
   id="svg2"
   version="1.1"
   inkscape:version="0.48.3.1 r9886"
   sodipodi:docname="window-close.svg">
  <defs
     id="defs4">
    <linearGradient
       id="linearGradient4303">
      <stop
         style="stop-color:#969696;stop-opacity:1;"
         offset="0"
         id="stop4305" />
      <stop
         style="stop-color:#333333;stop-opacity:1;"
         offset="1"
         id="stop4307" />
    </linearGradient>
    <linearGradient
       id="linearGradient4295">
      <stop
         style="stop-color:#646464;stop-opacity:1;"
         offset="0"
         id="stop4297" />
      <stop
         style="stop-color:#c8c8c8;stop-opacity:1;"
         offset="1"
         id="stop4299" />
    </linearGradient>
  </defs>
  <sodipodi:namedview
     id="base"
     pagecolor="#ffffff"
     bordercolor="#666666"
     borderopacity="1.0"
     inkscape:pageopacity="0.0"
     inkscape:pageshadow="2"
     inkscape:zoom="22.4"
     inkscape:cx="5.8466384"
     inkscape:cy="7.1242261"
     inkscape:document-units="px"
     inkscape:current-layer="layer1"
     showgrid="false"
     inkscape:window-width="1280"
     inkscape:window-height="751"
     inkscape:window-x="0"
     inkscape:window-y="24"
     inkscape:window-maximized="1" />
  <metadata
     id="metadata7">
    <rdf:RDF>
      <cc:Work
         rdf:about="">
        <dc:format>image/svg+xml</dc:format>
        <dc:type
           rdf:resource="http://purl.org/dc/dcmitype/StillImage" />
        <dc:title />
      </cc:Work>
    </rdf:RDF>
  </metadata>
  <g
     inkscape:label="Livello 1"
     inkscape:groupmode="layer"
     id="layer1"
     transform="translate(0,-1036.3622)">
    <rect
       style="fill:#505050;fill-opacity:1;stroke:#333333;stroke-opacity:1"
       id="rect3017"
       width="11"
       height="11"
       x="2.5"
       y="1038.8622"
       rx="1"
       ry="1" />
    <path
       sodipodi:nodetypes="ccccccccccccccccccccc"
       inkscape:connector-curvature="0"
       id="path4315"
       d="m 4.8180195,1041.8873 0.7071068,-0.7071 c 0.1958685,-0.1958 0.5112382,-0.1958 0.7071067,0 L 8,1042.948 l 1.767767,-1.7678 c 0.1958685,-0.1958 0.511238,-0.1958 0.707107,0 l 0.707107,0.7071 c 0.195868,0.1959 0.195868,0.5113 0,0.7071 l -1.7677674,1.7678 1.7677674,1.7678 c 0.195868,0.1958 0.195868,0.5112 0,0.7071 l -0.707107,0.7071 c -0.195869,0.1958 -0.5112385,0.1958 -0.707107,0 L 8,1045.7764 l -1.767767,1.7678 c -0.1958685,0.1958 -0.5112382,0.1958 -0.7071067,0 l -0.7071068,-0.7071 c -0.1958686,-0.1959 -0.1958686,-0.5113 0,-0.7071 l 1.7677669,-1.7678 -1.7677669,-1.7678 c -0.1958686,-0.1958 -0.1958686,-0.5112 0,-0.7071 z"
       style="fill:#000100;fill-opacity:1;fill-rule:nonzero;stroke:#000000;stroke-opacity:1;opacity:0.05;stroke-width:3;stroke-miterlimit:4;stroke-dasharray:none" />
    <path
       style="fill:#000100;fill-opacity:1;fill-rule:nonzero;stroke:#000000;stroke-opacity:1;opacity:0.09999995;stroke-width:2;stroke-miterlimit:4;stroke-dasharray:none"
       d="m 4.8180195,1041.8873 0.7071068,-0.7071 c 0.1958685,-0.1958 0.5112382,-0.1958 0.7071067,0 L 8,1042.948 l 1.767767,-1.7678 c 0.1958685,-0.1958 0.511238,-0.1958 0.707107,0 l 0.707107,0.7071 c 0.195868,0.1959 0.195868,0.5113 0,0.7071 l -1.7677674,1.7678 1.7677674,1.7678 c 0.195868,0.1958 0.195868,0.5112 0,0.7071 l -0.707107,0.7071 c -0.195869,0.1958 -0.5112385,0.1958 -0.707107,0 L 8,1045.7764 l -1.767767,1.7678 c -0.1958685,0.1958 -0.5112382,0.1958 -0.7071067,0 l -0.7071068,-0.7071 c -0.1958686,-0.1959 -0.1958686,-0.5113 0,-0.7071 l 1.7677669,-1.7678 -1.7677669,-1.7678 c -0.1958686,-0.1958 -0.1958686,-0.5112 0,-0.7071 z"
       id="path4313"
       inkscape:connector-curvature="0"
       sodipodi:nodetypes="ccccccccccccccccccccc" />
    <path
       sodipodi:nodetypes="ccccccccccccccccccccc"
       inkscape:connector-curvature="0"
       id="path4311"
       d="m 4.8180195,1041.8873 0.7071068,-0.7071 c 0.1958685,-0.1958 0.5112382,-0.1958 0.7071067,0 L 8,1042.948 l 1.767767,-1.7678 c 0.1958685,-0.1958 0.511238,-0.1958 0.707107,0 l 0.707107,0.7071 c 0.195868,0.1959 0.195868,0.5113 0,0.7071 l -1.7677674,1.7678 1.7677674,1.7678 c 0.195868,0.1958 0.195868,0.5112 0,0.7071 l -0.707107,0.7071 c -0.195869,0.1958 -0.5112385,0.1958 -0.707107,0 L 8,1045.7764 l -1.767767,1.7678 c -0.1958685,0.1958 -0.5112382,0.1958 -0.7071067,0 l -0.7071068,-0.7071 c -0.1958686,-0.1959 -0.1958686,-0.5113 0,-0.7071 l 1.7677669,-1.7678 -1.7677669,-1.7678 c -0.1958686,-0.1958 -0.1958686,-0.5112 0,-0.7071 z"
       style="fill:#000100;fill-opacity:1;fill-rule:nonzero;stroke:#000000;stroke-opacity:1;opacity:0.15" />
    <path
       style="fill:#ffffff;fill-opacity:1;fill-rule:nonzero;stroke:none"
       d="m 4.8180195,1041.8873 0.7071068,-0.7071 c 0.1958685,-0.1958 0.5112382,-0.1958 0.7071067,0 L 8,1042.948 l 1.767767,-1.7678 c 0.1958685,-0.1958 0.511238,-0.1958 0.707107,0 l 0.707107,0.7071 c 0.195868,0.1959 0.195868,0.5113 0,0.7071 l -1.7677674,1.7678 1.7677674,1.7678 c 0.195868,0.1958 0.195868,0.5112 0,0.7071 l -0.707107,0.7071 c -0.195869,0.1958 -0.5112385,0.1958 -0.707107,0 L 8,1045.7764 l -1.767767,1.7678 c -0.1958685,0.1958 -0.5112382,0.1958 -0.7071067,0 l -0.7071068,-0.7071 c -0.1958686,-0.1959 -0.1958686,-0.5113 0,-0.7071 l 1.7677669,-1.7678 -1.7677669,-1.7678 c -0.1958686,-0.1958 -0.1958686,-0.5112 0,-0.7071 z"
       id="path2985"
       inkscape:connector-curvature="0"
       sodipodi:nodetypes="ccccccccccccccccccccc" />
  </g>
</svg>
