<?xml version="1.0" encoding="UTF-8" standalone="no"?>
<!-- Created with Inkscape (http://www.inkscape.org/) -->

<svg
   xmlns:dc="http://purl.org/dc/elements/1.1/"
   xmlns:cc="http://creativecommons.org/ns#"
   xmlns:rdf="http://www.w3.org/1999/02/22-rdf-syntax-ns#"
   xmlns:svg="http://www.w3.org/2000/svg"
   xmlns="http://www.w3.org/2000/svg"
   xmlns:xlink="http://www.w3.org/1999/xlink"
   xmlns:sodipodi="http://sodipodi.sourceforge.net/DTD/sodipodi-0.dtd"
   xmlns:inkscape="http://www.inkscape.org/namespaces/inkscape"
   width="22"
   height="22"
   id="svg3147"
   version="1.1"
   inkscape:version="0.48.3.1 r9886"
   sodipodi:docname="format-text-underline.svg">
  <defs
     id="defs3149">
    <linearGradient
       id="linearGradient3779">
      <stop
         style="stop-color:#333333;stop-opacity:1;"
         offset="0"
         id="stop3781" />
      <stop
         style="stop-color:#969696;stop-opacity:1;"
         offset="1"
         id="stop3783" />
    </linearGradient>
    <linearGradient
       id="linearGradient3771">
      <stop
         style="stop-color:#c8c8c8;stop-opacity:1;"
         offset="0"
         id="stop3773" />
      <stop
         style="stop-color:#646464;stop-opacity:1;"
         offset="1"
         id="stop3775" />
    </linearGradient>
    <linearGradient
       id="linearGradient4536">
      <stop
         style="stop-color:#ffffff;stop-opacity:1;"
         offset="0"
         id="stop4538" />
      <stop
         id="stop4546"
         offset="0.06216056"
         style="stop-color:#ffffff;stop-opacity:0.15686275;" />
      <stop
         id="stop4544"
         offset="0.936414"
         style="stop-color:#ffffff;stop-opacity:0.23529412;" />
      <stop
         style="stop-color:#ffffff;stop-opacity:0.39215687;"
         offset="1"
         id="stop4540" />
    </linearGradient>
    <radialGradient
       inkscape:collect="always"
       xlink:href="#linearGradient3688-166-749"
       id="radialGradient3132"
       gradientUnits="userSpaceOnUse"
       gradientTransform="matrix(2.003784,0,0,1.4,27.98813,-17.4)"
       cx="4.9929786"
       cy="43.5"
       fx="4.9929786"
       fy="43.5"
       r="2.5" />
    <linearGradient
       id="linearGradient3688-166-749">
      <stop
         id="stop2883"
         style="stop-color:#181818;stop-opacity:1"
         offset="0" />
      <stop
         id="stop2885"
         style="stop-color:#181818;stop-opacity:0"
         offset="1" />
    </linearGradient>
    <radialGradient
       inkscape:collect="always"
       xlink:href="#linearGradient3688-464-309"
       id="radialGradient3134"
       gradientUnits="userSpaceOnUse"
       gradientTransform="matrix(2.003784,0,0,1.4,-20.01187,-104.4)"
       cx="4.9929786"
       cy="43.5"
       fx="4.9929786"
       fy="43.5"
       r="2.5" />
    <linearGradient
       id="linearGradient3688-464-309">
      <stop
         id="stop2889"
         style="stop-color:#181818;stop-opacity:1"
         offset="0" />
      <stop
         id="stop2891"
         style="stop-color:#181818;stop-opacity:0"
         offset="1" />
    </linearGradient>
    <linearGradient
       inkscape:collect="always"
       xlink:href="#linearGradient3702-501-757"
       id="linearGradient3136"
       gradientUnits="userSpaceOnUse"
       x1="25.058096"
       y1="47.027729"
       x2="25.058096"
       y2="39.999443" />
    <linearGradient
       id="linearGradient3702-501-757">
      <stop
         id="stop2895"
         style="stop-color:#181818;stop-opacity:0"
         offset="0" />
      <stop
         id="stop2897"
         style="stop-color:#181818;stop-opacity:1"
         offset="0.5" />
      <stop
         id="stop2899"
         style="stop-color:#181818;stop-opacity:0"
         offset="1" />
    </linearGradient>
    <linearGradient
       inkscape:collect="always"
       xlink:href="#linearGradient4536"
       id="linearGradient4542"
       x1="14.801802"
       y1="1010.4072"
       x2="14.801802"
       y2="1028.1376"
       gradientUnits="userSpaceOnUse"
       gradientTransform="translate(-3,22.000024)" />
  </defs>
  <sodipodi:namedview
     id="base"
     pagecolor="#ffffff"
     bordercolor="#666666"
     borderopacity="1.0"
     inkscape:pageopacity="0.0"
     inkscape:pageshadow="2"
     inkscape:zoom="16"
     inkscape:cx="-2.7442109"
     inkscape:cy="5.2201722"
     inkscape:document-units="px"
     inkscape:current-layer="layer1"
     showgrid="false"
     inkscape:window-width="1280"
     inkscape:window-height="751"
     inkscape:window-x="0"
     inkscape:window-y="24"
     inkscape:window-maximized="1" />
  <metadata
     id="metadata3152">
    <rdf:RDF>
      <cc:Work
         rdf:about="">
        <dc:format>image/svg+xml</dc:format>
        <dc:type
           rdf:resource="http://purl.org/dc/dcmitype/StillImage" />
        <dc:title />
      </cc:Work>
    </rdf:RDF>
  </metadata>
  <g
     inkscape:label="Livello 1"
     inkscape:groupmode="layer"
     id="layer1"
     transform="translate(0,-1030.3622)">
    <rect
       style="fill:#505050;fill-opacity:1;stroke:#333333;stroke-opacity:1"
       id="rect3163"
       width="19"
       height="19"
       x="1.5"
       y="1031.8622"
       rx="1"
       ry="1" />
    <path
       id="path3950"
       transform="translate(0,1030.3622)"
       d="M 11.1875 5 C 10.544925 5.0000098 9.9284851 5.0859793 9.34375 5.25 C 8.7590084 5.4140399 8.2254998 5.60943 7.75 5.84375 L 8.375 7.0625 C 8.7990937 6.8633281 9.231272 6.6718557 9.6875 6.53125 C 10.150147 6.3906609 10.654162 6.3125085 11.1875 6.3125 C 11.521631 6.3125085 11.805466 6.3672097 12.0625 6.4375 C 12.325948 6.5078071 12.54525 6.6172278 12.71875 6.78125 C 12.898663 6.9394301 13.035033 7.1426373 13.125 7.40625 C 13.221378 7.6698775 13.281243 8.0137554 13.28125 8.40625 L 13.28125 9 L 11.5 9.0625 C 9.9835304 9.1093716 8.8391287 9.3907311 8.09375 9.90625 C 7.354793 10.421779 6.9999991 11.164254 7 12.125 C 6.9999991 12.617094 7.0645322 13.043041 7.21875 13.40625 C 7.3729656 13.763603 7.605119 14.072313 7.875 14.3125 C 8.1513031 14.54683 8.4710569 14.701194 8.84375 14.8125 C 9.2164376 14.929664 9.619123 15 10.0625 15 C 10.467315 15 10.816562 14.964832 11.125 14.90625 C 11.433428 14.847668 11.718142 14.748023 11.96875 14.625 C 12.219346 14.501977 12.444195 14.374964 12.65625 14.1875 C 12.868291 13.994179 13.100445 13.763621 13.3125 13.5 L 13.375 13.5 L 13.75 14.8125 L 15 14.8125 L 15 8.21875 C 14.999991 7.6446506 14.935458 7.1542256 14.78125 6.75 C 14.627025 6.3457906 14.377351 6.007771 14.0625 5.75 C 13.754059 5.486389 13.35692 5.3046741 12.875 5.1875 C 12.399492 5.0644869 11.842916 5.0000098 11.1875 5 z M 13.25 10.09375 L 13.25 10.96875 C 13.249993 11.431554 13.172608 11.841867 13.03125 12.1875 C 12.896303 12.52728 12.71292 12.802781 12.46875 13.03125 C 12.224567 13.253864 11.927881 13.419945 11.59375 13.53125 C 11.259608 13.642558 10.923213 13.718751 10.53125 13.71875 C 10.023616 13.718751 9.5961059 13.595655 9.28125 13.34375 C 8.9728134 13.091848 8.8124973 12.695209 8.8125 12.15625 C 8.8124973 11.857483 8.865936 11.578082 8.96875 11.34375 C 9.0715583 11.103566 9.2374216 10.914034 9.46875 10.75 C 9.7064974 10.580116 10.014278 10.437486 10.40625 10.34375 C 10.798213 10.250023 11.296682 10.179688 11.875 10.15625 L 13.25 10.09375 z M 6 16 L 6 17 L 16 17 L 16 16 L 6 16 z "
       style="font-size:18.84797667999999859px;font-style:normal;font-variant:normal;font-weight:normal;font-stretch:normal;line-height:125%;letter-spacing:0px;word-spacing:0px;fill:#000000;fill-opacity:1;stroke:#000000;font-family:Droid Sans;-inkscape-font-specification:Droid Sans;stroke-opacity:1;stroke-linejoin:round;opacity:0.05;stroke-width:3;stroke-miterlimit:4;stroke-dasharray:none" />
    <path
       style="font-size:18.84797667999999859px;font-style:normal;font-variant:normal;font-weight:normal;font-stretch:normal;line-height:125%;letter-spacing:0px;word-spacing:0px;fill:#000000;fill-opacity:1;stroke:#000000;font-family:Droid Sans;-inkscape-font-specification:Droid Sans;stroke-opacity:1;stroke-linejoin:round;opacity:0.09999995;stroke-width:2.00000009999999984;stroke-miterlimit:4;stroke-dasharray:none"
       d="M 11.1875 5 C 10.544925 5.0000098 9.9284851 5.0859793 9.34375 5.25 C 8.7590084 5.4140399 8.2254998 5.60943 7.75 5.84375 L 8.375 7.0625 C 8.7990937 6.8633281 9.231272 6.6718557 9.6875 6.53125 C 10.150147 6.3906609 10.654162 6.3125085 11.1875 6.3125 C 11.521631 6.3125085 11.805466 6.3672097 12.0625 6.4375 C 12.325948 6.5078071 12.54525 6.6172278 12.71875 6.78125 C 12.898663 6.9394301 13.035033 7.1426373 13.125 7.40625 C 13.221378 7.6698775 13.281243 8.0137554 13.28125 8.40625 L 13.28125 9 L 11.5 9.0625 C 9.9835304 9.1093716 8.8391287 9.3907311 8.09375 9.90625 C 7.354793 10.421779 6.9999991 11.164254 7 12.125 C 6.9999991 12.617094 7.0645322 13.043041 7.21875 13.40625 C 7.3729656 13.763603 7.605119 14.072313 7.875 14.3125 C 8.1513031 14.54683 8.4710569 14.701194 8.84375 14.8125 C 9.2164376 14.929664 9.619123 15 10.0625 15 C 10.467315 15 10.816562 14.964832 11.125 14.90625 C 11.433428 14.847668 11.718142 14.748023 11.96875 14.625 C 12.219346 14.501977 12.444195 14.374964 12.65625 14.1875 C 12.868291 13.994179 13.100445 13.763621 13.3125 13.5 L 13.375 13.5 L 13.75 14.8125 L 15 14.8125 L 15 8.21875 C 14.999991 7.6446506 14.935458 7.1542256 14.78125 6.75 C 14.627025 6.3457906 14.377351 6.007771 14.0625 5.75 C 13.754059 5.486389 13.35692 5.3046741 12.875 5.1875 C 12.399492 5.0644869 11.842916 5.0000098 11.1875 5 z M 13.25 10.09375 L 13.25 10.96875 C 13.249993 11.431554 13.172608 11.841867 13.03125 12.1875 C 12.896303 12.52728 12.71292 12.802781 12.46875 13.03125 C 12.224567 13.253864 11.927881 13.419945 11.59375 13.53125 C 11.259608 13.642558 10.923213 13.718751 10.53125 13.71875 C 10.023616 13.718751 9.5961059 13.595655 9.28125 13.34375 C 8.9728134 13.091848 8.8124973 12.695209 8.8125 12.15625 C 8.8124973 11.857483 8.865936 11.578082 8.96875 11.34375 C 9.0715583 11.103566 9.2374216 10.914034 9.46875 10.75 C 9.7064974 10.580116 10.014278 10.437486 10.40625 10.34375 C 10.798213 10.250023 11.296682 10.179688 11.875 10.15625 L 13.25 10.09375 z M 6 16 L 6 17 L 16 17 L 16 16 L 6 16 z "
       transform="translate(0,1030.3622)"
       id="path3948" />
    <path
       id="path3946"
       transform="translate(0,1030.3622)"
       d="M 11.1875 5 C 10.544925 5.0000098 9.9284851 5.0859793 9.34375 5.25 C 8.7590084 5.4140399 8.2254998 5.60943 7.75 5.84375 L 8.375 7.0625 C 8.7990937 6.8633281 9.231272 6.6718557 9.6875 6.53125 C 10.150147 6.3906609 10.654162 6.3125085 11.1875 6.3125 C 11.521631 6.3125085 11.805466 6.3672097 12.0625 6.4375 C 12.325948 6.5078071 12.54525 6.6172278 12.71875 6.78125 C 12.898663 6.9394301 13.035033 7.1426373 13.125 7.40625 C 13.221378 7.6698775 13.281243 8.0137554 13.28125 8.40625 L 13.28125 9 L 11.5 9.0625 C 9.9835304 9.1093716 8.8391287 9.3907311 8.09375 9.90625 C 7.354793 10.421779 6.9999991 11.164254 7 12.125 C 6.9999991 12.617094 7.0645322 13.043041 7.21875 13.40625 C 7.3729656 13.763603 7.605119 14.072313 7.875 14.3125 C 8.1513031 14.54683 8.4710569 14.701194 8.84375 14.8125 C 9.2164376 14.929664 9.619123 15 10.0625 15 C 10.467315 15 10.816562 14.964832 11.125 14.90625 C 11.433428 14.847668 11.718142 14.748023 11.96875 14.625 C 12.219346 14.501977 12.444195 14.374964 12.65625 14.1875 C 12.868291 13.994179 13.100445 13.763621 13.3125 13.5 L 13.375 13.5 L 13.75 14.8125 L 15 14.8125 L 15 8.21875 C 14.999991 7.6446506 14.935458 7.1542256 14.78125 6.75 C 14.627025 6.3457906 14.377351 6.007771 14.0625 5.75 C 13.754059 5.486389 13.35692 5.3046741 12.875 5.1875 C 12.399492 5.0644869 11.842916 5.0000098 11.1875 5 z M 13.25 10.09375 L 13.25 10.96875 C 13.249993 11.431554 13.172608 11.841867 13.03125 12.1875 C 12.896303 12.52728 12.71292 12.802781 12.46875 13.03125 C 12.224567 13.253864 11.927881 13.419945 11.59375 13.53125 C 11.259608 13.642558 10.923213 13.718751 10.53125 13.71875 C 10.023616 13.718751 9.5961059 13.595655 9.28125 13.34375 C 8.9728134 13.091848 8.8124973 12.695209 8.8125 12.15625 C 8.8124973 11.857483 8.865936 11.578082 8.96875 11.34375 C 9.0715583 11.103566 9.2374216 10.914034 9.46875 10.75 C 9.7064974 10.580116 10.014278 10.437486 10.40625 10.34375 C 10.798213 10.250023 11.296682 10.179688 11.875 10.15625 L 13.25 10.09375 z M 6 16 L 6 17 L 16 17 L 16 16 L 6 16 z "
       style="font-size:18.84797667999999859px;font-style:normal;font-variant:normal;font-weight:normal;font-stretch:normal;line-height:125%;letter-spacing:0px;word-spacing:0px;fill:#000000;fill-opacity:1;stroke:#000000;font-family:Droid Sans;-inkscape-font-specification:Droid Sans;stroke-opacity:1;stroke-linejoin:round;opacity:0.15" />
    <path
       style="font-size:18.84797668px;font-style:normal;font-variant:normal;font-weight:normal;font-stretch:normal;line-height:125%;letter-spacing:0px;word-spacing:0px;fill:#ffffff;fill-opacity:1;stroke:none;font-family:Droid Sans;-inkscape-font-specification:Droid Sans"
       d="M 11.1875 5 C 10.544925 5.0000098 9.9284851 5.0859793 9.34375 5.25 C 8.7590084 5.4140399 8.2254998 5.60943 7.75 5.84375 L 8.375 7.0625 C 8.7990937 6.8633281 9.231272 6.6718557 9.6875 6.53125 C 10.150147 6.3906609 10.654162 6.3125085 11.1875 6.3125 C 11.521631 6.3125085 11.805466 6.3672097 12.0625 6.4375 C 12.325948 6.5078071 12.54525 6.6172278 12.71875 6.78125 C 12.898663 6.9394301 13.035033 7.1426373 13.125 7.40625 C 13.221378 7.6698775 13.281243 8.0137554 13.28125 8.40625 L 13.28125 9 L 11.5 9.0625 C 9.9835304 9.1093716 8.8391287 9.3907311 8.09375 9.90625 C 7.354793 10.421779 6.9999991 11.164254 7 12.125 C 6.9999991 12.617094 7.0645322 13.043041 7.21875 13.40625 C 7.3729656 13.763603 7.605119 14.072313 7.875 14.3125 C 8.1513031 14.54683 8.4710569 14.701194 8.84375 14.8125 C 9.2164376 14.929664 9.619123 15 10.0625 15 C 10.467315 15 10.816562 14.964832 11.125 14.90625 C 11.433428 14.847668 11.718142 14.748023 11.96875 14.625 C 12.219346 14.501977 12.444195 14.374964 12.65625 14.1875 C 12.868291 13.994179 13.100445 13.763621 13.3125 13.5 L 13.375 13.5 L 13.75 14.8125 L 15 14.8125 L 15 8.21875 C 14.999991 7.6446506 14.935458 7.1542256 14.78125 6.75 C 14.627025 6.3457906 14.377351 6.007771 14.0625 5.75 C 13.754059 5.486389 13.35692 5.3046741 12.875 5.1875 C 12.399492 5.0644869 11.842916 5.0000098 11.1875 5 z M 13.25 10.09375 L 13.25 10.96875 C 13.249993 11.431554 13.172608 11.841867 13.03125 12.1875 C 12.896303 12.52728 12.71292 12.802781 12.46875 13.03125 C 12.224567 13.253864 11.927881 13.419945 11.59375 13.53125 C 11.259608 13.642558 10.923213 13.718751 10.53125 13.71875 C 10.023616 13.718751 9.5961059 13.595655 9.28125 13.34375 C 8.9728134 13.091848 8.8124973 12.695209 8.8125 12.15625 C 8.8124973 11.857483 8.865936 11.578082 8.96875 11.34375 C 9.0715583 11.103566 9.2374216 10.914034 9.46875 10.75 C 9.7064974 10.580116 10.014278 10.437486 10.40625 10.34375 C 10.798213 10.250023 11.296682 10.179688 11.875 10.15625 L 13.25 10.09375 z M 6 16 L 6 17 L 16 17 L 16 16 L 6 16 z "
       transform="translate(0,1030.3622)"
       id="text3836" />
  </g>
</svg>
