<?xml version="1.0" encoding="UTF-8" standalone="no"?>
<!-- Created with Inkscape (http://www.inkscape.org/) -->

<svg
   xmlns:dc="http://purl.org/dc/elements/1.1/"
   xmlns:cc="http://creativecommons.org/ns#"
   xmlns:rdf="http://www.w3.org/1999/02/22-rdf-syntax-ns#"
   xmlns:svg="http://www.w3.org/2000/svg"
   xmlns="http://www.w3.org/2000/svg"
   xmlns:sodipodi="http://sodipodi.sourceforge.net/DTD/sodipodi-0.dtd"
   xmlns:inkscape="http://www.inkscape.org/namespaces/inkscape"
   width="22"
   height="22"
   id="svg3752"
   version="1.1"
   inkscape:version="0.48.3.1 r9886"
   sodipodi:docname="media-playlist-shuffle.svg">
  <defs
     id="defs3754" />
  <sodipodi:namedview
     id="base"
     pagecolor="#ffffff"
     bordercolor="#666666"
     borderopacity="1.0"
     inkscape:pageopacity="0.0"
     inkscape:pageshadow="2"
     inkscape:zoom="15.839192"
     inkscape:cx="9.8624098"
     inkscape:cy="12.131454"
     inkscape:document-units="px"
     inkscape:current-layer="layer1"
     showgrid="false"
     inkscape:window-width="1280"
     inkscape:window-height="751"
     inkscape:window-x="0"
     inkscape:window-y="24"
     inkscape:window-maximized="1" />
  <metadata
     id="metadata3757">
    <rdf:RDF>
      <cc:Work
         rdf:about="">
        <dc:format>image/svg+xml</dc:format>
        <dc:type
           rdf:resource="http://purl.org/dc/dcmitype/StillImage" />
        <dc:title></dc:title>
      </cc:Work>
    </rdf:RDF>
  </metadata>
  <g
     inkscape:label="Livello 1"
     inkscape:groupmode="layer"
     id="layer1"
     transform="translate(0,-1030.3622)">
    <path
       id="path4352"
       d="m 15,1035.3622 0,2 -3,0 c -2.209139,0 -4,1.7909 -4,4 l 0,1 c 0,1.1045 -0.89543,2 -2,2 l -3,0 0,2 3,0 c 2.209139,0 4,-1.7909 4,-4 l 0,-1 c 0,-1.1045 0.89543,-2 2,-2 l 3,0 0,2 4,-3 -4,-3 z m -12,2 0,2 3,0 c 0.2910929,0 0.5630179,0.076 0.8125,0.1875 0.2270739,-0.6411 0.5662705,-1.2099 1,-1.7187 -0.5463291,-0.28 -1.156442,-0.4688 -1.8125,-0.4688 l -3,0 z m 12,5 0,2 -3,0 c -0.291093,0 -0.563018,-0.076 -0.8125,-0.1875 -0.226942,0.6519 -0.56,1.2338 -1,1.75 0.543095,0.2757 1.161719,0.4375 1.8125,0.4375 l 3,0 0,2 4,-3 -4,-3 z"
       style="opacity:0.2;fill:#ffffff;fill-opacity:1;stroke:#ffffff;stroke-linejoin:round;stroke-opacity:1"
       inkscape:connector-curvature="0" />
    <path
       style="fill:#333333;fill-opacity:1;stroke:none"
       d="m 15,1035.3622 0,2 -3,0 c -2.209139,0 -4,1.7909 -4,4 l 0,1 c 0,1.1045 -0.89543,2 -2,2 l -3,0 0,2 3,0 c 2.209139,0 4,-1.7909 4,-4 l 0,-1 c 0,-1.1045 0.89543,-2 2,-2 l 3,0 0,2 4,-3 -4,-3 z m -12,2 0,2 3,0 c 0.2910929,0 0.5630179,0.076 0.8125,0.1875 0.2270739,-0.6411 0.5662705,-1.2099 1,-1.7187 -0.5463291,-0.28 -1.156442,-0.4688 -1.8125,-0.4688 l -3,0 z m 12,5 0,2 -3,0 c -0.291093,0 -0.563018,-0.076 -0.8125,-0.1875 -0.226942,0.6519 -0.56,1.2338 -1,1.75 0.543095,0.2757 1.161719,0.4375 1.8125,0.4375 l 3,0 0,2 4,-3 -4,-3 z"
       id="path3760"
       inkscape:connector-curvature="0" />
  </g>
</svg>
