<?xml version="1.0" encoding="UTF-8" standalone="no"?>
<!-- Created with Inkscape (http://www.inkscape.org/) -->

<svg
   xmlns:dc="http://purl.org/dc/elements/1.1/"
   xmlns:cc="http://creativecommons.org/ns#"
   xmlns:rdf="http://www.w3.org/1999/02/22-rdf-syntax-ns#"
   xmlns:svg="http://www.w3.org/2000/svg"
   xmlns="http://www.w3.org/2000/svg"
   xmlns:sodipodi="http://sodipodi.sourceforge.net/DTD/sodipodi-0.dtd"
   xmlns:inkscape="http://www.inkscape.org/namespaces/inkscape"
   width="22"
   height="22"
   id="svg2"
   version="1.1"
   inkscape:version="0.48.3.1 r9886"
   sodipodi:docname="media-playlist-repeat.svg">
  <defs
     id="defs4" />
  <sodipodi:namedview
     id="base"
     pagecolor="#ffffff"
     bordercolor="#666666"
     borderopacity="1.0"
     inkscape:pageopacity="0.0"
     inkscape:pageshadow="2"
     inkscape:zoom="7.9195959"
     inkscape:cx="10.995884"
     inkscape:cy="1.3353255"
     inkscape:document-units="px"
     inkscape:current-layer="layer1"
     showgrid="false"
     inkscape:window-width="1280"
     inkscape:window-height="751"
     inkscape:window-x="0"
     inkscape:window-y="24"
     inkscape:window-maximized="1" />
  <metadata
     id="metadata7">
    <rdf:RDF>
      <cc:Work
         rdf:about="">
        <dc:format>image/svg+xml</dc:format>
        <dc:type
           rdf:resource="http://purl.org/dc/dcmitype/StillImage" />
        <dc:title></dc:title>
      </cc:Work>
    </rdf:RDF>
  </metadata>
  <g
     inkscape:label="Livello 1"
     inkscape:groupmode="layer"
     id="layer1"
     transform="translate(0,-1030.3622)">
    <path
       inkscape:connector-curvature="0"
       id="path3777"
       d="m 6,1035.3622 c -1.6568542,0 -3,1.3431 -3,3 l 0,4 c 0,1.6569 1.3431458,3 3,3 l 2,0 0,-2 -2,0 c -0.5522847,0 -1,-0.4477 -1,-1 l 0,-4 c 0,-0.5523 0.4477153,-1 1,-1 l 10,0 c 0.552285,0 1,0.4477 1,1 l 0,4 c 0,0.5523 -0.447715,1 -1,1 l -2,0 0,-2 -4,3 4,3 0,-2 2,0 c 1.656854,0 3,-1.3431 3,-3 l 0,-4 c 0,-1.6569 -1.343146,-3 -3,-3 l -10,0 z"
       style="opacity:0.2;fill:#ffffff;fill-opacity:1;stroke:#ffffff;stroke-linejoin:round;stroke-opacity:1" />
    <path
       style="fill:#333333;fill-opacity:1;stroke:none"
       d="m 6,1035.3622 c -1.6568542,0 -3,1.3431 -3,3 l 0,4 c 0,1.6569 1.3431458,3 3,3 l 2,0 0,-2 -2,0 c -0.5522847,0 -1,-0.4477 -1,-1 l 0,-4 c 0,-0.5523 0.4477153,-1 1,-1 l 10,0 c 0.552285,0 1,0.4477 1,1 l 0,4 c 0,0.5523 -0.447715,1 -1,1 l -2,0 0,-2 -4,3 4,3 0,-2 2,0 c 1.656854,0 3,-1.3431 3,-3 l 0,-4 c 0,-1.6569 -1.343146,-3 -3,-3 l -10,0 z"
       id="path2985"
       inkscape:connector-curvature="0" />
  </g>
</svg>
