<?xml version="1.0" encoding="UTF-8" standalone="no"?>
<!-- Created with Inkscape (http://www.inkscape.org/) -->

<svg
   xmlns:dc="http://purl.org/dc/elements/1.1/"
   xmlns:cc="http://creativecommons.org/ns#"
   xmlns:rdf="http://www.w3.org/1999/02/22-rdf-syntax-ns#"
   xmlns:svg="http://www.w3.org/2000/svg"
   xmlns="http://www.w3.org/2000/svg"
   xmlns:xlink="http://www.w3.org/1999/xlink"
   xmlns:sodipodi="http://sodipodi.sourceforge.net/DTD/sodipodi-0.dtd"
   xmlns:inkscape="http://www.inkscape.org/namespaces/inkscape"
   width="22"
   height="22"
   id="svg3147"
   version="1.1"
   inkscape:version="0.48.3.1 r9886"
   sodipodi:docname="stock_text-monospaced.svg">
  <defs
     id="defs3149">
    <linearGradient
       id="linearGradient3779">
      <stop
         style="stop-color:#333333;stop-opacity:1;"
         offset="0"
         id="stop3781" />
      <stop
         style="stop-color:#969696;stop-opacity:1;"
         offset="1"
         id="stop3783" />
    </linearGradient>
    <linearGradient
       id="linearGradient3771">
      <stop
         style="stop-color:#c8c8c8;stop-opacity:1;"
         offset="0"
         id="stop3773" />
      <stop
         style="stop-color:#646464;stop-opacity:1;"
         offset="1"
         id="stop3775" />
    </linearGradient>
    <linearGradient
       id="linearGradient4536">
      <stop
         style="stop-color:#ffffff;stop-opacity:1;"
         offset="0"
         id="stop4538" />
      <stop
         id="stop4546"
         offset="0.06216056"
         style="stop-color:#ffffff;stop-opacity:0.15686275;" />
      <stop
         id="stop4544"
         offset="0.936414"
         style="stop-color:#ffffff;stop-opacity:0.23529412;" />
      <stop
         style="stop-color:#ffffff;stop-opacity:0.39215687;"
         offset="1"
         id="stop4540" />
    </linearGradient>
    <radialGradient
       inkscape:collect="always"
       xlink:href="#linearGradient3688-166-749"
       id="radialGradient3132"
       gradientUnits="userSpaceOnUse"
       gradientTransform="matrix(2.003784,0,0,1.4,27.98813,-17.4)"
       cx="4.9929786"
       cy="43.5"
       fx="4.9929786"
       fy="43.5"
       r="2.5" />
    <linearGradient
       id="linearGradient3688-166-749">
      <stop
         id="stop2883"
         style="stop-color:#181818;stop-opacity:1"
         offset="0" />
      <stop
         id="stop2885"
         style="stop-color:#181818;stop-opacity:0"
         offset="1" />
    </linearGradient>
    <radialGradient
       inkscape:collect="always"
       xlink:href="#linearGradient3688-464-309"
       id="radialGradient3134"
       gradientUnits="userSpaceOnUse"
       gradientTransform="matrix(2.003784,0,0,1.4,-20.01187,-104.4)"
       cx="4.9929786"
       cy="43.5"
       fx="4.9929786"
       fy="43.5"
       r="2.5" />
    <linearGradient
       id="linearGradient3688-464-309">
      <stop
         id="stop2889"
         style="stop-color:#181818;stop-opacity:1"
         offset="0" />
      <stop
         id="stop2891"
         style="stop-color:#181818;stop-opacity:0"
         offset="1" />
    </linearGradient>
    <linearGradient
       inkscape:collect="always"
       xlink:href="#linearGradient3702-501-757"
       id="linearGradient3136"
       gradientUnits="userSpaceOnUse"
       x1="25.058096"
       y1="47.027729"
       x2="25.058096"
       y2="39.999443" />
    <linearGradient
       id="linearGradient3702-501-757">
      <stop
         id="stop2895"
         style="stop-color:#181818;stop-opacity:0"
         offset="0" />
      <stop
         id="stop2897"
         style="stop-color:#181818;stop-opacity:1"
         offset="0.5" />
      <stop
         id="stop2899"
         style="stop-color:#181818;stop-opacity:0"
         offset="1" />
    </linearGradient>
    <linearGradient
       inkscape:collect="always"
       xlink:href="#linearGradient4536"
       id="linearGradient4542"
       x1="14.801802"
       y1="1010.4072"
       x2="14.801802"
       y2="1028.1376"
       gradientUnits="userSpaceOnUse"
       gradientTransform="translate(-3,22.000041)" />
  </defs>
  <sodipodi:namedview
     id="base"
     pagecolor="#ffffff"
     bordercolor="#666666"
     borderopacity="1.0"
     inkscape:pageopacity="0.0"
     inkscape:pageshadow="2"
     inkscape:zoom="13.875"
     inkscape:cx="0.15498693"
     inkscape:cy="6.8187501"
     inkscape:document-units="px"
     inkscape:current-layer="layer1"
     showgrid="false"
     inkscape:window-width="1280"
     inkscape:window-height="751"
     inkscape:window-x="0"
     inkscape:window-y="24"
     inkscape:window-maximized="1" />
  <metadata
     id="metadata3152">
    <rdf:RDF>
      <cc:Work
         rdf:about="">
        <dc:format>image/svg+xml</dc:format>
        <dc:type
           rdf:resource="http://purl.org/dc/dcmitype/StillImage" />
        <dc:title />
      </cc:Work>
    </rdf:RDF>
  </metadata>
  <g
     inkscape:label="Livello 1"
     inkscape:groupmode="layer"
     id="layer1"
     transform="translate(0,-1030.3622)">
    <rect
       style="fill:#505050;fill-opacity:1;stroke:#333333;stroke-opacity:1"
       id="rect3163"
       width="19"
       height="19"
       x="1.5"
       y="1031.8622"
       rx="1"
       ry="1" />
    <path
       id="path3810"
       d="M 4.0625,1037.3621 4,1039.5496 l 0.625,0 0.09375,-0.7187 c 0.012334,-0.124 0.00349,-0.2145 0.03125,-0.3125 0.030839,-0.098 0.097653,-0.184 0.15625,-0.25 0.06168,-0.07 0.123144,-0.1203 0.21875,-0.1563 0.095604,-0.037 0.2331327,-0.063 0.375,-0.063 l 0.75,0 0,6 c -2e-6,0.1605 -0.00658,0.28 -0.03125,0.375 -0.024674,0.095 -0.050576,0.1678 -0.09375,0.2188 -0.043179,0.051 -0.097655,0.076 -0.15625,0.094 -0.058599,0.012 -0.147819,0.031 -0.21875,0.031 l -0.375,0 0,0.5937 3.25,0 0,-0.5937 -0.375,0 c -0.067854,0 -0.128907,-0.016 -0.1875,-0.031 -0.058601,-0.018 -0.141244,-0.043 -0.1875,-0.094 -0.04318,-0.051 -0.069082,-0.1238 -0.09375,-0.2188 -0.024675,-0.095 -0.031254,-0.2145 -0.03125,-0.375 l 0,-6 0.75,0 c 0.1418612,0 0.27939,0.025 0.375,0.063 0.0956,0.036 0.16015,0.087 0.21875,0.1563 0.061676,0.066 0.09724,0.151 0.1250001,0.25 0.03084,0.099 0.05016,0.1885 0.0625,0.3125 l 0.09375,0.7187 0.6249999,0 -0.03125,-2.1875 -5.90625,0 z m 8,0 -0.0625,2.1875 0.625,0 0.09375,-0.7187 c 0.01234,-0.124 0.0035,-0.2145 0.03125,-0.3125 0.03084,-0.098 0.09765,-0.184 0.15625,-0.25 0.06168,-0.07 0.12314,-0.1203 0.21875,-0.1563 0.0956,-0.037 0.233132,-0.063 0.375,-0.063 l 0.75,0 0,6 c 0,0.1605 -0.0066,0.28 -0.03125,0.375 -0.02467,0.095 -0.05057,0.1678 -0.09375,0.2188 -0.04318,0.051 -0.09765,0.076 -0.15625,0.094 -0.0586,0.012 -0.14782,0.031 -0.21875,0.031 l -0.375,0 0,0.5937 3.25,0 0,-0.5937 -0.375,0 c -0.06785,0 -0.12891,-0.016 -0.1875,-0.031 -0.0586,-0.018 -0.14124,-0.043 -0.1875,-0.094 -0.04317,-0.051 -0.06908,-0.1238 -0.09375,-0.2188 -0.02468,-0.095 -0.03125,-0.2145 -0.03125,-0.375 l 0,-6 0.75,0 c 0.141861,0 0.27939,0.025 0.375,0.063 0.0956,0.036 0.16014,0.087 0.21875,0.1563 0.06168,0.066 0.09724,0.151 0.125,0.25 0.03084,0.099 0.05016,0.1885 0.0625,0.3125 l 0.09375,0.7187 0.625,0 -0.03125,-2.1875 -5.90625,0 z"
       style="font-size:10.30402374px;font-style:normal;font-variant:normal;font-weight:bold;font-stretch:normal;line-height:125%;letter-spacing:0px;word-spacing:0px;opacity:0.05;fill:#000000;fill-opacity:1;stroke:#000000;stroke-width:3;stroke-linejoin:round;stroke-miterlimit:4;stroke-opacity:1;stroke-dasharray:none;font-family:Droid Serif;-inkscape-font-specification:Droid Serif Bold"
       inkscape:connector-curvature="0" />
    <path
       style="font-size:10.30402374px;font-style:normal;font-variant:normal;font-weight:bold;font-stretch:normal;line-height:125%;letter-spacing:0px;word-spacing:0px;opacity:0.09999994;fill:#000000;fill-opacity:1;stroke:#000000;stroke-width:2;stroke-linejoin:round;stroke-miterlimit:4;stroke-opacity:1;stroke-dasharray:none;font-family:Droid Serif;-inkscape-font-specification:Droid Serif Bold"
       d="M 4.0625,1037.3621 4,1039.5496 l 0.625,0 0.09375,-0.7187 c 0.012334,-0.124 0.00349,-0.2145 0.03125,-0.3125 0.030839,-0.098 0.097653,-0.184 0.15625,-0.25 0.06168,-0.07 0.123144,-0.1203 0.21875,-0.1563 0.095604,-0.037 0.2331327,-0.063 0.375,-0.063 l 0.75,0 0,6 c -2e-6,0.1605 -0.00658,0.28 -0.03125,0.375 -0.024674,0.095 -0.050576,0.1678 -0.09375,0.2188 -0.043179,0.051 -0.097655,0.076 -0.15625,0.094 -0.058599,0.012 -0.147819,0.031 -0.21875,0.031 l -0.375,0 0,0.5937 3.25,0 0,-0.5937 -0.375,0 c -0.067854,0 -0.128907,-0.016 -0.1875,-0.031 -0.058601,-0.018 -0.141244,-0.043 -0.1875,-0.094 -0.04318,-0.051 -0.069082,-0.1238 -0.09375,-0.2188 -0.024675,-0.095 -0.031254,-0.2145 -0.03125,-0.375 l 0,-6 0.75,0 c 0.1418612,0 0.27939,0.025 0.375,0.063 0.0956,0.036 0.16015,0.087 0.21875,0.1563 0.061676,0.066 0.09724,0.151 0.1250001,0.25 0.03084,0.099 0.05016,0.1885 0.0625,0.3125 l 0.09375,0.7187 0.6249999,0 -0.03125,-2.1875 -5.90625,0 z m 8,0 -0.0625,2.1875 0.625,0 0.09375,-0.7187 c 0.01234,-0.124 0.0035,-0.2145 0.03125,-0.3125 0.03084,-0.098 0.09765,-0.184 0.15625,-0.25 0.06168,-0.07 0.12314,-0.1203 0.21875,-0.1563 0.0956,-0.037 0.233132,-0.063 0.375,-0.063 l 0.75,0 0,6 c 0,0.1605 -0.0066,0.28 -0.03125,0.375 -0.02467,0.095 -0.05057,0.1678 -0.09375,0.2188 -0.04318,0.051 -0.09765,0.076 -0.15625,0.094 -0.0586,0.012 -0.14782,0.031 -0.21875,0.031 l -0.375,0 0,0.5937 3.25,0 0,-0.5937 -0.375,0 c -0.06785,0 -0.12891,-0.016 -0.1875,-0.031 -0.0586,-0.018 -0.14124,-0.043 -0.1875,-0.094 -0.04317,-0.051 -0.06908,-0.1238 -0.09375,-0.2188 -0.02468,-0.095 -0.03125,-0.2145 -0.03125,-0.375 l 0,-6 0.75,0 c 0.141861,0 0.27939,0.025 0.375,0.063 0.0956,0.036 0.16014,0.087 0.21875,0.1563 0.06168,0.066 0.09724,0.151 0.125,0.25 0.03084,0.099 0.05016,0.1885 0.0625,0.3125 l 0.09375,0.7187 0.625,0 -0.03125,-2.1875 -5.90625,0 z"
       id="path3808"
       inkscape:connector-curvature="0" />
    <path
       id="path3806"
       d="M 4.0625,1037.3621 4,1039.5496 l 0.625,0 0.09375,-0.7187 c 0.012334,-0.124 0.00349,-0.2145 0.03125,-0.3125 0.030839,-0.098 0.097653,-0.184 0.15625,-0.25 0.06168,-0.07 0.123144,-0.1203 0.21875,-0.1563 0.095604,-0.037 0.2331327,-0.063 0.375,-0.063 l 0.75,0 0,6 c -2e-6,0.1605 -0.00658,0.28 -0.03125,0.375 -0.024674,0.095 -0.050576,0.1678 -0.09375,0.2188 -0.043179,0.051 -0.097655,0.076 -0.15625,0.094 -0.058599,0.012 -0.147819,0.031 -0.21875,0.031 l -0.375,0 0,0.5937 3.25,0 0,-0.5937 -0.375,0 c -0.067854,0 -0.128907,-0.016 -0.1875,-0.031 -0.058601,-0.018 -0.141244,-0.043 -0.1875,-0.094 -0.04318,-0.051 -0.069082,-0.1238 -0.09375,-0.2188 -0.024675,-0.095 -0.031254,-0.2145 -0.03125,-0.375 l 0,-6 0.75,0 c 0.1418612,0 0.27939,0.025 0.375,0.063 0.0956,0.036 0.16015,0.087 0.21875,0.1563 0.061676,0.066 0.09724,0.151 0.1250001,0.25 0.03084,0.099 0.05016,0.1885 0.0625,0.3125 l 0.09375,0.7187 0.6249999,0 -0.03125,-2.1875 -5.90625,0 z m 8,0 -0.0625,2.1875 0.625,0 0.09375,-0.7187 c 0.01234,-0.124 0.0035,-0.2145 0.03125,-0.3125 0.03084,-0.098 0.09765,-0.184 0.15625,-0.25 0.06168,-0.07 0.12314,-0.1203 0.21875,-0.1563 0.0956,-0.037 0.233132,-0.063 0.375,-0.063 l 0.75,0 0,6 c 0,0.1605 -0.0066,0.28 -0.03125,0.375 -0.02467,0.095 -0.05057,0.1678 -0.09375,0.2188 -0.04318,0.051 -0.09765,0.076 -0.15625,0.094 -0.0586,0.012 -0.14782,0.031 -0.21875,0.031 l -0.375,0 0,0.5937 3.25,0 0,-0.5937 -0.375,0 c -0.06785,0 -0.12891,-0.016 -0.1875,-0.031 -0.0586,-0.018 -0.14124,-0.043 -0.1875,-0.094 -0.04317,-0.051 -0.06908,-0.1238 -0.09375,-0.2188 -0.02468,-0.095 -0.03125,-0.2145 -0.03125,-0.375 l 0,-6 0.75,0 c 0.141861,0 0.27939,0.025 0.375,0.063 0.0956,0.036 0.16014,0.087 0.21875,0.1563 0.06168,0.066 0.09724,0.151 0.125,0.25 0.03084,0.099 0.05016,0.1885 0.0625,0.3125 l 0.09375,0.7187 0.625,0 -0.03125,-2.1875 -5.90625,0 z"
       style="font-size:10.30402374px;font-style:normal;font-variant:normal;font-weight:bold;font-stretch:normal;line-height:125%;letter-spacing:0px;word-spacing:0px;opacity:0.15;fill:#000000;fill-opacity:1;stroke:#000000;stroke-linejoin:round;stroke-opacity:1;font-family:Droid Serif;-inkscape-font-specification:Droid Serif Bold"
       inkscape:connector-curvature="0" />
    <path
       style="font-size:10.30402374px;font-style:normal;font-variant:normal;font-weight:bold;font-stretch:normal;line-height:125%;letter-spacing:0px;word-spacing:0px;fill:#ffffff;fill-opacity:1;stroke:none;font-family:Droid Serif;-inkscape-font-specification:Droid Serif Bold"
       d="M 4.0625,1037.3621 4,1039.5496 l 0.625,0 0.09375,-0.7187 c 0.012334,-0.124 0.00349,-0.2145 0.03125,-0.3125 0.030839,-0.098 0.097653,-0.184 0.15625,-0.25 0.06168,-0.07 0.123144,-0.1203 0.21875,-0.1563 0.095604,-0.037 0.2331327,-0.063 0.375,-0.063 l 0.75,0 0,6 c -2e-6,0.1605 -0.00658,0.28 -0.03125,0.375 -0.024674,0.095 -0.050576,0.1678 -0.09375,0.2188 -0.043179,0.051 -0.097655,0.076 -0.15625,0.094 -0.058599,0.012 -0.147819,0.031 -0.21875,0.031 l -0.375,0 0,0.5937 3.25,0 0,-0.5937 -0.375,0 c -0.067854,0 -0.128907,-0.016 -0.1875,-0.031 -0.058601,-0.018 -0.141244,-0.043 -0.1875,-0.094 -0.04318,-0.051 -0.069082,-0.1238 -0.09375,-0.2188 -0.024675,-0.095 -0.031254,-0.2145 -0.03125,-0.375 l 0,-6 0.75,0 c 0.1418612,0 0.27939,0.025 0.375,0.063 0.0956,0.036 0.16015,0.087 0.21875,0.1563 0.061676,0.066 0.09724,0.151 0.1250001,0.25 0.03084,0.099 0.05016,0.1885 0.0625,0.3125 l 0.09375,0.7187 0.6249999,0 -0.03125,-2.1875 -5.90625,0 z m 8,0 -0.0625,2.1875 0.625,0 0.09375,-0.7187 c 0.01234,-0.124 0.0035,-0.2145 0.03125,-0.3125 0.03084,-0.098 0.09765,-0.184 0.15625,-0.25 0.06168,-0.07 0.12314,-0.1203 0.21875,-0.1563 0.0956,-0.037 0.233132,-0.063 0.375,-0.063 l 0.75,0 0,6 c 0,0.1605 -0.0066,0.28 -0.03125,0.375 -0.02467,0.095 -0.05057,0.1678 -0.09375,0.2188 -0.04318,0.051 -0.09765,0.076 -0.15625,0.094 -0.0586,0.012 -0.14782,0.031 -0.21875,0.031 l -0.375,0 0,0.5937 3.25,0 0,-0.5937 -0.375,0 c -0.06785,0 -0.12891,-0.016 -0.1875,-0.031 -0.0586,-0.018 -0.14124,-0.043 -0.1875,-0.094 -0.04317,-0.051 -0.06908,-0.1238 -0.09375,-0.2188 -0.02468,-0.095 -0.03125,-0.2145 -0.03125,-0.375 l 0,-6 0.75,0 c 0.141861,0 0.27939,0.025 0.375,0.063 0.0956,0.036 0.16014,0.087 0.21875,0.1563 0.06168,0.066 0.09724,0.151 0.125,0.25 0.03084,0.099 0.05016,0.1885 0.0625,0.3125 l 0.09375,0.7187 0.625,0 -0.03125,-2.1875 -5.90625,0 z"
       id="path3020"
       inkscape:connector-curvature="0" />
  </g>
</svg>
