<?xml version="1.0" encoding="UTF-8" standalone="no"?>
<!-- Created with Inkscape (http://www.inkscape.org/) -->

<svg
   xmlns:dc="http://purl.org/dc/elements/1.1/"
   xmlns:cc="http://creativecommons.org/ns#"
   xmlns:rdf="http://www.w3.org/1999/02/22-rdf-syntax-ns#"
   xmlns:svg="http://www.w3.org/2000/svg"
   xmlns="http://www.w3.org/2000/svg"
   xmlns:xlink="http://www.w3.org/1999/xlink"
   xmlns:sodipodi="http://sodipodi.sourceforge.net/DTD/sodipodi-0.dtd"
   xmlns:inkscape="http://www.inkscape.org/namespaces/inkscape"
   width="22"
   height="22"
   id="svg3147"
   version="1.1"
   inkscape:version="0.48.3.1 r9886"
   sodipodi:docname="tools-check-spelling.svg">
  <defs
     id="defs3149">
    <linearGradient
       id="linearGradient3779">
      <stop
         style="stop-color:#333333;stop-opacity:1;"
         offset="0"
         id="stop3781" />
      <stop
         style="stop-color:#969696;stop-opacity:1;"
         offset="1"
         id="stop3783" />
    </linearGradient>
    <linearGradient
       id="linearGradient3771">
      <stop
         style="stop-color:#c8c8c8;stop-opacity:1;"
         offset="0"
         id="stop3773" />
      <stop
         style="stop-color:#646464;stop-opacity:1;"
         offset="1"
         id="stop3775" />
    </linearGradient>
    <linearGradient
       id="linearGradient4536">
      <stop
         style="stop-color:#ffffff;stop-opacity:1;"
         offset="0"
         id="stop4538" />
      <stop
         id="stop4546"
         offset="0.06216056"
         style="stop-color:#ffffff;stop-opacity:0.15686275;" />
      <stop
         id="stop4544"
         offset="0.936414"
         style="stop-color:#ffffff;stop-opacity:0.23529412;" />
      <stop
         style="stop-color:#ffffff;stop-opacity:0.39215687;"
         offset="1"
         id="stop4540" />
    </linearGradient>
    <radialGradient
       inkscape:collect="always"
       xlink:href="#linearGradient3688-166-749"
       id="radialGradient3132"
       gradientUnits="userSpaceOnUse"
       gradientTransform="matrix(2.003784,0,0,1.4,27.98813,-17.4)"
       cx="4.9929786"
       cy="43.5"
       fx="4.9929786"
       fy="43.5"
       r="2.5" />
    <linearGradient
       id="linearGradient3688-166-749">
      <stop
         id="stop2883"
         style="stop-color:#181818;stop-opacity:1"
         offset="0" />
      <stop
         id="stop2885"
         style="stop-color:#181818;stop-opacity:0"
         offset="1" />
    </linearGradient>
    <radialGradient
       inkscape:collect="always"
       xlink:href="#linearGradient3688-464-309"
       id="radialGradient3134"
       gradientUnits="userSpaceOnUse"
       gradientTransform="matrix(2.003784,0,0,1.4,-20.01187,-104.4)"
       cx="4.9929786"
       cy="43.5"
       fx="4.9929786"
       fy="43.5"
       r="2.5" />
    <linearGradient
       id="linearGradient3688-464-309">
      <stop
         id="stop2889"
         style="stop-color:#181818;stop-opacity:1"
         offset="0" />
      <stop
         id="stop2891"
         style="stop-color:#181818;stop-opacity:0"
         offset="1" />
    </linearGradient>
    <linearGradient
       inkscape:collect="always"
       xlink:href="#linearGradient3702-501-757"
       id="linearGradient3136"
       gradientUnits="userSpaceOnUse"
       x1="25.058096"
       y1="47.027729"
       x2="25.058096"
       y2="39.999443" />
    <linearGradient
       id="linearGradient3702-501-757">
      <stop
         id="stop2895"
         style="stop-color:#181818;stop-opacity:0"
         offset="0" />
      <stop
         id="stop2897"
         style="stop-color:#181818;stop-opacity:1"
         offset="0.5" />
      <stop
         id="stop2899"
         style="stop-color:#181818;stop-opacity:0"
         offset="1" />
    </linearGradient>
    <linearGradient
       inkscape:collect="always"
       xlink:href="#linearGradient4536"
       id="linearGradient4542"
       x1="14.801802"
       y1="1010.4072"
       x2="14.801802"
       y2="1028.1376"
       gradientUnits="userSpaceOnUse"
       gradientTransform="translate(-3,22.000027)" />
  </defs>
  <sodipodi:namedview
     id="base"
     pagecolor="#ffffff"
     bordercolor="#666666"
     borderopacity="1.0"
     inkscape:pageopacity="0.0"
     inkscape:pageshadow="2"
     inkscape:zoom="11.313708"
     inkscape:cx="-5.1961847"
     inkscape:cy="11.812435"
     inkscape:document-units="px"
     inkscape:current-layer="layer1"
     showgrid="false"
     inkscape:window-width="1280"
     inkscape:window-height="751"
     inkscape:window-x="0"
     inkscape:window-y="24"
     inkscape:window-maximized="1" />
  <metadata
     id="metadata3152">
    <rdf:RDF>
      <cc:Work
         rdf:about="">
        <dc:format>image/svg+xml</dc:format>
        <dc:type
           rdf:resource="http://purl.org/dc/dcmitype/StillImage" />
        <dc:title />
      </cc:Work>
    </rdf:RDF>
  </metadata>
  <g
     inkscape:label="Livello 1"
     inkscape:groupmode="layer"
     id="layer1"
     transform="translate(0,-1030.3622)">
    <rect
       style="fill:#505050;fill-opacity:1;stroke:#333333;stroke-opacity:1"
       id="rect3163"
       width="19"
       height="19"
       x="1.5"
       y="1031.8622"
       rx="1"
       ry="1" />
    <path
       inkscape:connector-curvature="0"
       id="path4149"
       d="m 6.8125,1035.3622 -2.8125,8.875 1.875,0 0.59375,-2.0937 3.0000001,0 0.5937499,2.0937 1.84375,0 -2.8125,-8.875 -2.28125,0 z m 1.15625,1.25 c 0.01982,0.1411 0.046168,0.2984 0.09375,0.5 0.047574,0.2017 0.104702,0.4234 0.15625,0.625 0.055504,0.1976 0.108668,0.366 0.15625,0.5313 0.047574,0.1653 0.069956,0.302 0.09375,0.375 l 0.5625,1.9062 -2.125,0 0.5625,-1.9062 c 0.011891,-0.044 0.00746,-0.1258 0.03125,-0.2188 0.027751,-0.093 0.062027,-0.1916 0.09375,-0.3125 0.031716,-0.1209 0.089312,-0.269 0.125,-0.4062 0.03568,-0.137 0.062027,-0.2732 0.09375,-0.4063 0.03568,-0.1371 0.069956,-0.254 0.09375,-0.375 0.027751,-0.1209 0.046636,-0.2235 0.0625,-0.3125 z m 7.46875,0.7188 c -0.44407,0 -0.876835,0.079 -1.28125,0.1875 -0.404419,0.1089 -0.760701,0.248 -1.09375,0.4375 l 0.5625,1.2187 c 0.273575,-0.1411 0.574136,-0.2587 0.84375,-0.3437 0.273574,-0.085 0.527025,-0.125 0.8125,-0.125 0.285468,0 0.528901,0.054 0.6875,0.1875 0.158594,0.1332 0.218745,0.3468 0.21875,0.625 l 0,0.5 -1.0625,0.063 c -0.90003,0.036 -1.548005,0.2198 -2,0.5625 -0.451997,0.3387 -0.687501,0.8448 -0.6875,1.5625 -10e-7,0.3669 0.02984,0.6985 0.125,0.9687 0.09516,0.2661 0.239724,0.479 0.40625,0.6563 0.170488,0.1735 0.363784,0.3172 0.59375,0.4062 0.229961,0.085 0.480386,0.125 0.75,0.125 0.25375,0 0.497182,-0.022 0.6875,-0.063 0.194275,-0.04 0.345366,-0.1025 0.5,-0.1875 0.154626,-0.085 0.306655,-0.1834 0.4375,-0.3125 0.130837,-0.133 0.275404,-0.2873 0.40625,-0.4687 l 0.03125,0 0.34375,0.9062 1.28125,0 0,-4.5 c -6e-6,-0.8065 -0.212189,-1.4174 -0.65625,-1.8125 -0.440107,-0.3951 -1.077594,-0.5937 -1.90625,-0.5937 z m 0.75,3.7812 0,0.5625 c 0,0.2177 -0.03428,0.3932 -0.09375,0.5625 -0.05948,0.1654 -0.142953,0.3205 -0.25,0.4375 -0.103091,0.1128 -0.201018,0.189 -0.34375,0.25 -0.14274,0.057 -0.302227,0.094 -0.46875,0.094 -0.218071,0 -0.396447,-0.071 -0.53125,-0.1875 -0.134809,-0.1209 -0.218752,-0.3116 -0.21875,-0.5938 -10e-6,-0.1613 0.05013,-0.3084 0.09375,-0.4375 0.04758,-0.133 0.11963,-0.2507 0.21875,-0.3437 0.103084,-0.097 0.239722,-0.1618 0.40625,-0.2188 0.166521,-0.057 0.351888,-0.084 0.59375,-0.094 l 0.59375,-0.031 z m -12.1875,4.25 0,1 3,0 0,-1 -3,0 z m 4,0 0,1 3,0 0,-1 -3,0 z m 4,0 0,1 3,0 0,-1 -3,0 z m 4,0 0,1 2,0 0,-1 -2,0 z"
       style="font-size:12.28317165px;font-style:normal;font-variant:normal;font-weight:bold;font-stretch:normal;line-height:125%;letter-spacing:0px;word-spacing:0px;opacity:0.05;fill:#000000;fill-opacity:1;stroke:#000000;stroke-width:3;stroke-linejoin:round;stroke-miterlimit:4;stroke-opacity:1;stroke-dasharray:none;font-family:Droid Sans;-inkscape-font-specification:Droid Sans Bold" />
    <path
       style="font-size:12.28317165px;font-style:normal;font-variant:normal;font-weight:bold;font-stretch:normal;line-height:125%;letter-spacing:0px;word-spacing:0px;opacity:0.1;fill:#000000;fill-opacity:1;stroke:#000000;stroke-width:2;stroke-linejoin:round;stroke-miterlimit:4;stroke-opacity:1;stroke-dasharray:none;font-family:Droid Sans;-inkscape-font-specification:Droid Sans Bold"
       d="m 6.8125,1035.3622 -2.8125,8.875 1.875,0 0.59375,-2.0937 3.0000001,0 0.5937499,2.0937 1.84375,0 -2.8125,-8.875 -2.28125,0 z m 1.15625,1.25 c 0.01982,0.1411 0.046168,0.2984 0.09375,0.5 0.047574,0.2017 0.104702,0.4234 0.15625,0.625 0.055504,0.1976 0.108668,0.366 0.15625,0.5313 0.047574,0.1653 0.069956,0.302 0.09375,0.375 l 0.5625,1.9062 -2.125,0 0.5625,-1.9062 c 0.011891,-0.044 0.00746,-0.1258 0.03125,-0.2188 0.027751,-0.093 0.062027,-0.1916 0.09375,-0.3125 0.031716,-0.1209 0.089312,-0.269 0.125,-0.4062 0.03568,-0.137 0.062027,-0.2732 0.09375,-0.4063 0.03568,-0.1371 0.069956,-0.254 0.09375,-0.375 0.027751,-0.1209 0.046636,-0.2235 0.0625,-0.3125 z m 7.46875,0.7188 c -0.44407,0 -0.876835,0.079 -1.28125,0.1875 -0.404419,0.1089 -0.760701,0.248 -1.09375,0.4375 l 0.5625,1.2187 c 0.273575,-0.1411 0.574136,-0.2587 0.84375,-0.3437 0.273574,-0.085 0.527025,-0.125 0.8125,-0.125 0.285468,0 0.528901,0.054 0.6875,0.1875 0.158594,0.1332 0.218745,0.3468 0.21875,0.625 l 0,0.5 -1.0625,0.063 c -0.90003,0.036 -1.548005,0.2198 -2,0.5625 -0.451997,0.3387 -0.687501,0.8448 -0.6875,1.5625 -10e-7,0.3669 0.02984,0.6985 0.125,0.9687 0.09516,0.2661 0.239724,0.479 0.40625,0.6563 0.170488,0.1735 0.363784,0.3172 0.59375,0.4062 0.229961,0.085 0.480386,0.125 0.75,0.125 0.25375,0 0.497182,-0.022 0.6875,-0.063 0.194275,-0.04 0.345366,-0.1025 0.5,-0.1875 0.154626,-0.085 0.306655,-0.1834 0.4375,-0.3125 0.130837,-0.133 0.275404,-0.2873 0.40625,-0.4687 l 0.03125,0 0.34375,0.9062 1.28125,0 0,-4.5 c -6e-6,-0.8065 -0.212189,-1.4174 -0.65625,-1.8125 -0.440107,-0.3951 -1.077594,-0.5937 -1.90625,-0.5937 z m 0.75,3.7812 0,0.5625 c 0,0.2177 -0.03428,0.3932 -0.09375,0.5625 -0.05948,0.1654 -0.142953,0.3205 -0.25,0.4375 -0.103091,0.1128 -0.201018,0.189 -0.34375,0.25 -0.14274,0.057 -0.302227,0.094 -0.46875,0.094 -0.218071,0 -0.396447,-0.071 -0.53125,-0.1875 -0.134809,-0.1209 -0.218752,-0.3116 -0.21875,-0.5938 -10e-6,-0.1613 0.05013,-0.3084 0.09375,-0.4375 0.04758,-0.133 0.11963,-0.2507 0.21875,-0.3437 0.103084,-0.097 0.239722,-0.1618 0.40625,-0.2188 0.166521,-0.057 0.351888,-0.084 0.59375,-0.094 l 0.59375,-0.031 z m -12.1875,4.25 0,1 3,0 0,-1 -3,0 z m 4,0 0,1 3,0 0,-1 -3,0 z m 4,0 0,1 3,0 0,-1 -3,0 z m 4,0 0,1 2,0 0,-1 -2,0 z"
       id="path4147"
       inkscape:connector-curvature="0" />
    <path
       inkscape:connector-curvature="0"
       id="path4145"
       d="m 6.8125,1035.3622 -2.8125,8.875 1.875,0 0.59375,-2.0937 3.0000001,0 0.5937499,2.0937 1.84375,0 -2.8125,-8.875 -2.28125,0 z m 1.15625,1.25 c 0.01982,0.1411 0.046168,0.2984 0.09375,0.5 0.047574,0.2017 0.104702,0.4234 0.15625,0.625 0.055504,0.1976 0.108668,0.366 0.15625,0.5313 0.047574,0.1653 0.069956,0.302 0.09375,0.375 l 0.5625,1.9062 -2.125,0 0.5625,-1.9062 c 0.011891,-0.044 0.00746,-0.1258 0.03125,-0.2188 0.027751,-0.093 0.062027,-0.1916 0.09375,-0.3125 0.031716,-0.1209 0.089312,-0.269 0.125,-0.4062 0.03568,-0.137 0.062027,-0.2732 0.09375,-0.4063 0.03568,-0.1371 0.069956,-0.254 0.09375,-0.375 0.027751,-0.1209 0.046636,-0.2235 0.0625,-0.3125 z m 7.46875,0.7188 c -0.44407,0 -0.876835,0.079 -1.28125,0.1875 -0.404419,0.1089 -0.760701,0.248 -1.09375,0.4375 l 0.5625,1.2187 c 0.273575,-0.1411 0.574136,-0.2587 0.84375,-0.3437 0.273574,-0.085 0.527025,-0.125 0.8125,-0.125 0.285468,0 0.528901,0.054 0.6875,0.1875 0.158594,0.1332 0.218745,0.3468 0.21875,0.625 l 0,0.5 -1.0625,0.063 c -0.90003,0.036 -1.548005,0.2198 -2,0.5625 -0.451997,0.3387 -0.687501,0.8448 -0.6875,1.5625 -10e-7,0.3669 0.02984,0.6985 0.125,0.9687 0.09516,0.2661 0.239724,0.479 0.40625,0.6563 0.170488,0.1735 0.363784,0.3172 0.59375,0.4062 0.229961,0.085 0.480386,0.125 0.75,0.125 0.25375,0 0.497182,-0.022 0.6875,-0.063 0.194275,-0.04 0.345366,-0.1025 0.5,-0.1875 0.154626,-0.085 0.306655,-0.1834 0.4375,-0.3125 0.130837,-0.133 0.275404,-0.2873 0.40625,-0.4687 l 0.03125,0 0.34375,0.9062 1.28125,0 0,-4.5 c -6e-6,-0.8065 -0.212189,-1.4174 -0.65625,-1.8125 -0.440107,-0.3951 -1.077594,-0.5937 -1.90625,-0.5937 z m 0.75,3.7812 0,0.5625 c 0,0.2177 -0.03428,0.3932 -0.09375,0.5625 -0.05948,0.1654 -0.142953,0.3205 -0.25,0.4375 -0.103091,0.1128 -0.201018,0.189 -0.34375,0.25 -0.14274,0.057 -0.302227,0.094 -0.46875,0.094 -0.218071,0 -0.396447,-0.071 -0.53125,-0.1875 -0.134809,-0.1209 -0.218752,-0.3116 -0.21875,-0.5938 -10e-6,-0.1613 0.05013,-0.3084 0.09375,-0.4375 0.04758,-0.133 0.11963,-0.2507 0.21875,-0.3437 0.103084,-0.097 0.239722,-0.1618 0.40625,-0.2188 0.166521,-0.057 0.351888,-0.084 0.59375,-0.094 l 0.59375,-0.031 z m -12.1875,4.25 0,1 3,0 0,-1 -3,0 z m 4,0 0,1 3,0 0,-1 -3,0 z m 4,0 0,1 3,0 0,-1 -3,0 z m 4,0 0,1 2,0 0,-1 -2,0 z"
       style="font-size:12.28317165px;font-style:normal;font-variant:normal;font-weight:bold;font-stretch:normal;line-height:125%;letter-spacing:0px;word-spacing:0px;opacity:0.15;fill:#000000;fill-opacity:1;stroke:#000000;stroke-linejoin:round;stroke-opacity:1;font-family:Droid Sans;-inkscape-font-specification:Droid Sans Bold" />
    <path
       style="font-size:12.28317165px;font-style:normal;font-variant:normal;font-weight:bold;font-stretch:normal;line-height:125%;letter-spacing:0px;word-spacing:0px;fill:#ffffff;fill-opacity:1;stroke:none;font-family:Droid Sans;-inkscape-font-specification:Droid Sans Bold"
       d="m 6.8125,1035.3622 -2.8125,8.875 1.875,0 0.59375,-2.0937 3.0000001,0 0.5937499,2.0937 1.84375,0 -2.8125,-8.875 -2.28125,0 z m 1.15625,1.25 c 0.01982,0.1411 0.046168,0.2984 0.09375,0.5 0.047574,0.2017 0.104702,0.4234 0.15625,0.625 0.055504,0.1976 0.108668,0.366 0.15625,0.5313 0.047574,0.1653 0.069956,0.302 0.09375,0.375 l 0.5625,1.9062 -2.125,0 0.5625,-1.9062 c 0.011891,-0.044 0.00746,-0.1258 0.03125,-0.2188 0.027751,-0.093 0.062027,-0.1916 0.09375,-0.3125 0.031716,-0.1209 0.089312,-0.269 0.125,-0.4062 0.03568,-0.137 0.062027,-0.2732 0.09375,-0.4063 0.03568,-0.1371 0.069956,-0.254 0.09375,-0.375 0.027751,-0.1209 0.046636,-0.2235 0.0625,-0.3125 z m 7.46875,0.7188 c -0.44407,0 -0.876835,0.079 -1.28125,0.1875 -0.404419,0.1089 -0.760701,0.248 -1.09375,0.4375 l 0.5625,1.2187 c 0.273575,-0.1411 0.574136,-0.2587 0.84375,-0.3437 0.273574,-0.085 0.527025,-0.125 0.8125,-0.125 0.285468,0 0.528901,0.054 0.6875,0.1875 0.158594,0.1332 0.218745,0.3468 0.21875,0.625 l 0,0.5 -1.0625,0.063 c -0.90003,0.036 -1.548005,0.2198 -2,0.5625 -0.451997,0.3387 -0.687501,0.8448 -0.6875,1.5625 -10e-7,0.3669 0.02984,0.6985 0.125,0.9687 0.09516,0.2661 0.239724,0.479 0.40625,0.6563 0.170488,0.1735 0.363784,0.3172 0.59375,0.4062 0.229961,0.085 0.480386,0.125 0.75,0.125 0.25375,0 0.497182,-0.022 0.6875,-0.063 0.194275,-0.04 0.345366,-0.1025 0.5,-0.1875 0.154626,-0.085 0.306655,-0.1834 0.4375,-0.3125 0.130837,-0.133 0.275404,-0.2873 0.40625,-0.4687 l 0.03125,0 0.34375,0.9062 1.28125,0 0,-4.5 c -6e-6,-0.8065 -0.212189,-1.4174 -0.65625,-1.8125 -0.440107,-0.3951 -1.077594,-0.5937 -1.90625,-0.5937 z m 0.75,3.7812 0,0.5625 c 0,0.2177 -0.03428,0.3932 -0.09375,0.5625 -0.05948,0.1654 -0.142953,0.3205 -0.25,0.4375 -0.103091,0.1128 -0.201018,0.189 -0.34375,0.25 -0.14274,0.057 -0.302227,0.094 -0.46875,0.094 -0.218071,0 -0.396447,-0.071 -0.53125,-0.1875 -0.134809,-0.1209 -0.218752,-0.3116 -0.21875,-0.5938 -10e-6,-0.1613 0.05013,-0.3084 0.09375,-0.4375 0.04758,-0.133 0.11963,-0.2507 0.21875,-0.3437 0.103084,-0.097 0.239722,-0.1618 0.40625,-0.2188 0.166521,-0.057 0.351888,-0.084 0.59375,-0.094 l 0.59375,-0.031 z m -12.1875,4.25 0,1 3,0 0,-1 -3,0 z m 4,0 0,1 3,0 0,-1 -3,0 z m 4,0 0,1 3,0 0,-1 -3,0 z m 4,0 0,1 2,0 0,-1 -2,0 z"
       id="path4128"
       inkscape:connector-curvature="0" />
  </g>
</svg>
