<?xml version="1.0" encoding="UTF-8" standalone="no"?>
<!-- Created with Inkscape (http://www.inkscape.org/) -->

<svg
   xmlns:dc="http://purl.org/dc/elements/1.1/"
   xmlns:cc="http://creativecommons.org/ns#"
   xmlns:rdf="http://www.w3.org/1999/02/22-rdf-syntax-ns#"
   xmlns:svg="http://www.w3.org/2000/svg"
   xmlns="http://www.w3.org/2000/svg"
   xmlns:xlink="http://www.w3.org/1999/xlink"
   xmlns:sodipodi="http://sodipodi.sourceforge.net/DTD/sodipodi-0.dtd"
   xmlns:inkscape="http://www.inkscape.org/namespaces/inkscape"
   width="22"
   height="22"
   id="svg3147"
   version="1.1"
   inkscape:version="0.48.3.1 r9886"
   sodipodi:docname="zoom-original.svg">
  <defs
     id="defs3149">
    <linearGradient
       id="linearGradient3779">
      <stop
         style="stop-color:#333333;stop-opacity:1;"
         offset="0"
         id="stop3781" />
      <stop
         style="stop-color:#969696;stop-opacity:1;"
         offset="1"
         id="stop3783" />
    </linearGradient>
    <linearGradient
       id="linearGradient3771">
      <stop
         style="stop-color:#c8c8c8;stop-opacity:1;"
         offset="0"
         id="stop3773" />
      <stop
         style="stop-color:#646464;stop-opacity:1;"
         offset="1"
         id="stop3775" />
    </linearGradient>
    <linearGradient
       id="linearGradient4536">
      <stop
         style="stop-color:#ffffff;stop-opacity:1;"
         offset="0"
         id="stop4538" />
      <stop
         id="stop4546"
         offset="0.06216056"
         style="stop-color:#ffffff;stop-opacity:0.15686275;" />
      <stop
         id="stop4544"
         offset="0.936414"
         style="stop-color:#ffffff;stop-opacity:0.23529412;" />
      <stop
         style="stop-color:#ffffff;stop-opacity:0.39215687;"
         offset="1"
         id="stop4540" />
    </linearGradient>
    <radialGradient
       inkscape:collect="always"
       xlink:href="#linearGradient3688-166-749"
       id="radialGradient3132"
       gradientUnits="userSpaceOnUse"
       gradientTransform="matrix(2.003784,0,0,1.4,27.98813,-17.4)"
       cx="4.9929786"
       cy="43.5"
       fx="4.9929786"
       fy="43.5"
       r="2.5" />
    <linearGradient
       id="linearGradient3688-166-749">
      <stop
         id="stop2883"
         style="stop-color:#181818;stop-opacity:1"
         offset="0" />
      <stop
         id="stop2885"
         style="stop-color:#181818;stop-opacity:0"
         offset="1" />
    </linearGradient>
    <radialGradient
       inkscape:collect="always"
       xlink:href="#linearGradient3688-464-309"
       id="radialGradient3134"
       gradientUnits="userSpaceOnUse"
       gradientTransform="matrix(2.003784,0,0,1.4,-20.01187,-104.4)"
       cx="4.9929786"
       cy="43.5"
       fx="4.9929786"
       fy="43.5"
       r="2.5" />
    <linearGradient
       id="linearGradient3688-464-309">
      <stop
         id="stop2889"
         style="stop-color:#181818;stop-opacity:1"
         offset="0" />
      <stop
         id="stop2891"
         style="stop-color:#181818;stop-opacity:0"
         offset="1" />
    </linearGradient>
    <linearGradient
       inkscape:collect="always"
       xlink:href="#linearGradient3702-501-757"
       id="linearGradient3136"
       gradientUnits="userSpaceOnUse"
       x1="25.058096"
       y1="47.027729"
       x2="25.058096"
       y2="39.999443" />
    <linearGradient
       id="linearGradient3702-501-757">
      <stop
         id="stop2895"
         style="stop-color:#181818;stop-opacity:0"
         offset="0" />
      <stop
         id="stop2897"
         style="stop-color:#181818;stop-opacity:1"
         offset="0.5" />
      <stop
         id="stop2899"
         style="stop-color:#181818;stop-opacity:0"
         offset="1" />
    </linearGradient>
    <linearGradient
       inkscape:collect="always"
       xlink:href="#linearGradient4536"
       id="linearGradient4542"
       x1="14.801802"
       y1="1010.4072"
       x2="14.801802"
       y2="1028.1376"
       gradientUnits="userSpaceOnUse"
       gradientTransform="translate(-3,21.999999)" />
  </defs>
  <sodipodi:namedview
     id="base"
     pagecolor="#ffffff"
     bordercolor="#666666"
     borderopacity="1.0"
     inkscape:pageopacity="0.0"
     inkscape:pageshadow="2"
     inkscape:zoom="13.875"
     inkscape:cx="0.42966193"
     inkscape:cy="8.8715983"
     inkscape:document-units="px"
     inkscape:current-layer="layer1"
     showgrid="false"
     inkscape:window-width="1280"
     inkscape:window-height="751"
     inkscape:window-x="0"
     inkscape:window-y="24"
     inkscape:window-maximized="1" />
  <metadata
     id="metadata3152">
    <rdf:RDF>
      <cc:Work
         rdf:about="">
        <dc:format>image/svg+xml</dc:format>
        <dc:type
           rdf:resource="http://purl.org/dc/dcmitype/StillImage" />
        <dc:title />
      </cc:Work>
    </rdf:RDF>
  </metadata>
  <g
     inkscape:label="Livello 1"
     inkscape:groupmode="layer"
     id="layer1"
     transform="translate(0,-1030.3622)">
    <rect
       style="fill:#505050;fill-opacity:1;stroke:#333333;stroke-opacity:1"
       id="rect3163"
       width="19"
       height="19"
       x="1.4999999"
       y="1031.8621"
       rx="1"
       ry="1" />
    <path
       sodipodi:nodetypes="sssccccccssssccsscccsssccccccc"
       inkscape:connector-curvature="0"
       id="path3932"
       d="m 10,1034.4559 c -3.3137086,0 -6,2.6862 -6,6 0,3.3137 2.6862914,6 6,6 0.91702,0 1.785212,-0.226 2.5625,-0.5938 l 2.96875,2.9688 c 0.391737,0.3917 1.014513,0.3917 1.40625,0 l 1.4375,-1.4063 c 0.391737,-0.3917 0.391737,-1.0458 0,-1.4375 l -2.96875,-2.9375 C 15.781621,1042.2659 16,1041.3828 16,1040.4559 c 0,-3.3138 -2.686291,-6 -6,-6 z m 0,2 c 2.209139,0 4,1.7908 4,4 0,0.3914 -0.08267,0.7674 -0.1875,1.125 -0.09627,0.3283 -0.236285,0.6502 -0.40625,0.9375 -0.08498,0.1436 -0.179767,0.2751 -0.28125,0.4062 -0.101483,0.1311 -0.195799,0.2578 -0.3125,0.375 -0.233402,0.2344 -0.49467,0.4239 -0.78125,0.5938 -0.150526,0.089 -0.306438,0.1813 -0.46875,0.25 -0.154661,0.066 -0.304,0.1094 -0.46875,0.1562 -0.346438,0.098 -0.715987,0.1563 -1.09375,0.1563 -2.209139,0 -4,-1.7909 -4,-4 0,-2.2092 1.790861,-4 4,-4 z m -1,0.9062 -2,2 2,0 0,4 2,0 0,-6 z"
       style="opacity:0.05;fill:#000000;fill-opacity:1;stroke:#000000;stroke-width:3;stroke-linejoin:round;stroke-miterlimit:4;stroke-opacity:1;stroke-dasharray:none" />
    <path
       style="opacity:0.09999994;fill:#000000;fill-opacity:1;stroke:#000000;stroke-width:2;stroke-linejoin:round;stroke-miterlimit:4;stroke-opacity:1;stroke-dasharray:none"
       d="m 10,1034.4559 c -3.3137086,0 -6,2.6862 -6,6 0,3.3137 2.6862914,6 6,6 0.91702,0 1.785212,-0.226 2.5625,-0.5938 l 2.96875,2.9688 c 0.391737,0.3917 1.014513,0.3917 1.40625,0 l 1.4375,-1.4063 c 0.391737,-0.3917 0.391737,-1.0458 0,-1.4375 l -2.96875,-2.9375 C 15.781621,1042.2659 16,1041.3828 16,1040.4559 c 0,-3.3138 -2.686291,-6 -6,-6 z m 0,2 c 2.209139,0 4,1.7908 4,4 0,0.3914 -0.08267,0.7674 -0.1875,1.125 -0.09627,0.3283 -0.236285,0.6502 -0.40625,0.9375 -0.08498,0.1436 -0.179767,0.2751 -0.28125,0.4062 -0.101483,0.1311 -0.195799,0.2578 -0.3125,0.375 -0.233402,0.2344 -0.49467,0.4239 -0.78125,0.5938 -0.150526,0.089 -0.306438,0.1813 -0.46875,0.25 -0.154661,0.066 -0.304,0.1094 -0.46875,0.1562 -0.346438,0.098 -0.715987,0.1563 -1.09375,0.1563 -2.209139,0 -4,-1.7909 -4,-4 0,-2.2092 1.790861,-4 4,-4 z m -1,0.9062 -2,2 2,0 0,4 2,0 0,-6 z"
       id="path3930"
       inkscape:connector-curvature="0"
       sodipodi:nodetypes="sssccccccssssccsscccsssccccccc" />
    <path
       sodipodi:nodetypes="sssccccccssssccsscccsssccccccc"
       inkscape:connector-curvature="0"
       id="path3928"
       d="m 10,1034.4559 c -3.3137086,0 -6,2.6862 -6,6 0,3.3137 2.6862914,6 6,6 0.91702,0 1.785212,-0.226 2.5625,-0.5938 l 2.96875,2.9688 c 0.391737,0.3917 1.014513,0.3917 1.40625,0 l 1.4375,-1.4063 c 0.391737,-0.3917 0.391737,-1.0458 0,-1.4375 l -2.96875,-2.9375 C 15.781621,1042.2659 16,1041.3828 16,1040.4559 c 0,-3.3138 -2.686291,-6 -6,-6 z m 0,2 c 2.209139,0 4,1.7908 4,4 0,0.3914 -0.08267,0.7674 -0.1875,1.125 -0.09627,0.3283 -0.236285,0.6502 -0.40625,0.9375 -0.08498,0.1436 -0.179767,0.2751 -0.28125,0.4062 -0.101483,0.1311 -0.195799,0.2578 -0.3125,0.375 -0.233402,0.2344 -0.49467,0.4239 -0.78125,0.5938 -0.150526,0.089 -0.306438,0.1813 -0.46875,0.25 -0.154661,0.066 -0.304,0.1094 -0.46875,0.1562 -0.346438,0.098 -0.715987,0.1563 -1.09375,0.1563 -2.209139,0 -4,-1.7909 -4,-4 0,-2.2092 1.790861,-4 4,-4 z m -1,0.9062 -2,2 2,0 0,4 2,0 0,-6 z"
       style="opacity:0.15;fill:#000000;fill-opacity:1;stroke:#000000;stroke-linejoin:round;stroke-opacity:1" />
    <path
       style="fill:#ffffff;fill-opacity:1;stroke:none"
       d="m 10,1034.4559 c -3.3137086,0 -6,2.6862 -6,6 0,3.3137 2.6862914,6 6,6 0.91702,0 1.785212,-0.226 2.5625,-0.5938 l 2.96875,2.9688 c 0.391737,0.3917 1.014513,0.3917 1.40625,0 l 1.4375,-1.4063 c 0.391737,-0.3917 0.391737,-1.0458 0,-1.4375 l -2.96875,-2.9375 C 15.781621,1042.2659 16,1041.3828 16,1040.4559 c 0,-3.3138 -2.686291,-6 -6,-6 z m 0,2 c 2.209139,0 4,1.7908 4,4 0,0.3914 -0.08267,0.7674 -0.1875,1.125 -0.09627,0.3283 -0.236285,0.6502 -0.40625,0.9375 -0.08498,0.1436 -0.179767,0.2751 -0.28125,0.4062 -0.101483,0.1311 -0.195799,0.2578 -0.3125,0.375 -0.233402,0.2344 -0.49467,0.4239 -0.78125,0.5938 -0.150526,0.089 -0.306438,0.1813 -0.46875,0.25 -0.154661,0.066 -0.304,0.1094 -0.46875,0.1562 -0.346438,0.098 -0.715987,0.1563 -1.09375,0.1563 -2.209139,0 -4,-1.7909 -4,-4 0,-2.2092 1.790861,-4 4,-4 z m -1,0.9062 -2,2 2,0 0,4 2,0 0,-6 z"
       id="path3011"
       inkscape:connector-curvature="0"
       sodipodi:nodetypes="sssccccccssssccsscccsssccccccc" />
  </g>
</svg>
