<?xml version="1.0" encoding="UTF-8" standalone="no"?>
<!-- Created with Inkscape (http://www.inkscape.org/) -->

<svg
   xmlns:dc="http://purl.org/dc/elements/1.1/"
   xmlns:cc="http://creativecommons.org/ns#"
   xmlns:rdf="http://www.w3.org/1999/02/22-rdf-syntax-ns#"
   xmlns:svg="http://www.w3.org/2000/svg"
   xmlns="http://www.w3.org/2000/svg"
   xmlns:xlink="http://www.w3.org/1999/xlink"
   xmlns:sodipodi="http://sodipodi.sourceforge.net/DTD/sodipodi-0.dtd"
   xmlns:inkscape="http://www.inkscape.org/namespaces/inkscape"
   width="16"
   height="16"
   id="svg3147"
   version="1.1"
   inkscape:version="0.48.3.1 r9886"
   sodipodi:docname="document-properties2.svg">
  <defs
     id="defs3149">
    <linearGradient
       id="linearGradient3779">
      <stop
         style="stop-color:#333333;stop-opacity:1;"
         offset="0"
         id="stop3781" />
      <stop
         style="stop-color:#969696;stop-opacity:1;"
         offset="1"
         id="stop3783" />
    </linearGradient>
    <linearGradient
       id="linearGradient3771">
      <stop
         style="stop-color:#c8c8c8;stop-opacity:1;"
         offset="0"
         id="stop3773" />
      <stop
         style="stop-color:#646464;stop-opacity:1;"
         offset="1"
         id="stop3775" />
    </linearGradient>
    <linearGradient
       id="linearGradient4536">
      <stop
         style="stop-color:#ffffff;stop-opacity:1;"
         offset="0"
         id="stop4538" />
      <stop
         id="stop4546"
         offset="0.06216056"
         style="stop-color:#ffffff;stop-opacity:0.15686275;" />
      <stop
         id="stop4544"
         offset="0.936414"
         style="stop-color:#ffffff;stop-opacity:0.23529412;" />
      <stop
         style="stop-color:#ffffff;stop-opacity:0.39215687;"
         offset="1"
         id="stop4540" />
    </linearGradient>
    <radialGradient
       inkscape:collect="always"
       xlink:href="#linearGradient3688-166-749"
       id="radialGradient3132"
       gradientUnits="userSpaceOnUse"
       gradientTransform="matrix(2.003784,0,0,1.4,27.98813,-17.4)"
       cx="4.9929786"
       cy="43.5"
       fx="4.9929786"
       fy="43.5"
       r="2.5" />
    <linearGradient
       id="linearGradient3688-166-749">
      <stop
         id="stop2883"
         style="stop-color:#181818;stop-opacity:1"
         offset="0" />
      <stop
         id="stop2885"
         style="stop-color:#181818;stop-opacity:0"
         offset="1" />
    </linearGradient>
    <radialGradient
       inkscape:collect="always"
       xlink:href="#linearGradient3688-464-309"
       id="radialGradient3134"
       gradientUnits="userSpaceOnUse"
       gradientTransform="matrix(2.003784,0,0,1.4,-20.01187,-104.4)"
       cx="4.9929786"
       cy="43.5"
       fx="4.9929786"
       fy="43.5"
       r="2.5" />
    <linearGradient
       id="linearGradient3688-464-309">
      <stop
         id="stop2889"
         style="stop-color:#181818;stop-opacity:1"
         offset="0" />
      <stop
         id="stop2891"
         style="stop-color:#181818;stop-opacity:0"
         offset="1" />
    </linearGradient>
    <linearGradient
       inkscape:collect="always"
       xlink:href="#linearGradient3702-501-757"
       id="linearGradient3136"
       gradientUnits="userSpaceOnUse"
       x1="25.058096"
       y1="47.027729"
       x2="25.058096"
       y2="39.999443" />
    <linearGradient
       id="linearGradient3702-501-757">
      <stop
         id="stop2895"
         style="stop-color:#181818;stop-opacity:0"
         offset="0" />
      <stop
         id="stop2897"
         style="stop-color:#181818;stop-opacity:1"
         offset="0.5" />
      <stop
         id="stop2899"
         style="stop-color:#181818;stop-opacity:0"
         offset="1" />
    </linearGradient>
    <linearGradient
       inkscape:collect="always"
       xlink:href="#linearGradient4536"
       id="linearGradient4542"
       x1="14.801802"
       y1="1010.4072"
       x2="14.801802"
       y2="1024.1722"
       gradientUnits="userSpaceOnUse"
       gradientTransform="translate(-4,27.000017)" />
    <radialGradient
       inkscape:collect="always"
       xlink:href="#linearGradient3771"
       id="radialGradient3777"
       cx="8.2162399"
       cy="1039.3171"
       fx="8.2162399"
       fy="1039.3171"
       r="8"
       gradientUnits="userSpaceOnUse"
       gradientTransform="matrix(3.0451418e-6,1.9369369,-1.4505624,2.2804915e-6,1515.8106,1023.4004)" />
    <linearGradient
       inkscape:collect="always"
       xlink:href="#linearGradient3779"
       id="linearGradient3785"
       x1="4.8288288"
       y1="1052.146"
       x2="4.8288288"
       y2="1036.2902"
       gradientUnits="userSpaceOnUse" />
  </defs>
  <sodipodi:namedview
     id="base"
     pagecolor="#ffffff"
     bordercolor="#666666"
     borderopacity="1.0"
     inkscape:pageopacity="0.0"
     inkscape:pageshadow="2"
     inkscape:zoom="8.671875"
     inkscape:cx="11.521439"
     inkscape:cy="3.4174795"
     inkscape:document-units="px"
     inkscape:current-layer="layer1"
     showgrid="false"
     inkscape:window-width="1280"
     inkscape:window-height="756"
     inkscape:window-x="0"
     inkscape:window-y="24"
     inkscape:window-maximized="1" />
  <metadata
     id="metadata3152">
    <rdf:RDF>
      <cc:Work
         rdf:about="">
        <dc:format>image/svg+xml</dc:format>
        <dc:type
           rdf:resource="http://purl.org/dc/dcmitype/StillImage" />
        <dc:title />
      </cc:Work>
    </rdf:RDF>
  </metadata>
  <g
     inkscape:label="Livello 1"
     inkscape:groupmode="layer"
     id="layer1"
     transform="translate(0,-1036.3622)">
    <rect
       style="fill:url(#radialGradient3777);fill-opacity:1;stroke:url(#linearGradient3785);stroke-opacity:1"
       id="rect3163"
       width="15"
       height="15"
       x="0.5"
       y="1036.8622"
       rx="1"
       ry="1" />
    <rect
       style="opacity:0.29999999999999999;fill:none;stroke:url(#linearGradient4542);stroke-opacity:1"
       id="rect4534"
       width="13"
       height="13"
       x="1.5"
       y="1037.8622"
       rx="0.1"
       ry="0.1" />
    <path
       id="path3958"
       transform="translate(0,1036.3622)"
       d="M 7.5 3 C 7.223 3 7 3.223 7 3.5 L 7 4.15625 C 6.6356891 4.2501999 6.2850814 4.3762371 5.96875 4.5625 L 5.53125 4.125 C 5.3353814 3.9291314 5.0083686 3.9291314 4.8125 4.125 L 4.125 4.8125 C 3.9291314 5.0083686 3.9291314 5.3353814 4.125 5.53125 L 4.5625 5.96875 C 4.3762371 6.2850814 4.2501999 6.6356891 4.15625 7 L 3.5 7 C 3.223 7 3 7.223 3 7.5 L 3 8.5 C 3 8.777 3.223 9 3.5 9 L 4.15625 9 C 4.2501999 9.3643109 4.3762371 9.7149186 4.5625 10.03125 L 4.125 10.46875 C 3.9291314 10.664619 3.9291314 10.991631 4.125 11.1875 L 4.8125 11.875 C 5.0083686 12.070869 5.3353814 12.070869 5.53125 11.875 L 5.96875 11.4375 C 6.2850814 11.623763 6.6356891 11.7498 7 11.84375 L 7 12.5 C 7 12.777 7.223 13 7.5 13 L 8.5 13 C 8.777 13 9 12.777 9 12.5 L 9 11.84375 C 9.3643109 11.7498 9.7149186 11.623763 10.03125 11.4375 L 10.46875 11.875 C 10.664619 12.070869 10.991631 12.070869 11.1875 11.875 L 11.875 11.1875 C 12.070869 10.991631 12.070869 10.664619 11.875 10.46875 L 11.4375 10.03125 C 11.623763 9.7149186 11.7498 9.3643109 11.84375 9 L 12.5 9 C 12.777 9 13 8.777 13 8.5 L 13 7.5 C 13 7.223 12.777 7 12.5 7 L 11.84375 7 C 11.7498 6.6356891 11.623763 6.2850814 11.4375 5.96875 L 11.875 5.53125 C 12.070869 5.3353814 12.070869 5.0083686 11.875 4.8125 L 11.1875 4.125 C 10.991631 3.9291314 10.664619 3.9291314 10.46875 4.125 L 10.03125 4.5625 C 9.7149186 4.3762371 9.3643109 4.2501999 9 4.15625 L 9 3.5 C 9 3.223 8.777 3 8.5 3 L 7.5 3 z M 8 6 C 9.1045695 6 10 6.8954305 10 8 C 10 9.1045695 9.1045695 10 8 10 C 6.8954305 10 6 9.1045695 6 8 C 6 6.8954305 6.8954305 6 8 6 z "
       style="fill:#000000;fill-opacity:1;stroke:#000000;opacity:0.05;stroke-opacity:1;stroke-width:3;stroke-miterlimit:4;stroke-dasharray:none" />
    <path
       style="fill:#000000;fill-opacity:1;stroke:#000000;opacity:0.09999995;stroke-opacity:1;stroke-width:2;stroke-miterlimit:4;stroke-dasharray:none"
       d="M 7.5 3 C 7.223 3 7 3.223 7 3.5 L 7 4.15625 C 6.6356891 4.2501999 6.2850814 4.3762371 5.96875 4.5625 L 5.53125 4.125 C 5.3353814 3.9291314 5.0083686 3.9291314 4.8125 4.125 L 4.125 4.8125 C 3.9291314 5.0083686 3.9291314 5.3353814 4.125 5.53125 L 4.5625 5.96875 C 4.3762371 6.2850814 4.2501999 6.6356891 4.15625 7 L 3.5 7 C 3.223 7 3 7.223 3 7.5 L 3 8.5 C 3 8.777 3.223 9 3.5 9 L 4.15625 9 C 4.2501999 9.3643109 4.3762371 9.7149186 4.5625 10.03125 L 4.125 10.46875 C 3.9291314 10.664619 3.9291314 10.991631 4.125 11.1875 L 4.8125 11.875 C 5.0083686 12.070869 5.3353814 12.070869 5.53125 11.875 L 5.96875 11.4375 C 6.2850814 11.623763 6.6356891 11.7498 7 11.84375 L 7 12.5 C 7 12.777 7.223 13 7.5 13 L 8.5 13 C 8.777 13 9 12.777 9 12.5 L 9 11.84375 C 9.3643109 11.7498 9.7149186 11.623763 10.03125 11.4375 L 10.46875 11.875 C 10.664619 12.070869 10.991631 12.070869 11.1875 11.875 L 11.875 11.1875 C 12.070869 10.991631 12.070869 10.664619 11.875 10.46875 L 11.4375 10.03125 C 11.623763 9.7149186 11.7498 9.3643109 11.84375 9 L 12.5 9 C 12.777 9 13 8.777 13 8.5 L 13 7.5 C 13 7.223 12.777 7 12.5 7 L 11.84375 7 C 11.7498 6.6356891 11.623763 6.2850814 11.4375 5.96875 L 11.875 5.53125 C 12.070869 5.3353814 12.070869 5.0083686 11.875 4.8125 L 11.1875 4.125 C 10.991631 3.9291314 10.664619 3.9291314 10.46875 4.125 L 10.03125 4.5625 C 9.7149186 4.3762371 9.3643109 4.2501999 9 4.15625 L 9 3.5 C 9 3.223 8.777 3 8.5 3 L 7.5 3 z M 8 6 C 9.1045695 6 10 6.8954305 10 8 C 10 9.1045695 9.1045695 10 8 10 C 6.8954305 10 6 9.1045695 6 8 C 6 6.8954305 6.8954305 6 8 6 z "
       transform="translate(0,1036.3622)"
       id="path3956" />
    <path
       id="path3954"
       transform="translate(0,1036.3622)"
       d="M 7.5 3 C 7.223 3 7 3.223 7 3.5 L 7 4.15625 C 6.6356891 4.2501999 6.2850814 4.3762371 5.96875 4.5625 L 5.53125 4.125 C 5.3353814 3.9291314 5.0083686 3.9291314 4.8125 4.125 L 4.125 4.8125 C 3.9291314 5.0083686 3.9291314 5.3353814 4.125 5.53125 L 4.5625 5.96875 C 4.3762371 6.2850814 4.2501999 6.6356891 4.15625 7 L 3.5 7 C 3.223 7 3 7.223 3 7.5 L 3 8.5 C 3 8.777 3.223 9 3.5 9 L 4.15625 9 C 4.2501999 9.3643109 4.3762371 9.7149186 4.5625 10.03125 L 4.125 10.46875 C 3.9291314 10.664619 3.9291314 10.991631 4.125 11.1875 L 4.8125 11.875 C 5.0083686 12.070869 5.3353814 12.070869 5.53125 11.875 L 5.96875 11.4375 C 6.2850814 11.623763 6.6356891 11.7498 7 11.84375 L 7 12.5 C 7 12.777 7.223 13 7.5 13 L 8.5 13 C 8.777 13 9 12.777 9 12.5 L 9 11.84375 C 9.3643109 11.7498 9.7149186 11.623763 10.03125 11.4375 L 10.46875 11.875 C 10.664619 12.070869 10.991631 12.070869 11.1875 11.875 L 11.875 11.1875 C 12.070869 10.991631 12.070869 10.664619 11.875 10.46875 L 11.4375 10.03125 C 11.623763 9.7149186 11.7498 9.3643109 11.84375 9 L 12.5 9 C 12.777 9 13 8.777 13 8.5 L 13 7.5 C 13 7.223 12.777 7 12.5 7 L 11.84375 7 C 11.7498 6.6356891 11.623763 6.2850814 11.4375 5.96875 L 11.875 5.53125 C 12.070869 5.3353814 12.070869 5.0083686 11.875 4.8125 L 11.1875 4.125 C 10.991631 3.9291314 10.664619 3.9291314 10.46875 4.125 L 10.03125 4.5625 C 9.7149186 4.3762371 9.3643109 4.2501999 9 4.15625 L 9 3.5 C 9 3.223 8.777 3 8.5 3 L 7.5 3 z M 8 6 C 9.1045695 6 10 6.8954305 10 8 C 10 9.1045695 9.1045695 10 8 10 C 6.8954305 10 6 9.1045695 6 8 C 6 6.8954305 6.8954305 6 8 6 z "
       style="fill:#000000;fill-opacity:1;stroke:#000000;opacity:0.15;stroke-opacity:1" />
    <path
       style="fill:#ffffff;fill-opacity:1;stroke:none;opacity:1"
       d="M 7.5 3 C 7.223 3 7 3.223 7 3.5 L 7 4.15625 C 6.6356891 4.2501999 6.2850814 4.3762371 5.96875 4.5625 L 5.53125 4.125 C 5.3353814 3.9291314 5.0083686 3.9291314 4.8125 4.125 L 4.125 4.8125 C 3.9291314 5.0083686 3.9291314 5.3353814 4.125 5.53125 L 4.5625 5.96875 C 4.3762371 6.2850814 4.2501999 6.6356891 4.15625 7 L 3.5 7 C 3.223 7 3 7.223 3 7.5 L 3 8.5 C 3 8.777 3.223 9 3.5 9 L 4.15625 9 C 4.2501999 9.3643109 4.3762371 9.7149186 4.5625 10.03125 L 4.125 10.46875 C 3.9291314 10.664619 3.9291314 10.991631 4.125 11.1875 L 4.8125 11.875 C 5.0083686 12.070869 5.3353814 12.070869 5.53125 11.875 L 5.96875 11.4375 C 6.2850814 11.623763 6.6356891 11.7498 7 11.84375 L 7 12.5 C 7 12.777 7.223 13 7.5 13 L 8.5 13 C 8.777 13 9 12.777 9 12.5 L 9 11.84375 C 9.3643109 11.7498 9.7149186 11.623763 10.03125 11.4375 L 10.46875 11.875 C 10.664619 12.070869 10.991631 12.070869 11.1875 11.875 L 11.875 11.1875 C 12.070869 10.991631 12.070869 10.664619 11.875 10.46875 L 11.4375 10.03125 C 11.623763 9.7149186 11.7498 9.3643109 11.84375 9 L 12.5 9 C 12.777 9 13 8.777 13 8.5 L 13 7.5 C 13 7.223 12.777 7 12.5 7 L 11.84375 7 C 11.7498 6.6356891 11.623763 6.2850814 11.4375 5.96875 L 11.875 5.53125 C 12.070869 5.3353814 12.070869 5.0083686 11.875 4.8125 L 11.1875 4.125 C 10.991631 3.9291314 10.664619 3.9291314 10.46875 4.125 L 10.03125 4.5625 C 9.7149186 4.3762371 9.3643109 4.2501999 9 4.15625 L 9 3.5 C 9 3.223 8.777 3 8.5 3 L 7.5 3 z M 8 6 C 9.1045695 6 10 6.8954305 10 8 C 10 9.1045695 9.1045695 10 8 10 C 6.8954305 10 6 9.1045695 6 8 C 6 6.8954305 6.8954305 6 8 6 z "
       transform="translate(0,1036.3622)"
       id="path3863" />
  </g>
</svg>
