<?xml version="1.0" encoding="UTF-8" standalone="no"?>
<!-- Created with Inkscape (http://www.inkscape.org/) -->

<svg
   xmlns:dc="http://purl.org/dc/elements/1.1/"
   xmlns:cc="http://creativecommons.org/ns#"
   xmlns:rdf="http://www.w3.org/1999/02/22-rdf-syntax-ns#"
   xmlns:svg="http://www.w3.org/2000/svg"
   xmlns="http://www.w3.org/2000/svg"
   xmlns:xlink="http://www.w3.org/1999/xlink"
   xmlns:sodipodi="http://sodipodi.sourceforge.net/DTD/sodipodi-0.dtd"
   xmlns:inkscape="http://www.inkscape.org/namespaces/inkscape"
   width="16"
   height="16"
   id="svg2"
   version="1.1"
   inkscape:version="0.48.3.1 r9886"
   sodipodi:docname="dejadup.svg">
  <defs
     id="defs4">
    <linearGradient
       inkscape:collect="always"
       id="linearGradient3782">
      <stop
         style="stop-color:#505050;stop-opacity:1;"
         offset="0"
         id="stop3784" />
      <stop
         style="stop-color:#505050;stop-opacity:0;"
         offset="1"
         id="stop3786" />
    </linearGradient>
    <linearGradient
       id="linearGradient3771">
      <stop
         style="stop-color:#ffffff;stop-opacity:0.39215687;"
         offset="0"
         id="stop3773" />
      <stop
         id="stop3781"
         offset="0.11755841"
         style="stop-color:#ffffff;stop-opacity:0.23529412;" />
      <stop
         id="stop3779"
         offset="0.86196613"
         style="stop-color:#ffffff;stop-opacity:0.15686275;" />
      <stop
         style="stop-color:#ffffff;stop-opacity:0.88235295;"
         offset="1"
         id="stop3775" />
    </linearGradient>
    <linearGradient
       id="linearGradient3751">
      <stop
         style="stop-color:#85e055;stop-opacity:1;"
         offset="0"
         id="stop3753" />
      <stop
         style="stop-color:#46a21e;stop-opacity:1;"
         offset="1"
         id="stop3755" />
    </linearGradient>
    <linearGradient
       inkscape:collect="always"
       xlink:href="#linearGradient3771"
       id="linearGradient3778"
       x1="8.3236055"
       y1="1037.4314"
       x2="8.3236055"
       y2="1046.356"
       gradientUnits="userSpaceOnUse" />
    <linearGradient
       inkscape:collect="always"
       xlink:href="#linearGradient3782"
       id="linearGradient3788"
       x1="3.34375"
       y1="1050.3622"
       x2="7"
       y2="1050.3622"
       gradientUnits="userSpaceOnUse" />
    <radialGradient
       inkscape:collect="always"
       xlink:href="#linearGradient3751"
       id="radialGradient3004"
       gradientUnits="userSpaceOnUse"
       gradientTransform="matrix(-4.2970017e-6,1.9174795,-1.7781121,-3.9846844e-6,1856.6183,1024.4309)"
       cx="8.3571329"
       cy="1039.4514"
       fx="8.3571329"
       fy="1039.4514"
       r="7" />
    <linearGradient
       inkscape:collect="always"
       xlink:href="#linearGradient3751"
       id="linearGradient3783"
       x1="8.3125"
       y1="1046.3733"
       x2="8.3125"
       y2="1036.2997"
       gradientUnits="userSpaceOnUse" />
  </defs>
  <sodipodi:namedview
     id="base"
     pagecolor="#ffffff"
     bordercolor="#666666"
     borderopacity="1.0"
     inkscape:pageopacity="0.0"
     inkscape:pageshadow="2"
     inkscape:zoom="22.627417"
     inkscape:cx="7.3867063"
     inkscape:cy="8.4434708"
     inkscape:document-units="px"
     inkscape:current-layer="layer1"
     showgrid="false"
     inkscape:window-width="1280"
     inkscape:window-height="756"
     inkscape:window-x="0"
     inkscape:window-y="24"
     inkscape:window-maximized="1" />
  <metadata
     id="metadata7">
    <rdf:RDF>
      <cc:Work
         rdf:about="">
        <dc:format>image/svg+xml</dc:format>
        <dc:type
           rdf:resource="http://purl.org/dc/dcmitype/StillImage" />
        <dc:title></dc:title>
      </cc:Work>
    </rdf:RDF>
  </metadata>
  <g
     inkscape:label="Livello 1"
     inkscape:groupmode="layer"
     id="layer1"
     transform="translate(0,-1036.3622)">
    <rect
       style="fill:#dcdcdc;fill-opacity:1;fill-rule:nonzero;stroke:#505050;stroke-opacity:1"
       id="rect2985"
       width="15"
       height="15"
       x="0.5"
       y="1036.8622"
       rx="1"
       ry="1" />
    <path
       sodipodi:nodetypes="sssssssss"
       inkscape:connector-curvature="0"
       id="path3002"
       d="m 1.5,1037.8622 13,0 c 0.554,0 1,0.446 1,1 l 0,8 c 0,0.554 -0.446,1 -1,1 l -13,0 c -0.554,0 -1,-0.446 -1,-1 l 0,-8 c 0,-0.554 0.446,-1 1,-1 z"
       style="fill:url(#radialGradient3004);fill-opacity:1;fill-rule:nonzero;stroke:#369600;stroke-opacity:1" />
    <path
       style="fill:url(#linearGradient3783);fill-opacity:1;fill-rule:nonzero;stroke:#369600;stroke-opacity:1"
       d="m 1.5,1036.8622 13,0 c 0.554,0 1,0.446 1,1 l 0,8 c 0,0.554 -0.446,1 -1,1 l -13,0 c -0.554,0 -1,-0.446 -1,-1 l 0,-8 c 0,-0.554 0.446,-1 1,-1 z"
       id="rect3846"
       inkscape:connector-curvature="0"
       sodipodi:nodetypes="sssssssss" />
    <path
       style="opacity:1;fill:#288200;fill-opacity:1;stroke:none"
       d="M 8 2 C 5.7908611 1.9999999 4.0000001 3.790861 4 6 L 3 6 L 5 9 L 7 6 L 6 6 C 6.0000001 4.8954305 6.8954305 3.9999999 8 4 C 9.1045695 4.0000001 10 4.8954305 10 6 C 9.9999999 7.1045695 9.1045695 8.0000001 8 8 C 7.7079526 8 7.4209349 7.9359246 7.15625 7.8125 L 6.3125 9.625 C 6.8418697 9.8718491 7.4159051 10 8 10 C 10.209139 10 12 8.209139 12 6 C 12 3.790861 10.209139 2.0000001 8 2 z "
       transform="translate(0,1036.3622)"
       id="path4131" />
    <path
       style="opacity:0.50000000000000000;fill:none;stroke:url(#linearGradient3778);stroke-opacity:1"
       d="m 1.5,1037.8622 13,0 0,8 -13,0 z"
       id="rect3769"
       inkscape:connector-curvature="0"
       sodipodi:nodetypes="ccccc" />
    <rect
       style="fill:#333333;fill-opacity:1;stroke:none"
       id="rect2995"
       width="1.0000008"
       height="2"
       x="2.000001"
       y="1049.3621" />
    <rect
       y="1049.3621"
       x="3.9999995"
       height="2"
       width="1.0000008"
       id="rect2997"
       style="fill:#333333;fill-opacity:1;stroke:none" />
    <rect
       style="fill:#333333;fill-opacity:1;stroke:none"
       id="rect3001"
       width="1.0000008"
       height="2"
       x="5.9999928"
       y="1049.3621" />
  </g>
</svg>
