<?xml version="1.0" encoding="UTF-8" standalone="no"?>
<!-- Created with Inkscape (http://www.inkscape.org/) -->

<svg
   xmlns:dc="http://purl.org/dc/elements/1.1/"
   xmlns:cc="http://creativecommons.org/ns#"
   xmlns:rdf="http://www.w3.org/1999/02/22-rdf-syntax-ns#"
   xmlns:svg="http://www.w3.org/2000/svg"
   xmlns="http://www.w3.org/2000/svg"
   xmlns:xlink="http://www.w3.org/1999/xlink"
   xmlns:sodipodi="http://sodipodi.sourceforge.net/DTD/sodipodi-0.dtd"
   xmlns:inkscape="http://www.inkscape.org/namespaces/inkscape"
   width="16"
   height="16"
   id="svg3147"
   version="1.1"
   inkscape:version="0.48.3.1 r9886"
   sodipodi:docname="evolution2.svg">
  <defs
     id="defs3149">
    <linearGradient
       id="linearGradient3907">
      <stop
         style="stop-color:#ffffff;stop-opacity:1;"
         offset="0"
         id="stop3909" />
      <stop
         style="stop-color:#ebebeb;stop-opacity:1;"
         offset="1"
         id="stop3911" />
    </linearGradient>
    <linearGradient
       id="linearGradient3781">
      <stop
         style="stop-color:#000000;stop-opacity:0.50980395;"
         offset="0"
         id="stop3784" />
      <stop
         style="stop-color:#000000;stop-opacity:0;"
         offset="1"
         id="stop3786" />
    </linearGradient>
    <linearGradient
       id="linearGradient3779">
      <stop
         style="stop-color:#1b40d8;stop-opacity:1;"
         offset="0"
         id="stop3781" />
      <stop
         style="stop-color:#4685de;stop-opacity:1;"
         offset="1"
         id="stop3783" />
    </linearGradient>
    <linearGradient
       id="linearGradient3771">
      <stop
         style="stop-color:#aee8e2;stop-opacity:1;"
         offset="0"
         id="stop3773" />
      <stop
         style="stop-color:#1b5bdc;stop-opacity:1;"
         offset="1"
         id="stop3775" />
    </linearGradient>
    <linearGradient
       id="linearGradient4536">
      <stop
         style="stop-color:#ffffff;stop-opacity:1;"
         offset="0"
         id="stop4538" />
      <stop
         id="stop4546"
         offset="0.06216056"
         style="stop-color:#ffffff;stop-opacity:0.15686275;" />
      <stop
         id="stop4544"
         offset="0.936414"
         style="stop-color:#ffffff;stop-opacity:0.23529412;" />
      <stop
         style="stop-color:#ffffff;stop-opacity:0.39215687;"
         offset="1"
         id="stop4540" />
    </linearGradient>
    <radialGradient
       inkscape:collect="always"
       xlink:href="#linearGradient3688-166-749"
       id="radialGradient3132"
       gradientUnits="userSpaceOnUse"
       gradientTransform="matrix(2.003784,0,0,1.4,27.98813,-17.4)"
       cx="4.9929786"
       cy="43.5"
       fx="4.9929786"
       fy="43.5"
       r="2.5" />
    <linearGradient
       id="linearGradient3688-166-749">
      <stop
         id="stop2883"
         style="stop-color:#181818;stop-opacity:1"
         offset="0" />
      <stop
         id="stop2885"
         style="stop-color:#181818;stop-opacity:0"
         offset="1" />
    </linearGradient>
    <radialGradient
       inkscape:collect="always"
       xlink:href="#linearGradient3688-464-309"
       id="radialGradient3134"
       gradientUnits="userSpaceOnUse"
       gradientTransform="matrix(2.003784,0,0,1.4,-20.01187,-104.4)"
       cx="4.9929786"
       cy="43.5"
       fx="4.9929786"
       fy="43.5"
       r="2.5" />
    <linearGradient
       id="linearGradient3688-464-309">
      <stop
         id="stop2889"
         style="stop-color:#181818;stop-opacity:1"
         offset="0" />
      <stop
         id="stop2891"
         style="stop-color:#181818;stop-opacity:0"
         offset="1" />
    </linearGradient>
    <linearGradient
       inkscape:collect="always"
       xlink:href="#linearGradient3702-501-757"
       id="linearGradient3136"
       gradientUnits="userSpaceOnUse"
       x1="25.058096"
       y1="47.027729"
       x2="25.058096"
       y2="39.999443" />
    <linearGradient
       id="linearGradient3702-501-757">
      <stop
         id="stop2895"
         style="stop-color:#181818;stop-opacity:0"
         offset="0" />
      <stop
         id="stop2897"
         style="stop-color:#181818;stop-opacity:1"
         offset="0.5" />
      <stop
         id="stop2899"
         style="stop-color:#181818;stop-opacity:0"
         offset="1" />
    </linearGradient>
    <linearGradient
       inkscape:collect="always"
       xlink:href="#linearGradient4536"
       id="linearGradient4542"
       x1="14.801802"
       y1="1010.4072"
       x2="14.801802"
       y2="1024.1722"
       gradientUnits="userSpaceOnUse"
       gradientTransform="translate(-4,27.000017)" />
    <radialGradient
       inkscape:collect="always"
       xlink:href="#linearGradient3771"
       id="radialGradient3777"
       cx="8.2162399"
       cy="1039.3171"
       fx="8.2162399"
       fy="1039.3171"
       r="8"
       gradientUnits="userSpaceOnUse"
       gradientTransform="matrix(3.0451418e-6,1.9369369,-1.4505624,2.2804915e-6,1515.8106,1023.4004)" />
    <linearGradient
       inkscape:collect="always"
       xlink:href="#linearGradient3779"
       id="linearGradient3785"
       x1="4.8288288"
       y1="1052.146"
       x2="4.8288288"
       y2="1036.2902"
       gradientUnits="userSpaceOnUse" />
    <radialGradient
       inkscape:collect="always"
       xlink:href="#linearGradient3771"
       id="radialGradient3796"
       cx="8.0000477"
       cy="1038.7789"
       fx="8.0000477"
       fy="1038.7789"
       r="5.5"
       gradientTransform="matrix(-9.3046608e-6,0.9194556,-1.7398594,-1.7606942e-5,1815.3295,1032.4037)"
       gradientUnits="userSpaceOnUse" />
    <radialGradient
       inkscape:collect="always"
       xlink:href="#linearGradient3907"
       id="radialGradient3913"
       cx="8.0255022"
       cy="1040.5762"
       fx="8.0255022"
       fy="1040.5762"
       r="4"
       gradientTransform="matrix(3.5327149e-6,1.4689272,-1.4061586,3.3817587e-6,1471.2406,1029.4803)"
       gradientUnits="userSpaceOnUse" />
  </defs>
  <sodipodi:namedview
     id="base"
     pagecolor="#ffffff"
     bordercolor="#666666"
     borderopacity="1.0"
     inkscape:pageopacity="0.0"
     inkscape:pageshadow="2"
     inkscape:zoom="17.125"
     inkscape:cx="6.2567736"
     inkscape:cy="5.406156"
     inkscape:document-units="px"
     inkscape:current-layer="layer1"
     showgrid="false"
     inkscape:window-width="1280"
     inkscape:window-height="749"
     inkscape:window-x="0"
     inkscape:window-y="24"
     inkscape:window-maximized="1" />
  <metadata
     id="metadata3152">
    <rdf:RDF>
      <cc:Work
         rdf:about="">
        <dc:format>image/svg+xml</dc:format>
        <dc:type
           rdf:resource="http://purl.org/dc/dcmitype/StillImage" />
        <dc:title></dc:title>
      </cc:Work>
    </rdf:RDF>
  </metadata>
  <g
     inkscape:label="Livello 1"
     inkscape:groupmode="layer"
     id="layer1"
     transform="translate(0,-1036.3622)">
    <rect
       style="fill:url(#radialGradient3777);fill-opacity:1;stroke:url(#linearGradient3785);stroke-opacity:1"
       id="rect3163"
       width="15"
       height="15"
       x="0.5"
       y="1036.8622"
       rx="1"
       ry="1" />
    <rect
       style="opacity:0.29999999999999999;fill:none;stroke:url(#linearGradient4542);stroke-opacity:1"
       id="rect4534"
       width="13"
       height="13"
       x="1.5"
       y="1037.8622"
       rx="0.1"
       ry="0.1" />
    <g
       transform="matrix(3.2590647,0,0,3.1310664,-18.072508,-2238.8916)"
       id="g3934"
       style="font-size:4px;font-style:normal;font-variant:normal;font-weight:bold;font-stretch:normal;line-height:125%;letter-spacing:0px;word-spacing:0px;fill:#ffffff;fill-opacity:1;stroke:none;font-family:Droid Sans;-inkscape-font-specification:Droid Sans Bold;opacity:0.3">
      <path
         style="fill:#ffffff;fill-opacity:1"
         inkscape:connector-curvature="0"
         id="path3936"
         d="m 9.5341797,1048.5927 c -3.3e-6,0.1237 -0.014977,0.246 -0.044922,0.3671 -0.028649,0.1211 -0.07292,0.2299 -0.1328125,0.3262 -0.059899,0.095 -0.1354196,0.1725 -0.2265625,0.2324 -0.089847,0.059 -0.1959662,0.088 -0.3183594,0.088 -0.049482,0 -0.096357,-0.01 -0.140625,-0.018 -0.042971,-0.013 -0.082685,-0.031 -0.1191406,-0.053 -0.036461,-0.023 -0.068362,-0.05 -0.095703,-0.08 -0.026044,-0.031 -0.046226,-0.065 -0.060547,-0.1015 l -0.029297,0 c -0.024742,0.033 -0.053387,0.064 -0.085938,0.096 -0.032554,0.03 -0.069012,0.057 -0.109375,0.08 -0.040366,0.023 -0.085288,0.042 -0.1347656,0.057 -0.048179,0.013 -0.1009131,0.019 -0.1582031,0.019 -0.1080744,0 -0.2044285,-0.018 -0.2890625,-0.055 -0.083335,-0.038 -0.153647,-0.091 -0.2109375,-0.1582 -0.057293,-0.069 -0.1009125,-0.151 -0.1308594,-0.2461 -0.029949,-0.096 -0.044923,-0.2024 -0.044922,-0.3183 -9e-7,-0.1341 0.020181,-0.2572 0.060547,-0.3692 0.040364,-0.1119 0.098306,-0.2083 0.1738281,-0.289 0.07552,-0.082 0.1673164,-0.1452 0.2753907,-0.1895 0.1080713,-0.045 0.229165,-0.068 0.3632812,-0.068 0.058592,0 0.1191387,0 0.1816406,0.01 0.062498,0.01 0.1223938,0.015 0.1796875,0.025 0.058592,0.01 0.113279,0.022 0.1640625,0.035 0.050779,0.013 0.094399,0.026 0.1308594,0.039 l -0.041016,0.8184 c -0.00261,0.029 -0.00391,0.057 -0.00391,0.084 -2.4e-6,0.027 -2.4e-6,0.045 0,0.053 -2.4e-6,0.055 0.0039,0.1 0.011719,0.1348 0.00911,0.035 0.02018,0.063 0.033203,0.084 0.01432,0.019 0.029945,0.033 0.046875,0.041 0.018227,0.01 0.037107,0.012 0.056641,0.012 0.04557,0 0.085284,-0.018 0.1191407,-0.053 0.033851,-0.035 0.061846,-0.083 0.083984,-0.1426 0.022133,-0.06 0.03906,-0.1296 0.050781,-0.209 0.011716,-0.081 0.017575,-0.166 0.017578,-0.2559 -2.8e-6,-0.1666 -0.024742,-0.3151 -0.074219,-0.4453 -0.049482,-0.1302 -0.1184923,-0.2402 -0.2070313,-0.33 -0.087242,-0.09 -0.1914086,-0.1582 -0.3125,-0.2051 -0.1210959,-0.047 -0.2526061,-0.07 -0.3945312,-0.07 -0.1992204,0 -0.3750015,0.033 -0.5273438,0.1 -0.1510428,0.066 -0.2779958,0.1595 -0.3808594,0.2793 -0.1015633,0.1185 -0.1790372,0.2591 -0.2324218,0.4218 -0.052084,0.1628 -0.078126,0.3412 -0.078125,0.5352 -7e-7,0.1797 0.022786,0.3392 0.068359,0.4785 0.045572,0.138 0.1132805,0.2546 0.203125,0.3496 0.089843,0.094 0.2005198,0.1654 0.3320313,0.2149 0.131509,0.048 0.2832016,0.072 0.4550781,0.072 0.072915,0 0.1477846,0 0.2246094,-0.014 0.076821,-0.01 0.1529927,-0.022 0.2285156,-0.037 0.076821,-0.016 0.1516904,-0.035 0.2246094,-0.057 0.074216,-0.022 0.1445287,-0.046 0.2109375,-0.072 l 0,0.375 c -0.1223983,0.055 -0.2584659,0.098 -0.4082031,0.129 -0.1484396,0.033 -0.3072936,0.049 -0.4765625,0.049 -0.2356786,0 -0.4466159,-0.034 -0.6328125,-0.1016 -0.1848967,-0.066 -0.3411466,-0.1627 -0.46875,-0.289 -0.1276047,-0.1263 -0.2252608,-0.2806 -0.2929688,-0.4629 -0.067709,-0.1836 -0.1015627,-0.3913 -0.1015625,-0.6231 -2e-7,-0.1614 0.017578,-0.3157 0.052734,-0.4629 0.035156,-0.1484 0.085937,-0.2858 0.1523437,-0.4121 0.066406,-0.1276 0.1471349,-0.2428 0.2421875,-0.3457 0.096354,-0.1041 0.2057284,-0.1927 0.328125,-0.2656 0.1223948,-0.074 0.2571603,-0.1309 0.4042969,-0.1699 0.1471339,-0.04 0.3046858,-0.061 0.4726563,-0.061 0.2057271,0 0.39518,0.033 0.5683593,0.1 0.1731745,0.065 0.3222629,0.1595 0.4472657,0.2832 0.1262991,0.1224 0.2246062,0.2715 0.2949218,0.4473 0.070309,0.1758 0.1054655,0.3737 0.1054688,0.5938 m -1.8789063,0.2441 c -1.4e-6,0.1458 0.024738,0.2513 0.074219,0.3164 0.049478,0.064 0.1152328,0.096 0.1972656,0.096 0.054686,0 0.1015608,-0.012 0.140625,-0.037 0.040363,-0.026 0.072915,-0.062 0.097656,-0.1074 0.02604,-0.047 0.045571,-0.1022 0.058594,-0.166 0.014321,-0.065 0.023435,-0.1374 0.027344,-0.2168 l 0.023438,-0.4317 c -0.026044,-0.01 -0.056643,-0.012 -0.091797,-0.016 -0.035158,0 -0.070965,-0.01 -0.1074219,-0.01 -0.076825,0 -0.1419287,0.016 -0.1953125,0.049 -0.053387,0.033 -0.097007,0.076 -0.1308594,0.1289 -0.032553,0.053 -0.056642,0.1146 -0.072266,0.1836 -0.014324,0.068 -0.021486,0.1367 -0.021484,0.207" />
    </g>
    <g
       style="font-size:4px;font-style:normal;font-variant:normal;font-weight:bold;font-stretch:normal;line-height:125%;letter-spacing:0px;word-spacing:0px;fill:#1454d2;fill-opacity:1;stroke:none;font-family:Droid Sans;-inkscape-font-specification:Droid Sans Bold"
       id="text3923"
       transform="matrix(3.2590647,0,0,3.1310664,-18.072508,-2239.3916)">
      <path
         d="m 9.5341797,1048.5927 c -3.3e-6,0.1237 -0.014977,0.246 -0.044922,0.3671 -0.028649,0.1211 -0.07292,0.2299 -0.1328125,0.3262 -0.059899,0.095 -0.1354196,0.1725 -0.2265625,0.2324 -0.089847,0.059 -0.1959662,0.088 -0.3183594,0.088 -0.049482,0 -0.096357,-0.01 -0.140625,-0.018 -0.042971,-0.013 -0.082685,-0.031 -0.1191406,-0.053 -0.036461,-0.023 -0.068362,-0.05 -0.095703,-0.08 -0.026044,-0.031 -0.046226,-0.065 -0.060547,-0.1015 l -0.029297,0 c -0.024742,0.033 -0.053387,0.064 -0.085938,0.096 -0.032554,0.03 -0.069012,0.057 -0.109375,0.08 -0.040366,0.023 -0.085288,0.042 -0.1347656,0.057 -0.048179,0.013 -0.1009131,0.019 -0.1582031,0.019 -0.1080744,0 -0.2044285,-0.018 -0.2890625,-0.055 -0.083335,-0.038 -0.153647,-0.091 -0.2109375,-0.1582 -0.057293,-0.069 -0.1009125,-0.151 -0.1308594,-0.2461 -0.029949,-0.096 -0.044923,-0.2024 -0.044922,-0.3183 -9e-7,-0.1341 0.020181,-0.2572 0.060547,-0.3692 0.040364,-0.1119 0.098306,-0.2083 0.1738281,-0.289 0.07552,-0.082 0.1673164,-0.1452 0.2753907,-0.1895 0.1080713,-0.045 0.229165,-0.068 0.3632812,-0.068 0.058592,0 0.1191387,0 0.1816406,0.01 0.062498,0.01 0.1223938,0.015 0.1796875,0.025 0.058592,0.01 0.113279,0.022 0.1640625,0.035 0.050779,0.013 0.094399,0.026 0.1308594,0.039 l -0.041016,0.8184 c -0.00261,0.029 -0.00391,0.057 -0.00391,0.084 -2.4e-6,0.027 -2.4e-6,0.045 0,0.053 -2.4e-6,0.055 0.0039,0.1 0.011719,0.1348 0.00911,0.035 0.02018,0.063 0.033203,0.084 0.01432,0.019 0.029945,0.033 0.046875,0.041 0.018227,0.01 0.037107,0.012 0.056641,0.012 0.04557,0 0.085284,-0.018 0.1191407,-0.053 0.033851,-0.035 0.061846,-0.083 0.083984,-0.1426 0.022133,-0.06 0.03906,-0.1296 0.050781,-0.209 0.011716,-0.081 0.017575,-0.166 0.017578,-0.2559 -2.8e-6,-0.1666 -0.024742,-0.3151 -0.074219,-0.4453 -0.049482,-0.1302 -0.1184923,-0.2402 -0.2070313,-0.33 -0.087242,-0.09 -0.1914086,-0.1582 -0.3125,-0.2051 -0.1210959,-0.047 -0.2526061,-0.07 -0.3945312,-0.07 -0.1992204,0 -0.3750015,0.033 -0.5273438,0.1 -0.1510428,0.066 -0.2779958,0.1595 -0.3808594,0.2793 -0.1015633,0.1185 -0.1790372,0.2591 -0.2324218,0.4218 -0.052084,0.1628 -0.078126,0.3412 -0.078125,0.5352 -7e-7,0.1797 0.022786,0.3392 0.068359,0.4785 0.045572,0.138 0.1132805,0.2546 0.203125,0.3496 0.089843,0.094 0.2005198,0.1654 0.3320313,0.2149 0.131509,0.048 0.2832016,0.072 0.4550781,0.072 0.072915,0 0.1477846,0 0.2246094,-0.014 0.076821,-0.01 0.1529927,-0.022 0.2285156,-0.037 0.076821,-0.016 0.1516904,-0.035 0.2246094,-0.057 0.074216,-0.022 0.1445287,-0.046 0.2109375,-0.072 l 0,0.375 c -0.1223983,0.055 -0.2584659,0.098 -0.4082031,0.129 -0.1484396,0.033 -0.3072936,0.049 -0.4765625,0.049 -0.2356786,0 -0.4466159,-0.034 -0.6328125,-0.1016 -0.1848967,-0.066 -0.3411466,-0.1627 -0.46875,-0.289 -0.1276047,-0.1263 -0.2252608,-0.2806 -0.2929688,-0.4629 -0.067709,-0.1836 -0.1015627,-0.3913 -0.1015625,-0.6231 -2e-7,-0.1614 0.017578,-0.3157 0.052734,-0.4629 0.035156,-0.1484 0.085937,-0.2858 0.1523437,-0.4121 0.066406,-0.1276 0.1471349,-0.2428 0.2421875,-0.3457 0.096354,-0.1041 0.2057284,-0.1927 0.328125,-0.2656 0.1223948,-0.074 0.2571603,-0.1309 0.4042969,-0.1699 0.1471339,-0.04 0.3046858,-0.061 0.4726563,-0.061 0.2057271,0 0.39518,0.033 0.5683593,0.1 0.1731745,0.065 0.3222629,0.1595 0.4472657,0.2832 0.1262991,0.1224 0.2246062,0.2715 0.2949218,0.4473 0.070309,0.1758 0.1054655,0.3737 0.1054688,0.5938 m -1.8789063,0.2441 c -1.4e-6,0.1458 0.024738,0.2513 0.074219,0.3164 0.049478,0.064 0.1152328,0.096 0.1972656,0.096 0.054686,0 0.1015608,-0.012 0.140625,-0.037 0.040363,-0.026 0.072915,-0.062 0.097656,-0.1074 0.02604,-0.047 0.045571,-0.1022 0.058594,-0.166 0.014321,-0.065 0.023435,-0.1374 0.027344,-0.2168 l 0.023438,-0.4317 c -0.026044,-0.01 -0.056643,-0.012 -0.091797,-0.016 -0.035158,0 -0.070965,-0.01 -0.1074219,-0.01 -0.076825,0 -0.1419287,0.016 -0.1953125,0.049 -0.053387,0.033 -0.097007,0.076 -0.1308594,0.1289 -0.032553,0.053 -0.056642,0.1146 -0.072266,0.1836 -0.014324,0.068 -0.021486,0.1367 -0.021484,0.207"
         id="path3928"
         inkscape:connector-curvature="0"
         style="fill:#1454d2;fill-opacity:1" />
    </g>
  </g>
</svg>
