<?xml version="1.0" encoding="UTF-8" standalone="no"?>
<!-- Created with Inkscape (http://www.inkscape.org/) -->

<svg
   xmlns:dc="http://purl.org/dc/elements/1.1/"
   xmlns:cc="http://creativecommons.org/ns#"
   xmlns:rdf="http://www.w3.org/1999/02/22-rdf-syntax-ns#"
   xmlns:svg="http://www.w3.org/2000/svg"
   xmlns="http://www.w3.org/2000/svg"
   xmlns:xlink="http://www.w3.org/1999/xlink"
   xmlns:sodipodi="http://sodipodi.sourceforge.net/DTD/sodipodi-0.dtd"
   xmlns:inkscape="http://www.inkscape.org/namespaces/inkscape"
   width="16px"
   height="16px"
   id="svg3006"
   version="1.1"
   inkscape:version="0.48.3.1 r9886"
   sodipodi:docname="preferences-system-network.svg">
  <defs
     id="defs3008">
    <linearGradient
       id="linearGradient3849">
      <stop
         style="stop-color:#ebebeb;stop-opacity:1;"
         offset="0"
         id="stop3851" />
      <stop
         style="stop-color:#969696;stop-opacity:1;"
         offset="1"
         id="stop3853" />
    </linearGradient>
    <linearGradient
       id="linearGradient3879">
      <stop
         style="stop-color:#ffffff;stop-opacity:1;"
         offset="0"
         id="stop3881" />
      <stop
         id="stop3883"
         offset="0.07561938"
         style="stop-color:#ffffff;stop-opacity:0.15686275;" />
      <stop
         id="stop3885"
         offset="0.92860591"
         style="stop-color:#ffffff;stop-opacity:0.23529412;" />
      <stop
         style="stop-color:#ffffff;stop-opacity:0.39215687;"
         offset="1"
         id="stop3887" />
    </linearGradient>
    <linearGradient
       id="linearGradient3824">
      <stop
         style="stop-color:#ffffff;stop-opacity:1;"
         offset="0"
         id="stop3826" />
      <stop
         id="stop3828"
         offset="0.08522348"
         style="stop-color:#ffffff;stop-opacity:0.15686275;" />
      <stop
         id="stop3830"
         offset="0.94174129"
         style="stop-color:#ffffff;stop-opacity:0.23529412;" />
      <stop
         style="stop-color:#ffffff;stop-opacity:0.39215687;"
         offset="1"
         id="stop3832" />
    </linearGradient>
    <linearGradient
       id="linearGradient3784">
      <stop
         style="stop-color:#f0f0f0;stop-opacity:1;"
         offset="0"
         id="stop3786" />
      <stop
         style="stop-color:#c8c8c8;stop-opacity:1;"
         offset="1"
         id="stop3788" />
    </linearGradient>
    <linearGradient
       inkscape:collect="always"
       xlink:href="#linearGradient3784"
       id="linearGradient3790"
       x1="6.3069305"
       y1="14.39703"
       x2="14.288118"
       y2="-10.470297"
       gradientUnits="userSpaceOnUse" />
    <linearGradient
       inkscape:collect="always"
       xlink:href="#linearGradient3802"
       id="linearGradient3078"
       gradientUnits="userSpaceOnUse"
       gradientTransform="translate(0,-0.46966988)"
       x1="47.689686"
       y1="1021.3334"
       x2="47.689686"
       y2="1008.6888" />
    <linearGradient
       id="linearGradient3802">
      <stop
         id="stop3804"
         offset="0"
         style="stop-color:#ffffff;stop-opacity:1;" />
      <stop
         style="stop-color:#ffffff;stop-opacity:0.15686275;"
         offset="0.25"
         id="stop3822" />
      <stop
         style="stop-color:#ffffff;stop-opacity:0.23529412;"
         offset="0.5"
         id="stop3820" />
      <stop
         id="stop3806"
         offset="1"
         style="stop-color:#ffffff;stop-opacity:0.39215687;" />
    </linearGradient>
    <linearGradient
       inkscape:collect="always"
       xlink:href="#linearGradient3813"
       id="linearGradient3080"
       gradientUnits="userSpaceOnUse"
       gradientTransform="translate(0,-1)"
       x1="47.689686"
       y1="1021.3334"
       x2="47.689686"
       y2="1008.6888" />
    <linearGradient
       id="linearGradient3813">
      <stop
         style="stop-color:#505050;stop-opacity:1;"
         offset="0"
         id="stop3815" />
      <stop
         style="stop-color:#000000;stop-opacity:1;"
         offset="1"
         id="stop3817" />
    </linearGradient>
    <linearGradient
       inkscape:collect="always"
       xlink:href="#linearGradient3845"
       id="linearGradient3082"
       gradientUnits="userSpaceOnUse"
       gradientTransform="translate(-8.6515962,0)"
       x1="52.182858"
       y1="1021.0726"
       x2="52.182858"
       y2="1016.4764" />
    <linearGradient
       id="linearGradient3845">
      <stop
         style="stop-color:#ffff00;stop-opacity:1;"
         offset="0"
         id="stop3847" />
      <stop
         style="stop-color:#ffff31;stop-opacity:0;"
         offset="1"
         id="stop3849" />
    </linearGradient>
    <linearGradient
       inkscape:collect="always"
       xlink:href="#linearGradient3845"
       id="linearGradient3084"
       gradientUnits="userSpaceOnUse"
       gradientTransform="translate(-5.7677308,0)"
       x1="52.182858"
       y1="1021.0726"
       x2="52.182858"
       y2="1016.4764" />
    <linearGradient
       id="linearGradient3085">
      <stop
         style="stop-color:#ffff3b;stop-opacity:1;"
         offset="0"
         id="stop3087" />
      <stop
         style="stop-color:#ffff31;stop-opacity:0;"
         offset="1"
         id="stop3089" />
    </linearGradient>
    <linearGradient
       inkscape:collect="always"
       xlink:href="#linearGradient3845"
       id="linearGradient3086"
       gradientUnits="userSpaceOnUse"
       gradientTransform="translate(-2.8838654,0)"
       x1="52.182858"
       y1="1021.0726"
       x2="52.182858"
       y2="1016.4764" />
    <linearGradient
       id="linearGradient3092">
      <stop
         style="stop-color:#ffff3b;stop-opacity:1;"
         offset="0"
         id="stop3094" />
      <stop
         style="stop-color:#ffff31;stop-opacity:0;"
         offset="1"
         id="stop3096" />
    </linearGradient>
    <linearGradient
       inkscape:collect="always"
       xlink:href="#linearGradient3845"
       id="linearGradient3088"
       gradientUnits="userSpaceOnUse"
       x1="52.182858"
       y1="1021.0726"
       x2="52.182858"
       y2="1016.4764" />
    <linearGradient
       id="linearGradient3099">
      <stop
         style="stop-color:#ffff3b;stop-opacity:1;"
         offset="0"
         id="stop3101" />
      <stop
         style="stop-color:#ffff31;stop-opacity:0;"
         offset="1"
         id="stop3103" />
    </linearGradient>
    <linearGradient
       inkscape:collect="always"
       xlink:href="#linearGradient3813"
       id="linearGradient3889"
       gradientUnits="userSpaceOnUse"
       gradientTransform="matrix(0.55164372,0,0,0.57019742,-18.479097,-570.93459)"
       x1="47.689686"
       y1="1021.3334"
       x2="47.689686"
       y2="1008.6888" />
    <linearGradient
       inkscape:collect="always"
       xlink:href="#linearGradient3802"
       id="linearGradient3892"
       gradientUnits="userSpaceOnUse"
       gradientTransform="matrix(0.55164372,0,0,0.57019742,-18.479097,-570.63219)"
       x1="47.689686"
       y1="1021.3334"
       x2="47.689686"
       y2="1008.6888" />
    <linearGradient
       inkscape:collect="always"
       xlink:href="#linearGradient3845"
       id="linearGradient3894"
       gradientUnits="userSpaceOnUse"
       gradientTransform="translate(-8.6515962,0)"
       x1="52.182858"
       y1="1021.0726"
       x2="52.182858"
       y2="1016.4764" />
    <linearGradient
       inkscape:collect="always"
       xlink:href="#linearGradient3845"
       id="linearGradient3896"
       gradientUnits="userSpaceOnUse"
       gradientTransform="translate(-5.7677308,0)"
       x1="52.182858"
       y1="1021.0726"
       x2="52.182858"
       y2="1016.4764" />
    <linearGradient
       inkscape:collect="always"
       xlink:href="#linearGradient3845"
       id="linearGradient3898"
       gradientUnits="userSpaceOnUse"
       gradientTransform="translate(-2.8838654,0)"
       x1="52.182858"
       y1="1021.0726"
       x2="52.182858"
       y2="1016.4764" />
    <linearGradient
       inkscape:collect="always"
       xlink:href="#linearGradient3845"
       id="linearGradient3900"
       gradientUnits="userSpaceOnUse"
       x1="52.182858"
       y1="1021.0726"
       x2="52.182858"
       y2="1016.4764" />
    <linearGradient
       inkscape:collect="always"
       xlink:href="#linearGradient3845"
       id="linearGradient3903"
       gradientUnits="userSpaceOnUse"
       x1="52.182858"
       y1="1021.0726"
       x2="52.182858"
       y2="1016.4764"
       gradientTransform="matrix(0.55164372,0,0,0.57019742,-18.339099,-570.93458)" />
    <linearGradient
       inkscape:collect="always"
       xlink:href="#linearGradient3845"
       id="linearGradient3906"
       gradientUnits="userSpaceOnUse"
       gradientTransform="matrix(0.55164372,0,0,0.57019742,-19.929965,-570.93458)"
       x1="52.182858"
       y1="1021.0726"
       x2="52.182858"
       y2="1016.4764" />
    <linearGradient
       inkscape:collect="always"
       xlink:href="#linearGradient3845"
       id="linearGradient3909"
       gradientUnits="userSpaceOnUse"
       gradientTransform="matrix(0.55164372,0,0,0.57019742,-21.520831,-570.93458)"
       x1="52.182858"
       y1="1021.0726"
       x2="52.182858"
       y2="1016.4764" />
    <linearGradient
       inkscape:collect="always"
       xlink:href="#linearGradient3845"
       id="linearGradient3912"
       gradientUnits="userSpaceOnUse"
       gradientTransform="matrix(0.55164372,0,0,0.57019742,-23.111698,-570.93458)"
       x1="52.182858"
       y1="1021.0726"
       x2="52.182858"
       y2="1016.4764" />
    <linearGradient
       inkscape:collect="always"
       xlink:href="#linearGradient3813"
       id="linearGradient3831"
       x1="-8.5241747"
       y1="12.144027"
       x2="-8.5241747"
       y2="3.5271206"
       gradientUnits="userSpaceOnUse" />
    <linearGradient
       inkscape:collect="always"
       xlink:href="#linearGradient3845"
       id="linearGradient3846"
       x1="-6.0928059"
       y1="11.036874"
       x2="-6.0928059"
       y2="7.8469143"
       gradientUnits="userSpaceOnUse" />
    <linearGradient
       inkscape:collect="always"
       xlink:href="#linearGradient3845"
       id="linearGradient3850"
       gradientUnits="userSpaceOnUse"
       x1="-6.0928059"
       y1="11.036874"
       x2="-6.0928059"
       y2="7.8469143"
       gradientTransform="translate(-2.549921,0)" />
    <linearGradient
       inkscape:collect="always"
       xlink:href="#linearGradient3845"
       id="linearGradient3854"
       gradientUnits="userSpaceOnUse"
       gradientTransform="translate(-5.0999994,0)"
       x1="-6.0928059"
       y1="11.036874"
       x2="-6.0928059"
       y2="7.8469143" />
    <linearGradient
       inkscape:collect="always"
       xlink:href="#linearGradient3813"
       id="linearGradient3862"
       gradientUnits="userSpaceOnUse"
       x1="-8.5241747"
       y1="12.144027"
       x2="-8.5241747"
       y2="3.5271206" />
    <linearGradient
       inkscape:collect="always"
       xlink:href="#linearGradient3845"
       id="linearGradient3864"
       gradientUnits="userSpaceOnUse"
       gradientTransform="translate(-5.0999994,0)"
       x1="-6.0928059"
       y1="11.036874"
       x2="-6.0928059"
       y2="7.8469143" />
    <linearGradient
       inkscape:collect="always"
       xlink:href="#linearGradient3845"
       id="linearGradient3866"
       gradientUnits="userSpaceOnUse"
       x1="-6.0928059"
       y1="11.036874"
       x2="-6.0928059"
       y2="7.8469143" />
    <linearGradient
       inkscape:collect="always"
       xlink:href="#linearGradient3845"
       id="linearGradient3868"
       gradientUnits="userSpaceOnUse"
       gradientTransform="translate(-2.549921,0)"
       x1="-6.0928059"
       y1="11.036874"
       x2="-6.0928059"
       y2="7.8469143" />
    <linearGradient
       inkscape:collect="always"
       xlink:href="#linearGradient3813"
       id="linearGradient3880"
       gradientUnits="userSpaceOnUse"
       x1="-8.5241747"
       y1="12.144027"
       x2="-8.5241747"
       y2="3.5271206" />
    <linearGradient
       inkscape:collect="always"
       xlink:href="#linearGradient3845"
       id="linearGradient3882"
       gradientUnits="userSpaceOnUse"
       gradientTransform="translate(-5.0999994,0)"
       x1="-6.0928059"
       y1="11.036874"
       x2="-6.0928059"
       y2="7.8469143" />
    <linearGradient
       inkscape:collect="always"
       xlink:href="#linearGradient3845"
       id="linearGradient3884"
       gradientUnits="userSpaceOnUse"
       x1="-6.0928059"
       y1="11.036874"
       x2="-6.0928059"
       y2="7.8469143" />
    <linearGradient
       inkscape:collect="always"
       xlink:href="#linearGradient3845"
       id="linearGradient3886"
       gradientUnits="userSpaceOnUse"
       gradientTransform="translate(-2.549921,0)"
       x1="-6.0928059"
       y1="11.036874"
       x2="-6.0928059"
       y2="7.8469143" />
    <linearGradient
       inkscape:collect="always"
       xlink:href="#linearGradient3845"
       id="linearGradient3890"
       gradientUnits="userSpaceOnUse"
       gradientTransform="translate(14.142,0.45296)"
       x1="-6.0928059"
       y1="11.036874"
       x2="-6.0928059"
       y2="7.8469143" />
    <linearGradient
       inkscape:collect="always"
       xlink:href="#linearGradient3845"
       id="linearGradient3893"
       gradientUnits="userSpaceOnUse"
       x1="-6.0928059"
       y1="11.036874"
       x2="-6.0928059"
       y2="7.8469143"
       gradientTransform="translate(16.691921,0.45296)" />
    <linearGradient
       inkscape:collect="always"
       xlink:href="#linearGradient3845"
       id="linearGradient3897"
       gradientUnits="userSpaceOnUse"
       gradientTransform="translate(11.591922,0.45296)"
       x1="-6.0928059"
       y1="11.036874"
       x2="-6.0928059"
       y2="7.8469143" />
    <linearGradient
       inkscape:collect="always"
       xlink:href="#linearGradient3824"
       id="linearGradient3818"
       x1="7.5321784"
       y1="2.0128713"
       x2="7.5321784"
       y2="14.862558"
       gradientUnits="userSpaceOnUse" />
    <radialGradient
       inkscape:collect="always"
       xlink:href="#linearGradient3784"
       id="radialGradient3834"
       cx="7.7252474"
       cy="4.1752477"
       fx="7.7252474"
       fy="4.1752477"
       r="7.5"
       gradientUnits="userSpaceOnUse"
       gradientTransform="matrix(5.8485558e-8,1.7960372,-1.5285927,4.9776584e-8,14.1075,-9.6995844)" />
    <radialGradient
       inkscape:collect="always"
       xlink:href="#linearGradient3784"
       id="radialGradient3846"
       gradientUnits="userSpaceOnUse"
       gradientTransform="matrix(5.8485558e-8,1.7960372,-1.5285927,4.9776584e-8,14.1075,-9.6995844)"
       cx="7.7252474"
       cy="4.1752477"
       fx="7.7252474"
       fy="4.1752477"
       r="7.5" />
    <linearGradient
       inkscape:collect="always"
       xlink:href="#linearGradient3813"
       id="linearGradient3848"
       gradientUnits="userSpaceOnUse"
       x1="-8.5241747"
       y1="12.144027"
       x2="-8.5241747"
       y2="3.5271206" />
    <linearGradient
       inkscape:collect="always"
       xlink:href="#linearGradient3845"
       id="linearGradient3851"
       gradientUnits="userSpaceOnUse"
       gradientTransform="translate(-5.0999994,0)"
       x1="-6.0928059"
       y1="11.036874"
       x2="-6.0928059"
       y2="7.8469143" />
    <linearGradient
       inkscape:collect="always"
       xlink:href="#linearGradient3845"
       id="linearGradient3853"
       gradientUnits="userSpaceOnUse"
       x1="-6.0928059"
       y1="11.036874"
       x2="-6.0928059"
       y2="7.8469143" />
    <linearGradient
       inkscape:collect="always"
       xlink:href="#linearGradient3845"
       id="linearGradient3855"
       gradientUnits="userSpaceOnUse"
       gradientTransform="translate(-2.549921,0)"
       x1="-6.0928059"
       y1="11.036874"
       x2="-6.0928059"
       y2="7.8469143" />
    <linearGradient
       inkscape:collect="always"
       xlink:href="#linearGradient3824"
       id="linearGradient3857"
       gradientUnits="userSpaceOnUse"
       x1="7.5321784"
       y1="2.0128713"
       x2="7.5321784"
       y2="14.862558" />
    <linearGradient
       inkscape:collect="always"
       xlink:href="#linearGradient3845"
       id="linearGradient3891"
       gradientUnits="userSpaceOnUse"
       gradientTransform="translate(14.142,-0.03004)"
       x1="-6.0928059"
       y1="11.036874"
       x2="-6.0928059"
       y2="7.8469143" />
    <linearGradient
       inkscape:collect="always"
       xlink:href="#linearGradient3845"
       id="linearGradient3895"
       gradientUnits="userSpaceOnUse"
       x1="-6.0928059"
       y1="11.036874"
       x2="-6.0928059"
       y2="7.8469143"
       gradientTransform="translate(16.691921,-0.03004)" />
    <linearGradient
       inkscape:collect="always"
       xlink:href="#linearGradient3845"
       id="linearGradient3899"
       gradientUnits="userSpaceOnUse"
       gradientTransform="translate(11.591922,-0.03004)"
       x1="-6.0928059"
       y1="11.036874"
       x2="-6.0928059"
       y2="7.8469143" />
    <linearGradient
       inkscape:collect="always"
       xlink:href="#linearGradient3813"
       id="linearGradient3902"
       gradientUnits="userSpaceOnUse"
       x1="-8.5241747"
       y1="12.144027"
       x2="-8.5241747"
       y2="3.5271206"
       gradientTransform="translate(16.691921,-0.03004)" />
    <linearGradient
       inkscape:collect="always"
       xlink:href="#linearGradient3099"
       id="linearGradient3919"
       x1="5.0945544"
       y1="10.990545"
       x2="5.0945544"
       y2="8.5990086"
       gradientUnits="userSpaceOnUse"
       gradientTransform="translate(0.5,0)" />
    <linearGradient
       inkscape:collect="always"
       xlink:href="#linearGradient3099"
       id="linearGradient3923"
       gradientUnits="userSpaceOnUse"
       x1="5.0945544"
       y1="10.990545"
       x2="5.0945544"
       y2="8.5990086"
       gradientTransform="translate(2,9.5367432e-7)" />
    <linearGradient
       inkscape:collect="always"
       xlink:href="#linearGradient3099"
       id="linearGradient3927"
       gradientUnits="userSpaceOnUse"
       gradientTransform="translate(4,9.5367432e-7)"
       x1="5.0945544"
       y1="10.990545"
       x2="5.0945544"
       y2="8.5990086" />
    <linearGradient
       inkscape:collect="always"
       xlink:href="#linearGradient3099"
       id="linearGradient3937"
       gradientUnits="userSpaceOnUse"
       gradientTransform="translate(4.5,9.5367432e-7)"
       x1="5.0945544"
       y1="10.990545"
       x2="5.0945544"
       y2="8.5990086" />
    <linearGradient
       inkscape:collect="always"
       xlink:href="#linearGradient3099"
       id="linearGradient3939"
       gradientUnits="userSpaceOnUse"
       gradientTransform="translate(1.5,9.5367432e-7)"
       x1="5.0945544"
       y1="10.990545"
       x2="5.0945544"
       y2="8.5990086" />
    <linearGradient
       inkscape:collect="always"
       xlink:href="#linearGradient3099"
       id="linearGradient3945"
       gradientUnits="userSpaceOnUse"
       gradientTransform="translate(6.5,9.5367432e-7)"
       x1="5.0945544"
       y1="10.990545"
       x2="5.0945544"
       y2="8.5990086" />
    <linearGradient
       inkscape:collect="always"
       xlink:href="#linearGradient3879"
       id="linearGradient3847"
       x1="8.1354771"
       y1="1.0556515"
       x2="8.1354771"
       y2="14.835591"
       gradientUnits="userSpaceOnUse" />
    <radialGradient
       inkscape:collect="always"
       xlink:href="#linearGradient3849"
       id="radialGradient3855"
       cx="8"
       cy="3.5403271"
       fx="8"
       fy="3.5403271"
       r="8"
       gradientUnits="userSpaceOnUse"
       gradientTransform="matrix(-4.7401405e-8,1.4892648,-1.3664231,-4.349151e-8,12.837585,-8.3737916)" />
    <linearGradient
       inkscape:collect="always"
       xlink:href="#linearGradient3099"
       id="linearGradient3079"
       gradientUnits="userSpaceOnUse"
       gradientTransform="translate(4.5000022,9.5367432e-7)"
       x1="5.0945544"
       y1="10.990545"
       x2="5.0945544"
       y2="8.5990086" />
  </defs>
  <sodipodi:namedview
     id="base"
     pagecolor="#ffffff"
     bordercolor="#666666"
     borderopacity="1.0"
     inkscape:pageopacity="0.0"
     inkscape:pageshadow="2"
     inkscape:zoom="11.098901"
     inkscape:cx="7.6566615"
     inkscape:cy="3.1310295"
     inkscape:current-layer="layer1"
     showgrid="true"
     inkscape:grid-bbox="true"
     inkscape:document-units="px"
     inkscape:window-width="1280"
     inkscape:window-height="751"
     inkscape:window-x="0"
     inkscape:window-y="24"
     inkscape:window-maximized="1" />
  <metadata
     id="metadata3011">
    <rdf:RDF>
      <cc:Work
         rdf:about="">
        <dc:format>image/svg+xml</dc:format>
        <dc:type
           rdf:resource="http://purl.org/dc/dcmitype/StillImage" />
        <dc:title />
      </cc:Work>
    </rdf:RDF>
  </metadata>
  <g
     id="layer1"
     inkscape:label="Layer 1"
     inkscape:groupmode="layer">
    <rect
       style="fill:url(#radialGradient3855);fill-opacity:1;fill-rule:nonzero;stroke:#505050;stroke-opacity:1"
       id="rect3014"
       width="15"
       height="15"
       x="0.5"
       y="0.5"
       rx="1"
       ry="1" />
    <path
       inkscape:connector-curvature="0"
       d="m 1.6250001,1.0000001 0,0.03125 0.125,-0.03125 -0.125,0 z m 0.125,0 0.125,0.125 0.0625,0 0,-0.125 -0.1875,0 z m 0.25,0 0.0625,0.0625 -0.0625,0.0625 0.03125,0.09375 0.15625,-0.09375 0,-0.0625 -0.0625,-0.0625 -0.125,0 z m 0.40625,0 0,0.03125 -0.15625,0.03125 0.125,0.125 0.125,0.03125 0.21875,-0.09375 -0.09375,-0.125 -0.21875,0 z m 0.53125,0 0.03125,0.03125 0.09375,-0.03125 -0.125,0 z m 0.3125,0 0,0.0625 -0.21875,0.09375 -0.15625,-0.09375 -0.125,0 0.125,0.1875 -0.0625,0.03125 -0.09375,-0.09375 -0.0625,0.0625 0.0625,0.09375 0.125,0 -0.03125,0.125 -0.09375,0 -0.125,-0.125 -0.0625,0 0,0.0625 -0.15625,0.03125 0.03125,0.0625 0.1875,0.0625 0.15625,0.03125 0.125,0.09375 0.125,-0.0625 -0.0625,-0.09375 0.09375,0 0.09375,-0.09375 0.15625,-0.03125 0,-0.03125 -0.09375,-0.0625 0,-0.0625 0.28125,0.03125 0.40625,-0.15625 -0.15625,-0.03125 0.03125,-0.0625 0.3125,0 0.03125,-0.03125 -0.84375,0 z m 2.0625,0 -0.15625,0.03125 -0.03125,0.09375 0.15625,0.03125 -0.1875,0.125 -0.09375,-0.125 -0.1875,-0.0625 0,0.125 -0.1875,0 -0.0625,-0.125 -0.25,-0.03125 -0.125,0.0625 -0.03125,0.09375 -0.15625,-0.03125 -0.125,0.0625 0,0.09375 0,0.0625 -0.1875,0.03125 -0.09375,-0.0625 -0.0625,0.125 0.09375,0.09375 0.1875,-0.03125 0,0.0625 -0.125,0.0625 -0.15625,-0.0625 -0.03125,0.0625 0.0625,0.09375 -0.03125,0.0625 0.125,0.125 0.125,-0.03125 0.15625,-0.03125 0.1875,0.21875 0.125,0.34375 -0.09375,0.21875 0.125,-0.03125 0.09375,0.03125 0,0.125 -0.15625,0 0.09375,0.09375 0.09375,0.03125 -0.25,0.34375 -0.03125,0.21875 0.0625,0.15625 -0.03125,0.09375 0.0625,0.21875 0.125,0.15625 0.03125,0 0.09375,-0.03125 0,0.125 0.0625,0.09375 0.09375,-0.03125 0.09375,-0.28125 0.21875,-0.28125 0.375,-0.15625 0.21875,-0.28125 0.09375,0.0625 0.21875,0 0.15625,-0.1875 0.21875,-0.0625 0.03125,-0.15625 -0.125,-0.09375 -0.125,-0.0625 -0.0625,-0.15625 0.15625,-0.09375 0.21875,0.125 0.09375,-0.09375 -0.125,-0.0625 0.25,-0.34375 -0.03125,-0.15625 -0.125,-0.03125 0.03125,-0.125 0.15625,-0.09375 0.34375,-0.28125 -0.09375,-0.09375 -0.375,0.03125 -0.1875,0.1875 0.09375,-0.25 -0.125,-0.03125 -0.0625,0.125 -0.09375,-0.0625 -0.28125,0.03125 0.0625,-0.125 0.46875,-0.03125 -0.125,-0.15625 -0.5,-0.09375 -0.1875,0.03125 0,0.09375 -0.21875,-0.0625 0.03125,-0.0625 z m 7.6562499,0 0.03125,0.0625 0.03125,-0.0625 -0.0625,0 z m 0.1875,0.03125 -0.09375,0.15625 0.0625,0.0625 -0.40625,0.21875 -0.375,0.28125 -0.21875,0.28125 0,0.125 0.25,0.09375 -0.125,0.09375 -0.25,-0.09375 -0.09375,0.09375 -0.15625,-0.15625 -0.03125,0.0625 0.1875,0.53125 0.03125,0 0.125,-0.0625 0.03125,0.0625 0,0.09375 -0.09375,-0.0625 -0.0625,0.0625 0.03125,0.09375 -0.03125,0.25 -0.21875,0.03125 -0.03125,-0.09375 0.15625,-0.09375 0.03125,-0.21875 -0.15625,-0.1875 -0.0625,-0.3125 -0.21875,-0.03125 -0.03125,0.09375 0.0625,0.0625 -0.09375,0.09375 0.03125,0.21875 0.125,0.0625 0.03125,0.15625 -0.125,-0.09375 -0.375,-0.0625 -0.03125,0.125 -0.28125,0.09375 -0.0625,-0.0625 -0.34375,0.1875 -0.03125,0.15625 -0.125,0 0.03125,-0.09375 0,-0.09375 -0.15625,-0.0625 -0.09375,0.03125 0.09375,0.15625 0.0625,0.125 0,0.0625 -1.125,-0.03125 0.875,0.09375 0.0625,0.125 -0.25,-0.03125 0.09375,0.125 -0.03125,0.03125 -0.125,0 -0.09375,-0.0625 -0.03125,-0.1875 -0.15625,-0.0625 0,-0.0625 0.3125,0.0625 0.1875,0 0.0625,-0.09375 -0.0625,-0.125 -0.46875,-0.1875 -0.15625,0.0625 0,-0.03125 0,-0.03125 -0.03125,-0.03125 0,-0.0625 0.03125,0 0,-0.03125 -0.15625,-0.03125 -0.1874999,0.03125 -0.03125,0.09375 -0.03125,-0.03125 -0.03125,-0.0625 -0.125,0 0,0.125 -0.03125,0 -0.03125,-0.03125 -0.21875,0.15625 0.03125,0.0625 -0.0625,0.03125 -0.1875,0.34375 -0.0625,0.0625 0,0.03125 0.0625,0.03125 0,0.0625 -0.125,0 -0.03125,-0.03125 -0.0625,0.0625 -0.03125,0.03125 -0.03125,0.09375 -0.03125,0 -0.09375,0.03125 -0.03125,0.15625 0.03125,0.25 0.03125,0.09375 0.03125,0.0625 0.09375,0 0.1562501,-0.15625 0.03125,-0.09375 0.03125,0.15625 0,0.03125 0.125,0.1875 0.03125,0.15625 0.0625,0 0.03125,-0.0625 0.125,-0.0625 0,-0.21875 0.09375,-0.0625 0.03125,-0.09375 0.03125,-0.0625 -0.15625,-0.09375 0,-0.125 0.09375,-0.125 0.0625,-0.03125 0.09375,-0.125 0,-0.09375 0.125,-0.125 0,-0.1875 0.03125,0 0,0.21875 0.0625,0 0.03125,0.09375 -0.03125,0.03125 -0.1875,0.21875 -0.03125,0.09375 0.03125,0.15625 0.15625,0.09375 0.1874999,-0.0625 0.15625,-0.03125 0.09375,-0.15625 -0.0625,0.15625 -0.03125,0.0625 0.09375,0.03125 -0.09375,0.0625 -0.03125,0 0,0.21875 -0.03125,-0.21875 -0.15625,0 -0.09375,0.0625 0,0.0625 0.0625,0.0625 0,0.125 0.1875,0.09375 0.09375,0 0,-0.03125 0.09375,0.03125 0.125,0.03125 0.125,0.1875 0,0.0625 -0.03125,0.0625 0.09375,0 -0.125,0.03125 -0.03125,0.125 -0.21875,0 -0.0625,-0.03125 -0.125,-0.03125 -0.0625,0.0625 0,0.09375 -0.03125,0 0,-0.0625 -0.03125,-0.03125 0,-0.0625 0,-0.0625 0,-0.0625 -1.03125,-0.0625 1.03125,0 0.09375,-0.03125 0.09375,-0.125 0,-0.0625 -0.1875,-0.125 -0.0625,0 0,-0.03125 -0.0625,-0.03125 -0.03125,0 -0.09375,0.0625 0,0.0625 0.03125,0 0.0625,0 0,0.03125 -0.0625,0 0,0.09375 -0.03125,0.09375 -0.09375,0 0,-0.03125 0,-0.03125 -0.0625,0.03125 -0.125,0.03125 -0.09375,0.09375 0,0.1875 0.0625,0.09375 0.125,0.0625 0.125,0.09375 0.09375,0.03125 0.0625,-0.03125 0.03125,0 0.0625,0.03125 0,0.03125 -0.0625,-0.03125 -0.09375,0.03125 -0.09375,-0.03125 0,-0.03125 -0.125,-0.0625 -0.125,-0.0625 -0.09375,0 0.0625,-0.03125 -0.0625,-0.0625 0,-0.21875 -0.0625,-0.0625 -0.0625,0 -0.09375,0.03125 -0.03125,0 -0.0625,-0.0625 -0.09375,0.03125 0,0.0625 -0.09375,0 0.03125,0.1875 -0.03125,0 -0.03125,-0.15625 -0.125,0.0625 0.03125,0.03125 0,0.0625 -0.03125,-0.03125 -0.03125,-0.03125 -0.0625,0.125 0.09375,0 0,0.03125 0.0625,0.03125 0.03125,-0.09375 0.03125,0 -0.03125,0.09375 0.0625,0.09375 0,0.0625 -0.03125,0 0,-0.0625 -0.0625,-0.0625 -0.03125,0 -0.03125,-0.0625 -0.09375,-0.03125 -0.03125,0 0,0.0625 -0.03125,0 -0.0625,0.03125 -0.125,0.125 -0.03125,0 -0.0625,-0.03125 -0.03125,0.03125 -0.03125,0.0625 -0.1875,0 0.03125,0.03125 0.125,0.09375 0.125,0.125 0,0.15625 -0.0625,0.125 0.15625,0.09375 0.1875,0 0.0625,-0.0625 0.09375,0 0.03125,0.03125 0.125,-0.03125 0.03125,-0.0625 -0.0625,-0.09375 0,-0.0625 0,-0.03125 -0.03125,-0.0625 0.03125,-0.03125 0.03125,0.09375 0,0.0625 0,0.03125 0.0625,0.09375 0.09375,0 0.25,0.25 0.15625,0.0625 0.09375,0.09375 0,0.1875 0.0625,-0.03125 0.03125,-0.125 0,-0.0625 0.0625,0 0.03125,-0.0625 -0.21875,-0.09375 -0.1875,-0.1875 -0.0625,-0.09375 -0.03125,-0.09375 0.09375,-0.03125 -0.03125,-0.0625 -0.03125,-0.0625 0.0625,0.03125 0.125,-0.03125 0.09375,-0.03125 0.03125,-0.0625 0,-0.03125 0.03125,0 0,0.03125 0.21875,0 L 9,5.5625001 l 0,-0.0625 0,-0.03125 0.0625,-0.09375 -0.03125,0.125 0,0.0625 0,0.03125 0.03125,0 0.21875,0 0.09375,-0.03125 0.0625,0 0.09375,0.15625 -0.0625,0.125 -0.03125,0 0.0625,-0.125 -0.09375,-0.125 -0.03125,-0.03125 -0.0625,0.0625 0.09375,0.125 0,0.09375 -0.03125,0 0,-0.09375 -0.09375,-0.125 -0.21875,0 0,0.03125 -0.1562499,0.125 0.1249999,0.21875 0.09375,0.0625 0.15625,0 0.0625,-0.03125 0.0625,-0.03125 0,0.03125 -0.0625,0 -0.03125,0.0625 -0.1875,0 -0.09375,-0.0625 0.03125,0.15625 0.03125,0.09375 0.1875,0 0.09375,-0.0625 0.0625,-0.03125 0,-0.09375 0,-0.0625 0.03125,0 0.09375,-0.09375 -0.03125,-0.0625 0.125,-0.15625 0.0625,0.03125 0.0625,0.03125 -0.0625,0.0625 0.09375,0.125 0.0625,0 0.03125,-0.0625 0.09375,-0.03125 0,-0.0625 -0.15625,-0.03125 0,-0.0625 0.15625,0 0.15625,-0.125 -0.03125,0.0625 0.03125,0.03125 -0.09375,0.09375 -0.03125,0.125 0.0625,0.09375 0.21875,0.0625 0.0625,-0.03125 0.375,0.15625 0.03125,0 -0.03125,0.0625 0.125,0.1875 0.0625,-0.03125 0,0.0625 -0.03125,0 -0.0625,0.03125 0,0.03125 -0.125,-0.03125 0,-0.03125 0.125,0.03125 0.03125,-0.0625 -0.15625,-0.1875 -0.09375,0.03125 0.09375,-0.0625 0.03125,-0.03125 -0.375,-0.125 -0.0625,0.03125 0.09375,0.125 0.125,0.0625 0.0625,0 0,0.03125 -0.0625,0 -0.125,-0.0625 -0.0625,0.0625 -0.21875,0 -0.15625,-0.09375 -0.125,0 -0.1875,0.125 -0.125,0 -0.03125,0.09375 -0.15625,0 -0.0625,0.0625 0,0.03125 0.03125,0.03125 0,0.03125 -0.03125,0.03125 0.03125,0.0625 0.0625,-0.03125 0.03125,0.0625 0,0.03125 -0.03125,0.03125 0.03125,0.03125 0.15625,0.03125 0.09375,-0.0625 0,-0.0625 0.0625,0.03125 0.125,0.0625 0.125,-0.03125 0.0625,-0.03125 0.03125,0 0,0.0625 0.0625,0 0.03125,-0.09375 0.40625,-0.03125 0.15625,-0.03125 0.03125,0 0.15625,0.1875 -0.03125,0.0625 -0.03125,0 0.03125,-0.0625 -0.15625,-0.125 0,-0.03125 -0.15625,0.03125 -0.375,0.03125 -0.0625,0.0625 0,0.03125 -0.0625,0 0,0.09375 0,0.0625 -0.03125,0.0625 0.0625,0.03125 0.03125,-0.125 0,0.1875 0.09375,0 -0.09375,0.03125 -0.0625,0.25 0,0.03125 0,0.09375 0.40625,0.5 0,0.125 0.03125,0.0625 0.125,0.03125 0.15625,0.28125 0.0625,0.125 0,0.125 0,0.03125 -0.03125,0 -0.25,-0.21875 -0.0625,-0.1875 -0.03125,0 -0.125,0.125 0,0.15625 0.21875,0 0,0.03125 -0.21875,0 -0.03125,0.03125 -0.15625,0.4374998 -0.03125,0 0.1875,-0.4374998 0,-0.21875 0.125,-0.15625 -0.21875,-0.375 -0.03125,0 0,-0.15625 -0.2812501,-0.34375 -0.03125,-0.09375 0,-0.0625 0.0625,0 0.03125,0.1875 0.0625,0.03125 0.03125,-0.03125 -0.03125,-0.09375 0,-0.03125 0,-0.03125 0.0625,-0.25 0,-0.0625 -0.0625,0 -0.0625,0.15625 -0.03125,0 -0.09375,0 -0.0625,-0.03125 -0.03125,0 -0.09375,0.0625 -0.09375,0 -0.125,-0.03125 -0.09375,0 0.03125,0.84375 0.7187501,0.03125 -0.7187501,0 0,0.1875 -0.03125,0 -0.03125,-1.0625 -0.125,-0.03125 -0.0625,-0.0625 -0.1562499,0 -0.09375,0.0625 0,0.03125 0.0625,0.03125 0,0.0625 -0.125,0.0625 -0.21875,-0.125 -0.0625,-0.09375 -0.21875,-0.0625 -0.09375,0.125 0,0.03125 -0.03125,0 0,0.09375 -0.03125,0 0,-0.125 0.0625,0 0.0625,-0.125 -0.09375,-0.03125 0,-0.03125 0.03125,-0.0625 0,-0.09375 -0.03125,-0.03125 0,-0.03125 0.03125,-0.0625 L 8.1875,6.7500001 8.15625,6.7187501 8,6.7812501 l 0,0.09375 0.03125,0.125 -0.03125,0 0,-0.125 -0.03125,-0.0625 -0.125,-0.0625 -0.5,0.09375 -0.09375,0.09375 0.0625,0.34375 -0.1875,0 -0.125,0.1875 -0.28125,0.0625 0,0.125 0.25,0.21875 -0.25,-0.1875 0,0.125 -0.3125,0 0,-0.03125 0.28125,0 0,-0.28125 0.28125,-0.0625 0.125,-0.1875 0.1875,0 -0.0625,-0.3125 -0.34375,0 -0.0625,0.125 -0.15625,0.09375 -0.125,0.34375 -0.21875,0.125 -0.34375,0.5625 0.0625,0.09375 L 6,8.6250001 l 0.09375,-0.0625 0.09375,0 0.0625,0.03125 0,0.03125 -0.09375,-0.03125 -0.03125,0 -0.125,0.09375 -0.03125,0.03125 0,0.0625 0.03125,0.03125 0.15625,0 -0.125,0.03125 0,0.03125 0.1875,0 0,-0.03125 0,-0.03125 0.03125,0 0,0.0625 0.0625,0.0625 0.03125,0 0.125,0 0.1875,-0.03125 0.03125,0.15625 0.21875,0 0.0625,-0.15625 0.3125,-0.21875 0.15625,0 0.15625,0.25 0.0625,0 0.0625,-0.125 0.125,0 0.125,0.0625 0.25,0 0.1875,-0.0625 0.03125,0 0.09375,0.0625 0.0625,0.03125 0,0.03125 -0.0625,-0.03125 0,0.09375 -0.03125,-0.09375 -0.09375,-0.0625 -0.1875,0.09375 -0.28125,0 -0.125,-0.09375 -0.0625,0.03125 -0.0625,0.0625 0,0.2499998 -0.0625,0.09375 -0.03125,0.15625 0.125,0.03125 0.125,0.125 0.0625,0.03125 0.0625,-0.03125 0.09375,0 0.09375,0.0625 0,0.15625 0,0.03125 0.125,0.03125 0,-0.0625 0.03125,0 0,0.0625 -0.03125,0 -0.125,0 -0.09375,0.1875001 0.21875,0.28125 0.03125,0.0625 0.0625,0.0625 0.03125,0 0.3125,0 0.0625,0.09375 L 8.75,10.59375 8.6875,10.5 l -0.3125,0 0.09375,0.375 0,0.125 -0.125,0.15625 -0.03125,0.25 0,0.15625 0.1875,0.28125 -0.03125,0.125 0,0.0625 0.15625,0.34375 0.09375,0.03125 0.0625,0.03125 0.125,0 0.03125,-0.375 0,-0.25 0.09375,0 0.03125,-0.25 0,-0.03125 0.21875,0 0,0.03125 -0.21875,0 0,0.25 -0.03125,0 -0.0625,0.03125 0,0.21875 0.0625,0.03125 L 8,12.28125 l 1.0625,0 0.15625,-0.125 0.1875,0 0.03125,-0.09375 0.03125,0 0.1875,-0.21875 -0.25,-0.3125 0.03125,0 0.25,0.28125 0.1875,0.0625 0.15625,-0.1875 -0.125,0.21875 0,0.25 -0.09375,0 0.0625,-0.03125 0,-0.21875 -0.1875,-0.0625 0,0.03125 -0.21875,0.1875 -0.0625,0.09375 0,0.03125 -0.15625,0 -0.15625,0.125 -1.09375,0 0,-0.03125 0,-0.15625 0.96875,-0.03125 -0.03125,0.375 -0.1875,0 -0.03125,-0.0625 -0.09375,0 0.0625,0.21875 0.125,0.125 -0.09375,0.09375 0.0625,0.125 0.15625,0.0625 0.09375,-0.09375 0.3125,0 0.03125,-0.03125 0.125,0 0.46875,-0.46875 0,-0.15625 -0.03125,0.0625 -0.09375,0 L 9.75,12.28125 9.78125,12.25 l 0.0625,0.0625 0.0625,0 0.0625,-0.09375 0.1875,-0.125 0.03125,-0.15625 0,-0.28125 0.3125,-0.25 0.03125,0 0.1875,-0.15625 -0.03125,-0.34375 -0.46875,0.0625 0,0.09375 -0.03125,-0.125 0.5,-0.0625 -0.125,-0.21875 0,-0.21875 0.03125,-0.09375 -0.4375,-0.3125 -0.03125,0 -0.15625,0.03125 0,-0.03125 0.15625,0 0.03125,-0.0625 0.0625,-0.1875 -0.0625,-0.125 -0.21875,0 0,0.0625 0,0.03125 0.03125,0 0,0.03125 -0.03125,0.03125 0,-0.0625 -0.03125,0 0,-0.09375 -0.03125,0 0,-0.03125 0.28125,0 0,-0.0625 0.03125,0 0,0.0625 0.0625,0.15625 -0.09375,0.1875 0,0.0625 0.46875,0.28125 0.125,-0.21875 0.03125,0 0.65625,-0.6875001 0.09375,-0.3124998 0,-0.125 -0.03125,-0.03125 -0.125,0.0625 0.03125,0.09375 -0.03125,0.09375 0,0.03125 -0.0625,0.0625 -0.03125,0 -0.15625,-0.03125 -0.21875,-0.125 0,-0.03125 -0.03125,-0.0625 0,-0.15625 0.0625,0.03125 0.71875,-0.28125 0,-0.09375 -0.125,-0.1875 -0.28125,0.09375 0,-0.03125 0.3125,-0.09375 0.09375,0.21875 0.15625,0 0.3125,-0.46875 0,-0.09375 -0.25,-0.125 -0.0625,-0.0625 0,-0.03125 0.03125,-0.09375 -0.09375,0.03125 -0.09375,0.15625 -0.1875,0 0,-0.15625 -0.03125,-0.03125 -0.03125,0.03125 -0.03125,0.125 -0.03125,0 -0.1875,-0.28125 -0.03125,-0.03125 0,-0.15625 0.03125,0 0,-0.03125 0.09375,0 0.0625,0.0625 0.03125,0.09375 0.28125,0.1875 0.09375,0 0.0625,-0.0625 0.09375,0 0.03125,0.09375 0.3125,0.0625 0,-0.125 0.09375,-0.03125 0,-0.03125 -0.0625,-0.125 -0.1875,-0.125 0.03125,-0.03125 0.15625,0.125 0.3125,-0.09375 0,-0.125 0.03125,0 0.15625,-0.125 0.09375,-0.25 -0.0625,0.28125 -0.1875,0.09375 -0.03125,0.125 0,0.03125 -0.28125,0.09375 0.0625,0.125 0,0.03125 -0.03125,0 -0.0625,0.0625 0,0.09375 0.09375,0 0.03125,-0.03125 0.21875,0 0.21875,0.15625 0.03125,-0.0625 0,-0.03125 0.125,0 0,-0.09375 0.03125,0 0,0.125 -0.15625,0 0,0.09375 0.09375,0 0.03125,0.03125 -0.09375,0.0625 0.0625,0.09375 0.09375,0.03125 0.0625,-0.03125 0.03125,-0.09375 0.0625,-0.03125 0.03125,0.0625 0,0.125 -0.03125,0.03125 0,0.09375 0.46875,0.9999998 0.125,-0.0625 0.09375,-0.2812498 0,-0.34375 0.4375,-0.5 0,-0.125 0.09375,-0.03125 0,-0.125 -0.09375,-0.1875 0.03125,-0.03125 0.09375,0.1875 0,0.15625 0,0.03125 0.125,0 0.0625,-0.0625 0.0625,0.03125 0,0.09375 0.21875,0.1875 0.03125,0.09375 0.03125,0.125 0.03125,0.03125 0,-1.1875 -0.03125,0 0,0.09375 -0.03125,0 0,-0.09375 -0.03125,-0.09375 -0.0625,0 -0.28125,0.1875 -0.03125,0 -0.15625,0 0.03125,0.0625 0.15625,0 0.03125,0.0625 -0.1875,0 -0.0625,-0.09375 -0.0625,0 0,-0.03125 -0.25,-0.0625 -0.21875,-0.125 -0.15625,0.03125 0.03125,0.125 0.21875,0.09375 0.375,0.03125 0.03125,0.0625 -0.40625,-0.03125 -0.25,-0.125 -0.03125,-0.125 -0.15625,-0.125 0,-0.1875 -0.125,-0.15625 -0.25,0.03125 0.03125,0.125 -0.03125,0 -0.03125,-0.15625 0.28125,-0.03125 0.15625,0.15625 0,0.1875 0.15625,0.09375 0.15625,-0.03125 0.21875,0.125 0.25,0.09375 0.125,-0.03125 0.125,0 0.3125,-0.1875 0.09375,0 0.03125,0.09375 0.03125,0 0,-1.4375 -0.125,-0.09375 -0.21875,0.09375 -0.1875,-0.0625 0,-0.03125 0.1875,0.0625 0.21875,-0.125 0.125,0.125 0,-0.9375 -0.09375,0 -0.09375,0.0625 -0.125,0 -0.09375,-0.125 -0.21875,-0.09375 -0.0625,0.09375 -0.03125,0 0.09375,-0.15625 0.25,0.09375 0.0625,0.125 0.125,0 0.0625,-0.03125 0.125,-0.03125 0,-3.25 -0.15625,-0.03125 0.09375,-0.21875 -0.40625,0 0.03125,0.1875 -0.15625,0.0625 -0.09375,-0.09375 -0.46875,0.0625 -0.1875,0.1875 0,0.09375 -0.125,0 -0.03125,-0.125 0.375,-0.3125 0,-0.21875 -0.21875,-0.0625 -0.3125,0.09375 -0.15625,-0.125 -0.03125,0 z m -2.25,8.0625 0.21875,0.1249998 0.15625,0.03125 0.09375,-0.0625 0,-0.09375 -0.03125,-0.09375 -0.28125,0.09375 -0.03125,0 -0.125,-0.0625 0,0.0625 z m -3.3125,0.3437498 0,-0.1875 0.0625,-0.09375 0,-0.1874998 -0.0625,0 -0.125,0.09375 0.09375,-0.125 -0.15625,-0.21875 -0.125,0 L 7,8.9375001 l -0.0625,0.15625 -0.03125,0 -0.125,0 -0.0625,0 0,0.1562498 -0.03125,0 0,-0.125 -0.0625,-0.1562498 -0.15625,0 -0.21875,0 0,0.03125 -0.03125,0 0,-0.03125 -0.125,-0.03125 0.21875,0 -0.09375,-0.03125 -0.1875,-0.03125 0,0.03125 0.03125,0.03125 0,0.0625 0.0625,0.09375 0.09375,0.1562498 0.15625,0.15625 0.125,-0.15625 0.03125,0.03125 -0.125,0.125 0.3125,0.21875 0,-0.15625 0.03125,0 0,0.15625 0.125,-0.0625 0.15625,-0.03125 0.15625,0.03125 -0.09375,-0.125 0,-0.0625 0.03125,0.0625 0.09375,0.125 0.0625,0 0.125,-0.0625 0,-0.03125 -0.03125,-0.3749998 -0.09375,-0.03125 -0.125,0 -0.0625,0.2812498 0,-0.1875 -0.125,0 0.125,-0.03125 0.03125,-0.09375 0.15625,0 0.125,0.03125 0,0.03125 0,0.375 0.09375,-0.03125 0,-0.3125 0.03125,0.03125 0,0.28125 0.0625,0 z m 1.4375,-3.4062498 0,-0.03125 -0.1562499,-0.1875 0.03125,-0.03125 0.1249999,-0.15625 0,-0.03125 -1.03125,0 0.8437501,0.0625 -0.21875,0.03125 -0.03125,0.03125 0,0.09375 0,0.03125 -0.0625,0.0625 0.21875,0 0,-0.0625 0.03125,0 0,0.0625 0.0625,0.09375 0,0.0625 -0.03125,0 0,-0.0625 -0.0625,-0.0625 -0.1875,0 0,0.03125 0.1875,0.1875 0,0.03125 0.03125,0.03125 0.03125,0 0.03125,-0.03125 0.03125,0 0,0.03125 -0.03125,0.03125 0,0.15625 0.03125,0.0625 0.03125,0 0.03125,-0.09375 -0.03125,-0.03125 0,-0.09375 0,-0.03125 0.1249999,-0.03125 0,-0.15625 z m -0.1249999,0.4375 0,0.0625 0.1249999,0.0625 0.0625,0.03125 -0.03125,0.03125 -1.0625,0 0,0.03125 0,0.0625 1.09375,0.03125 0.03125,0 0,-0.09375 0.0625,-0.0625 -0.15625,-0.15625 0.03125,-0.0625 0.03125,0 0.0625,0.03125 0.03125,-0.03125 0,-0.03125 0.15625,0 0,-0.09375 -0.0625,0.03125 -0.1875,0 -0.03125,0 -0.09375,0.0625 -0.0625,0.09375 z m 0.1562499,-0.15625 -0.03125,-0.09375 -0.09375,0.03125 0,0.0625 0.03125,0.03125 0.09375,-0.03125 z m -0.5312499,-0.40625 -0.03125,0 0.0625,-0.09375 0,-0.0625 -0.0625,0.03125 -0.15625,0.03125 0,0.0625 0.03125,0.03125 0,0.09375 0.03125,0 0.03125,-0.03125 0.03125,0.03125 0.03125,0.09375 0.21875,0.09375 -0.1875,-0.21875 0,-0.0625 z m -0.46875,-0.96875 0,-0.125 0.03125,-0.0625 0,-0.0625 -0.03125,-0.09375 -0.03125,0 -0.09375,0.125 -0.03125,0.09375 0.0625,0.125 0.09375,0 z m 1.0624999,0.03125 0,0.03125 -0.09375,0 0.03125,0.0625 0,0.0625 0,0.0625 0,0.03125 0.09375,-0.03125 0.125,0 0.0625,0.03125 0.1875,0 0.0625,-0.15625 0.03125,-0.03125 0,-0.03125 -0.125,-0.1875 -0.09375,-0.03125 -0.09375,-0.03125 -0.0625,0.03125 0,0.09375 -0.125,0.09375 z m -7.8749999,-3.875 c -0.036925,0.02366 -0.064359,0.061475 -0.09375,0.09375 l 0.03125,0.0625 -0.0625,0.0625 -0.0625,-0.03125 c -0.026915,0.051107 -0.054656,0.096467 -0.0625,0.15625 l 0.09375,-0.0625 0.125,0 0.0625,0.125 0.125,-0.125 -0.03125,-0.09375 -0.09375,0.03125 -0.03125,-0.125 0.0625,-0.09375 -0.0625,0 z m 9.5624999,0.0625 -0.0625,0.03125 0.03125,0.0625 0,0.0625 0.0625,-0.03125 0.03125,-0.0625 -0.03125,-0.0625 -0.03125,0 z m -0.46875,0.0625 -0.0625,0.03125 0,0.0625 0.0625,0.03125 0.0625,0 0.0625,-0.0625 0,-0.03125 -0.0625,0 -0.03125,0 -0.03125,-0.03125 z m 0.21875,0.03125 0.03125,0.09375 0.09375,0 0.03125,-0.03125 -0.03125,-0.0625 -0.0625,0 -0.0625,0 z m -8.59375,0.0625 0,0.125 0.125,0.0625 0,0.0625 -0.03125,0.0625 0.03125,0.125 0.5,0.15625 0.125,0.03125 0.125,-0.09375 -0.15625,-0.125 -0.15625,0.03125 -0.1875,-0.03125 -0.09375,-0.0625 0,-0.21875 -0.125,-0.0625 -0.09375,-0.0625 -0.0625,0 z m 8.125,0 -0.0625,0.0625 -0.09375,0 -0.03125,0.03125 0,0.0625 0.0625,0.0625 0.0625,0 0.09375,-0.0625 0,-0.0625 0.03125,-0.0625 -0.0625,-0.03125 z m -8.3125,0.03125 -0.125,0.03125 -0.09375,0.0625 0.15625,0.03125 -0.03125,0.09375 0.03125,0.0625 0.03125,0 0.125,-0.1875 -0.09375,-0.09375 z m 6.6562501,0.1875 -0.09375,0.09375 0.0625,0.0625 0.09375,0 0.03125,0.0625 0.09375,0.0625 0.15625,-0.0625 0.0625,-0.09375 0,-0.0625 -0.09375,-0.0625 -0.0625,0.0625 -0.0625,-0.03125 -0.03125,0 -0.03125,0.09375 -0.0625,-0.0625 -0.03125,-0.0625 -0.03125,0 z m -6.5625001,0.0625 -0.03125,0.0625 0.125,0.0625 0.0625,-0.0625 -0.15625,-0.0625 z M 1.0625,1.6875001 1,1.7812501 l 0,0.6875 0.125,-0.03125 0.03125,-0.15625 0.0625,0.0625 0.03125,-0.125 -0.09375,-0.0625 0,-0.40625 -0.09375,-0.0625 z m 10.09375,0 0,0.09375 -0.125,0.09375 -0.25,0.0625 -0.1875,0.3125 -0.03125,0.09375 0.1875,0.0625 0.03125,-0.125 0.0625,-0.1875 0.15625,-0.0625 0.125,-0.125 0.09375,-0.03125 0.0625,0 0,-0.125 -0.125,-0.0625 z m -2.8437499,0.03125 -0.09375,0.03125 -0.1875,0 -0.03125,0.125 0.09375,0.09375 0.0625,0 0.0625,-0.125 0.0625,0.03125 -0.03125,0.09375 -0.03125,0.125 0.03125,0.0625 0.125,-0.15625 0.125,-0.15625 -0.0625,-0.0625 -0.0625,-0.03125 -0.0625,-0.03125 z m -6.7812501,0.03125 -0.0625,0.125 -0.0625,-0.0625 -0.0625,0.0625 0.09375,0.15625 0,0.125 0.1875,-0.09375 0,-0.1875 0.09375,-0.0625 -0.09375,-0.0625 -0.09375,0 z m 0.34375,0.0625 -0.125,0.09375 0.03125,0.15625 0.09375,0 0.03125,-0.09375 0.0625,0.0625 0.0625,0 0.15625,-0.125 -0.3125,-0.09375 z m 6.7500001,0.09375 -0.0625,0.0625 -0.0625,0.03125 0.03125,0.0625 0.0625,0 0.09375,-0.03125 0.03125,-0.0625 -0.03125,-0.0625 -0.0625,0 z m -6.3125001,0.0625 -0.1875,0.0625 -0.09375,0.125 0.03125,0.34375 0.28125,0 0.25,0.125 0.1875,0.21875 0.15625,0 -0.03125,0.1875 -0.15625,0.21875 -0.125,0.0625 -0.09375,-0.03125 -0.0625,-0.03125 -0.0625,0.09375 0.03125,0.09375 0.09375,0.03125 0.125,-0.0625 0.125,0.28125 0.28125,0.1875 0.21875,-0.25 -0.1875,-0.28125 0.09375,-0.09375 0.15625,0.21875 0.25,-0.21875 -0.0625,-0.09375 -0.15625,0.0625 -0.125,-0.3125 0.125,-0.1875 -0.21875,-0.21875 -0.125,0.0625 -0.125,-0.25 -0.25,0.03125 -0.0625,-0.28125 -0.1875,0.125 -0.03125,0.15625 -0.09375,0 0,-0.125 0.15625,-0.25 -0.125,0 z m 0.40625,0.125 -0.03125,0.0625 0.03125,0.0625 0.21875,0.03125 -0.125,-0.15625 -0.09375,0 z m -0.96875,0.0625 -0.1875,0.0625 0,0.09375 0.0625,0.125 0,0.15625 -0.15625,0.125 -0.0625,0.09375 0,-0.09375 0.125,-0.21875 -0.0625,-0.09375 -0.125,0.0625 0,0.125 -0.0625,0.09375 -0.125,0 L 1,2.5937501 l 0,1.34375 0.03125,-0.09375 0.21875,-0.28125 0.25,-0.21875 0.21875,-0.03125 0.0625,-0.125 -0.03125,-0.09375 0.28125,-0.0625 0.15625,0.09375 0.15625,-0.09375 0.0625,-0.3125 -0.15625,-0.15625 -0.1875,0.28125 -0.125,-0.03125 0.09375,-0.15625 -0.0625,-0.0625 -0.125,0.125 -0.03125,-0.5 -0.0625,-0.0625 z m -0.75,1.78125 0,1.34375 0.0625,0 0.125,0.125 0,0.03125 0.09375,0.09375 0.09375,0.125 -0.1875,0.28125 0.03125,0.0625 0.40625,-0.125 0.28125,-0.1875 0.34375,0 0.03125,-0.125 0.03125,0 0,0.15625 -0.375,0 -0.28125,0.1875 -0.4375,0.125 0,-0.03125 -0.0625,-0.03125 0.03125,-0.03125 0.15625,-0.28125 -0.09375,-0.09375 -0.0625,-0.125 -0.15625,-0.125 -0.03125,0 0,2.34375 0.125,-0.15625 -0.0625,-0.09375 -0.03125,-0.15625 0.0625,-0.21875 0.28125,-0.25 0.21875,-0.0625 0,-0.21875 0.28125,-0.3125 0.3125,-0.0625 -0.03125,-0.1875 0.28125,-0.15625 0,-0.25 0.03125,0 0.03125,0.21875 0.15625,-0.03125 -0.15625,0.125 0.03125,0.09375 0.125,0 0.0625,-0.125 0.1875,0 0.09375,-0.1875 -0.0625,0 -0.03125,0.09375 -0.09375,0 -0.09375,-0.0625 0,-0.125 0.0625,-0.15625 -0.0625,-0.0625 -0.1875,0.03125 -0.125,0.0625 0.25,-0.21875 0.125,0.03125 0.28125,0.0625 0.15625,-0.15625 0.28125,-0.0625 0,-0.15625 -0.28125,-0.3125 -0.0625,-0.53125 -0.28125,0.1875 -0.125,-0.0625 0.0625,-0.21875 -0.125,-0.1875 -0.3125,-0.125 -0.21875,0.46875 -0.03125,0.25 -0.0625,0.15625 -0.1875,0.03125 -0.03125,0.28125 -0.09375,0.15625 -0.09375,-0.0625 0,-0.09375 L 1.75,4.5000001 1.40625,4.3437501 1.1875,4.1562501 1.125,4.0000001 1,3.9375001 z m 9.5,-1.5 0.03125,0.125 -0.09375,0.03125 0,0.0625 0.0625,0.0625 0.125,0 0.0625,0.0625 0.09375,0 0.03125,-0.0625 -0.125,-0.125 -0.03125,-0.15625 -0.15625,0 z m -4.3749999,0.25 -0.03125,0.03125 0.03125,0.03125 0.125,0.0625 0.03125,-0.09375 -0.15625,-0.03125 z m -1.9375,0.1875 -0.09375,0.03125 0,0.0625 0.0625,0.0625 0.03125,0 0.03125,-0.09375 -0.03125,-0.0625 z m 4.9062499,0.125 0.0625,0.15625 -0.09375,-0.125 0.03125,-0.03125 z m -0.1562499,0.09375 0.03125,0 -0.03125,0.125 0,0.03125 -0.09375,-0.0625 -0.15625,-0.03125 0,-0.03125 0.15625,0.0625 0.09375,0.03125 0,-0.125 z m -7.0000001,0.0625 -0.09375,0.125 -0.03125,0.1875 0.125,-0.0625 0.125,0 0.09375,0.09375 0.0625,-0.09375 -0.28125,-0.25 z m 6.6875001,0.03125 0.03125,0 0,0.03125 -0.125,0.03125 -0.1875,0.3125 -0.03125,0.25 -0.03125,0 -0.03125,0.0625 -0.03125,0.40625 0,-0.4375 0.0625,-0.03125 0.03125,-0.25 0.21875,-0.3125 0,-0.03125 0.09375,-0.03125 z m 0.5312499,0 0.03125,0.09375 0.0625,0 0,0.03125 0,0.125 0.1875,0.5 -0.125,-0.25 -0.09375,-0.21875 0.03125,-0.15625 -0.0625,-0.03125 -0.03125,0 0,-0.09375 z m -0.4374999,0.0625 0.09375,0 0,0.03125 -0.09375,0 0,-0.03125 z m -2.7812501,0.3125 -0.0625,0.03125 -0.0625,0.0625 0,0.03125 0.09375,0.03125 0,0.0625 -0.03125,0.03125 0.0625,0 0,0.125 0.125,0 0.09375,0.0625 0.0625,0 0.15625,-0.09375 0.09375,-0.125 0,-0.09375 -0.0625,-0.0625 -0.0625,-0.03125 -0.0625,0.03125 -0.03125,0 -0.03125,-0.03125 -0.0625,0 -0.09375,0.0625 -0.03125,0.0625 L 6,3.6875001 l 0,-0.0625 0,-0.03125 -0.0625,-0.03125 z m 1.1875,0.90625 -0.125,0.09375 -0.0625,0.21875 0.0625,0 0,0.09375 0.03125,0.0625 0.09375,0 0.03125,0.15625 -0.09375,0 0,0.09375 -0.09375,0.09375 0.125,0.03125 -0.1875,0.125 0.0625,0.03125 0.25,-0.09375 0.125,0.03125 0.09375,-0.0625 0.03125,-0.03125 -0.0625,-0.03125 0.0625,-0.03125 0,-0.0625 -0.03125,-0.0625 -0.09375,-0.03125 -0.03125,-0.125 -0.0625,-0.15625 -0.03125,-0.09375 0.03125,-0.0625 0,-0.03125 -0.125,0 -0.03125,-0.03125 0.0625,-0.09375 -0.03125,-0.03125 z m 1.7500001,0 -0.03125,0.03125 0,0.03125 0.0625,0 0.03125,-0.03125 -0.03125,-0.03125 -0.03125,0 z m -0.21875,0.0625 -0.03125,0.0625 0,0.0625 0.0625,-0.03125 -0.03125,-0.09375 z m 3.4687499,0.03125 0.40625,0.1875 0,0.03125 -0.40625,-0.1875 -0.46875,0.25 -0.03125,0.15625 0.09375,0.125 0.03125,0.03125 -0.21875,0.125 -0.28125,-0.03125 0,-0.03125 0.25,0.03125 0.21875,-0.125 -0.125,-0.09375 0.03125,-0.21875 0.5,-0.25 z m -3.9687499,0.25 -0.03125,0.03125 0,0.0625 0.09375,0 0,-0.0625 -0.03125,-0.03125 -0.03125,0 z m 5.7499999,0.03125 0.21875,0.09375 0.125,0.03125 0.125,-0.125 0.03125,0.03125 -0.15625,0.15625 -0.15625,-0.03125 -0.1875,-0.09375 -0.15625,0.21875 0.03125,0.09375 0.09375,0.03125 0,0.03125 -0.09375,0 -0.0625,-0.15625 -0.09375,0 -0.09375,0.25 -0.125,0 -0.15625,0.3125 -0.03125,-0.03125 0.1875,-0.34375 0.125,0 0.09375,-0.1875 0,-0.03125 -0.1875,0 0,-0.03125 0.1875,0.03125 0.09375,0 0.1875,-0.25 z m -7.0937499,0.03125 -0.03125,0.09375 -0.125,0 0,0.09375 0.03125,0.0625 -0.09375,0.0625 0,0.0625 0.03125,0.03125 0.09375,0 0.21875,-0.09375 0.03125,-0.1875 0.03125,-0.0625 -0.0625,-0.0625 -0.09375,0 0,0.09375 0.0625,0.03125 -0.03125,0.03125 -0.03125,-0.0625 -0.03125,0 0,-0.09375 z m -3.375,0.25 -0.3125,0.3125 0.03125,0.0625 0.375,0.125 0.0625,-0.09375 -0.03125,-0.125 -0.125,0 -0.0625,-0.0625 0.125,-0.125 -0.0625,-0.09375 z m 7.4999999,0 0.25,0.03125 -0.25,0 -0.1875,0.125 -0.03125,0.1875 0.1875,0.1875 0.03125,0 0.125,-0.0625 0.125,0 0,0.1875 -0.0625,0 -0.0625,0.09375 0.0625,0.125 0.125,0.0625 0,0.09375 0.0625,-0.03125 0.03125,-0.03125 0.0625,0 0.03125,0.0625 0.09375,0 0.0625,0 0.0625,-0.125 0.1875,0 0.03125,0.09375 0.375,0.28125 -0.40625,-0.25 -0.03125,-0.09375 -0.125,0 -0.0625,0.125 -0.09375,0 -0.09375,0 -0.03125,0.09375 -0.125,0 0,0.09375 0.125,0.09375 -0.03125,0.09375 0,0.0625 0.0625,0 0.0625,-0.09375 0.15625,-0.03125 0.34375,0.125 0,0.09375 0.1875,0.03125 0.21875,-0.21875 -0.03125,-0.09375 0.03125,0 0.03125,0.09375 0.09375,0 0,-0.15625 0.03125,0 0,0.15625 0.03125,0 0.0625,-0.03125 0,-0.03125 0.03125,0 0.0625,-0.09375 0.0625,0.0625 0,0.09375 0.0625,0 0,-0.0625 0.09375,0 0.03125,0 0,0.03125 0.03125,0 0.03125,0 0,-0.03125 -0.0625,-0.125 0.03125,0 0.0625,0.125 0.09375,0.03125 0,0.03125 -0.09375,-0.03125 -0.03125,0.0625 -0.03125,0 -0.15625,0.09375 -0.03125,-0.03125 0.0625,-0.0625 -0.125,0 0,-0.09375 -0.03125,-0.03125 -0.0625,0.03125 0,0.0625 -0.09375,0.03125 -0.15625,0 -0.21875,0.21875 -0.21875,0 0,-0.03125 0,-0.03125 -0.03125,-0.03125 -0.3125,-0.125 -0.125,0.03125 -0.09375,0.09375 -0.0625,0 -0.03125,0 -0.15625,0 -0.1875,-0.15625 0,-0.03125 0.03125,-0.15625 0.09375,0.03125 0,-0.0625 -0.125,-0.125 -0.03125,0.09375 -0.03125,-0.03125 0.03125,-0.0625 -0.125,-0.125 0,-0.125 -0.0625,-0.03125 0,-0.125 0.125,-0.125 -0.21875,-0.15625 0.03125,-0.21875 0.03125,0 0.1875,-0.15625 z m 1.96875,1.4375 0.09375,-0.03125 0,-0.03125 -0.09375,0 0,0.0625 z m -2.96875,-1.25 0.3125,0 0,0.03125 0,0.1875 -0.03125,0 0.03125,-0.1875 -0.3125,-0.03125 z m -2.03125,0.21875 0.03125,0 0,0.09375 0.09375,0.03125 0.03125,0.0625 0.0625,0 0,-0.0625 0.125,0 0.09375,-0.0625 0.03125,-0.03125 0,-0.03125 0.09375,0 0.03125,0 0,0.03125 -0.125,0 0,0.0625 -0.125,0.0625 -0.09375,0 -0.03125,0.03125 0,0.03125 0.03125,0 0.0625,0 -0.0625,0.03125 -0.0625,0.09375 -0.03125,0 0.0625,-0.125 -0.09375,0 L 8,5.6875001 l -0.0625,-0.03125 -0.125,0.15625 -0.03125,0 0,-0.03125 0.125,-0.15625 0,-0.09375 z m 6.15625,0.03125 0.34375,0 0,0.03125 -0.34375,0 0,-0.03125 z m -2.46875,0.1875 0.1875,0.03125 0,0.03125 -0.1875,-0.03125 -0.125,0.0625 0.0625,0.25 -0.0625,-0.15625 -0.03125,-0.125 0.15625,-0.0625 z m 1.75,0.0625 0.03125,0.03125 -0.09375,0.0625 0,0.03125 -0.4375,-0.0625 -0.03125,0.15625 -0.03125,-0.0625 -0.0625,-0.03125 0.03125,-0.03125 0.03125,0.0625 0.0625,-0.09375 0,-0.03125 0.4375,0.0625 0.0625,-0.09375 z m -1.15625,0.0625 0,0.03125 -0.28125,0.03125 0,-0.03125 0.28125,-0.03125 z m 0.46875,0.0625 0,0.09375 -0.03125,0 -0.03125,0.03125 -0.0625,0.0625 -0.1875,0 0,-0.03125 0.1875,0.03125 0.03125,-0.09375 0.0625,0 0.03125,-0.09375 z m 0,0.125 0.25,0.09375 -0.0625,0 -0.1875,-0.0625 0,-0.03125 z m -5.9062499,0.03125 -0.0625,0.0625 0.03125,0.09375 0.125,0.03125 0,0.03125 -0.125,0 -0.03125,0.25 -0.03125,0.03125 0,0.03125 0.03125,0.0625 -0.03125,0.0625 0.0625,0.03125 0.0625,-0.03125 0,-0.0625 0.0625,-0.34375 0.03125,0 -0.0625,0.34375 0,0.0625 0.09375,0.0625 0.125,0 0.21875,-0.0625 0.125,-0.15625 0,-0.125 0.1875,-0.1875 0.03125,-0.0625 -0.1875,0 -0.1875,-0.09375 -0.375,0 -0.0625,-0.03125 -0.03125,0 z M 13,6.1250001 l 0.125,0.03125 0,0.03125 -0.125,-0.03125 -0.09375,0.125 0.03125,0.0625 -0.03125,0 0,-0.0625 -0.03125,0 -0.0625,0.03125 -0.15625,-0.03125 0.15625,0 0.0625,-0.03125 0.125,-0.09375 0,-0.03125 z m -4.9374999,0.0625 -0.03125,0.03125 -0.03125,0.0625 0.0625,0.03125 0.03125,-0.0625 -0.03125,-0.0625 z m 4.5937499,0 0.03125,0.03125 -0.0625,0.03125 0,0.03125 -0.03125,0 0,-0.03125 0.03125,0 0.03125,-0.0625 z m -3.21875,0.03125 -0.0625,0.03125 0,0.125 0.09375,-0.03125 0.03125,-0.03125 0,-0.0625 -0.0625,-0.03125 z m -1.3749999,0.15625 -0.0625,0.03125 0,0.15625 0.0625,0 0.03125,-0.03125 0,-0.15625 -0.03125,0 z M 5.03125,6.4687501 5,6.5312501 l 0.0625,0.03125 0,-0.0625 -0.03125,-0.03125 z m 0.21875,0 -0.0625,0.03125 0.0625,0.03125 0.0625,-0.03125 -0.0625,-0.03125 z m 2.28125,0.03125 0.03125,0.0625 0.0625,0 0.03125,-0.03125 -0.0625,-0.03125 -0.0625,0 z m -2.25,0.0625 -0.03125,0.0625 0.03125,0.0625 0.03125,-0.03125 -0.03125,-0.09375 z m 3.0312501,0.09375 0,0.0625 0.125,0.0625 0.03125,0 0.03125,0 0,-0.125 -0.03125,0 -0.15625,0 z m -2.8437501,0.0625 -0.03125,0.03125 0.03125,0.03125 0.0625,-0.0625 -0.0625,0 z m 7.40625,0 0.03125,0.03125 -0.0625,0.03125 0.03125,-0.0625 z m -2.3125,0.0625 -0.03125,0.15625 -0.03125,0 0.0625,-0.15625 z m 1.4375,0.03125 0.0625,0.3125 0.125,0.03125 0,0.0625 -0.03125,0 0,-0.03125 -0.125,-0.03125 L 12,6.8125001 z m -3.4999999,0.0625 -0.0625,0.03125 0.03125,0.03125 0.03125,0.03125 0.03125,-0.03125 -0.03125,-0.0625 z m 0.6874999,0 0,0.03125 0.03125,0.03125 0,0.03125 0.15625,-0.03125 0,-0.03125 -0.03125,0 -0.09375,0 0,-0.03125 -0.0625,0 z m 0.78125,0 -0.09375,0.03125 -0.0625,0 0,0.0625 0.03125,0.03125 0.03125,0 L 9,6.9062501 9.96875,6.8750001 z m 0.875,0.09375 0.0625,0.125 0.09375,0 0,0.03125 -0.09375,0 0,-0.03125 -0.09375,-0.09375 0.03125,-0.03125 z m -2.875,0.0625 0.03125,0.09375 0.09375,0.09375 0,0.125 0.03125,0.03125 0,0.40625 0.0625,0.09375 0.09375,0 0,0.03125 -0.125,0 -0.0625,-0.09375 0,-0.40625 -0.03125,-0.0625 0,-0.09375 -0.09375,-0.09375 0,-0.125 z m 5.25,0 0.03125,0 -0.21875,0.46875 -0.15625,0 0,-0.03125 0.125,0 0.21875,-0.4375 z m -7.1562499,0.03125 -0.03125,0.03125 0.03125,0.03125 0.03125,-0.03125 -0.03125,-0.03125 z m 4.2499999,0.03125 0.03125,0 0,0.09375 0.1875,0 0.28125,0.25 -0.28125,-0.21875 -0.1875,-0.03125 -0.03125,-0.09375 z m -0.0625,0.15625 0.03125,0 0.03125,0.0625 0,0.0625 -0.125,0.09375 0.09375,-0.125 0,-0.03125 -0.03125,-0.0625 z m -9,0.25 0,0.03125 0.03125,0.0625 0.03125,0.03125 0.03125,-0.09375 -0.03125,0 -0.0625,-0.03125 z m 4.6875,0 -0.03125,0.03125 0.0625,0.0625 L 6,7.5000001 l -0.0625,0 z m 0.15625,0.03125 -0.0625,0.03125 0.03125,0.03125 0.0625,0 -0.03125,-0.0625 z m 0.1875,0 -0.0625,0.03125 0.03125,0.03125 0.03125,-0.0625 z m 8.34375,0.09375 0.03125,0 0,0.0625 -0.0625,0.0625 -0.03125,-0.03125 0.0625,-0.0625 0,-0.03125 z m -13.34375,0.03125 0.03125,0.09375 0.09375,0.03125 0,-0.03125 -0.03125,-0.03125 -0.0625,-0.0625 -0.03125,0 z m -0.125,0.03125 0,0.0625 0.03125,0.03125 0.03125,-0.03125 -0.03125,-0.0625 -0.03125,0 z m 10.59375,0.09375 0.03125,0 -0.03125,0.1875 0,0.03125 0.0625,0 -0.03125,0.1875 -0.03125,0 0.03125,-0.15625 -0.03125,0 -0.3125,-0.03125 -0.03125,-0.125 0,-0.03125 0.03125,0 0.03125,0.125 0.28125,0 0,-0.1875 z m 2.9375,0 0.03125,0.09375 0.03125,0 0,0.125 -0.03125,0 0,-0.125 -0.03125,0 0,-0.09375 z m -13.46875,0.03125 0.03125,0.09375 0.03125,-0.03125 -0.03125,-0.0625 -0.03125,0 z m 0.15625,0.03125 0,0.03125 0.03125,0.0625 0.03125,-0.03125 -0.03125,-0.0625 -0.03125,0 z M 1,7.8750001 l 0,0.09375 0.03125,0 0.125,0.125 -0.03125,0.03125 0.03125,0.0625 0.09375,0.03125 0.125,-0.0625 0.03125,-0.03125 -0.0625,-0.0625 L 1,7.8750001 z m 5.8125,0 0.03125,0 0.125,0.8125 -0.5,0 -0.09375,0.0625 0,-0.03125 0.09375,-0.0625 0.46875,0 -0.125,-0.78125 z m -0.5,0.15625 0.03125,0 -0.03125,0.15625 0,-0.15625 z m 2.2500001,0 0.03125,0 0.09375,0.1875 -0.03125,0.3125 -0.03125,0 0.03125,-0.3125 -0.09375,-0.1875 z M 1.5,8.1875001 l -0.03125,0.03125 0.0625,0.03125 0,0.0625 -0.125,0 0,0.0625 0.0625,0 0,-0.03125 0.125,0.03125 0.03125,0 0.03125,0.03125 0.03125,-0.03125 0.09375,-0.03125 0.0625,0.03125 0.03125,-0.0625 -0.15625,-0.09375 -0.03125,0 -0.0625,-0.03125 -0.125,0 z m -0.34375,0.09375 -0.09375,0.03125 0,0.03125 0.0625,0.03125 0.0625,0 0.03125,-0.03125 -0.0625,-0.0625 z m 0.875,0.03125 -0.0625,0.03125 0.03125,0.03125 0.09375,0.03125 0,-0.0625 -0.0625,-0.03125 z m 7.25,0 0.03125,0 0,0.34375 -0.125,0.09375 0,0.15625 0.03125,0.125 -0.0625,-0.125 0,-0.1875 0.125,-0.09375 0,-0.3125 z m -1.5625,0.0625 -0.03125,0.28125 -0.03125,0 0.0625,-0.28125 z m -5.5,0.03125 0,0.0625 0.0625,-0.03125 0,-0.03125 -0.03125,0 -0.03125,0 z m 0.09375,0.03125 0,0.0625 0.03125,0.03125 0.03125,-0.03125 -0.0625,-0.0625 z m 8.59375,0 0.1875,0.125 0,0.03125 -0.1875,-0.125 0,-0.03125 z m -8.5,0.15625 -0.03125,0.03125 0.03125,0.03125 0.03125,0 -0.03125,-0.0625 z m 3.0625,0 -0.0625,0.03125 0.03125,0.0625 0.0625,-0.03125 -0.03125,-0.0625 z m 3.0000001,0.0625 0.03125,0 0,0.09375 -0.03125,0 0,-0.09375 z m -2.8750001,0.03125 -0.03125,0.03125 0.03125,0.03125 0.0625,-0.03125 -0.0625,-0.03125 z m -3.1875,0.03125 0,0.03125 0.03125,0.03125 0.03125,-0.03125 -0.0625,-0.03125 z m 3.125,0.03125 -0.0625,0.03125 0.0625,0.0625 0.03125,0 -0.03125,-0.09375 z m 0.84375,0.03125 0.125,0.09375 -0.03125,0.03125 -0.09375,-0.125 z m -3.96875,0.03125 -0.03125,0.03125 0.03125,0.0625 0.0625,-0.03125 -0.0625,-0.0625 z m 0,0.09375 -0.03125,0 -0.03125,0.03125 0,0.03125 0.0625,0 0,-0.03125 0,-0.03125 z m 9.3125,-0.0625 -0.0625,0.03125 -0.0625,0 0.0625,0.0625 0.09375,-0.03125 0.03125,-0.03125 -0.0625,-0.03125 z m -10.1875,0.03125 -0.375,0.3124998 -0.0625,0.09375 0,0.03125 -0.03125,0 0,0.25 -0.0625,0.1875 0,0.5937501 0.1875,-0.1875 0,-0.09375 0.03125,0 0,0.09375 -0.21875,0.25 0,0.53125 0.21875,0.40625 0.5,0.3125 0,0.03125 0.09375,2.15625 0.15625,0.0625 -0.03125,0.4375 -0.09375,0.03125 0,0.0625 0.0625,0.03125 L 2,14.53125 2,14.65625 1.9375,14.75 2,14.84375 2.09375,15 l 0.21875,0 0.15625,0 -0.0625,-0.15625 0.125,-0.1875 0.0625,-0.1875 -0.125,-0.125 0.125,-0.34375 -0.0625,-0.15625 0.1875,-0.0625 -0.03125,-0.1875 0.125,0 0.09375,-0.0625 0.15625,-0.25 -0.15625,-0.1875 -0.03125,0 -0.03125,-0.375 0.09375,-0.0625 0.21875,-0.3125 0.03125,0 -0.21875,0.3125 0.375,0.21875 0.1875,-0.34375 0,-0.28125 0.34375,-0.21875 0.1875,0 0.15625,-0.25 0,-0.5 -0.03125,-0.125 0.34375,-0.3125 0,-0.375 L 4.0625,10.25 3.46875,10.0625 3.1875,10.03125 3.28125,9.8749999 l -0.03125,-0.25 -0.0625,0 -0.09375,0.15625 -0.03125,0.0625 -0.125,-0.03125 -0.40625,0.125 0,-0.03125 -0.125,-0.125 0,-0.1875 0,-0.03125 -0.03125,-0.125 0.09375,-0.15625 L 2.375,9.2187499 2.25,9.0625001 2.0625,9.0937501 1.8125,9.0312501 1.71875,8.9375001 1.625,9.0312501 1.59375,9.1562499 1.5,9.1249999 l 0,-0.0625 -0.0625,0.09375 0.0625,0.1875 0.34375,0.09375 0.03125,0.40625 0.09375,0.125 0.09375,0 0,0.03125 -0.09375,0 0,-0.03125 -0.125,-0.09375 -0.03125,-0.40625 -0.34375,-0.09375 -0.0625,-0.21875 0.1875,-0.2812498 -0.0625,0 z m 1,1.0312498 0.1875,-0.0625 0,-0.125 0.03125,0 0,0.125 0.15625,-0.09375 0.03125,-0.15625 0,0.15625 0.09375,0.0625 0.03125,-0.03125 0.09375,-0.1875 L 3,9.4999999 l -0.03125,0 0,-0.03125 -0.09375,0 -0.09375,0.0625 -0.03125,-0.0625 -0.03125,0 -0.21875,-0.1875 -0.09375,0.15625 0.03125,0.125 0,0.1875 0.09375,0.15625 z m 0.375,3.1875001 0.1875,0.03125 0.25,-0.21875 L 2.9375,12.6875 2.875,12.75 2.90625,13.09375 z M 1.09375,9.2812499 1.125,9.1874999 1,9.1249999 l 0,0.09375 0.03125,0.0625 0.0625,0 z M 10.75,8.9062501 l 0.03125,0 0,0.03125 -0.03125,0.09375 0,-0.125 z m -8.34375,0.09375 -0.03125,0.03125 -0.03125,0 0,0.0625 0.0625,0.0625 0.03125,-0.0625 0.03125,-0.03125 -0.03125,-0.03125 -0.03125,-0.03125 z m 6.6875,0.03125 0.03125,0 0,0.03125 -0.1874999,0.1874998 -0.03125,0.0625 0,-0.0625 L 9.09375,9.0312501 z m 0.21875,0.0625 0.03125,0 0,0.09375 -0.03125,0.03125 -0.0625,-0.03125 0.0625,-0.03125 0,-0.0625 z m 4.625,0 0,0.09375 0,0.0625 -0.03125,0 0.03125,0.125 0.0625,0.03125 0.09375,-0.0625 -0.03125,-0.125 0,-0.0625 -0.09375,-0.0625 -0.03125,0 z m -5.4062499,0.09375 0.0625,0.03125 0.0625,0.09375 0.09375,0.03125 -0.09375,0 -0.09375,0.15625 0.03125,0.0625 0.125,0.125 0.0625,-0.0625 0.09375,0 0,-0.0625 0.09375,-0.0625 0.1562499,0.125 0.125,-0.09375 0.375,0.03125 0.03125,0 0.1875,0.03125 0,0.03125 -0.59375,-0.03125 -0.125,0.09375 -0.1562499,-0.125 -0.0625,0.03125 -0.03125,0.03125 0,0.0625 -0.09375,0 -0.0625,0.0625 -0.03125,0.0625 -0.21875,0 -0.03125,0.03125 0.15625,0 0,0.3749999 -0.125,0 0,-0.03125 0.09375,0 0,-0.3124999 -0.125,0 0,-0.03125 -0.03125,-0.03125 0.0625,0 0.1875,-0.03125 0.0625,-0.03125 -0.15625,-0.15625 -0.03125,-0.0625 0.03125,-0.03125 0.0625,-0.15625 -0.0625,-0.09375 -0.03125,-0.03125 0,-0.03125 z m 1.5312499,0.0625 0.03125,0 0,0.0625 0.09375,0 0.125,0.1875 0,0.03125 -0.03125,0 -0.125,-0.1875 -0.09375,0 0,-0.09375 z m -1.8749999,0.15625 0.125,0 -0.125,0.03125 -0.09375,0.0625 0,-0.03125 0.09375,-0.0625 z m 5.0624999,0.0625 0,0.0625 0.03125,0.03125 0.03125,-0.0625 -0.0625,-0.03125 z m -10.625,0.09375 0.03125,0 0,0.0625 -0.03125,0 0,-0.0625 z m 8.375,0 0,0.03125 -0.1875,0.0625 L 11,9.5624999 z m -8.84375,0.0625 0.125,0.09375 -0.125,-0.0625 0,-0.03125 z m 11.15625,0 -0.03125,0.09375 0.03125,0.03125 0.03125,-0.0625 -0.03125,-0.0625 z m -11.21875,0.03125 0.03125,0 0,0.0625 0.125,0.0625 -0.03125,0.03125 -0.125,-0.03125 0,-0.125 z m 5.9375001,0 0,0.0625 0.03125,0.03125 0.0625,-0.03125 -0.03125,-0.0625 -0.0625,0 z m 2.6562499,0.09375 0.03125,0 0,0.2812499 -0.03125,0 0,-0.2812499 z m -2.6874999,0.0625 -0.0625,0.03125 0,0.03125 0.03125,0 0.03125,-0.03125 0,-0.03125 z m 5.3124999,0 -0.03125,0.03125 0.03125,0.03125 0.03125,-0.03125 -0.03125,-0.03125 z m -11.625,0.0625 0.03125,0 L 1.6875,10 1.78125,10.09375 1.75,10.125 1.65625,10.03125 1.6875,9.8750001 z m 6.1875,0.0625 0,0.03125 0.03125,0 0,-0.03125 -0.03125,0 z m 0.9687501,0.03125 -0.09375,0.09375 -0.03125,0.0625 0,0.125 -0.03125,0 0,-0.125 0.03125,-0.09375 0.125,-0.0625 z M 1.28125,10.0625 1.40625,10.25 1.375,10.25 1.28125,10.0625 z m 8.59375,0.03125 0.03125,0 0,0.09375 -0.03125,0.125 -0.03125,0 0.03125,-0.125 0,-0.09375 z m -1.5624999,0.09375 0.03125,0 0,0.03125 0.03125,0 0,0.0625 -0.03125,0 0,-0.0625 -0.03125,0 0,-0.03125 z M 1.5625,10.25 l 0.03125,0 0,0.15625 -0.03125,0 L 1.40625,10.5 1.375,10.71875 l 0.125,0.125 0.03125,0 L 1.5,10.90625 1.34375,10.71875 1.375,10.5 l 0.03125,0 0.15625,-0.125 0,-0.125 z m 8.1875,0 0.03125,0.09375 0.09375,0.34375 0.15625,0.0625 0.125,0 0,0.03125 -0.09375,0 L 10.125,11 10.0625,11.15625 10.09375,11 10.03125,10.8125 9.875,10.6875 l -0.03125,0 -0.125,-0.40625 L 9.75,10.25 z m 2.15625,0.03125 -0.03125,0.03125 0.03125,0.0625 0.0625,0 -0.0625,-0.09375 z m -3.4999999,0.03125 0.03125,0 0.03125,0.0625 0,0.03125 -0.03125,0 -0.03125,-0.0625 0,-0.03125 z m 3.5312499,0.125 -0.03125,0.03125 0.03125,0.0625 0.03125,0 L 12,10.4375 l -0.0625,0 z m -2.9687499,0.125 0.0625,0 0,0.03125 -0.03125,0 -0.0625,0.0625 0,0.03125 -0.15625,0 0,-0.03125 0.15625,0 0.03125,-0.09375 z m 2.7187499,0 -0.03125,0.03125 0.0625,0.03125 L 11.75,10.59375 11.6875,10.5625 z m -2.625,0.03125 0.09375,0 0,0.28125 0.15625,0 0,0.03125 0.34375,0.1875 -0.34375,-0.15625 0,0.125 -0.15625,0 -0.03125,0.25 0,-0.28125 0.15625,0 0,-0.125 -0.125,0 0,-0.03125 -0.03125,-0.25 -0.0625,0 0,-0.03125 z m -7.4062499,0.21875 0.0625,0.125 0.25,-0.09375 0.09375,0 0,0.03125 0.0625,0.21875 0.375,0.09375 0.0625,0.1875 0.125,0.03125 0.09375,0.15625 -0.0625,0.1875 -0.03125,-0.03125 0.0625,-0.15625 -0.0625,-0.15625 -0.15625,0 -0.0625,-0.1875 -0.34375,-0.125 -0.03125,0 -0.03125,-0.21875 -0.09375,0 -0.21875,0.09375 -0.03125,-0.03125 -0.09375,-0.09375 0.03125,-0.03125 z m 7.9999999,0.09375 0.15625,0.0625 0,0.15625 -0.03125,0 0,-0.125 -0.125,-0.0625 0,-0.03125 z m 1.3125,0 0,0.0625 0.0625,0 0.03125,-0.0625 -0.09375,0 z m 0.40625,0.0625 -0.0625,0.15625 -0.09375,0.1875 -0.1875,0 -0.09375,0.09375 0.03125,0.28125 -0.125,0.125 0.03125,0.25 0.09375,0.09375 0.09375,0 0.125,-0.09375 -0.03125,-0.125 0.28125,-0.46875 -0.0625,-0.0625 0.0625,-0.09375 0.03125,0 0.03125,-0.03125 -0.0625,-0.21875 -0.03125,-0.09375 -0.03125,0 z M 11.03125,11 l 0.03125,0.0625 0.03125,0 L 11.125,11 11.03125,11 z m -9.25,0.0625 L 1.84375,11.25 1.8125,11.53125 1.75,11.625 1.78125,11.53125 1.8125,11.25 1.78125,11.0625 z m 8.5,0.0625 0.03125,0 0.03125,0.1875 -0.15625,0.125 0.125,-0.15625 -0.03125,-0.15625 z m -0.125,0.15625 0,0.09375 -0.03125,0 0.03125,-0.09375 z m -0.46875,0.03125 0.03125,0 -0.125,0.1875 -0.03125,0 0.125,-0.1875 z m -0.5625,0.03125 0.09375,0.09375 0.125,0.03125 -0.125,0 -0.03125,0 L 9.03125,11.5 8.8750001,11.40625 9.0625,11.46875 l 0.125,0 -0.0625,-0.125 z M 9,11.375 l 1.03125,0 0,0.28125"
       id="kalimantan"
       style="opacity:0.1;fill:#000000;fill-opacity:1" />
    <path
       inkscape:connector-curvature="0"
       id="path3872"
       d="m 4,12 0,1 8,0 0,-1 z"
       style="fill:#ffffff;fill-opacity:1;fill-rule:nonzero;stroke:none;opacity:0.4"
       sodipodi:nodetypes="ccccc" />
    <path
       sodipodi:nodetypes="ccccccccc"
       style="fill:url(#linearGradient3902);fill-opacity:1;fill-rule:nonzero;stroke:none"
       d="m 6,4 0,1 -2,0 0,7 8,0 0,-7 -2,0 0,-1 z"
       id="rect3820"
       inkscape:connector-curvature="0" />
    <rect
       style="opacity:0.50000000000000000;fill:none;fill-opacity:1;stroke:url(#linearGradient3847);stroke-opacity:1"
       id="rect3862"
       width="13"
       height="13"
       x="1.5"
       y="1.5"
       ry="0.1"
       rx="0.1" />
    <rect
       y="8"
       x="6.000001"
       height="3"
       width="4"
       id="rect3921"
       style="fill:url(#linearGradient3939);fill-opacity:1;fill-rule:nonzero;stroke:none" />
  </g>
</svg>
