<?xml version="1.0" encoding="UTF-8" standalone="no"?>
<!-- Created with Inkscape (http://www.inkscape.org/) -->

<svg
   xmlns:dc="http://purl.org/dc/elements/1.1/"
   xmlns:cc="http://creativecommons.org/ns#"
   xmlns:rdf="http://www.w3.org/1999/02/22-rdf-syntax-ns#"
   xmlns:svg="http://www.w3.org/2000/svg"
   xmlns="http://www.w3.org/2000/svg"
   xmlns:xlink="http://www.w3.org/1999/xlink"
   xmlns:sodipodi="http://sodipodi.sourceforge.net/DTD/sodipodi-0.dtd"
   xmlns:inkscape="http://www.inkscape.org/namespaces/inkscape"
   width="16"
   height="16"
   id="svg2"
   version="1.1"
   inkscape:version="0.48.3.1 r9886"
   sodipodi:docname="user-desktop.svg">
  <defs
     id="defs4">
    <linearGradient
       id="linearGradient3771">
      <stop
         style="stop-color:#ffffff;stop-opacity:1;"
         offset="0"
         id="stop3773" />
      <stop
         id="stop3781"
         offset="0.06926757"
         style="stop-color:#ffffff;stop-opacity:0.23529412;" />
      <stop
         id="stop3779"
         offset="0.91711247"
         style="stop-color:#ffffff;stop-opacity:0.15686275;" />
      <stop
         style="stop-color:#ffffff;stop-opacity:0.39215687;"
         offset="1"
         id="stop3775" />
    </linearGradient>
    <linearGradient
       id="linearGradient3751">
      <stop
         style="stop-color:#8cb6f0;stop-opacity:1;"
         offset="0"
         id="stop3753" />
      <stop
         style="stop-color:#1e5a82;stop-opacity:1;"
         offset="1"
         id="stop3755" />
    </linearGradient>
    <radialGradient
       inkscape:collect="always"
       xlink:href="#linearGradient3751"
       id="radialGradient3759"
       cx="8.3571329"
       cy="1039.4514"
       fx="8.3571329"
       fy="1039.4514"
       r="7"
       gradientUnits="userSpaceOnUse"
       gradientTransform="matrix(-4.9580789e-6,2.2124763,-2.0516678,-4.5977128e-6,2141.0211,1020.2107)" />
    <linearGradient
       inkscape:collect="always"
       xlink:href="#linearGradient3771"
       id="linearGradient3770"
       x1="8.2062988"
       y1="1037.3827"
       x2="8.2062988"
       y2="1052.274"
       gradientUnits="userSpaceOnUse" />
    <linearGradient
       inkscape:collect="always"
       xlink:href="#linearGradient3755"
       id="linearGradient3827"
       x1="7.9207206"
       y1="0.082882881"
       x2="7.9207206"
       y2="13.992195"
       gradientUnits="userSpaceOnUse"
       gradientTransform="translate(0,1036.3622)" />
    <linearGradient
       id="linearGradient3755">
      <stop
         style="stop-color:#b06121;stop-opacity:1;"
         offset="0"
         id="stop3757" />
      <stop
         style="stop-color:#973404;stop-opacity:1;"
         offset="1"
         id="stop3759" />
    </linearGradient>
  </defs>
  <sodipodi:namedview
     id="base"
     pagecolor="#ffffff"
     bordercolor="#666666"
     borderopacity="1.0"
     inkscape:pageopacity="0.0"
     inkscape:pageshadow="2"
     inkscape:zoom="14.03165"
     inkscape:cx="3.4049684"
     inkscape:cy="7.1333508"
     inkscape:document-units="px"
     inkscape:current-layer="layer1"
     showgrid="false"
     inkscape:window-width="1280"
     inkscape:window-height="751"
     inkscape:window-x="0"
     inkscape:window-y="24"
     inkscape:window-maximized="1" />
  <metadata
     id="metadata7">
    <rdf:RDF>
      <cc:Work
         rdf:about="">
        <dc:format>image/svg+xml</dc:format>
        <dc:type
           rdf:resource="http://purl.org/dc/dcmitype/StillImage" />
        <dc:title></dc:title>
      </cc:Work>
    </rdf:RDF>
  </metadata>
  <g
     inkscape:label="Livello 1"
     inkscape:groupmode="layer"
     id="layer1"
     transform="translate(0,-1036.3622)">
    <rect
       style="fill:url(#radialGradient3759);fill-opacity:1;fill-rule:nonzero;stroke:#14415f;stroke-opacity:1"
       id="rect2985"
       width="15"
       height="15"
       x="0.5"
       y="1036.8622"
       rx="1"
       ry="1" />
    <rect
       style="opacity:0.50000000000000000;fill:none;fill-opacity:1;fill-rule:nonzero;stroke:url(#linearGradient3770);stroke-opacity:1"
       id="rect3769"
       width="13"
       height="13"
       x="1.5"
       y="1037.8622" />
    <path
       style="opacity:0.5;fill:#000000;fill-opacity:1;fill-rule:nonzero;stroke:none"
       d="m 1.5,1036.3622 13,0 c 0.831,0 1.5,0.669 1.5,1.5 l 0,1.5 -16,0 0,-1.5 c 0,-0.831 0.669,-1.5 1.5,-1.5 z"
       id="rect3772"
       inkscape:connector-curvature="0"
       sodipodi:nodetypes="sssccss" />
    <path
       style="opacity:0.5;fill:#000000;fill-opacity:1;fill-rule:nonzero;stroke:none"
       d="m 3.9999999,1048.3624 8.0000001,0 c 0.554,0 1,0.446 1,1 l 0,2.9998 -10,0 0,-2.9998 c 0,-0.554 0.446,-1 1,-1 z"
       id="rect3778"
       inkscape:connector-curvature="0"
       sodipodi:nodetypes="sssccss" />
    <path
       inkscape:connector-curvature="0"
       id="path3829"
       d="m 4,1040.3622 0,2 c 3.3137088,0 6,2.6863 6,6 l 2,0 c 0,-4.4183 -3.5817218,-8 -7.9999999,-8 z m 0,3 0,2 c 1.6568543,0 3,1.3431 3,3 l 2,0 c 0,-2.7614 -2.2385763,-5 -5,-5 z m 0,3 0,2 2,0 c 0,-1.1046 -0.8954305,-2 -2,-2 z"
       style="fill:#000000;fill-opacity:1;stroke:#000000;stroke-opacity:1;stroke-linejoin:round;opacity:0.05000001;stroke-width:3;stroke-miterlimit:4;stroke-dasharray:none" />
    <path
       style="fill:#000000;fill-opacity:1;stroke:#000000;stroke-opacity:1;stroke-linejoin:round;opacity:0.09999999;stroke-width:1.99999997999999990;stroke-miterlimit:4;stroke-dasharray:none"
       d="m 4,1040.3622 0,2 c 3.3137088,0 6,2.6863 6,6 l 2,0 c 0,-4.4183 -3.5817218,-8 -7.9999999,-8 z m 0,3 0,2 c 1.6568543,0 3,1.3431 3,3 l 2,0 c 0,-2.7614 -2.2385763,-5 -5,-5 z m 0,3 0,2 2,0 c 0,-1.1046 -0.8954305,-2 -2,-2 z"
       id="path3827"
       inkscape:connector-curvature="0" />
    <path
       inkscape:connector-curvature="0"
       id="path3825"
       d="m 4,1040.3622 0,2 c 3.3137088,0 6,2.6863 6,6 l 2,0 c 0,-4.4183 -3.5817218,-8 -7.9999999,-8 z m 0,3 0,2 c 1.6568543,0 3,1.3431 3,3 l 2,0 c 0,-2.7614 -2.2385763,-5 -5,-5 z m 0,3 0,2 2,0 c 0,-1.1046 -0.8954305,-2 -2,-2 z"
       style="fill:#000000;fill-opacity:1;stroke:#000000;stroke-opacity:1;stroke-linejoin:round;opacity:0.15" />
    <path
       style="fill:#ffffff;fill-opacity:1;stroke:none"
       d="m 4,1040.3622 0,2 c 3.3137088,0 6,2.6863 6,6 l 2,0 c 0,-4.4183 -3.5817218,-8 -7.9999999,-8 z m 0,3 0,2 c 1.6568543,0 3,1.3431 3,3 l 2,0 c 0,-2.7614 -2.2385763,-5 -5,-5 z m 0,3 0,2 2,0 c 0,-1.1046 -0.8954305,-2 -2,-2 z"
       id="path3003"
       inkscape:connector-curvature="0" />
  </g>
</svg>
