<?xml version="1.0" encoding="UTF-8" standalone="no"?>
<!-- Created with Inkscape (http://www.inkscape.org/) -->

<svg
   xmlns:dc="http://purl.org/dc/elements/1.1/"
   xmlns:cc="http://creativecommons.org/ns#"
   xmlns:rdf="http://www.w3.org/1999/02/22-rdf-syntax-ns#"
   xmlns:svg="http://www.w3.org/2000/svg"
   xmlns="http://www.w3.org/2000/svg"
   xmlns:xlink="http://www.w3.org/1999/xlink"
   xmlns:sodipodi="http://sodipodi.sourceforge.net/DTD/sodipodi-0.dtd"
   xmlns:inkscape="http://www.inkscape.org/namespaces/inkscape"
   width="16"
   height="16"
   id="svg3147"
   version="1.1"
   inkscape:version="0.48.3.1 r9886"
   sodipodi:docname="web-browser.svg">
  <defs
     id="defs3149">
    <linearGradient
       id="linearGradient3788">
      <stop
         id="stop3790"
         offset="0"
         style="stop-color:#80ddfa;stop-opacity:1;" />
      <stop
         style="stop-color:#1176b3;stop-opacity:1;"
         offset="1"
         id="stop3792" />
    </linearGradient>
    <linearGradient
       id="linearGradient3779">
      <stop
         style="stop-color:#1f4b6a;stop-opacity:1;"
         offset="0"
         id="stop3781" />
      <stop
         style="stop-color:#4083c2;stop-opacity:1;"
         offset="1"
         id="stop3783" />
    </linearGradient>
    <linearGradient
       id="linearGradient3771">
      <stop
         style="stop-color:#8badea;stop-opacity:1;"
         offset="0"
         id="stop3773" />
      <stop
         id="stop3786"
         offset="0.25"
         style="stop-color:#6396cd;stop-opacity:1;" />
      <stop
         id="stop3784"
         offset="0.5"
         style="stop-color:#3b7caf;stop-opacity:1;" />
      <stop
         style="stop-color:#194c70;stop-opacity:1;"
         offset="1"
         id="stop3775" />
    </linearGradient>
    <linearGradient
       id="linearGradient4536">
      <stop
         style="stop-color:#ffffff;stop-opacity:1;"
         offset="0"
         id="stop4538" />
      <stop
         id="stop4546"
         offset="0.08048616"
         style="stop-color:#ffffff;stop-opacity:0.15686275;" />
      <stop
         id="stop4544"
         offset="0.936414"
         style="stop-color:#ffffff;stop-opacity:0.23529412;" />
      <stop
         style="stop-color:#ffffff;stop-opacity:0.39215687;"
         offset="1"
         id="stop4540" />
    </linearGradient>
    <radialGradient
       inkscape:collect="always"
       xlink:href="#linearGradient3688-166-749"
       id="radialGradient3132"
       gradientUnits="userSpaceOnUse"
       gradientTransform="matrix(2.003784,0,0,1.4,27.98813,-17.4)"
       cx="4.9929786"
       cy="43.5"
       fx="4.9929786"
       fy="43.5"
       r="2.5" />
    <linearGradient
       id="linearGradient3688-166-749">
      <stop
         id="stop2883"
         style="stop-color:#181818;stop-opacity:1"
         offset="0" />
      <stop
         id="stop2885"
         style="stop-color:#181818;stop-opacity:0"
         offset="1" />
    </linearGradient>
    <radialGradient
       inkscape:collect="always"
       xlink:href="#linearGradient3688-464-309"
       id="radialGradient3134"
       gradientUnits="userSpaceOnUse"
       gradientTransform="matrix(2.003784,0,0,1.4,-20.01187,-104.4)"
       cx="4.9929786"
       cy="43.5"
       fx="4.9929786"
       fy="43.5"
       r="2.5" />
    <linearGradient
       id="linearGradient3688-464-309">
      <stop
         id="stop2889"
         style="stop-color:#181818;stop-opacity:1"
         offset="0" />
      <stop
         id="stop2891"
         style="stop-color:#181818;stop-opacity:0"
         offset="1" />
    </linearGradient>
    <linearGradient
       inkscape:collect="always"
       xlink:href="#linearGradient3702-501-757"
       id="linearGradient3136"
       gradientUnits="userSpaceOnUse"
       x1="25.058096"
       y1="47.027729"
       x2="25.058096"
       y2="39.999443" />
    <linearGradient
       id="linearGradient3702-501-757">
      <stop
         id="stop2895"
         style="stop-color:#181818;stop-opacity:0"
         offset="0" />
      <stop
         id="stop2897"
         style="stop-color:#181818;stop-opacity:1"
         offset="0.5" />
      <stop
         id="stop2899"
         style="stop-color:#181818;stop-opacity:0"
         offset="1" />
    </linearGradient>
    <linearGradient
       inkscape:collect="always"
       xlink:href="#linearGradient4536"
       id="linearGradient4542"
       x1="14.801802"
       y1="1010.4072"
       x2="14.801802"
       y2="1024.1722"
       gradientUnits="userSpaceOnUse"
       gradientTransform="translate(-4,27.000017)" />
    <radialGradient
       inkscape:collect="always"
       xlink:href="#linearGradient3788"
       id="radialGradient3777"
       cx="7.2176123"
       cy="1039.3967"
       fx="7.2176123"
       fy="1039.3967"
       r="8"
       gradientUnits="userSpaceOnUse"
       gradientTransform="matrix(6.1640778e-6,1.9279844,-1.2640552,4.0413888e-6,1321.9602,1025.0159)" />
    <linearGradient
       inkscape:collect="always"
       xlink:href="#linearGradient3779"
       id="linearGradient3819"
       x1="6.4530039"
       y1="14.981883"
       x2="6.4530039"
       y2="1.0583754"
       gradientUnits="userSpaceOnUse" />
    <radialGradient
       inkscape:collect="always"
       xlink:href="#linearGradient3771"
       id="radialGradient3790"
       gradientUnits="userSpaceOnUse"
       gradientTransform="matrix(3.0451418e-6,1.9369369,-1.4505624,2.2804915e-6,1516.3106,1023.9004)"
       cx="8.2162399"
       cy="1039.3171"
       fx="8.2162399"
       fy="1039.3171"
       r="8" />
  </defs>
  <sodipodi:namedview
     id="base"
     pagecolor="#ffffff"
     bordercolor="#666666"
     borderopacity="1.0"
     inkscape:pageopacity="0.0"
     inkscape:pageshadow="2"
     inkscape:zoom="9.8111066"
     inkscape:cx="13.536205"
     inkscape:cy="0.0092490904"
     inkscape:document-units="px"
     inkscape:current-layer="layer1"
     showgrid="false"
     inkscape:window-width="1280"
     inkscape:window-height="751"
     inkscape:window-x="0"
     inkscape:window-y="24"
     inkscape:window-maximized="1" />
  <metadata
     id="metadata3152">
    <rdf:RDF>
      <cc:Work
         rdf:about="">
        <dc:format>image/svg+xml</dc:format>
        <dc:type
           rdf:resource="http://purl.org/dc/dcmitype/StillImage" />
        <dc:title />
      </cc:Work>
    </rdf:RDF>
  </metadata>
  <g
     inkscape:label="Livello 1"
     inkscape:groupmode="layer"
     id="layer1"
     transform="translate(0,-1036.3622)">
    <rect
       style="fill:url(#radialGradient3777);fill-opacity:1;stroke:#0e7896;stroke-opacity:1"
       id="rect3163"
       width="15"
       height="15"
       x="0.5"
       y="1036.8622"
       rx="1"
       ry="1" />
    <path
       inkscape:connector-curvature="0"
       d="m 1.3684206,1037.3718 c -0.204105,0 -0.368421,0.1738 -0.368421,0.3896 l 0,1.0713 0.138158,-0.1826 0.103618,0.049 0.207237,0 0.172697,-0.1826 0.207237,-0.097 0.02303,-0.1339 -0.126645,-0.1218 -0.115132,-0.036 -0.06908,-0.1704 0.149671,-0.097 0.230264,0.134 0.08059,-0.097 -0.126645,-0.073 0.264803,-0.3652 -0.02303,-0.085 -0.748355,0 z m 2.4177631,0 0,0.012 0.046053,0.073 0.057566,-0.085 -0.1036185,0 z m 2.4292764,0 -0.1036185,0.1827 -0.034539,0.097 0.1957236,0.061 0.03454,-0.1339 0.057566,-0.1826 0.046053,-0.024 -0.1957236,0 z m 1.4276315,0 0,0.097 0.2302632,0.097 -0.1151316,0.097 -0.2417763,-0.097 -0.1036184,0.097 -0.1496711,-0.1826 -0.03454,0.061 0.1726974,0.5478 0.034539,0.024 0.1151316,-0.061 0.057566,0.037 0,0.097 -0.1036185,-0.036 -0.069079,0.049 0.046053,0.097 -0.03454,0.2557 -0.21875,0.024 -0.011513,-0.085 0.1266447,-0.073 0.023026,-0.2313 -0.1381579,-0.1948 -0.057566,-0.3408 -0.21875,-0.049 -0.023026,0.1218 0.046053,0.061 -0.1036184,0.085 0.046053,0.2313 0.1266447,0.061 0.03454,0.1705 -0.1381579,-0.097 -0.3453947,-0.061 -0.046053,0.1218 -0.2763158,0.097 -0.046053,-0.073 -0.368421,0.2192 0,0.1339 -0.1496711,0.024 0.046053,-0.097 0,-0.1095 -0.1381579,-0.061 -0.092105,0.049 0.069079,0.1582 0.057566,0.097 0,0.085 -0.1036184,-0.024 -0.023026,-0.012 -0.1036184,0.1217 0.057566,0.097 -0.2417763,0 0.080592,0.097 -0.023026,0.049 -0.1266447,0 -0.092105,-0.061 -0.023026,-0.1947 -0.1496711,-0.061 0,-0.073 0.3108553,0.061 0.1726974,0.024 0.069079,-0.1217 -0.069079,-0.1218 -0.4490132,-0.1826 -0.1611842,0.036 -0.057566,0.049 0.023026,0.1095 0.069079,0.012 -0.023026,0.1826 0.2072368,0.5113 -0.149671,0.2557 -0.011513,0.049 0.080592,0.061 -0.069079,0.049 -0.046053,0 0.011513,0.2192 0.057566,0.097 0,0.085 0.080592,0.012 0.1266447,0.049 0.1266448,0.1948 0.011513,0.049 -0.046053,0.073 0.092105,-0.012 0.092105,0.036 0.1381579,0.1826 0.3108553,0.036 -0.011513,0.2313 -0.1151316,0.097 0.023026,0.036 -0.1036184,0.1218 -0.023026,0.1095 0.057566,0.097 0.2072368,0.085 0.080592,-0.061 0.5526316,0.2191 0.023026,-0.061 -0.1151315,-0.1095 0,-0.146 -0.069079,-0.024 0.011513,-0.1217 0.1151316,-0.1461 -0.2072369,-0.1582 0.023026,-0.2192 0.21875,-0.1582 0.2532895,0.012 0.046053,0.085 0.2648027,0.012 0.1842105,-0.1095 -0.092105,-0.1096 0.011513,-0.2192 0.5065789,-0.2556 0.3799342,0.1826 0.1266448,-0.1218 0.3799342,0.3774 0.287829,-0.024 0.1036184,0.097 0.2648027,0.036 0.1842105,-0.2557 0.2302631,0.1096 0.1151316,0.012 0.1266448,-0.1095 -0.1151316,-0.073 0.092105,-0.1583 0.2648026,0.098 0.05757,0.1217 0.115132,0 0.06908,-0.049 0.195723,-0.012 0.02303,0.061 0.21875,0.012 0.149671,-0.1705 0.310856,0.036 0.09211,-0.036 0.02303,-0.1826 -0.09211,-0.2191 0.09211,-0.085 0.299342,0 0.276316,0.353 0.356908,0.2192 0.103618,0 0.02303,-0.097 0.126644,-0.085 0.01151,0.4992 -0.115132,0 0,0.1217 0.06908,0.085 -0.01151,0.1096 0.04605,0.024 0.02303,-0.073 0.04605,0.012 0.02303,0.024 0.138158,-0.024 0.126644,-0.4017 0.01151,-0.487 -0.161185,-0.4017 -0.207237,-0.2678 -0.103618,0.024 0,0.085 -0.241776,-0.1096 0.09211,-0.207 0.08059,-0.56 0.322369,-0.1095 0.161184,-0.1096 0.172697,0 -0.04605,0.061 0.04605,0.085 0.149671,-0.1704 0.08059,0 -0.01151,-0.097 -0.138158,-0.024 0.09211,-0.3652 0.126644,-0.1218 0.04605,0.1827 0.103619,0.036 0.103618,-0.1704 -0.05757,-0.1096 0.02303,-0.097 0.149671,0 -0.03454,0.073 0.01151,0.2678 -0.21875,0.5722 0.02303,0.1217 -0.01151,0.1948 0.402961,0.6209 0.08059,0.024 0,-0.4991 0.08059,-0.085 -0.08059,-0.1947 0.06908,-0.085 -0.161184,-0.2191 -0.08059,0.012 -0.02303,-0.3652 0.21875,-0.061 0.01151,-0.1096 0.115131,-0.024 0.05757,0.061 0.08059,-0.3409 0.02303,-0.036 -6.5970394,0 z m -1.6003289,0.3652 0.011513,0.134 -0.092105,0.024 0,0.061 0.057566,0.085 0.1381579,0.012 0.069079,0.073 0.069079,0 0.034539,-0.085 -0.1036184,-0.1217 -0.046053,-0.1583 -0.1381579,-0.024 z m -4.2944081,0.2557 -0.04605,0.037 0.02303,0.049 0.149671,0.073 0,-0.1217 -0.126645,-0.037 z m 2.8898028,0.2435 -0.2072368,0.024 -0.023026,0.097 -0.046053,-0.024 -0.034539,-0.049 -0.092105,0 -0.011513,0.1096 -0.046053,0.024 -0.034539,-0.061 -0.2072368,0.1826 0.046053,0.049 -0.080592,0.036 -0.1726974,0.3652 -0.069079,0.049 0.011513,0.036 0.057566,0.036 -0.011513,0.061 -0.1036184,0 -0.034539,-0.036 -0.069079,0.085 -0.034539,0.024 -0.011513,0.085 -0.03454,0.024 -0.1036184,0.012 -0.046053,0.1582 0.03454,0.2557 0.034539,0.1217 0.046053,0.036 0.092105,0 0.1381579,-0.1461 0.046053,-0.085 0.023026,0.1339 0.080592,-0.1705 0.011513,-0.4626 0.069079,-0.049 0.023026,-0.2556 0.21875,-0.3287 0.1036184,-0.036 0.046053,-0.061 0.1611842,0.036 0.069079,0.049 0.03454,-0.1461 0.1266447,-0.073 0.080592,0.1339 0.057566,-0.037 -0.011513,-0.049 -0.03454,-0.024 0.011513,-0.061 0.023026,0 0,-0.037 -0.1266448,-0.036 z m -0.011513,0.1339 -0.092105,0.073 -0.034539,0.1583 -0.1036184,-0.061 -0.1381579,-0.036 -0.03454,0.036 0.057566,0.049 0.092105,0 0.080592,0.1339 0.011513,0.207 0.069079,0.024 0.03454,0.073 -0.03454,0.049 -0.1842105,0.2192 -0.03454,0.1095 0.046053,0.1583 0.1381579,0.1096 0.1842106,-0.097 0.149671,-0.024 0.1381579,-0.2313 -0.1036184,-0.2679 -0.092105,-0.2435 0.011513,-0.1582 -0.057566,-0.012 -0.023026,-0.1217 -0.080592,-0.1461 z m 9.6134866,0.1582 0.02303,0.049 0.06908,0.049 0.02303,-0.024 -0.06908,-0.073 -0.04605,0 z m -10.0279603,0.036 -0.1036184,0.036 -0.2072369,0.3165 -0.023026,0.2678 -0.069079,0.037 -0.011513,0.4748 -0.1036184,0.1826 0.1266447,0.2191 0.03454,0.1583 0.057566,0 0.046053,-0.085 0.1151316,-0.049 0,-0.2435 0.069079,-0.073 0.057566,-0.073 0.011513,-0.061 -0.1381579,-0.1095 0,-0.1339 0.069079,-0.134 0.057566,-0.012 0.1036184,-0.1461 0,-0.097 0.1381579,-0.1095 -0.011513,-0.1948 -0.057566,-0.1218 -0.1036184,0 -0.057566,-0.049 z m 10.1891453,0 0,0.049 0.09211,0.024 0,-0.036 -0.09211,-0.036 z m 0.460526,0.1826 0.03454,0.073 0.05757,-0.012 0.01151,-0.049 -0.103619,-0.012 z m -13.2976973,0.1583 -0.08059,0.049 -0.05757,0.061 0,0.037 0.08059,0.012 0,0.061 -0.03454,0.036 0.01151,0.024 0.08059,0 0,0.1096 0.115131,0.012 0.08059,0.049 0.08059,0 0.138158,-0.073 0.103619,-0.1461 0,-0.097 -0.06908,-0.061 -0.04605,-0.049 -0.03454,0.024 -0.03454,0.049 -0.03454,-0.012 -0.04605,-0.049 -0.05757,0.012 -0.06908,0.061 -0.05757,0.061 -0.02303,-0.024 0,-0.061 0.02303,-0.024 -0.01151,-0.024 -0.05756,-0.037 z m 11.1907893,0.1948 0,0.1826 0.21875,0.3652 0.08059,0.3044 0.138158,0.28 0.05757,0.024 0.04605,-0.049 0.02303,-0.061 -0.207237,-0.2313 0.01151,-0.1217 0.04605,-0.012 0.01151,-0.073 -0.391448,-0.5844 -0.03454,-0.024 z m 1.174342,0.28 -0.03454,0.049 0.01151,0.073 0.02303,0 0.05757,-0.1095 -0.05757,-0.012 z m 0,0.1704 -0.05757,0.012 0,0.1217 0.03454,0.012 0.02303,-0.036 0,-0.1096 z m -2.578947,0.085 -0.06908,0.073 0.09211,0.2069 -0.03454,0.207 -0.103619,0.049 -0.06908,-0.012 0,0.1948 0.06908,0.024 0.115132,-0.061 0.149671,0.085 0,0.073 -0.115132,0 -0.08059,0.207 -0.08059,0 -0.276316,0.3896 -0.299342,0.1338 -0.195724,0.024 -0.138158,-0.1096 -0.18421,0.1096 -0.2072368,-0.061 -0.057566,-0.1461 -0.3453948,-0.024 -0.1842105,-0.3165 -0.080592,0 -0.069079,-0.1461 -0.069079,-0.012 -0.1036184,0.2557 -0.1266447,0 -0.1496712,0.3287 0.1266448,0.1582 -0.2532895,0.3653 -0.1266447,-0.012 -0.092105,0.1096 0.023026,0.073 0.1036184,0 0.046053,0.1217 0.1036184,0.024 0.3108553,0.4139 0,0.2191 0.1496711,0.097 0.1611842,-0.024 0.2072368,0.1217 0.2532895,0.073 0.1151316,-0.012 0.1381575,-0.012 0.287829,-0.1947 0.0921,0.012 0.03454,0.085 0.08059,0.024 0.103619,0.1704 -0.06908,0.1704 0.04605,0.1096 0.115131,0.049 0.02303,0.1339 0.138158,0.012 0.02303,-0.061 0.207237,-0.1218 0.126645,0.012 0.149671,0.1704 0.103618,-0.036 0.06908,0 0.02303,0.085 0.05757,0.012 0.06908,-0.1095 0.287829,-0.1096 0.253289,-0.3287 0.08059,-0.3165 0,-0.207 -0.115132,-0.024 0.06908,-0.073 -0.01151,-0.1218 -0.276316,-0.2921 0,-0.1339 0.08059,-0.1096 0.08059,-0.036 0,-0.085 -0.195724,0 -0.03454,0.1096 -0.0921,-0.024 -0.115132,-0.1218 0.06908,-0.207 0.103619,-0.1095 0.09211,0.012 -0.01151,0.1705 0.04605,0.049 0.115132,-0.1339 0.04605,0 -0.01151,-0.1096 0.115132,-0.1339 0.08059,0 0.05757,-0.1705 0.05757,-0.024 0,-0.1096 -0.05757,-0.061 0,-0.1582 0.103618,-0.012 0,-0.4261 -0.08059,0.049 -0.02303,0.1096 -0.126645,0 -0.379934,-0.2191 -0.264803,-0.3409 -0.276316,-0.012 z m -6.7236846,0.085 -0.1036185,0.073 0,0.049 0.057566,0.061 0.2072369,0.037 0,-0.2069 -0.1611842,-0.012 z m -1.9111842,0.1339 -0.1151316,0.085 -0.069079,0.2313 0.069079,-0.012 -0.011513,0.134 0.034539,0.036 0.1036184,0 0.011513,0.1705 -0.080592,0.012 -0.011513,0.097 -0.069079,0.097 0.1036184,0.012 0.034539,0.024 -0.21875,0.1217 0.080592,0.036 0.21875,-0.097 0.1381579,0.012 0.069079,-0.036 0.034539,-0.036 -0.034539,-0.024 0,-0.036 0.057566,-0.024 0,-0.061 -0.034539,-0.073 -0.080592,-0.036 -0.057566,-0.1218 -0.057566,-0.1339 -0.023026,-0.1217 0.023026,-0.049 0,-0.049 -0.1151315,0 -0.023026,-0.036 0.057566,-0.085 -0.034539,-0.036 z m 1.7154605,0 -0.03454,0.024 0.023026,0.024 0.046053,0 0.023026,-0.024 -0.023026,-0.024 -0.034539,0 z m -0.1957237,0.073 -0.057566,0.049 0.023026,0.073 0.057566,-0.049 -0.023026,-0.073 z m 0.3569079,0 0.011513,0.1218 0.1726974,0.1095 0.080592,-0.024 -0.011513,-0.085 -0.057566,-0.085 -0.1957237,-0.037 z m -0.9786184,0.037 -0.1151316,0.1461 0,0.085 0.046053,0.146 0.092105,-0.012 -0.011513,-0.1217 0.057566,-0.073 0,-0.049 -0.046053,-0.1096 -0.023026,-0.012 z m 0.805921,0 -0.069079,0.097 0,0.049 0.023026,0.012 0.046053,0 0.080592,-0.073 0.011513,-0.024 -0.046053,-0.049 -0.046053,-0.012 z m 3.2236842,0.024 -0.4835526,0.2557 -0.011513,0.1704 0.1151316,0.1461 -0.21875,0.1217 -0.2878289,0 -0.057566,-0.097 -0.21875,-0.012 -0.21875,0.1461 0,0.1947 0.1957237,0.1705 0.1151315,-0.061 0.1266448,0 0.011513,0.207 -0.080592,0 -0.057566,0.1095 0.080592,0.1339 0.1151315,0.061 0.011513,0.073 0.03454,-0.012 0.046053,-0.049 0.057566,0.012 0.03454,0.073 0.080592,0 0,-0.085 -0.057566,-0.1583 -0.023026,-0.1217 0.149671,-0.061 0.1957237,0.024 0.1151316,0.1339 0.2763158,-0.024 0.149671,0.2192 0.1842105,0.012 0.046053,-0.085 0.057566,-0.012 0.011513,-0.097 0.092105,0 0.057566,0.061 0.046053,-0.1217 0.4259868,0.061 0.069079,-0.097 -0.1151317,-0.1583 0.1611843,-0.3774 0.1266447,0.012 0.092105,-0.2313 -0.1842105,-0.024 -0.1036185,-0.098 -0.2763158,0.037 -0.3684211,-0.3774 -0.1266447,0.1218 -0.3914474,-0.1948 z m 6.1940793,0.049 -0.05757,0.036 -0.03454,0.073 0,0.049 0.04605,-0.024 0.04605,-0.097 0,-0.036 z m -9.3141451,0.024 -0.080592,0.085 -0.069079,0 0,0.1096 -0.046053,0.085 0.1611842,0 0.034539,-0.012 0.046053,0.061 0.1036184,-0.012 0.092105,-0.1218 0,-0.085 -0.1842106,-0.1096 -0.057566,0 z m 5.3190791,0.012 -0.080592,0.1095 0.1151315,0.085 -0.1611842,0.1582 -0.1381579,-0.036 -0.1957237,-0.098 -0.1726973,0.2314 0.046053,0.1217 0.092105,0 0.1842105,0.3287 0.3569079,0.024 0.046053,0.1461 0.1842102,0.061 0.195724,-0.1096 0.149671,0.1096 0.184211,-0.024 0.276315,-0.1339 0.287829,-0.3773 0.06908,-0.012 0.09211,-0.2069 0.09211,0 0,-0.036 -0.126645,-0.061 -0.115131,0.049 -0.09211,-0.012 0.01151,-0.2313 -0.21875,-0.024 -0.149671,0.1704 -0.253289,-0.012 -0.02303,-0.061 -0.149671,0 -0.08059,0.061 -0.138158,0 -0.06908,-0.1339 -0.2187502,-0.085 z m -4.9736843,0.085 -0.080592,0.024 0,0.085 -0.1036184,0.1461 -0.1036185,0 0.046053,0.073 -0.023026,0.061 0,0.037 0.023026,0.061 0.080592,-0.049 0.1151315,0 0.080592,0.036 0.1842106,0 0.057566,-0.1461 0.034539,-0.061 0,-0.024 -0.1151315,-0.1826 -0.1151316,-0.049 -0.080592,-0.012 z m -1.1398027,0.049 -0.034539,0.037 0,0.049 0.080592,0.012 0,-0.061 -0.023026,-0.036 -0.023026,0 z m 9.947368,0.024 -0.08059,0.1217 0.01151,0.049 0.03454,-0.012 0.09211,-0.1217 -0.05757,-0.036 z m -11.259868,0.036 -0.046053,0.1095 -0.1036184,0 0,0.097 0.023026,0.061 -0.1151316,0.085 0,0.024 0.057566,0.036 0.069079,0 0.2302631,-0.085 0.023026,-0.1827 -0.069079,0.024 -0.080592,-0.073 0.011513,-0.097 z m 0.1151316,0 -0.092105,0.012 -0.011513,0.085 0.069079,0.049 0.057566,-0.024 0.03454,-0.049 -0.057566,-0.073 z m 1.7269737,0.024 -0.057566,0.012 -0.1266447,0.049 -0.1036184,0.085 0.011513,0.207 0.046053,0.085 0.1381578,0.073 0.1266448,0.097 0.080592,0.024 0.080592,-0.024 0.023026,0 0.057566,0.024 0.03454,-0.024 0.046053,-0.085 0.011513,-0.049 0,-0.061 -0.023026,-0.036 -0.011513,-0.061 -0.011513,-0.073 0.023026,-0.049 -0.080592,-0.1339 -0.057566,0.012 -0.21875,-0.012 -0.011513,-0.012 0.023026,-0.049 z m 9.0032897,0.036 -0.04605,0.036 0.02303,0.085 0.04605,0.036 -0.01151,0.134 -0.04605,0.024 -0.03454,0.085 0.115132,0.1704 0.06908,-0.024 0.01151,-0.049 -0.08059,-0.073 0.04605,-0.061 0.05757,0 0.03454,0.049 0.01151,-0.097 0.103618,-0.097 0.06908,-0.012 -0.05757,-0.097 -0.02303,-0.036 -0.03454,0.024 -0.03454,0.049 -0.08059,-0.012 -0.08059,-0.061 -0.05757,-0.073 z m -9.6134871,0.024 -0.092105,0.012 0,0.073 -0.1036184,0.024 0.034539,0.1826 -0.080592,0.036 -0.011513,0.097 0.057566,0.073 -0.011513,0.073 0.080592,0.049 0,0.097 0.092105,0.024 0.023026,0.061 0.046053,0 0.034539,-0.049 0.092105,-0.012 0.1151315,-0.049 0.011513,-0.061 -0.1266447,-0.1217 -0.011513,-0.024 0.1381579,-0.085 0.080592,-0.012 -0.057566,-0.085 -0.011513,-0.207 -0.057566,-0.061 -0.069079,-0.024 -0.080592,0.036 -0.046053,0 -0.046053,-0.049 z m -0.21875,0.1217 -0.1266447,0.061 0.023026,0.024 0,0.073 -0.023026,-0.012 -0.034539,-0.049 -0.069079,0.1217 0.1151316,0.024 0.034539,0.049 0.023026,0 0.011513,-0.1095 0.069079,-0.024 -0.023026,-0.1582 z m 1.7269737,0.049 -0.046053,0.1339 -0.21875,0 -0.069079,-0.036 -0.1036184,0 -0.080592,0.049 0.023026,0.085 -0.080592,0.1704 0,0.073 0.03454,0.024 0.2302632,0.012 0.069079,-0.049 0.069079,0.024 0.092105,0.1339 -0.069079,0.134 0.080592,0.036 0.1151316,-0.1461 0.069079,0.012 0.057566,0.049 -0.057566,0.073 0.080592,0.1218 0.069079,0 0.034539,-0.085 0.080592,-0.012 0.011513,-0.061 -0.1496711,-0.024 0,-0.073 0.1496711,0 0.149671,-0.1339 0.069079,-0.061 0.011513,-0.207 -0.3108553,-0.024 -0.1151316,-0.1826 -0.092105,-0.036 -0.1036184,0 z m -1.96875,0.1948 -0.023026,0.049 0.1957237,0.1339 0.057566,0.012 0,-0.061 -0.046053,-0.061 -0.023026,0 -0.046053,-0.049 -0.1151316,-0.024 z m 0.8404606,0.037 -0.080592,0.012 -0.1151315,0.085 0.1151315,0.1218 0.080592,0 0.046053,0 0.069079,0.049 0.1266448,-0.1096 -0.1266448,-0.097 -0.1151315,-0.061 z m -0.875,0.024 -0.057566,0.024 -0.1266448,0.1461 -0.046053,0 -0.046053,-0.037 -0.03454,0 -0.023026,0.085 -0.1842106,0.012 0.011513,0.036 0.1151316,0.085 0.149671,0.1217 0,0.1583 -0.080592,0.1339 0.1726974,0.085 0.1726974,0.012 0.046053,-0.061 0.1036184,0 0.034539,0.024 0.1151316,0 0.046053,-0.085 -0.069079,-0.085 0,-0.049 0.011513,-0.061 -0.03454,-0.061 -0.057566,0.024 -0.011513,-0.049 0.1381579,-0.1583 0,-0.097 -0.092105,-0.049 -0.046053,-0.012 -0.2072368,-0.1461 z m 9.3026318,0.061 -0.04605,0.024 -0.04605,0.1704 -0.09211,0 -0.103618,0.1218 0.01151,0.097 0.05757,0.024 0.01151,0.1826 0.103618,0.012 0.103619,-0.1217 -0.03454,-0.036 0,-0.1217 0.09211,-0.1218 -0.04605,-0.085 0.02303,-0.036 0.02303,-0.085 -0.05757,-0.024 z m -8.1743424,0.085 -0.1266447,0.1096 0.023026,0.024 0,0.024 0.21875,0 0.1611842,-0.073 0,-0.073 -0.03454,0.012 -0.046053,-0.024 -0.023026,0 -0.069079,0.024 -0.1036184,-0.024 z m 9.1184214,0 -0.06908,0.085 0,0.073 0.03454,0.049 0.01151,0.1827 -0.09211,0.1095 -0.04605,-0.024 -0.03454,0.085 -0.01151,0.085 0.03454,0.049 -0.02303,0.036 -0.05757,-0.061 -0.04605,0 -0.04605,0.024 -0.02303,0.012 -0.138158,0.1704 0.02303,0.037 0.06908,0.012 0.126645,-0.1096 0.09211,-0.012 0.08059,0.097 0.05757,-0.024 0.02303,-0.097 0.115131,0 0.115132,-0.1461 -0.05757,-0.2435 -0.02303,-0.1217 0.05757,-0.049 -0.138158,-0.2191 -0.03454,0 z m -9.4407898,0.061 -0.011513,0.073 -0.1266447,0.061 -0.092105,0.012 -0.023026,0.037 0.023026,0.024 0.057566,-0.012 0.057566,0 0.069079,0.061 0.1266447,-0.036 0.092105,-0.049 0.023026,-0.049 0,-0.049 -0.092105,-0.073 -0.1036184,0 z m 0.9555921,0.024 -0.046053,0.049 0.080592,0.1339 0,0.085 0.03454,0 0.069079,-0.1339 -0.092105,-0.1217 -0.046053,-0.012 z m -0.3453947,0.012 -0.1611842,0.085 -0.21875,0 -0.03454,0.061 0,0.085 0.057566,0.024 0.1611842,0 0.21875,-0.1948 0,-0.049 -0.023026,-0.012 z m 0.057566,0.024 -0.011513,0.049 -0.1611842,0.146 0.1381579,0.207 0.080592,0.073 0.1611842,0 0.057566,-0.049 0.069079,-0.012 0.046053,0.036 0.092105,-0.1096 -0.011513,-0.061 -0.092105,-0.024 -0.069079,0 0,-0.097 -0.080592,-0.146 -0.21875,-0.012 z m -1.1167764,0.061 -0.1266447,0.1339 0,0.012 0.057566,-0.012 0.046053,0.061 0.069079,-0.024 0.057566,0.049 0.023026,-0.012 0.069079,-0.1095 -0.023026,-0.024 -0.057566,0 -0.034539,-0.073 -0.080592,0 z m 0.6217106,0.073 -0.069079,0.049 -0.1381579,0.024 0.023026,0.085 0.092105,0 0.092105,-0.073 0,-0.085 z m -0.3453948,0.024 -0.069079,0.012 -0.057566,0.097 -0.046053,0.036 -0.057566,-0.049 -0.069079,0.024 -0.011513,0.049 0,0.049 0.069079,0.085 0.1036184,0 0.2417764,0.2922 0.149671,0.049 0.080592,0.085 0.023026,0.1948 0.046053,-0.024 0.034539,-0.1096 0,-0.085 0.069079,0 0,-0.049 -0.1842105,-0.097 -0.1842106,-0.1948 -0.080592,-0.1095 -0.011513,-0.1096 0.092105,-0.024 -0.023026,-0.073 -0.057566,-0.049 -0.057566,0 z m 3.3157895,0.024 -0.1266447,0.049 0.080592,0.2557 0,0.097 0.046053,0 0.069079,-0.1339 0.1726973,0 0.034539,0.097 0.3799342,0.2678 0.1381579,0.036 0.046053,0.097 0.080592,0 0,-0.1583 -0.080592,-0.049 0.1381579,-0.1826 0.057566,0 0.057566,0.073 0.1496711,-0.061 -0.2072369,-0.085 -0.011513,-0.037 -0.046053,0.012 -0.046053,0.085 -0.2072368,-0.012 -0.1496711,-0.2191 -0.2648026,0.024 -0.1266448,-0.1338 -0.1842105,-0.024 z m -2.6710526,0.024 -0.057566,0.049 -0.023026,0 -0.023026,0.061 0.069079,0.085 0.011513,0.073 -0.092105,0.1218 0.011513,0.036 0.046053,0.012 0.046053,-0.049 0.023026,0 0.03454,0.036 0.1036184,-0.036 -0.011513,-0.1705 -0.1381579,-0.2191 z m -0.2763158,0.024 -0.1036184,0.085 -0.1036185,0 -0.011513,0.073 0.046053,0.012 0.023026,-0.036 0.046053,0.036 0.023026,0.1096 0.1957237,0.097 0.023026,-0.024 -0.1957237,-0.2191 0.011513,-0.036 0.1957236,-0.012 0.023026,-0.061 -0.1266448,0 -0.046053,-0.024 z m 4.1907895,0.061 -0.057566,0.1339 -0.069079,-0.073 -0.057566,0 -0.011513,0.073 0.011513,0.049 0.2417764,0.085 -0.2072369,0.097 -0.03454,-0.024 -0.046053,0.036 0.011513,0.012 0.023026,0.012 0.149671,0 0.080592,-0.024 0.092105,-0.1218 0.1266447,0.012 0.1496711,-0.2191 -0.4029605,-0.049 z m 4.1217104,0.024 -0.09211,0.1217 0.04605,0.024 0,0.036 -0.03454,0.024 0.03454,0.085 0.08059,0.1948 0.08059,0 0.08059,-0.1096 0.01151,-0.073 -0.03454,-0.1461 -0.172697,-0.1582 z m -8.3355262,0.024 -0.011513,0.024 0.1842105,0.2069 0.080592,-0.1095 -0.011513,-0.049 -0.057566,-0.072 -0.1842105,0 z m 0.8174342,0.097 -0.057566,0.012 -0.03454,0.049 -0.1842105,0 -0.069079,-0.049 0,0.146 0.046053,0.1096 0.1842105,0 0.080592,-0.061 0.080592,-0.036 -0.023026,-0.097 0.023026,-0.049 -0.046053,-0.024 z m 0.9786184,0.012 -0.080592,0.049 0.092105,0.1339 0.1266447,0.049 0.069079,0 0.1151316,-0.037 0.034539,-0.049 -0.3569079,-0.1461 z m 1.2549342,0.024 -0.057566,0.1339 -0.069079,0 -0.1151316,0 -0.011513,0.073 -0.1266447,0 0,0.1096 0.1266447,0.085 -0.034539,0.1218 0,0.061 0.057566,0 0.069079,-0.097 0.1496711,-0.036 0.3338815,0.1339 0.011513,0.097 0.1842105,0.024 0.2072369,-0.2313 -0.023026,-0.073 -0.1381578,-0.036 -0.3914474,-0.2679 -0.023026,-0.097 -0.1496711,0 z m -4.8009868,0.012 -0.046053,0.012 -0.034539,0.085 0.011513,0.097 0.1381579,0.012 0.023026,0.061 -0.069079,0.3653 0.011513,0.061 0.092105,0.061 0.1151316,0 0.2302631,-0.049 0.1036185,-0.1583 0,-0.1461 0.1957237,-0.1826 0.011513,-0.085 -0.1726974,0 -0.1842105,-0.097 -0.3569079,0 -0.069079,-0.037 z m 1.2664473,0.097 -0.057566,0.061 0,0.049 0.046053,0.036 0.011513,-0.012 0.011513,-0.073 -0.011513,-0.061 z m 4.444079,0 -0.1151316,0.1461 0.069079,0.061 0,0.1582 0.046053,0 0.069079,-0.024 0,-0.049 0.080592,-0.073 0.057566,0.061 0,0.097 0.069079,0 0.011513,-0.073 0.069079,-0.012 0.046053,0 0.023026,0.049 0.023026,0 0.011513,-0.036 -0.046053,-0.1096 -0.1036184,-0.012 -0.023026,-0.061 -0.023026,0 -0.057566,0.024 -0.1611842,-0.012 -0.046053,-0.024 0,-0.036 0.057566,-0.049 -0.011513,-0.024 -0.046053,0 z m -1.7845395,0.024 -0.03454,0.049 0.1381579,0.1826 0.046053,-0.012 0.080592,0.085 0.034539,-0.1461 0.080592,0.012 -0.011513,-0.049 -0.1266447,-0.1218 -0.03454,0.073 -0.1726974,-0.073 z m -1.8766447,0.012 -0.03454,0.049 0,0.1339 0.03454,0.085 0.023026,-0.012 0.046053,-0.085 -0.023026,-0.037 -0.011513,-0.1096 -0.034539,-0.024 z m 0.1611842,0 -0.1036184,0.024 0.011513,0.085 0.023026,0.036 0.1036185,-0.061 -0.03454,-0.085 z m 0.7828947,0 -0.1611842,0.1218 -0.149671,0 -0.011513,0.097 -0.1611842,0 -0.069079,0.061 0,0.037 0.046053,0.036 0,0.036 -0.023026,0.049 0.023026,0.036 0.046053,-0.024 0.057566,0.061 -0.011513,0.036 -0.023026,0.024 0.023026,0.036 0.1496711,0.036 0.1036184,-0.049 0,-0.061 0.057566,0.012 0.1151316,0.073 0.1266447,-0.024 0.057566,-0.061 0.03454,0.012 0,0.073 0.057566,0 0.034539,-0.097 0.3799343,-0.036 0.1726973,-0.024 -0.046053,-0.061 0,-0.085 0.03454,-0.036 -0.1266448,-0.1096 0.011513,-0.085 -0.069079,0 -0.1151315,-0.049 -0.057566,0.061 -0.2302632,0 -0.1381579,-0.085 -0.1381579,-0.012 z m -0.368421,0.012 -0.080592,0.036 0,0.1096 0.092105,-0.036 0.03454,-0.024 -0.011513,-0.049 -0.034539,-0.036 z m 1.2549342,0.036 -0.1151316,0.036 -0.011513,0.073 0.1266448,0.1096 0.092105,0.024 0.046053,-0.049 -0.1381579,-0.1948 z m -1.3585527,0.012 -0.057566,0.049 -0.1957237,-0.012 -0.1151316,0.073 -0.069079,0.1096 0,0.049 0.1266447,0.061 0.069079,0.024 -0.034539,0.036 -0.069079,0.012 -0.011513,0.036 0.023026,0.061 0.080592,0.049 0.034539,0 0,-0.1095 0.057566,-0.061 -0.149671,-0.1826 0.023026,-0.061 0.03454,0 0.057566,0.036 0.034539,-0.012 0,-0.061 0.1611842,0 0,-0.097 z m -2.5904605,0.037 -0.011513,0.2556 -0.057566,0.049 0.011513,0.024 0.034539,0.061 -0.023026,0.085 0.034539,0.012 0.092105,-0.012 -0.011513,-0.073 0.057566,-0.3531 -0.011513,-0.049 -0.1151316,0 z m 10.8223682,0.049 -0.08059,0.085 0,0.085 0.02303,0.024 0.103618,-0.097 -0.01151,-0.085 -0.03454,-0.012 z m -9.498355,0.012 -0.069079,0.036 0.011513,0.1582 0.057566,0.012 0.046053,-0.049 0,-0.1461 -0.046053,-0.012 z m 4.6052631,0.049 -0.057566,0.061 0,0.049 -0.092105,0.036 -0.1611842,0 -0.21875,0.2313 -0.1957237,-0.012 0.046053,0.3652 0.1151316,0.024 0.011513,0.073 -0.080592,0.073 0.149671,0.1217 0.287829,-0.1095 0.023026,-0.134 0.1842105,-0.1217 0.069079,-0.28 0.057566,-0.061 -0.057566,-0.097 0.1842106,-0.1095 -0.023026,-0.036 -0.092105,0 0,0.085 -0.1151316,0 0,-0.1095 -0.034539,-0.049 z m -1.7845394,0.024 -0.03454,0.012 -0.057566,0.073 -0.1151316,-0.024 -0.034539,0.036 0.011513,0.061 0.03454,0.073 0.1611842,0.1704 -0.023026,0.073 -0.03454,0 -0.011513,0.073 0.092105,0.1096 0.080592,0.012 0.1611842,0.2313 0.080592,0.012 0.080592,0.049 0,0.1095 0.2763158,0.1705 0.1036184,0 0.057566,-0.061 0.080592,0 0.046053,0.1096 0.2993421,0.049 0.011513,-0.1218 0.1036185,-0.036 0,-0.036 -0.080592,-0.1217 -0.1726974,-0.1462 0.092105,-0.085 -0.011513,-0.036 -0.1151316,-0.024 -0.046053,-0.4139 0,-0.085 -0.3223684,-0.1339 -0.1381579,0.036 -0.069079,0.097 -0.069079,0 -0.023026,0.012 -0.1496711,-0.012 -0.1957237,-0.146 -0.069079,-0.085 z m 6.4358553,0.012 -0.04605,0.049 0.01151,0.073 0.04605,0 0.02303,0.1583 0.03454,0.036 0.05757,-0.061 0.02303,-0.097 -0.06908,-0.1096 -0.08059,-0.049 z m -9.7171053,0.024 -0.046053,0.024 0.011513,0.036 0.057566,0 0.034539,-0.024 -0.057566,-0.036 z m 5.399671,0.012 -0.034539,0.049 -0.023026,0 -0.1611842,0.1096 0.046053,0.097 -0.057566,0.061 -0.069079,0.2922 -0.1842105,0.1218 -0.023026,0.1339 -0.2993421,0.1096 0.080592,0.1095 -0.011513,0.061 -0.092105,0.049 -0.011513,0.097 0.1151316,0 0.034539,-0.037 0.21875,0 0.1957237,0.1826 0.023026,-0.085 0.1381579,0 0,-0.1096 -0.1381579,-0.1582 0.023026,-0.073 0.1611842,-0.012 0.1957237,-0.4504 -0.1151316,-0.097 -0.034539,-0.1582 0.2763159,-0.024 -0.1611843,-0.2434 -0.092105,-0.024 z m -4.5592105,0.1461 -0.1381579,0.024 0.011513,0.036 0.1266447,0.061 0.011513,0.024 0.034539,0.012 0,-0.1339 -0.046053,-0.024 z m -2.9358553,0.061 -0.01151,0.036 0.02303,0.024 0.05757,-0.037 -0.06908,-0.024 z m 5.1809211,0 -0.1611842,0.024 -0.046053,0.2313 -0.1842105,0.1583 0.011513,0.073 0.1842105,0.012 0.2878289,0.2434 0.1611843,0 0,-0.061 0.057566,-0.061 0.080592,0.049 0.011513,-0.012 -0.149671,-0.2191 -0.080592,-0.012 -0.1036185,-0.134 0.023026,-0.097 0.03454,0 0.011513,-0.049 -0.1381579,-0.1461 z m -2.5444079,0.024 -0.1496711,0.061 0.046053,0.2191 -0.057566,0.036 0.011513,0.097 0.1036185,0.1096 0,0.1096 0.023026,0.036 0.046053,-0.012 0,-0.1096 0.03454,0 0.080592,-0.1339 -0.1036184,-0.049 0,-0.024 0.023026,-0.049 0,-0.1096 -0.023026,-0.012 0,-0.061 0.023026,-0.036 0,-0.036 -0.057566,-0.036 z m 2.3601974,0 -0.3569079,0.037 -0.046053,0.085 -0.069079,0 -0.011513,0.073 0.080592,0.037 0,0.207 0.080592,0 0.069079,-0.061 0.03454,-0.012 0.1842105,-0.1461 0.03454,-0.2191 z m -2.6595395,0.024 -0.4835526,0.097 -0.1036185,0.085 0.069079,0.3531 -0.1957237,0.012 -0.1151316,0.1948 -0.2763158,0.061 0,0.1461 0.9095395,0.7304 0.1496711,0.012 0.5180921,-0.4262 -0.057566,-0.061 -0.092105,-0.012 -0.057566,-0.1096 0,-0.4261 -0.03454,-0.036 0,-0.1096 -0.1036184,-0.1096 -0.011513,-0.1217 0.046053,-0.024 -0.023026,-0.1339 -0.023026,-0.073 -0.1151316,-0.049 z m 5.4226974,0.037 -0.2648027,0.024 0.03454,0.1217 0.1266447,0.1096 -0.21875,0.4748 -0.149671,0.012 -0.023026,0.049 0.149671,0.1461 -0.011513,0.1461 -0.1496711,-0.012 -0.011513,0.073 0.1151316,0 0.011513,0.049 -0.092105,0.049 0.057566,0.1217 0.1036184,0.036 0.069079,-0.061 0.03454,-0.085 0.034539,-0.024 0.046053,0.049 -0.011513,0.1217 -0.03454,0.061 0.011513,0.097 0.4605264,1.0226 0.1381579,-0.073 0.069079,-0.2922 0,-0.3652 0.4490132,-0.4992 0,-0.1217 0.080592,-0.036 0,-0.146 -0.092105,-0.1948 0.057566,-0.1096 0.1151316,0.1217 0.1611846,0 0,0.073 -0.04605,0.049 0.01151,0.037 0.08059,0 0.01151,0.097 0.03454,0 0.05757,-0.1096 0.03454,-0.3165 0.103618,-0.085 0,-0.1096 -0.03454,-0.085 -0.06908,0 -0.264803,0.1826 0.02303,0.1218 -0.1842101,0 -0.069079,-0.085 -0.034539,0 0.011513,0.1218 -0.3914474,-0.036 -0.2532894,-0.1096 -0.011513,-0.1461 -0.1611842,-0.1095 0,-0.2192 -0.1151316,-0.1339 z m -3.3388158,0.085 -0.080592,0.036 -0.080592,0.012 0,0.049 0.03454,0.024 0.057566,0.012 0.1036184,-0.1096 -0.034539,-0.024 z m -1.4391448,0.012 -0.046053,0.012 0,0.049 0.046053,0.024 0.023026,-0.024 -0.023026,-0.061 z m 0.6907895,0 -0.023026,0.036 0.03454,0.012 0.023026,0.036 0.1266447,0 0.03454,-0.049 -0.023026,-0.012 -0.03454,0.012 -0.069079,0 -0.023026,-0.036 -0.046053,0 z m -2.2680921,0.061 -0.069079,0.1461 -0.149671,0.073 -0.1151313,0.3531 -0.241777,0.1461 -0.333881,0.5843 0.322368,-0.012 0.01151,-0.1704 0.09211,0 0,-0.2313 0.2878286,0 0,-0.3043 0.2763158,-0.061 0.1266447,-0.1948 0.1726974,-0.012 -0.057566,-0.3166 -0.3223684,0 z m 3.1085526,0 0,0.061 -0.023026,0.085 0.080592,0.012 0,-0.134 -0.057566,-0.024 z m -3.9259869,0.1217 -0.03454,0.036 0.03454,0.036 0.04605,-0.024 -0.04605,-0.049 z m 3.8914475,0.049 -0.034539,0.1461 0.057566,0.1826 0.057566,-0.2678 0,-0.049 -0.080592,-0.012 z m 0.2763157,0.012 -0.080592,0.061 -0.092105,0.012 -0.069079,0.2557 0,0.036 0.1036184,0 0.1266448,-0.1217 0,-0.037 -0.046053,-0.061 0.092105,-0.073 -0.011513,-0.073 -0.023026,0 z m -1.9572368,0.012 -0.092105,0.1582 -0.023026,0 -0.011513,0.1096 -0.046053,0 0,0.4139 0.046053,0.097 0.1036184,0.012 0.057566,0.085 0.2417763,0.061 0.057566,-0.036 0.587171,0.3165 0.092105,0.012 -0.011513,-1.1079 -0.1266447,-0.024 -0.069079,-0.085 -0.1611843,0 -0.080592,0.073 0,0.037 0.046053,0.049 0.011513,0.049 -0.1151316,0.061 -0.21875,-0.1096 -0.057566,-0.097 -0.2302632,-0.073 z m 2.0148026,0.073 -0.080592,0.073 0.034539,0.037 0,0.061 -0.1381579,0.1339 -0.1151316,0 0.023026,0.085 0.3914474,0.4991 0,0.1339 0.03454,0.061 0.1036184,0.061 0.1611842,0.2678 0.1151316,-0.1096 0.1842105,0.1218 0.1611842,-0.1583 0.287829,-0.097 0.2072368,-0.1217 0.03454,-0.1704 -0.03454,-0.012 -0.3108552,-0.024 -0.023026,-0.1339 -0.069079,-0.061 -0.1957237,-0.2922 -0.1381579,-0.049 -0.011513,-0.049 -0.1726974,0.012 -0.287829,-0.2557 -0.1611842,-0.012 z m 3.3848685,0 -0.1381579,0.036 0.011513,0.1217 0.2302631,0.1096 0.3684211,0.036 -0.011513,-0.097 -0.2532894,-0.073 -0.2072369,-0.1339 z m -3.9950658,0.024 -0.092105,0.073 -0.069079,0 -0.149671,-0.049 -0.069079,0 0.011513,0.9008 0.725329,0.012 0.080592,-0.097 -0.011513,-0.1461 -0.2648026,-0.353 -0.03454,-0.1096 0.011513,-0.073 0.046053,0.012 0.057566,0.1948 0.046053,0.024 0.023026,-0.024 -0.011513,-0.085 -0.023026,-0.061 -0.057566,-0.1826 -0.011513,0 -0.092105,0 -0.080592,-0.036 -0.034539,0 z m 5.1348684,0.061 0,0.1217 -0.103618,0.073 -0.03454,0.3166 -0.06908,0.1217 -0.01151,0.1461 -0.04605,0.024 0.195723,0.1948 0.04605,0.097 0.02303,0.1217 0.02303,0.036 0.06908,0 0.04605,-0.097 0.02303,-0.037 0.08059,0.1583 0.01151,0.1704 0.04605,0.012 0.05757,0.1096 -0.05757,0.085 0.08059,0.1339 0.02303,-0.073 0,-0.1704 -0.103618,-0.1704 -0.01151,-0.037 0.03454,-0.036 0,-0.1095 -0.149671,-0.2071 0.02303,-0.1338 0.195723,-0.085 0.04605,-0.085 -0.161184,-0.024 -0.02303,-0.1461 -0.115131,-0.049 -0.04605,-0.1217 0.06908,-0.1705 -0.103619,-0.146 -0.05757,-0.024 z m -3.8338816,0.049 -0.046053,0.049 0,0.097 0.1036184,0.036 0,-0.1461 -0.057566,-0.036 z m 3.4194076,0.049 -0.172697,0.024 0.03454,0.061 0.149671,0 -0.01151,-0.085 z m 2.44079,0.024 -0.103619,0.085 0,0.1582 0.08059,0.098 0.02303,-0.012 0,-0.3287 z m -10.8799341,0.1217 -0.04605,0.036 0.05757,0.049 0.03454,-0.073 -0.04605,-0.012 z m 8.2664471,0.024 -0.034539,0.073 0.092105,0.1947 0,0.1462 0.023026,0.036 0.115132,0.012 0.05757,-0.073 0.04605,0.036 0.01151,0.085 0.04605,-0.024 0,-0.1095 -0.03454,-0.012 -0.02303,-0.097 -0.08059,0 -0.01151,-0.061 0.04605,-0.061 0,-0.037 -0.1381583,0 -0.1151316,-0.1095 z m -7.9440791,0.012 -0.05757,0.036 0.02303,0.024 0.03454,-0.061 z m -0.18421,0.012 -0.05757,0.012 0.03454,0.049 0.04605,0 -0.02303,-0.061 z m 5.2499996,0.1218 -0.046053,0.036 -0.011513,0.1096 0.046053,0.036 0.03454,0 0.011513,-0.1461 -0.034539,-0.036 z m 0.3914473,0.012 -0.092105,0.024 -0.1036185,0.1583 -0.1957236,0.012 0.023026,0.1095 0.2763158,0.024 0.023026,-0.2192 0.046053,-0.024 0.023026,-0.085 z m -5.03125,0.012 0,0.1218 -0.2878289,0 0,0.2312 -0.09211,0 -0.01151,0.1705 -0.345395,0.012 0.05757,0.085 -0.01151,0.3652 0.09211,-0.061 0.06908,-0.012 0.09211,0.024 0.09211,0.1582 0.103619,-0.073 0.4720391,0 -0.1151316,-0.8279 0.1151316,0 -0.2302632,-0.1947 z m 8.7730262,0.049 -0.103618,0.061 0.03454,0.146 0.138158,0.024 0.03454,0.1095 -0.04605,0.036 0,0.024 0.333881,0.3409 0.01151,0.097 -0.02303,0.3043 -0.230263,0.1826 0.03454,0.049 0.01151,0.061 0.08059,0.012 0.115131,-0.1461 0.103619,-0.036 0.04605,-0.1461 -0.02303,-0.2557 -0.103618,-0.1583 -0.115132,-0.085 -0.138158,-0.2557 0.103619,-0.1826 -0.149671,-0.1704 -0.115132,-0.012 z m -3.7532893,0.049 -0.046053,0.024 -0.011513,0.1948 0.046053,0.024 -0.03454,0.1948 -0.21875,0.1218 0.1151316,0.2069 0.1381579,0 0.3108553,-0.4869 0,-0.073 -0.2532895,-0.1461 -0.046053,-0.061 z m 3.6266443,0.024 -0.05757,0.036 -0.05757,0.1826 0.09211,0.1217 -0.02303,0.1461 0.02303,0 0.161185,-0.073 0.207237,0.2435 0,0.1582 0.04605,0.037 0.115132,-0.097 -0.01151,-0.085 -0.333881,-0.3287 0,-0.049 0.04605,-0.036 -0.02303,-0.085 -0.138158,-0.024 -0.04605,-0.1461 z m -8.5082233,0.097 0.1151316,0.8278 -0.4835524,0 -0.09211,0.061 0.103618,0.1461 -0.01151,0.049 0.161184,-0.012 0.057566,0.1582 0.2072368,0 0.057566,-0.1704 0.2993421,-0.2313 0.3914474,-0.036 0.023026,-0.28 -0.080592,-0.012 -0.6217105,-0.4991 -0.1266448,0 z m 1.4506579,0.085 -0.5180921,0.4383 -0.080592,-0.012 -0.023026,0.2922 -0.2648026,0.036 0.149671,0.2434 0.069079,-0.012 0.069079,-0.097 0.1151316,-0.024 0.1151316,0.073 0.2417763,0.012 0.1957237,-0.085 0.069079,-0.061 0.011513,-0.085 0.1381579,-0.1461 0.034539,-0.3165 -0.092105,-0.1948 -0.2302632,-0.061 z m 0.3223684,0.024 -0.069079,0.037 0.092105,0.1826 -0.034539,0.3409 -0.1381579,0.1339 0,0.097 -0.069079,0.061 0.092105,0.073 0.069079,0.012 0,0.2191 -0.046053,0.036 -0.011513,0.037 0.046053,0.024 0.057566,0.1217 0.092105,0.012 0,-0.036 0.1496711,0.012 0,-0.073 0.2072368,-0.207 0.1266448,0 -0.069079,-0.1461 0,-0.1704 0.1036184,-0.097 0,-0.3287 -0.5986842,-0.3409 z m 7.4375,0.012 -0.06908,0.024 -0.05757,0.061 0.04605,0.085 0.05757,0 0.06908,-0.061 0.01151,-0.085 -0.05757,-0.024 z m -5.90625,0.012 -0.1036184,0.1096 -0.7368421,0 0.011513,0.1948 -0.069079,0 -0.011513,0.353 -0.1036185,0.097 0,0.1461 0.069079,0.1583 0.092105,0.049 -0.011513,0.097 -0.03454,0.024 0.3453948,0.3773 0.1957236,0.012 0.023026,0.036 0.2763157,0.012 0,-0.061 0.023026,-0.049 0.092105,-0.012 -0.1151316,-0.1704 -0.080592,0 -0.023026,-0.1218 0.069079,-0.036 0.1957237,-0.4383 0,-0.2435 0.1266447,-0.1461 -0.2302632,-0.3895 z m 5.054276,0 -0.18421,0.073 -0.01151,0.1217 0.149671,0.1948 0,0.1339 -0.03454,0.036 0.01151,0.012 0.103618,0.1704 0,0.1948 -0.04605,0.085 -0.01151,0.061 -0.03454,0.073 0.02303,0.085 0.09211,0.085 0.08059,0 0.06908,0.1096 0.08059,0 0.01151,-0.036 -0.149671,-0.1584 -0.09211,-0.1583 0.01151,-0.3774 0.02303,-0.036 0.05757,0 0,0.085 0.126645,0.097 0.04605,-0.024 0,-0.073 -0.05757,-0.024 -0.01151,-0.073 0.06908,-0.1096 0.03454,0 0.05757,0.024 0.05757,0.012 0,-0.1461 -0.172698,-0.207 -0.02303,-0.012 -0.149671,0.073 -0.03454,-0.012 0,-0.1583 -0.09211,-0.1217 z m 1.738487,0.073 -0.06908,0.049 -0.01151,0.1826 0.115132,0.2313 0.04605,0.036 0.04605,-0.036 0.08059,0.012 0.02303,0.073 0.05757,0.012 0.03454,-0.049 -0.04605,-0.049 -0.04605,-0.049 -0.09211,-0.012 -0.05757,-0.085 0.05757,-0.097 0.01151,-0.085 -0.04605,-0.1096 -0.103619,-0.024 z m -5.5032893,0.2433 -0.2763158,0.097 -0.1611842,0.1583 -0.1842105,-0.1096 -0.1036184,0.097 0.046053,0.1339 0,0.1218 0.046053,0.061 0.046053,0.036 0.6907894,-0.3043 0.011513,-0.085 -0.1151316,-0.2069 z m -0.6332237,0.56 -0.046053,-0.024 -0.057566,0.073 -0.011513,0.1095 0.1036184,0 0.011513,-0.1582 z m -0.4144736,-0.4626 -0.1151316,0.1339 0.011513,0.1705 0.2072369,0 0.1957237,0.1826 0.046053,-0.061 -0.2648026,-0.207 -0.057566,-0.1947 -0.023026,-0.024 z m 5.1694076,0.1461 -0.02303,0.012 -0.05757,0.097 0.01151,0.049 0.05757,0.024 -0.01151,0.097 -0.03454,0.024 0.115132,0.1339 0.21875,-0.1704 0.01151,-0.2679 -0.103618,0.085 -0.05757,-0.036 -0.08059,-0.012 -0.04605,-0.036 z m -9.3832231,0.024 -0.05757,0.012 -0.115132,0.085 -0.02303,0.049 -0.01151,0.049 0.04605,0.024 0.138158,0 0.09211,-0.024 0,0.049 0,0.061 0.08059,0.036 0.02303,0.024 0.103618,0 0.01151,-0.049 -0.103619,-0.1339 -0.115131,-0.1582 -0.06908,-0.024 z m 10.8108551,0 0.02303,0.085 0.03454,0.024 0.02303,-0.036 -0.04605,-0.061 -0.03454,-0.012 z m -11.5131581,0.012 -0.04605,0.036 0.03454,0.036 0.04605,-0.024 -0.03454,-0.049 z m 0.138158,0.073 -0.03454,0.024 0.02303,0.049 0.05757,-0.024 -0.04605,-0.049 z m 11.7434211,0 -0.06908,0.012 0.05757,0.073 0.02303,0.073 0.04605,0 -0.01151,-0.1218 -0.04605,-0.036 z m -9.981908,0.036 -0.1036184,0.012 -0.2993421,0.2312 -0.046053,0.1583 0.03454,0.049 0.1266447,-0.012 0.034539,-0.085 0.1496711,-0.012 0.1151315,0.036 0.1496711,-0.1218 -0.1611842,-0.2556 z m 9.740132,0.037 -0.01151,0.146 0.05757,0.061 0.01151,0.097 0.05757,0.012 0.02303,-0.061 -0.03454,-0.036 -0.01151,-0.1826 -0.09211,-0.036 z m -11.5822371,0.012 -0.04605,0.036 0.04605,0.061 0.04605,-0.012 -0.04605,-0.085 z m 4.754934,0 -0.2072368,0.487 -0.069079,0.012 0.011513,0.097 0.080592,0 0.1266447,0.1948 0.069079,0.024 0.1611842,0.1461 0.092105,0 0.368421,-0.1217 0.2648026,-0.3044 -0.1381578,0 -0.2302632,-0.1461 -0.011513,-0.085 -0.149671,0 0.011513,-0.1461 -0.1726973,-0.1582 -0.2072369,0 z m -4.064145,0.049 -0.05757,0.024 -0.138158,0.012 0,0.024 0.195723,0 0.01151,-0.036 -0.01151,-0.024 z m 11.0296061,0 0,0.1339 0.03454,0.049 0.04605,-0.061 -0.01151,-0.1218 -0.06908,0 z m -0.368422,0.012 -0.02303,0.049 -0.01151,0.061 -0.138158,0.1704 0.01151,0.049 0.05757,-0.012 0.172698,-0.2069 -0.06908,-0.1096 z m -9.0838812,0.024 -0.092105,0.024 -0.046053,0.085 0,0.2313 -0.080592,0.1095 0,0.1705 0.1151316,0.012 0.1266447,0.1583 0.069079,0.012 0.046053,-0.024 0.080592,-0.012 0.023026,-0.1095 0.1151316,-0.073 0.1151316,-0.012 0.2072368,-0.4018 -0.011513,-0.097 -0.092105,-0.073 -0.1957237,0.085 -0.2532894,0 -0.1266448,-0.085 z m 3.8338816,0 -0.069079,0.024 -0.069079,0.012 0.069079,0.073 0.080592,-0.061 0.023026,-0.012 -0.03454,-0.037 z m -5.6069075,0.049 0.03454,0.097 0.01151,-0.061 0.241777,0.024 -0.103619,-0.049 -0.18421,-0.012 z m 2.4638154,0.036 0,0.098 -0.2072368,0.4138 -0.1266448,0.012 -0.092105,0.061 -0.023026,0.1095 0.092105,0.085 -0.011513,0.1339 0.506579,-0.012 0.03454,-0.049 -0.1381579,-0.1582 -0.023026,-0.061 0.092105,-0.1826 -0.057566,-0.1217 -0.057566,-0.024 0,-0.061 0.057566,-0.049 0.011513,-0.1826 -0.057566,-0.012 z m -2.3947364,0.024 -0.02303,0.073 0.04605,0.085 0.103618,-0.1095 0,-0.024 -0.126644,-0.024 z m 5.3075653,0 -0.1151315,0.061 0.023026,0.1096 -0.023026,0.1096 -0.069079,0.061 -0.2878289,0.3287 -0.2072369,0.061 -0.092105,0.1217 0.011513,0.2922 0.069079,0.049 0.6217105,-0.6939 0.1151316,-0.3531 0,-0.1095 -0.046053,-0.036 z m 5.9868418,0 0.01151,0.097 -0.09211,0.073 -0.08059,0.012 -0.09211,0.097 0.01151,0.036 0.06908,-0.024 0.05757,-0.037 0.04605,0.1218 0.08059,0.061 0.03454,-0.012 0.03454,-0.037 -0.06908,-0.061 0.03454,-0.036 0.04605,0.036 0.03454,-0.049 -0.03454,-0.061 0,-0.1461 -0.09211,-0.073 z m -11.1447361,0.012 0,0.061 -0.115132,0.097 0.08059,0.1461 0.115132,-0.1096 0.115131,0 0.09211,0.1339 0.080592,0.061 0.034539,-0.073 0.023026,-0.012 0,-0.1339 -0.046053,-0.1705 -0.1726978,0.024 -0.207236,-0.024 z m 1.3240128,0 -0.1266448,0.097 0.057566,0.1096 0,0.3043 0.057566,0 0,-0.1826 0.080592,-0.1217 0,-0.1948 -0.069079,-0.012 z m 3.6957237,0.049 -0.287829,0.1096 -0.03454,0 -0.1151315,-0.085 0,0.085 0.21875,0.1339 0.1611842,0.012 0.057566,-0.049 0.023026,-0.097 -0.023026,-0.1096 z m -3.9950658,0.061 -0.1381579,0.012 -0.046053,0.3166 0.034539,0.073 0.080592,0.1339 0.046053,0 0.1266448,-0.073 -0.011513,-0.4261 -0.092105,-0.037 z m 0.149671,0.012 -0.023026,0.024 0,0.4139 0.080592,-0.049 0,-0.3044 -0.057566,-0.083 z m 1.6463816,0 -0.1842105,0.1948 -0.011513,0.085 -0.149671,-0.012 0,0.036 -0.1036185,-0.012 -0.092105,0.1826 0.023026,0.049 0.1266447,0.1461 0.057566,-0.061 0.080592,0 0.023026,-0.073 0.080593,-0.049 0.1726974,0.1217 0.092105,-0.1096 0.3799342,0.024 -0.3453947,-0.3897 0.046053,-0.024 0,-0.073 -0.080592,-0.036 -0.1151315,0 z m 4.7779606,0.024 -0.046053,0.024 0.011513,0.073 0,0.061 -0.03454,0.012 0.011513,0.1338 0.069079,0.036 0.092105,-0.061 -0.023026,-0.1461 0.011513,-0.049 -0.092105,-0.085 z m -7.0805922,0.012 -0.069079,0.012 0.011513,0.1582 -0.034539,0.012 -0.046053,0.073 0.1036184,0.1218 0.011513,0.1947 0.1266447,-0.097 0.1496711,-0.024 0.149671,0.036 -0.080592,-0.1339 -0.023026,-0.073 0.023026,-0.2312 -0.1381579,0.012 -0.057566,-0.061 -0.1266448,0 z m -0.3338817,0.061 -0.103618,0.012 -0.103619,0.085 0.161185,0.1582 0.115131,-0.1461 -0.06908,-0.1095 z m 10.2927631,0.085 -0.09211,0.1704 0.03454,0.097 -0.05757,0.085 -0.09211,-0.036 -0.241776,0.1948 0.01151,0.097 -0.115131,0 0.09211,0.098 0.322368,-0.1096 0.06908,-0.2679 0.149671,-0.012 0.126645,-0.1096 -0.172697,-0.1339 -0.03454,-0.073 z m -10.2006581,0.049 -0.115131,0.1461 0.3108551,0.2191 -0.011513,-0.1704 -0.092105,-0.1096 -0.092106,-0.085 z m 8.7615141,0.036 0.05757,0.1339 0.01151,0.1704 0.06908,0.134 0.18421,0.1095 0.06908,0.012 -0.01151,-0.1217 -0.05757,-0.1583 -0.09211,-0.1948 0,0.036 -0.115131,-0.012 -0.06908,-0.1096 -0.04605,0 z m -0.299343,0.061 0,0.073 0.195724,0.3409 0.04605,0 0.402961,0.7061 0.161184,0.024 0.08059,-0.2557 -0.126645,-0.085 -0.02303,-0.1339 -0.736842,-0.6696 z m 1.634869,0.049 -0.08059,0.1096 0.05757,0.024 0.04605,-0.061 -0.02303,-0.073 z m -3.5115134,0.049 0.011513,0.073 0.046053,0.024 0.011513,-0.073 -0.069079,-0.024 z m -2.8782895,0.061 -0.1036184,0.012 -0.011513,0.024 0,0.073 0.080592,0.1583 -0.092105,0.1948 -0.011513,0.061 0.4490132,0.3043 0.1381579,-0.2313 -0.069079,-0.061 0,-0.3165 0.092105,-0.097 -0.149671,0.049 -0.1036185,0 -0.1726973,-0.1461 -0.046053,-0.024 z m -1.3125,0.024 -0.069079,0.049 -0.03454,0.3896 -0.1151316,0.085 -0.034539,0.085 0.011513,0.1218 -0.2072368,0.1704 -0.046053,-0.024 0.011513,0.024 -0.069079,0.061 0.2993421,0 0.057566,0.085 0,0.061 0.023026,0.024 0.1381579,0 0.046053,-0.085 0.057566,0 0.023026,0.024 0.080592,0 0.023026,0.3043 0.1496711,0 0,0.024 0.3799342,0.1826 0.011513,0.037 0.080592,0 -0.011513,-0.1339 -0.1381579,-0.073 0.011513,-0.097 0.057566,-0.1461 0.1381579,0 -0.1151315,-0.4261 0,-0.1826 0.1842105,-0.3166 0.011513,-0.049 -0.034539,-0.012 0,-0.085 -0.03454,0 -0.034539,-0.049 -0.5756579,-0.036 -0.1036184,0.1096 -0.1726974,-0.1217 z m 7.8634869,0.012 -0.103618,0.012 -0.06908,0.2557 -0.356908,0.1339 -0.103619,-0.1339 -0.05757,0.012 0.09211,0.3896 0.149671,0.024 0.195724,0.073 0,0.085 0.08059,-0.024 0.138158,-0.1826 0,-0.1583 0.06908,-0.1583 0.08059,0.024 -0.09211,-0.2191 -0.02303,-0.1339 z m -3.6036184,0.061 -0.011513,0.097 0.034539,0.024 0.03454,-0.061 -0.057566,-0.061 z m -3.3042764,0.024 -0.011513,0.061 0.03454,0.036 0,0.061 -0.1381579,0.2069 0.092105,0.085 0.046053,-0.036 0.149671,-0.024 0.023026,0 0.011513,-0.061 0.080592,-0.1826 -0.069079,-0.1461 -0.21875,0 z m -1.8536184,0.012 -0.023026,0.061 0.046053,0.024 0.03454,-0.036 -0.011513,-0.049 -0.046053,0 z m 0.7138158,0.012 -0.092105,0.1339 -0.2302632,0.012 0,0.036 0.1381579,0.012 0,0.3652 -0.1151316,0 -0.069079,-0.061 -0.057566,0.037 -0.011513,0.012 0.034539,0.012 0.011513,0.085 -0.080592,0.061 0.011513,0.036 0.092105,-0.061 0.034539,0 0.011513,0.036 0.057566,0.024 0.1726974,-0.1583 0,-0.1095 0.034539,-0.085 0.1151316,-0.097 0.023026,-0.2921 -0.080592,0 z m 8.8651314,0.085 -0.05757,0.1339 0.08059,0.1217 0.03454,0 0.03454,-0.085 0.02303,-0.024 -0.04605,-0.036 -0.04605,-0.024 -0.02303,-0.085 z m -0.18421,0.024 -0.103619,0.097 -0.06908,0 -0.103618,-0.061 -0.08059,0.012 -0.08059,0.1339 -0.05757,0.2557 -0.02303,0.097 0.05757,0.085 -0.03454,0.1217 0,0.024 0.09211,0 0.03454,-0.3166 0.03454,0.012 0.04605,0.28 0.05757,0.024 0.04605,-0.1217 -0.04605,-0.1948 -0.04605,-0.073 0.138158,-0.098 -0.03454,-0.049 -0.126644,0.085 -0.03454,0 -0.05757,-0.097 0.02303,-0.036 0.103618,-0.061 0.149671,0.049 0.04605,0 0.126645,-0.1095 -0.05757,-0.061 z m -9.2796056,0.037 0,0.049 0.1266447,0 0,-0.049 -0.1266447,0 z m 0.1496711,0 0,0.073 -0.1611843,0 -0.1036184,0.1948 0.2302632,0.2678 0.057566,-0.049 0,-0.049 -0.034539,-0.024 0,-0.036 0.080592,-0.061 0.080592,0.073 0.092105,0 0,-0.3165 -0.1381579,-0.012 0,-0.061 -0.1036184,0 z m 4.8930921,0 -0.023026,0.036 0.034539,0.024 0.046053,-0.024 -0.057566,-0.036 z m -5.2730264,0.024 0.023026,0.049 0.023026,0.012 0.023026,-0.037 -0.023026,-0.024 -0.046053,0 z m -0.034539,0.097 -0.023026,0.012 0,0.037 0.023026,0.012 0.023026,-0.036 -0.023026,-0.024 z m 10.2236848,0.085 -0.115132,0.012 -0.06908,0.061 0.02303,0.061 0.126645,0.024 0,0.024 -0.08059,0.073 0.04605,0.146 0.03454,0 0.03454,-0.146 0.06908,0 0.02303,0.146 0.310855,0.2679 0,0.2069 0.115132,0.1218 0.04605,0 0.01151,-0.7426 -0.184211,-0.134 -0.172697,0.1218 -0.05757,0.036 -0.103619,-0.061 0,-0.2191 -0.05757,0 z m -8.3470401,0.012 -0.046053,0.073 0,0.085 0.1266447,0 0,-0.085 -0.080592,-0.073 z m 0.2993421,0.012 -0.1381579,0.036 -0.057566,0.037 0,0.085 -0.034539,0.1339 -0.03454,0.037 -0.057566,0.012 0.1036184,0.3409 0.1496711,0.085 0.1151315,0 0,0.024 -0.092105,0 0.046053,0.2192 -0.03454,0.1582 0.092105,0.1096 0,0.1217 0.011513,0.049 0.1151315,-0.1339 -0.011513,-0.1705 -0.057566,-0.049 0,-0.024 -0.03454,-0.134 0.4720395,-0.061 -0.1036184,-0.2313 -0.011513,-0.2192 0.034539,-0.1095 -0.4720395,-0.3166 z m 0.1151316,1.0713 0.080592,0.061 0.023026,0.1948 -0.1611842,0.1704 -0.03454,-0.097 0,-0.1217 -0.080592,-0.097 -0.2302631,0.1096 0.2072368,0.1095 0.011513,0.3166 -0.1381579,0.2191 0,0.2556 0.080592,0.073 0.1726973,-0.1218 0.03454,-0.1704 0,-0.28 0.287829,-0.2556 0.046053,0 0.1842105,-0.1705 -0.034539,-0.3652 -0.4605264,0.061 0.011513,0.1095 z m 7.5986844,-0.913 -0.115132,0.024 -0.03454,0.036 0.03454,0.049 0.06908,-0.024 0.04605,-0.037 0.06908,0.061 0.03454,-0.024 -0.05757,-0.073 -0.04605,-0.012 z m -7.9440791,0.012 -0.1151316,0.012 0,0.061 0.023026,0.073 0.03454,0 0.034539,-0.024 0.023026,-0.1217 z m 8.8766451,0.073 -0.01151,0.7304 0.103618,0 0.126645,-0.1704 0.115131,0.012 0.06908,0.061 0.02303,0.207 0.21875,0.1339 0.05757,-0.024 0,-0.085 -0.172697,-0.1583 -0.09211,-0.2192 0.06908,-0.036 -0.04605,-0.1096 -0.115132,-0.012 -0.02303,-0.1217 -0.276315,-0.207 -0.04605,0 z m -6.8733557,0.024 -0.046053,0.036 0.03454,0.061 0.057566,0 -0.046053,-0.097 z m -3.4539473,0.061 -0.069079,0.061 0.046053,0.073 0.057566,-0.073 -0.011513,-0.061 -0.023026,0 z m 3.4769736,0.097 -0.034539,0.037 0.023026,0.049 0.046053,0.012 0.011513,-0.097 -0.046053,0 z m -3.1891447,0.061 -0.2993421,0.012 0.092105,0.3774 0,0.1217 -0.1381579,0.1583 -0.023026,0.2678 0.5411184,0 0.1726973,0.073 0.1496711,-0.024 -0.080592,-0.1095 0,-0.3287 0.1611842,-0.012 0,-0.1217 -0.1381579,0 -0.023026,-0.3043 -0.057566,0 -0.03454,-0.024 -0.034539,0 -0.03454,0.097 -0.1726974,0 -0.046053,-0.049 0.011513,-0.061 -0.046053,-0.073 z m 7.2072371,0.049 -0.08059,0.061 0.02303,0.049 0.241776,0.061 0.126645,0.024 0.05757,0.061 0.138158,0.012 0.06908,0.061 0.05757,-0.024 0.05757,-0.049 -0.103618,-0.049 -0.08059,-0.085 -0.241776,-0.061 -0.264803,-0.061 z m -4.282895,0.012 -0.011513,0.036 0.046053,0.036 0.03454,-0.036 -0.069079,-0.036 z m 7.817434,0.027 -0.103618,0.024 0.01151,0.061 0.09211,-0.012 0,-0.073 z m -9.6019735,0.1095 -0.1266447,0.012 -0.057566,0.1461 0,0.061 0.1496711,0.073 0.011513,0.1583 -0.1266447,0.012 -0.034539,-0.049 -0.3453947,-0.1583 -0.011513,0.1217 -0.1611842,0 0,0.28 0.080592,0.1218 0.1381579,0.012 0.057566,0.036 0.1381579,0 0.1266447,-0.1948 0.3569079,-0.1582 0.034539,-0.1461 -0.046053,-0.2191 -0.1842106,-0.1096 z m 6.9884865,0.085 0.01151,0.061 0.05756,0.024 0.03454,-0.036 -0.03454,-0.049 -0.06908,0 z m -0.103618,0.036 -0.06908,0.036 0.03454,0.036 0.09211,-0.036 -0.05757,-0.036 z m 0.310855,0 -0.03454,0.024 -0.01151,0.036 0.126644,0.012 0.09211,-0.061 -0.05757,-0.012 -0.08059,0.024 -0.03454,-0.024 z m 0.379935,0.036 -0.149672,0.1339 0.01151,0.036 0.06908,-0.012 0.06908,-0.073 0.138158,-0.024 -0.02303,-0.049 -0.115132,-0.012 z m -6.4934216,0.085 0.011513,0.049 0.057566,0.012 0.023026,-0.061 -0.092105,0 z m 6.0559216,0 -0.08059,0.012 0.08059,0.061 0.04605,0 -0.04605,-0.073 z m -5.6414479,0.049 -0.057566,0.1582 -0.1036184,0.1948 -0.1842106,0.012 -0.069079,0.097 0.011513,0.2921 -0.1151315,0.1461 0.011513,0.2314 0.092105,0.1095 0.1151316,-0.012 0.1151315,-0.085 -0.023026,-0.134 0.2532895,-0.4748 -0.046053,-0.061 0.046053,-0.1218 0.057566,0.024 0.023026,-0.049 -0.057566,-0.2313 -0.03454,-0.097 -0.034539,0 z m -0.2532895,0.036 -0.080592,0.012 0.023026,0.049 0.03454,0 0.023026,-0.061 z m 6.9539474,0.2191 -0.287829,0.085 -0.08059,0.2435 -0.126645,0.036 -0.01151,-0.1704 -0.541118,0.3408 0.01151,0.1217 -0.08059,0.1218 -0.195724,0 -0.4375,0.1948 -0.149671,0.4261 -0.01151,0.767 -0.115132,0.085 0,0.073 0.149671,0.1096 0.368422,-0.073 0.195723,0 0.06908,-0.1096 0.425987,-0.085 0.299342,0.097 -0.02303,0.1217 0.04605,0.1339 0.230264,-0.049 0.01151,0.073 -0.161185,0.1095 0.05757,0.049 0.103619,-0.049 -0.02303,0.3652 0.207236,0.1705 0.126645,-0.049 0.05757,0.061 0.356908,-0.049 0.322368,-0.5722 0.126645,-0.024 0.241777,-0.4748 0.05757,-0.4139 -0.149672,-0.1948 0.05757,-0.049 -0.115131,-0.4017 -0.138158,-0.097 0.02303,-0.5357 -0.115132,-0.097 -0.03454,-0.2922 -0.05757,0 -0.207236,0.7062 -0.103619,0.012 -0.253289,-0.2678 0.138158,-0.4017 -0.264803,-0.049 z m -8.2549343,0.073 -0.080592,0.036 -0.1266447,0.1826 -0.1611842,0 0,0.036 0.2648026,0.3043 0.1957237,0.061 0.1266448,-0.2191 -0.011513,-0.2922 -0.2072369,-0.1096 z m -1.462171,0.1461 0.023026,0.1583 0.1726974,0.2678 -0.03454,0.1461 0,0.073 0.1381579,0.3531 0.092105,0.012 0.057566,0.061 0.1381579,0 0.034539,-0.4017 0,-0.2557 0.080592,-0.012 0.03454,-0.28 0.21875,0 0.069079,-0.073 -0.1266447,0 -0.1726974,0.024 -0.1957236,-0.073 -0.5296053,0 z m 1.0476974,0.061 -0.080592,0.073 -0.2072369,0.012 -0.03454,0.2678 -0.080592,0.024 0,0.2435 0.057566,0.024 -0.011513,0.1827 0.069079,0.012 0.1381579,-0.1461 0.1726974,0.024 0.046053,-0.1217 0.21875,-0.2192 -0.2648026,-0.3165 0,-0.049 -0.023026,-0.012 z m 2.555921,0.2557 -0.03454,0.061 0,0.061 0.092105,-0.073 -0.057566,-0.049 z m -0.149671,0.097 -0.069079,0.012 0,0.049 0.03454,0.012 0.069079,-0.024 -0.034539,-0.049 z m -2.0838816,0.036 -0.2302632,0.2191 -0.046053,0.1339 -0.1842105,-0.024 -0.1496711,0.1461 -0.092105,-0.012 0.011513,-0.1947 -0.03454,-0.012 -0.034539,0.3896 -0.1726974,0 -0.046053,-0.061 -0.080592,0 0.069079,0.2069 0.1266447,0.134 -0.092105,0.1095 0.057566,0.134 0.1381579,0.049 0.1036184,-0.097 0.3108552,0.012 0.023026,-0.036 0.1266447,-0.024 0.4605263,-0.4869 0,-0.1461 -0.046053,0.073 -0.069079,0 -0.092105,-0.085 0.046053,-0.1217 0.080592,-0.012 -0.011513,-0.2435 -0.1726974,-0.049 z m 0.1842105,0.3165 -0.069079,0.012 -0.023026,0.085 0.046053,0.049 0.069079,0 0.057566,-0.085 -0.080592,-0.061 z m -0.2878289,0.2435 0.034539,0 0.069079,0.073 0,0.097 -0.080592,0.036 0,0.036 -0.1266448,0 -0.046053,-0.097 0.046053,-0.073 0.1036185,-0.073 z m 0,0.024 -0.092105,0.073 -0.023026,0.049 0.023026,0.061 0.092105,0.012 0,-0.024 0.080592,-0.037 0.011513,-0.061 -0.057566,-0.073 -0.034539,0 z m 8.3815789,2.2035 -0.04605,0.2069 0.01151,0.1583 0.149671,-0.012 0.172697,-0.28 -0.287828,-0.073 z m -5.7680921,0.097 0,0.1339 0.1726974,0.037 0.034539,-0.1096 -0.057566,0.024 -0.080592,0.012 -0.023026,-0.097 -0.046053,0 z M 15,1051.1731 l -0.115131,0.049 0.02303,0.085 0.09211,0.049 0,-0.1826 z"
       id="kalimantan-3"
       style="opacity:0.25;fill:#000000;fill-opacity:1" />
    <path
       id="path3835"
       transform="translate(0,1036.3622)"
       d="M 8 3 L 6.46875 5.3125 L 6.4375 5.3125 C 5.0018398 5.9197331 4 7.3431458 4 9 C 4 11.209139 5.7908611 13 8 13 C 10.209139 13 12 11.209139 12 9 C 12 7.3431458 10.99816 5.9197331 9.5625 5.3125 C 9.5533118 5.3086137 9.5404732 5.3163194 9.53125 5.3125 L 8 3 z M 8 6.5 C 9.3807119 6.5 10.5 7.6192881 10.5 9 C 10.5 10.380712 9.3807119 11.5 8 11.5 C 6.6192881 11.5 5.5 10.380712 5.5 9 C 5.5 7.6192881 6.6192881 6.5 8 6.5 z "
       style="opacity:0.05000001;fill:none;fill-opacity:1;stroke:#000000;stroke-opacity:1;stroke-linejoin:round;stroke-width:3;stroke-miterlimit:4;stroke-dasharray:none" />
    <path
       style="opacity:0.10000001;fill:none;fill-opacity:1;stroke:#000000;stroke-opacity:1;stroke-linejoin:round;stroke-width:2;stroke-miterlimit:4;stroke-dasharray:none"
       d="M 8 3 L 6.46875 5.3125 L 6.4375 5.3125 C 5.0018398 5.9197331 4 7.3431458 4 9 C 4 11.209139 5.7908611 13 8 13 C 10.209139 13 12 11.209139 12 9 C 12 7.3431458 10.99816 5.9197331 9.5625 5.3125 C 9.5533118 5.3086137 9.5404732 5.3163194 9.53125 5.3125 L 8 3 z M 8 6.5 C 9.3807119 6.5 10.5 7.6192881 10.5 9 C 10.5 10.380712 9.3807119 11.5 8 11.5 C 6.6192881 11.5 5.5 10.380712 5.5 9 C 5.5 7.6192881 6.6192881 6.5 8 6.5 z "
       transform="translate(0,1036.3622)"
       id="path3833" />
    <path
       id="path3831"
       transform="translate(0,1036.3622)"
       d="M 8 3 L 6.46875 5.3125 L 6.4375 5.3125 C 5.0018398 5.9197331 4 7.3431458 4 9 C 4 11.209139 5.7908611 13 8 13 C 10.209139 13 12 11.209139 12 9 C 12 7.3431458 10.99816 5.9197331 9.5625 5.3125 C 9.5533118 5.3086137 9.5404732 5.3163194 9.53125 5.3125 L 8 3 z M 8 6.5 C 9.3807119 6.5 10.5 7.6192881 10.5 9 C 10.5 10.380712 9.3807119 11.5 8 11.5 C 6.6192881 11.5 5.5 10.380712 5.5 9 C 5.5 7.6192881 6.6192881 6.5 8 6.5 z "
       style="opacity:0.15;fill:none;fill-opacity:1;stroke:#000000;stroke-opacity:1;stroke-linejoin:round" />
    <path
       style="opacity:1;fill:#ffffff;fill-opacity:1;stroke:none"
       d="M 8 3 L 6.46875 5.3125 L 6.4375 5.3125 C 5.0018398 5.9197331 4 7.3431458 4 9 C 4 11.209139 5.7908611 13 8 13 C 10.209139 13 12 11.209139 12 9 C 12 7.3431458 10.99816 5.9197331 9.5625 5.3125 C 9.5533118 5.3086137 9.5404732 5.3163194 9.53125 5.3125 L 8 3 z M 8 6.5 C 9.3807119 6.5 10.5 7.6192881 10.5 9 C 10.5 10.380712 9.3807119 11.5 8 11.5 C 6.6192881 11.5 5.5 10.380712 5.5 9 C 5.5 7.6192881 6.6192881 6.5 8 6.5 z "
       transform="translate(0,1036.3622)"
       id="path3796" />
    <rect
       style="opacity:0.30000001;fill:none;stroke:url(#linearGradient4542);stroke-opacity:1"
       id="rect4534"
       width="13"
       height="13"
       x="1.5"
       y="1037.8622"
       rx="0.1"
       ry="0.1" />
  </g>
</svg>
