<?xml version="1.0" encoding="UTF-8" standalone="no"?>
<!-- Created with Inkscape (http://www.inkscape.org/) -->

<svg
   xmlns:dc="http://purl.org/dc/elements/1.1/"
   xmlns:cc="http://creativecommons.org/ns#"
   xmlns:rdf="http://www.w3.org/1999/02/22-rdf-syntax-ns#"
   xmlns:svg="http://www.w3.org/2000/svg"
   xmlns="http://www.w3.org/2000/svg"
   xmlns:xlink="http://www.w3.org/1999/xlink"
   xmlns:sodipodi="http://sodipodi.sourceforge.net/DTD/sodipodi-0.dtd"
   xmlns:inkscape="http://www.inkscape.org/namespaces/inkscape"
   width="16"
   height="16"
   id="svg3147"
   version="1.1"
   inkscape:version="0.48.4 r9939"
   sodipodi:docname="template16.svg">
  <defs
     id="defs3149">
    <linearGradient
       inkscape:collect="always"
       id="linearGradient3837">
      <stop
         style="stop-color:#ffffb9;stop-opacity:1;"
         offset="0"
         id="stop3839" />
      <stop
         style="stop-color:#ffffb9;stop-opacity:0;"
         offset="1"
         id="stop3841" />
    </linearGradient>
    <linearGradient
       id="linearGradient3794">
      <stop
         style="stop-color:#a01900;stop-opacity:1;"
         offset="0"
         id="stop3796" />
      <stop
         style="stop-color:#771900;stop-opacity:1;"
         offset="1"
         id="stop3798" />
    </linearGradient>
    <linearGradient
       id="linearGradient3786">
      <stop
         style="stop-color:#ed2721;stop-opacity:1;"
         offset="0"
         id="stop3788" />
      <stop
         style="stop-color:#8c0e04;stop-opacity:1;"
         offset="1"
         id="stop3790" />
    </linearGradient>
    <linearGradient
       id="linearGradient4536">
      <stop
         style="stop-color:#ffffff;stop-opacity:1;"
         offset="0"
         id="stop4538" />
      <stop
         id="stop4546"
         offset="0.07141639"
         style="stop-color:#ffffff;stop-opacity:0.15686275;" />
      <stop
         id="stop4544"
         offset="0.936414"
         style="stop-color:#ffffff;stop-opacity:0.23529412;" />
      <stop
         style="stop-color:#ffffff;stop-opacity:0.39215687;"
         offset="1"
         id="stop4540" />
    </linearGradient>
    <radialGradient
       inkscape:collect="always"
       xlink:href="#linearGradient3688-166-749"
       id="radialGradient3132"
       gradientUnits="userSpaceOnUse"
       gradientTransform="matrix(2.003784,0,0,1.4,27.98813,-17.4)"
       cx="4.9929786"
       cy="43.5"
       fx="4.9929786"
       fy="43.5"
       r="2.5" />
    <linearGradient
       id="linearGradient3688-166-749">
      <stop
         id="stop2883"
         style="stop-color:#181818;stop-opacity:1"
         offset="0" />
      <stop
         id="stop2885"
         style="stop-color:#181818;stop-opacity:0"
         offset="1" />
    </linearGradient>
    <radialGradient
       inkscape:collect="always"
       xlink:href="#linearGradient3688-464-309"
       id="radialGradient3134"
       gradientUnits="userSpaceOnUse"
       gradientTransform="matrix(2.003784,0,0,1.4,-20.01187,-104.4)"
       cx="4.9929786"
       cy="43.5"
       fx="4.9929786"
       fy="43.5"
       r="2.5" />
    <linearGradient
       id="linearGradient3688-464-309">
      <stop
         id="stop2889"
         style="stop-color:#181818;stop-opacity:1"
         offset="0" />
      <stop
         id="stop2891"
         style="stop-color:#181818;stop-opacity:0"
         offset="1" />
    </linearGradient>
    <linearGradient
       inkscape:collect="always"
       xlink:href="#linearGradient3702-501-757"
       id="linearGradient3136"
       gradientUnits="userSpaceOnUse"
       x1="25.058096"
       y1="47.027729"
       x2="25.058096"
       y2="39.999443" />
    <linearGradient
       id="linearGradient3702-501-757">
      <stop
         id="stop2895"
         style="stop-color:#181818;stop-opacity:0"
         offset="0" />
      <stop
         id="stop2897"
         style="stop-color:#181818;stop-opacity:1"
         offset="0.5" />
      <stop
         id="stop2899"
         style="stop-color:#181818;stop-opacity:0"
         offset="1" />
    </linearGradient>
    <linearGradient
       inkscape:collect="always"
       xlink:href="#linearGradient4536"
       id="linearGradient4542"
       x1="14.801802"
       y1="1010.4072"
       x2="14.801802"
       y2="1024.2804"
       gradientUnits="userSpaceOnUse"
       gradientTransform="translate(-4,27.000017)" />
    <radialGradient
       inkscape:collect="always"
       xlink:href="#linearGradient3786"
       id="radialGradient3792"
       cx="8.0509825"
       cy="1039.5208"
       fx="8.0509825"
       fy="1039.5208"
       r="8"
       gradientUnits="userSpaceOnUse"
       gradientTransform="matrix(-3.4877315e-7,1.7773671,-1.3249482,-2.5999489e-7,1385.3621,1025.2115)" />
    <linearGradient
       inkscape:collect="always"
       xlink:href="#linearGradient3794"
       id="linearGradient3800"
       x1="2.3442819"
       y1="1036.3101"
       x2="2.3442819"
       y2="1051.9131"
       gradientUnits="userSpaceOnUse" />
    <radialGradient
       inkscape:collect="always"
       xlink:href="#linearGradient3837"
       id="radialGradient3843"
       cx="7.9999985"
       cy="8.0055"
       fx="7.9999985"
       fy="8.0055"
       r="5.917199"
       gradientTransform="matrix(1,0,0,0.99907913,0,0.00737206)"
       gradientUnits="userSpaceOnUse" />
  </defs>
  <sodipodi:namedview
     id="base"
     pagecolor="#ffffff"
     bordercolor="#666666"
     borderopacity="1.0"
     inkscape:pageopacity="0.0"
     inkscape:pageshadow="2"
     inkscape:zoom="13.875"
     inkscape:cx="3.8123722"
     inkscape:cy="2.001809"
     inkscape:document-units="px"
     inkscape:current-layer="layer1"
     showgrid="false"
     inkscape:window-width="1280"
     inkscape:window-height="748"
     inkscape:window-x="0"
     inkscape:window-y="26"
     inkscape:window-maximized="1" />
  <metadata
     id="metadata3152">
    <rdf:RDF>
      <cc:Work
         rdf:about="">
        <dc:format>image/svg+xml</dc:format>
        <dc:type
           rdf:resource="http://purl.org/dc/dcmitype/StillImage" />
        <dc:title></dc:title>
      </cc:Work>
    </rdf:RDF>
  </metadata>
  <g
     inkscape:label="Livello 1"
     inkscape:groupmode="layer"
     id="layer1"
     transform="translate(0,-1036.3622)">
    <rect
       style="fill:url(#radialGradient3792);fill-opacity:1;stroke:url(#linearGradient3800);stroke-opacity:1"
       id="rect3163"
       width="15"
       height="15"
       x="0.5"
       y="1036.8622"
       rx="1"
       ry="1" />
    <rect
       style="opacity:0.20000000000000001;fill:none;stroke:url(#linearGradient4542);stroke-opacity:1"
       id="rect4534"
       width="13"
       height="13"
       x="1.5"
       y="1037.8622"
       rx="0.1"
       ry="0.1" />
    <path
       style="fill:#000000;fill-opacity:1;stroke:#000000;stroke-opacity:1;opacity:0.01;stroke-width:3;stroke-miterlimit:4;stroke-dasharray:none"
       d="M 8 2.09375 C 7.9360951 2.09375 7.8614671 2.10725 7.8125 2.15625 L 5.34375 4.65625 C 5.245816 4.75425 5.245816 4.9021 5.34375 5 L 7.8125 7.46875 C 7.910434 7.56675 8.0895657 7.56675 8.1875 7.46875 L 10.65625 5 C 10.75418 4.902 10.75418 4.75425 10.65625 4.65625 L 8.1875 2.15625 C 8.138533 2.10725 8.0639049 2.09375 8 2.09375 z M 4.8125 5.28125 C 4.7485952 5.28125 4.7052172 5.29475 4.65625 5.34375 L 2.15625 7.8125 C 2.058316 7.9105 2.058316 8.0895 2.15625 8.1875 L 4.65625 10.65625 C 4.754184 10.75425 4.9020658 10.75425 5 10.65625 L 7.46875 8.1875 C 7.566684 8.0895 7.566684 7.9104 7.46875 7.8125 L 5 5.34375 C 4.951033 5.29475 4.8764048 5.28125 4.8125 5.28125 z M 11.1875 5.28125 C 11.123595 5.28125 11.048967 5.29475 11 5.34375 L 8.53125 7.8125 C 8.433316 7.9105 8.433316 8.0895 8.53125 8.1875 L 11 10.65625 C 11.09793 10.75425 11.245816 10.75425 11.34375 10.65625 L 13.84375 8.1875 C 13.94168 8.0895 13.94168 7.9104 13.84375 7.8125 L 11.34375 5.34375 C 11.294785 5.29475 11.251405 5.28125 11.1875 5.28125 z M 8 8.46875 C 7.9360951 8.46875 7.8614671 8.48225 7.8125 8.53125 L 5.34375 11 C 5.245816 11.098 5.245816 11.24585 5.34375 11.34375 L 7.8125 13.84375 C 7.910434 13.94175 8.0895657 13.94175 8.1875 13.84375 L 10.65625 11.34375 C 10.75418 11.24575 10.75418 11.0979 10.65625 11 L 8.1875 8.53125 C 8.138533 8.48225 8.0639049 8.46875 8 8.46875 z "
       transform="translate(0,1036.3622)"
       id="path3830" />
    <path
       id="path3828"
       transform="translate(0,1036.3622)"
       d="M 8 2.09375 C 7.9360951 2.09375 7.8614671 2.10725 7.8125 2.15625 L 5.34375 4.65625 C 5.245816 4.75425 5.245816 4.9021 5.34375 5 L 7.8125 7.46875 C 7.910434 7.56675 8.0895657 7.56675 8.1875 7.46875 L 10.65625 5 C 10.75418 4.902 10.75418 4.75425 10.65625 4.65625 L 8.1875 2.15625 C 8.138533 2.10725 8.0639049 2.09375 8 2.09375 z M 4.8125 5.28125 C 4.7485952 5.28125 4.7052172 5.29475 4.65625 5.34375 L 2.15625 7.8125 C 2.058316 7.9105 2.058316 8.0895 2.15625 8.1875 L 4.65625 10.65625 C 4.754184 10.75425 4.9020658 10.75425 5 10.65625 L 7.46875 8.1875 C 7.566684 8.0895 7.566684 7.9104 7.46875 7.8125 L 5 5.34375 C 4.951033 5.29475 4.8764048 5.28125 4.8125 5.28125 z M 11.1875 5.28125 C 11.123595 5.28125 11.048967 5.29475 11 5.34375 L 8.53125 7.8125 C 8.433316 7.9105 8.433316 8.0895 8.53125 8.1875 L 11 10.65625 C 11.09793 10.75425 11.245816 10.75425 11.34375 10.65625 L 13.84375 8.1875 C 13.94168 8.0895 13.94168 7.9104 13.84375 7.8125 L 11.34375 5.34375 C 11.294785 5.29475 11.251405 5.28125 11.1875 5.28125 z M 8 8.46875 C 7.9360951 8.46875 7.8614671 8.48225 7.8125 8.53125 L 5.34375 11 C 5.245816 11.098 5.245816 11.24585 5.34375 11.34375 L 7.8125 13.84375 C 7.910434 13.94175 8.0895657 13.94175 8.1875 13.84375 L 10.65625 11.34375 C 10.75418 11.24575 10.75418 11.0979 10.65625 11 L 8.1875 8.53125 C 8.138533 8.48225 8.0639049 8.46875 8 8.46875 z "
       style="fill:#000000;fill-opacity:1;stroke:#000000;stroke-opacity:1;opacity:0.04999995;stroke-width:1.99999997999999990;stroke-miterlimit:4;stroke-dasharray:none" />
    <path
       style="fill:#000000;fill-opacity:1;stroke:#000000;stroke-opacity:1;opacity:0.1"
       d="M 8 2.09375 C 7.9360951 2.09375 7.8614671 2.10725 7.8125 2.15625 L 5.34375 4.65625 C 5.245816 4.75425 5.245816 4.9021 5.34375 5 L 7.8125 7.46875 C 7.910434 7.56675 8.0895657 7.56675 8.1875 7.46875 L 10.65625 5 C 10.75418 4.902 10.75418 4.75425 10.65625 4.65625 L 8.1875 2.15625 C 8.138533 2.10725 8.0639049 2.09375 8 2.09375 z M 4.8125 5.28125 C 4.7485952 5.28125 4.7052172 5.29475 4.65625 5.34375 L 2.15625 7.8125 C 2.058316 7.9105 2.058316 8.0895 2.15625 8.1875 L 4.65625 10.65625 C 4.754184 10.75425 4.9020658 10.75425 5 10.65625 L 7.46875 8.1875 C 7.566684 8.0895 7.566684 7.9104 7.46875 7.8125 L 5 5.34375 C 4.951033 5.29475 4.8764048 5.28125 4.8125 5.28125 z M 11.1875 5.28125 C 11.123595 5.28125 11.048967 5.29475 11 5.34375 L 8.53125 7.8125 C 8.433316 7.9105 8.433316 8.0895 8.53125 8.1875 L 11 10.65625 C 11.09793 10.75425 11.245816 10.75425 11.34375 10.65625 L 13.84375 8.1875 C 13.94168 8.0895 13.94168 7.9104 13.84375 7.8125 L 11.34375 5.34375 C 11.294785 5.29475 11.251405 5.28125 11.1875 5.28125 z M 8 8.46875 C 7.9360951 8.46875 7.8614671 8.48225 7.8125 8.53125 L 5.34375 11 C 5.245816 11.098 5.245816 11.24585 5.34375 11.34375 L 7.8125 13.84375 C 7.910434 13.94175 8.0895657 13.94175 8.1875 13.84375 L 10.65625 11.34375 C 10.75418 11.24575 10.75418 11.0979 10.65625 11 L 8.1875 8.53125 C 8.138533 8.48225 8.0639049 8.46875 8 8.46875 z "
       transform="translate(0,1036.3622)"
       id="path3815" />
    <g
       transform="matrix(0.25,0,0,0.25,-4,793.27164)"
       id="g3835">
      <path
         sodipodi:nodetypes="ccccccccc"
         inkscape:connector-curvature="0"
         id="rect3031"
         d="m 37.393398,1016.383 c -0.391737,0.3917 -0.391737,1.0225 0,1.4142 l 9.899495,9.8995 c 0.391737,0.3917 1.022477,0.3917 1.414214,0 l 9.899495,-9.8995 c 0.391737,-0.3917 0.391737,-1.0225 0,-1.4142 l -9.899495,-9.8995 c -0.391737,-0.3917 -1.022477,-0.3917 -1.414214,0 z"
         style="fill:#f7f31a;fill-opacity:1;stroke:none" />
      <path
         sodipodi:nodetypes="ccccccccc"
         style="fill:#89ff27;fill-opacity:1;stroke:none"
         d="m 50.12132,1003.6551 c -0.391737,0.3917 -0.391737,1.0224 0,1.4142 l 9.899495,9.8995 c 0.391737,0.3917 1.022477,0.3917 1.414214,0 l 9.899495,-9.8995 c 0.391737,-0.3918 0.391737,-1.0225 0,-1.4142 l -9.899495,-9.8994 c -0.391737,-0.3918 -1.022477,-0.3918 -1.414214,0 z"
         id="path3810"
         inkscape:connector-curvature="0" />
      <path
         sodipodi:nodetypes="ccccccccc"
         inkscape:connector-curvature="0"
         id="path3812"
         d="m 37.393398,990.9272 c -0.391737,0.3918 -0.391737,1.0225 0,1.4142 l 9.899495,9.8995 c 0.391737,0.3917 1.022477,0.3917 1.414214,0 l 9.899495,-9.8995 c 0.391737,-0.3917 0.391737,-1.0224 0,-1.4142 l -9.899495,-9.89946 c -0.391737,-0.39179 -1.022477,-0.39179 -1.414214,0 z"
         style="fill:#e92312;fill-opacity:1;stroke:none" />
      <path
         sodipodi:nodetypes="ccccccccc"
         style="fill:#3ac2ee;fill-opacity:1;stroke:none"
         d="m 24.665476,1003.6551 c -0.391737,0.3917 -0.391737,1.0224 0,1.4142 l 9.899495,9.8995 c 0.391737,0.3917 1.022477,0.3917 1.414214,0 l 9.899495,-9.8995 c 0.391737,-0.3918 0.391737,-1.0225 0,-1.4142 l -9.899495,-9.8995 c -0.391737,-0.3917 -1.022477,-0.3917 -1.414214,0 z"
         id="path3814"
         inkscape:connector-curvature="0" />
    </g>
    <path
       style="fill:url(#radialGradient3843);fill-opacity:1;stroke:none;opacity:0.4"
       d="M 8 2.09375 C 7.9360951 2.09375 7.8614671 2.10725 7.8125 2.15625 L 5.34375 4.65625 C 5.245816 4.75425 5.245816 4.9021 5.34375 5 L 7.8125 7.46875 C 7.910434 7.56675 8.0895657 7.56675 8.1875 7.46875 L 10.65625 5 C 10.75418 4.902 10.75418 4.75425 10.65625 4.65625 L 8.1875 2.15625 C 8.138533 2.10725 8.0639049 2.09375 8 2.09375 z M 4.8125 5.28125 C 4.7485952 5.28125 4.7052172 5.29475 4.65625 5.34375 L 2.15625 7.8125 C 2.058316 7.9105 2.058316 8.0895 2.15625 8.1875 L 4.65625 10.65625 C 4.754184 10.75425 4.9020658 10.75425 5 10.65625 L 7.46875 8.1875 C 7.566684 8.0895 7.566684 7.9104 7.46875 7.8125 L 5 5.34375 C 4.951033 5.29475 4.8764048 5.28125 4.8125 5.28125 z M 11.1875 5.28125 C 11.123595 5.28125 11.048967 5.29475 11 5.34375 L 8.53125 7.8125 C 8.433316 7.9105 8.433316 8.0895 8.53125 8.1875 L 11 10.65625 C 11.09793 10.75425 11.245816 10.75425 11.34375 10.65625 L 13.84375 8.1875 C 13.94168 8.0895 13.94168 7.9104 13.84375 7.8125 L 11.34375 5.34375 C 11.294785 5.29475 11.251405 5.28125 11.1875 5.28125 z M 8 8.46875 C 7.9360951 8.46875 7.8614671 8.48225 7.8125 8.53125 L 5.34375 11 C 5.245816 11.098 5.245816 11.24585 5.34375 11.34375 L 7.8125 13.84375 C 7.910434 13.94175 8.0895657 13.94175 8.1875 13.84375 L 10.65625 11.34375 C 10.75418 11.24575 10.75418 11.0979 10.65625 11 L 8.1875 8.53125 C 8.138533 8.48225 8.0639049 8.46875 8 8.46875 z "
       transform="translate(0,1036.3622)"
       id="path3804" />
  </g>
</svg>
