<?xml version="1.0" encoding="UTF-8" standalone="no"?>
<!-- Created with Inkscape (http://www.inkscape.org/) -->

<svg
   xmlns:dc="http://purl.org/dc/elements/1.1/"
   xmlns:cc="http://creativecommons.org/ns#"
   xmlns:rdf="http://www.w3.org/1999/02/22-rdf-syntax-ns#"
   xmlns:svg="http://www.w3.org/2000/svg"
   xmlns="http://www.w3.org/2000/svg"
   xmlns:xlink="http://www.w3.org/1999/xlink"
   xmlns:sodipodi="http://sodipodi.sourceforge.net/DTD/sodipodi-0.dtd"
   xmlns:inkscape="http://www.inkscape.org/namespaces/inkscape"
   width="16"
   height="16"
   id="svg3147"
   version="1.1"
   inkscape:version="0.48.3.1 r9886"
   sodipodi:docname="stock_text-monospaced.svg">
  <defs
     id="defs3149">
    <linearGradient
       id="linearGradient3779">
      <stop
         style="stop-color:#333333;stop-opacity:1;"
         offset="0"
         id="stop3781" />
      <stop
         style="stop-color:#969696;stop-opacity:1;"
         offset="1"
         id="stop3783" />
    </linearGradient>
    <linearGradient
       id="linearGradient3771">
      <stop
         style="stop-color:#c8c8c8;stop-opacity:1;"
         offset="0"
         id="stop3773" />
      <stop
         style="stop-color:#646464;stop-opacity:1;"
         offset="1"
         id="stop3775" />
    </linearGradient>
    <linearGradient
       id="linearGradient4536">
      <stop
         style="stop-color:#ffffff;stop-opacity:1;"
         offset="0"
         id="stop4538" />
      <stop
         id="stop4546"
         offset="0.06216056"
         style="stop-color:#ffffff;stop-opacity:0.15686275;" />
      <stop
         id="stop4544"
         offset="0.936414"
         style="stop-color:#ffffff;stop-opacity:0.23529412;" />
      <stop
         style="stop-color:#ffffff;stop-opacity:0.39215687;"
         offset="1"
         id="stop4540" />
    </linearGradient>
    <radialGradient
       inkscape:collect="always"
       xlink:href="#linearGradient3688-166-749"
       id="radialGradient3132"
       gradientUnits="userSpaceOnUse"
       gradientTransform="matrix(2.003784,0,0,1.4,27.98813,-17.4)"
       cx="4.9929786"
       cy="43.5"
       fx="4.9929786"
       fy="43.5"
       r="2.5" />
    <linearGradient
       id="linearGradient3688-166-749">
      <stop
         id="stop2883"
         style="stop-color:#181818;stop-opacity:1"
         offset="0" />
      <stop
         id="stop2885"
         style="stop-color:#181818;stop-opacity:0"
         offset="1" />
    </linearGradient>
    <radialGradient
       inkscape:collect="always"
       xlink:href="#linearGradient3688-464-309"
       id="radialGradient3134"
       gradientUnits="userSpaceOnUse"
       gradientTransform="matrix(2.003784,0,0,1.4,-20.01187,-104.4)"
       cx="4.9929786"
       cy="43.5"
       fx="4.9929786"
       fy="43.5"
       r="2.5" />
    <linearGradient
       id="linearGradient3688-464-309">
      <stop
         id="stop2889"
         style="stop-color:#181818;stop-opacity:1"
         offset="0" />
      <stop
         id="stop2891"
         style="stop-color:#181818;stop-opacity:0"
         offset="1" />
    </linearGradient>
    <linearGradient
       inkscape:collect="always"
       xlink:href="#linearGradient3702-501-757"
       id="linearGradient3136"
       gradientUnits="userSpaceOnUse"
       x1="25.058096"
       y1="47.027729"
       x2="25.058096"
       y2="39.999443" />
    <linearGradient
       id="linearGradient3702-501-757">
      <stop
         id="stop2895"
         style="stop-color:#181818;stop-opacity:0"
         offset="0" />
      <stop
         id="stop2897"
         style="stop-color:#181818;stop-opacity:1"
         offset="0.5" />
      <stop
         id="stop2899"
         style="stop-color:#181818;stop-opacity:0"
         offset="1" />
    </linearGradient>
    <linearGradient
       inkscape:collect="always"
       xlink:href="#linearGradient4536"
       id="linearGradient4542"
       x1="14.801802"
       y1="1010.4072"
       x2="14.801802"
       y2="1024.1722"
       gradientUnits="userSpaceOnUse"
       gradientTransform="translate(-4,27.000017)" />
  </defs>
  <sodipodi:namedview
     id="base"
     pagecolor="#ffffff"
     bordercolor="#666666"
     borderopacity="1.0"
     inkscape:pageopacity="0.0"
     inkscape:pageshadow="2"
     inkscape:zoom="19.622213"
     inkscape:cx="3.7208374"
     inkscape:cy="3.7650418"
     inkscape:document-units="px"
     inkscape:current-layer="layer1"
     showgrid="false"
     inkscape:window-width="1280"
     inkscape:window-height="751"
     inkscape:window-x="0"
     inkscape:window-y="24"
     inkscape:window-maximized="1" />
  <metadata
     id="metadata3152">
    <rdf:RDF>
      <cc:Work
         rdf:about="">
        <dc:format>image/svg+xml</dc:format>
        <dc:type
           rdf:resource="http://purl.org/dc/dcmitype/StillImage" />
        <dc:title />
      </cc:Work>
    </rdf:RDF>
  </metadata>
  <g
     inkscape:label="Livello 1"
     inkscape:groupmode="layer"
     id="layer1"
     transform="translate(0,-1036.3622)">
    <rect
       style="fill:#505050;fill-opacity:1;stroke:#333333;stroke-opacity:1"
       id="rect3163"
       width="15"
       height="15"
       x="0.5"
       y="1036.8622"
       rx="1"
       ry="1" />
    <path
       id="path3792"
       transform="translate(0,1036.3622)"
       d="M 3.03125 5 L 3 6.625 L 3.53125 6.625 L 3.59375 6.09375 C 3.6040295 6.0007317 3.601869 5.9176265 3.625 5.84375 C 3.6506996 5.7698838 3.7011686 5.7367529 3.75 5.6875 C 3.8013998 5.6355218 3.857828 5.5898652 3.9375 5.5625 C 4.0171699 5.5351457 4.1317773 5.5000055 4.25 5.5 L 4.875 5.5 L 4.875 10 C 4.874998 10.120384 4.8643083 10.210115 4.84375 10.28125 C 4.8231878 10.352386 4.7859786 10.430447 4.75 10.46875 C 4.7140177 10.507054 4.6738289 10.517571 4.625 10.53125 C 4.5761677 10.542194 4.5278592 10.5625 4.46875 10.5625 L 4.125 10.5625 L 4.125 11 L 6.875 11 L 6.875 10.5625 L 6.53125 10.5625 C 6.4747057 10.5625 6.4238271 10.542194 6.375 10.53125 C 6.326166 10.517571 6.2885471 10.507054 6.25 10.46875 C 6.2140163 10.430447 6.176807 10.352386 6.15625 10.28125 C 6.1356865 10.210115 6.1249968 10.120384 6.125 10 L 6.125 5.5 L 6.75 5.5 C 6.8682176 5.5000055 6.9828249 5.5351457 7.0625 5.5625 C 7.1421668 5.5898652 7.2011651 5.6355218 7.25 5.6875 C 7.3013963 5.7367529 7.3518653 5.7698838 7.375 5.84375 C 7.4006959 5.9176265 7.3959654 6.0007317 7.40625 6.09375 L 7.46875 6.625 L 8 6.625 L 7.96875 5 L 3.03125 5 z M 8 6.625 L 8.53125 6.625 L 8.59375 6.09375 C 8.6040295 6.0007317 8.601869 5.9176265 8.625 5.84375 C 8.6506996 5.7698838 8.7011686 5.7367529 8.75 5.6875 C 8.8013998 5.6355218 8.857828 5.5898652 8.9375 5.5625 C 9.0171699 5.5351457 9.1317773 5.5000055 9.25 5.5 L 9.875 5.5 L 9.875 10 C 9.874998 10.120384 9.8643083 10.210115 9.84375 10.28125 C 9.8231878 10.352386 9.7859786 10.430447 9.75 10.46875 C 9.7140177 10.507054 9.6738289 10.517571 9.625 10.53125 C 9.5761677 10.542194 9.5278592 10.5625 9.46875 10.5625 L 9.125 10.5625 L 9.125 11 L 11.875 11 L 11.875 10.5625 L 11.53125 10.5625 C 11.474706 10.5625 11.423827 10.542194 11.375 10.53125 C 11.326166 10.517571 11.288547 10.507054 11.25 10.46875 C 11.214016 10.430447 11.176807 10.352386 11.15625 10.28125 C 11.135687 10.210115 11.124997 10.120384 11.125 10 L 11.125 5.5 L 11.75 5.5 C 11.868218 5.5000055 11.982825 5.5351457 12.0625 5.5625 C 12.142167 5.5898652 12.201165 5.6355218 12.25 5.6875 C 12.301396 5.7367529 12.351865 5.7698838 12.375 5.84375 C 12.400696 5.9176265 12.395965 6.0007317 12.40625 6.09375 L 12.46875 6.625 L 13 6.625 L 12.96875 5 L 8.03125 5 L 8 6.625 z "
       style="font-size:8.14604568000000029px;font-style:normal;font-variant:normal;font-weight:bold;font-stretch:normal;line-height:125%;letter-spacing:0px;word-spacing:0px;fill:#000000;fill-opacity:1;stroke:#000000;font-family:Droid Serif;-inkscape-font-specification:Droid Serif Bold;stroke-opacity:1;stroke-linejoin:round;opacity:0.05;stroke-width:3;stroke-miterlimit:4;stroke-dasharray:none" />
    <path
       style="font-size:8.14604568000000029px;font-style:normal;font-variant:normal;font-weight:bold;font-stretch:normal;line-height:125%;letter-spacing:0px;word-spacing:0px;fill:#000000;fill-opacity:1;stroke:#000000;font-family:Droid Serif;-inkscape-font-specification:Droid Serif Bold;stroke-opacity:1;stroke-linejoin:round;opacity:0.09999995;stroke-width:2.00000009999999984;stroke-miterlimit:4;stroke-dasharray:none"
       d="M 3.03125 5 L 3 6.625 L 3.53125 6.625 L 3.59375 6.09375 C 3.6040295 6.0007317 3.601869 5.9176265 3.625 5.84375 C 3.6506996 5.7698838 3.7011686 5.7367529 3.75 5.6875 C 3.8013998 5.6355218 3.857828 5.5898652 3.9375 5.5625 C 4.0171699 5.5351457 4.1317773 5.5000055 4.25 5.5 L 4.875 5.5 L 4.875 10 C 4.874998 10.120384 4.8643083 10.210115 4.84375 10.28125 C 4.8231878 10.352386 4.7859786 10.430447 4.75 10.46875 C 4.7140177 10.507054 4.6738289 10.517571 4.625 10.53125 C 4.5761677 10.542194 4.5278592 10.5625 4.46875 10.5625 L 4.125 10.5625 L 4.125 11 L 6.875 11 L 6.875 10.5625 L 6.53125 10.5625 C 6.4747057 10.5625 6.4238271 10.542194 6.375 10.53125 C 6.326166 10.517571 6.2885471 10.507054 6.25 10.46875 C 6.2140163 10.430447 6.176807 10.352386 6.15625 10.28125 C 6.1356865 10.210115 6.1249968 10.120384 6.125 10 L 6.125 5.5 L 6.75 5.5 C 6.8682176 5.5000055 6.9828249 5.5351457 7.0625 5.5625 C 7.1421668 5.5898652 7.2011651 5.6355218 7.25 5.6875 C 7.3013963 5.7367529 7.3518653 5.7698838 7.375 5.84375 C 7.4006959 5.9176265 7.3959654 6.0007317 7.40625 6.09375 L 7.46875 6.625 L 8 6.625 L 7.96875 5 L 3.03125 5 z M 8 6.625 L 8.53125 6.625 L 8.59375 6.09375 C 8.6040295 6.0007317 8.601869 5.9176265 8.625 5.84375 C 8.6506996 5.7698838 8.7011686 5.7367529 8.75 5.6875 C 8.8013998 5.6355218 8.857828 5.5898652 8.9375 5.5625 C 9.0171699 5.5351457 9.1317773 5.5000055 9.25 5.5 L 9.875 5.5 L 9.875 10 C 9.874998 10.120384 9.8643083 10.210115 9.84375 10.28125 C 9.8231878 10.352386 9.7859786 10.430447 9.75 10.46875 C 9.7140177 10.507054 9.6738289 10.517571 9.625 10.53125 C 9.5761677 10.542194 9.5278592 10.5625 9.46875 10.5625 L 9.125 10.5625 L 9.125 11 L 11.875 11 L 11.875 10.5625 L 11.53125 10.5625 C 11.474706 10.5625 11.423827 10.542194 11.375 10.53125 C 11.326166 10.517571 11.288547 10.507054 11.25 10.46875 C 11.214016 10.430447 11.176807 10.352386 11.15625 10.28125 C 11.135687 10.210115 11.124997 10.120384 11.125 10 L 11.125 5.5 L 11.75 5.5 C 11.868218 5.5000055 11.982825 5.5351457 12.0625 5.5625 C 12.142167 5.5898652 12.201165 5.6355218 12.25 5.6875 C 12.301396 5.7367529 12.351865 5.7698838 12.375 5.84375 C 12.400696 5.9176265 12.395965 6.0007317 12.40625 6.09375 L 12.46875 6.625 L 13 6.625 L 12.96875 5 L 8.03125 5 L 8 6.625 z "
       transform="translate(0,1036.3622)"
       id="path3790" />
    <path
       id="path3788"
       transform="translate(0,1036.3622)"
       d="M 3.03125 5 L 3 6.625 L 3.53125 6.625 L 3.59375 6.09375 C 3.6040295 6.0007317 3.601869 5.9176265 3.625 5.84375 C 3.6506996 5.7698838 3.7011686 5.7367529 3.75 5.6875 C 3.8013998 5.6355218 3.857828 5.5898652 3.9375 5.5625 C 4.0171699 5.5351457 4.1317773 5.5000055 4.25 5.5 L 4.875 5.5 L 4.875 10 C 4.874998 10.120384 4.8643083 10.210115 4.84375 10.28125 C 4.8231878 10.352386 4.7859786 10.430447 4.75 10.46875 C 4.7140177 10.507054 4.6738289 10.517571 4.625 10.53125 C 4.5761677 10.542194 4.5278592 10.5625 4.46875 10.5625 L 4.125 10.5625 L 4.125 11 L 6.875 11 L 6.875 10.5625 L 6.53125 10.5625 C 6.4747057 10.5625 6.4238271 10.542194 6.375 10.53125 C 6.326166 10.517571 6.2885471 10.507054 6.25 10.46875 C 6.2140163 10.430447 6.176807 10.352386 6.15625 10.28125 C 6.1356865 10.210115 6.1249968 10.120384 6.125 10 L 6.125 5.5 L 6.75 5.5 C 6.8682176 5.5000055 6.9828249 5.5351457 7.0625 5.5625 C 7.1421668 5.5898652 7.2011651 5.6355218 7.25 5.6875 C 7.3013963 5.7367529 7.3518653 5.7698838 7.375 5.84375 C 7.4006959 5.9176265 7.3959654 6.0007317 7.40625 6.09375 L 7.46875 6.625 L 8 6.625 L 7.96875 5 L 3.03125 5 z M 8 6.625 L 8.53125 6.625 L 8.59375 6.09375 C 8.6040295 6.0007317 8.601869 5.9176265 8.625 5.84375 C 8.6506996 5.7698838 8.7011686 5.7367529 8.75 5.6875 C 8.8013998 5.6355218 8.857828 5.5898652 8.9375 5.5625 C 9.0171699 5.5351457 9.1317773 5.5000055 9.25 5.5 L 9.875 5.5 L 9.875 10 C 9.874998 10.120384 9.8643083 10.210115 9.84375 10.28125 C 9.8231878 10.352386 9.7859786 10.430447 9.75 10.46875 C 9.7140177 10.507054 9.6738289 10.517571 9.625 10.53125 C 9.5761677 10.542194 9.5278592 10.5625 9.46875 10.5625 L 9.125 10.5625 L 9.125 11 L 11.875 11 L 11.875 10.5625 L 11.53125 10.5625 C 11.474706 10.5625 11.423827 10.542194 11.375 10.53125 C 11.326166 10.517571 11.288547 10.507054 11.25 10.46875 C 11.214016 10.430447 11.176807 10.352386 11.15625 10.28125 C 11.135687 10.210115 11.124997 10.120384 11.125 10 L 11.125 5.5 L 11.75 5.5 C 11.868218 5.5000055 11.982825 5.5351457 12.0625 5.5625 C 12.142167 5.5898652 12.201165 5.6355218 12.25 5.6875 C 12.301396 5.7367529 12.351865 5.7698838 12.375 5.84375 C 12.400696 5.9176265 12.395965 6.0007317 12.40625 6.09375 L 12.46875 6.625 L 13 6.625 L 12.96875 5 L 8.03125 5 L 8 6.625 z "
       style="font-size:8.14604568000000029px;font-style:normal;font-variant:normal;font-weight:bold;font-stretch:normal;line-height:125%;letter-spacing:0px;word-spacing:0px;fill:#000000;fill-opacity:1;stroke:#000000;font-family:Droid Serif;-inkscape-font-specification:Droid Serif Bold;stroke-opacity:1;stroke-linejoin:round;opacity:0.15" />
    <path
       style="font-size:8.14604568000000029px;font-style:normal;font-variant:normal;font-weight:bold;font-stretch:normal;line-height:125%;letter-spacing:0px;word-spacing:0px;fill:#ffffff;fill-opacity:1;stroke:none;font-family:Droid Serif;-inkscape-font-specification:Droid Serif Bold"
       d="M 3.03125 5 L 3 6.625 L 3.53125 6.625 L 3.59375 6.09375 C 3.6040295 6.0007317 3.601869 5.9176265 3.625 5.84375 C 3.6506996 5.7698838 3.7011686 5.7367529 3.75 5.6875 C 3.8013998 5.6355218 3.857828 5.5898652 3.9375 5.5625 C 4.0171699 5.5351457 4.1317773 5.5000055 4.25 5.5 L 4.875 5.5 L 4.875 10 C 4.874998 10.120384 4.8643083 10.210115 4.84375 10.28125 C 4.8231878 10.352386 4.7859786 10.430447 4.75 10.46875 C 4.7140177 10.507054 4.6738289 10.517571 4.625 10.53125 C 4.5761677 10.542194 4.5278592 10.5625 4.46875 10.5625 L 4.125 10.5625 L 4.125 11 L 6.875 11 L 6.875 10.5625 L 6.53125 10.5625 C 6.4747057 10.5625 6.4238271 10.542194 6.375 10.53125 C 6.326166 10.517571 6.2885471 10.507054 6.25 10.46875 C 6.2140163 10.430447 6.176807 10.352386 6.15625 10.28125 C 6.1356865 10.210115 6.1249968 10.120384 6.125 10 L 6.125 5.5 L 6.75 5.5 C 6.8682176 5.5000055 6.9828249 5.5351457 7.0625 5.5625 C 7.1421668 5.5898652 7.2011651 5.6355218 7.25 5.6875 C 7.3013963 5.7367529 7.3518653 5.7698838 7.375 5.84375 C 7.4006959 5.9176265 7.3959654 6.0007317 7.40625 6.09375 L 7.46875 6.625 L 8 6.625 L 7.96875 5 L 3.03125 5 z M 8 6.625 L 8.53125 6.625 L 8.59375 6.09375 C 8.6040295 6.0007317 8.601869 5.9176265 8.625 5.84375 C 8.6506996 5.7698838 8.7011686 5.7367529 8.75 5.6875 C 8.8013998 5.6355218 8.857828 5.5898652 8.9375 5.5625 C 9.0171699 5.5351457 9.1317773 5.5000055 9.25 5.5 L 9.875 5.5 L 9.875 10 C 9.874998 10.120384 9.8643083 10.210115 9.84375 10.28125 C 9.8231878 10.352386 9.7859786 10.430447 9.75 10.46875 C 9.7140177 10.507054 9.6738289 10.517571 9.625 10.53125 C 9.5761677 10.542194 9.5278592 10.5625 9.46875 10.5625 L 9.125 10.5625 L 9.125 11 L 11.875 11 L 11.875 10.5625 L 11.53125 10.5625 C 11.474706 10.5625 11.423827 10.542194 11.375 10.53125 C 11.326166 10.517571 11.288547 10.507054 11.25 10.46875 C 11.214016 10.430447 11.176807 10.352386 11.15625 10.28125 C 11.135687 10.210115 11.124997 10.120384 11.125 10 L 11.125 5.5 L 11.75 5.5 C 11.868218 5.5000055 11.982825 5.5351457 12.0625 5.5625 C 12.142167 5.5898652 12.201165 5.6355218 12.25 5.6875 C 12.301396 5.7367529 12.351865 5.7698838 12.375 5.84375 C 12.400696 5.9176265 12.395965 6.0007317 12.40625 6.09375 L 12.46875 6.625 L 13 6.625 L 12.96875 5 L 8.03125 5 L 8 6.625 z "
       transform="translate(0,1036.3622)"
       id="text3011" />
  </g>
</svg>
