<?xml version="1.0" encoding="UTF-8" standalone="no"?>
<!-- Created with Inkscape (http://www.inkscape.org/) -->

<svg
   xmlns:dc="http://purl.org/dc/elements/1.1/"
   xmlns:cc="http://creativecommons.org/ns#"
   xmlns:rdf="http://www.w3.org/1999/02/22-rdf-syntax-ns#"
   xmlns:svg="http://www.w3.org/2000/svg"
   xmlns="http://www.w3.org/2000/svg"
   xmlns:sodipodi="http://sodipodi.sourceforge.net/DTD/sodipodi-0.dtd"
   xmlns:inkscape="http://www.inkscape.org/namespaces/inkscape"
   width="22"
   height="22"
   id="svg3790"
   version="1.1"
   inkscape:version="0.48.1 r9760"
   sodipodi:docname="gpm-primary-020-charging.svg">
  <defs
     id="defs3792" />
  <sodipodi:namedview
     id="base"
     pagecolor="#ffffff"
     bordercolor="#666666"
     borderopacity="1.0"
     inkscape:pageopacity="0.0"
     inkscape:pageshadow="2"
     inkscape:zoom="15.839192"
     inkscape:cx="15.797882"
     inkscape:cy="9.0760616"
     inkscape:document-units="px"
     inkscape:current-layer="layer1"
     showgrid="false"
     inkscape:window-width="1230"
     inkscape:window-height="776"
     inkscape:window-x="50"
     inkscape:window-y="24"
     inkscape:window-maximized="1" />
  <metadata
     id="metadata3795">
    <rdf:RDF>
      <cc:Work
         rdf:about="">
        <dc:format>image/svg+xml</dc:format>
        <dc:type
           rdf:resource="http://purl.org/dc/dcmitype/StillImage" />
        <dc:title></dc:title>
      </cc:Work>
    </rdf:RDF>
  </metadata>
  <g
     inkscape:label="Livello 1"
     inkscape:groupmode="layer"
     id="layer1"
     transform="translate(0,-1030.3622)">
    <path
       style="font-size:medium;font-style:normal;font-variant:normal;font-weight:normal;font-stretch:normal;text-indent:0;text-align:start;text-decoration:none;line-height:normal;letter-spacing:normal;word-spacing:normal;text-transform:none;direction:ltr;block-progression:tb;writing-mode:lr-tb;text-anchor:start;baseline-shift:baseline;color:#000000;fill:#505050;fill-opacity:1;stroke:none;stroke-width:2;marker:none;visibility:visible;display:inline;overflow:visible;enable-background:accumulate;font-family:Sans;-inkscape-font-specification:Sans"
       d="m 6,1034.3622 c -1.0907028,0 -2,0.9093 -2,2 l 0,12 c 0,1.0907 0.9092972,2 2,2 l 8,0 c 1.090703,0 2,-0.9093 2,-2 l 0,-2 -1,0 0,-1 -1,0 0,3 -8,0 0,-12 8,0 0,3 1,0 0,-1 1,0 0,-2 c 0,-1.0907 -0.909297,-2 -2,-2 l -8,0 z m 9,7 0,2 1,0 0,-2 -1,0 z"
       id="rect3798"
       inkscape:connector-curvature="0" />
    <rect
       style="fill:#505050;fill-opacity:1;fill-rule:nonzero;stroke:none"
       id="rect4310"
       width="2"
       height="6"
       x="-1034.3619"
       y="7.000001"
       transform="matrix(0,-1,1,0,0,0)" />
    <path
       style="fill:#505050;fill-opacity:1;fill-rule:nonzero;stroke:none"
       d="m 16,1039.3622 0,1 -2,0 0,4 2,0 0,1 3,0 0,-1 3,0 0,-1 -3,0 0,-2 3,0 0,-1 -3,0 0,-1 -3,0 z"
       id="rect4448"
       inkscape:connector-curvature="0" />
  </g>
</svg>
