<?xml version="1.0" encoding="UTF-8" standalone="no"?>
<!-- Created with Inkscape (http://www.inkscape.org/) -->

<svg
   xmlns:dc="http://purl.org/dc/elements/1.1/"
   xmlns:cc="http://creativecommons.org/ns#"
   xmlns:rdf="http://www.w3.org/1999/02/22-rdf-syntax-ns#"
   xmlns:svg="http://www.w3.org/2000/svg"
   xmlns="http://www.w3.org/2000/svg"
   xmlns:sodipodi="http://sodipodi.sourceforge.net/DTD/sodipodi-0.dtd"
   xmlns:inkscape="http://www.inkscape.org/namespaces/inkscape"
   width="22"
   height="22"
   id="svg2"
   version="1.1"
   inkscape:version="0.48.1 r9760"
   sodipodi:docname="gsm-3g-low-secure.svg">
  <defs
     id="defs4" />
  <sodipodi:namedview
     id="base"
     pagecolor="#ffffff"
     bordercolor="#666666"
     borderopacity="1.0"
     inkscape:pageopacity="0.0"
     inkscape:pageshadow="2"
     inkscape:zoom="15.839192"
     inkscape:cx="7.5367846"
     inkscape:cy="7.2723707"
     inkscape:document-units="px"
     inkscape:current-layer="layer1"
     showgrid="false"
     inkscape:window-width="1230"
     inkscape:window-height="776"
     inkscape:window-x="50"
     inkscape:window-y="24"
     inkscape:window-maximized="1" />
  <metadata
     id="metadata7">
    <rdf:RDF>
      <cc:Work
         rdf:about="">
        <dc:format>image/svg+xml</dc:format>
        <dc:type
           rdf:resource="http://purl.org/dc/dcmitype/StillImage" />
        <dc:title></dc:title>
      </cc:Work>
    </rdf:RDF>
  </metadata>
  <g
     inkscape:label="Livello 1"
     inkscape:groupmode="layer"
     id="layer1"
     transform="translate(0,-1030.3622)">
    <path
       style="fill:#505050;fill-opacity:1;fill-rule:nonzero;stroke:none;opacity:0.25"
       d="m 17.5,1034.3622 c -0.277,0 -0.5,0.223 -0.5,0.5 l 0,9.7813 c 0.294537,-0.1712 0.636188,-0.2813 1,-0.2813 l 2,0 0,-9.5 c 0,-0.277 -0.223,-0.5 -0.5,-0.5 l -2,0 z"
       id="rect2985"
       inkscape:connector-curvature="0" />
    <rect
       y="1038.3622"
       x="12.999998"
       height="11"
       width="3"
       id="rect3755"
       style="fill:#505050;fill-opacity:1;fill-rule:nonzero;stroke:none;opacity:0.25"
       rx="0.5"
       ry="0.5" />
    <rect
       style="fill:#505050;fill-opacity:1;fill-rule:nonzero;stroke:none;opacity:1"
       id="rect3757"
       width="3"
       height="7"
       x="8.9999962"
       y="1042.3622"
       rx="0.5"
       ry="0.5" />
    <rect
       y="1046.3622"
       x="5.0000019"
       height="3"
       width="3"
       id="rect3759"
       style="fill:#505050;fill-opacity:1;fill-rule:nonzero;stroke:none"
       rx="0.5"
       ry="0.5" />
    <path
       style="fill:#505050;fill-opacity:1;fill-rule:nonzero;stroke:none"
       d="m 18,1045.3622 c -0.545352,0 -1,0.4546 -1,1 l 0,2 -0.5,0 c -0.277,0 -0.5,0.223 -0.5,0.5 l 0,3 c 0,0.277 0.223,0.5 0.5,0.5 l 5,0 c 0.277,0 0.5,-0.223 0.5,-0.5 l 0,-3 c 0,-0.277 -0.223,-0.5 -0.5,-0.5 l -0.5,0 0,-2 c 0,-0.5454 -0.454649,-1 -1,-1 l -2,0 z m 0,1 2,0 0,2 -2,0 0,-2 z"
       id="rect3929"
       inkscape:connector-curvature="0" />
    <g
       id="g3790"
       transform="translate(6.5935921,1.1065848)">
      <rect
         y="1035.2556"
         x="-3.5935922"
         height="13"
         width="1"
         id="rect3761-2"
         style="fill:#505050;fill-opacity:1;fill-rule:nonzero;stroke:none" />
      <path
         sodipodi:nodetypes="cccccccccc"
         inkscape:connector-curvature="0"
         id="rect2988"
         d="m -6.5935921,1035.2556 0,1 3.5,5.5625 3.49999995,-5.5625 0,-1 z m 1.125,1 4.71874995,0 -2.34374995,3.7187 z"
         style="fill:#505050;fill-opacity:1;fill-rule:nonzero;stroke:none" />
    </g>
  </g>
</svg>
