<?xml version="1.0" encoding="UTF-8" standalone="no"?>
<!-- Created with Inkscape (http://www.inkscape.org/) -->

<svg
   xmlns:dc="http://purl.org/dc/elements/1.1/"
   xmlns:cc="http://creativecommons.org/ns#"
   xmlns:rdf="http://www.w3.org/1999/02/22-rdf-syntax-ns#"
   xmlns:svg="http://www.w3.org/2000/svg"
   xmlns="http://www.w3.org/2000/svg"
   xmlns:xlink="http://www.w3.org/1999/xlink"
   xmlns:sodipodi="http://sodipodi.sourceforge.net/DTD/sodipodi-0.dtd"
   xmlns:inkscape="http://www.inkscape.org/namespaces/inkscape"
   width="16"
   height="16"
   id="svg2"
   version="1.1"
   inkscape:version="0.48.3.1 r9886"
   sodipodi:docname="applications-microblogging-panel.svg">
  <defs
     id="defs4">
    <linearGradient
       id="linearGradient3766">
      <stop
         style="stop-color:#ffffff;stop-opacity:1;"
         offset="0"
         id="stop3768" />
      <stop
         id="stop3776"
         offset="0.07404444"
         style="stop-color:#ffffff;stop-opacity:0.15686275;" />
      <stop
         id="stop3774"
         offset="0.94550455"
         style="stop-color:#ffffff;stop-opacity:0.23529412;" />
      <stop
         style="stop-color:#ffffff;stop-opacity:0.39215687;"
         offset="1"
         id="stop3770" />
    </linearGradient>
    <linearGradient
       id="linearGradient3755">
      <stop
         style="stop-color:#8badea;stop-opacity:1;"
         offset="0"
         id="stop3757" />
      <stop
         style="stop-color:#194c70;stop-opacity:1;"
         offset="1"
         id="stop3759" />
    </linearGradient>
    <radialGradient
       inkscape:collect="always"
       xlink:href="#linearGradient3755"
       id="radialGradient3763"
       cx="8.1339483"
       cy="1039.8086"
       fx="8.1339483"
       fy="1039.8086"
       r="7"
       gradientUnits="userSpaceOnUse"
       gradientTransform="matrix(-7.4694065e-6,2.6205385,-2.655085,-7.5678756e-6,2768.935,1017.8005)" />
    <linearGradient
       inkscape:collect="always"
       xlink:href="#linearGradient25689"
       id="linearGradient4043"
       gradientUnits="userSpaceOnUse"
       x1="17"
       y1="33"
       x2="17"
       y2="15"
       gradientTransform="matrix(1.3636363,0,0,1.3333333,-8.7272722,-7)" />
    <linearGradient
       id="linearGradient25689">
      <stop
         style="stop-color:#cccccc;stop-opacity:1"
         offset="0"
         id="stop25691" />
      <stop
         style="stop-color:#ffffff;stop-opacity:1;"
         offset="1"
         id="stop25693" />
    </linearGradient>
    <linearGradient
       y2="15"
       x2="17"
       y1="49.392811"
       x1="17"
       gradientTransform="matrix(0.68181814,0,0,0.58333669,9.9502698,1031.5965)"
       gradientUnits="userSpaceOnUse"
       id="linearGradient3832"
       xlink:href="#linearGradient25689"
       inkscape:collect="always" />
    <linearGradient
       inkscape:collect="always"
       xlink:href="#linearGradient3766"
       id="linearGradient3775"
       x1="8.0982141"
       y1="1037.3083"
       x2="8.0982141"
       y2="1051.3285"
       gradientUnits="userSpaceOnUse" />
  </defs>
  <sodipodi:namedview
     id="base"
     pagecolor="#ffffff"
     bordercolor="#666666"
     borderopacity="1.0"
     inkscape:pageopacity="0.0"
     inkscape:pageshadow="2"
     inkscape:zoom="9.008883"
     inkscape:cx="1.1059336"
     inkscape:cy="-4.9133873"
     inkscape:document-units="px"
     inkscape:current-layer="layer1"
     showgrid="false"
     inkscape:window-width="1280"
     inkscape:window-height="751"
     inkscape:window-x="0"
     inkscape:window-y="24"
     inkscape:window-maximized="1"
     showguides="true"
     inkscape:guide-bbox="true" />
  <metadata
     id="metadata7">
    <rdf:RDF>
      <cc:Work
         rdf:about="">
        <dc:format>image/svg+xml</dc:format>
        <dc:type
           rdf:resource="http://purl.org/dc/dcmitype/StillImage" />
        <dc:title />
      </cc:Work>
    </rdf:RDF>
  </metadata>
  <g
     inkscape:label="Livello 1"
     inkscape:groupmode="layer"
     id="layer1"
     transform="translate(0,-1036.3622)">
    <rect
       style="fill:url(#radialGradient3763);fill-opacity:1;fill-rule:nonzero;stroke:#1f4b6a;stroke-opacity:1"
       id="rect2985"
       width="15"
       height="15"
       x="0.5"
       y="1036.8622"
       rx="1"
       ry="1" />
    <rect
       style="opacity:0.3;fill:#ffffff;fill-opacity:1;stroke:none"
       id="rect3003"
       width="14"
       height="3"
       x="1"
       y="1047.3621" />
    <rect
       y="1037.8619"
       x="1.5"
       height="13"
       width="13"
       id="rect2994"
       style="opacity:0.50000000000000000;fill:none;fill-opacity:1;stroke:url(#linearGradient3775);stroke-opacity:1"
       rx="0.1"
       ry="0.1" />
    <path
       sodipodi:nodetypes="scccccccccccssccs"
       inkscape:connector-curvature="0"
       id="path3773"
       d="m 10,1039.8622 c -1.5271825,0 -2.0031807,0.6931 -2,2 l 0,1.5 -2,0 0,2 2,0 0,5 2,0 0,-5 2,0 0,-2 -2,0 0,-1 c 0,-0.4521 0.225237,-0.5 0.5,-0.5 l 1.5,0 0,-2 z"
       style="fill:#000000;fill-opacity:1;stroke:#000000;stroke-opacity:1;stroke-linejoin:round;opacity:0.05;stroke-width:3;stroke-miterlimit:4;stroke-dasharray:none" />
    <path
       style="fill:#000000;fill-opacity:1;stroke:#000000;stroke-opacity:1;stroke-linejoin:round;opacity:0.1;stroke-width:1.99999997999999990;stroke-miterlimit:4;stroke-dasharray:none"
       d="m 10,1039.8622 c -1.5271825,0 -2.0031807,0.6931 -2,2 l 0,1.5 -2,0 0,2 2,0 0,5 2,0 0,-5 2,0 0,-2 -2,0 0,-1 c 0,-0.4521 0.225237,-0.5 0.5,-0.5 l 1.5,0 0,-2 z"
       id="path3771"
       inkscape:connector-curvature="0"
       sodipodi:nodetypes="scccccccccccssccs" />
    <path
       sodipodi:nodetypes="scccccccccccssccs"
       inkscape:connector-curvature="0"
       id="path3001"
       d="m 10,1039.8622 c -1.5271825,0 -2.0031807,0.6931 -2,2 l 0,1.5 -2,0 0,2 2,0 0,5 2,0 0,-5 2,0 0,-2 -2,0 0,-1 c 0,-0.4521 0.225237,-0.5 0.5,-0.5 l 1.5,0 0,-2 z"
       style="fill:#000000;fill-opacity:1;stroke:#000000;stroke-opacity:1;stroke-linejoin:round;opacity:0.15" />
    <path
       style="fill:#ffffff;fill-opacity:1;stroke:none"
       d="m 10,1039.8622 c -1.5271825,0 -2.0031807,0.6931 -2,2 l 0,1.5 -2,0 0,2 2,0 0,5 2,0 0,-5 2,0 0,-2 -2,0 0,-1 c 0,-0.4521 0.225237,-0.5 0.5,-0.5 l 1.5,0 0,-2 z"
       id="rect3777"
       inkscape:connector-curvature="0"
       sodipodi:nodetypes="scccccccccccssccs" />
  </g>
</svg>
