<?xml version="1.0" encoding="UTF-8" standalone="no"?>
<!-- Created with Inkscape (http://www.inkscape.org/) -->

<svg
   xmlns:dc="http://purl.org/dc/elements/1.1/"
   xmlns:cc="http://creativecommons.org/ns#"
   xmlns:rdf="http://www.w3.org/1999/02/22-rdf-syntax-ns#"
   xmlns:svg="http://www.w3.org/2000/svg"
   xmlns="http://www.w3.org/2000/svg"
   xmlns:xlink="http://www.w3.org/1999/xlink"
   xmlns:sodipodi="http://sodipodi.sourceforge.net/DTD/sodipodi-0.dtd"
   xmlns:inkscape="http://www.inkscape.org/namespaces/inkscape"
   width="16"
   height="16"
   id="svg3147"
   version="1.1"
   inkscape:version="0.48.3.1 r9886"
   sodipodi:docname="temp-action.svg">
  <defs
     id="defs3149">
    <linearGradient
       id="linearGradient3779">
      <stop
         style="stop-color:#333333;stop-opacity:1;"
         offset="0"
         id="stop3781" />
      <stop
         style="stop-color:#969696;stop-opacity:1;"
         offset="1"
         id="stop3783" />
    </linearGradient>
    <linearGradient
       id="linearGradient3771">
      <stop
         style="stop-color:#c8c8c8;stop-opacity:1;"
         offset="0"
         id="stop3773" />
      <stop
         style="stop-color:#646464;stop-opacity:1;"
         offset="1"
         id="stop3775" />
    </linearGradient>
    <linearGradient
       id="linearGradient4536">
      <stop
         style="stop-color:#ffffff;stop-opacity:1;"
         offset="0"
         id="stop4538" />
      <stop
         id="stop4546"
         offset="0.06216056"
         style="stop-color:#ffffff;stop-opacity:0.15686275;" />
      <stop
         id="stop4544"
         offset="0.936414"
         style="stop-color:#ffffff;stop-opacity:0.23529412;" />
      <stop
         style="stop-color:#ffffff;stop-opacity:0.39215687;"
         offset="1"
         id="stop4540" />
    </linearGradient>
    <radialGradient
       inkscape:collect="always"
       xlink:href="#linearGradient3688-166-749"
       id="radialGradient3132"
       gradientUnits="userSpaceOnUse"
       gradientTransform="matrix(2.003784,0,0,1.4,27.98813,-17.4)"
       cx="4.9929786"
       cy="43.5"
       fx="4.9929786"
       fy="43.5"
       r="2.5" />
    <linearGradient
       id="linearGradient3688-166-749">
      <stop
         id="stop2883"
         style="stop-color:#181818;stop-opacity:1"
         offset="0" />
      <stop
         id="stop2885"
         style="stop-color:#181818;stop-opacity:0"
         offset="1" />
    </linearGradient>
    <radialGradient
       inkscape:collect="always"
       xlink:href="#linearGradient3688-464-309"
       id="radialGradient3134"
       gradientUnits="userSpaceOnUse"
       gradientTransform="matrix(2.003784,0,0,1.4,-20.01187,-104.4)"
       cx="4.9929786"
       cy="43.5"
       fx="4.9929786"
       fy="43.5"
       r="2.5" />
    <linearGradient
       id="linearGradient3688-464-309">
      <stop
         id="stop2889"
         style="stop-color:#181818;stop-opacity:1"
         offset="0" />
      <stop
         id="stop2891"
         style="stop-color:#181818;stop-opacity:0"
         offset="1" />
    </linearGradient>
    <linearGradient
       inkscape:collect="always"
       xlink:href="#linearGradient3702-501-757"
       id="linearGradient3136"
       gradientUnits="userSpaceOnUse"
       x1="25.058096"
       y1="47.027729"
       x2="25.058096"
       y2="39.999443" />
    <linearGradient
       id="linearGradient3702-501-757">
      <stop
         id="stop2895"
         style="stop-color:#181818;stop-opacity:0"
         offset="0" />
      <stop
         id="stop2897"
         style="stop-color:#181818;stop-opacity:1"
         offset="0.5" />
      <stop
         id="stop2899"
         style="stop-color:#181818;stop-opacity:0"
         offset="1" />
    </linearGradient>
    <linearGradient
       inkscape:collect="always"
       xlink:href="#linearGradient4536"
       id="linearGradient4542"
       x1="14.801802"
       y1="1010.4072"
       x2="14.801802"
       y2="1024.1722"
       gradientUnits="userSpaceOnUse"
       gradientTransform="translate(-4,27.000017)" />
    <radialGradient
       inkscape:collect="always"
       xlink:href="#linearGradient3771"
       id="radialGradient3777"
       cx="8.2162399"
       cy="1039.3171"
       fx="8.2162399"
       fy="1039.3171"
       r="8"
       gradientUnits="userSpaceOnUse"
       gradientTransform="matrix(3.0451418e-6,1.9369369,-1.4505624,2.2804915e-6,1515.8106,1023.4004)" />
    <linearGradient
       inkscape:collect="always"
       xlink:href="#linearGradient3779"
       id="linearGradient3785"
       x1="4.8288288"
       y1="1052.146"
       x2="4.8288288"
       y2="1036.2902"
       gradientUnits="userSpaceOnUse" />
  </defs>
  <sodipodi:namedview
     id="base"
     pagecolor="#ffffff"
     bordercolor="#666666"
     borderopacity="1.0"
     inkscape:pageopacity="0.0"
     inkscape:pageshadow="2"
     inkscape:zoom="9.8111065"
     inkscape:cx="2.203317"
     inkscape:cy="3.2755331"
     inkscape:document-units="px"
     inkscape:current-layer="layer1"
     showgrid="false"
     inkscape:window-width="1280"
     inkscape:window-height="749"
     inkscape:window-x="0"
     inkscape:window-y="24"
     inkscape:window-maximized="1" />
  <metadata
     id="metadata3152">
    <rdf:RDF>
      <cc:Work
         rdf:about="">
        <dc:format>image/svg+xml</dc:format>
        <dc:type
           rdf:resource="http://purl.org/dc/dcmitype/StillImage" />
        <dc:title></dc:title>
      </cc:Work>
    </rdf:RDF>
  </metadata>
  <g
     inkscape:label="Livello 1"
     inkscape:groupmode="layer"
     id="layer1"
     transform="translate(0,-1036.3622)">
    <rect
       style="fill:url(#radialGradient3777);fill-opacity:1;stroke:url(#linearGradient3785);stroke-opacity:1"
       id="rect3163"
       width="15"
       height="15"
       x="0.5"
       y="1036.8622"
       rx="1"
       ry="1" />
    <rect
       style="opacity:0.29999999999999999;fill:none;stroke:url(#linearGradient4542);stroke-opacity:1"
       id="rect4534"
       width="13"
       height="13"
       x="1.5"
       y="1037.8622"
       rx="0.1"
       ry="0.1" />
    <path
       id="path3790"
       transform="translate(0,1036.3622)"
       d="M 8 3 C 5.2385761 3 3 5.2385761 3 8 C 3 10.761424 5.2385761 13 8 13 C 10.761424 13 13 10.761424 13 8 C 13 5.2385761 10.761424 3 8 3 z M 8 4 C 10.209139 4 12 5.7908607 12 8 C 12 10.209139 10.209139 12 8 12 C 5.7908607 12 4 10.209139 4 8 C 4 5.7908607 5.7908607 4 8 4 z "
       style="fill:#000000;fill-opacity:1;stroke:#000000;stroke-opacity:1;opacity:0.05000000000000000;stroke-width:3;stroke-miterlimit:4;stroke-dasharray:none" />
    <path
       style="fill:#000000;fill-opacity:1;stroke:#000000;stroke-opacity:1;opacity:0.09999995;stroke-width:2;stroke-miterlimit:4;stroke-dasharray:none"
       d="M 8 3 C 5.2385761 3 3 5.2385761 3 8 C 3 10.761424 5.2385761 13 8 13 C 10.761424 13 13 10.761424 13 8 C 13 5.2385761 10.761424 3 8 3 z M 8 4 C 10.209139 4 12 5.7908607 12 8 C 12 10.209139 10.209139 12 8 12 C 5.7908607 12 4 10.209139 4 8 C 4 5.7908607 5.7908607 4 8 4 z "
       transform="translate(0,1036.3622)"
       id="path3788" />
    <path
       id="path3786"
       transform="translate(0,1036.3622)"
       d="M 8 3 C 5.2385761 3 3 5.2385761 3 8 C 3 10.761424 5.2385761 13 8 13 C 10.761424 13 13 10.761424 13 8 C 13 5.2385761 10.761424 3 8 3 z M 8 4 C 10.209139 4 12 5.7908607 12 8 C 12 10.209139 10.209139 12 8 12 C 5.7908607 12 4 10.209139 4 8 C 4 5.7908607 5.7908607 4 8 4 z "
       style="fill:#000000;fill-opacity:1;stroke:#000000;stroke-opacity:1;opacity:0.15" />
    <path
       style="fill:#ffffff;fill-opacity:1;stroke:none"
       d="M 8 3 C 5.2385761 3 3 5.2385761 3 8 C 3 10.761424 5.2385761 13 8 13 C 10.761424 13 13 10.761424 13 8 C 13 5.2385761 10.761424 3 8 3 z M 8 4 C 10.209139 4 12 5.7908607 12 8 C 12 10.209139 10.209139 12 8 12 C 5.7908607 12 4 10.209139 4 8 C 4 5.7908607 5.7908607 4 8 4 z "
       transform="translate(0,1036.3622)"
       id="path3011" />
    <path
       transform="matrix(0.99985817,0,0,-0.99985817,0.07643176,1052.1816)"
       d="M 11.92526,7.8204947 A 4.0005679,4.0005679 0 0 1 7.9246923,11.821063 l -1e-7,-4.0005683 z"
       sodipodi:ry="4.0005679"
       sodipodi:rx="4.0005679"
       sodipodi:cy="7.8204947"
       sodipodi:cx="7.9246922"
       id="path3781"
       style="fill:#ffffff;fill-opacity:1;stroke:none;opacity:0.64999999"
       sodipodi:type="arc"
       sodipodi:start="0"
       sodipodi:end="1.5707963" />
  </g>
</svg>
