<?xml version="1.0" encoding="UTF-8" standalone="no"?>
<!-- Created with Inkscape (http://www.inkscape.org/) -->

<svg
   xmlns:dc="http://purl.org/dc/elements/1.1/"
   xmlns:cc="http://creativecommons.org/ns#"
   xmlns:rdf="http://www.w3.org/1999/02/22-rdf-syntax-ns#"
   xmlns:svg="http://www.w3.org/2000/svg"
   xmlns="http://www.w3.org/2000/svg"
   xmlns:xlink="http://www.w3.org/1999/xlink"
   xmlns:sodipodi="http://sodipodi.sourceforge.net/DTD/sodipodi-0.dtd"
   xmlns:inkscape="http://www.inkscape.org/namespaces/inkscape"
   width="16"
   height="16"
   id="svg3147"
   version="1.1"
   inkscape:version="0.48.3.1 r9886"
   sodipodi:docname="list-remove.svg">
  <defs
     id="defs3149">
    <linearGradient
       inkscape:collect="always"
       id="linearGradient3800">
      <stop
         style="stop-color:#000000;stop-opacity:0;"
         offset="0"
         id="stop3802" />
      <stop
         id="stop3808"
         offset="0.5"
         style="stop-color:#000000;stop-opacity:1;" />
      <stop
         style="stop-color:#000000;stop-opacity:0;"
         offset="1"
         id="stop3804" />
    </linearGradient>
    <linearGradient
       id="linearGradient3779">
      <stop
         style="stop-color:#bebebe;stop-opacity:1;"
         offset="0"
         id="stop3781" />
      <stop
         style="stop-color:#a0a0a0;stop-opacity:1;"
         offset="1"
         id="stop3783" />
    </linearGradient>
    <linearGradient
       id="linearGradient3771">
      <stop
         style="stop-color:#f50000;stop-opacity:1;"
         offset="0"
         id="stop3773" />
      <stop
         style="stop-color:#b40000;stop-opacity:1;"
         offset="1"
         id="stop3775" />
    </linearGradient>
    <linearGradient
       id="linearGradient4536">
      <stop
         style="stop-color:#ffffff;stop-opacity:1;"
         offset="0"
         id="stop4538" />
      <stop
         id="stop4546"
         offset="0.08246523"
         style="stop-color:#ffffff;stop-opacity:0.15686275;" />
      <stop
         id="stop4544"
         offset="0.936414"
         style="stop-color:#ffffff;stop-opacity:0.23529412;" />
      <stop
         style="stop-color:#ffffff;stop-opacity:0.39215687;"
         offset="1"
         id="stop4540" />
    </linearGradient>
    <radialGradient
       inkscape:collect="always"
       xlink:href="#linearGradient3688-166-749"
       id="radialGradient3132"
       gradientUnits="userSpaceOnUse"
       gradientTransform="matrix(2.003784,0,0,1.4,27.98813,-17.4)"
       cx="4.9929786"
       cy="43.5"
       fx="4.9929786"
       fy="43.5"
       r="2.5" />
    <linearGradient
       id="linearGradient3688-166-749">
      <stop
         id="stop2883"
         style="stop-color:#181818;stop-opacity:1"
         offset="0" />
      <stop
         id="stop2885"
         style="stop-color:#181818;stop-opacity:0"
         offset="1" />
    </linearGradient>
    <radialGradient
       inkscape:collect="always"
       xlink:href="#linearGradient3688-464-309"
       id="radialGradient3134"
       gradientUnits="userSpaceOnUse"
       gradientTransform="matrix(2.003784,0,0,1.4,-20.01187,-104.4)"
       cx="4.9929786"
       cy="43.5"
       fx="4.9929786"
       fy="43.5"
       r="2.5" />
    <linearGradient
       id="linearGradient3688-464-309">
      <stop
         id="stop2889"
         style="stop-color:#181818;stop-opacity:1"
         offset="0" />
      <stop
         id="stop2891"
         style="stop-color:#181818;stop-opacity:0"
         offset="1" />
    </linearGradient>
    <linearGradient
       inkscape:collect="always"
       xlink:href="#linearGradient3702-501-757"
       id="linearGradient3136"
       gradientUnits="userSpaceOnUse"
       x1="25.058096"
       y1="47.027729"
       x2="25.058096"
       y2="39.999443" />
    <linearGradient
       id="linearGradient3702-501-757">
      <stop
         id="stop2895"
         style="stop-color:#181818;stop-opacity:0"
         offset="0" />
      <stop
         id="stop2897"
         style="stop-color:#181818;stop-opacity:1"
         offset="0.5" />
      <stop
         id="stop2899"
         style="stop-color:#181818;stop-opacity:0"
         offset="1" />
    </linearGradient>
    <linearGradient
       inkscape:collect="always"
       xlink:href="#linearGradient4536"
       id="linearGradient4542"
       x1="14.801802"
       y1="1010.4072"
       x2="14.801802"
       y2="1024.1722"
       gradientUnits="userSpaceOnUse"
       gradientTransform="translate(-4,27.000017)" />
    <radialGradient
       inkscape:collect="always"
       xlink:href="#linearGradient3771"
       id="radialGradient3777"
       cx="8.0720873"
       cy="1039.4613"
       fx="8.0720873"
       fy="1039.4613"
       r="8"
       gradientUnits="userSpaceOnUse"
       gradientTransform="matrix(1.4806489e-6,1.9101011,-1.3873874,1.0754581e-6,1450.2076,-12.3205)" />
    <linearGradient
       inkscape:collect="always"
       xlink:href="#linearGradient3800"
       id="linearGradient3806"
       x1="1.1875"
       y1="7.984375"
       x2="14.8125"
       y2="7.984375"
       gradientUnits="userSpaceOnUse" />
  </defs>
  <sodipodi:namedview
     id="base"
     pagecolor="#ffffff"
     bordercolor="#666666"
     borderopacity="1.0"
     inkscape:pageopacity="0.0"
     inkscape:pageshadow="2"
     inkscape:zoom="11.313708"
     inkscape:cx="4.8248812"
     inkscape:cy="-0.14599785"
     inkscape:document-units="px"
     inkscape:current-layer="layer1"
     showgrid="false"
     inkscape:window-width="1280"
     inkscape:window-height="749"
     inkscape:window-x="0"
     inkscape:window-y="24"
     inkscape:window-maximized="1" />
  <metadata
     id="metadata3152">
    <rdf:RDF>
      <cc:Work
         rdf:about="">
        <dc:format>image/svg+xml</dc:format>
        <dc:type
           rdf:resource="http://purl.org/dc/dcmitype/StillImage" />
        <dc:title></dc:title>
      </cc:Work>
    </rdf:RDF>
  </metadata>
  <g
     inkscape:label="Livello 1"
     inkscape:groupmode="layer"
     id="layer1"
     transform="translate(0,-1036.3622)">
    <path
       style="fill:url(#radialGradient3777);fill-opacity:1;stroke:#960000;stroke-opacity:1"
       d="M 1.5 0.5 C 0.946 0.5 0.5 0.946 0.5 1.5 L 0.5 12.5 C 0.5 13.054 0.946 13.5 1.5 13.5 L 4.5 13.5 L 8 15.5 L 11.5 13.5 L 14.5 13.5 C 15.054 13.5 15.5 13.054 15.5 12.5 L 15.5 1.5 C 15.5 0.946 15.054 0.5 14.5 0.5 L 1.5 0.5 z "
       transform="translate(0,1036.3622)"
       id="rect3163" />
    <path
       style="opacity:0.5;fill:none;stroke:url(#linearGradient4542);stroke-opacity:1"
       d="m 1.6,1037.8622 12.8,0 c 0.0554,0 0.1,0.045 0.1,0.1 l 0,10.8 c 0,0.055 -0.0446,0.1 -0.1,0.1 l -3.2,0 -3.2,1.8 -3.2,-1.8 -3.2,0 c -0.0554,0 -0.1,-0.045 -0.1,-0.1 l 0,-10.8 c 0,-0.055 0.0446,-0.1 0.1,-0.1 z"
       id="rect4534"
       inkscape:connector-curvature="0"
       sodipodi:nodetypes="ssssscccssss" />
    <path
       sodipodi:nodetypes="sccccccccccccccccccccs"
       inkscape:connector-curvature="0"
       style="opacity:0.05;fill:#000000;fill-opacity:1;fill-rule:nonzero;stroke:#000000;stroke-width:3;stroke-linejoin:round;stroke-miterlimit:4;stroke-opacity:1;stroke-dasharray:none"
       d="m 5.5312498,1038.9872 c 0.1278096,0 0.2458155,0.027 0.34375,0.125 l 2.1250004,2.125 2.1249998,-2.125 c 0.195869,-0.1959 0.522881,-0.1959 0.71875,0 l 1.40625,1.4063 c 0.195868,0.1958 0.195868,0.5228 0,0.7187 l -2.125,2.125 2.125,2.125 c 0.195868,0.1959 0.195868,0.523 0,0.7188 l -1.40625,1.4062 c -0.195869,0.1959 -0.522881,0.1959 -0.71875,0 l -2.1249998,-2.125 -2.1250004,2.125 c -0.195869,0.1959 -0.522882,0.1959 -0.71875,0 l -1.40625,-1.4062 c -0.195868,-0.1958 -0.195868,-0.5229 0,-0.7188 l 2.125,-2.125 -2.125,-2.125 c -0.195868,-0.1959 -0.195868,-0.5229 0,-0.7187 l 1.40625,-1.4063 c 0.097934,-0.098 0.2471904,-0.125 0.375,-0.125 z"
       id="path3824" />
    <path
       id="path3822"
       d="m 5.5312498,1038.9872 c 0.1278096,0 0.2458155,0.027 0.34375,0.125 l 2.1250004,2.125 2.1249998,-2.125 c 0.195869,-0.1959 0.522881,-0.1959 0.71875,0 l 1.40625,1.4063 c 0.195868,0.1958 0.195868,0.5228 0,0.7187 l -2.125,2.125 2.125,2.125 c 0.195868,0.1959 0.195868,0.523 0,0.7188 l -1.40625,1.4062 c -0.195869,0.1959 -0.522881,0.1959 -0.71875,0 l -2.1249998,-2.125 -2.1250004,2.125 c -0.195869,0.1959 -0.522882,0.1959 -0.71875,0 l -1.40625,-1.4062 c -0.195868,-0.1958 -0.195868,-0.5229 0,-0.7188 l 2.125,-2.125 -2.125,-2.125 c -0.195868,-0.1959 -0.195868,-0.5229 0,-0.7187 l 1.40625,-1.4063 c 0.097934,-0.098 0.2471904,-0.125 0.375,-0.125 z"
       style="opacity:0.09999994;fill:#000000;fill-opacity:1;fill-rule:nonzero;stroke:#000000;stroke-width:2;stroke-linejoin:round;stroke-miterlimit:4;stroke-opacity:1;stroke-dasharray:none"
       inkscape:connector-curvature="0"
       sodipodi:nodetypes="sccccccccccccccccccccs" />
    <path
       sodipodi:nodetypes="sccccccccccccccccccccs"
       inkscape:connector-curvature="0"
       style="opacity:0.15;fill:#000000;fill-opacity:1;fill-rule:nonzero;stroke:#000000;stroke-linejoin:round;stroke-opacity:1"
       d="m 5.5312498,1038.9872 c 0.1278096,0 0.2458155,0.027 0.34375,0.125 l 2.1250004,2.125 2.1249998,-2.125 c 0.195869,-0.1959 0.522881,-0.1959 0.71875,0 l 1.40625,1.4063 c 0.195868,0.1958 0.195868,0.5228 0,0.7187 l -2.125,2.125 2.125,2.125 c 0.195868,0.1959 0.195868,0.523 0,0.7188 l -1.40625,1.4062 c -0.195869,0.1959 -0.522881,0.1959 -0.71875,0 l -2.1249998,-2.125 -2.1250004,2.125 c -0.195869,0.1959 -0.522882,0.1959 -0.71875,0 l -1.40625,-1.4062 c -0.195868,-0.1958 -0.195868,-0.5229 0,-0.7188 l 2.125,-2.125 -2.125,-2.125 c -0.195868,-0.1959 -0.195868,-0.5229 0,-0.7187 l 1.40625,-1.4063 c 0.097934,-0.098 0.2471904,-0.125 0.375,-0.125 z"
       id="path3052" />
    <path
       id="path2987"
       d="m 5.5312498,1038.9872 c 0.1278096,0 0.2458155,0.027 0.34375,0.125 l 2.1250004,2.125 2.1249998,-2.125 c 0.195869,-0.1959 0.522881,-0.1959 0.71875,0 l 1.40625,1.4063 c 0.195868,0.1958 0.195868,0.5228 0,0.7187 l -2.125,2.125 2.125,2.125 c 0.195868,0.1959 0.195868,0.523 0,0.7188 l -1.40625,1.4062 c -0.195869,0.1959 -0.522881,0.1959 -0.71875,0 l -2.1249998,-2.125 -2.1250004,2.125 c -0.195869,0.1959 -0.522882,0.1959 -0.71875,0 l -1.40625,-1.4062 c -0.195868,-0.1958 -0.195868,-0.5229 0,-0.7188 l 2.125,-2.125 -2.125,-2.125 c -0.195868,-0.1959 -0.195868,-0.5229 0,-0.7187 l 1.40625,-1.4063 c 0.097934,-0.098 0.2471904,-0.125 0.375,-0.125 z"
       style="fill:#ffffff;fill-opacity:1;fill-rule:nonzero;stroke:none"
       inkscape:connector-curvature="0"
       sodipodi:nodetypes="sccccccccccccccccccccs" />
  </g>
</svg>
