<?xml version="1.0" encoding="UTF-8" standalone="no"?>
<!-- Created with Inkscape (http://www.inkscape.org/) -->

<svg
   xmlns:dc="http://purl.org/dc/elements/1.1/"
   xmlns:cc="http://creativecommons.org/ns#"
   xmlns:rdf="http://www.w3.org/1999/02/22-rdf-syntax-ns#"
   xmlns:svg="http://www.w3.org/2000/svg"
   xmlns="http://www.w3.org/2000/svg"
   xmlns:xlink="http://www.w3.org/1999/xlink"
   xmlns:sodipodi="http://sodipodi.sourceforge.net/DTD/sodipodi-0.dtd"
   xmlns:inkscape="http://www.inkscape.org/namespaces/inkscape"
   width="16"
   height="16"
   id="svg3147"
   version="1.1"
   inkscape:version="0.48.3.1 r9886"
   sodipodi:docname="dialog-error2.svg">
  <defs
     id="defs3149">
    <linearGradient
       id="linearGradient3787">
      <stop
         style="stop-color:#1f5aad;stop-opacity:1;"
         offset="0"
         id="stop3789" />
      <stop
         style="stop-color:#4589b6;stop-opacity:1;"
         offset="1"
         id="stop3791" />
    </linearGradient>
    <linearGradient
       inkscape:collect="always"
       id="linearGradient3800">
      <stop
         style="stop-color:#000000;stop-opacity:0;"
         offset="0"
         id="stop3802" />
      <stop
         id="stop3808"
         offset="0.5"
         style="stop-color:#000000;stop-opacity:1;" />
      <stop
         style="stop-color:#000000;stop-opacity:0;"
         offset="1"
         id="stop3804" />
    </linearGradient>
    <linearGradient
       id="linearGradient3779">
      <stop
         style="stop-color:#bebebe;stop-opacity:1;"
         offset="0"
         id="stop3781" />
      <stop
         style="stop-color:#a0a0a0;stop-opacity:1;"
         offset="1"
         id="stop3783" />
    </linearGradient>
    <linearGradient
       id="linearGradient3771">
      <stop
         style="stop-color:#7ec6e4;stop-opacity:1;"
         offset="0"
         id="stop3773" />
      <stop
         style="stop-color:#2f87da;stop-opacity:1;"
         offset="1"
         id="stop3775" />
    </linearGradient>
    <linearGradient
       id="linearGradient4536">
      <stop
         style="stop-color:#ffffff;stop-opacity:1;"
         offset="0"
         id="stop4538" />
      <stop
         id="stop4546"
         offset="0.08246523"
         style="stop-color:#ffffff;stop-opacity:0.15686275;" />
      <stop
         id="stop4544"
         offset="0.936414"
         style="stop-color:#ffffff;stop-opacity:0.23529412;" />
      <stop
         style="stop-color:#ffffff;stop-opacity:0.39215687;"
         offset="1"
         id="stop4540" />
    </linearGradient>
    <radialGradient
       inkscape:collect="always"
       xlink:href="#linearGradient3688-166-749"
       id="radialGradient3132"
       gradientUnits="userSpaceOnUse"
       gradientTransform="matrix(2.003784,0,0,1.4,27.98813,-17.4)"
       cx="4.9929786"
       cy="43.5"
       fx="4.9929786"
       fy="43.5"
       r="2.5" />
    <linearGradient
       id="linearGradient3688-166-749">
      <stop
         id="stop2883"
         style="stop-color:#181818;stop-opacity:1"
         offset="0" />
      <stop
         id="stop2885"
         style="stop-color:#181818;stop-opacity:0"
         offset="1" />
    </linearGradient>
    <radialGradient
       inkscape:collect="always"
       xlink:href="#linearGradient3688-464-309"
       id="radialGradient3134"
       gradientUnits="userSpaceOnUse"
       gradientTransform="matrix(2.003784,0,0,1.4,-20.01187,-104.4)"
       cx="4.9929786"
       cy="43.5"
       fx="4.9929786"
       fy="43.5"
       r="2.5" />
    <linearGradient
       id="linearGradient3688-464-309">
      <stop
         id="stop2889"
         style="stop-color:#181818;stop-opacity:1"
         offset="0" />
      <stop
         id="stop2891"
         style="stop-color:#181818;stop-opacity:0"
         offset="1" />
    </linearGradient>
    <linearGradient
       inkscape:collect="always"
       xlink:href="#linearGradient3702-501-757"
       id="linearGradient3136"
       gradientUnits="userSpaceOnUse"
       x1="25.058096"
       y1="47.027729"
       x2="25.058096"
       y2="39.999443" />
    <linearGradient
       id="linearGradient3702-501-757">
      <stop
         id="stop2895"
         style="stop-color:#181818;stop-opacity:0"
         offset="0" />
      <stop
         id="stop2897"
         style="stop-color:#181818;stop-opacity:1"
         offset="0.5" />
      <stop
         id="stop2899"
         style="stop-color:#181818;stop-opacity:0"
         offset="1" />
    </linearGradient>
    <linearGradient
       inkscape:collect="always"
       xlink:href="#linearGradient4536"
       id="linearGradient4542"
       x1="14.801802"
       y1="1010.4072"
       x2="14.801802"
       y2="1024.1722"
       gradientUnits="userSpaceOnUse"
       gradientTransform="translate(-4,27.000017)" />
    <radialGradient
       inkscape:collect="always"
       xlink:href="#linearGradient3771"
       id="radialGradient3777"
       cx="8.0720873"
       cy="1039.4613"
       fx="8.0720873"
       fy="1039.4613"
       r="8"
       gradientUnits="userSpaceOnUse"
       gradientTransform="matrix(1.4806489e-6,1.9101011,-1.3873874,1.0754581e-6,1450.2076,-12.3205)" />
    <linearGradient
       inkscape:collect="always"
       xlink:href="#linearGradient3800"
       id="linearGradient3806"
       x1="1.1875"
       y1="7.984375"
       x2="14.8125"
       y2="7.984375"
       gradientUnits="userSpaceOnUse" />
    <linearGradient
       inkscape:collect="always"
       xlink:href="#linearGradient3787"
       id="linearGradient3793"
       x1="3.7499995"
       y1="15.949799"
       x2="3.7499995"
       y2="0.062499646"
       gradientUnits="userSpaceOnUse" />
  </defs>
  <sodipodi:namedview
     id="base"
     pagecolor="#ffffff"
     bordercolor="#666666"
     borderopacity="1.0"
     inkscape:pageopacity="0.0"
     inkscape:pageshadow="2"
     inkscape:zoom="11.313708"
     inkscape:cx="2.0181253"
     inkscape:cy="2.0464778"
     inkscape:document-units="px"
     inkscape:current-layer="layer1"
     showgrid="false"
     inkscape:window-width="1280"
     inkscape:window-height="749"
     inkscape:window-x="0"
     inkscape:window-y="24"
     inkscape:window-maximized="1" />
  <metadata
     id="metadata3152">
    <rdf:RDF>
      <cc:Work
         rdf:about="">
        <dc:format>image/svg+xml</dc:format>
        <dc:type
           rdf:resource="http://purl.org/dc/dcmitype/StillImage" />
        <dc:title />
      </cc:Work>
    </rdf:RDF>
  </metadata>
  <g
     inkscape:label="Livello 1"
     inkscape:groupmode="layer"
     id="layer1"
     transform="translate(0,-1036.3622)">
    <path
       style="fill:url(#radialGradient3777);fill-opacity:1;stroke:url(#linearGradient3793);stroke-opacity:1"
       d="M 1.5 0.5 C 0.946 0.5 0.5 0.946 0.5 1.5 L 0.5 12.5 C 0.5 13.054 0.946 13.5 1.5 13.5 L 4.5 13.5 L 8 15.5 L 11.5 13.5 L 14.5 13.5 C 15.054 13.5 15.5 13.054 15.5 12.5 L 15.5 1.5 C 15.5 0.946 15.054 0.5 14.5 0.5 L 1.5 0.5 z "
       transform="translate(0,1036.3622)"
       id="rect3163" />
    <path
       style="opacity:0.5;fill:none;stroke:url(#linearGradient4542);stroke-opacity:1"
       d="m 1.6,1037.8622 12.8,0 c 0.0554,0 0.1,0.045 0.1,0.1 l 0,10.8 c 0,0.055 -0.0446,0.1 -0.1,0.1 l -3.2,0 -3.2,1.8 -3.2,-1.8 -3.2,0 c -0.0554,0 -0.1,-0.045 -0.1,-0.1 l 0,-10.8 c 0,-0.055 0.0446,-0.1 0.1,-0.1 z"
       id="rect4534"
       inkscape:connector-curvature="0"
       sodipodi:nodetypes="ssssscccssss" />
    <path
       sodipodi:nodetypes="cccccccccccccccccccccccccc"
       inkscape:connector-curvature="0"
       id="path3795"
       d="m 6.0000002,1039.3622 0,0.9999 -1,0 0,1.9997 2,0 0,-0.9998 2,0 0,1.4998 -1,0 0,0.9999 -1,0 0,1.5005 2,0 0,-1.5005 0.9999998,0 0,-0.9999 1,0 0,-2.4997 -1,0 0,-0.9999 z m 1,6.5002 0,1.4998 2,0 0,-1.4998 z"
       style="fill:#000000;fill-opacity:1;stroke:#000000;stroke-opacity:1;stroke-linejoin:round;opacity:0.05;stroke-width:3;stroke-miterlimit:4;stroke-dasharray:none" />
    <path
       style="fill:#000000;fill-opacity:1;stroke:#000000;stroke-opacity:1;stroke-linejoin:round;opacity:0.09999995;stroke-width:2;stroke-miterlimit:4;stroke-dasharray:none"
       d="m 6.0000002,1039.3622 0,0.9999 -1,0 0,1.9997 2,0 0,-0.9998 2,0 0,1.4998 -1,0 0,0.9999 -1,0 0,1.5005 2,0 0,-1.5005 0.9999998,0 0,-0.9999 1,0 0,-2.4997 -1,0 0,-0.9999 z m 1,6.5002 0,1.4998 2,0 0,-1.4998 z"
       id="path3793"
       inkscape:connector-curvature="0"
       sodipodi:nodetypes="cccccccccccccccccccccccccc" />
    <path
       sodipodi:nodetypes="cccccccccccccccccccccccccc"
       inkscape:connector-curvature="0"
       id="path3791"
       d="m 6.0000002,1039.3622 0,0.9999 -1,0 0,1.9997 2,0 0,-0.9998 2,0 0,1.4998 -1,0 0,0.9999 -1,0 0,1.5005 2,0 0,-1.5005 0.9999998,0 0,-0.9999 1,0 0,-2.4997 -1,0 0,-0.9999 z m 1,6.5002 0,1.4998 2,0 0,-1.4998 z"
       style="fill:#000000;fill-opacity:1;stroke:#000000;stroke-opacity:1;stroke-linejoin:round;opacity:0.15" />
    <path
       style="fill:#ffffff;fill-opacity:1;stroke:none"
       d="m 6.0000002,1039.3622 0,0.9999 -1,0 0,1.9997 2,0 0,-0.9998 2,0 0,1.4998 -1,0 0,0.9999 -1,0 0,1.5005 2,0 0,-1.5005 0.9999998,0 0,-0.9999 1,0 0,-2.4997 -1,0 0,-0.9999 z m 1,6.5002 0,1.4998 2,0 0,-1.4998 z"
       id="rect3911"
       inkscape:connector-curvature="0"
       sodipodi:nodetypes="cccccccccccccccccccccccccc" />
  </g>
</svg>
