<?xml version="1.0" encoding="UTF-8" standalone="no"?>
<!-- Created with Inkscape (http://www.inkscape.org/) -->

<svg
   xmlns:dc="http://purl.org/dc/elements/1.1/"
   xmlns:cc="http://creativecommons.org/ns#"
   xmlns:rdf="http://www.w3.org/1999/02/22-rdf-syntax-ns#"
   xmlns:svg="http://www.w3.org/2000/svg"
   xmlns="http://www.w3.org/2000/svg"
   xmlns:xlink="http://www.w3.org/1999/xlink"
   xmlns:sodipodi="http://sodipodi.sourceforge.net/DTD/sodipodi-0.dtd"
   xmlns:inkscape="http://www.inkscape.org/namespaces/inkscape"
   width="16"
   height="16"
   id="svg3147"
   version="1.1"
   inkscape:version="0.48.3.1 r9886"
   sodipodi:docname="network-wireless.svg">
  <defs
     id="defs3149">
    <linearGradient
       id="linearGradient3779">
      <stop
         style="stop-color:#960000;stop-opacity:1;"
         offset="0"
         id="stop3781" />
      <stop
         style="stop-color:#b40000;stop-opacity:1;"
         offset="1"
         id="stop3783" />
    </linearGradient>
    <linearGradient
       id="linearGradient3771">
      <stop
         style="stop-color:#f50505;stop-opacity:1;"
         offset="0"
         id="stop3773" />
      <stop
         style="stop-color:#b40000;stop-opacity:1;"
         offset="1"
         id="stop3775" />
    </linearGradient>
    <linearGradient
       id="linearGradient4536">
      <stop
         style="stop-color:#ffffff;stop-opacity:1;"
         offset="0"
         id="stop4538" />
      <stop
         id="stop4546"
         offset="0.06216056"
         style="stop-color:#ffffff;stop-opacity:0.15686275;" />
      <stop
         id="stop4544"
         offset="0.936414"
         style="stop-color:#ffffff;stop-opacity:0.23529412;" />
      <stop
         style="stop-color:#ffffff;stop-opacity:0.39215687;"
         offset="1"
         id="stop4540" />
    </linearGradient>
    <radialGradient
       inkscape:collect="always"
       xlink:href="#linearGradient3688-166-749"
       id="radialGradient3132"
       gradientUnits="userSpaceOnUse"
       gradientTransform="matrix(2.003784,0,0,1.4,27.98813,-17.4)"
       cx="4.9929786"
       cy="43.5"
       fx="4.9929786"
       fy="43.5"
       r="2.5" />
    <linearGradient
       id="linearGradient3688-166-749">
      <stop
         id="stop2883"
         style="stop-color:#181818;stop-opacity:1"
         offset="0" />
      <stop
         id="stop2885"
         style="stop-color:#181818;stop-opacity:0"
         offset="1" />
    </linearGradient>
    <radialGradient
       inkscape:collect="always"
       xlink:href="#linearGradient3688-464-309"
       id="radialGradient3134"
       gradientUnits="userSpaceOnUse"
       gradientTransform="matrix(2.003784,0,0,1.4,-20.01187,-104.4)"
       cx="4.9929786"
       cy="43.5"
       fx="4.9929786"
       fy="43.5"
       r="2.5" />
    <linearGradient
       id="linearGradient3688-464-309">
      <stop
         id="stop2889"
         style="stop-color:#181818;stop-opacity:1"
         offset="0" />
      <stop
         id="stop2891"
         style="stop-color:#181818;stop-opacity:0"
         offset="1" />
    </linearGradient>
    <linearGradient
       inkscape:collect="always"
       xlink:href="#linearGradient3702-501-757"
       id="linearGradient3136"
       gradientUnits="userSpaceOnUse"
       x1="25.058096"
       y1="47.027729"
       x2="25.058096"
       y2="39.999443" />
    <linearGradient
       id="linearGradient3702-501-757">
      <stop
         id="stop2895"
         style="stop-color:#181818;stop-opacity:0"
         offset="0" />
      <stop
         id="stop2897"
         style="stop-color:#181818;stop-opacity:1"
         offset="0.5" />
      <stop
         id="stop2899"
         style="stop-color:#181818;stop-opacity:0"
         offset="1" />
    </linearGradient>
    <linearGradient
       inkscape:collect="always"
       xlink:href="#linearGradient4536"
       id="linearGradient4542"
       x1="14.801802"
       y1="1010.4072"
       x2="14.801802"
       y2="1024.1722"
       gradientUnits="userSpaceOnUse"
       gradientTransform="translate(-4,27.000017)" />
    <radialGradient
       inkscape:collect="always"
       xlink:href="#linearGradient3771"
       id="radialGradient3777"
       cx="8.2162399"
       cy="1039.3171"
       fx="8.2162399"
       fy="1039.3171"
       r="8"
       gradientUnits="userSpaceOnUse"
       gradientTransform="matrix(3.0451418e-6,1.9369369,-1.4505624,2.2804915e-6,1515.8106,1023.4004)" />
    <linearGradient
       inkscape:collect="always"
       xlink:href="#linearGradient3779"
       id="linearGradient3785"
       x1="4.8288288"
       y1="1052.146"
       x2="4.8288288"
       y2="1036.2902"
       gradientUnits="userSpaceOnUse" />
    <linearGradient
       gradientUnits="userSpaceOnUse"
       y2="1051.3589"
       x2="12.982142"
       y1="1045.4604"
       x1="12.982142"
       id="linearGradient3888"
       xlink:href="#linearGradient3882"
       inkscape:collect="always" />
    <linearGradient
       id="linearGradient3882"
       inkscape:collect="always">
      <stop
         id="stop3884"
         offset="0"
         style="stop-color:#bebebe;stop-opacity:1;" />
      <stop
         id="stop3886"
         offset="1"
         style="stop-color:#bebebe;stop-opacity:0;" />
    </linearGradient>
  </defs>
  <sodipodi:namedview
     id="base"
     pagecolor="#ffffff"
     bordercolor="#666666"
     borderopacity="1.0"
     inkscape:pageopacity="0.0"
     inkscape:pageshadow="2"
     inkscape:zoom="13.875"
     inkscape:cx="5.1885479"
     inkscape:cy="4.8105312"
     inkscape:document-units="px"
     inkscape:current-layer="layer1"
     showgrid="false"
     inkscape:window-width="1280"
     inkscape:window-height="749"
     inkscape:window-x="0"
     inkscape:window-y="24"
     inkscape:window-maximized="1" />
  <metadata
     id="metadata3152">
    <rdf:RDF>
      <cc:Work
         rdf:about="">
        <dc:format>image/svg+xml</dc:format>
        <dc:type
           rdf:resource="http://purl.org/dc/dcmitype/StillImage" />
        <dc:title></dc:title>
      </cc:Work>
    </rdf:RDF>
  </metadata>
  <g
     inkscape:label="Livello 1"
     inkscape:groupmode="layer"
     id="layer1"
     transform="translate(0,-1036.3622)">
    <rect
       style="fill:url(#radialGradient3777);fill-opacity:1;stroke:url(#linearGradient3785);stroke-opacity:1"
       id="rect3163"
       width="15"
       height="15"
       x="0.5"
       y="1036.8622"
       rx="1"
       ry="1" />
    <rect
       style="opacity:0.5;fill:none;stroke:url(#linearGradient4542);stroke-opacity:1"
       id="rect4534"
       width="13"
       height="13"
       x="1.5"
       y="1037.8622"
       rx="0.1"
       ry="0.1" />
    <path
       id="path3808"
       transform="translate(0,1036.3622)"
       d="M 7 2 L 7 4 L 6 4 C 5.446 4 5 4.446 5 5 L 5 7 L 11 7 L 11 5 C 11 4.446 10.554 4 10 4 L 9 4 L 9 2 L 7 2 z M 5 9 L 5 11 C 5 11.554 5.446 12 6 12 L 7 12 L 7 14 L 9 14 L 9 12 L 10 12 C 10.554 12 11 11.554 11 11 L 11 9 L 5 9 z "
       style="fill:#000000;fill-opacity:1;stroke:#000000;stroke-opacity:1;stroke-linejoin:round;opacity:0.05;stroke-width:3;stroke-miterlimit:4;stroke-dasharray:none" />
    <path
       style="fill:#000000;fill-opacity:1;stroke:#000000;stroke-opacity:1;stroke-linejoin:round;opacity:0.09999977;stroke-width:2;stroke-miterlimit:4;stroke-dasharray:none"
       d="M 7 2 L 7 4 L 6 4 C 5.446 4 5 4.446 5 5 L 5 7 L 11 7 L 11 5 C 11 4.446 10.554 4 10 4 L 9 4 L 9 2 L 7 2 z M 5 9 L 5 11 C 5 11.554 5.446 12 6 12 L 7 12 L 7 14 L 9 14 L 9 12 L 10 12 C 10.554 12 11 11.554 11 11 L 11 9 L 5 9 z "
       transform="translate(0,1036.3622)"
       id="path3806" />
    <path
       id="path3804"
       transform="translate(0,1036.3622)"
       d="M 7 2 L 7 4 L 6 4 C 5.446 4 5 4.446 5 5 L 5 7 L 11 7 L 11 5 C 11 4.446 10.554 4 10 4 L 9 4 L 9 2 L 7 2 z M 5 9 L 5 11 C 5 11.554 5.446 12 6 12 L 7 12 L 7 14 L 9 14 L 9 12 L 10 12 C 10.554 12 11 11.554 11 11 L 11 9 L 5 9 z "
       style="fill:#000000;fill-opacity:1;stroke:#000000;stroke-opacity:1;stroke-linejoin:round;opacity:0.14999981" />
    <path
       style="fill:#ffffff;fill-opacity:1;stroke:none"
       d="M 7 2 L 7 4 L 6 4 C 5.446 4 5 4.446 5 5 L 5 7 L 11 7 L 11 5 C 11 4.446 10.554 4 10 4 L 9 4 L 9 2 L 7 2 z M 5 9 L 5 11 C 5 11.554 5.446 12 6 12 L 7 12 L 7 14 L 9 14 L 9 12 L 10 12 C 10.554 12 11 11.554 11 11 L 11 9 L 5 9 z "
       transform="translate(0,1036.3622)"
       id="rect2993" />
  </g>
</svg>
