<?xml version="1.0" encoding="UTF-8" standalone="no"?>
<!-- Created with Inkscape (http://www.inkscape.org/) -->

<svg
   xmlns:dc="http://purl.org/dc/elements/1.1/"
   xmlns:cc="http://creativecommons.org/ns#"
   xmlns:rdf="http://www.w3.org/1999/02/22-rdf-syntax-ns#"
   xmlns:svg="http://www.w3.org/2000/svg"
   xmlns="http://www.w3.org/2000/svg"
   xmlns:xlink="http://www.w3.org/1999/xlink"
   xmlns:sodipodi="http://sodipodi.sourceforge.net/DTD/sodipodi-0.dtd"
   xmlns:inkscape="http://www.inkscape.org/namespaces/inkscape"
   width="16"
   height="16"
   id="svg3147"
   version="1.1"
   inkscape:version="0.48.3.1 r9886"
   sodipodi:docname="network-wireless-on.svg">
  <defs
     id="defs3149">
    <linearGradient
       id="linearGradient3779">
      <stop
         style="stop-color:#258915;stop-opacity:1;"
         offset="0"
         id="stop3781" />
      <stop
         style="stop-color:#32b205;stop-opacity:1;"
         offset="1"
         id="stop3783" />
    </linearGradient>
    <linearGradient
       id="linearGradient3771">
      <stop
         style="stop-color:#9ce14c;stop-opacity:1;"
         offset="0"
         id="stop3773" />
      <stop
         style="stop-color:#4aba00;stop-opacity:1;"
         offset="1"
         id="stop3775" />
    </linearGradient>
    <linearGradient
       id="linearGradient4536">
      <stop
         style="stop-color:#ffffff;stop-opacity:1;"
         offset="0"
         id="stop4538" />
      <stop
         id="stop4546"
         offset="0.06216056"
         style="stop-color:#ffffff;stop-opacity:0.15686275;" />
      <stop
         id="stop4544"
         offset="0.936414"
         style="stop-color:#ffffff;stop-opacity:0.23529412;" />
      <stop
         style="stop-color:#ffffff;stop-opacity:0.39215687;"
         offset="1"
         id="stop4540" />
    </linearGradient>
    <radialGradient
       inkscape:collect="always"
       xlink:href="#linearGradient3688-166-749"
       id="radialGradient3132"
       gradientUnits="userSpaceOnUse"
       gradientTransform="matrix(2.003784,0,0,1.4,27.98813,-17.4)"
       cx="4.9929786"
       cy="43.5"
       fx="4.9929786"
       fy="43.5"
       r="2.5" />
    <linearGradient
       id="linearGradient3688-166-749">
      <stop
         id="stop2883"
         style="stop-color:#181818;stop-opacity:1"
         offset="0" />
      <stop
         id="stop2885"
         style="stop-color:#181818;stop-opacity:0"
         offset="1" />
    </linearGradient>
    <radialGradient
       inkscape:collect="always"
       xlink:href="#linearGradient3688-464-309"
       id="radialGradient3134"
       gradientUnits="userSpaceOnUse"
       gradientTransform="matrix(2.003784,0,0,1.4,-20.01187,-104.4)"
       cx="4.9929786"
       cy="43.5"
       fx="4.9929786"
       fy="43.5"
       r="2.5" />
    <linearGradient
       id="linearGradient3688-464-309">
      <stop
         id="stop2889"
         style="stop-color:#181818;stop-opacity:1"
         offset="0" />
      <stop
         id="stop2891"
         style="stop-color:#181818;stop-opacity:0"
         offset="1" />
    </linearGradient>
    <linearGradient
       inkscape:collect="always"
       xlink:href="#linearGradient3702-501-757"
       id="linearGradient3136"
       gradientUnits="userSpaceOnUse"
       x1="25.058096"
       y1="47.027729"
       x2="25.058096"
       y2="39.999443" />
    <linearGradient
       id="linearGradient3702-501-757">
      <stop
         id="stop2895"
         style="stop-color:#181818;stop-opacity:0"
         offset="0" />
      <stop
         id="stop2897"
         style="stop-color:#181818;stop-opacity:1"
         offset="0.5" />
      <stop
         id="stop2899"
         style="stop-color:#181818;stop-opacity:0"
         offset="1" />
    </linearGradient>
    <linearGradient
       inkscape:collect="always"
       xlink:href="#linearGradient4536"
       id="linearGradient4542"
       x1="14.801802"
       y1="1010.4072"
       x2="14.801802"
       y2="1024.1722"
       gradientUnits="userSpaceOnUse"
       gradientTransform="translate(-4,27.000017)" />
    <radialGradient
       inkscape:collect="always"
       xlink:href="#linearGradient3771"
       id="radialGradient3777"
       cx="8.2162399"
       cy="1039.3171"
       fx="8.2162399"
       fy="1039.3171"
       r="8"
       gradientUnits="userSpaceOnUse"
       gradientTransform="matrix(3.0451418e-6,1.9369369,-1.4505624,2.2804915e-6,1515.8106,1023.4004)" />
    <linearGradient
       inkscape:collect="always"
       xlink:href="#linearGradient3779"
       id="linearGradient3785"
       x1="4.8288288"
       y1="1052.146"
       x2="4.8288288"
       y2="1036.2902"
       gradientUnits="userSpaceOnUse" />
  </defs>
  <sodipodi:namedview
     id="base"
     pagecolor="#ffffff"
     bordercolor="#666666"
     borderopacity="1.0"
     inkscape:pageopacity="0.0"
     inkscape:pageshadow="2"
     inkscape:zoom="13.875"
     inkscape:cx="5.3983368"
     inkscape:cy="5.0244568"
     inkscape:document-units="px"
     inkscape:current-layer="layer1"
     showgrid="false"
     inkscape:window-width="1280"
     inkscape:window-height="749"
     inkscape:window-x="0"
     inkscape:window-y="24"
     inkscape:window-maximized="1" />
  <metadata
     id="metadata3152">
    <rdf:RDF>
      <cc:Work
         rdf:about="">
        <dc:format>image/svg+xml</dc:format>
        <dc:type
           rdf:resource="http://purl.org/dc/dcmitype/StillImage" />
        <dc:title></dc:title>
      </cc:Work>
    </rdf:RDF>
  </metadata>
  <g
     inkscape:label="Livello 1"
     inkscape:groupmode="layer"
     id="layer1"
     transform="translate(0,-1036.3622)">
    <rect
       style="fill:url(#radialGradient3777);fill-opacity:1;stroke:url(#linearGradient3785);stroke-opacity:1"
       id="rect3163"
       width="15"
       height="15"
       x="0.5"
       y="1036.8622"
       rx="1"
       ry="1" />
    <rect
       style="opacity:0.5;fill:none;stroke:url(#linearGradient4542);stroke-opacity:1"
       id="rect4534"
       width="13"
       height="13"
       x="1.5"
       y="1037.8622"
       rx="0.1"
       ry="0.1" />
    <path
       sodipodi:nodetypes="ccssccssccccssccccsscc"
       id="path3794"
       d="m 7,1038.3622 0,2 -1,0 c -0.554,0 -1,0.446 -1,1 l 0,2 6,0 0,-2 c 0,-0.554 -0.446,-1 -1,-1 l -1,0 0,-2 z m -2,6 0,2 c 0,0.554 0.4487494,0.9449 1,1 l 1,0 0,3 2,0 0,-3 1,0 c 0.554,0 1,-0.446 1,-1 l 0,-2 z"
       style="fill:#000000;fill-opacity:1;stroke:#000000;stroke-opacity:1;stroke-linejoin:round;opacity:0.05;stroke-width:3;stroke-miterlimit:4;stroke-dasharray:none"
       inkscape:connector-curvature="0" />
    <path
       inkscape:connector-curvature="0"
       style="fill:#000000;fill-opacity:1;stroke:#000000;stroke-opacity:1;stroke-linejoin:round;opacity:0.09999995;stroke-width:2;stroke-miterlimit:4;stroke-dasharray:none"
       d="m 7,1038.3622 0,2 -1,0 c -0.554,0 -1,0.446 -1,1 l 0,2 6,0 0,-2 c 0,-0.554 -0.446,-1 -1,-1 l -1,0 0,-2 z m -2,6 0,2 c 0,0.554 0.4487494,0.9449 1,1 l 1,0 0,3 2,0 0,-3 1,0 c 0.554,0 1,-0.446 1,-1 l 0,-2 z"
       id="path3792"
       sodipodi:nodetypes="ccssccssccccssccccsscc" />
    <path
       sodipodi:nodetypes="ccssccssccccssccccsscc"
       id="path3022"
       d="m 7,1038.3622 0,2 -1,0 c -0.554,0 -1,0.446 -1,1 l 0,2 6,0 0,-2 c 0,-0.554 -0.446,-1 -1,-1 l -1,0 0,-2 z m -2,6 0,2 c 0,0.554 0.4487494,0.9449 1,1 l 1,0 0,3 2,0 0,-3 1,0 c 0.554,0 1,-0.446 1,-1 l 0,-2 z"
       style="fill:#000000;fill-opacity:1;stroke:#000000;stroke-opacity:1;stroke-linejoin:round;opacity:0.15"
       inkscape:connector-curvature="0" />
    <path
       inkscape:connector-curvature="0"
       style="fill:#ffffff;fill-opacity:1;stroke:none"
       d="m 7,1038.3622 0,2 -1,0 c -0.554,0 -1,0.446 -1,1 l 0,2 6,0 0,-2 c 0,-0.554 -0.446,-1 -1,-1 l -1,0 0,-2 z m -2,6 0,2 c 0,0.554 0.4487494,0.9449 1,1 l 1,0 0,3 2,0 0,-3 1,0 c 0.554,0 1,-0.446 1,-1 l 0,-2 z"
       id="rect2993"
       sodipodi:nodetypes="ccssccssccccssccccsscc" />
  </g>
</svg>
